G04 #@! TF.GenerationSoftware,KiCad,Pcbnew,7.0.0-da2b9df05c~171~ubuntu22.04.1*
G04 #@! TF.CreationDate,2023-04-04T23:18:37+03:00*
G04 #@! TF.ProjectId,satnogs-comms,7361746e-6f67-4732-9d63-6f6d6d732e6b,rev?*
G04 #@! TF.SameCoordinates,PX4eb9cf0PY82ce540*
G04 #@! TF.FileFunction,Soldermask,Top*
G04 #@! TF.FilePolarity,Negative*
%FSLAX46Y46*%
G04 Gerber Fmt 4.6, Leading zero omitted, Abs format (unit mm)*
G04 Created by KiCad (PCBNEW 7.0.0-da2b9df05c~171~ubuntu22.04.1) date 2023-04-04 23:18:37*
%MOMM*%
%LPD*%
G01*
G04 APERTURE LIST*
G04 Aperture macros list*
%AMRoundRect*
0 Rectangle with rounded corners*
0 $1 Rounding radius*
0 $2 $3 $4 $5 $6 $7 $8 $9 X,Y pos of 4 corners*
0 Add a 4 corners polygon primitive as box body*
4,1,4,$2,$3,$4,$5,$6,$7,$8,$9,$2,$3,0*
0 Add four circle primitives for the rounded corners*
1,1,$1+$1,$2,$3*
1,1,$1+$1,$4,$5*
1,1,$1+$1,$6,$7*
1,1,$1+$1,$8,$9*
0 Add four rect primitives between the rounded corners*
20,1,$1+$1,$2,$3,$4,$5,0*
20,1,$1+$1,$4,$5,$6,$7,0*
20,1,$1+$1,$6,$7,$8,$9,0*
20,1,$1+$1,$8,$9,$2,$3,0*%
%AMRotRect*
0 Rectangle, with rotation*
0 The origin of the aperture is its center*
0 $1 length*
0 $2 width*
0 $3 Rotation angle, in degrees counterclockwise*
0 Add horizontal line*
21,1,$1,$2,0,0,$3*%
%AMFreePoly0*
4,1,7,1.500000,-0.775000,-1.500000,-0.775000,-1.500000,0.225000,-6.000000,0.225000,-6.000000,0.775000,1.500000,0.775000,1.500000,-0.775000,1.500000,-0.775000,$1*%
%AMFreePoly1*
4,1,8,1.500000,-0.775000,-1.500000,-0.775000,-6.000000,-0.775000,-6.000000,-0.225000,-1.500000,-0.225000,-1.500000,0.775000,1.500000,0.775000,1.500000,-0.775000,1.500000,-0.775000,$1*%
%AMFreePoly2*
4,1,6,0.125000,-0.099500,-0.013000,-0.237500,-0.125000,-0.237500,-0.125000,0.237500,0.125000,0.237500,0.125000,-0.099500,0.125000,-0.099500,$1*%
%AMFreePoly3*
4,1,6,0.125000,0.099500,0.125000,-0.237500,-0.125000,-0.237500,-0.125000,0.237500,-0.013000,0.237500,0.125000,0.099500,0.125000,0.099500,$1*%
%AMFreePoly4*
4,1,36,0.462941,0.544983,0.479174,0.544983,0.492307,0.535440,0.507748,0.530424,0.517290,0.517290,0.530424,0.507748,0.535440,0.492307,0.544983,0.479174,0.544983,0.462941,0.550000,0.447500,0.550000,-0.447500,0.544983,-0.462941,0.544983,-0.479174,0.535440,-0.492307,0.530424,-0.507748,0.517290,-0.517290,0.507748,-0.530424,0.492307,-0.535440,0.479174,-0.544983,0.462941,-0.544983,
0.447500,-0.550000,-0.447500,-0.550000,-0.462941,-0.544983,-0.479174,-0.544983,-0.492307,-0.535440,-0.507748,-0.530424,-0.517290,-0.517290,-0.530424,-0.507748,-0.535440,-0.492307,-0.544983,-0.479174,-0.544983,-0.462941,-0.550000,-0.447500,-0.550000,0.350000,-0.350000,0.550000,0.447500,0.550000,0.462941,0.544983,0.462941,0.544983,$1*%
%AMFreePoly5*
4,1,14,0.155252,0.089749,0.264749,-0.019748,0.275000,-0.044497,0.275000,-0.065000,0.264749,-0.089749,0.240000,-0.100000,-0.240000,-0.100000,-0.264749,-0.089749,-0.275000,-0.065000,-0.275000,0.065000,-0.264749,0.089749,-0.240000,0.100000,0.130503,0.100000,0.155252,0.089749,0.155252,0.089749,$1*%
%AMFreePoly6*
4,1,14,0.264749,0.089749,0.275000,0.065000,0.275000,0.044497,0.264749,0.019748,0.155252,-0.089749,0.130503,-0.100000,-0.240000,-0.100000,-0.264749,-0.089749,-0.275000,-0.065000,-0.275000,0.065000,-0.264749,0.089749,-0.240000,0.100000,0.240000,0.100000,0.264749,0.089749,0.264749,0.089749,$1*%
%AMFreePoly7*
4,1,14,0.089749,0.264749,0.100000,0.240000,0.100000,-0.240000,0.089749,-0.264749,0.065000,-0.275000,-0.065000,-0.275000,-0.089749,-0.264749,-0.100000,-0.240000,-0.100000,0.130503,-0.089749,0.155252,0.019748,0.264749,0.044497,0.275000,0.065000,0.275000,0.089749,0.264749,0.089749,0.264749,$1*%
%AMFreePoly8*
4,1,14,-0.019748,0.264749,0.089749,0.155252,0.100000,0.130503,0.100000,-0.240000,0.089749,-0.264749,0.065000,-0.275000,-0.065000,-0.275000,-0.089749,-0.264749,-0.100000,-0.240000,-0.100000,0.240000,-0.089749,0.264749,-0.065000,0.275000,-0.044497,0.275000,-0.019748,0.264749,-0.019748,0.264749,$1*%
%AMFreePoly9*
4,1,14,0.264749,0.089749,0.275000,0.065000,0.275000,-0.065000,0.264749,-0.089749,0.240000,-0.100000,-0.130503,-0.100000,-0.155252,-0.089749,-0.264749,0.019748,-0.275000,0.044497,-0.275000,0.065000,-0.264749,0.089749,-0.240000,0.100000,0.240000,0.100000,0.264749,0.089749,0.264749,0.089749,$1*%
%AMFreePoly10*
4,1,14,0.264749,0.089749,0.275000,0.065000,0.275000,-0.065000,0.264749,-0.089749,0.240000,-0.100000,-0.240000,-0.100000,-0.264749,-0.089749,-0.275000,-0.065000,-0.275000,-0.044497,-0.264749,-0.019747,-0.155252,0.089749,-0.130503,0.100000,0.240000,0.100000,0.264749,0.089749,0.264749,0.089749,$1*%
%AMFreePoly11*
4,1,14,0.089749,0.264749,0.100000,0.240000,0.100000,-0.130503,0.089749,-0.155252,-0.019748,-0.264749,-0.044497,-0.275000,-0.065000,-0.275000,-0.089749,-0.264749,-0.100000,-0.240000,-0.100000,0.240000,-0.089749,0.264749,-0.065000,0.275000,0.065000,0.275000,0.089749,0.264749,0.089749,0.264749,$1*%
%AMFreePoly12*
4,1,14,0.089749,0.264749,0.100000,0.240000,0.100000,-0.240000,0.089749,-0.264749,0.065000,-0.275000,0.044497,-0.275000,0.019748,-0.264749,-0.089749,-0.155252,-0.100000,-0.130503,-0.100000,0.240000,-0.089749,0.264749,-0.065000,0.275000,0.065000,0.275000,0.089749,0.264749,0.089749,0.264749,$1*%
%AMFreePoly13*
4,1,176,10.669000,63.765000,10.669000,58.081000,2.729000,58.081000,2.468000,58.063000,2.211000,58.012000,1.964000,57.928000,1.729000,57.813000,1.512000,57.667000,1.315000,57.495000,1.142000,57.298000,0.997000,57.081000,0.881000,56.846000,0.797000,56.598000,0.746000,56.342000,0.729000,56.081000,0.729000,37.284000,0.744000,37.037000,0.790000,36.794000,0.866000,36.558000,0.970000,36.333000,
1.101000,36.123000,1.257000,35.930000,1.436000,35.759000,1.634000,35.611000,1.634000,15.882000,1.651000,15.621000,1.702000,15.365000,1.786000,15.117000,1.902000,14.882000,2.047000,14.665000,2.220000,14.468000,2.417000,14.296000,2.634000,14.150000,2.869000,14.035000,3.116000,13.950000,3.373000,13.899000,3.634000,13.882000,35.127000,13.882000,35.257000,13.865000,35.377000,13.815000,
35.481000,13.736000,35.560000,13.632000,35.610000,13.512000,35.627000,13.382000,35.627000,9.262000,35.645000,8.994000,35.699000,8.732000,35.787000,8.478000,35.909000,8.239000,36.061000,8.018000,36.242000,7.820000,36.448000,7.647000,36.674000,7.504000,38.425000,6.555000,38.645000,6.414000,38.842000,6.241000,39.010000,6.041000,39.147000,5.818000,39.249000,5.577000,39.314000,5.324000,
39.341000,5.064000,39.328000,4.802000,39.277000,4.546000,39.188000,4.300000,39.063000,4.070000,38.906000,3.861000,38.719000,3.678000,38.507000,3.525000,38.274000,3.405000,38.027000,3.322000,37.769000,3.276000,37.508000,3.269000,37.248000,3.301000,36.996000,3.371000,36.758000,3.478000,33.889000,5.032000,33.781000,5.111000,33.698000,5.216000,33.645000,5.339000,33.627000,5.472000,
33.627000,9.882000,33.610000,10.143000,33.559000,10.400000,33.475000,10.648000,33.359000,10.882000,33.214000,11.100000,33.042000,11.297000,32.845000,11.469000,32.627000,11.614000,32.393000,11.730000,32.145000,11.814000,31.888000,11.865000,31.627000,11.882000,2.729000,11.882000,2.468000,11.865000,2.211000,11.814000,1.964000,11.730000,1.729000,11.614000,1.512000,11.469000,1.315000,11.297000,
1.142000,11.100000,0.997000,10.882000,0.881000,10.648000,0.797000,10.400000,0.746000,10.143000,0.729000,9.882000,0.729000,6.643000,0.747000,6.374000,0.801000,6.110000,0.891000,5.855000,1.013000,5.615000,1.167000,5.394000,1.349000,5.195000,1.557000,5.022000,1.785000,4.880000,2.031000,4.769000,2.289000,4.692000,2.538000,4.616000,2.773000,4.503000,2.989000,4.358000,
3.181000,4.181000,3.344000,3.979000,3.476000,3.754000,3.573000,3.512000,3.633000,3.259000,3.654000,2.999000,3.637000,2.739000,3.581000,2.485000,3.489000,2.241000,3.361000,2.015000,3.201000,1.809000,3.047000,1.618000,2.919000,1.409000,2.817000,1.186000,2.742000,0.952000,2.698000,0.711000,2.683000,0.466000,2.683000,-1.080000,-1.271000,-1.080000,-1.271000,13.411000,
-1.253000,13.597000,-1.198000,13.776000,-1.110000,13.940000,-0.992000,14.085000,-0.848000,14.203000,-0.683000,14.291000,-0.504000,14.345000,-0.318000,14.364000,-0.133000,14.382000,0.046000,14.436000,0.211000,14.524000,0.355000,14.642000,0.474000,14.787000,0.562000,14.952000,0.616000,15.130000,0.634000,15.316000,0.634000,33.706000,0.616000,33.891000,0.562000,34.070000,0.474000,34.235000,
0.355000,34.379000,0.211000,34.498000,0.046000,34.586000,-0.133000,34.640000,-0.318000,34.658000,-0.504000,34.676000,-0.683000,34.731000,-0.848000,34.819000,-0.992000,34.937000,-1.110000,35.081000,-1.198000,35.246000,-1.253000,35.425000,-1.271000,35.611000,-1.271000,64.922000,3.819000,64.922000,10.669000,63.765000,10.669000,63.765000,$1*%
%AMFreePoly14*
4,1,313,37.697000,6.512000,37.886000,6.447000,38.058000,6.346000,38.207000,6.213000,38.326000,6.054000,38.836000,5.206000,38.983000,4.995000,39.155000,4.804000,39.350000,4.637000,39.566000,4.497000,39.797000,4.385000,40.041000,4.304000,40.293000,4.254000,40.550000,4.238000,50.368000,4.238000,50.497000,4.221000,50.618000,4.171000,50.721000,4.091000,50.801000,3.988000,50.851000,3.867000,
50.868000,3.738000,50.868000,-9.240000,50.885000,-9.501000,50.936000,-9.758000,51.020000,-10.006000,51.136000,-10.240000,51.281000,-10.458000,51.453000,-10.655000,51.650000,-10.827000,51.868000,-10.972000,52.102000,-11.088000,52.350000,-11.172000,52.607000,-11.223000,52.868000,-11.240000,56.003000,-11.240000,56.003000,-11.345000,56.020000,-11.606000,56.071000,-11.863000,56.155000,-12.111000,56.271000,-12.345000,
56.416000,-12.563000,56.589000,-12.760000,56.786000,-12.932000,57.003000,-13.077000,57.238000,-13.193000,57.485000,-13.277000,57.742000,-13.328000,58.003000,-13.345000,75.475000,-13.345000,75.737000,-13.328000,75.995000,-13.276000,76.244000,-13.191000,76.480000,-13.074000,76.698000,-12.927000,76.895000,-12.753000,77.068000,-12.554000,77.213000,-12.335000,77.328000,-12.098000,78.932000,-8.146000,79.112000,-7.754000,
79.323000,-7.378000,79.566000,-7.021000,79.838000,-6.686000,80.137000,-6.375000,80.462000,-6.091000,80.810000,-5.835000,81.177000,-5.609000,81.563000,-5.415000,81.964000,-5.255000,82.376000,-5.129000,82.798000,-5.038000,83.226000,-4.984000,83.658000,-4.965000,84.738000,-4.965000,84.999000,-4.948000,85.255000,-4.897000,85.503000,-4.813000,85.738000,-4.697000,85.955000,-4.552000,86.152000,-4.380000,
86.324000,-4.183000,86.470000,-3.965000,86.585000,-3.731000,86.669000,-3.483000,86.720000,-3.226000,86.738000,-2.965000,86.738000,-2.165000,86.719000,-1.895000,86.665000,-1.630000,86.575000,-1.374000,86.451000,-1.134000,86.296000,-0.912000,86.112000,-0.713000,85.903000,-0.540000,85.673000,-0.398000,85.426000,-0.287000,85.166000,-0.212000,85.039000,-0.165000,84.929000,-0.086000,84.844000,0.019000,
84.791000,0.143000,84.773000,0.277000,84.773000,0.806000,88.738000,0.806000,88.738000,-7.015000,83.658000,-7.015000,83.331000,-7.033000,83.008000,-7.085000,82.692000,-7.172000,82.388000,-7.292000,82.098000,-7.444000,81.826000,-7.626000,81.575000,-7.837000,81.349000,-8.072000,81.148000,-8.331000,80.977000,-8.610000,80.837000,-8.906000,80.729000,-9.215000,80.654000,-9.533000,80.615000,-9.858000,
80.610000,-10.185000,80.723000,-13.065000,80.723000,-15.145000,55.908000,-15.145000,55.722000,-15.127000,55.544000,-15.073000,55.379000,-14.985000,55.235000,-14.866000,55.116000,-14.722000,55.028000,-14.557000,54.974000,-14.379000,54.956000,-14.193000,54.937000,-14.007000,54.883000,-13.828000,54.795000,-13.664000,54.677000,-13.519000,54.532000,-13.401000,54.368000,-13.313000,54.189000,-13.259000,54.003000,-13.240000,
48.868000,-13.240000,48.868000,-2.512000,48.850000,-2.251000,48.799000,-1.995000,48.715000,-1.747000,48.600000,-1.512000,48.454000,-1.295000,48.282000,-1.098000,48.085000,-0.925000,47.868000,-0.780000,47.633000,-0.664000,47.385000,-0.580000,47.129000,-0.529000,46.868000,-0.512000,42.470000,-0.512000,42.209000,-0.529000,41.952000,-0.580000,41.704000,-0.664000,41.470000,-0.780000,41.252000,-0.925000,
41.055000,-1.098000,40.883000,-1.295000,40.738000,-1.512000,40.622000,-1.747000,40.538000,-1.995000,40.487000,-2.251000,40.470000,-2.512000,40.470000,-13.240000,35.588000,-13.240000,35.402000,-13.259000,35.224000,-13.313000,35.059000,-13.401000,34.915000,-13.519000,34.796000,-13.664000,34.708000,-13.828000,34.654000,-14.007000,34.636000,-14.193000,34.617000,-14.379000,34.563000,-14.557000,34.475000,-14.722000,
34.357000,-14.866000,34.212000,-14.985000,34.048000,-15.073000,33.869000,-15.127000,33.683000,-15.145000,6.582000,-15.145000,6.582000,-13.065000,6.695000,-10.185000,6.690000,-9.858000,6.651000,-9.533000,6.576000,-9.214000,6.468000,-8.905000,6.328000,-8.610000,6.157000,-8.331000,5.956000,-8.072000,5.730000,-7.836000,5.479000,-7.626000,5.207000,-7.444000,4.917000,-7.292000,4.613000,-7.172000,
4.297000,-7.085000,3.974000,-7.033000,3.648000,-7.015000,-1.432000,-7.015000,-1.432000,0.806000,2.521000,0.806000,2.521000,0.274000,2.503000,0.141000,2.450000,0.017000,2.366000,-0.088000,2.257000,-0.167000,2.130000,-0.214000,1.872000,-0.290000,1.625000,-0.401000,1.397000,-0.544000,1.189000,-0.716000,1.006000,-0.915000,0.852000,-1.137000,0.729000,-1.377000,0.640000,-1.632000,
0.586000,-1.896000,0.568000,-2.165000,0.568000,-2.965000,0.585000,-3.226000,0.636000,-3.483000,0.720000,-3.731000,0.836000,-3.965000,0.981000,-4.183000,1.153000,-4.380000,1.350000,-4.552000,1.568000,-4.697000,1.802000,-4.813000,2.050000,-4.897000,2.307000,-4.948000,2.568000,-4.965000,3.648000,-4.965000,4.079000,-4.984000,4.507000,-5.038000,4.929000,-5.129000,5.341000,-5.255000,
5.742000,-5.415000,6.128000,-5.609000,6.495000,-5.835000,6.843000,-6.090000,7.168000,-6.375000,7.467000,-6.686000,7.739000,-7.021000,7.982000,-7.377000,8.193000,-7.753000,8.373000,-8.146000,9.978000,-12.098000,10.093000,-12.335000,10.238000,-12.554000,10.410000,-12.753000,10.607000,-12.927000,10.826000,-13.074000,11.061000,-13.191000,11.310000,-13.276000,11.568000,-13.328000,11.831000,-13.345000,
31.588000,-13.345000,31.849000,-13.328000,32.106000,-13.277000,32.353000,-13.193000,32.588000,-13.077000,32.806000,-12.932000,33.002000,-12.760000,33.175000,-12.563000,33.320000,-12.345000,33.436000,-12.111000,33.520000,-11.863000,33.571000,-11.606000,33.588000,-11.345000,33.588000,-11.240000,36.470000,-11.240000,36.731000,-11.223000,36.987000,-11.172000,37.235000,-11.088000,37.470000,-10.972000,37.687000,-10.827000,
37.884000,-10.655000,38.056000,-10.458000,38.202000,-10.240000,38.317000,-10.006000,38.401000,-9.758000,38.452000,-9.501000,38.470000,-9.240000,38.470000,-1.017000,38.451000,-0.744000,38.395000,-0.476000,38.303000,-0.218000,38.177000,0.025000,38.019000,0.248000,37.832000,0.448000,37.619000,0.620000,37.385000,0.761000,37.133000,0.870000,36.870000,0.943000,36.741000,0.988000,36.629000,1.066000,
36.543000,1.172000,36.488000,1.297000,36.470000,1.433000,36.470000,5.538000,36.490000,5.736000,36.549000,5.927000,36.644000,6.102000,36.773000,6.255000,36.929000,6.379000,37.107000,6.470000,37.299000,6.523000,37.499000,6.537000,37.697000,6.512000,37.697000,6.512000,$1*%
%AMFreePoly15*
4,1,260,16.714000,-0.156000,16.696000,-0.342000,16.642000,-0.521000,16.554000,-0.685000,16.435000,-0.830000,16.291000,-0.948000,16.126000,-1.036000,15.948000,-1.090000,15.762000,-1.109000,15.576000,-1.127000,15.397000,-1.181000,15.233000,-1.269000,15.088000,-1.388000,14.970000,-1.532000,14.882000,-1.697000,14.828000,-1.875000,14.809000,-2.061000,14.809000,-20.451000,14.828000,-20.636000,14.882000,-20.815000,
14.970000,-20.980000,15.088000,-21.124000,15.233000,-21.243000,15.397000,-21.331000,15.576000,-21.385000,15.948000,-21.421000,16.126000,-21.476000,16.291000,-21.564000,16.435000,-21.682000,16.554000,-21.826000,16.642000,-21.991000,16.696000,-22.170000,16.714000,-22.356000,16.714000,-36.846000,12.749000,-36.846000,12.749000,-36.418000,12.768000,-36.284000,12.821000,-36.160000,12.906000,-36.055000,13.016000,-35.976000,
13.142000,-35.930000,13.402000,-35.854000,13.650000,-35.744000,13.880000,-35.601000,14.089000,-35.429000,14.273000,-35.230000,14.428000,-35.008000,14.551000,-34.767000,14.641000,-34.512000,14.696000,-34.246000,14.714000,-33.976000,14.714000,-26.773000,14.697000,-26.512000,14.646000,-26.256000,14.562000,-26.008000,14.446000,-25.773000,14.301000,-25.556000,14.129000,-25.359000,13.932000,-25.187000,13.714000,-25.041000,
13.480000,-24.926000,13.232000,-24.842000,12.975000,-24.790000,12.714000,-24.773000,-6.205000,-24.773000,-6.466000,-24.790000,-6.723000,-24.842000,-6.971000,-24.926000,-7.205000,-25.041000,-7.423000,-25.187000,-7.620000,-25.359000,-7.792000,-25.556000,-7.937000,-25.773000,-8.053000,-26.008000,-8.137000,-26.256000,-8.188000,-26.512000,-8.205000,-26.773000,-8.205000,-29.099000,-8.223000,-29.348000,-8.276000,-29.592000,
-8.364000,-29.826000,-8.483000,-30.045000,-8.633000,-30.245000,-8.809000,-30.422000,-9.009000,-30.571000,-9.228000,-30.691000,-9.462000,-30.778000,-9.706000,-30.831000,-9.955000,-30.849000,-10.928000,-30.849000,-11.189000,-30.866000,-11.445000,-30.917000,-11.693000,-31.001000,-11.928000,-31.117000,-12.145000,-31.262000,-12.342000,-31.435000,-12.514000,-31.632000,-12.660000,-31.849000,-12.775000,-32.084000,-12.859000,-32.332000,
-12.910000,-32.588000,-12.928000,-32.849000,-12.928000,-33.190000,-12.945000,-33.320000,-12.995000,-33.440000,-13.074000,-33.544000,-13.178000,-33.623000,-13.298000,-33.673000,-13.428000,-33.690000,-14.428000,-33.690000,-14.557000,-33.673000,-14.678000,-33.623000,-14.781000,-33.544000,-14.861000,-33.440000,-14.911000,-33.320000,-14.928000,-33.190000,-14.928000,-28.599000,-14.911000,-28.470000,-14.861000,-28.349000,-14.781000,-28.246000,
-14.678000,-28.166000,-14.557000,-28.116000,-14.428000,-28.099000,-12.456000,-28.099000,-12.195000,-28.082000,-11.938000,-28.031000,-11.690000,-27.947000,-11.456000,-27.831000,-11.238000,-27.686000,-11.041000,-27.513000,-10.869000,-27.317000,-10.724000,-27.099000,-10.608000,-26.865000,-10.524000,-26.617000,-10.473000,-26.360000,-10.456000,-26.099000,-10.456000,-23.273000,-10.439000,-23.144000,-10.389000,-23.023000,-10.309000,-22.920000,
-10.206000,-22.840000,-10.085000,-22.790000,-9.956000,-22.773000,-5.328000,-22.773000,-5.067000,-22.756000,-4.810000,-22.705000,-4.562000,-22.621000,-4.328000,-22.505000,-4.110000,-22.360000,-3.913000,-22.188000,-3.741000,-21.991000,-3.596000,-21.773000,-3.480000,-21.539000,-3.396000,-21.291000,-3.345000,-21.034000,-3.328000,-20.773000,-3.328000,-4.130000,-3.343000,-3.886000,-3.387000,-3.645000,-3.461000,-3.412000,
-3.563000,-3.189000,-3.652000,-2.995000,-3.716000,-2.790000,-3.755000,-2.580000,-3.768000,-2.366000,-3.768000,0.793000,-3.751000,0.923000,-3.701000,1.043000,-3.622000,1.147000,-3.518000,1.226000,-3.398000,1.276000,-3.268000,1.293000,2.309000,1.293000,2.309000,-0.707000,2.035000,-0.726000,1.765000,-0.782000,1.506000,-0.875000,1.262000,-1.003000,1.038000,-1.163000,0.838000,-1.352000,
0.666000,-1.567000,-0.971000,-3.926000,-1.097000,-4.133000,-1.197000,-4.354000,-1.269000,-4.586000,-1.313000,-4.824000,-1.328000,-5.066000,-1.328000,-20.773000,-1.310000,-21.034000,-1.259000,-21.291000,-1.175000,-21.539000,-1.060000,-21.773000,-0.914000,-21.991000,-0.742000,-22.188000,-0.545000,-22.360000,-0.328000,-22.505000,-0.093000,-22.621000,0.155000,-22.705000,0.411000,-22.756000,0.672000,-22.773000,
10.809000,-22.773000,11.070000,-22.756000,11.327000,-22.705000,11.575000,-22.621000,11.809000,-22.505000,12.027000,-22.360000,12.224000,-22.188000,12.396000,-21.991000,12.541000,-21.773000,12.657000,-21.539000,12.741000,-21.291000,12.792000,-21.034000,12.809000,-20.773000,12.809000,-2.707000,12.792000,-2.446000,12.741000,-2.189000,12.657000,-1.941000,12.541000,-1.707000,12.396000,-1.489000,12.224000,-1.293000,
12.027000,-1.120000,11.809000,-0.975000,11.575000,-0.859000,11.327000,-0.775000,11.070000,-0.724000,10.809000,-0.707000,2.409000,-0.707000,2.409000,1.293000,11.658000,1.293000,11.913000,1.310000,12.165000,1.359000,12.408000,1.439000,12.639000,1.550000,12.854000,1.690000,13.910000,2.479000,14.112000,2.651000,14.289000,2.849000,14.439000,3.068000,14.558000,3.306000,14.644000,3.557000,
14.697000,3.817000,14.714000,4.082000,14.714000,20.314000,14.697000,20.575000,14.646000,20.831000,14.562000,21.079000,14.446000,21.314000,14.301000,21.531000,14.129000,21.728000,13.932000,21.901000,13.714000,22.046000,13.480000,22.162000,13.232000,22.246000,12.975000,22.297000,12.714000,22.314000,6.044000,22.314000,6.044000,27.998000,12.894000,29.156000,16.714000,29.156000,16.714000,-0.156000,
16.714000,-0.156000,$1*%
G04 Aperture macros list end*
%ADD10C,0.600000*%
%ADD11R,1.524000X1.524000*%
%ADD12C,1.524000*%
%ADD13C,5.600000*%
%ADD14RoundRect,0.243750X-0.243750X-0.456250X0.243750X-0.456250X0.243750X0.456250X-0.243750X0.456250X0*%
%ADD15RoundRect,0.243750X0.456250X-0.243750X0.456250X0.243750X-0.456250X0.243750X-0.456250X-0.243750X0*%
%ADD16R,2.350000X5.100000*%
%ADD17RoundRect,0.218750X0.256250X-0.218750X0.256250X0.218750X-0.256250X0.218750X-0.256250X-0.218750X0*%
%ADD18RoundRect,0.218750X-0.256250X0.218750X-0.256250X-0.218750X0.256250X-0.218750X0.256250X0.218750X0*%
%ADD19R,2.600000X1.100000*%
%ADD20FreePoly0,180.000000*%
%ADD21FreePoly1,180.000000*%
%ADD22RoundRect,0.147500X-0.147500X-0.172500X0.147500X-0.172500X0.147500X0.172500X-0.147500X0.172500X0*%
%ADD23RoundRect,0.147500X0.017678X-0.226274X0.226274X-0.017678X-0.017678X0.226274X-0.226274X0.017678X0*%
%ADD24FreePoly0,0.000000*%
%ADD25FreePoly1,0.000000*%
%ADD26RoundRect,0.147500X0.172500X-0.147500X0.172500X0.147500X-0.172500X0.147500X-0.172500X-0.147500X0*%
%ADD27RotRect,0.350000X1.000000X45.000000*%
%ADD28RotRect,0.350000X1.000000X315.000000*%
%ADD29RoundRect,0.147500X-0.017678X0.226274X-0.226274X0.017678X0.017678X-0.226274X0.226274X-0.017678X0*%
%ADD30FreePoly2,270.000000*%
%ADD31R,0.475000X0.250000*%
%ADD32FreePoly3,90.000000*%
%ADD33FreePoly2,0.000000*%
%ADD34R,0.250000X0.475000*%
%ADD35FreePoly3,180.000000*%
%ADD36FreePoly2,90.000000*%
%ADD37FreePoly3,270.000000*%
%ADD38FreePoly2,180.000000*%
%ADD39FreePoly3,0.000000*%
%ADD40FreePoly4,180.000000*%
%ADD41RoundRect,0.062500X-0.062500X0.325000X-0.062500X-0.325000X0.062500X-0.325000X0.062500X0.325000X0*%
%ADD42R,1.600000X0.700000*%
%ADD43RoundRect,0.147500X0.147500X0.172500X-0.147500X0.172500X-0.147500X-0.172500X0.147500X-0.172500X0*%
%ADD44C,0.050000*%
%ADD45R,0.750000X0.400000*%
%ADD46RoundRect,0.147500X-0.172500X0.147500X-0.172500X-0.147500X0.172500X-0.147500X0.172500X0.147500X0*%
%ADD47RoundRect,0.075000X0.075000X-0.725000X0.075000X0.725000X-0.075000X0.725000X-0.075000X-0.725000X0*%
%ADD48RoundRect,0.075000X0.725000X-0.075000X0.725000X0.075000X-0.725000X0.075000X-0.725000X-0.075000X0*%
%ADD49R,2.370000X2.430000*%
%ADD50R,1.060000X0.650000*%
%ADD51R,0.410000X0.330000*%
%ADD52RoundRect,0.140000X-0.140000X-0.170000X0.140000X-0.170000X0.140000X0.170000X-0.140000X0.170000X0*%
%ADD53RoundRect,0.218750X0.218750X0.256250X-0.218750X0.256250X-0.218750X-0.256250X0.218750X-0.256250X0*%
%ADD54RoundRect,0.225000X-0.250000X0.225000X-0.250000X-0.225000X0.250000X-0.225000X0.250000X0.225000X0*%
%ADD55RotRect,0.750000X0.400000X135.000000*%
%ADD56RotRect,0.750000X0.400000X315.000000*%
%ADD57RoundRect,0.062500X-0.350000X-0.062500X0.350000X-0.062500X0.350000X0.062500X-0.350000X0.062500X0*%
%ADD58RoundRect,0.062500X-0.062500X-0.350000X0.062500X-0.350000X0.062500X0.350000X-0.062500X0.350000X0*%
%ADD59RoundRect,0.250001X-1.099999X-1.099999X1.099999X-1.099999X1.099999X1.099999X-1.099999X1.099999X0*%
%ADD60FreePoly5,180.000000*%
%ADD61RoundRect,0.050000X0.225000X0.050000X-0.225000X0.050000X-0.225000X-0.050000X0.225000X-0.050000X0*%
%ADD62FreePoly6,180.000000*%
%ADD63FreePoly7,180.000000*%
%ADD64RoundRect,0.050000X0.050000X0.225000X-0.050000X0.225000X-0.050000X-0.225000X0.050000X-0.225000X0*%
%ADD65FreePoly8,180.000000*%
%ADD66FreePoly9,180.000000*%
%ADD67FreePoly10,180.000000*%
%ADD68FreePoly11,180.000000*%
%ADD69FreePoly12,180.000000*%
%ADD70R,0.740000X0.740000*%
%ADD71RotRect,0.350000X1.000000X135.000000*%
%ADD72RoundRect,0.062500X0.062500X-0.375000X0.062500X0.375000X-0.062500X0.375000X-0.062500X-0.375000X0*%
%ADD73RoundRect,0.062500X0.375000X-0.062500X0.375000X0.062500X-0.375000X0.062500X-0.375000X-0.062500X0*%
%ADD74RoundRect,0.250001X2.549999X-2.549999X2.549999X2.549999X-2.549999X2.549999X-2.549999X-2.549999X0*%
%ADD75RoundRect,0.100000X-0.275000X0.250000X-0.275000X-0.250000X0.275000X-0.250000X0.275000X0.250000X0*%
%ADD76RoundRect,0.250001X0.899999X-0.899999X0.899999X0.899999X-0.899999X0.899999X-0.899999X-0.899999X0*%
%ADD77RoundRect,0.140000X-0.170000X0.140000X-0.170000X-0.140000X0.170000X-0.140000X0.170000X0.140000X0*%
%ADD78RoundRect,0.140000X0.140000X0.170000X-0.140000X0.170000X-0.140000X-0.170000X0.140000X-0.170000X0*%
%ADD79RoundRect,0.135000X-0.185000X0.135000X-0.185000X-0.135000X0.185000X-0.135000X0.185000X0.135000X0*%
%ADD80RoundRect,0.135000X0.185000X-0.135000X0.185000X0.135000X-0.185000X0.135000X-0.185000X-0.135000X0*%
%ADD81RoundRect,0.135000X0.135000X0.185000X-0.135000X0.185000X-0.135000X-0.185000X0.135000X-0.185000X0*%
%ADD82R,0.500000X0.400000*%
%ADD83R,0.500000X0.300000*%
%ADD84RoundRect,0.075000X-0.350000X-0.075000X0.350000X-0.075000X0.350000X0.075000X-0.350000X0.075000X0*%
%ADD85RoundRect,0.075000X-0.075000X-0.350000X0.075000X-0.350000X0.075000X0.350000X-0.075000X0.350000X0*%
%ADD86RoundRect,0.250001X-0.799999X-0.799999X0.799999X-0.799999X0.799999X0.799999X-0.799999X0.799999X0*%
%ADD87RoundRect,0.250000X0.450000X-0.262500X0.450000X0.262500X-0.450000X0.262500X-0.450000X-0.262500X0*%
%ADD88R,0.300000X0.350000*%
%ADD89RoundRect,0.250000X-0.475000X0.250000X-0.475000X-0.250000X0.475000X-0.250000X0.475000X0.250000X0*%
%ADD90C,2.000000*%
%ADD91RoundRect,0.250000X-0.250000X-0.475000X0.250000X-0.475000X0.250000X0.475000X-0.250000X0.475000X0*%
%ADD92RoundRect,0.140000X0.170000X-0.140000X0.170000X0.140000X-0.170000X0.140000X-0.170000X-0.140000X0*%
%ADD93R,0.410000X0.720000*%
%ADD94R,1.730000X3.990000*%
%ADD95R,0.470000X0.410000*%
%ADD96R,0.585000X0.510000*%
%ADD97C,3.500000*%
%ADD98R,0.600000X0.770000*%
%ADD99R,0.770000X0.600000*%
%ADD100R,2.875000X2.875000*%
%ADD101RoundRect,0.135000X-0.135000X-0.185000X0.135000X-0.185000X0.135000X0.185000X-0.135000X0.185000X0*%
%ADD102R,3.400000X1.800000*%
%ADD103RoundRect,0.189500X0.758000X1.060500X-0.758000X1.060500X-0.758000X-1.060500X0.758000X-1.060500X0*%
%ADD104RoundRect,0.050000X0.275000X-0.050000X0.275000X0.050000X-0.275000X0.050000X-0.275000X-0.050000X0*%
%ADD105RoundRect,0.050000X0.450000X-0.050000X0.450000X0.050000X-0.450000X0.050000X-0.450000X-0.050000X0*%
%ADD106RoundRect,0.062500X0.062500X0.212500X-0.062500X0.212500X-0.062500X-0.212500X0.062500X-0.212500X0*%
%ADD107RoundRect,0.062500X-0.062500X-0.212500X0.062500X-0.212500X0.062500X0.212500X-0.062500X0.212500X0*%
%ADD108R,1.700000X1.700000*%
%ADD109O,1.700000X1.700000*%
%ADD110RoundRect,0.250000X0.250000X0.475000X-0.250000X0.475000X-0.250000X-0.475000X0.250000X-0.475000X0*%
%ADD111RoundRect,0.218750X-0.218750X-0.381250X0.218750X-0.381250X0.218750X0.381250X-0.218750X0.381250X0*%
%ADD112C,0.800000*%
%ADD113R,2.300000X0.750000*%
%ADD114R,2.300000X0.250000*%
%ADD115R,0.400000X0.500000*%
%ADD116R,0.300000X0.500000*%
%ADD117R,1.700000X0.810000*%
%ADD118R,1.050000X0.810000*%
%ADD119R,0.330000X0.270000*%
%ADD120RoundRect,0.250000X-0.575000X0.350000X-0.575000X-0.350000X0.575000X-0.350000X0.575000X0.350000X0*%
%ADD121O,1.650000X1.200000*%
%ADD122FreePoly13,0.000000*%
%ADD123FreePoly14,0.000000*%
%ADD124FreePoly15,0.000000*%
%ADD125RoundRect,0.093750X-0.106250X0.093750X-0.106250X-0.093750X0.106250X-0.093750X0.106250X0.093750X0*%
%ADD126R,1.600000X1.000000*%
%ADD127RoundRect,0.250000X0.575000X-0.350000X0.575000X0.350000X-0.575000X0.350000X-0.575000X-0.350000X0*%
%ADD128RoundRect,0.189500X-1.060500X0.758000X-1.060500X-0.758000X1.060500X-0.758000X1.060500X0.758000X0*%
%ADD129RoundRect,0.050000X-0.050000X-0.275000X0.050000X-0.275000X0.050000X0.275000X-0.050000X0.275000X0*%
%ADD130RoundRect,0.050000X-0.050000X-0.450000X0.050000X-0.450000X0.050000X0.450000X-0.050000X0.450000X0*%
%ADD131RoundRect,0.062500X0.212500X-0.062500X0.212500X0.062500X-0.212500X0.062500X-0.212500X-0.062500X0*%
%ADD132RoundRect,0.062500X-0.212500X0.062500X-0.212500X-0.062500X0.212500X-0.062500X0.212500X0.062500X0*%
%ADD133C,1.000000*%
G04 APERTURE END LIST*
D10*
X62482400Y70942200D02*
G75*
G03*
X62482400Y70942200I-100000J0D01*
G01*
X53135200Y79298800D02*
G75*
G03*
X53135200Y79298800I-100000J0D01*
G01*
X84555000Y38608000D02*
G75*
G03*
X84555000Y38608000I-100000J0D01*
G01*
X79195600Y39370000D02*
G75*
G03*
X79195600Y39370000I-100000J0D01*
G01*
X74547400Y38582600D02*
G75*
G03*
X74547400Y38582600I-100000J0D01*
G01*
X82269000Y38531800D02*
G75*
G03*
X82269000Y38531800I-100000J0D01*
G01*
X84936000Y42341800D02*
G75*
G03*
X84936000Y42341800I-100000J0D01*
G01*
X61263200Y5778500D02*
G75*
G03*
X61263200Y5778500I-100000J0D01*
G01*
X53287600Y5562600D02*
G75*
G03*
X53287600Y5562600I-100000J0D01*
G01*
X78370100Y28333700D02*
G75*
G03*
X78370100Y28333700I-100000J0D01*
G01*
X5802300Y25577800D02*
G75*
G03*
X5802300Y25577800I-100000J0D01*
G01*
X42187800Y27101800D02*
G75*
G03*
X42187800Y27101800I-100000J0D01*
G01*
X41171800Y31369000D02*
G75*
G03*
X41171800Y31369000I-100000J0D01*
G01*
X41883000Y29768800D02*
G75*
G03*
X41883000Y29768800I-100000J0D01*
G01*
X40689200Y32537400D02*
G75*
G03*
X40689200Y32537400I-100000J0D01*
G01*
X75550000Y2900000D02*
G75*
G03*
X75550000Y2900000I-100000J0D01*
G01*
X87056900Y30962600D02*
G75*
G03*
X87056900Y30962600I-100000J0D01*
G01*
X42746600Y35229800D02*
G75*
G03*
X42746600Y35229800I-100000J0D01*
G01*
X41908400Y36169600D02*
G75*
G03*
X41908400Y36169600I-100000J0D01*
G01*
X60323400Y47142400D02*
G75*
G03*
X60323400Y47142400I-100000J0D01*
G01*
X64819200Y15875000D02*
G75*
G03*
X64819200Y15875000I-100000J0D01*
G01*
X59790000Y44119800D02*
G75*
G03*
X59790000Y44119800I-100000J0D01*
G01*
X42187800Y25831800D02*
G75*
G03*
X42187800Y25831800I-100000J0D01*
G01*
X56818200Y29946600D02*
G75*
G03*
X56818200Y29946600I-100000J0D01*
G01*
X56411800Y27127200D02*
G75*
G03*
X56411800Y27127200I-100000J0D01*
G01*
X56411800Y25831800D02*
G75*
G03*
X56411800Y25831800I-100000J0D01*
G01*
X4875200Y30708600D02*
G75*
G03*
X4875200Y30708600I-100000J0D01*
G01*
X80008400Y27432000D02*
G75*
G03*
X80008400Y27432000I-100000J0D01*
G01*
X84758200Y56070500D02*
G75*
G03*
X84758200Y56070500I-100000J0D01*
G01*
X68593600Y57556400D02*
G75*
G03*
X68593600Y57556400I-100000J0D01*
G01*
X57275400Y66979800D02*
G75*
G03*
X57275400Y66979800I-100000J0D01*
G01*
X49198200Y23901400D02*
G75*
G03*
X49198200Y23901400I-100000J0D01*
G01*
D11*
X13969999Y83184999D03*
D12*
X13970000Y85725000D03*
X16510000Y83185000D03*
X16510000Y85725000D03*
X19050000Y83185000D03*
X19050000Y85725000D03*
X21590000Y83185000D03*
X21590000Y85725000D03*
X24130000Y83185000D03*
X24130000Y85725000D03*
X26670000Y83185000D03*
X26670000Y85725000D03*
X29210000Y83185000D03*
X29210000Y85725000D03*
X31750000Y83185000D03*
X31750000Y85725000D03*
X34290000Y83185000D03*
X34290000Y85725000D03*
X36830000Y83185000D03*
X36830000Y85725000D03*
X39370000Y83185000D03*
X39370000Y85725000D03*
X41910000Y83185000D03*
X41910000Y85725000D03*
X44450000Y83185000D03*
X44450000Y85725000D03*
X46990000Y83185000D03*
X46990000Y85725000D03*
X49530000Y83185000D03*
X49530000Y85725000D03*
X52070000Y83185000D03*
X52070000Y85725000D03*
X54610000Y83185000D03*
X54610000Y85725000D03*
X57150000Y83185000D03*
X57150000Y85725000D03*
X59690000Y83185000D03*
X59690000Y85725000D03*
X62230000Y83185000D03*
X62230000Y85725000D03*
X64770000Y83185000D03*
X64770000Y85725000D03*
X67310000Y83185000D03*
X67310000Y85725000D03*
X69850000Y83185000D03*
X69850000Y85725000D03*
X72390000Y83185000D03*
X72390000Y85725000D03*
X74930000Y83185000D03*
X74930000Y85725000D03*
X77470000Y83185000D03*
X77470000Y85725000D03*
D11*
X13969999Y88264999D03*
D12*
X13970000Y90805000D03*
X16510000Y88265000D03*
X16510000Y90805000D03*
X19050000Y88265000D03*
X19050000Y90805000D03*
X21590000Y88265000D03*
X21590000Y90805000D03*
X24130000Y88265000D03*
X24130000Y90805000D03*
X26670000Y88265000D03*
X26670000Y90805000D03*
X29210000Y88265000D03*
X29210000Y90805000D03*
X31750000Y88265000D03*
X31750000Y90805000D03*
X34290000Y88265000D03*
X34290000Y90805000D03*
X36830000Y88265000D03*
X36830000Y90805000D03*
X39370000Y88265000D03*
X39370000Y90805000D03*
X41910000Y88265000D03*
X41910000Y90805000D03*
X44450000Y88265000D03*
X44450000Y90805000D03*
X46990000Y88265000D03*
X46990000Y90805000D03*
X49530000Y88265000D03*
X49530000Y90805000D03*
X52070000Y88265000D03*
X52070000Y90805000D03*
X54610000Y88265000D03*
X54610000Y90805000D03*
X57150000Y88265000D03*
X57150000Y90805000D03*
X59690000Y88265000D03*
X59690000Y90805000D03*
X62230000Y88265000D03*
X62230000Y90805000D03*
X64770000Y88265000D03*
X64770000Y90805000D03*
X67310000Y88265000D03*
X67310000Y90805000D03*
X69850000Y88265000D03*
X69850000Y90805000D03*
X72390000Y88265000D03*
X72390000Y90805000D03*
X74930000Y88265000D03*
X74930000Y90805000D03*
X77470000Y88265000D03*
X77470000Y90805000D03*
D13*
X82550000Y90805000D03*
X85090000Y5080000D03*
X5080000Y5080000D03*
D14*
X62178000Y72628300D03*
X64053000Y72628300D03*
X62178000Y74528300D03*
X64053000Y74528300D03*
X62791100Y80346300D03*
X64666100Y80346300D03*
D15*
X56205500Y71490800D03*
X56205500Y73365800D03*
X54254400Y71490800D03*
X54254400Y73365800D03*
D16*
X59880499Y77428299D03*
X55730499Y77428299D03*
D17*
X66294000Y75082300D03*
X66294000Y76657300D03*
D18*
X67843400Y76657200D03*
X67843400Y75082200D03*
D13*
X8890000Y90805000D03*
D19*
X82004999Y19151599D03*
D20*
X82205000Y17626600D03*
D21*
X82205000Y20676600D03*
D22*
X65379600Y20167600D03*
X66349600Y20167600D03*
X62659400Y23139400D03*
X63629400Y23139400D03*
D23*
X64782653Y23609300D03*
X65468547Y24295194D03*
D15*
X56200000Y63451500D03*
X56200000Y65326500D03*
X58181200Y63451500D03*
X58181200Y65326500D03*
X81204500Y39982000D03*
X81204500Y41857000D03*
X83154500Y39982000D03*
X83154500Y41857000D03*
D19*
X8153399Y19151599D03*
D24*
X7953400Y20676600D03*
D25*
X7953400Y17626600D03*
D22*
X5705900Y27711200D03*
X6675900Y27711200D03*
X74216400Y24790400D03*
X75186400Y24790400D03*
D26*
X66624200Y25651600D03*
X66624200Y26621600D03*
D27*
X76696322Y21924015D03*
X76236703Y21464395D03*
X75777083Y21004776D03*
D28*
X76024571Y19979471D03*
D27*
X77049876Y19731983D03*
X77509495Y20191603D03*
X77969115Y20651222D03*
D28*
X77721627Y21676527D03*
D29*
X78854347Y18732547D03*
X78168453Y18046653D03*
D26*
X72951340Y17170400D03*
X72951340Y18140400D03*
D30*
X76375100Y17165700D03*
D31*
X76375099Y17665699D03*
D32*
X76375100Y18165700D03*
D33*
X75912600Y18628200D03*
D34*
X75412599Y18628199D03*
D35*
X74912600Y18628200D03*
D36*
X74450100Y18165700D03*
D31*
X74450099Y17665699D03*
D37*
X74450100Y17165700D03*
D38*
X74912600Y16703200D03*
D34*
X75412599Y16703199D03*
D39*
X75912600Y16703200D03*
D40*
X75412600Y17665700D03*
D22*
X77998600Y8280400D03*
X78968600Y8280400D03*
D41*
X77864400Y11401900D03*
X77364400Y11401900D03*
X76864400Y11401900D03*
X76364400Y11401900D03*
X76364400Y9476900D03*
X76864400Y9476900D03*
X77364400Y9476900D03*
X77864400Y9476900D03*
D42*
X77114399Y10439399D03*
D26*
X79984600Y9525000D03*
X79984600Y10495000D03*
X78955900Y9525000D03*
X78955900Y10495000D03*
D22*
X5703500Y28727200D03*
X6673500Y28727200D03*
D43*
X6675900Y26695200D03*
X5705900Y26695200D03*
D44*
X62382400Y70942200D03*
X53035200Y79298800D03*
X84455000Y38608000D03*
X79095600Y39370000D03*
D43*
X11813400Y19138900D03*
X10843400Y19138900D03*
D29*
X58813700Y22783800D03*
X58127806Y22097906D03*
D15*
X73450000Y39982000D03*
X73450000Y41857000D03*
D45*
X61630199Y23133099D03*
X61630199Y23933099D03*
X59680199Y23933099D03*
X59680199Y23133099D03*
D43*
X62994400Y20167600D03*
X62024400Y20167600D03*
D26*
X64200900Y19174600D03*
X64200900Y20144600D03*
D22*
X13891400Y33528000D03*
X14861400Y33528000D03*
D18*
X66294000Y80340300D03*
X66294000Y78765300D03*
D44*
X74447400Y38582600D03*
D46*
X78219300Y23802200D03*
X78219300Y22832200D03*
D22*
X76502400Y24777700D03*
X77472400Y24777700D03*
D46*
X75184000Y23802200D03*
X75184000Y22832200D03*
D47*
X44292000Y40966000D03*
X44792000Y40966000D03*
X45292000Y40966000D03*
X45792000Y40966000D03*
X46292000Y40966000D03*
X46792000Y40966000D03*
X47292000Y40966000D03*
X47792000Y40966000D03*
X48292000Y40966000D03*
X48792000Y40966000D03*
X49292000Y40966000D03*
X49792000Y40966000D03*
X50292000Y40966000D03*
X50792000Y40966000D03*
X51292000Y40966000D03*
X51792000Y40966000D03*
X52292000Y40966000D03*
X52792000Y40966000D03*
X53292000Y40966000D03*
X53792000Y40966000D03*
X54292000Y40966000D03*
X54792000Y40966000D03*
X55292000Y40966000D03*
X55792000Y40966000D03*
X56292000Y40966000D03*
D48*
X57967000Y42641000D03*
X57967000Y43141000D03*
X57967000Y43641000D03*
X57967000Y44141000D03*
X57967000Y44641000D03*
X57967000Y45141000D03*
X57967000Y45641000D03*
X57967000Y46141000D03*
X57967000Y46641000D03*
X57967000Y47141000D03*
X57967000Y47641000D03*
X57967000Y48141000D03*
X57967000Y48641000D03*
X57967000Y49141000D03*
X57967000Y49641000D03*
X57967000Y50141000D03*
X57967000Y50641000D03*
X57967000Y51141000D03*
X57967000Y51641000D03*
X57967000Y52141000D03*
X57967000Y52641000D03*
X57967000Y53141000D03*
X57967000Y53641000D03*
X57967000Y54141000D03*
X57967000Y54641000D03*
D47*
X56292000Y56316000D03*
X55792000Y56316000D03*
X55292000Y56316000D03*
X54792000Y56316000D03*
X54292000Y56316000D03*
X53792000Y56316000D03*
X53292000Y56316000D03*
X52792000Y56316000D03*
X52292000Y56316000D03*
X51792000Y56316000D03*
X51292000Y56316000D03*
X50792000Y56316000D03*
X50292000Y56316000D03*
X49792000Y56316000D03*
X49292000Y56316000D03*
X48792000Y56316000D03*
X48292000Y56316000D03*
X47792000Y56316000D03*
X47292000Y56316000D03*
X46792000Y56316000D03*
X46292000Y56316000D03*
X45792000Y56316000D03*
X45292000Y56316000D03*
X44792000Y56316000D03*
X44292000Y56316000D03*
D48*
X42617000Y54641000D03*
X42617000Y54141000D03*
X42617000Y53641000D03*
X42617000Y53141000D03*
X42617000Y52641000D03*
X42617000Y52141000D03*
X42617000Y51641000D03*
X42617000Y51141000D03*
X42617000Y50641000D03*
X42617000Y50141000D03*
X42617000Y49641000D03*
X42617000Y49141000D03*
X42617000Y48641000D03*
X42617000Y48141000D03*
X42617000Y47641000D03*
X42617000Y47141000D03*
X42617000Y46641000D03*
X42617000Y46141000D03*
X42617000Y45641000D03*
X42617000Y45141000D03*
X42617000Y44641000D03*
X42617000Y44141000D03*
X42617000Y43641000D03*
X42617000Y43141000D03*
X42617000Y42641000D03*
D49*
X74699999Y31859999D03*
X80939999Y31859999D03*
D43*
X66349600Y19151600D03*
X65379600Y19151600D03*
D26*
X63576200Y14907400D03*
X63576200Y15877400D03*
X84632800Y39697800D03*
X84632800Y40667800D03*
D43*
X78539200Y38252400D03*
X77569200Y38252400D03*
D50*
X62305499Y78284299D03*
X62305499Y77334299D03*
X62305499Y76384299D03*
X64505499Y76384299D03*
X64505499Y77334299D03*
X64505499Y78284299D03*
D44*
X82169000Y38531800D03*
X84836000Y42341800D03*
D51*
X29024999Y24504999D03*
X29674999Y24504999D03*
X30324999Y24504999D03*
X30324999Y25494999D03*
X29674999Y25494999D03*
X29024999Y25494999D03*
D52*
X62258000Y5778500D03*
X63218000Y5778500D03*
D44*
X61163200Y5778500D03*
X53187600Y5562600D03*
X78270100Y28333700D03*
X5702300Y25577800D03*
X42087800Y27101800D03*
D46*
X46558200Y24869000D03*
X46558200Y23899000D03*
D44*
X41071800Y31369000D03*
D26*
X47828200Y23901400D03*
X47828200Y24871400D03*
D44*
X41783000Y29768800D03*
X40589200Y32537400D03*
D26*
X77368400Y6246000D03*
X77368400Y7216000D03*
D44*
X75450000Y2900000D03*
X86956900Y30962600D03*
D53*
X86664900Y25189400D03*
X85089900Y25189400D03*
X86384900Y29589400D03*
X84809900Y29589400D03*
D44*
X42646600Y35229800D03*
X41808400Y36169600D03*
X60223400Y47142400D03*
D46*
X72580500Y14071600D03*
X72580500Y13101600D03*
D22*
X71587500Y15163800D03*
X72557500Y15163800D03*
X71587500Y12077700D03*
X72557500Y12077700D03*
D46*
X71564500Y14071600D03*
X71564500Y13101600D03*
D43*
X72557500Y16230600D03*
X71587500Y16230600D03*
D54*
X66560700Y11951000D03*
X66560700Y10401000D03*
D44*
X64719200Y15875000D03*
X59690000Y44119800D03*
D55*
X59842585Y6050827D03*
X60408271Y6616513D03*
X59029413Y7995371D03*
D56*
X58463727Y7429685D03*
D57*
X68922200Y26277700D03*
X68922200Y25777700D03*
X68922200Y25277700D03*
X68922200Y24777700D03*
X68922200Y24277700D03*
X68922200Y23777700D03*
D58*
X69634700Y23065200D03*
X70134700Y23065200D03*
X70634700Y23065200D03*
X71134700Y23065200D03*
X71634700Y23065200D03*
X72134700Y23065200D03*
D57*
X72847200Y23777700D03*
X72847200Y24277700D03*
X72847200Y24777700D03*
X72847200Y25277700D03*
X72847200Y25777700D03*
X72847200Y26277700D03*
D58*
X72134700Y26990200D03*
X71634700Y26990200D03*
X71134700Y26990200D03*
X70634700Y26990200D03*
X70134700Y26990200D03*
X69634700Y26990200D03*
D59*
X70884700Y25027700D03*
D26*
X71260000Y30345000D03*
X71260000Y31315000D03*
D22*
X68250000Y28409900D03*
X69220000Y28409900D03*
X75485000Y28120000D03*
X76455000Y28120000D03*
X75485000Y29120000D03*
X76455000Y29120000D03*
D43*
X76454000Y27089100D03*
X75484000Y27089100D03*
D26*
X71260000Y28401900D03*
X71260000Y29371900D03*
X68250000Y29448900D03*
X68250000Y30418900D03*
D46*
X70218600Y31315000D03*
X70218600Y30345000D03*
D26*
X68250000Y31379300D03*
X68250000Y32349300D03*
D29*
X58102547Y23482347D03*
X57416653Y22796453D03*
D60*
X56067080Y20784680D03*
D61*
X56067080Y21184680D03*
X56067080Y21584680D03*
D62*
X56067080Y21984680D03*
D63*
X55592080Y22259680D03*
D64*
X55192080Y22259680D03*
D65*
X54792080Y22259680D03*
D66*
X54317080Y21984680D03*
D61*
X54317080Y21584680D03*
X54317080Y21184680D03*
D67*
X54317080Y20784680D03*
D68*
X54792080Y20509680D03*
D64*
X55192080Y20509680D03*
D69*
X55592080Y20509680D03*
D70*
X55192079Y21384679D03*
D46*
X50368200Y24871400D03*
X50368200Y23901400D03*
X51638200Y24869000D03*
X51638200Y23899000D03*
D71*
X75611983Y14529822D03*
X76071603Y14070203D03*
X76531222Y13610583D03*
D27*
X77556527Y13858071D03*
D71*
X77804015Y14883376D03*
X77344395Y15342995D03*
X76884776Y15802615D03*
D27*
X75859471Y15555127D03*
D44*
X42087800Y25831800D03*
D22*
X43177600Y28448000D03*
X44147600Y28448000D03*
D26*
X55575000Y29950000D03*
X55575000Y30920000D03*
D43*
X55323600Y28960000D03*
X54353600Y28960000D03*
D44*
X56718200Y29946600D03*
X56311800Y27127200D03*
D22*
X56893600Y34747200D03*
X57863600Y34747200D03*
D72*
X46360900Y27067900D03*
X46860900Y27067900D03*
X47360900Y27067900D03*
X47860900Y27067900D03*
X48360900Y27067900D03*
X48860900Y27067900D03*
X49360900Y27067900D03*
X49860900Y27067900D03*
X50360900Y27067900D03*
X50860900Y27067900D03*
X51360900Y27067900D03*
X51860900Y27067900D03*
D73*
X52548400Y27755400D03*
X52548400Y28255400D03*
X52548400Y28755400D03*
X52548400Y29255400D03*
X52548400Y29755400D03*
X52548400Y30255400D03*
X52548400Y30755400D03*
X52548400Y31255400D03*
X52548400Y31755400D03*
X52548400Y32255400D03*
X52548400Y32755400D03*
X52548400Y33255400D03*
D72*
X51860900Y33942900D03*
X51360900Y33942900D03*
X50860900Y33942900D03*
X50360900Y33942900D03*
X49860900Y33942900D03*
X49360900Y33942900D03*
X48860900Y33942900D03*
X48360900Y33942900D03*
X47860900Y33942900D03*
X47360900Y33942900D03*
X46860900Y33942900D03*
X46360900Y33942900D03*
D73*
X45673400Y33255400D03*
X45673400Y32755400D03*
X45673400Y32255400D03*
X45673400Y31755400D03*
X45673400Y31255400D03*
X45673400Y30755400D03*
X45673400Y30255400D03*
X45673400Y29755400D03*
X45673400Y29255400D03*
X45673400Y28755400D03*
X45673400Y28255400D03*
X45673400Y27755400D03*
D74*
X49110900Y30505400D03*
D26*
X54550000Y29950000D03*
X54550000Y30920000D03*
X57835800Y29944200D03*
X57835800Y30914200D03*
D43*
X54841000Y33782000D03*
X53871000Y33782000D03*
D75*
X56903600Y33516800D03*
X56903600Y32116800D03*
X57853600Y32116800D03*
X57853600Y33516800D03*
D43*
X55323600Y31910000D03*
X54353600Y31910000D03*
D22*
X54353600Y27965400D03*
X55323600Y27965400D03*
D43*
X78336000Y12649200D03*
X77366000Y12649200D03*
X54991000Y11061700D03*
X54021000Y11061700D03*
X62562600Y15910000D03*
X61592600Y15910000D03*
D46*
X57607200Y18521400D03*
X57607200Y17551400D03*
D22*
X54000400Y15189200D03*
X54970400Y15189200D03*
D43*
X54991000Y10020300D03*
X54021000Y10020300D03*
D46*
X57645300Y10111600D03*
X57645300Y9141600D03*
D43*
X62575300Y12255500D03*
X61605300Y12255500D03*
D22*
X62024400Y19151600D03*
X62994400Y19151600D03*
D46*
X53007400Y11026000D03*
X53007400Y10056000D03*
D72*
X56899800Y11401000D03*
X57399800Y11401000D03*
X57899800Y11401000D03*
X58399800Y11401000D03*
X58899800Y11401000D03*
X59399800Y11401000D03*
D73*
X60087300Y12088500D03*
X60087300Y12588500D03*
X60087300Y13088500D03*
X60087300Y13588500D03*
X60087300Y14088500D03*
X60087300Y14588500D03*
D72*
X59399800Y15276000D03*
X58899800Y15276000D03*
X58399800Y15276000D03*
X57899800Y15276000D03*
X57399800Y15276000D03*
X56899800Y15276000D03*
D73*
X56212300Y14588500D03*
X56212300Y14088500D03*
X56212300Y13588500D03*
X56212300Y13088500D03*
X56212300Y12588500D03*
X56212300Y12088500D03*
D76*
X58149800Y13338500D03*
D26*
X53009800Y16642220D03*
X53009800Y17612220D03*
D22*
X52969300Y12537440D03*
X53939300Y12537440D03*
D26*
X58674000Y17551400D03*
X58674000Y18521400D03*
D22*
X55064800Y17635220D03*
X56034800Y17635220D03*
D43*
X56034800Y16619220D03*
X55064800Y16619220D03*
X62575300Y11239500D03*
X61605300Y11239500D03*
X62575300Y13271500D03*
X61605300Y13271500D03*
X54970400Y14173200D03*
X54000400Y14173200D03*
D46*
X53012200Y15166200D03*
X53012200Y14196200D03*
D26*
X58661300Y9141600D03*
X58661300Y10111600D03*
X54025800Y16642220D03*
X54025800Y17612220D03*
D43*
X62560700Y14910000D03*
X61590700Y14910000D03*
D44*
X56311800Y25831800D03*
X4775200Y30708600D03*
X79908400Y27432000D03*
D22*
X66621800Y24549100D03*
X67591800Y24549100D03*
X61592600Y9093200D03*
X62562600Y9093200D03*
X61590200Y10134600D03*
X62560200Y10134600D03*
D26*
X63563500Y9128900D03*
X63563500Y10098900D03*
D46*
X74206100Y27091500D03*
X74206100Y26121500D03*
D17*
X72620000Y28652500D03*
X72620000Y30227500D03*
D77*
X75742800Y64157800D03*
X75742800Y63197800D03*
D78*
X72438200Y73360000D03*
X71478200Y73360000D03*
D79*
X3759200Y69267800D03*
X3759200Y68247800D03*
D80*
X3759200Y63752000D03*
X3759200Y64772000D03*
X3759200Y66241200D03*
X3759200Y67261200D03*
D81*
X53138800Y36449000D03*
X52118800Y36449000D03*
X51132200Y36449000D03*
X50112200Y36449000D03*
D79*
X42646600Y34165000D03*
X42646600Y33145000D03*
D82*
X43060999Y31255399D03*
D83*
X43060999Y30755399D03*
X43060999Y30255399D03*
D82*
X43060999Y29755399D03*
X44060999Y29755399D03*
D83*
X44060999Y30255399D03*
X44060999Y30755399D03*
D82*
X44060999Y31255399D03*
D44*
X84658200Y56070500D03*
D77*
X81675000Y53505000D03*
X81675000Y52545000D03*
D84*
X66096600Y16469000D03*
X66096600Y15819000D03*
X66096600Y15169000D03*
X66096600Y14519000D03*
D85*
X67071600Y13544000D03*
X67721600Y13544000D03*
X68371600Y13544000D03*
X69021600Y13544000D03*
D84*
X69996600Y14519000D03*
X69996600Y15169000D03*
X69996600Y15819000D03*
X69996600Y16469000D03*
D85*
X69021600Y17444000D03*
X68371600Y17444000D03*
X67721600Y17444000D03*
X67071600Y17444000D03*
D86*
X68046600Y15494000D03*
D87*
X75442700Y40007000D03*
X75442700Y41832000D03*
D88*
X20739999Y33529999D03*
X20239999Y33529999D03*
X20739999Y34249999D03*
X20239999Y34249999D03*
D89*
X62350000Y63200000D03*
X62350000Y61300000D03*
D90*
X86700000Y92000000D03*
D46*
X68800000Y54167500D03*
X68800000Y53197500D03*
D91*
X14569400Y24536400D03*
X16469400Y24536400D03*
D46*
X65532000Y53469400D03*
X65532000Y52499400D03*
D92*
X14579600Y26037600D03*
X14579600Y26997600D03*
D93*
X71958199Y66091799D03*
X73228199Y66091799D03*
X74498199Y66091799D03*
X75768199Y66091799D03*
D94*
X72748199Y69886799D03*
X74978199Y69886799D03*
D95*
X76078199Y71677799D03*
X71648199Y71677799D03*
D96*
X71591199Y68884799D03*
X76135199Y68884799D03*
D97*
X82240000Y25220000D03*
D98*
X11649999Y30649999D03*
X10849999Y30649999D03*
X10049999Y30649999D03*
X9249999Y30649999D03*
D99*
X8134999Y29534999D03*
X8134999Y28734999D03*
X8134999Y27934999D03*
X8134999Y27134999D03*
D98*
X9249999Y26019999D03*
X10049999Y26019999D03*
X10849999Y26019999D03*
X11649999Y26019999D03*
D99*
X12764999Y27134999D03*
X12764999Y27934999D03*
X12764999Y28734999D03*
X12764999Y29534999D03*
D100*
X10449999Y28334999D03*
D101*
X69915000Y64125000D03*
X70935000Y64125000D03*
D102*
X70916799Y20980399D03*
D103*
X67470000Y66800000D03*
X63375000Y66800000D03*
D104*
X78300000Y53525000D03*
D105*
X78475000Y53025000D03*
D104*
X78300000Y52525000D03*
D105*
X79875000Y52525000D03*
D104*
X80050000Y53025000D03*
D105*
X79875000Y53525000D03*
D106*
X79925000Y54200000D03*
X79425000Y54200000D03*
X78925000Y54200000D03*
D107*
X78425000Y54200000D03*
D108*
X45364999Y71684999D03*
D109*
X47904999Y71684999D03*
X45364999Y69144999D03*
X47904999Y69144999D03*
D78*
X66955000Y59950000D03*
X65995000Y59950000D03*
D91*
X78550000Y46500000D03*
X80450000Y46500000D03*
D44*
X68493600Y57556400D03*
D52*
X69945000Y61125000D03*
X70905000Y61125000D03*
D82*
X61499999Y53649999D03*
X61499999Y52949999D03*
X62499999Y52949999D03*
X62499999Y53649999D03*
D93*
X71964999Y75164499D03*
X73234999Y75164499D03*
X74504999Y75164499D03*
X75774999Y75164499D03*
D94*
X72754999Y78959499D03*
X74984999Y78959499D03*
D95*
X76084999Y80750499D03*
X71654999Y80750499D03*
D96*
X71597999Y77957499D03*
X76141999Y77957499D03*
D44*
X57175400Y66979800D03*
D46*
X63830200Y53469400D03*
X63830200Y52499400D03*
D22*
X40663000Y62687200D03*
X41633000Y62687200D03*
D79*
X79875000Y56385000D03*
X79875000Y55365000D03*
D82*
X43391199Y26816799D03*
X43391199Y26116799D03*
X44391199Y26116799D03*
X44391199Y26816799D03*
D110*
X85325000Y47800000D03*
X83425000Y47800000D03*
D89*
X85200000Y54225000D03*
X85200000Y52325000D03*
D91*
X78550000Y50650000D03*
X80450000Y50650000D03*
D111*
X83287500Y43850000D03*
X85412500Y43850000D03*
D79*
X78875000Y56385000D03*
X78875000Y55365000D03*
D82*
X54847999Y26096999D03*
X54847999Y26796999D03*
X53847999Y26796999D03*
X53847999Y26096999D03*
D97*
X6687200Y40767000D03*
X37687200Y40767000D03*
D112*
X9487200Y43717000D03*
X37287200Y43717000D03*
X9487200Y75817000D03*
X37287200Y75817000D03*
D97*
X6687200Y78767000D03*
X37687200Y78767000D03*
D113*
X34437199Y74766999D03*
X37737199Y74766999D03*
D114*
X34437199Y74016999D03*
X37737199Y74016999D03*
X34437199Y73516999D03*
X37737199Y73516999D03*
X34437199Y73016999D03*
X37737199Y73016999D03*
X34437199Y72516999D03*
X37737199Y72516999D03*
X34437199Y72016999D03*
X37737199Y72016999D03*
X34437199Y71516999D03*
X37737199Y71516999D03*
X34437199Y71016999D03*
X37737199Y71016999D03*
X34437199Y70516999D03*
X37737199Y70516999D03*
X34437199Y70016999D03*
X37737199Y70016999D03*
X34437199Y69516999D03*
X37737199Y69516999D03*
X34437199Y69016999D03*
X37737199Y69016999D03*
X34437199Y68516999D03*
X37737199Y68516999D03*
X34437199Y68016999D03*
X37737199Y68016999D03*
X34437199Y67516999D03*
X37737199Y67516999D03*
X34437199Y67016999D03*
X37737199Y67016999D03*
X34437199Y66516999D03*
X37737199Y66516999D03*
X34437199Y66016999D03*
X37737199Y66016999D03*
X34437199Y65516999D03*
X37737199Y65516999D03*
X34437199Y65016999D03*
X37737199Y65016999D03*
X34437199Y64516999D03*
X37737199Y64516999D03*
X34437199Y64016999D03*
X37737199Y64016999D03*
X34437199Y63516999D03*
X37737199Y63516999D03*
X34437199Y63016999D03*
X37737199Y63016999D03*
X34437199Y62516999D03*
X37737199Y62516999D03*
X34437199Y62016999D03*
X37737199Y62016999D03*
X34437199Y61516999D03*
X37737199Y61516999D03*
X34437199Y61016999D03*
X37737199Y61016999D03*
X34437199Y60516999D03*
X37737199Y60516999D03*
X34437199Y60016999D03*
X37737199Y60016999D03*
X34437199Y59516999D03*
X37737199Y59516999D03*
X34437199Y59016999D03*
X37737199Y59016999D03*
X34437199Y58516999D03*
X37737199Y58516999D03*
X34437199Y58016999D03*
X37737199Y58016999D03*
X34437199Y57516999D03*
X37737199Y57516999D03*
X34437199Y57016999D03*
X37737199Y57016999D03*
X34437199Y56516999D03*
X37737199Y56516999D03*
X34437199Y56016999D03*
X37737199Y56016999D03*
X34437199Y55516999D03*
X37737199Y55516999D03*
X34437199Y55016999D03*
X37737199Y55016999D03*
X34437199Y54516999D03*
X37737199Y54516999D03*
X34437199Y54016999D03*
X37737199Y54016999D03*
X34437199Y53516999D03*
X37737199Y53516999D03*
X34437199Y53016999D03*
X37737199Y53016999D03*
X34437199Y52516999D03*
X37737199Y52516999D03*
X34437199Y52016999D03*
X37737199Y52016999D03*
X34437199Y51516999D03*
X37737199Y51516999D03*
X34437199Y51016999D03*
X37737199Y51016999D03*
X34437199Y50516999D03*
X37737199Y50516999D03*
X34437199Y50016999D03*
X37737199Y50016999D03*
X34437199Y49516999D03*
X37737199Y49516999D03*
X34437199Y49016999D03*
X37737199Y49016999D03*
X34437199Y48516999D03*
X37737199Y48516999D03*
X34437199Y48016999D03*
X37737199Y48016999D03*
X34437199Y47516999D03*
X37737199Y47516999D03*
X34437199Y47016999D03*
X37737199Y47016999D03*
X34437199Y46516999D03*
X37737199Y46516999D03*
X34437199Y46016999D03*
X37737199Y46016999D03*
X34437199Y45516999D03*
X37737199Y45516999D03*
D113*
X34437199Y44766999D03*
X37737199Y44766999D03*
X6637199Y74766999D03*
X9937199Y74766999D03*
D114*
X6637199Y74016999D03*
X9937199Y74016999D03*
X6637199Y73516999D03*
X9937199Y73516999D03*
X6637199Y73016999D03*
X9937199Y73016999D03*
X6637199Y72516999D03*
X9937199Y72516999D03*
X6637199Y72016999D03*
X9937199Y72016999D03*
X6637199Y71516999D03*
X9937199Y71516999D03*
X6637199Y71016999D03*
X9937199Y71016999D03*
X6637199Y70516999D03*
X9937199Y70516999D03*
X6637199Y70016999D03*
X9937199Y70016999D03*
X6637199Y69516999D03*
X9937199Y69516999D03*
X6637199Y69016999D03*
X9937199Y69016999D03*
X6637199Y68516999D03*
X9937199Y68516999D03*
X6637199Y68016999D03*
X9937199Y68016999D03*
X6637199Y67516999D03*
X9937199Y67516999D03*
X6637199Y67016999D03*
X9937199Y67016999D03*
X6637199Y66516999D03*
X9937199Y66516999D03*
X6637199Y66016999D03*
X9937199Y66016999D03*
X6637199Y65516999D03*
X9937199Y65516999D03*
X6637199Y65016999D03*
X9937199Y65016999D03*
X6637199Y64516999D03*
X9937199Y64516999D03*
X6637199Y64016999D03*
X9937199Y64016999D03*
X6637199Y63516999D03*
X9937199Y63516999D03*
X6637199Y63016999D03*
X9937199Y63016999D03*
X6637199Y62516999D03*
X9937199Y62516999D03*
X6637199Y62016999D03*
X9937199Y62016999D03*
X6637199Y61516999D03*
X9937199Y61516999D03*
X6637199Y61016999D03*
X9937199Y61016999D03*
X6637199Y60516999D03*
X9937199Y60516999D03*
X6637199Y60016999D03*
X9937199Y60016999D03*
X6637199Y59516999D03*
X9937199Y59516999D03*
X6637199Y59016999D03*
X9937199Y59016999D03*
X6637199Y58516999D03*
X9937199Y58516999D03*
X6637199Y58016999D03*
X9937199Y58016999D03*
X6637199Y57516999D03*
X9937199Y57516999D03*
X6637199Y57016999D03*
X9937199Y57016999D03*
X6637199Y56516999D03*
X9937199Y56516999D03*
X6637199Y56016999D03*
X9937199Y56016999D03*
X6637199Y55516999D03*
X9937199Y55516999D03*
X6637199Y55016999D03*
X9937199Y55016999D03*
X6637199Y54516999D03*
X9937199Y54516999D03*
X6637199Y54016999D03*
X9937199Y54016999D03*
X6637199Y53516999D03*
X9937199Y53516999D03*
X6637199Y53016999D03*
X9937199Y53016999D03*
X6637199Y52516999D03*
X9937199Y52516999D03*
X6637199Y52016999D03*
X9937199Y52016999D03*
X6637199Y51516999D03*
X9937199Y51516999D03*
X6637199Y51016999D03*
X9937199Y51016999D03*
X6637199Y50516999D03*
X9937199Y50516999D03*
X6637199Y50016999D03*
X9937199Y50016999D03*
X6637199Y49516999D03*
X9937199Y49516999D03*
X6637199Y49016999D03*
X9937199Y49016999D03*
X6637199Y48516999D03*
X9937199Y48516999D03*
X6637199Y48016999D03*
X9937199Y48016999D03*
X6637199Y47516999D03*
X9937199Y47516999D03*
X6637199Y47016999D03*
X9937199Y47016999D03*
X6637199Y46516999D03*
X9937199Y46516999D03*
X6637199Y46016999D03*
X9937199Y46016999D03*
X6637199Y45516999D03*
X9937199Y45516999D03*
D113*
X6637199Y44766999D03*
X9937199Y44766999D03*
D115*
X50929999Y65529999D03*
D116*
X50429999Y65529999D03*
X49929999Y65529999D03*
D115*
X49429999Y65529999D03*
X49429999Y64529999D03*
D116*
X49929999Y64529999D03*
X50429999Y64529999D03*
D115*
X50929999Y64529999D03*
D82*
X40622599Y61549999D03*
X40622599Y60849999D03*
X41622599Y60849999D03*
X41622599Y61549999D03*
D89*
X64375000Y63200000D03*
X64375000Y61300000D03*
D117*
X69349999Y6964999D03*
D118*
X69024999Y5774999D03*
X69024999Y4584999D03*
X71174999Y4584999D03*
X71174999Y5774999D03*
X71174999Y6964999D03*
D89*
X83175000Y54225000D03*
X83175000Y52325000D03*
D90*
X4550000Y91700000D03*
D89*
X60325000Y63200000D03*
X60325000Y61300000D03*
D119*
X80819999Y70399999D03*
X80819999Y70899999D03*
X80819999Y71399999D03*
X80139999Y71399999D03*
X80139999Y70899999D03*
X80139999Y70399999D03*
D92*
X15570200Y26014600D03*
X15570200Y26974600D03*
D120*
X67843400Y49428400D03*
D121*
X65843399Y49428399D03*
X67843399Y47428399D03*
X65843399Y47428399D03*
X67843399Y45428399D03*
X65843399Y45428399D03*
X67843399Y43428399D03*
X65843399Y43428399D03*
X67843399Y41428399D03*
X65843399Y41428399D03*
X67843399Y39428399D03*
X65843399Y39428399D03*
D110*
X16748800Y29464000D03*
X14848800Y29464000D03*
D52*
X78870000Y57375000D03*
X79830000Y57375000D03*
X5710900Y29743200D03*
X6670900Y29743200D03*
D44*
X49098200Y23901400D03*
D91*
X78550000Y48575000D03*
X80450000Y48575000D03*
D81*
X70935000Y63125000D03*
X69915000Y63125000D03*
X70935000Y62125000D03*
X69915000Y62125000D03*
D110*
X85325000Y49825000D03*
X83425000Y49825000D03*
D122*
X1271000Y23432000D03*
D123*
X1432000Y15145000D03*
D97*
X3175000Y26416000D03*
X5486000Y86512000D03*
X19750000Y1750000D03*
X38862000Y28448000D03*
X46482000Y16383000D03*
X63500000Y30099000D03*
X65250000Y1730000D03*
X71437000Y56832000D03*
D124*
X73456000Y59198000D03*
D97*
X82245000Y25222000D03*
X85270000Y83830000D03*
X87757000Y35877000D03*
X87884000Y59880000D03*
D92*
X80925000Y55395000D03*
X80925000Y56355000D03*
D80*
X77875000Y55365000D03*
X77875000Y56385000D03*
D110*
X66650000Y56400000D03*
X64750000Y56400000D03*
D79*
X60900000Y41710000D03*
X60900000Y40690000D03*
D77*
X73202800Y64157800D03*
X73202800Y63197800D03*
D90*
X2150000Y1900000D03*
D110*
X66650000Y58425000D03*
X64750000Y58425000D03*
D125*
X86400400Y28243300D03*
X85750400Y28243300D03*
X85100400Y28243300D03*
X85100400Y26468300D03*
X85750400Y26468300D03*
X86400400Y26468300D03*
D126*
X85750399Y27355799D03*
D79*
X60900000Y44360000D03*
X60900000Y43340000D03*
D127*
X83725000Y64850000D03*
D121*
X85724999Y64849999D03*
X83724999Y66849999D03*
X85724999Y66849999D03*
X83724999Y68849999D03*
X85724999Y68849999D03*
X83724999Y70849999D03*
X85724999Y70849999D03*
X83724999Y72849999D03*
X85724999Y72849999D03*
X83724999Y74849999D03*
X85724999Y74849999D03*
D28*
X11349983Y22378422D03*
X11809603Y21918803D03*
X12269222Y21459183D03*
D27*
X13294527Y21706671D03*
D28*
X13542015Y22731976D03*
X13082395Y23191595D03*
X12622776Y23651215D03*
D27*
X11597471Y23403727D03*
D101*
X40612600Y63677800D03*
X41632600Y63677800D03*
D128*
X74925000Y53197500D03*
X74925000Y49102500D03*
D110*
X85325000Y45775000D03*
X83425000Y45775000D03*
D79*
X67809400Y54192500D03*
X67809400Y53172500D03*
D22*
X40663000Y64643000D03*
X41633000Y64643000D03*
X40663000Y66395600D03*
X41633000Y66395600D03*
D129*
X67950000Y62950000D03*
D130*
X67450000Y62775000D03*
D129*
X66950000Y62950000D03*
D130*
X66950000Y61375000D03*
D129*
X67450000Y61200000D03*
D130*
X67950000Y61375000D03*
D131*
X68625000Y61325000D03*
X68625000Y61825000D03*
X68625000Y62325000D03*
D132*
X68625000Y62825000D03*
D78*
X15516800Y27940000D03*
X14556800Y27940000D03*
D133*
X3866600Y33030000D03*
X4933400Y33030000D03*
X85804200Y11377600D03*
X86871000Y11377600D03*
X80797600Y29710100D03*
X81864400Y29710100D03*
M02*
