G04 #@! TF.GenerationSoftware,KiCad,Pcbnew,7.0.0-da2b9df05c~171~ubuntu22.04.1*
G04 #@! TF.CreationDate,2023-04-04T23:18:37+03:00*
G04 #@! TF.ProjectId,satnogs-comms,7361746e-6f67-4732-9d63-6f6d6d732e6b,rev?*
G04 #@! TF.SameCoordinates,PX4eb9cf0PY82ce540*
G04 #@! TF.FileFunction,Paste,Top*
G04 #@! TF.FilePolarity,Positive*
%FSLAX46Y46*%
G04 Gerber Fmt 4.6, Leading zero omitted, Abs format (unit mm)*
G04 Created by KiCad (PCBNEW 7.0.0-da2b9df05c~171~ubuntu22.04.1) date 2023-04-04 23:18:37*
%MOMM*%
%LPD*%
G01*
G04 APERTURE LIST*
G04 Aperture macros list*
%AMRoundRect*
0 Rectangle with rounded corners*
0 $1 Rounding radius*
0 $2 $3 $4 $5 $6 $7 $8 $9 X,Y pos of 4 corners*
0 Add a 4 corners polygon primitive as box body*
4,1,4,$2,$3,$4,$5,$6,$7,$8,$9,$2,$3,0*
0 Add four circle primitives for the rounded corners*
1,1,$1+$1,$2,$3*
1,1,$1+$1,$4,$5*
1,1,$1+$1,$6,$7*
1,1,$1+$1,$8,$9*
0 Add four rect primitives between the rounded corners*
20,1,$1+$1,$2,$3,$4,$5,0*
20,1,$1+$1,$4,$5,$6,$7,0*
20,1,$1+$1,$6,$7,$8,$9,0*
20,1,$1+$1,$8,$9,$2,$3,0*%
%AMRotRect*
0 Rectangle, with rotation*
0 The origin of the aperture is its center*
0 $1 length*
0 $2 width*
0 $3 Rotation angle, in degrees counterclockwise*
0 Add horizontal line*
21,1,$1,$2,0,0,$3*%
%AMFreePoly0*
4,1,7,1.500000,-0.775000,-1.500000,-0.775000,-1.500000,0.225000,-6.000000,0.225000,-6.000000,0.775000,1.500000,0.775000,1.500000,-0.775000,1.500000,-0.775000,$1*%
%AMFreePoly1*
4,1,8,1.500000,-0.775000,-1.500000,-0.775000,-6.000000,-0.775000,-6.000000,-0.225000,-1.500000,-0.225000,-1.500000,0.775000,1.500000,0.775000,1.500000,-0.775000,1.500000,-0.775000,$1*%
%AMFreePoly2*
4,1,6,0.125000,-0.099500,-0.013000,-0.237500,-0.125000,-0.237500,-0.125000,0.237500,0.125000,0.237500,0.125000,-0.099500,0.125000,-0.099500,$1*%
%AMFreePoly3*
4,1,6,0.125000,0.099500,0.125000,-0.237500,-0.125000,-0.237500,-0.125000,0.237500,-0.013000,0.237500,0.125000,0.099500,0.125000,0.099500,$1*%
%AMFreePoly4*
4,1,36,0.462941,0.544983,0.479174,0.544983,0.492307,0.535440,0.507748,0.530424,0.517290,0.517290,0.530424,0.507748,0.535440,0.492307,0.544983,0.479174,0.544983,0.462941,0.550000,0.447500,0.550000,-0.447500,0.544983,-0.462941,0.544983,-0.479174,0.535440,-0.492307,0.530424,-0.507748,0.517290,-0.517290,0.507748,-0.530424,0.492307,-0.535440,0.479174,-0.544983,0.462941,-0.544983,
0.447500,-0.550000,-0.447500,-0.550000,-0.462941,-0.544983,-0.479174,-0.544983,-0.492307,-0.535440,-0.507748,-0.530424,-0.517290,-0.517290,-0.530424,-0.507748,-0.535440,-0.492307,-0.544983,-0.479174,-0.544983,-0.462941,-0.550000,-0.447500,-0.550000,0.350000,-0.350000,0.550000,0.447500,0.550000,0.462941,0.544983,0.462941,0.544983,$1*%
%AMFreePoly5*
4,1,14,0.155252,0.089749,0.264749,-0.019748,0.275000,-0.044497,0.275000,-0.065000,0.264749,-0.089749,0.240000,-0.100000,-0.240000,-0.100000,-0.264749,-0.089749,-0.275000,-0.065000,-0.275000,0.065000,-0.264749,0.089749,-0.240000,0.100000,0.130503,0.100000,0.155252,0.089749,0.155252,0.089749,$1*%
%AMFreePoly6*
4,1,14,0.264749,0.089749,0.275000,0.065000,0.275000,0.044497,0.264749,0.019748,0.155252,-0.089749,0.130503,-0.100000,-0.240000,-0.100000,-0.264749,-0.089749,-0.275000,-0.065000,-0.275000,0.065000,-0.264749,0.089749,-0.240000,0.100000,0.240000,0.100000,0.264749,0.089749,0.264749,0.089749,$1*%
%AMFreePoly7*
4,1,14,0.089749,0.264749,0.100000,0.240000,0.100000,-0.240000,0.089749,-0.264749,0.065000,-0.275000,-0.065000,-0.275000,-0.089749,-0.264749,-0.100000,-0.240000,-0.100000,0.130503,-0.089749,0.155252,0.019748,0.264749,0.044497,0.275000,0.065000,0.275000,0.089749,0.264749,0.089749,0.264749,$1*%
%AMFreePoly8*
4,1,14,-0.019748,0.264749,0.089749,0.155252,0.100000,0.130503,0.100000,-0.240000,0.089749,-0.264749,0.065000,-0.275000,-0.065000,-0.275000,-0.089749,-0.264749,-0.100000,-0.240000,-0.100000,0.240000,-0.089749,0.264749,-0.065000,0.275000,-0.044497,0.275000,-0.019748,0.264749,-0.019748,0.264749,$1*%
%AMFreePoly9*
4,1,14,0.264749,0.089749,0.275000,0.065000,0.275000,-0.065000,0.264749,-0.089749,0.240000,-0.100000,-0.130503,-0.100000,-0.155252,-0.089749,-0.264749,0.019748,-0.275000,0.044497,-0.275000,0.065000,-0.264749,0.089749,-0.240000,0.100000,0.240000,0.100000,0.264749,0.089749,0.264749,0.089749,$1*%
%AMFreePoly10*
4,1,14,0.264749,0.089749,0.275000,0.065000,0.275000,-0.065000,0.264749,-0.089749,0.240000,-0.100000,-0.240000,-0.100000,-0.264749,-0.089749,-0.275000,-0.065000,-0.275000,-0.044497,-0.264749,-0.019747,-0.155252,0.089749,-0.130503,0.100000,0.240000,0.100000,0.264749,0.089749,0.264749,0.089749,$1*%
%AMFreePoly11*
4,1,14,0.089749,0.264749,0.100000,0.240000,0.100000,-0.130503,0.089749,-0.155252,-0.019748,-0.264749,-0.044497,-0.275000,-0.065000,-0.275000,-0.089749,-0.264749,-0.100000,-0.240000,-0.100000,0.240000,-0.089749,0.264749,-0.065000,0.275000,0.065000,0.275000,0.089749,0.264749,0.089749,0.264749,$1*%
%AMFreePoly12*
4,1,14,0.089749,0.264749,0.100000,0.240000,0.100000,-0.240000,0.089749,-0.264749,0.065000,-0.275000,0.044497,-0.275000,0.019748,-0.264749,-0.089749,-0.155252,-0.100000,-0.130503,-0.100000,0.240000,-0.089749,0.264749,-0.065000,0.275000,0.065000,0.275000,0.089749,0.264749,0.089749,0.264749,$1*%
G04 Aperture macros list end*
%ADD10RoundRect,0.243750X-0.243750X-0.456250X0.243750X-0.456250X0.243750X0.456250X-0.243750X0.456250X0*%
%ADD11RoundRect,0.243750X0.456250X-0.243750X0.456250X0.243750X-0.456250X0.243750X-0.456250X-0.243750X0*%
%ADD12R,2.350000X5.100000*%
%ADD13RoundRect,0.218750X0.256250X-0.218750X0.256250X0.218750X-0.256250X0.218750X-0.256250X-0.218750X0*%
%ADD14RoundRect,0.218750X-0.256250X0.218750X-0.256250X-0.218750X0.256250X-0.218750X0.256250X0.218750X0*%
%ADD15R,2.600000X1.100000*%
%ADD16FreePoly0,180.000000*%
%ADD17FreePoly1,180.000000*%
%ADD18RoundRect,0.147500X-0.147500X-0.172500X0.147500X-0.172500X0.147500X0.172500X-0.147500X0.172500X0*%
%ADD19RoundRect,0.147500X0.017678X-0.226274X0.226274X-0.017678X-0.017678X0.226274X-0.226274X0.017678X0*%
%ADD20FreePoly0,0.000000*%
%ADD21FreePoly1,0.000000*%
%ADD22RoundRect,0.147500X0.172500X-0.147500X0.172500X0.147500X-0.172500X0.147500X-0.172500X-0.147500X0*%
%ADD23RotRect,0.350000X1.000000X45.000000*%
%ADD24RotRect,0.350000X1.000000X315.000000*%
%ADD25RoundRect,0.147500X-0.017678X0.226274X-0.226274X0.017678X0.017678X-0.226274X0.226274X-0.017678X0*%
%ADD26FreePoly2,270.000000*%
%ADD27R,0.475000X0.250000*%
%ADD28FreePoly3,90.000000*%
%ADD29FreePoly2,0.000000*%
%ADD30R,0.250000X0.475000*%
%ADD31FreePoly3,180.000000*%
%ADD32FreePoly2,90.000000*%
%ADD33FreePoly3,270.000000*%
%ADD34FreePoly2,180.000000*%
%ADD35FreePoly3,0.000000*%
%ADD36FreePoly4,180.000000*%
%ADD37RoundRect,0.140000X-0.180000X0.140000X-0.180000X-0.140000X0.180000X-0.140000X0.180000X0.140000X0*%
%ADD38RoundRect,0.062500X-0.062500X0.325000X-0.062500X-0.325000X0.062500X-0.325000X0.062500X0.325000X0*%
%ADD39RoundRect,0.147500X0.147500X0.172500X-0.147500X0.172500X-0.147500X-0.172500X0.147500X-0.172500X0*%
%ADD40R,0.750000X0.400000*%
%ADD41RoundRect,0.147500X-0.172500X0.147500X-0.172500X-0.147500X0.172500X-0.147500X0.172500X0.147500X0*%
%ADD42RoundRect,0.075000X0.075000X-0.725000X0.075000X0.725000X-0.075000X0.725000X-0.075000X-0.725000X0*%
%ADD43RoundRect,0.075000X0.725000X-0.075000X0.725000X0.075000X-0.725000X0.075000X-0.725000X-0.075000X0*%
%ADD44R,2.370000X2.430000*%
%ADD45R,1.060000X0.650000*%
%ADD46R,0.410000X0.330000*%
%ADD47RoundRect,0.140000X-0.140000X-0.170000X0.140000X-0.170000X0.140000X0.170000X-0.140000X0.170000X0*%
%ADD48RoundRect,0.218750X0.218750X0.256250X-0.218750X0.256250X-0.218750X-0.256250X0.218750X-0.256250X0*%
%ADD49RoundRect,0.225000X-0.250000X0.225000X-0.250000X-0.225000X0.250000X-0.225000X0.250000X0.225000X0*%
%ADD50RotRect,0.750000X0.400000X135.000000*%
%ADD51RotRect,0.750000X0.400000X315.000000*%
%ADD52RoundRect,0.250000X-0.335000X-0.335000X0.335000X-0.335000X0.335000X0.335000X-0.335000X0.335000X0*%
%ADD53RoundRect,0.062500X-0.350000X-0.062500X0.350000X-0.062500X0.350000X0.062500X-0.350000X0.062500X0*%
%ADD54RoundRect,0.062500X-0.062500X-0.350000X0.062500X-0.350000X0.062500X0.350000X-0.062500X0.350000X0*%
%ADD55RoundRect,0.075000X0.075000X0.075000X-0.075000X0.075000X-0.075000X-0.075000X0.075000X-0.075000X0*%
%ADD56FreePoly5,180.000000*%
%ADD57RoundRect,0.050000X0.225000X0.050000X-0.225000X0.050000X-0.225000X-0.050000X0.225000X-0.050000X0*%
%ADD58FreePoly6,180.000000*%
%ADD59FreePoly7,180.000000*%
%ADD60RoundRect,0.050000X0.050000X0.225000X-0.050000X0.225000X-0.050000X-0.225000X0.050000X-0.225000X0*%
%ADD61FreePoly8,180.000000*%
%ADD62FreePoly9,180.000000*%
%ADD63FreePoly10,180.000000*%
%ADD64FreePoly11,180.000000*%
%ADD65FreePoly12,180.000000*%
%ADD66R,0.740000X0.740000*%
%ADD67RotRect,0.350000X1.000000X135.000000*%
%ADD68RoundRect,0.250000X0.315000X-0.315000X0.315000X0.315000X-0.315000X0.315000X-0.315000X-0.315000X0*%
%ADD69RoundRect,0.062500X0.062500X-0.375000X0.062500X0.375000X-0.062500X0.375000X-0.062500X-0.375000X0*%
%ADD70RoundRect,0.062500X0.375000X-0.062500X0.375000X0.062500X-0.375000X0.062500X-0.375000X-0.062500X0*%
%ADD71R,0.550000X0.500000*%
%ADD72RoundRect,0.240000X0.240000X-0.240000X0.240000X0.240000X-0.240000X0.240000X-0.240000X-0.240000X0*%
%ADD73RoundRect,0.140000X-0.170000X0.140000X-0.170000X-0.140000X0.170000X-0.140000X0.170000X0.140000X0*%
%ADD74RoundRect,0.140000X0.140000X0.170000X-0.140000X0.170000X-0.140000X-0.170000X0.140000X-0.170000X0*%
%ADD75RoundRect,0.135000X-0.185000X0.135000X-0.185000X-0.135000X0.185000X-0.135000X0.185000X0.135000X0*%
%ADD76RoundRect,0.135000X0.185000X-0.135000X0.185000X0.135000X-0.185000X0.135000X-0.185000X-0.135000X0*%
%ADD77RoundRect,0.135000X0.135000X0.185000X-0.135000X0.185000X-0.135000X-0.185000X0.135000X-0.185000X0*%
%ADD78R,0.500000X0.400000*%
%ADD79R,0.500000X0.300000*%
%ADD80RoundRect,0.227500X-0.227500X-0.227500X0.227500X-0.227500X0.227500X0.227500X-0.227500X0.227500X0*%
%ADD81RoundRect,0.075000X-0.350000X-0.075000X0.350000X-0.075000X0.350000X0.075000X-0.350000X0.075000X0*%
%ADD82RoundRect,0.075000X-0.075000X-0.350000X0.075000X-0.350000X0.075000X0.350000X-0.075000X0.350000X0*%
%ADD83RoundRect,0.250000X0.450000X-0.262500X0.450000X0.262500X-0.450000X0.262500X-0.450000X-0.262500X0*%
%ADD84R,0.300000X0.350000*%
%ADD85RoundRect,0.250000X-0.475000X0.250000X-0.475000X-0.250000X0.475000X-0.250000X0.475000X0.250000X0*%
%ADD86RoundRect,0.250000X-0.250000X-0.475000X0.250000X-0.475000X0.250000X0.475000X-0.250000X0.475000X0*%
%ADD87RoundRect,0.140000X0.170000X-0.140000X0.170000X0.140000X-0.170000X0.140000X-0.170000X-0.140000X0*%
%ADD88R,0.410000X0.720000*%
%ADD89R,1.730000X3.990000*%
%ADD90R,0.470000X0.410000*%
%ADD91R,0.585000X0.510000*%
%ADD92R,0.600000X0.770000*%
%ADD93R,0.770000X0.600000*%
%ADD94R,2.875000X2.875000*%
%ADD95RoundRect,0.135000X-0.135000X-0.185000X0.135000X-0.185000X0.135000X0.185000X-0.135000X0.185000X0*%
%ADD96R,3.400000X1.800000*%
%ADD97RoundRect,0.189500X0.758000X1.060500X-0.758000X1.060500X-0.758000X-1.060500X0.758000X-1.060500X0*%
%ADD98RoundRect,0.050000X0.275000X-0.050000X0.275000X0.050000X-0.275000X0.050000X-0.275000X-0.050000X0*%
%ADD99RoundRect,0.050000X0.450000X-0.050000X0.450000X0.050000X-0.450000X0.050000X-0.450000X-0.050000X0*%
%ADD100RoundRect,0.062500X0.062500X0.212500X-0.062500X0.212500X-0.062500X-0.212500X0.062500X-0.212500X0*%
%ADD101RoundRect,0.062500X-0.062500X-0.212500X0.062500X-0.212500X0.062500X0.212500X-0.062500X0.212500X0*%
%ADD102RoundRect,0.250000X0.250000X0.475000X-0.250000X0.475000X-0.250000X-0.475000X0.250000X-0.475000X0*%
%ADD103RoundRect,0.218750X-0.218750X-0.381250X0.218750X-0.381250X0.218750X0.381250X-0.218750X0.381250X0*%
%ADD104R,1.550000X0.350000*%
%ADD105R,1.550000X0.230000*%
%ADD106R,0.400000X0.500000*%
%ADD107R,0.300000X0.500000*%
%ADD108R,1.700000X0.810000*%
%ADD109R,1.050000X0.810000*%
%ADD110R,0.330000X0.270000*%
%ADD111RoundRect,0.172500X-0.172500X0.262500X-0.172500X-0.262500X0.172500X-0.262500X0.172500X0.262500X0*%
%ADD112RoundRect,0.093750X-0.106250X0.093750X-0.106250X-0.093750X0.106250X-0.093750X0.106250X0.093750X0*%
%ADD113RoundRect,0.189500X-1.060500X0.758000X-1.060500X-0.758000X1.060500X-0.758000X1.060500X0.758000X0*%
%ADD114RoundRect,0.050000X-0.050000X-0.275000X0.050000X-0.275000X0.050000X0.275000X-0.050000X0.275000X0*%
%ADD115RoundRect,0.050000X-0.050000X-0.450000X0.050000X-0.450000X0.050000X0.450000X-0.050000X0.450000X0*%
%ADD116RoundRect,0.062500X0.212500X-0.062500X0.212500X0.062500X-0.212500X0.062500X-0.212500X-0.062500X0*%
%ADD117RoundRect,0.062500X-0.212500X0.062500X-0.212500X-0.062500X0.212500X-0.062500X0.212500X0.062500X0*%
G04 APERTURE END LIST*
D10*
X62178000Y72628300D03*
X64053000Y72628300D03*
X62178000Y74528300D03*
X64053000Y74528300D03*
X62791100Y80346300D03*
X64666100Y80346300D03*
D11*
X56205500Y71490800D03*
X56205500Y73365800D03*
X54254400Y71490800D03*
X54254400Y73365800D03*
D12*
X59880499Y77428299D03*
X55730499Y77428299D03*
D13*
X66294000Y75082300D03*
X66294000Y76657300D03*
D14*
X67843400Y76657200D03*
X67843400Y75082200D03*
D15*
X82004999Y19151599D03*
D16*
X82205000Y17626600D03*
D17*
X82205000Y20676600D03*
D18*
X65379600Y20167600D03*
X66349600Y20167600D03*
X62659400Y23139400D03*
X63629400Y23139400D03*
D19*
X64782653Y23609300D03*
X65468547Y24295194D03*
D11*
X56200000Y63451500D03*
X56200000Y65326500D03*
X58181200Y63451500D03*
X58181200Y65326500D03*
X81204500Y39982000D03*
X81204500Y41857000D03*
X83154500Y39982000D03*
X83154500Y41857000D03*
D15*
X8153399Y19151599D03*
D20*
X7953400Y20676600D03*
D21*
X7953400Y17626600D03*
D18*
X5705900Y27711200D03*
X6675900Y27711200D03*
X74216400Y24790400D03*
X75186400Y24790400D03*
D22*
X66624200Y25651600D03*
X66624200Y26621600D03*
D23*
X76696322Y21924015D03*
X76236703Y21464395D03*
X75777083Y21004776D03*
D24*
X76024571Y19979471D03*
D23*
X77049876Y19731983D03*
X77509495Y20191603D03*
X77969115Y20651222D03*
D24*
X77721627Y21676527D03*
D25*
X78854347Y18732547D03*
X78168453Y18046653D03*
D22*
X72951340Y17170400D03*
X72951340Y18140400D03*
D26*
X76375100Y17165700D03*
D27*
X76375099Y17665699D03*
D28*
X76375100Y18165700D03*
D29*
X75912600Y18628200D03*
D30*
X75412599Y18628199D03*
D31*
X74912600Y18628200D03*
D32*
X74450100Y18165700D03*
D27*
X74450099Y17665699D03*
D33*
X74450100Y17165700D03*
D34*
X74912600Y16703200D03*
D30*
X75412599Y16703199D03*
D35*
X75912600Y16703200D03*
D36*
X75412600Y17665700D03*
D18*
X77998600Y8280400D03*
X78968600Y8280400D03*
D37*
X77514400Y10439400D03*
X76714400Y10439400D03*
D38*
X77864400Y11401900D03*
X77364400Y11401900D03*
X76864400Y11401900D03*
X76364400Y11401900D03*
X76364400Y9476900D03*
X76864400Y9476900D03*
X77364400Y9476900D03*
X77864400Y9476900D03*
D22*
X79984600Y9525000D03*
X79984600Y10495000D03*
X78955900Y9525000D03*
X78955900Y10495000D03*
D18*
X5703500Y28727200D03*
X6673500Y28727200D03*
D39*
X6675900Y26695200D03*
X5705900Y26695200D03*
X11813400Y19138900D03*
X10843400Y19138900D03*
D25*
X58813700Y22783800D03*
X58127806Y22097906D03*
D11*
X73450000Y39982000D03*
X73450000Y41857000D03*
D40*
X61630199Y23133099D03*
X61630199Y23933099D03*
X59680199Y23933099D03*
X59680199Y23133099D03*
D39*
X62994400Y20167600D03*
X62024400Y20167600D03*
D22*
X64200900Y19174600D03*
X64200900Y20144600D03*
D18*
X13891400Y33528000D03*
X14861400Y33528000D03*
D14*
X66294000Y80340300D03*
X66294000Y78765300D03*
D41*
X78219300Y23802200D03*
X78219300Y22832200D03*
D18*
X76502400Y24777700D03*
X77472400Y24777700D03*
D41*
X75184000Y23802200D03*
X75184000Y22832200D03*
D42*
X44292000Y40966000D03*
X44792000Y40966000D03*
X45292000Y40966000D03*
X45792000Y40966000D03*
X46292000Y40966000D03*
X46792000Y40966000D03*
X47292000Y40966000D03*
X47792000Y40966000D03*
X48292000Y40966000D03*
X48792000Y40966000D03*
X49292000Y40966000D03*
X49792000Y40966000D03*
X50292000Y40966000D03*
X50792000Y40966000D03*
X51292000Y40966000D03*
X51792000Y40966000D03*
X52292000Y40966000D03*
X52792000Y40966000D03*
X53292000Y40966000D03*
X53792000Y40966000D03*
X54292000Y40966000D03*
X54792000Y40966000D03*
X55292000Y40966000D03*
X55792000Y40966000D03*
X56292000Y40966000D03*
D43*
X57967000Y42641000D03*
X57967000Y43141000D03*
X57967000Y43641000D03*
X57967000Y44141000D03*
X57967000Y44641000D03*
X57967000Y45141000D03*
X57967000Y45641000D03*
X57967000Y46141000D03*
X57967000Y46641000D03*
X57967000Y47141000D03*
X57967000Y47641000D03*
X57967000Y48141000D03*
X57967000Y48641000D03*
X57967000Y49141000D03*
X57967000Y49641000D03*
X57967000Y50141000D03*
X57967000Y50641000D03*
X57967000Y51141000D03*
X57967000Y51641000D03*
X57967000Y52141000D03*
X57967000Y52641000D03*
X57967000Y53141000D03*
X57967000Y53641000D03*
X57967000Y54141000D03*
X57967000Y54641000D03*
D42*
X56292000Y56316000D03*
X55792000Y56316000D03*
X55292000Y56316000D03*
X54792000Y56316000D03*
X54292000Y56316000D03*
X53792000Y56316000D03*
X53292000Y56316000D03*
X52792000Y56316000D03*
X52292000Y56316000D03*
X51792000Y56316000D03*
X51292000Y56316000D03*
X50792000Y56316000D03*
X50292000Y56316000D03*
X49792000Y56316000D03*
X49292000Y56316000D03*
X48792000Y56316000D03*
X48292000Y56316000D03*
X47792000Y56316000D03*
X47292000Y56316000D03*
X46792000Y56316000D03*
X46292000Y56316000D03*
X45792000Y56316000D03*
X45292000Y56316000D03*
X44792000Y56316000D03*
X44292000Y56316000D03*
D43*
X42617000Y54641000D03*
X42617000Y54141000D03*
X42617000Y53641000D03*
X42617000Y53141000D03*
X42617000Y52641000D03*
X42617000Y52141000D03*
X42617000Y51641000D03*
X42617000Y51141000D03*
X42617000Y50641000D03*
X42617000Y50141000D03*
X42617000Y49641000D03*
X42617000Y49141000D03*
X42617000Y48641000D03*
X42617000Y48141000D03*
X42617000Y47641000D03*
X42617000Y47141000D03*
X42617000Y46641000D03*
X42617000Y46141000D03*
X42617000Y45641000D03*
X42617000Y45141000D03*
X42617000Y44641000D03*
X42617000Y44141000D03*
X42617000Y43641000D03*
X42617000Y43141000D03*
X42617000Y42641000D03*
D44*
X74699999Y31859999D03*
X80939999Y31859999D03*
D39*
X66349600Y19151600D03*
X65379600Y19151600D03*
D22*
X63576200Y14907400D03*
X63576200Y15877400D03*
X84632800Y39697800D03*
X84632800Y40667800D03*
D39*
X78539200Y38252400D03*
X77569200Y38252400D03*
D45*
X62305499Y78284299D03*
X62305499Y77334299D03*
X62305499Y76384299D03*
X64505499Y76384299D03*
X64505499Y77334299D03*
X64505499Y78284299D03*
D46*
X29024999Y24504999D03*
X29674999Y24504999D03*
X30324999Y24504999D03*
X30324999Y25494999D03*
X29674999Y25494999D03*
X29024999Y25494999D03*
D47*
X62258000Y5778500D03*
X63218000Y5778500D03*
D41*
X46558200Y24869000D03*
X46558200Y23899000D03*
D22*
X47828200Y23901400D03*
X47828200Y24871400D03*
X77368400Y6246000D03*
X77368400Y7216000D03*
D48*
X86664900Y25189400D03*
X85089900Y25189400D03*
X86384900Y29589400D03*
X84809900Y29589400D03*
D41*
X72580500Y14071600D03*
X72580500Y13101600D03*
D18*
X71587500Y15163800D03*
X72557500Y15163800D03*
X71587500Y12077700D03*
X72557500Y12077700D03*
D41*
X71564500Y14071600D03*
X71564500Y13101600D03*
D39*
X72557500Y16230600D03*
X71587500Y16230600D03*
D49*
X66560700Y11951000D03*
X66560700Y10401000D03*
D50*
X59842585Y6050827D03*
X60408271Y6616513D03*
X59029413Y7995371D03*
D51*
X58463727Y7429685D03*
D52*
X70209700Y25702700D03*
X70209700Y24352700D03*
X71559700Y25702700D03*
X71559700Y24352700D03*
D53*
X68922200Y26277700D03*
X68922200Y25777700D03*
X68922200Y25277700D03*
X68922200Y24777700D03*
X68922200Y24277700D03*
X68922200Y23777700D03*
D54*
X69634700Y23065200D03*
X70134700Y23065200D03*
X70634700Y23065200D03*
X71134700Y23065200D03*
X71634700Y23065200D03*
X72134700Y23065200D03*
D53*
X72847200Y23777700D03*
X72847200Y24277700D03*
X72847200Y24777700D03*
X72847200Y25277700D03*
X72847200Y25777700D03*
X72847200Y26277700D03*
D54*
X72134700Y26990200D03*
X71634700Y26990200D03*
X71134700Y26990200D03*
X70634700Y26990200D03*
X70134700Y26990200D03*
X69634700Y26990200D03*
D22*
X71260000Y30345000D03*
X71260000Y31315000D03*
D18*
X68250000Y28409900D03*
X69220000Y28409900D03*
X75485000Y28120000D03*
X76455000Y28120000D03*
X75485000Y29120000D03*
X76455000Y29120000D03*
D39*
X76454000Y27089100D03*
X75484000Y27089100D03*
D22*
X71260000Y28401900D03*
X71260000Y29371900D03*
X68250000Y29448900D03*
X68250000Y30418900D03*
D41*
X70218600Y31315000D03*
X70218600Y30345000D03*
D22*
X68250000Y31379300D03*
X68250000Y32349300D03*
D25*
X58102547Y23482347D03*
X57416653Y22796453D03*
D55*
X55377080Y21199680D03*
X55377080Y21569680D03*
X55007080Y21199680D03*
X55007080Y21569680D03*
D56*
X56067080Y20784680D03*
D57*
X56067080Y21184680D03*
X56067080Y21584680D03*
D58*
X56067080Y21984680D03*
D59*
X55592080Y22259680D03*
D60*
X55192080Y22259680D03*
D61*
X54792080Y22259680D03*
D62*
X54317080Y21984680D03*
D57*
X54317080Y21584680D03*
X54317080Y21184680D03*
D63*
X54317080Y20784680D03*
D64*
X54792080Y20509680D03*
D60*
X55192080Y20509680D03*
D65*
X55592080Y20509680D03*
D66*
X55192079Y21384679D03*
D41*
X50368200Y24871400D03*
X50368200Y23901400D03*
X51638200Y24869000D03*
X51638200Y23899000D03*
D67*
X75611983Y14529822D03*
X76071603Y14070203D03*
X76531222Y13610583D03*
D23*
X77556527Y13858071D03*
D67*
X77804015Y14883376D03*
X77344395Y15342995D03*
X76884776Y15802615D03*
D23*
X75859471Y15555127D03*
D18*
X43177600Y28448000D03*
X44147600Y28448000D03*
D22*
X55575000Y29950000D03*
X55575000Y30920000D03*
D39*
X55323600Y28960000D03*
X54353600Y28960000D03*
D18*
X56893600Y34747200D03*
X57863600Y34747200D03*
D68*
X47010900Y28405400D03*
X48410900Y28405400D03*
X49810900Y28405400D03*
X51210900Y28405400D03*
X47010900Y29805400D03*
X48410900Y29805400D03*
X49810900Y29805400D03*
X51210900Y29805400D03*
X47010900Y31205400D03*
X48410900Y31205400D03*
X49810900Y31205400D03*
X51210900Y31205400D03*
X47010900Y32605400D03*
X48410900Y32605400D03*
X49810900Y32605400D03*
X51210900Y32605400D03*
D69*
X46360900Y27067900D03*
X46860900Y27067900D03*
X47360900Y27067900D03*
X47860900Y27067900D03*
X48360900Y27067900D03*
X48860900Y27067900D03*
X49360900Y27067900D03*
X49860900Y27067900D03*
X50360900Y27067900D03*
X50860900Y27067900D03*
X51360900Y27067900D03*
X51860900Y27067900D03*
D70*
X52548400Y27755400D03*
X52548400Y28255400D03*
X52548400Y28755400D03*
X52548400Y29255400D03*
X52548400Y29755400D03*
X52548400Y30255400D03*
X52548400Y30755400D03*
X52548400Y31255400D03*
X52548400Y31755400D03*
X52548400Y32255400D03*
X52548400Y32755400D03*
X52548400Y33255400D03*
D69*
X51860900Y33942900D03*
X51360900Y33942900D03*
X50860900Y33942900D03*
X50360900Y33942900D03*
X49860900Y33942900D03*
X49360900Y33942900D03*
X48860900Y33942900D03*
X48360900Y33942900D03*
X47860900Y33942900D03*
X47360900Y33942900D03*
X46860900Y33942900D03*
X46360900Y33942900D03*
D70*
X45673400Y33255400D03*
X45673400Y32755400D03*
X45673400Y32255400D03*
X45673400Y31755400D03*
X45673400Y31255400D03*
X45673400Y30755400D03*
X45673400Y30255400D03*
X45673400Y29755400D03*
X45673400Y29255400D03*
X45673400Y28755400D03*
X45673400Y28255400D03*
X45673400Y27755400D03*
D22*
X54550000Y29950000D03*
X54550000Y30920000D03*
X57835800Y29944200D03*
X57835800Y30914200D03*
D39*
X54841000Y33782000D03*
X53871000Y33782000D03*
D71*
X56903599Y33516799D03*
X56903599Y32116799D03*
X57853599Y32116799D03*
X57853599Y33516799D03*
D39*
X55323600Y31910000D03*
X54353600Y31910000D03*
D18*
X54353600Y27965400D03*
X55323600Y27965400D03*
D39*
X78336000Y12649200D03*
X77366000Y12649200D03*
X54991000Y11061700D03*
X54021000Y11061700D03*
X62562600Y15910000D03*
X61592600Y15910000D03*
D41*
X57607200Y18521400D03*
X57607200Y17551400D03*
D18*
X54000400Y15189200D03*
X54970400Y15189200D03*
D39*
X54991000Y10020300D03*
X54021000Y10020300D03*
D41*
X57645300Y10111600D03*
X57645300Y9141600D03*
D39*
X62575300Y12255500D03*
X61605300Y12255500D03*
D18*
X62024400Y19151600D03*
X62994400Y19151600D03*
D41*
X53007400Y11026000D03*
X53007400Y10056000D03*
D72*
X57574800Y12763500D03*
X58724800Y12763500D03*
X57574800Y13913500D03*
X58724800Y13913500D03*
D69*
X56899800Y11401000D03*
X57399800Y11401000D03*
X57899800Y11401000D03*
X58399800Y11401000D03*
X58899800Y11401000D03*
X59399800Y11401000D03*
D70*
X60087300Y12088500D03*
X60087300Y12588500D03*
X60087300Y13088500D03*
X60087300Y13588500D03*
X60087300Y14088500D03*
X60087300Y14588500D03*
D69*
X59399800Y15276000D03*
X58899800Y15276000D03*
X58399800Y15276000D03*
X57899800Y15276000D03*
X57399800Y15276000D03*
X56899800Y15276000D03*
D70*
X56212300Y14588500D03*
X56212300Y14088500D03*
X56212300Y13588500D03*
X56212300Y13088500D03*
X56212300Y12588500D03*
X56212300Y12088500D03*
D22*
X53009800Y16642220D03*
X53009800Y17612220D03*
D18*
X52969300Y12537440D03*
X53939300Y12537440D03*
D22*
X58674000Y17551400D03*
X58674000Y18521400D03*
D18*
X55064800Y17635220D03*
X56034800Y17635220D03*
D39*
X56034800Y16619220D03*
X55064800Y16619220D03*
X62575300Y11239500D03*
X61605300Y11239500D03*
X62575300Y13271500D03*
X61605300Y13271500D03*
X54970400Y14173200D03*
X54000400Y14173200D03*
D41*
X53012200Y15166200D03*
X53012200Y14196200D03*
D22*
X58661300Y9141600D03*
X58661300Y10111600D03*
X54025800Y16642220D03*
X54025800Y17612220D03*
D39*
X62560700Y14910000D03*
X61590700Y14910000D03*
D18*
X66621800Y24549100D03*
X67591800Y24549100D03*
X61592600Y9093200D03*
X62562600Y9093200D03*
X61590200Y10134600D03*
X62560200Y10134600D03*
D22*
X63563500Y9128900D03*
X63563500Y10098900D03*
D41*
X74206100Y27091500D03*
X74206100Y26121500D03*
D13*
X72620000Y28652500D03*
X72620000Y30227500D03*
D73*
X75742800Y64157800D03*
X75742800Y63197800D03*
D74*
X72438200Y73360000D03*
X71478200Y73360000D03*
D75*
X3759200Y69267800D03*
X3759200Y68247800D03*
D76*
X3759200Y63752000D03*
X3759200Y64772000D03*
X3759200Y66241200D03*
X3759200Y67261200D03*
D77*
X53138800Y36449000D03*
X52118800Y36449000D03*
X51132200Y36449000D03*
X50112200Y36449000D03*
D75*
X42646600Y34165000D03*
X42646600Y33145000D03*
D78*
X43060999Y31255399D03*
D79*
X43060999Y30755399D03*
X43060999Y30255399D03*
D78*
X43060999Y29755399D03*
X44060999Y29755399D03*
D79*
X44060999Y30255399D03*
X44060999Y30755399D03*
D78*
X44060999Y31255399D03*
D73*
X81675000Y53505000D03*
X81675000Y52545000D03*
D80*
X67521600Y16019000D03*
X67521600Y14969000D03*
X68571600Y16019000D03*
X68571600Y14969000D03*
D81*
X66096600Y16469000D03*
X66096600Y15819000D03*
X66096600Y15169000D03*
X66096600Y14519000D03*
D82*
X67071600Y13544000D03*
X67721600Y13544000D03*
X68371600Y13544000D03*
X69021600Y13544000D03*
D81*
X69996600Y14519000D03*
X69996600Y15169000D03*
X69996600Y15819000D03*
X69996600Y16469000D03*
D82*
X69021600Y17444000D03*
X68371600Y17444000D03*
X67721600Y17444000D03*
X67071600Y17444000D03*
D83*
X75442700Y40007000D03*
X75442700Y41832000D03*
D84*
X20739999Y33529999D03*
X20239999Y33529999D03*
X20739999Y34249999D03*
X20239999Y34249999D03*
D85*
X62350000Y63200000D03*
X62350000Y61300000D03*
D41*
X68800000Y54167500D03*
X68800000Y53197500D03*
D86*
X14569400Y24536400D03*
X16469400Y24536400D03*
D41*
X65532000Y53469400D03*
X65532000Y52499400D03*
D87*
X14579600Y26037600D03*
X14579600Y26997600D03*
D88*
X71958199Y66091799D03*
X73228199Y66091799D03*
X74498199Y66091799D03*
X75768199Y66091799D03*
D89*
X72748199Y69886799D03*
X74978199Y69886799D03*
D90*
X76078199Y71677799D03*
X71648199Y71677799D03*
D91*
X71591199Y68884799D03*
X76135199Y68884799D03*
D92*
X11649999Y30649999D03*
X10849999Y30649999D03*
X10049999Y30649999D03*
X9249999Y30649999D03*
D93*
X8134999Y29534999D03*
X8134999Y28734999D03*
X8134999Y27934999D03*
X8134999Y27134999D03*
D92*
X9249999Y26019999D03*
X10049999Y26019999D03*
X10849999Y26019999D03*
X11649999Y26019999D03*
D93*
X12764999Y27134999D03*
X12764999Y27934999D03*
X12764999Y28734999D03*
X12764999Y29534999D03*
D94*
X10449999Y28334999D03*
D95*
X69915000Y64125000D03*
X70935000Y64125000D03*
D96*
X70916799Y20980399D03*
D97*
X67470000Y66800000D03*
X63375000Y66800000D03*
D98*
X78300000Y53525000D03*
D99*
X78475000Y53025000D03*
D98*
X78300000Y52525000D03*
D99*
X79875000Y52525000D03*
D98*
X80050000Y53025000D03*
D99*
X79875000Y53525000D03*
D100*
X79925000Y54200000D03*
X79425000Y54200000D03*
X78925000Y54200000D03*
D101*
X78425000Y54200000D03*
D74*
X66955000Y59950000D03*
X65995000Y59950000D03*
D86*
X78550000Y46500000D03*
X80450000Y46500000D03*
D47*
X69945000Y61125000D03*
X70905000Y61125000D03*
D78*
X61499999Y53649999D03*
X61499999Y52949999D03*
X62499999Y52949999D03*
X62499999Y53649999D03*
D88*
X71964999Y75164499D03*
X73234999Y75164499D03*
X74504999Y75164499D03*
X75774999Y75164499D03*
D89*
X72754999Y78959499D03*
X74984999Y78959499D03*
D90*
X76084999Y80750499D03*
X71654999Y80750499D03*
D91*
X71597999Y77957499D03*
X76141999Y77957499D03*
D41*
X63830200Y53469400D03*
X63830200Y52499400D03*
D18*
X40663000Y62687200D03*
X41633000Y62687200D03*
D75*
X79875000Y56385000D03*
X79875000Y55365000D03*
D78*
X43391199Y26816799D03*
X43391199Y26116799D03*
X44391199Y26116799D03*
X44391199Y26816799D03*
D102*
X85325000Y47800000D03*
X83425000Y47800000D03*
D85*
X85200000Y54225000D03*
X85200000Y52325000D03*
D86*
X78550000Y50650000D03*
X80450000Y50650000D03*
D103*
X83287500Y43850000D03*
X85412500Y43850000D03*
D75*
X78875000Y56385000D03*
X78875000Y55365000D03*
D78*
X54847999Y26096999D03*
X54847999Y26796999D03*
X53847999Y26796999D03*
X53847999Y26096999D03*
D104*
X6637199Y44956999D03*
X9937199Y44956999D03*
X34437199Y44956999D03*
X37737199Y44956999D03*
D105*
X6637199Y45516999D03*
X9937199Y45516999D03*
X34437199Y45516999D03*
X37737199Y45516999D03*
X6637199Y46016999D03*
X9937199Y46016999D03*
X34437199Y46016999D03*
X37737199Y46016999D03*
X6637199Y46516999D03*
X9937199Y46516999D03*
X34437199Y46516999D03*
X37737199Y46516999D03*
X6637199Y47016999D03*
X9937199Y47016999D03*
X34437199Y47016999D03*
X37737199Y47016999D03*
X6637199Y47516999D03*
X9937199Y47516999D03*
X34437199Y47516999D03*
X37737199Y47516999D03*
X6637199Y48016999D03*
X9937199Y48016999D03*
X34437199Y48016999D03*
X37737199Y48016999D03*
X6637199Y48516999D03*
X9937199Y48516999D03*
X34437199Y48516999D03*
X37737199Y48516999D03*
X6637199Y49016999D03*
X9937199Y49016999D03*
X34437199Y49016999D03*
X37737199Y49016999D03*
X6637199Y49516999D03*
X9937199Y49516999D03*
X34437199Y49516999D03*
X37737199Y49516999D03*
X6637199Y50016999D03*
X9937199Y50016999D03*
X34437199Y50016999D03*
X37737199Y50016999D03*
X6637199Y50516999D03*
X9937199Y50516999D03*
X34437199Y50516999D03*
X37737199Y50516999D03*
X6637199Y51016999D03*
X9937199Y51016999D03*
X34437199Y51016999D03*
X37737199Y51016999D03*
X6637199Y51516999D03*
X9937199Y51516999D03*
X34437199Y51516999D03*
X37737199Y51516999D03*
X6637199Y52016999D03*
X9937199Y52016999D03*
X34437199Y52016999D03*
X37737199Y52016999D03*
X6637199Y52516999D03*
X9937199Y52516999D03*
X34437199Y52516999D03*
X37737199Y52516999D03*
X6637199Y53016999D03*
X9937199Y53016999D03*
X34437199Y53016999D03*
X37737199Y53016999D03*
X6637199Y53516999D03*
X9937199Y53516999D03*
X34437199Y53516999D03*
X37737199Y53516999D03*
X6637199Y54016999D03*
X9937199Y54016999D03*
X34437199Y54016999D03*
X37737199Y54016999D03*
X6637199Y54516999D03*
X9937199Y54516999D03*
X34437199Y54516999D03*
X37737199Y54516999D03*
X6637199Y55016999D03*
X9937199Y55016999D03*
X34437199Y55016999D03*
X37737199Y55016999D03*
X6637199Y55516999D03*
X9937199Y55516999D03*
X34437199Y55516999D03*
X37737199Y55516999D03*
X6637199Y56016999D03*
X9937199Y56016999D03*
X34437199Y56016999D03*
X37737199Y56016999D03*
X6637199Y56516999D03*
X9937199Y56516999D03*
X34437199Y56516999D03*
X37737199Y56516999D03*
X6637199Y57016999D03*
X9937199Y57016999D03*
X34437199Y57016999D03*
X37737199Y57016999D03*
X6637199Y57516999D03*
X9937199Y57516999D03*
X34437199Y57516999D03*
X37737199Y57516999D03*
X6637199Y58016999D03*
X9937199Y58016999D03*
X34437199Y58016999D03*
X37737199Y58016999D03*
X6637199Y58516999D03*
X9937199Y58516999D03*
X34437199Y58516999D03*
X37737199Y58516999D03*
X6637199Y59016999D03*
X9937199Y59016999D03*
X34437199Y59016999D03*
X37737199Y59016999D03*
X6637199Y59516999D03*
X9937199Y59516999D03*
X34437199Y59516999D03*
X37737199Y59516999D03*
X6637199Y60016999D03*
X9937199Y60016999D03*
X34437199Y60016999D03*
X37737199Y60016999D03*
X6637199Y60516999D03*
X9937199Y60516999D03*
X34437199Y60516999D03*
X37737199Y60516999D03*
X6637199Y61016999D03*
X9937199Y61016999D03*
X34437199Y61016999D03*
X37737199Y61016999D03*
X6637199Y61516999D03*
X9937199Y61516999D03*
X34437199Y61516999D03*
X37737199Y61516999D03*
X6637199Y62016999D03*
X9937199Y62016999D03*
X34437199Y62016999D03*
X37737199Y62016999D03*
X6637199Y62516999D03*
X9937199Y62516999D03*
X34437199Y62516999D03*
X37737199Y62516999D03*
X6637199Y63016999D03*
X9937199Y63016999D03*
X34437199Y63016999D03*
X37737199Y63016999D03*
X6637199Y63516999D03*
X9937199Y63516999D03*
X34437199Y63516999D03*
X37737199Y63516999D03*
X6637199Y64016999D03*
X9937199Y64016999D03*
X34437199Y64016999D03*
X37737199Y64016999D03*
X6637199Y64516999D03*
X9937199Y64516999D03*
X34437199Y64516999D03*
X37737199Y64516999D03*
X6637199Y65016999D03*
X9937199Y65016999D03*
X34437199Y65016999D03*
X37737199Y65016999D03*
X6637199Y65516999D03*
X9937199Y65516999D03*
X34437199Y65516999D03*
X37737199Y65516999D03*
X6637199Y66016999D03*
X9937199Y66016999D03*
X34437199Y66016999D03*
X37737199Y66016999D03*
X6637199Y66516999D03*
X9937199Y66516999D03*
X34437199Y66516999D03*
X37737199Y66516999D03*
X6637199Y67016999D03*
X9937199Y67016999D03*
X34437199Y67016999D03*
X37737199Y67016999D03*
X6637199Y67516999D03*
X9937199Y67516999D03*
X34437199Y67516999D03*
X37737199Y67516999D03*
X6637199Y68016999D03*
X9937199Y68016999D03*
X34437199Y68016999D03*
X37737199Y68016999D03*
X6637199Y68516999D03*
X9937199Y68516999D03*
X34437199Y68516999D03*
X37737199Y68516999D03*
X6637199Y69016999D03*
X9937199Y69016999D03*
X34437199Y69016999D03*
X37737199Y69016999D03*
X6637199Y69516999D03*
X9937199Y69516999D03*
X34437199Y69516999D03*
X37737199Y69516999D03*
X6637199Y70016999D03*
X9937199Y70016999D03*
X34437199Y70016999D03*
X37737199Y70016999D03*
X6637199Y70516999D03*
X9937199Y70516999D03*
X34437199Y70516999D03*
X37737199Y70516999D03*
X6637199Y71016999D03*
X9937199Y71016999D03*
X34437199Y71016999D03*
X37737199Y71016999D03*
X6637199Y71516999D03*
X9937199Y71516999D03*
X34437199Y71516999D03*
X37737199Y71516999D03*
X6637199Y72016999D03*
X9937199Y72016999D03*
X34437199Y72016999D03*
X37737199Y72016999D03*
X6637199Y72516999D03*
X9937199Y72516999D03*
X34437199Y72516999D03*
X37737199Y72516999D03*
X6637199Y73016999D03*
X9937199Y73016999D03*
X34437199Y73016999D03*
X37737199Y73016999D03*
X6637199Y73516999D03*
X9937199Y73516999D03*
X34437199Y73516999D03*
X37737199Y73516999D03*
X6637199Y74016999D03*
X9937199Y74016999D03*
X34437199Y74016999D03*
X37737199Y74016999D03*
D104*
X6637199Y74576999D03*
X9937199Y74576999D03*
X34437199Y74576999D03*
X37737199Y74576999D03*
D106*
X50929999Y65529999D03*
D107*
X50429999Y65529999D03*
X49929999Y65529999D03*
D106*
X49429999Y65529999D03*
X49429999Y64529999D03*
D107*
X49929999Y64529999D03*
X50429999Y64529999D03*
D106*
X50929999Y64529999D03*
D78*
X40622599Y61549999D03*
X40622599Y60849999D03*
X41622599Y60849999D03*
X41622599Y61549999D03*
D85*
X64375000Y63200000D03*
X64375000Y61300000D03*
D108*
X69349999Y6964999D03*
D109*
X69024999Y5774999D03*
X69024999Y4584999D03*
X71174999Y4584999D03*
X71174999Y5774999D03*
X71174999Y6964999D03*
D85*
X83175000Y54225000D03*
X83175000Y52325000D03*
X60325000Y63200000D03*
X60325000Y61300000D03*
D110*
X80819999Y70399999D03*
X80819999Y70899999D03*
X80819999Y71399999D03*
X80139999Y71399999D03*
X80139999Y70899999D03*
X80139999Y70399999D03*
D87*
X15570200Y26014600D03*
X15570200Y26974600D03*
D102*
X16748800Y29464000D03*
X14848800Y29464000D03*
D47*
X78870000Y57375000D03*
X79830000Y57375000D03*
X5710900Y29743200D03*
X6670900Y29743200D03*
D86*
X78550000Y48575000D03*
X80450000Y48575000D03*
D77*
X70935000Y63125000D03*
X69915000Y63125000D03*
X70935000Y62125000D03*
X69915000Y62125000D03*
D102*
X85325000Y49825000D03*
X83425000Y49825000D03*
D87*
X80925000Y55395000D03*
X80925000Y56355000D03*
D76*
X77875000Y55365000D03*
X77875000Y56385000D03*
D102*
X66650000Y56400000D03*
X64750000Y56400000D03*
D75*
X60900000Y41710000D03*
X60900000Y40690000D03*
D73*
X73202800Y64157800D03*
X73202800Y63197800D03*
D102*
X66650000Y58425000D03*
X64750000Y58425000D03*
D111*
X86150400Y27355800D03*
X85350400Y27355800D03*
D112*
X86400400Y28243300D03*
X85750400Y28243300D03*
X85100400Y28243300D03*
X85100400Y26468300D03*
X85750400Y26468300D03*
X86400400Y26468300D03*
D75*
X60900000Y44360000D03*
X60900000Y43340000D03*
D24*
X11349983Y22378422D03*
X11809603Y21918803D03*
X12269222Y21459183D03*
D23*
X13294527Y21706671D03*
D24*
X13542015Y22731976D03*
X13082395Y23191595D03*
X12622776Y23651215D03*
D23*
X11597471Y23403727D03*
D95*
X40612600Y63677800D03*
X41632600Y63677800D03*
D113*
X74925000Y53197500D03*
X74925000Y49102500D03*
D102*
X85325000Y45775000D03*
X83425000Y45775000D03*
D75*
X67809400Y54192500D03*
X67809400Y53172500D03*
D18*
X40663000Y64643000D03*
X41633000Y64643000D03*
X40663000Y66395600D03*
X41633000Y66395600D03*
D114*
X67950000Y62950000D03*
D115*
X67450000Y62775000D03*
D114*
X66950000Y62950000D03*
D115*
X66950000Y61375000D03*
D114*
X67450000Y61200000D03*
D115*
X67950000Y61375000D03*
D116*
X68625000Y61325000D03*
X68625000Y61825000D03*
X68625000Y62325000D03*
D117*
X68625000Y62825000D03*
D74*
X15516800Y27940000D03*
X14556800Y27940000D03*
M02*
