M48
INCH
T1C0.0079
T2C0.0079
T3C0.0118
T4C0.0157
T5C0.0394
T6C0.0866
T7C0.1260
%
G90
G05
T1
X0.027Y1.299
X0.027Y1.265
X0.028Y0.928
X0.029Y1.41
X0.029Y1.052
X0.0295Y0.5886
X0.0295Y0.5098
X0.0298Y3.15
X0.0298Y2.551
X0.0298Y2.431
X0.03Y3.463
X0.03Y3.389
X0.03Y3.269
X0.03Y3.03
X0.03Y2.91
X0.03Y2.79
X0.03Y2.67
X0.03Y2.31
X0.03Y1.14
X0.0315Y0.3898
X0.053Y1.222
X0.053Y1.177
X0.06Y1.46
X0.097Y1.905
X0.099Y2.213
X0.099Y2.065
X0.0998Y1.781
X0.0998Y1.661
X0.1Y1.54
X0.104Y3.466
X0.1161Y0.3917
X0.127Y0.641
X0.128Y0.868
X0.146Y1.4044
X0.191Y0.5635
X0.1929Y1.2967
X0.216Y0.869
X0.2224Y0.3839
X0.249Y1.306
X0.25Y1.41
X0.255Y0.5635
X0.262Y1.362
X0.288Y1.226
X0.31Y3.43
X0.313Y0.869
X0.314Y0.412
X0.327Y0.47
X0.3285Y1.2255
X0.33Y1.41
X0.362Y0.543
X0.378Y0.376
X0.399Y1.3708
X0.399Y1.334
X0.425Y1.334
X0.443Y3.415
X0.443Y3.354
X0.447Y1.335
X0.45Y1.41
X0.4921Y3.6057
X0.508Y1.37
X0.541Y2.9354
X0.5468Y2.7404
X0.5678Y2.7694
X0.57Y1.41
X0.5768Y2.9044
X0.5768Y2.4424
X0.5768Y2.3864
X0.5958Y2.6044
X0.6083Y2.149
X0.6102Y0.0295
X0.636Y1.608
X0.6683Y2.1825
X0.6697Y0.8079
X0.6703Y2.2051
X0.6722Y2.1333
X0.673Y2.879
X0.6732Y2.1579
X0.72Y1.41
X0.7283Y0.0295
X0.7372Y2.6244
X0.7382Y2.65
X0.7413Y1.3673
X0.7717Y2.1874
X0.7766Y2.147
X0.7963Y2.1303
X0.807Y2.936
X0.8238Y2.6933
X0.8238Y2.4994
X0.8278Y2.5988
X0.84Y1.41
X0.844Y2.1884
X0.8445Y2.461
X0.8468Y2.9044
X0.8504Y0.0295
X0.8543Y2.6968
X0.8612Y2.5201
X0.8619Y2.3783
X0.8671Y2.4984
X0.8681Y2.5476
X0.875Y2.46
X0.8848Y2.3783
X0.8878Y2.7002
X0.8907Y2.5565
X0.9006Y2.5053
X0.9134Y2.5516
X0.9193Y2.526
X0.9311Y1.2396
X0.9388Y2.879
X0.9478Y2.1323
X0.9498Y2.2012
X0.96Y1.41
X0.9606Y2.5654
X0.9616Y2.1461
X0.9646Y2.1836
X0.9705Y0.0295
X0.976Y3.198
X0.9783Y1.1116
X1.0138Y1.026
X1.0187Y2.1411
X1.0571Y1.2386
X1.08Y1.41
X1.0886Y2.1362
X1.0906Y0.0295
X1.1Y3.375
X1.137Y2.676
X1.1437Y2.2701
X1.1498Y2.5054
X1.1654Y2.2356
X1.1766Y2.4536
X1.1766Y2.3736
X1.1766Y2.3536
X1.1766Y2.4336
X1.1868Y2.709
X1.1969Y1.2415
X1.2Y1.41
X1.2106Y0.0295
X1.2268Y1.2411
X1.2418Y2.5054
X1.2441Y2.0437
X1.245Y2.6754
X1.248Y2.311
X1.2539Y2.1008
X1.2556Y2.3936
X1.2556Y2.3396
X1.2598Y1.2404
X1.2672Y1.3031
X1.269Y2.532
X1.2874Y2.098
X1.2886Y2.3666
X1.32Y1.41
X1.3307Y0.0295
X1.3858Y0.065
X1.43Y1.41
X1.43Y1.325
X1.43Y1.205
X1.4311Y0.1043
X1.4547Y1.7238
X1.4823Y1.7228
X1.491Y0.605
X1.5167Y1.7248
X1.5256Y1.2819
X1.5561Y1.025
X1.5723Y1.0088
X1.5728Y2.1195
X1.5728Y1.9469
X1.5728Y1.3996
X1.5807Y2.2622
X1.5827Y2.0089
X1.5902Y2.1354
X1.5965Y2.0447
X1.605Y1.947
X1.6063Y2.2967
X1.6063Y2.023
X1.6071Y1.911
X1.6093Y2.2425
X1.6102Y2.2169
X1.6142Y2.3154
X1.6142Y2.275
X1.6157Y2.1354
X1.617Y1.235
X1.6171Y2.185
X1.623Y1.795
X1.626Y1.929
X1.6268Y0.9543
X1.6339Y0.1634
X1.6358Y0.5256
X1.6358Y0.4035
X1.6358Y0.2835
X1.6358Y0.1043
X1.636Y1.256
X1.6398Y0.5886
X1.641Y1.9545
X1.642Y1.777
X1.645Y1.172
X1.646Y1.279
X1.6496Y0.7323
X1.6496Y0.6496
X1.6713Y1.1929
X1.677Y1.651
X1.6777Y1.2488
X1.6791Y0.9453
X1.6995Y1.146
X1.7Y1.091
X1.7012Y1.6514
X1.7106Y0.7323
X1.716Y1.817
X1.716Y1.332
X1.719Y1.915
X1.7215Y2.1687
X1.722Y1.994
X1.727Y1.687
X1.728Y1.954
X1.7293Y2.5427
X1.733Y1.797
X1.7362Y0.6063
X1.738Y1.146
X1.738Y1.091
X1.739Y1.27
X1.7411Y1.974
X1.7411Y1.302
X1.75Y1.4098
X1.7514Y1.8091
X1.753Y2.171
X1.756Y1.717
X1.7618Y2.0152
X1.7628Y2.1283
X1.783Y2.174
X1.8307Y0.7323
X1.8386Y2.3409
X1.8396Y2.5309
X1.8425Y1.6606
X1.8465Y1.5457
X1.8563Y2.0805
X1.857Y1.704
X1.8583Y2.1234
X1.879Y1.712
X1.8809Y2.0673
X1.8917Y2.1461
X1.8937Y2.5988
X1.8937Y2.3555
X1.902Y1.704
X1.904Y1.36
X1.9114Y1.8724
X1.9192Y1.6606
X1.9203Y2.5447
X1.9203Y2.338
X1.921Y1.5525
X1.9252Y0.7323
X1.9252Y0.6693
X1.9252Y0.6063
X1.9339Y1.6754
X1.9343Y1.026
X1.9343Y1.0016
X1.9384Y1.6526
X1.963Y1.36
X1.9636Y2.0506
X1.974Y1.85
X1.9882Y2.1195
X1.992Y1.697
X1.9961Y2.085
X2.0Y1.5447
X2.0Y0.7323
X2.0Y0.6457
X2.0Y0.5256
X2.0Y0.4055
X2.0Y0.2854
X2.0Y0.1654
X2.0Y0.1004
X2.001Y1.88
X2.011Y1.941
X2.0305Y2.164
X2.039Y1.88
X2.048Y1.697
X2.0561Y2.3518
X2.059Y1.568
X2.068Y0.179
X2.069Y1.85
X2.069Y1.36
X2.069Y1.326
X2.0778Y2.2726
X2.088Y2.974
X2.088Y3.122
X2.088Y3.048
X2.094Y0.219
X2.0945Y2.337
X2.098Y1.658
X2.099Y1.9491
X2.1004Y2.2726
X2.102Y1.714
X2.107Y1.0904
X2.108Y1.251
X2.108Y1.141
X2.108Y1.113
X2.114Y1.393
X2.114Y1.2287
X2.114Y1.191
X2.1201Y0.1004
X2.121Y1.359
X2.121Y1.304
X2.125Y2.937
X2.125Y3.011
X2.125Y3.085
X2.128Y0.89
X2.1317Y0.8006
X2.1319Y1.6992
X2.136Y2.77
X2.14Y1.285
X2.1402Y0.9134
X2.142Y1.801
X2.144Y0.465
X2.1467Y2.4974
X2.1488Y0.2906
X2.158Y1.371
X2.167Y0.779
X2.169Y0.468
X2.1695Y0.4956
X2.1713Y1.6992
X2.1729Y0.8419
X2.173Y0.908
X2.174Y2.769
X2.177Y1.655
X2.1821Y2.4217
X2.184Y2.166
X2.185Y2.528
X2.1874Y0.282
X2.1882Y1.3295
X2.19Y0.315
X2.197Y2.107
X2.1978Y1.6752
X2.199Y3.087
X2.201Y1.256
X2.202Y1.102
X2.205Y1.14
X2.2057Y1.5696
X2.213Y2.77
X2.2131Y2.135
X2.214Y2.091
X2.2144Y1.6578
X2.215Y1.2169
X2.217Y1.068
X2.217Y1.017
X2.217Y0.315
X2.2175Y0.1795
X2.219Y1.699
X2.221Y1.87
X2.2234Y2.3902
X2.2243Y0.8141
X2.2283Y2.5289
X2.231Y2.118
X2.239Y1.661
X2.239Y1.043
X2.24Y1.699
X2.24Y1.3887
X2.2418Y0.8675
X2.2461Y0.1004
X2.2461Y0.0315
X2.255Y0.938
X2.2648Y2.4984
X2.267Y3.047
X2.27Y1.633
X2.2707Y0.9583
X2.2781Y1.389
X2.284Y0.263
X2.286Y2.821
X2.287Y2.206
X2.305Y0.984
X2.314Y2.881
X2.32Y2.184
X2.328Y1.796
X2.337Y2.112
X2.339Y2.149
X2.341Y1.875
X2.35Y1.7944
X2.35Y1.737
X2.351Y3.202
X2.3527Y1.0387
X2.36Y0.28
X2.366Y2.887
X2.3661Y0.0315
X2.371Y1.856
X2.374Y2.0251
X2.38Y2.002
X2.383Y2.268
X2.395Y2.043
X2.3976Y1.7677
X2.3976Y1.5709
X2.3979Y1.671
X2.4011Y1.159
X2.404Y2.004
X2.408Y1.816
X2.415Y2.062
X2.434Y2.806
X2.435Y2.769
X2.437Y2.228
X2.445Y0.657
X2.45Y1.768
X2.452Y0.942
X2.453Y3.105
X2.47Y0.657
X2.473Y1.743
X2.478Y2.806
X2.4849Y2.946
X2.4862Y0.0315
X2.488Y0.6915
X2.488Y0.5225
X2.488Y0.4825
X2.488Y0.4425
X2.5Y1.275
X2.503Y0.559
X2.503Y0.423
X2.5061Y3.045
X2.511Y0.692
X2.522Y2.818
X2.5289Y1.6075
X2.53Y0.36
X2.5354Y1.4566
X2.538Y0.46
X2.5454Y1.6249
X2.548Y0.625
X2.55Y2.004
X2.5567Y1.462
X2.561Y2.934
X2.561Y2.859
X2.561Y2.818
X2.563Y1.383
X2.563Y0.43
X2.5647Y0.58
X2.5765Y0.46
X2.5812Y0.4102
X2.5908Y2.0037
X2.597Y3.246
X2.61Y3.043
X2.6128Y2.1051
X2.625Y0.687
X2.6339Y2.1378
X2.635Y0.378
X2.6358Y2.0609
X2.654Y0.289
X2.66Y1.671
X2.6665Y0.5005
X2.6693Y2.1671
X2.672Y3.043
X2.6752Y1.9256
X2.6752Y1.8665
X2.6755Y0.4585
X2.6758Y0.4306
X2.683Y1.383
X2.691Y0.485
X2.7087Y2.1671
X2.7165Y2.2029
X2.717Y0.5
X2.72Y2.975
X2.72Y2.932
X2.72Y1.671
X2.7234Y2.3016
X2.7244Y1.9256
X2.7244Y1.8665
X2.7244Y0.0315
X2.7305Y0.4515
X2.7305Y0.3795
X2.7411Y1.5309
X2.744Y1.812
X2.7498Y2.0661
X2.754Y3.184
X2.754Y3.12
X2.754Y3.056
X2.754Y2.347
X2.756Y2.954
X2.7563Y2.8051
X2.7571Y2.7701
X2.7589Y0.1821
X2.7726Y0.2736
X2.775Y0.431
X2.785Y3.025
X2.786Y3.152
X2.786Y3.088
X2.7878Y2.8874
X2.788Y2.82
X2.788Y2.756
X2.7882Y2.7894
X2.789Y0.504
X2.796Y2.975
X2.796Y2.932
X2.797Y0.475
X2.803Y1.383
X2.82Y2.08
X2.82Y1.96
X2.82Y1.84
X2.82Y1.6
X2.82Y1.523
X2.843Y1.691
X2.85Y1.07
X2.8553Y1.7829
X2.8567Y1.2661
X2.8567Y1.2335
X2.872Y0.736
X2.88Y2.15
X2.88Y1.8975
X2.882Y2.912
X2.8839Y0.4758
X2.884Y0.597
X2.884Y0.516
X2.886Y0.639
X2.898Y0.736
X2.8996Y0.676
X2.9Y0.703
X2.9012Y1.7488
X2.9078Y0.9252
X2.9127Y2.488
X2.913Y2.55
X2.9272Y0.4555
X2.929Y2.17
X2.9329Y0.5185
X2.933Y0.55
X2.939Y1.732
X2.94Y2.32
X2.9467Y2.519
X2.947Y2.464
X2.9479Y1.8321
X2.949Y1.383
X2.954Y1.316
X2.9568Y2.1717
X2.96Y0.874
X2.9625Y1.625
X2.9646Y0.0295
X2.9646Y1.7667
X2.9733Y1.1965
X2.98Y0.411
X2.982Y2.565
X2.982Y2.461
X2.997Y0.525
X2.997Y1.7608
X3.0Y2.0275
X3.0Y1.855
X3.0061Y1.8843
X3.007Y1.196
X3.008Y1.726
X3.01Y1.575
X3.0122Y1.55
X3.02Y0.579
X3.026Y0.348
X3.0265Y0.82
X3.037Y1.55
X3.039Y2.273
X3.041Y1.197
X3.0498Y1.8051
X3.06Y2.32
X3.0659Y2.2421
X3.069Y1.383
X3.07Y1.185
X3.0758Y2.2618
X3.0846Y0.0295
X3.095Y1.185
X3.114Y1.55
X3.128Y1.179
X3.134Y1.056
X3.1388Y1.8625
X3.146Y1.08
X3.149Y0.982
X3.1496Y1.7844
X3.158Y1.574
X3.1693Y2.1348
X3.17Y0.939
X3.1791Y0.2008
X3.18Y2.98
X3.18Y2.92
X3.18Y2.86
X3.18Y2.81
X3.18Y2.75
X3.18Y2.69
X3.18Y2.32
X3.185Y1.7638
X3.186Y1.494
X3.188Y2.087
X3.189Y1.383
X3.203Y1.3167
X3.204Y2.14
X3.204Y0.876
X3.2096Y2.2234
X3.215Y2.042
X3.219Y1.6258
X3.2224Y0.2913
X3.224Y2.14
X3.2244Y0.0315
X3.225Y1.533
X3.2374Y1.8508
X3.238Y1.97
X3.238Y1.93
X3.238Y1.89
X3.24Y2.98
X3.24Y2.92
X3.24Y2.86
X3.24Y2.81
X3.24Y2.75
X3.24Y2.69
X3.241Y1.494
X3.256Y1.224
X3.26Y0.4692
X3.264Y0.633
X3.268Y1.683
X3.272Y1.533
X3.29Y1.494
X3.2955Y2.2075
X3.3Y2.98
X3.3Y2.69
X3.312Y0.876
X3.318Y2.02
X3.325Y1.52
X3.325Y1.34
X3.3268Y0.3386
X3.3275Y1.0416
X3.329Y1.1115
X3.333Y2.233
X3.333Y2.18
X3.339Y1.196
X3.34Y1.667
X3.352Y1.316
X3.353Y2.02
X3.3531Y1.2891
X3.362Y1.601
X3.368Y2.2075
X3.368Y1.428
X3.373Y1.5197
X3.3751Y1.289
X3.3853Y0.5288
X3.4291Y0.3425
X3.43Y0.876
X3.437Y0.3743
X3.44Y2.25
X3.44Y2.15
X3.44Y1.91
X3.44Y1.79
X3.44Y1.67
X3.44Y1.55
X3.442Y0.528
X3.459Y0.3943
X3.5196Y0.986
X3.5197Y0.5059
X3.5197Y0.4154
X3.5197Y0.3445
X3.52Y3.12
X3.52Y2.52
X3.52Y2.45
X3.52Y1.225
X3.52Y1.105
X3.521Y1.323
T2
X2.7474Y1.0286
X2.7474Y0.9853
X2.7474Y0.942
X2.7907Y1.0286
X2.7907Y0.9853
X2.7907Y0.942
X2.834Y1.0286
X2.834Y0.9853
X2.834Y0.942
X2.9582Y0.7063
X2.9582Y0.6847
X2.9798Y0.7063
X2.9798Y0.6847
X3.181Y1.1697
X3.223Y1.1697
X3.3543Y1.077
X3.3781Y0.4479
X3.3977Y1.077
X3.4201Y0.4479
T3
X2.2559Y0.5586
X2.2559Y0.5251
X2.2559Y0.4917
X2.2894Y0.5586
X2.2894Y0.5251
X2.2894Y0.4917
X2.3228Y0.5586
X2.3228Y0.5251
X2.3228Y0.4917
X2.6495Y0.6395
X2.6495Y0.61
X2.6495Y0.5805
X2.679Y0.6395
X2.679Y0.61
X2.679Y0.5805
X2.7085Y0.6395
X2.7085Y0.61
X2.7085Y0.5805
T4
X0.5958Y2.5284
X0.6457Y2.5694
X1.1467Y2.5929
X1.1868Y2.5974
X2.0854Y0.5249
X2.087Y0.461
X2.087Y0.373
X2.0877Y0.727
X2.088Y0.6245
X2.1261Y0.527
X2.1267Y0.727
X2.1272Y0.628
X2.23Y0.694
X2.251Y0.765
X2.332Y0.655
X2.382Y0.789
X2.623Y1.075
X2.654Y1.273
X2.719Y1.273
X2.725Y1.152
X2.7375Y1.2333
X2.7555Y1.1185
X2.7645Y1.2618
X2.8055Y1.2623
X3.0365Y1.0665
X3.0366Y1.1067
X3.037Y1.1457
X3.081Y1.08
X3.0815Y1.1155
X3.082Y1.045
X3.1097Y1.08
X3.178Y0.413
X3.178Y0.375
X3.288Y0.44
X3.288Y0.411
X3.323Y0.4593
X3.35Y0.9504
X3.371Y0.6293
X3.378Y1.219
X3.398Y0.948
X3.423Y0.6293
X3.4235Y1.219
X3.428Y0.948
X3.458Y0.5963
T5
X0.55Y3.575
X0.55Y3.475
X0.55Y3.375
X0.55Y3.275
X0.65Y3.575
X0.65Y3.475
X0.65Y3.375
X0.65Y3.275
X0.75Y3.575
X0.75Y3.475
X0.75Y3.375
X0.75Y3.275
X0.85Y3.575
X0.85Y3.475
X0.85Y3.375
X0.85Y3.275
X0.95Y3.575
X0.95Y3.475
X0.95Y3.375
X0.95Y3.275
X1.05Y3.575
X1.05Y3.475
X1.05Y3.375
X1.05Y3.275
X1.15Y3.575
X1.15Y3.475
X1.15Y3.375
X1.15Y3.275
X1.25Y3.575
X1.25Y3.475
X1.25Y3.375
X1.25Y3.275
X1.35Y3.575
X1.35Y3.475
X1.35Y3.375
X1.35Y3.275
X1.45Y3.575
X1.45Y3.475
X1.45Y3.375
X1.45Y3.275
X1.55Y3.575
X1.55Y3.475
X1.55Y3.375
X1.55Y3.275
X1.65Y3.575
X1.65Y3.475
X1.65Y3.375
X1.65Y3.275
X1.75Y3.575
X1.75Y3.475
X1.75Y3.375
X1.75Y3.275
X1.85Y3.575
X1.85Y3.475
X1.85Y3.375
X1.85Y3.275
X1.95Y3.575
X1.95Y3.475
X1.95Y3.375
X1.95Y3.275
X2.05Y3.575
X2.05Y3.475
X2.05Y3.375
X2.05Y3.275
X2.15Y3.575
X2.15Y3.475
X2.15Y3.375
X2.15Y3.275
X2.25Y3.575
X2.25Y3.475
X2.25Y3.375
X2.25Y3.275
X2.35Y3.575
X2.35Y3.475
X2.35Y3.375
X2.35Y3.275
X2.45Y3.575
X2.45Y3.475
X2.45Y3.375
X2.45Y3.275
X2.55Y3.575
X2.55Y3.475
X2.55Y3.375
X2.55Y3.275
X2.65Y3.575
X2.65Y3.475
X2.65Y3.375
X2.65Y3.275
X2.75Y3.575
X2.75Y3.475
X2.75Y3.375
X2.75Y3.275
X2.85Y3.575
X2.85Y3.475
X2.85Y3.375
X2.85Y3.275
X2.95Y3.575
X2.95Y3.475
X2.95Y3.375
X2.95Y3.275
X3.05Y3.575
X3.05Y3.475
X3.05Y3.375
X3.05Y3.275
T6
X0.125Y1.04
X0.216Y3.406
X0.7776Y0.0689
X1.53Y1.12
X1.83Y0.645
X2.5Y1.185
X2.5689Y0.0681
X2.8125Y2.2375
X3.238Y0.993
X3.384Y3.406
X3.455Y1.4125
X3.46Y2.3575
T7
X0.2Y0.2
X0.35Y3.575
X3.25Y3.575
X3.35Y0.2
T0
M30
