G04 #@! TF.GenerationSoftware,KiCad,Pcbnew,7.0.0-da2b9df05c~171~ubuntu22.04.1*
G04 #@! TF.CreationDate,2023-04-06T22:28:54+03:00*
G04 #@! TF.ProjectId,satnogs-comms,7361746e-6f67-4732-9d63-6f6d6d732e6b,rev?*
G04 #@! TF.SameCoordinates,Original*
G04 #@! TF.FileFunction,Soldermask,Top*
G04 #@! TF.FilePolarity,Negative*
%FSLAX46Y46*%
G04 Gerber Fmt 4.6, Leading zero omitted, Abs format (unit mm)*
G04 Created by KiCad (PCBNEW 7.0.0-da2b9df05c~171~ubuntu22.04.1) date 2023-04-06 22:28:54*
%MOMM*%
%LPD*%
G01*
G04 APERTURE LIST*
G04 Aperture macros list*
%AMRoundRect*
0 Rectangle with rounded corners*
0 $1 Rounding radius*
0 $2 $3 $4 $5 $6 $7 $8 $9 X,Y pos of 4 corners*
0 Add a 4 corners polygon primitive as box body*
4,1,4,$2,$3,$4,$5,$6,$7,$8,$9,$2,$3,0*
0 Add four circle primitives for the rounded corners*
1,1,$1+$1,$2,$3*
1,1,$1+$1,$4,$5*
1,1,$1+$1,$6,$7*
1,1,$1+$1,$8,$9*
0 Add four rect primitives between the rounded corners*
20,1,$1+$1,$2,$3,$4,$5,0*
20,1,$1+$1,$4,$5,$6,$7,0*
20,1,$1+$1,$6,$7,$8,$9,0*
20,1,$1+$1,$8,$9,$2,$3,0*%
%AMRotRect*
0 Rectangle, with rotation*
0 The origin of the aperture is its center*
0 $1 length*
0 $2 width*
0 $3 Rotation angle, in degrees counterclockwise*
0 Add horizontal line*
21,1,$1,$2,0,0,$3*%
%AMFreePoly0*
4,1,7,1.500000,-0.775000,-1.500000,-0.775000,-1.500000,0.225000,-6.000000,0.225000,-6.000000,0.775000,1.500000,0.775000,1.500000,-0.775000,1.500000,-0.775000,$1*%
%AMFreePoly1*
4,1,8,1.500000,-0.775000,-1.500000,-0.775000,-6.000000,-0.775000,-6.000000,-0.225000,-1.500000,-0.225000,-1.500000,0.775000,1.500000,0.775000,1.500000,-0.775000,1.500000,-0.775000,$1*%
%AMFreePoly2*
4,1,6,0.125000,-0.099500,-0.013000,-0.237500,-0.125000,-0.237500,-0.125000,0.237500,0.125000,0.237500,0.125000,-0.099500,0.125000,-0.099500,$1*%
%AMFreePoly3*
4,1,6,0.125000,0.099500,0.125000,-0.237500,-0.125000,-0.237500,-0.125000,0.237500,-0.013000,0.237500,0.125000,0.099500,0.125000,0.099500,$1*%
%AMFreePoly4*
4,1,36,0.462941,0.544983,0.479174,0.544983,0.492307,0.535440,0.507748,0.530424,0.517290,0.517290,0.530424,0.507748,0.535440,0.492307,0.544983,0.479174,0.544983,0.462941,0.550000,0.447500,0.550000,-0.447500,0.544983,-0.462941,0.544983,-0.479174,0.535440,-0.492307,0.530424,-0.507748,0.517290,-0.517290,0.507748,-0.530424,0.492307,-0.535440,0.479174,-0.544983,0.462941,-0.544983,
0.447500,-0.550000,-0.447500,-0.550000,-0.462941,-0.544983,-0.479174,-0.544983,-0.492307,-0.535440,-0.507748,-0.530424,-0.517290,-0.517290,-0.530424,-0.507748,-0.535440,-0.492307,-0.544983,-0.479174,-0.544983,-0.462941,-0.550000,-0.447500,-0.550000,0.350000,-0.350000,0.550000,0.447500,0.550000,0.462941,0.544983,0.462941,0.544983,$1*%
%AMFreePoly5*
4,1,14,0.155252,0.089749,0.264749,-0.019748,0.275000,-0.044497,0.275000,-0.065000,0.264749,-0.089749,0.240000,-0.100000,-0.240000,-0.100000,-0.264749,-0.089749,-0.275000,-0.065000,-0.275000,0.065000,-0.264749,0.089749,-0.240000,0.100000,0.130503,0.100000,0.155252,0.089749,0.155252,0.089749,$1*%
%AMFreePoly6*
4,1,14,0.264749,0.089749,0.275000,0.065000,0.275000,0.044497,0.264749,0.019748,0.155252,-0.089749,0.130503,-0.100000,-0.240000,-0.100000,-0.264749,-0.089749,-0.275000,-0.065000,-0.275000,0.065000,-0.264749,0.089749,-0.240000,0.100000,0.240000,0.100000,0.264749,0.089749,0.264749,0.089749,$1*%
%AMFreePoly7*
4,1,14,0.089749,0.264749,0.100000,0.240000,0.100000,-0.240000,0.089749,-0.264749,0.065000,-0.275000,-0.065000,-0.275000,-0.089749,-0.264749,-0.100000,-0.240000,-0.100000,0.130503,-0.089749,0.155252,0.019748,0.264749,0.044497,0.275000,0.065000,0.275000,0.089749,0.264749,0.089749,0.264749,$1*%
%AMFreePoly8*
4,1,14,-0.019748,0.264749,0.089749,0.155252,0.100000,0.130503,0.100000,-0.240000,0.089749,-0.264749,0.065000,-0.275000,-0.065000,-0.275000,-0.089749,-0.264749,-0.100000,-0.240000,-0.100000,0.240000,-0.089749,0.264749,-0.065000,0.275000,-0.044497,0.275000,-0.019748,0.264749,-0.019748,0.264749,$1*%
%AMFreePoly9*
4,1,14,0.264749,0.089749,0.275000,0.065000,0.275000,-0.065000,0.264749,-0.089749,0.240000,-0.100000,-0.130503,-0.100000,-0.155252,-0.089749,-0.264749,0.019748,-0.275000,0.044497,-0.275000,0.065000,-0.264749,0.089749,-0.240000,0.100000,0.240000,0.100000,0.264749,0.089749,0.264749,0.089749,$1*%
%AMFreePoly10*
4,1,14,0.264749,0.089749,0.275000,0.065000,0.275000,-0.065000,0.264749,-0.089749,0.240000,-0.100000,-0.240000,-0.100000,-0.264749,-0.089749,-0.275000,-0.065000,-0.275000,-0.044497,-0.264749,-0.019747,-0.155252,0.089749,-0.130503,0.100000,0.240000,0.100000,0.264749,0.089749,0.264749,0.089749,$1*%
%AMFreePoly11*
4,1,14,0.089749,0.264749,0.100000,0.240000,0.100000,-0.130503,0.089749,-0.155252,-0.019748,-0.264749,-0.044497,-0.275000,-0.065000,-0.275000,-0.089749,-0.264749,-0.100000,-0.240000,-0.100000,0.240000,-0.089749,0.264749,-0.065000,0.275000,0.065000,0.275000,0.089749,0.264749,0.089749,0.264749,$1*%
%AMFreePoly12*
4,1,14,0.089749,0.264749,0.100000,0.240000,0.100000,-0.240000,0.089749,-0.264749,0.065000,-0.275000,0.044497,-0.275000,0.019748,-0.264749,-0.089749,-0.155252,-0.100000,-0.130503,-0.100000,0.240000,-0.089749,0.264749,-0.065000,0.275000,0.065000,0.275000,0.089749,0.264749,0.089749,0.264749,$1*%
%AMFreePoly13*
4,1,176,10.669000,63.765000,10.669000,58.081000,2.729000,58.081000,2.468000,58.063000,2.211000,58.012000,1.964000,57.928000,1.729000,57.813000,1.512000,57.667000,1.315000,57.495000,1.142000,57.298000,0.997000,57.081000,0.881000,56.846000,0.797000,56.598000,0.746000,56.342000,0.729000,56.081000,0.729000,37.284000,0.744000,37.037000,0.790000,36.794000,0.866000,36.558000,0.970000,36.333000,
1.101000,36.123000,1.257000,35.930000,1.436000,35.759000,1.634000,35.611000,1.634000,15.882000,1.651000,15.621000,1.702000,15.365000,1.786000,15.117000,1.902000,14.882000,2.047000,14.665000,2.220000,14.468000,2.417000,14.296000,2.634000,14.150000,2.869000,14.035000,3.116000,13.950000,3.373000,13.899000,3.634000,13.882000,35.127000,13.882000,35.257000,13.865000,35.377000,13.815000,
35.481000,13.736000,35.560000,13.632000,35.610000,13.512000,35.627000,13.382000,35.627000,9.262000,35.645000,8.994000,35.699000,8.732000,35.787000,8.478000,35.909000,8.239000,36.061000,8.018000,36.242000,7.820000,36.448000,7.647000,36.674000,7.504000,38.425000,6.555000,38.645000,6.414000,38.842000,6.241000,39.010000,6.041000,39.147000,5.818000,39.249000,5.577000,39.314000,5.324000,
39.341000,5.064000,39.328000,4.802000,39.277000,4.546000,39.188000,4.300000,39.063000,4.070000,38.906000,3.861000,38.719000,3.678000,38.507000,3.525000,38.274000,3.405000,38.027000,3.322000,37.769000,3.276000,37.508000,3.269000,37.248000,3.301000,36.996000,3.371000,36.758000,3.478000,33.889000,5.032000,33.781000,5.111000,33.698000,5.216000,33.645000,5.339000,33.627000,5.472000,
33.627000,9.882000,33.610000,10.143000,33.559000,10.400000,33.475000,10.648000,33.359000,10.882000,33.214000,11.100000,33.042000,11.297000,32.845000,11.469000,32.627000,11.614000,32.393000,11.730000,32.145000,11.814000,31.888000,11.865000,31.627000,11.882000,2.729000,11.882000,2.468000,11.865000,2.211000,11.814000,1.964000,11.730000,1.729000,11.614000,1.512000,11.469000,1.315000,11.297000,
1.142000,11.100000,0.997000,10.882000,0.881000,10.648000,0.797000,10.400000,0.746000,10.143000,0.729000,9.882000,0.729000,6.643000,0.747000,6.374000,0.801000,6.110000,0.891000,5.855000,1.013000,5.615000,1.167000,5.394000,1.349000,5.195000,1.557000,5.022000,1.785000,4.880000,2.031000,4.769000,2.289000,4.692000,2.538000,4.616000,2.773000,4.503000,2.989000,4.358000,
3.181000,4.181000,3.344000,3.979000,3.476000,3.754000,3.573000,3.512000,3.633000,3.259000,3.654000,2.999000,3.637000,2.739000,3.581000,2.485000,3.489000,2.241000,3.361000,2.015000,3.201000,1.809000,3.047000,1.618000,2.919000,1.409000,2.817000,1.186000,2.742000,0.952000,2.698000,0.711000,2.683000,0.466000,2.683000,-1.080000,-1.271000,-1.080000,-1.271000,13.411000,
-1.253000,13.597000,-1.198000,13.776000,-1.110000,13.940000,-0.992000,14.085000,-0.848000,14.203000,-0.683000,14.291000,-0.504000,14.345000,-0.318000,14.364000,-0.133000,14.382000,0.046000,14.436000,0.211000,14.524000,0.355000,14.642000,0.474000,14.787000,0.562000,14.952000,0.616000,15.130000,0.634000,15.316000,0.634000,33.706000,0.616000,33.891000,0.562000,34.070000,0.474000,34.235000,
0.355000,34.379000,0.211000,34.498000,0.046000,34.586000,-0.133000,34.640000,-0.318000,34.658000,-0.504000,34.676000,-0.683000,34.731000,-0.848000,34.819000,-0.992000,34.937000,-1.110000,35.081000,-1.198000,35.246000,-1.253000,35.425000,-1.271000,35.611000,-1.271000,64.922000,3.819000,64.922000,10.669000,63.765000,10.669000,63.765000,$1*%
%AMFreePoly14*
4,1,313,37.697000,6.512000,37.886000,6.447000,38.058000,6.346000,38.207000,6.213000,38.326000,6.054000,38.836000,5.206000,38.983000,4.995000,39.155000,4.804000,39.350000,4.637000,39.566000,4.497000,39.797000,4.385000,40.041000,4.304000,40.293000,4.254000,40.550000,4.238000,50.368000,4.238000,50.497000,4.221000,50.618000,4.171000,50.721000,4.091000,50.801000,3.988000,50.851000,3.867000,
50.868000,3.738000,50.868000,-9.240000,50.885000,-9.501000,50.936000,-9.758000,51.020000,-10.006000,51.136000,-10.240000,51.281000,-10.458000,51.453000,-10.655000,51.650000,-10.827000,51.868000,-10.972000,52.102000,-11.088000,52.350000,-11.172000,52.607000,-11.223000,52.868000,-11.240000,56.003000,-11.240000,56.003000,-11.345000,56.020000,-11.606000,56.071000,-11.863000,56.155000,-12.111000,56.271000,-12.345000,
56.416000,-12.563000,56.589000,-12.760000,56.786000,-12.932000,57.003000,-13.077000,57.238000,-13.193000,57.485000,-13.277000,57.742000,-13.328000,58.003000,-13.345000,75.475000,-13.345000,75.737000,-13.328000,75.995000,-13.276000,76.244000,-13.191000,76.480000,-13.074000,76.698000,-12.927000,76.895000,-12.753000,77.068000,-12.554000,77.213000,-12.335000,77.328000,-12.098000,78.932000,-8.146000,79.112000,-7.754000,
79.323000,-7.378000,79.566000,-7.021000,79.838000,-6.686000,80.137000,-6.375000,80.462000,-6.091000,80.810000,-5.835000,81.177000,-5.609000,81.563000,-5.415000,81.964000,-5.255000,82.376000,-5.129000,82.798000,-5.038000,83.226000,-4.984000,83.658000,-4.965000,84.738000,-4.965000,84.999000,-4.948000,85.255000,-4.897000,85.503000,-4.813000,85.738000,-4.697000,85.955000,-4.552000,86.152000,-4.380000,
86.324000,-4.183000,86.470000,-3.965000,86.585000,-3.731000,86.669000,-3.483000,86.720000,-3.226000,86.738000,-2.965000,86.738000,-2.165000,86.719000,-1.895000,86.665000,-1.630000,86.575000,-1.374000,86.451000,-1.134000,86.296000,-0.912000,86.112000,-0.713000,85.903000,-0.540000,85.673000,-0.398000,85.426000,-0.287000,85.166000,-0.212000,85.039000,-0.165000,84.929000,-0.086000,84.844000,0.019000,
84.791000,0.143000,84.773000,0.277000,84.773000,0.806000,88.738000,0.806000,88.738000,-7.015000,83.658000,-7.015000,83.331000,-7.033000,83.008000,-7.085000,82.692000,-7.172000,82.388000,-7.292000,82.098000,-7.444000,81.826000,-7.626000,81.575000,-7.837000,81.349000,-8.072000,81.148000,-8.331000,80.977000,-8.610000,80.837000,-8.906000,80.729000,-9.215000,80.654000,-9.533000,80.615000,-9.858000,
80.610000,-10.185000,80.723000,-13.065000,80.723000,-15.145000,55.908000,-15.145000,55.722000,-15.127000,55.544000,-15.073000,55.379000,-14.985000,55.235000,-14.866000,55.116000,-14.722000,55.028000,-14.557000,54.974000,-14.379000,54.956000,-14.193000,54.937000,-14.007000,54.883000,-13.828000,54.795000,-13.664000,54.677000,-13.519000,54.532000,-13.401000,54.368000,-13.313000,54.189000,-13.259000,54.003000,-13.240000,
48.868000,-13.240000,48.868000,-2.512000,48.850000,-2.251000,48.799000,-1.995000,48.715000,-1.747000,48.600000,-1.512000,48.454000,-1.295000,48.282000,-1.098000,48.085000,-0.925000,47.868000,-0.780000,47.633000,-0.664000,47.385000,-0.580000,47.129000,-0.529000,46.868000,-0.512000,42.470000,-0.512000,42.209000,-0.529000,41.952000,-0.580000,41.704000,-0.664000,41.470000,-0.780000,41.252000,-0.925000,
41.055000,-1.098000,40.883000,-1.295000,40.738000,-1.512000,40.622000,-1.747000,40.538000,-1.995000,40.487000,-2.251000,40.470000,-2.512000,40.470000,-13.240000,35.588000,-13.240000,35.402000,-13.259000,35.224000,-13.313000,35.059000,-13.401000,34.915000,-13.519000,34.796000,-13.664000,34.708000,-13.828000,34.654000,-14.007000,34.636000,-14.193000,34.617000,-14.379000,34.563000,-14.557000,34.475000,-14.722000,
34.357000,-14.866000,34.212000,-14.985000,34.048000,-15.073000,33.869000,-15.127000,33.683000,-15.145000,6.582000,-15.145000,6.582000,-13.065000,6.695000,-10.185000,6.690000,-9.858000,6.651000,-9.533000,6.576000,-9.214000,6.468000,-8.905000,6.328000,-8.610000,6.157000,-8.331000,5.956000,-8.072000,5.730000,-7.836000,5.479000,-7.626000,5.207000,-7.444000,4.917000,-7.292000,4.613000,-7.172000,
4.297000,-7.085000,3.974000,-7.033000,3.648000,-7.015000,-1.432000,-7.015000,-1.432000,0.806000,2.521000,0.806000,2.521000,0.274000,2.503000,0.141000,2.450000,0.017000,2.366000,-0.088000,2.257000,-0.167000,2.130000,-0.214000,1.872000,-0.290000,1.625000,-0.401000,1.397000,-0.544000,1.189000,-0.716000,1.006000,-0.915000,0.852000,-1.137000,0.729000,-1.377000,0.640000,-1.632000,
0.586000,-1.896000,0.568000,-2.165000,0.568000,-2.965000,0.585000,-3.226000,0.636000,-3.483000,0.720000,-3.731000,0.836000,-3.965000,0.981000,-4.183000,1.153000,-4.380000,1.350000,-4.552000,1.568000,-4.697000,1.802000,-4.813000,2.050000,-4.897000,2.307000,-4.948000,2.568000,-4.965000,3.648000,-4.965000,4.079000,-4.984000,4.507000,-5.038000,4.929000,-5.129000,5.341000,-5.255000,
5.742000,-5.415000,6.128000,-5.609000,6.495000,-5.835000,6.843000,-6.090000,7.168000,-6.375000,7.467000,-6.686000,7.739000,-7.021000,7.982000,-7.377000,8.193000,-7.753000,8.373000,-8.146000,9.978000,-12.098000,10.093000,-12.335000,10.238000,-12.554000,10.410000,-12.753000,10.607000,-12.927000,10.826000,-13.074000,11.061000,-13.191000,11.310000,-13.276000,11.568000,-13.328000,11.831000,-13.345000,
31.588000,-13.345000,31.849000,-13.328000,32.106000,-13.277000,32.353000,-13.193000,32.588000,-13.077000,32.806000,-12.932000,33.002000,-12.760000,33.175000,-12.563000,33.320000,-12.345000,33.436000,-12.111000,33.520000,-11.863000,33.571000,-11.606000,33.588000,-11.345000,33.588000,-11.240000,36.470000,-11.240000,36.731000,-11.223000,36.987000,-11.172000,37.235000,-11.088000,37.470000,-10.972000,37.687000,-10.827000,
37.884000,-10.655000,38.056000,-10.458000,38.202000,-10.240000,38.317000,-10.006000,38.401000,-9.758000,38.452000,-9.501000,38.470000,-9.240000,38.470000,-1.017000,38.451000,-0.744000,38.395000,-0.476000,38.303000,-0.218000,38.177000,0.025000,38.019000,0.248000,37.832000,0.448000,37.619000,0.620000,37.385000,0.761000,37.133000,0.870000,36.870000,0.943000,36.741000,0.988000,36.629000,1.066000,
36.543000,1.172000,36.488000,1.297000,36.470000,1.433000,36.470000,5.538000,36.490000,5.736000,36.549000,5.927000,36.644000,6.102000,36.773000,6.255000,36.929000,6.379000,37.107000,6.470000,37.299000,6.523000,37.499000,6.537000,37.697000,6.512000,37.697000,6.512000,$1*%
%AMFreePoly15*
4,1,260,16.714000,-0.156000,16.696000,-0.342000,16.642000,-0.521000,16.554000,-0.685000,16.435000,-0.830000,16.291000,-0.948000,16.126000,-1.036000,15.948000,-1.090000,15.762000,-1.109000,15.576000,-1.127000,15.397000,-1.181000,15.233000,-1.269000,15.088000,-1.388000,14.970000,-1.532000,14.882000,-1.697000,14.828000,-1.875000,14.809000,-2.061000,14.809000,-20.451000,14.828000,-20.636000,14.882000,-20.815000,
14.970000,-20.980000,15.088000,-21.124000,15.233000,-21.243000,15.397000,-21.331000,15.576000,-21.385000,15.948000,-21.421000,16.126000,-21.476000,16.291000,-21.564000,16.435000,-21.682000,16.554000,-21.826000,16.642000,-21.991000,16.696000,-22.170000,16.714000,-22.356000,16.714000,-36.846000,12.749000,-36.846000,12.749000,-36.418000,12.768000,-36.284000,12.821000,-36.160000,12.906000,-36.055000,13.016000,-35.976000,
13.142000,-35.930000,13.402000,-35.854000,13.650000,-35.744000,13.880000,-35.601000,14.089000,-35.429000,14.273000,-35.230000,14.428000,-35.008000,14.551000,-34.767000,14.641000,-34.512000,14.696000,-34.246000,14.714000,-33.976000,14.714000,-26.773000,14.697000,-26.512000,14.646000,-26.256000,14.562000,-26.008000,14.446000,-25.773000,14.301000,-25.556000,14.129000,-25.359000,13.932000,-25.187000,13.714000,-25.041000,
13.480000,-24.926000,13.232000,-24.842000,12.975000,-24.790000,12.714000,-24.773000,-6.205000,-24.773000,-6.466000,-24.790000,-6.723000,-24.842000,-6.971000,-24.926000,-7.205000,-25.041000,-7.423000,-25.187000,-7.620000,-25.359000,-7.792000,-25.556000,-7.937000,-25.773000,-8.053000,-26.008000,-8.137000,-26.256000,-8.188000,-26.512000,-8.205000,-26.773000,-8.205000,-29.099000,-8.223000,-29.348000,-8.276000,-29.592000,
-8.364000,-29.826000,-8.483000,-30.045000,-8.633000,-30.245000,-8.809000,-30.422000,-9.009000,-30.571000,-9.228000,-30.691000,-9.462000,-30.778000,-9.706000,-30.831000,-9.955000,-30.849000,-10.928000,-30.849000,-11.189000,-30.866000,-11.445000,-30.917000,-11.693000,-31.001000,-11.928000,-31.117000,-12.145000,-31.262000,-12.342000,-31.435000,-12.514000,-31.632000,-12.660000,-31.849000,-12.775000,-32.084000,-12.859000,-32.332000,
-12.910000,-32.588000,-12.928000,-32.849000,-12.928000,-33.190000,-12.945000,-33.320000,-12.995000,-33.440000,-13.074000,-33.544000,-13.178000,-33.623000,-13.298000,-33.673000,-13.428000,-33.690000,-14.428000,-33.690000,-14.557000,-33.673000,-14.678000,-33.623000,-14.781000,-33.544000,-14.861000,-33.440000,-14.911000,-33.320000,-14.928000,-33.190000,-14.928000,-28.599000,-14.911000,-28.470000,-14.861000,-28.349000,-14.781000,-28.246000,
-14.678000,-28.166000,-14.557000,-28.116000,-14.428000,-28.099000,-12.456000,-28.099000,-12.195000,-28.082000,-11.938000,-28.031000,-11.690000,-27.947000,-11.456000,-27.831000,-11.238000,-27.686000,-11.041000,-27.513000,-10.869000,-27.317000,-10.724000,-27.099000,-10.608000,-26.865000,-10.524000,-26.617000,-10.473000,-26.360000,-10.456000,-26.099000,-10.456000,-23.273000,-10.439000,-23.144000,-10.389000,-23.023000,-10.309000,-22.920000,
-10.206000,-22.840000,-10.085000,-22.790000,-9.956000,-22.773000,-5.328000,-22.773000,-5.067000,-22.756000,-4.810000,-22.705000,-4.562000,-22.621000,-4.328000,-22.505000,-4.110000,-22.360000,-3.913000,-22.188000,-3.741000,-21.991000,-3.596000,-21.773000,-3.480000,-21.539000,-3.396000,-21.291000,-3.345000,-21.034000,-3.328000,-20.773000,-3.328000,-4.130000,-3.343000,-3.886000,-3.387000,-3.645000,-3.461000,-3.412000,
-3.563000,-3.189000,-3.652000,-2.995000,-3.716000,-2.790000,-3.755000,-2.580000,-3.768000,-2.366000,-3.768000,0.793000,-3.751000,0.923000,-3.701000,1.043000,-3.622000,1.147000,-3.518000,1.226000,-3.398000,1.276000,-3.268000,1.293000,2.309000,1.293000,2.309000,-0.707000,2.035000,-0.726000,1.765000,-0.782000,1.506000,-0.875000,1.262000,-1.003000,1.038000,-1.163000,0.838000,-1.352000,
0.666000,-1.567000,-0.971000,-3.926000,-1.097000,-4.133000,-1.197000,-4.354000,-1.269000,-4.586000,-1.313000,-4.824000,-1.328000,-5.066000,-1.328000,-20.773000,-1.310000,-21.034000,-1.259000,-21.291000,-1.175000,-21.539000,-1.060000,-21.773000,-0.914000,-21.991000,-0.742000,-22.188000,-0.545000,-22.360000,-0.328000,-22.505000,-0.093000,-22.621000,0.155000,-22.705000,0.411000,-22.756000,0.672000,-22.773000,
10.809000,-22.773000,11.070000,-22.756000,11.327000,-22.705000,11.575000,-22.621000,11.809000,-22.505000,12.027000,-22.360000,12.224000,-22.188000,12.396000,-21.991000,12.541000,-21.773000,12.657000,-21.539000,12.741000,-21.291000,12.792000,-21.034000,12.809000,-20.773000,12.809000,-2.707000,12.792000,-2.446000,12.741000,-2.189000,12.657000,-1.941000,12.541000,-1.707000,12.396000,-1.489000,12.224000,-1.293000,
12.027000,-1.120000,11.809000,-0.975000,11.575000,-0.859000,11.327000,-0.775000,11.070000,-0.724000,10.809000,-0.707000,2.409000,-0.707000,2.409000,1.293000,11.658000,1.293000,11.913000,1.310000,12.165000,1.359000,12.408000,1.439000,12.639000,1.550000,12.854000,1.690000,13.910000,2.479000,14.112000,2.651000,14.289000,2.849000,14.439000,3.068000,14.558000,3.306000,14.644000,3.557000,
14.697000,3.817000,14.714000,4.082000,14.714000,20.314000,14.697000,20.575000,14.646000,20.831000,14.562000,21.079000,14.446000,21.314000,14.301000,21.531000,14.129000,21.728000,13.932000,21.901000,13.714000,22.046000,13.480000,22.162000,13.232000,22.246000,12.975000,22.297000,12.714000,22.314000,6.044000,22.314000,6.044000,27.998000,12.894000,29.156000,16.714000,29.156000,16.714000,-0.156000,
16.714000,-0.156000,$1*%
G04 Aperture macros list end*
%ADD10C,0.600000*%
%ADD11R,1.524000X1.524000*%
%ADD12C,1.524000*%
%ADD13C,5.600000*%
%ADD14RoundRect,0.243750X-0.243750X-0.456250X0.243750X-0.456250X0.243750X0.456250X-0.243750X0.456250X0*%
%ADD15RoundRect,0.243750X0.456250X-0.243750X0.456250X0.243750X-0.456250X0.243750X-0.456250X-0.243750X0*%
%ADD16R,2.350000X5.100000*%
%ADD17RoundRect,0.218750X0.256250X-0.218750X0.256250X0.218750X-0.256250X0.218750X-0.256250X-0.218750X0*%
%ADD18RoundRect,0.218750X-0.256250X0.218750X-0.256250X-0.218750X0.256250X-0.218750X0.256250X0.218750X0*%
%ADD19R,2.600000X1.100000*%
%ADD20FreePoly0,180.000000*%
%ADD21FreePoly1,180.000000*%
%ADD22RoundRect,0.147500X-0.147500X-0.172500X0.147500X-0.172500X0.147500X0.172500X-0.147500X0.172500X0*%
%ADD23RoundRect,0.147500X0.017678X-0.226274X0.226274X-0.017678X-0.017678X0.226274X-0.226274X0.017678X0*%
%ADD24FreePoly0,0.000000*%
%ADD25FreePoly1,0.000000*%
%ADD26RoundRect,0.147500X0.172500X-0.147500X0.172500X0.147500X-0.172500X0.147500X-0.172500X-0.147500X0*%
%ADD27RotRect,0.350000X1.000000X45.000000*%
%ADD28RotRect,0.350000X1.000000X315.000000*%
%ADD29RoundRect,0.147500X-0.017678X0.226274X-0.226274X0.017678X0.017678X-0.226274X0.226274X-0.017678X0*%
%ADD30FreePoly2,270.000000*%
%ADD31R,0.475000X0.250000*%
%ADD32FreePoly3,90.000000*%
%ADD33FreePoly2,0.000000*%
%ADD34R,0.250000X0.475000*%
%ADD35FreePoly3,180.000000*%
%ADD36FreePoly2,90.000000*%
%ADD37FreePoly3,270.000000*%
%ADD38FreePoly2,180.000000*%
%ADD39FreePoly3,0.000000*%
%ADD40FreePoly4,180.000000*%
%ADD41RoundRect,0.062500X-0.062500X0.325000X-0.062500X-0.325000X0.062500X-0.325000X0.062500X0.325000X0*%
%ADD42R,1.600000X0.700000*%
%ADD43RoundRect,0.147500X0.147500X0.172500X-0.147500X0.172500X-0.147500X-0.172500X0.147500X-0.172500X0*%
%ADD44C,0.050000*%
%ADD45R,0.750000X0.400000*%
%ADD46RoundRect,0.147500X-0.172500X0.147500X-0.172500X-0.147500X0.172500X-0.147500X0.172500X0.147500X0*%
%ADD47RoundRect,0.075000X0.075000X-0.725000X0.075000X0.725000X-0.075000X0.725000X-0.075000X-0.725000X0*%
%ADD48RoundRect,0.075000X0.725000X-0.075000X0.725000X0.075000X-0.725000X0.075000X-0.725000X-0.075000X0*%
%ADD49R,2.370000X2.430000*%
%ADD50R,1.060000X0.650000*%
%ADD51R,0.330000X0.410000*%
%ADD52RoundRect,0.140000X-0.140000X-0.170000X0.140000X-0.170000X0.140000X0.170000X-0.140000X0.170000X0*%
%ADD53RoundRect,0.218750X0.218750X0.256250X-0.218750X0.256250X-0.218750X-0.256250X0.218750X-0.256250X0*%
%ADD54RoundRect,0.225000X-0.250000X0.225000X-0.250000X-0.225000X0.250000X-0.225000X0.250000X0.225000X0*%
%ADD55RotRect,0.750000X0.400000X135.000000*%
%ADD56RotRect,0.750000X0.400000X315.000000*%
%ADD57RoundRect,0.062500X-0.350000X-0.062500X0.350000X-0.062500X0.350000X0.062500X-0.350000X0.062500X0*%
%ADD58RoundRect,0.062500X-0.062500X-0.350000X0.062500X-0.350000X0.062500X0.350000X-0.062500X0.350000X0*%
%ADD59RoundRect,0.250001X-1.099999X-1.099999X1.099999X-1.099999X1.099999X1.099999X-1.099999X1.099999X0*%
%ADD60FreePoly5,180.000000*%
%ADD61RoundRect,0.050000X0.225000X0.050000X-0.225000X0.050000X-0.225000X-0.050000X0.225000X-0.050000X0*%
%ADD62FreePoly6,180.000000*%
%ADD63FreePoly7,180.000000*%
%ADD64RoundRect,0.050000X0.050000X0.225000X-0.050000X0.225000X-0.050000X-0.225000X0.050000X-0.225000X0*%
%ADD65FreePoly8,180.000000*%
%ADD66FreePoly9,180.000000*%
%ADD67FreePoly10,180.000000*%
%ADD68FreePoly11,180.000000*%
%ADD69FreePoly12,180.000000*%
%ADD70R,0.740000X0.740000*%
%ADD71RotRect,0.350000X1.000000X135.000000*%
%ADD72RoundRect,0.062500X0.062500X-0.375000X0.062500X0.375000X-0.062500X0.375000X-0.062500X-0.375000X0*%
%ADD73RoundRect,0.062500X0.375000X-0.062500X0.375000X0.062500X-0.375000X0.062500X-0.375000X-0.062500X0*%
%ADD74RoundRect,0.250001X2.549999X-2.549999X2.549999X2.549999X-2.549999X2.549999X-2.549999X-2.549999X0*%
%ADD75RoundRect,0.100000X-0.275000X0.250000X-0.275000X-0.250000X0.275000X-0.250000X0.275000X0.250000X0*%
%ADD76RoundRect,0.250001X0.899999X-0.899999X0.899999X0.899999X-0.899999X0.899999X-0.899999X-0.899999X0*%
%ADD77RoundRect,0.140000X-0.170000X0.140000X-0.170000X-0.140000X0.170000X-0.140000X0.170000X0.140000X0*%
%ADD78RoundRect,0.140000X0.140000X0.170000X-0.140000X0.170000X-0.140000X-0.170000X0.140000X-0.170000X0*%
%ADD79RoundRect,0.135000X-0.185000X0.135000X-0.185000X-0.135000X0.185000X-0.135000X0.185000X0.135000X0*%
%ADD80RoundRect,0.135000X0.185000X-0.135000X0.185000X0.135000X-0.185000X0.135000X-0.185000X-0.135000X0*%
%ADD81RoundRect,0.135000X0.135000X0.185000X-0.135000X0.185000X-0.135000X-0.185000X0.135000X-0.185000X0*%
%ADD82R,0.500000X0.400000*%
%ADD83R,0.500000X0.300000*%
%ADD84RoundRect,0.075000X-0.350000X-0.075000X0.350000X-0.075000X0.350000X0.075000X-0.350000X0.075000X0*%
%ADD85RoundRect,0.075000X-0.075000X-0.350000X0.075000X-0.350000X0.075000X0.350000X-0.075000X0.350000X0*%
%ADD86RoundRect,0.250001X-0.799999X-0.799999X0.799999X-0.799999X0.799999X0.799999X-0.799999X0.799999X0*%
%ADD87RoundRect,0.250000X0.450000X-0.262500X0.450000X0.262500X-0.450000X0.262500X-0.450000X-0.262500X0*%
%ADD88R,0.300000X0.350000*%
%ADD89RoundRect,0.250000X-0.475000X0.250000X-0.475000X-0.250000X0.475000X-0.250000X0.475000X0.250000X0*%
%ADD90C,2.000000*%
%ADD91RoundRect,0.250000X-0.250000X-0.475000X0.250000X-0.475000X0.250000X0.475000X-0.250000X0.475000X0*%
%ADD92RoundRect,0.140000X0.170000X-0.140000X0.170000X0.140000X-0.170000X0.140000X-0.170000X-0.140000X0*%
%ADD93R,0.410000X0.720000*%
%ADD94R,1.730000X3.990000*%
%ADD95R,0.470000X0.410000*%
%ADD96R,0.585000X0.510000*%
%ADD97C,3.500000*%
%ADD98R,0.600000X0.770000*%
%ADD99R,0.770000X0.600000*%
%ADD100R,2.875000X2.875000*%
%ADD101RoundRect,0.135000X-0.135000X-0.185000X0.135000X-0.185000X0.135000X0.185000X-0.135000X0.185000X0*%
%ADD102R,3.400000X1.800000*%
%ADD103RoundRect,0.189500X0.758000X1.060500X-0.758000X1.060500X-0.758000X-1.060500X0.758000X-1.060500X0*%
%ADD104RoundRect,0.050000X0.275000X-0.050000X0.275000X0.050000X-0.275000X0.050000X-0.275000X-0.050000X0*%
%ADD105RoundRect,0.050000X0.450000X-0.050000X0.450000X0.050000X-0.450000X0.050000X-0.450000X-0.050000X0*%
%ADD106RoundRect,0.062500X0.062500X0.212500X-0.062500X0.212500X-0.062500X-0.212500X0.062500X-0.212500X0*%
%ADD107RoundRect,0.062500X-0.062500X-0.212500X0.062500X-0.212500X0.062500X0.212500X-0.062500X0.212500X0*%
%ADD108RoundRect,0.250000X0.250000X0.475000X-0.250000X0.475000X-0.250000X-0.475000X0.250000X-0.475000X0*%
%ADD109RoundRect,0.218750X-0.218750X-0.381250X0.218750X-0.381250X0.218750X0.381250X-0.218750X0.381250X0*%
%ADD110C,0.800000*%
%ADD111R,2.300000X0.750000*%
%ADD112R,2.300000X0.250000*%
%ADD113R,0.400000X0.500000*%
%ADD114R,0.300000X0.500000*%
%ADD115R,1.700000X0.810000*%
%ADD116R,1.050000X0.810000*%
%ADD117R,0.330000X0.270000*%
%ADD118RoundRect,0.250000X-0.575000X0.350000X-0.575000X-0.350000X0.575000X-0.350000X0.575000X0.350000X0*%
%ADD119O,1.650000X1.200000*%
%ADD120FreePoly13,0.000000*%
%ADD121FreePoly14,0.000000*%
%ADD122FreePoly15,0.000000*%
%ADD123RoundRect,0.093750X-0.106250X0.093750X-0.106250X-0.093750X0.106250X-0.093750X0.106250X0.093750X0*%
%ADD124R,1.600000X1.000000*%
%ADD125RoundRect,0.250000X0.575000X-0.350000X0.575000X0.350000X-0.575000X0.350000X-0.575000X-0.350000X0*%
%ADD126R,1.000000X0.350000*%
%ADD127R,0.350000X1.000000*%
%ADD128RoundRect,0.189500X-1.060500X0.758000X-1.060500X-0.758000X1.060500X-0.758000X1.060500X0.758000X0*%
%ADD129RoundRect,0.050000X-0.050000X-0.275000X0.050000X-0.275000X0.050000X0.275000X-0.050000X0.275000X0*%
%ADD130RoundRect,0.050000X-0.050000X-0.450000X0.050000X-0.450000X0.050000X0.450000X-0.050000X0.450000X0*%
%ADD131RoundRect,0.062500X0.212500X-0.062500X0.212500X0.062500X-0.212500X0.062500X-0.212500X-0.062500X0*%
%ADD132RoundRect,0.062500X-0.212500X0.062500X-0.212500X-0.062500X0.212500X-0.062500X0.212500X0.062500X0*%
%ADD133C,1.000000*%
G04 APERTURE END LIST*
D10*
X145032400Y-66217800D02*
G75*
G03*
X145032400Y-66217800I-100000J0D01*
G01*
X135685200Y-57861200D02*
G75*
G03*
X135685200Y-57861200I-100000J0D01*
G01*
X167105000Y-98552000D02*
G75*
G03*
X167105000Y-98552000I-100000J0D01*
G01*
X161745600Y-97790000D02*
G75*
G03*
X161745600Y-97790000I-100000J0D01*
G01*
X157097400Y-98577400D02*
G75*
G03*
X157097400Y-98577400I-100000J0D01*
G01*
X164819000Y-98628200D02*
G75*
G03*
X164819000Y-98628200I-100000J0D01*
G01*
X167486000Y-94818200D02*
G75*
G03*
X167486000Y-94818200I-100000J0D01*
G01*
X143813200Y-131381500D02*
G75*
G03*
X143813200Y-131381500I-100000J0D01*
G01*
X135837600Y-131597400D02*
G75*
G03*
X135837600Y-131597400I-100000J0D01*
G01*
X160920100Y-108826300D02*
G75*
G03*
X160920100Y-108826300I-100000J0D01*
G01*
X88352300Y-111582200D02*
G75*
G03*
X88352300Y-111582200I-100000J0D01*
G01*
X124737800Y-110058200D02*
G75*
G03*
X124737800Y-110058200I-100000J0D01*
G01*
X123721800Y-105791000D02*
G75*
G03*
X123721800Y-105791000I-100000J0D01*
G01*
X124433000Y-107391200D02*
G75*
G03*
X124433000Y-107391200I-100000J0D01*
G01*
X123239200Y-104622600D02*
G75*
G03*
X123239200Y-104622600I-100000J0D01*
G01*
X158100000Y-134260000D02*
G75*
G03*
X158100000Y-134260000I-100000J0D01*
G01*
X169606900Y-106197400D02*
G75*
G03*
X169606900Y-106197400I-100000J0D01*
G01*
X125296600Y-101930200D02*
G75*
G03*
X125296600Y-101930200I-100000J0D01*
G01*
X124458400Y-100990400D02*
G75*
G03*
X124458400Y-100990400I-100000J0D01*
G01*
X142873400Y-90017600D02*
G75*
G03*
X142873400Y-90017600I-100000J0D01*
G01*
X147369200Y-121285000D02*
G75*
G03*
X147369200Y-121285000I-100000J0D01*
G01*
X142340000Y-93040200D02*
G75*
G03*
X142340000Y-93040200I-100000J0D01*
G01*
X124737800Y-111328200D02*
G75*
G03*
X124737800Y-111328200I-100000J0D01*
G01*
X139368200Y-107213400D02*
G75*
G03*
X139368200Y-107213400I-100000J0D01*
G01*
X138961800Y-110032800D02*
G75*
G03*
X138961800Y-110032800I-100000J0D01*
G01*
X138961800Y-111328200D02*
G75*
G03*
X138961800Y-111328200I-100000J0D01*
G01*
X87425200Y-106451400D02*
G75*
G03*
X87425200Y-106451400I-100000J0D01*
G01*
X162558400Y-109728000D02*
G75*
G03*
X162558400Y-109728000I-100000J0D01*
G01*
X167308200Y-81089500D02*
G75*
G03*
X167308200Y-81089500I-100000J0D01*
G01*
X151143600Y-79603600D02*
G75*
G03*
X151143600Y-79603600I-100000J0D01*
G01*
X139825400Y-70180200D02*
G75*
G03*
X139825400Y-70180200I-100000J0D01*
G01*
X131748200Y-113258600D02*
G75*
G03*
X131748200Y-113258600I-100000J0D01*
G01*
D11*
X96519999Y-53974999D03*
D12*
X96520000Y-51435000D03*
X99060000Y-53975000D03*
X99060000Y-51435000D03*
X101600000Y-53975000D03*
X101600000Y-51435000D03*
X104140000Y-53975000D03*
X104140000Y-51435000D03*
X106680000Y-53975000D03*
X106680000Y-51435000D03*
X109220000Y-53975000D03*
X109220000Y-51435000D03*
X111760000Y-53975000D03*
X111760000Y-51435000D03*
X114300000Y-53975000D03*
X114300000Y-51435000D03*
X116840000Y-53975000D03*
X116840000Y-51435000D03*
X119380000Y-53975000D03*
X119380000Y-51435000D03*
X121920000Y-53975000D03*
X121920000Y-51435000D03*
X124460000Y-53975000D03*
X124460000Y-51435000D03*
X127000000Y-53975000D03*
X127000000Y-51435000D03*
X129540000Y-53975000D03*
X129540000Y-51435000D03*
X132080000Y-53975000D03*
X132080000Y-51435000D03*
X134620000Y-53975000D03*
X134620000Y-51435000D03*
X137160000Y-53975000D03*
X137160000Y-51435000D03*
X139700000Y-53975000D03*
X139700000Y-51435000D03*
X142240000Y-53975000D03*
X142240000Y-51435000D03*
X144780000Y-53975000D03*
X144780000Y-51435000D03*
X147320000Y-53975000D03*
X147320000Y-51435000D03*
X149860000Y-53975000D03*
X149860000Y-51435000D03*
X152400000Y-53975000D03*
X152400000Y-51435000D03*
X154940000Y-53975000D03*
X154940000Y-51435000D03*
X157480000Y-53975000D03*
X157480000Y-51435000D03*
X160020000Y-53975000D03*
X160020000Y-51435000D03*
D11*
X96519999Y-48894999D03*
D12*
X96520000Y-46355000D03*
X99060000Y-48895000D03*
X99060000Y-46355000D03*
X101600000Y-48895000D03*
X101600000Y-46355000D03*
X104140000Y-48895000D03*
X104140000Y-46355000D03*
X106680000Y-48895000D03*
X106680000Y-46355000D03*
X109220000Y-48895000D03*
X109220000Y-46355000D03*
X111760000Y-48895000D03*
X111760000Y-46355000D03*
X114300000Y-48895000D03*
X114300000Y-46355000D03*
X116840000Y-48895000D03*
X116840000Y-46355000D03*
X119380000Y-48895000D03*
X119380000Y-46355000D03*
X121920000Y-48895000D03*
X121920000Y-46355000D03*
X124460000Y-48895000D03*
X124460000Y-46355000D03*
X127000000Y-48895000D03*
X127000000Y-46355000D03*
X129540000Y-48895000D03*
X129540000Y-46355000D03*
X132080000Y-48895000D03*
X132080000Y-46355000D03*
X134620000Y-48895000D03*
X134620000Y-46355000D03*
X137160000Y-48895000D03*
X137160000Y-46355000D03*
X139700000Y-48895000D03*
X139700000Y-46355000D03*
X142240000Y-48895000D03*
X142240000Y-46355000D03*
X144780000Y-48895000D03*
X144780000Y-46355000D03*
X147320000Y-48895000D03*
X147320000Y-46355000D03*
X149860000Y-48895000D03*
X149860000Y-46355000D03*
X152400000Y-48895000D03*
X152400000Y-46355000D03*
X154940000Y-48895000D03*
X154940000Y-46355000D03*
X157480000Y-48895000D03*
X157480000Y-46355000D03*
X160020000Y-48895000D03*
X160020000Y-46355000D03*
D13*
X165100000Y-46355000D03*
X167640000Y-132080000D03*
X87630000Y-132080000D03*
D14*
X144728000Y-64531700D03*
X146603000Y-64531700D03*
X144728000Y-62631700D03*
X146603000Y-62631700D03*
X145341100Y-56813700D03*
X147216100Y-56813700D03*
D15*
X138755500Y-65669200D03*
X138755500Y-63794200D03*
X136804400Y-65669200D03*
X136804400Y-63794200D03*
D16*
X142430499Y-59731699D03*
X138280499Y-59731699D03*
D17*
X148844000Y-62077700D03*
X148844000Y-60502700D03*
D18*
X150393400Y-60502800D03*
X150393400Y-62077800D03*
D13*
X91440000Y-46355000D03*
D19*
X164554999Y-118008399D03*
D20*
X164755000Y-119533400D03*
D21*
X164755000Y-116483400D03*
D22*
X147929600Y-116992400D03*
X148899600Y-116992400D03*
X145209400Y-114020600D03*
X146179400Y-114020600D03*
D23*
X147332653Y-113550700D03*
X148018547Y-112864806D03*
D15*
X138750000Y-73708500D03*
X138750000Y-71833500D03*
X140731200Y-73708500D03*
X140731200Y-71833500D03*
X163754500Y-97178000D03*
X163754500Y-95303000D03*
X165704500Y-97178000D03*
X165704500Y-95303000D03*
D19*
X90703399Y-118008399D03*
D24*
X90503400Y-116483400D03*
D25*
X90503400Y-119533400D03*
D22*
X88255900Y-109448800D03*
X89225900Y-109448800D03*
X156766400Y-112369600D03*
X157736400Y-112369600D03*
D26*
X149174200Y-111508400D03*
X149174200Y-110538400D03*
D27*
X159246322Y-115235983D03*
X158786703Y-115695603D03*
X158327083Y-116155222D03*
D28*
X158574571Y-117180527D03*
D27*
X159599876Y-117428015D03*
X160059495Y-116968395D03*
X160519115Y-116508776D03*
D28*
X160271627Y-115483471D03*
D29*
X161404347Y-118427453D03*
X160718453Y-119113347D03*
D26*
X155501340Y-119989600D03*
X155501340Y-119019600D03*
D30*
X158925100Y-119994300D03*
D31*
X158925099Y-119494299D03*
D32*
X158925100Y-118994300D03*
D33*
X158462600Y-118531800D03*
D34*
X157962599Y-118531799D03*
D35*
X157462600Y-118531800D03*
D36*
X157000100Y-118994300D03*
D31*
X157000099Y-119494299D03*
D37*
X157000100Y-119994300D03*
D38*
X157462600Y-120456800D03*
D34*
X157962599Y-120456799D03*
D39*
X158462600Y-120456800D03*
D40*
X157962600Y-119494300D03*
D22*
X160548600Y-128879600D03*
X161518600Y-128879600D03*
D41*
X160414400Y-125758100D03*
X159914400Y-125758100D03*
X159414400Y-125758100D03*
X158914400Y-125758100D03*
X158914400Y-127683100D03*
X159414400Y-127683100D03*
X159914400Y-127683100D03*
X160414400Y-127683100D03*
D42*
X159664399Y-126720599D03*
D26*
X162534600Y-127635000D03*
X162534600Y-126665000D03*
X161505900Y-127635000D03*
X161505900Y-126665000D03*
D22*
X88253500Y-108432800D03*
X89223500Y-108432800D03*
D43*
X89225900Y-110464800D03*
X88255900Y-110464800D03*
D44*
X144932400Y-66217800D03*
X135585200Y-57861200D03*
X167005000Y-98552000D03*
X161645600Y-97790000D03*
D43*
X94035000Y-118035000D03*
X93065000Y-118035000D03*
D29*
X141363700Y-114376200D03*
X140677806Y-115062094D03*
D15*
X156000000Y-97178000D03*
X156000000Y-95303000D03*
D45*
X144180199Y-114026899D03*
X144180199Y-113226899D03*
X142230199Y-113226899D03*
X142230199Y-114026899D03*
D43*
X145544400Y-116992400D03*
X144574400Y-116992400D03*
D26*
X146750900Y-117985400D03*
X146750900Y-117015400D03*
D22*
X96441400Y-103632000D03*
X97411400Y-103632000D03*
D18*
X148844000Y-56819700D03*
X148844000Y-58394700D03*
D44*
X156997400Y-98577400D03*
D46*
X160769300Y-113357800D03*
X160769300Y-114327800D03*
D22*
X159052400Y-112382300D03*
X160022400Y-112382300D03*
D46*
X157734000Y-113357800D03*
X157734000Y-114327800D03*
D47*
X126842000Y-96194000D03*
X127342000Y-96194000D03*
X127842000Y-96194000D03*
X128342000Y-96194000D03*
X128842000Y-96194000D03*
X129342000Y-96194000D03*
X129842000Y-96194000D03*
X130342000Y-96194000D03*
X130842000Y-96194000D03*
X131342000Y-96194000D03*
X131842000Y-96194000D03*
X132342000Y-96194000D03*
X132842000Y-96194000D03*
X133342000Y-96194000D03*
X133842000Y-96194000D03*
X134342000Y-96194000D03*
X134842000Y-96194000D03*
X135342000Y-96194000D03*
X135842000Y-96194000D03*
X136342000Y-96194000D03*
X136842000Y-96194000D03*
X137342000Y-96194000D03*
X137842000Y-96194000D03*
X138342000Y-96194000D03*
X138842000Y-96194000D03*
D48*
X140517000Y-94519000D03*
X140517000Y-94019000D03*
X140517000Y-93519000D03*
X140517000Y-93019000D03*
X140517000Y-92519000D03*
X140517000Y-92019000D03*
X140517000Y-91519000D03*
X140517000Y-91019000D03*
X140517000Y-90519000D03*
X140517000Y-90019000D03*
X140517000Y-89519000D03*
X140517000Y-89019000D03*
X140517000Y-88519000D03*
X140517000Y-88019000D03*
X140517000Y-87519000D03*
X140517000Y-87019000D03*
X140517000Y-86519000D03*
X140517000Y-86019000D03*
X140517000Y-85519000D03*
X140517000Y-85019000D03*
X140517000Y-84519000D03*
X140517000Y-84019000D03*
X140517000Y-83519000D03*
X140517000Y-83019000D03*
X140517000Y-82519000D03*
D47*
X138842000Y-80844000D03*
X138342000Y-80844000D03*
X137842000Y-80844000D03*
X137342000Y-80844000D03*
X136842000Y-80844000D03*
X136342000Y-80844000D03*
X135842000Y-80844000D03*
X135342000Y-80844000D03*
X134842000Y-80844000D03*
X134342000Y-80844000D03*
X133842000Y-80844000D03*
X133342000Y-80844000D03*
X132842000Y-80844000D03*
X132342000Y-80844000D03*
X131842000Y-80844000D03*
X131342000Y-80844000D03*
X130842000Y-80844000D03*
X130342000Y-80844000D03*
X129842000Y-80844000D03*
X129342000Y-80844000D03*
X128842000Y-80844000D03*
X128342000Y-80844000D03*
X127842000Y-80844000D03*
X127342000Y-80844000D03*
X126842000Y-80844000D03*
D48*
X125167000Y-82519000D03*
X125167000Y-83019000D03*
X125167000Y-83519000D03*
X125167000Y-84019000D03*
X125167000Y-84519000D03*
X125167000Y-85019000D03*
X125167000Y-85519000D03*
X125167000Y-86019000D03*
X125167000Y-86519000D03*
X125167000Y-87019000D03*
X125167000Y-87519000D03*
X125167000Y-88019000D03*
X125167000Y-88519000D03*
X125167000Y-89019000D03*
X125167000Y-89519000D03*
X125167000Y-90019000D03*
X125167000Y-90519000D03*
X125167000Y-91019000D03*
X125167000Y-91519000D03*
X125167000Y-92019000D03*
X125167000Y-92519000D03*
X125167000Y-93019000D03*
X125167000Y-93519000D03*
X125167000Y-94019000D03*
X125167000Y-94519000D03*
D49*
X157249999Y-105299999D03*
X163489999Y-105299999D03*
D43*
X148899600Y-118008400D03*
X147929600Y-118008400D03*
D26*
X146126200Y-122252600D03*
X146126200Y-121282600D03*
X167182800Y-97462200D03*
X167182800Y-96492200D03*
D43*
X161089200Y-98907600D03*
X160119200Y-98907600D03*
D50*
X144855499Y-58875699D03*
X144855499Y-59825699D03*
X144855499Y-60775699D03*
X147055499Y-60775699D03*
X147055499Y-59825699D03*
X147055499Y-58875699D03*
D44*
X164719000Y-98628200D03*
X167386000Y-94818200D03*
D51*
X107304999Y-105634999D03*
X107304999Y-106284999D03*
X107304999Y-106934999D03*
X108294999Y-106934999D03*
X108294999Y-106284999D03*
X108294999Y-105634999D03*
D52*
X144808000Y-131381500D03*
X145768000Y-131381500D03*
D44*
X143713200Y-131381500D03*
X135737600Y-131597400D03*
X160820100Y-108826300D03*
X88252300Y-111582200D03*
X124637800Y-110058200D03*
D46*
X129108200Y-112291000D03*
X129108200Y-113261000D03*
D44*
X123621800Y-105791000D03*
D26*
X130378200Y-113258600D03*
X130378200Y-112288600D03*
D44*
X124333000Y-107391200D03*
X123139200Y-104622600D03*
D26*
X159918400Y-130914000D03*
X159918400Y-129944000D03*
D44*
X158000000Y-134260000D03*
X169506900Y-106197400D03*
D53*
X169214900Y-111970600D03*
X167639900Y-111970600D03*
X168934900Y-107570600D03*
X167359900Y-107570600D03*
D44*
X125196600Y-101930200D03*
X124358400Y-100990400D03*
X142773400Y-90017600D03*
D46*
X155130500Y-123088400D03*
X155130500Y-124058400D03*
D22*
X154137500Y-121996200D03*
X155107500Y-121996200D03*
X154137500Y-125082300D03*
X155107500Y-125082300D03*
D46*
X154114500Y-123088400D03*
X154114500Y-124058400D03*
D43*
X155107500Y-120929400D03*
X154137500Y-120929400D03*
D54*
X149110700Y-125209000D03*
X149110700Y-126759000D03*
D44*
X147269200Y-121285000D03*
X142240000Y-93040200D03*
D55*
X142392585Y-131109171D03*
X142958271Y-130543485D03*
X141579413Y-129164627D03*
D56*
X141013727Y-129730313D03*
D57*
X151472200Y-110882300D03*
X151472200Y-111382300D03*
X151472200Y-111882300D03*
X151472200Y-112382300D03*
X151472200Y-112882300D03*
X151472200Y-113382300D03*
D58*
X152184700Y-114094800D03*
X152684700Y-114094800D03*
X153184700Y-114094800D03*
X153684700Y-114094800D03*
X154184700Y-114094800D03*
X154684700Y-114094800D03*
D57*
X155397200Y-113382300D03*
X155397200Y-112882300D03*
X155397200Y-112382300D03*
X155397200Y-111882300D03*
X155397200Y-111382300D03*
X155397200Y-110882300D03*
D58*
X154684700Y-110169800D03*
X154184700Y-110169800D03*
X153684700Y-110169800D03*
X153184700Y-110169800D03*
X152684700Y-110169800D03*
X152184700Y-110169800D03*
D59*
X153434700Y-112132300D03*
D26*
X153810000Y-106815000D03*
X153810000Y-105845000D03*
D22*
X150800000Y-108750100D03*
X151770000Y-108750100D03*
X158035000Y-109040000D03*
X159005000Y-109040000D03*
X158035000Y-108040000D03*
X159005000Y-108040000D03*
D43*
X159004000Y-110070900D03*
X158034000Y-110070900D03*
D26*
X153810000Y-108758100D03*
X153810000Y-107788100D03*
X150800000Y-107711100D03*
X150800000Y-106741100D03*
D46*
X152768600Y-105845000D03*
X152768600Y-106815000D03*
D26*
X150800000Y-105780700D03*
X150800000Y-104810700D03*
D29*
X140652547Y-113677653D03*
X139966653Y-114363547D03*
D60*
X138617080Y-116375320D03*
D61*
X138617080Y-115975320D03*
X138617080Y-115575320D03*
D62*
X138617080Y-115175320D03*
D63*
X138142080Y-114900320D03*
D64*
X137742080Y-114900320D03*
D65*
X137342080Y-114900320D03*
D66*
X136867080Y-115175320D03*
D61*
X136867080Y-115575320D03*
X136867080Y-115975320D03*
D67*
X136867080Y-116375320D03*
D68*
X137342080Y-116650320D03*
D64*
X137742080Y-116650320D03*
D69*
X138142080Y-116650320D03*
D70*
X137742079Y-115775319D03*
D46*
X132918200Y-112288600D03*
X132918200Y-113258600D03*
X134188200Y-112291000D03*
X134188200Y-113261000D03*
D71*
X158161983Y-122630176D03*
X158621603Y-123089795D03*
X159081222Y-123549415D03*
D27*
X160106527Y-123301927D03*
D71*
X160354015Y-122276622D03*
X159894395Y-121817003D03*
X159434776Y-121357383D03*
D27*
X158409471Y-121604871D03*
D44*
X124637800Y-111328200D03*
D22*
X125727600Y-108712000D03*
X126697600Y-108712000D03*
D26*
X138125000Y-107210000D03*
X138125000Y-106240000D03*
D43*
X137873600Y-108200000D03*
X136903600Y-108200000D03*
D44*
X139268200Y-107213400D03*
X138861800Y-110032800D03*
D22*
X139443600Y-102412800D03*
X140413600Y-102412800D03*
D72*
X128910900Y-110092100D03*
X129410900Y-110092100D03*
X129910900Y-110092100D03*
X130410900Y-110092100D03*
X130910900Y-110092100D03*
X131410900Y-110092100D03*
X131910900Y-110092100D03*
X132410900Y-110092100D03*
X132910900Y-110092100D03*
X133410900Y-110092100D03*
X133910900Y-110092100D03*
X134410900Y-110092100D03*
D73*
X135098400Y-109404600D03*
X135098400Y-108904600D03*
X135098400Y-108404600D03*
X135098400Y-107904600D03*
X135098400Y-107404600D03*
X135098400Y-106904600D03*
X135098400Y-106404600D03*
X135098400Y-105904600D03*
X135098400Y-105404600D03*
X135098400Y-104904600D03*
X135098400Y-104404600D03*
X135098400Y-103904600D03*
D72*
X134410900Y-103217100D03*
X133910900Y-103217100D03*
X133410900Y-103217100D03*
X132910900Y-103217100D03*
X132410900Y-103217100D03*
X131910900Y-103217100D03*
X131410900Y-103217100D03*
X130910900Y-103217100D03*
X130410900Y-103217100D03*
X129910900Y-103217100D03*
X129410900Y-103217100D03*
X128910900Y-103217100D03*
D73*
X128223400Y-103904600D03*
X128223400Y-104404600D03*
X128223400Y-104904600D03*
X128223400Y-105404600D03*
X128223400Y-105904600D03*
X128223400Y-106404600D03*
X128223400Y-106904600D03*
X128223400Y-107404600D03*
X128223400Y-107904600D03*
X128223400Y-108404600D03*
X128223400Y-108904600D03*
X128223400Y-109404600D03*
D74*
X131660900Y-106654600D03*
D26*
X137100000Y-107210000D03*
X137100000Y-106240000D03*
X140385800Y-107215800D03*
X140385800Y-106245800D03*
D43*
X137391000Y-103378000D03*
X136421000Y-103378000D03*
D75*
X139453600Y-103643200D03*
X139453600Y-105043200D03*
X140403600Y-105043200D03*
X140403600Y-103643200D03*
D43*
X137873600Y-105250000D03*
X136903600Y-105250000D03*
D22*
X136903600Y-109194600D03*
X137873600Y-109194600D03*
D43*
X160886000Y-124510800D03*
X159916000Y-124510800D03*
X137541000Y-126098300D03*
X136571000Y-126098300D03*
X145112600Y-121250000D03*
X144142600Y-121250000D03*
D46*
X140157200Y-118638600D03*
X140157200Y-119608600D03*
D22*
X136550400Y-121970800D03*
X137520400Y-121970800D03*
D43*
X137541000Y-127139700D03*
X136571000Y-127139700D03*
D46*
X140195300Y-127048400D03*
X140195300Y-128018400D03*
D43*
X145125300Y-124904500D03*
X144155300Y-124904500D03*
D22*
X144574400Y-118008400D03*
X145544400Y-118008400D03*
D46*
X135557400Y-126134000D03*
X135557400Y-127104000D03*
D72*
X139449800Y-125759000D03*
X139949800Y-125759000D03*
X140449800Y-125759000D03*
X140949800Y-125759000D03*
X141449800Y-125759000D03*
X141949800Y-125759000D03*
D73*
X142637300Y-125071500D03*
X142637300Y-124571500D03*
X142637300Y-124071500D03*
X142637300Y-123571500D03*
X142637300Y-123071500D03*
X142637300Y-122571500D03*
D72*
X141949800Y-121884000D03*
X141449800Y-121884000D03*
X140949800Y-121884000D03*
X140449800Y-121884000D03*
X139949800Y-121884000D03*
X139449800Y-121884000D03*
D73*
X138762300Y-122571500D03*
X138762300Y-123071500D03*
X138762300Y-123571500D03*
X138762300Y-124071500D03*
X138762300Y-124571500D03*
X138762300Y-125071500D03*
D76*
X140699800Y-123821500D03*
D26*
X135559800Y-120517780D03*
X135559800Y-119547780D03*
D22*
X135519300Y-124622560D03*
X136489300Y-124622560D03*
D26*
X141224000Y-119608600D03*
X141224000Y-118638600D03*
D22*
X137614800Y-119524780D03*
X138584800Y-119524780D03*
D43*
X138584800Y-120540780D03*
X137614800Y-120540780D03*
X145125300Y-125920500D03*
X144155300Y-125920500D03*
X145125300Y-123888500D03*
X144155300Y-123888500D03*
X137520400Y-122986800D03*
X136550400Y-122986800D03*
D46*
X135562200Y-121993800D03*
X135562200Y-122963800D03*
D26*
X141211300Y-128018400D03*
X141211300Y-127048400D03*
X136575800Y-120517780D03*
X136575800Y-119547780D03*
D43*
X145110700Y-122250000D03*
X144140700Y-122250000D03*
D44*
X138861800Y-111328200D03*
X87325200Y-106451400D03*
X162458400Y-109728000D03*
D22*
X149171800Y-112610900D03*
X150141800Y-112610900D03*
X144142600Y-128066800D03*
X145112600Y-128066800D03*
X144140200Y-127025400D03*
X145110200Y-127025400D03*
D26*
X146113500Y-128031100D03*
X146113500Y-127061100D03*
D46*
X156756100Y-110068500D03*
X156756100Y-111038500D03*
D17*
X155170000Y-108507500D03*
X155170000Y-106932500D03*
D77*
X158292800Y-73002200D03*
X158292800Y-73962200D03*
D78*
X154988200Y-63800000D03*
X154028200Y-63800000D03*
D79*
X86309200Y-67892200D03*
X86309200Y-68912200D03*
D80*
X86309200Y-73408000D03*
X86309200Y-72388000D03*
X86309200Y-70918800D03*
X86309200Y-69898800D03*
D81*
X135688800Y-100711000D03*
X134668800Y-100711000D03*
X133682200Y-100711000D03*
X132662200Y-100711000D03*
D79*
X125196600Y-102995000D03*
X125196600Y-104015000D03*
D82*
X125610999Y-105904599D03*
D83*
X125610999Y-106404599D03*
X125610999Y-106904599D03*
D82*
X125610999Y-107404599D03*
X126610999Y-107404599D03*
D83*
X126610999Y-106904599D03*
X126610999Y-106404599D03*
D82*
X126610999Y-105904599D03*
D44*
X167208200Y-81089500D03*
D77*
X164225000Y-83655000D03*
X164225000Y-84615000D03*
D84*
X148646600Y-120691000D03*
X148646600Y-121341000D03*
X148646600Y-121991000D03*
X148646600Y-122641000D03*
D85*
X149621600Y-123616000D03*
X150271600Y-123616000D03*
X150921600Y-123616000D03*
X151571600Y-123616000D03*
D84*
X152546600Y-122641000D03*
X152546600Y-121991000D03*
X152546600Y-121341000D03*
X152546600Y-120691000D03*
D85*
X151571600Y-119716000D03*
X150921600Y-119716000D03*
X150271600Y-119716000D03*
X149621600Y-119716000D03*
D86*
X150596600Y-121666000D03*
D87*
X157992700Y-97153000D03*
X157992700Y-95328000D03*
D88*
X103289999Y-103629999D03*
X102789999Y-103629999D03*
X103289999Y-102909999D03*
X102789999Y-102909999D03*
D89*
X144900000Y-73960000D03*
X144900000Y-75860000D03*
D90*
X169250000Y-45160000D03*
D46*
X151350000Y-82992500D03*
X151350000Y-83962500D03*
D91*
X97119400Y-112623600D03*
X99019400Y-112623600D03*
D46*
X148082000Y-83690600D03*
X148082000Y-84660600D03*
D92*
X97129600Y-111122400D03*
X97129600Y-110162400D03*
D93*
X154508199Y-71068199D03*
X155778199Y-71068199D03*
X157048199Y-71068199D03*
X158318199Y-71068199D03*
D94*
X155298199Y-67273199D03*
X157528199Y-67273199D03*
D95*
X158628199Y-65482199D03*
X154198199Y-65482199D03*
D96*
X154141199Y-68275199D03*
X158685199Y-68275199D03*
D97*
X164790000Y-111940000D03*
D98*
X94199999Y-106509999D03*
X93399999Y-106509999D03*
X92599999Y-106509999D03*
X91799999Y-106509999D03*
D99*
X90684999Y-107624999D03*
X90684999Y-108424999D03*
X90684999Y-109224999D03*
X90684999Y-110024999D03*
D98*
X91799999Y-111139999D03*
X92599999Y-111139999D03*
X93399999Y-111139999D03*
X94199999Y-111139999D03*
D99*
X95314999Y-110024999D03*
X95314999Y-109224999D03*
X95314999Y-108424999D03*
X95314999Y-107624999D03*
D100*
X92999999Y-108824999D03*
D101*
X152465000Y-73035000D03*
X153485000Y-73035000D03*
D102*
X153466799Y-116179599D03*
D103*
X150020000Y-70360000D03*
X145925000Y-70360000D03*
D104*
X160850000Y-83635000D03*
D105*
X161025000Y-84135000D03*
D104*
X160850000Y-84635000D03*
D105*
X162425000Y-84635000D03*
D104*
X162600000Y-84135000D03*
D105*
X162425000Y-83635000D03*
D106*
X162475000Y-82960000D03*
X161975000Y-82960000D03*
X161475000Y-82960000D03*
D107*
X160975000Y-82960000D03*
D78*
X149505000Y-77210000D03*
X148545000Y-77210000D03*
D91*
X161100000Y-90660000D03*
X163000000Y-90660000D03*
D44*
X151043600Y-79603600D03*
D52*
X152495000Y-76035000D03*
X153455000Y-76035000D03*
D82*
X144049999Y-83509999D03*
X144049999Y-84209999D03*
X145049999Y-84209999D03*
X145049999Y-83509999D03*
D93*
X154514999Y-61995499D03*
X155784999Y-61995499D03*
X157054999Y-61995499D03*
X158324999Y-61995499D03*
D94*
X155304999Y-58200499D03*
X157534999Y-58200499D03*
D95*
X158634999Y-56409499D03*
X154204999Y-56409499D03*
D96*
X154147999Y-59202499D03*
X158691999Y-59202499D03*
D44*
X139725400Y-70180200D03*
D46*
X146380200Y-83690600D03*
X146380200Y-84660600D03*
D22*
X123213000Y-74472800D03*
X124183000Y-74472800D03*
D79*
X162425000Y-80775000D03*
X162425000Y-81795000D03*
D82*
X125941199Y-110343199D03*
X125941199Y-111043199D03*
X126941199Y-111043199D03*
X126941199Y-110343199D03*
D108*
X167875000Y-89360000D03*
X165975000Y-89360000D03*
D89*
X167750000Y-82935000D03*
X167750000Y-84835000D03*
D91*
X161100000Y-86510000D03*
X163000000Y-86510000D03*
D109*
X165837500Y-93310000D03*
X167962500Y-93310000D03*
D79*
X161425000Y-80775000D03*
X161425000Y-81795000D03*
D82*
X137397999Y-111062999D03*
X137397999Y-110362999D03*
X136397999Y-110362999D03*
X136397999Y-111062999D03*
D97*
X89237200Y-96393000D03*
X120237200Y-96393000D03*
D110*
X92037200Y-93443000D03*
X119837200Y-93443000D03*
X92037200Y-61343000D03*
X119837200Y-61343000D03*
D97*
X89237200Y-58393000D03*
X120237200Y-58393000D03*
D111*
X116987199Y-62392999D03*
X120287199Y-62392999D03*
D112*
X116987199Y-63142999D03*
X120287199Y-63142999D03*
X116987199Y-63642999D03*
X120287199Y-63642999D03*
X116987199Y-64142999D03*
X120287199Y-64142999D03*
X116987199Y-64642999D03*
X120287199Y-64642999D03*
X116987199Y-65142999D03*
X120287199Y-65142999D03*
X116987199Y-65642999D03*
X120287199Y-65642999D03*
X116987199Y-66142999D03*
X120287199Y-66142999D03*
X116987199Y-66642999D03*
X120287199Y-66642999D03*
X116987199Y-67142999D03*
X120287199Y-67142999D03*
X116987199Y-67642999D03*
X120287199Y-67642999D03*
X116987199Y-68142999D03*
X120287199Y-68142999D03*
X116987199Y-68642999D03*
X120287199Y-68642999D03*
X116987199Y-69142999D03*
X120287199Y-69142999D03*
X116987199Y-69642999D03*
X120287199Y-69642999D03*
X116987199Y-70142999D03*
X120287199Y-70142999D03*
X116987199Y-70642999D03*
X120287199Y-70642999D03*
X116987199Y-71142999D03*
X120287199Y-71142999D03*
X116987199Y-71642999D03*
X120287199Y-71642999D03*
X116987199Y-72142999D03*
X120287199Y-72142999D03*
X116987199Y-72642999D03*
X120287199Y-72642999D03*
X116987199Y-73142999D03*
X120287199Y-73142999D03*
X116987199Y-73642999D03*
X120287199Y-73642999D03*
X116987199Y-74142999D03*
X120287199Y-74142999D03*
X116987199Y-74642999D03*
X120287199Y-74642999D03*
X116987199Y-75142999D03*
X120287199Y-75142999D03*
X116987199Y-75642999D03*
X120287199Y-75642999D03*
X116987199Y-76142999D03*
X120287199Y-76142999D03*
X116987199Y-76642999D03*
X120287199Y-76642999D03*
X116987199Y-77142999D03*
X120287199Y-77142999D03*
X116987199Y-77642999D03*
X120287199Y-77642999D03*
X116987199Y-78142999D03*
X120287199Y-78142999D03*
X116987199Y-78642999D03*
X120287199Y-78642999D03*
X116987199Y-79142999D03*
X120287199Y-79142999D03*
X116987199Y-79642999D03*
X120287199Y-79642999D03*
X116987199Y-80142999D03*
X120287199Y-80142999D03*
X116987199Y-80642999D03*
X120287199Y-80642999D03*
X116987199Y-81142999D03*
X120287199Y-81142999D03*
X116987199Y-81642999D03*
X120287199Y-81642999D03*
X116987199Y-82142999D03*
X120287199Y-82142999D03*
X116987199Y-82642999D03*
X120287199Y-82642999D03*
X116987199Y-83142999D03*
X120287199Y-83142999D03*
X116987199Y-83642999D03*
X120287199Y-83642999D03*
X116987199Y-84142999D03*
X120287199Y-84142999D03*
X116987199Y-84642999D03*
X120287199Y-84642999D03*
X116987199Y-85142999D03*
X120287199Y-85142999D03*
X116987199Y-85642999D03*
X120287199Y-85642999D03*
X116987199Y-86142999D03*
X120287199Y-86142999D03*
X116987199Y-86642999D03*
X120287199Y-86642999D03*
X116987199Y-87142999D03*
X120287199Y-87142999D03*
X116987199Y-87642999D03*
X120287199Y-87642999D03*
X116987199Y-88142999D03*
X120287199Y-88142999D03*
X116987199Y-88642999D03*
X120287199Y-88642999D03*
X116987199Y-89142999D03*
X120287199Y-89142999D03*
X116987199Y-89642999D03*
X120287199Y-89642999D03*
X116987199Y-90142999D03*
X120287199Y-90142999D03*
X116987199Y-90642999D03*
X120287199Y-90642999D03*
X116987199Y-91142999D03*
X120287199Y-91142999D03*
X116987199Y-91642999D03*
X120287199Y-91642999D03*
D111*
X116987199Y-92392999D03*
X120287199Y-92392999D03*
X89187199Y-62392999D03*
X92487199Y-62392999D03*
D112*
X89187199Y-63142999D03*
X92487199Y-63142999D03*
X89187199Y-63642999D03*
X92487199Y-63642999D03*
X89187199Y-64142999D03*
X92487199Y-64142999D03*
X89187199Y-64642999D03*
X92487199Y-64642999D03*
X89187199Y-65142999D03*
X92487199Y-65142999D03*
X89187199Y-65642999D03*
X92487199Y-65642999D03*
X89187199Y-66142999D03*
X92487199Y-66142999D03*
X89187199Y-66642999D03*
X92487199Y-66642999D03*
X89187199Y-67142999D03*
X92487199Y-67142999D03*
X89187199Y-67642999D03*
X92487199Y-67642999D03*
X89187199Y-68142999D03*
X92487199Y-68142999D03*
X89187199Y-68642999D03*
X92487199Y-68642999D03*
X89187199Y-69142999D03*
X92487199Y-69142999D03*
X89187199Y-69642999D03*
X92487199Y-69642999D03*
X89187199Y-70142999D03*
X92487199Y-70142999D03*
X89187199Y-70642999D03*
X92487199Y-70642999D03*
X89187199Y-71142999D03*
X92487199Y-71142999D03*
X89187199Y-71642999D03*
X92487199Y-71642999D03*
X89187199Y-72142999D03*
X92487199Y-72142999D03*
X89187199Y-72642999D03*
X92487199Y-72642999D03*
X89187199Y-73142999D03*
X92487199Y-73142999D03*
X89187199Y-73642999D03*
X92487199Y-73642999D03*
X89187199Y-74142999D03*
X92487199Y-74142999D03*
X89187199Y-74642999D03*
X92487199Y-74642999D03*
X89187199Y-75142999D03*
X92487199Y-75142999D03*
X89187199Y-75642999D03*
X92487199Y-75642999D03*
X89187199Y-76142999D03*
X92487199Y-76142999D03*
X89187199Y-76642999D03*
X92487199Y-76642999D03*
X89187199Y-77142999D03*
X92487199Y-77142999D03*
X89187199Y-77642999D03*
X92487199Y-77642999D03*
X89187199Y-78142999D03*
X92487199Y-78142999D03*
X89187199Y-78642999D03*
X92487199Y-78642999D03*
X89187199Y-79142999D03*
X92487199Y-79142999D03*
X89187199Y-79642999D03*
X92487199Y-79642999D03*
X89187199Y-80142999D03*
X92487199Y-80142999D03*
X89187199Y-80642999D03*
X92487199Y-80642999D03*
X89187199Y-81142999D03*
X92487199Y-81142999D03*
X89187199Y-81642999D03*
X92487199Y-81642999D03*
X89187199Y-82142999D03*
X92487199Y-82142999D03*
X89187199Y-82642999D03*
X92487199Y-82642999D03*
X89187199Y-83142999D03*
X92487199Y-83142999D03*
X89187199Y-83642999D03*
X92487199Y-83642999D03*
X89187199Y-84142999D03*
X92487199Y-84142999D03*
X89187199Y-84642999D03*
X92487199Y-84642999D03*
X89187199Y-85142999D03*
X92487199Y-85142999D03*
X89187199Y-85642999D03*
X92487199Y-85642999D03*
X89187199Y-86142999D03*
X92487199Y-86142999D03*
X89187199Y-86642999D03*
X92487199Y-86642999D03*
X89187199Y-87142999D03*
X92487199Y-87142999D03*
X89187199Y-87642999D03*
X92487199Y-87642999D03*
X89187199Y-88142999D03*
X92487199Y-88142999D03*
X89187199Y-88642999D03*
X92487199Y-88642999D03*
X89187199Y-89142999D03*
X92487199Y-89142999D03*
X89187199Y-89642999D03*
X92487199Y-89642999D03*
X89187199Y-90142999D03*
X92487199Y-90142999D03*
X89187199Y-90642999D03*
X92487199Y-90642999D03*
X89187199Y-91142999D03*
X92487199Y-91142999D03*
X89187199Y-91642999D03*
X92487199Y-91642999D03*
D111*
X89187199Y-92392999D03*
X92487199Y-92392999D03*
D113*
X133479999Y-71629999D03*
D114*
X132979999Y-71629999D03*
X132479999Y-71629999D03*
D113*
X131979999Y-71629999D03*
X131979999Y-72629999D03*
D114*
X132479999Y-72629999D03*
X132979999Y-72629999D03*
D113*
X133479999Y-72629999D03*
D82*
X123172599Y-75609999D03*
X123172599Y-76309999D03*
X124172599Y-76309999D03*
X124172599Y-75609999D03*
D89*
X146925000Y-73960000D03*
X146925000Y-75860000D03*
D115*
X151899999Y-130194999D03*
D116*
X151574999Y-131384999D03*
X151574999Y-132574999D03*
X153724999Y-132574999D03*
X153724999Y-131384999D03*
X153724999Y-130194999D03*
D89*
X165725000Y-82935000D03*
X165725000Y-84835000D03*
D90*
X87100000Y-45460000D03*
D89*
X142875000Y-73960000D03*
X142875000Y-75860000D03*
D117*
X163369999Y-66759999D03*
X163369999Y-66259999D03*
X163369999Y-65759999D03*
X162689999Y-65759999D03*
X162689999Y-66259999D03*
X162689999Y-66759999D03*
D92*
X98120200Y-111145400D03*
X98120200Y-110185400D03*
D118*
X150393400Y-87731600D03*
D119*
X148393399Y-87731599D03*
X150393399Y-89731599D03*
X148393399Y-89731599D03*
X150393399Y-91731599D03*
X148393399Y-91731599D03*
X150393399Y-93731599D03*
X148393399Y-93731599D03*
X150393399Y-95731599D03*
X148393399Y-95731599D03*
X150393399Y-97731599D03*
X148393399Y-97731599D03*
D108*
X99298800Y-107696000D03*
X97398800Y-107696000D03*
D52*
X161420000Y-79785000D03*
X162380000Y-79785000D03*
X88260900Y-107416800D03*
X89220900Y-107416800D03*
D44*
X131648200Y-113258600D03*
D91*
X161100000Y-88585000D03*
X163000000Y-88585000D03*
D81*
X153485000Y-74035000D03*
X152465000Y-74035000D03*
X153485000Y-75035000D03*
X152465000Y-75035000D03*
D108*
X167875000Y-87335000D03*
X165975000Y-87335000D03*
D120*
X83821000Y-113728000D03*
D121*
X83982000Y-122015000D03*
D97*
X85725000Y-110744000D03*
X88036000Y-50648000D03*
X102300000Y-135410000D03*
X121412000Y-108712000D03*
X129032000Y-120777000D03*
X146050000Y-107061000D03*
X147800000Y-135430000D03*
X153987000Y-80328000D03*
D122*
X156006000Y-77962000D03*
D97*
X164795000Y-111938000D03*
X167820000Y-53330000D03*
X170307000Y-101283000D03*
X170434000Y-77280000D03*
D92*
X163475000Y-81765000D03*
X163475000Y-80805000D03*
D80*
X160425000Y-81795000D03*
X160425000Y-80775000D03*
D108*
X149200000Y-80760000D03*
X147300000Y-80760000D03*
D79*
X143450000Y-95450000D03*
X143450000Y-96470000D03*
D77*
X155752800Y-73002200D03*
X155752800Y-73962200D03*
D90*
X84700000Y-135260000D03*
D108*
X149200000Y-78735000D03*
X147300000Y-78735000D03*
D123*
X168950400Y-108916700D03*
X168300400Y-108916700D03*
X167650400Y-108916700D03*
X167650400Y-110691700D03*
X168300400Y-110691700D03*
X168950400Y-110691700D03*
D124*
X168300399Y-109804199D03*
D79*
X143450000Y-92800000D03*
X143450000Y-93820000D03*
D125*
X166275000Y-72310000D03*
D119*
X168274999Y-72309999D03*
X166274999Y-70309999D03*
X168274999Y-70309999D03*
X166274999Y-68309999D03*
X168274999Y-68309999D03*
X166274999Y-66309999D03*
X168274999Y-66309999D03*
X166274999Y-64309999D03*
X168274999Y-64309999D03*
X166274999Y-62309999D03*
X168274999Y-62309999D03*
D126*
X94099999Y-114209999D03*
X94099999Y-114859999D03*
X94099999Y-115509999D03*
D127*
X94999999Y-116059999D03*
D126*
X95899999Y-115509999D03*
X95899999Y-114859999D03*
X95899999Y-114209999D03*
D127*
X94999999Y-113659999D03*
D101*
X123162600Y-73482200D03*
X124182600Y-73482200D03*
D128*
X157475000Y-83962500D03*
X157475000Y-88057500D03*
D108*
X167875000Y-91385000D03*
X165975000Y-91385000D03*
D79*
X150359400Y-82967500D03*
X150359400Y-83987500D03*
D22*
X123213000Y-72517000D03*
X124183000Y-72517000D03*
X123213000Y-70764400D03*
X124183000Y-70764400D03*
D129*
X150500000Y-74210000D03*
D130*
X150000000Y-74385000D03*
D129*
X149500000Y-74210000D03*
D130*
X149500000Y-75785000D03*
D129*
X150000000Y-75960000D03*
D130*
X150500000Y-75785000D03*
D131*
X151175000Y-75835000D03*
X151175000Y-75335000D03*
X151175000Y-74835000D03*
D132*
X151175000Y-74335000D03*
D78*
X98066800Y-109220000D03*
X97106800Y-109220000D03*
D133*
X86416600Y-104130000D03*
X87483400Y-104130000D03*
X168354200Y-125782400D03*
X169421000Y-125782400D03*
X163347600Y-107449900D03*
X164414400Y-107449900D03*
M02*
