%TF.GenerationSoftware,KiCad,Pcbnew,7.0.5*%
%TF.CreationDate,2024-04-22T16:47:12+03:00*%
%TF.ProjectId,satnogs-comms,7361746e-6f67-4732-9d63-6f6d6d732e6b,rev?*%
%TF.SameCoordinates,PX4eb9cf0PY82ce540*%
%TF.FileFunction,Other,Comment*%
%FSLAX46Y46*%
G04 Gerber Fmt 4.6, Leading zero omitted, Abs format (unit mm)*
G04 Created by KiCad (PCBNEW 7.0.5) date 2024-04-22 16:47:12*
%MOMM*%
%LPD*%
G01*
G04 APERTURE LIST*
%ADD10C,0.150000*%
%ADD11C,0.100000*%
%ADD12C,0.200000*%
G04 APERTURE END LIST*
D10*
X-17065410Y37163930D02*
X-17113029Y37068692D01*
X-17113029Y37068692D02*
X-17160648Y37021073D01*
X-17160648Y37021073D02*
X-17255886Y36973454D01*
X-17255886Y36973454D02*
X-17303505Y36973454D01*
X-17303505Y36973454D02*
X-17398743Y37021073D01*
X-17398743Y37021073D02*
X-17446362Y37068692D01*
X-17446362Y37068692D02*
X-17493981Y37163930D01*
X-17493981Y37163930D02*
X-17493981Y37354406D01*
X-17493981Y37354406D02*
X-17446362Y37449644D01*
X-17446362Y37449644D02*
X-17398743Y37497263D01*
X-17398743Y37497263D02*
X-17303505Y37544882D01*
X-17303505Y37544882D02*
X-17255886Y37544882D01*
X-17255886Y37544882D02*
X-17160648Y37497263D01*
X-17160648Y37497263D02*
X-17113029Y37449644D01*
X-17113029Y37449644D02*
X-17065410Y37354406D01*
X-17065410Y37354406D02*
X-17065410Y37163930D01*
X-17065410Y37163930D02*
X-17017791Y37068692D01*
X-17017791Y37068692D02*
X-16970172Y37021073D01*
X-16970172Y37021073D02*
X-16874934Y36973454D01*
X-16874934Y36973454D02*
X-16684458Y36973454D01*
X-16684458Y36973454D02*
X-16589220Y37021073D01*
X-16589220Y37021073D02*
X-16541600Y37068692D01*
X-16541600Y37068692D02*
X-16493981Y37163930D01*
X-16493981Y37163930D02*
X-16493981Y37354406D01*
X-16493981Y37354406D02*
X-16541600Y37449644D01*
X-16541600Y37449644D02*
X-16589220Y37497263D01*
X-16589220Y37497263D02*
X-16684458Y37544882D01*
X-16684458Y37544882D02*
X-16874934Y37544882D01*
X-16874934Y37544882D02*
X-16970172Y37497263D01*
X-16970172Y37497263D02*
X-17017791Y37449644D01*
X-17017791Y37449644D02*
X-17065410Y37354406D01*
X-17493981Y37878216D02*
X-17493981Y38497263D01*
X-17493981Y38497263D02*
X-17113029Y38163930D01*
X-17113029Y38163930D02*
X-17113029Y38306787D01*
X-17113029Y38306787D02*
X-17065410Y38402025D01*
X-17065410Y38402025D02*
X-17017791Y38449644D01*
X-17017791Y38449644D02*
X-16922553Y38497263D01*
X-16922553Y38497263D02*
X-16684458Y38497263D01*
X-16684458Y38497263D02*
X-16589220Y38449644D01*
X-16589220Y38449644D02*
X-16541600Y38402025D01*
X-16541600Y38402025D02*
X-16493981Y38306787D01*
X-16493981Y38306787D02*
X-16493981Y38021073D01*
X-16493981Y38021073D02*
X-16541600Y37925835D01*
X-16541600Y37925835D02*
X-16589220Y37878216D01*
X-16589220Y38925835D02*
X-16541600Y38973454D01*
X-16541600Y38973454D02*
X-16493981Y38925835D01*
X-16493981Y38925835D02*
X-16541600Y38878216D01*
X-16541600Y38878216D02*
X-16589220Y38925835D01*
X-16589220Y38925835D02*
X-16493981Y38925835D01*
X-16493981Y39925834D02*
X-16493981Y39354406D01*
X-16493981Y39640120D02*
X-17493981Y39640120D01*
X-17493981Y39640120D02*
X-17351124Y39544882D01*
X-17351124Y39544882D02*
X-17255886Y39449644D01*
X-17255886Y39449644D02*
X-17208267Y39354406D01*
X-17065410Y40497263D02*
X-17113029Y40402025D01*
X-17113029Y40402025D02*
X-17160648Y40354406D01*
X-17160648Y40354406D02*
X-17255886Y40306787D01*
X-17255886Y40306787D02*
X-17303505Y40306787D01*
X-17303505Y40306787D02*
X-17398743Y40354406D01*
X-17398743Y40354406D02*
X-17446362Y40402025D01*
X-17446362Y40402025D02*
X-17493981Y40497263D01*
X-17493981Y40497263D02*
X-17493981Y40687739D01*
X-17493981Y40687739D02*
X-17446362Y40782977D01*
X-17446362Y40782977D02*
X-17398743Y40830596D01*
X-17398743Y40830596D02*
X-17303505Y40878215D01*
X-17303505Y40878215D02*
X-17255886Y40878215D01*
X-17255886Y40878215D02*
X-17160648Y40830596D01*
X-17160648Y40830596D02*
X-17113029Y40782977D01*
X-17113029Y40782977D02*
X-17065410Y40687739D01*
X-17065410Y40687739D02*
X-17065410Y40497263D01*
X-17065410Y40497263D02*
X-17017791Y40402025D01*
X-17017791Y40402025D02*
X-16970172Y40354406D01*
X-16970172Y40354406D02*
X-16874934Y40306787D01*
X-16874934Y40306787D02*
X-16684458Y40306787D01*
X-16684458Y40306787D02*
X-16589220Y40354406D01*
X-16589220Y40354406D02*
X-16541600Y40402025D01*
X-16541600Y40402025D02*
X-16493981Y40497263D01*
X-16493981Y40497263D02*
X-16493981Y40687739D01*
X-16493981Y40687739D02*
X-16541600Y40782977D01*
X-16541600Y40782977D02*
X-16589220Y40830596D01*
X-16589220Y40830596D02*
X-16684458Y40878215D01*
X-16684458Y40878215D02*
X-16874934Y40878215D01*
X-16874934Y40878215D02*
X-16970172Y40830596D01*
X-16970172Y40830596D02*
X-17017791Y40782977D01*
X-17017791Y40782977D02*
X-17065410Y40687739D01*
X-17493981Y41782977D02*
X-17493981Y41306787D01*
X-17493981Y41306787D02*
X-17017791Y41259168D01*
X-17017791Y41259168D02*
X-17065410Y41306787D01*
X-17065410Y41306787D02*
X-17113029Y41402025D01*
X-17113029Y41402025D02*
X-17113029Y41640120D01*
X-17113029Y41640120D02*
X-17065410Y41735358D01*
X-17065410Y41735358D02*
X-17017791Y41782977D01*
X-17017791Y41782977D02*
X-16922553Y41830596D01*
X-16922553Y41830596D02*
X-16684458Y41830596D01*
X-16684458Y41830596D02*
X-16589220Y41782977D01*
X-16589220Y41782977D02*
X-16541600Y41735358D01*
X-16541600Y41735358D02*
X-16493981Y41640120D01*
X-16493981Y41640120D02*
X-16493981Y41402025D01*
X-16493981Y41402025D02*
X-16541600Y41306787D01*
X-16541600Y41306787D02*
X-16589220Y41259168D01*
X-17493981Y42449644D02*
X-17493981Y42544882D01*
X-17493981Y42544882D02*
X-17446362Y42640120D01*
X-17446362Y42640120D02*
X-17398743Y42687739D01*
X-17398743Y42687739D02*
X-17303505Y42735358D01*
X-17303505Y42735358D02*
X-17113029Y42782977D01*
X-17113029Y42782977D02*
X-16874934Y42782977D01*
X-16874934Y42782977D02*
X-16684458Y42735358D01*
X-16684458Y42735358D02*
X-16589220Y42687739D01*
X-16589220Y42687739D02*
X-16541600Y42640120D01*
X-16541600Y42640120D02*
X-16493981Y42544882D01*
X-16493981Y42544882D02*
X-16493981Y42449644D01*
X-16493981Y42449644D02*
X-16541600Y42354406D01*
X-16541600Y42354406D02*
X-16589220Y42306787D01*
X-16589220Y42306787D02*
X-16684458Y42259168D01*
X-16684458Y42259168D02*
X-16874934Y42211549D01*
X-16874934Y42211549D02*
X-17113029Y42211549D01*
X-17113029Y42211549D02*
X-17303505Y42259168D01*
X-17303505Y42259168D02*
X-17398743Y42306787D01*
X-17398743Y42306787D02*
X-17446362Y42354406D01*
X-17446362Y42354406D02*
X-17493981Y42449644D01*
X-16493981Y43973454D02*
X-17160648Y43973454D01*
X-17065410Y43973454D02*
X-17113029Y44021073D01*
X-17113029Y44021073D02*
X-17160648Y44116311D01*
X-17160648Y44116311D02*
X-17160648Y44259168D01*
X-17160648Y44259168D02*
X-17113029Y44354406D01*
X-17113029Y44354406D02*
X-17017791Y44402025D01*
X-17017791Y44402025D02*
X-16493981Y44402025D01*
X-17017791Y44402025D02*
X-17113029Y44449644D01*
X-17113029Y44449644D02*
X-17160648Y44544882D01*
X-17160648Y44544882D02*
X-17160648Y44687739D01*
X-17160648Y44687739D02*
X-17113029Y44782978D01*
X-17113029Y44782978D02*
X-17017791Y44830597D01*
X-17017791Y44830597D02*
X-16493981Y44830597D01*
X-16493981Y45306787D02*
X-17160648Y45306787D01*
X-17065410Y45306787D02*
X-17113029Y45354406D01*
X-17113029Y45354406D02*
X-17160648Y45449644D01*
X-17160648Y45449644D02*
X-17160648Y45592501D01*
X-17160648Y45592501D02*
X-17113029Y45687739D01*
X-17113029Y45687739D02*
X-17017791Y45735358D01*
X-17017791Y45735358D02*
X-16493981Y45735358D01*
X-17017791Y45735358D02*
X-17113029Y45782977D01*
X-17113029Y45782977D02*
X-17160648Y45878215D01*
X-17160648Y45878215D02*
X-17160648Y46021072D01*
X-17160648Y46021072D02*
X-17113029Y46116311D01*
X-17113029Y46116311D02*
X-17017791Y46163930D01*
X-17017791Y46163930D02*
X-16493981Y46163930D01*
D11*
X-500000Y0D02*
X-16385220Y0D01*
X-500000Y83185000D02*
X-16385220Y83185000D01*
X-15798800Y0D02*
X-15798800Y83185000D01*
X-15798800Y0D02*
X-15798800Y83185000D01*
X-15798800Y0D02*
X-16385221Y1126504D01*
X-15798800Y0D02*
X-15212379Y1126504D01*
X-15798800Y83185000D02*
X-15212379Y82058496D01*
X-15798800Y83185000D02*
X-16385221Y82058496D01*
D10*
X-21700981Y40878692D02*
X-21700981Y41069168D01*
X-21700981Y41069168D02*
X-21748600Y41164406D01*
X-21748600Y41164406D02*
X-21796220Y41212025D01*
X-21796220Y41212025D02*
X-21939077Y41307263D01*
X-21939077Y41307263D02*
X-22129553Y41354882D01*
X-22129553Y41354882D02*
X-22510505Y41354882D01*
X-22510505Y41354882D02*
X-22605743Y41307263D01*
X-22605743Y41307263D02*
X-22653362Y41259644D01*
X-22653362Y41259644D02*
X-22700981Y41164406D01*
X-22700981Y41164406D02*
X-22700981Y40973930D01*
X-22700981Y40973930D02*
X-22653362Y40878692D01*
X-22653362Y40878692D02*
X-22605743Y40831073D01*
X-22605743Y40831073D02*
X-22510505Y40783454D01*
X-22510505Y40783454D02*
X-22272410Y40783454D01*
X-22272410Y40783454D02*
X-22177172Y40831073D01*
X-22177172Y40831073D02*
X-22129553Y40878692D01*
X-22129553Y40878692D02*
X-22081934Y40973930D01*
X-22081934Y40973930D02*
X-22081934Y41164406D01*
X-22081934Y41164406D02*
X-22129553Y41259644D01*
X-22129553Y41259644D02*
X-22177172Y41307263D01*
X-22177172Y41307263D02*
X-22272410Y41354882D01*
X-22700981Y41973930D02*
X-22700981Y42069168D01*
X-22700981Y42069168D02*
X-22653362Y42164406D01*
X-22653362Y42164406D02*
X-22605743Y42212025D01*
X-22605743Y42212025D02*
X-22510505Y42259644D01*
X-22510505Y42259644D02*
X-22320029Y42307263D01*
X-22320029Y42307263D02*
X-22081934Y42307263D01*
X-22081934Y42307263D02*
X-21891458Y42259644D01*
X-21891458Y42259644D02*
X-21796220Y42212025D01*
X-21796220Y42212025D02*
X-21748600Y42164406D01*
X-21748600Y42164406D02*
X-21700981Y42069168D01*
X-21700981Y42069168D02*
X-21700981Y41973930D01*
X-21700981Y41973930D02*
X-21748600Y41878692D01*
X-21748600Y41878692D02*
X-21796220Y41831073D01*
X-21796220Y41831073D02*
X-21891458Y41783454D01*
X-21891458Y41783454D02*
X-22081934Y41735835D01*
X-22081934Y41735835D02*
X-22320029Y41735835D01*
X-22320029Y41735835D02*
X-22510505Y41783454D01*
X-22510505Y41783454D02*
X-22605743Y41831073D01*
X-22605743Y41831073D02*
X-22653362Y41878692D01*
X-22653362Y41878692D02*
X-22700981Y41973930D01*
X-21796220Y42735835D02*
X-21748600Y42783454D01*
X-21748600Y42783454D02*
X-21700981Y42735835D01*
X-21700981Y42735835D02*
X-21748600Y42688216D01*
X-21748600Y42688216D02*
X-21796220Y42735835D01*
X-21796220Y42735835D02*
X-21700981Y42735835D01*
X-22272410Y43354882D02*
X-22320029Y43259644D01*
X-22320029Y43259644D02*
X-22367648Y43212025D01*
X-22367648Y43212025D02*
X-22462886Y43164406D01*
X-22462886Y43164406D02*
X-22510505Y43164406D01*
X-22510505Y43164406D02*
X-22605743Y43212025D01*
X-22605743Y43212025D02*
X-22653362Y43259644D01*
X-22653362Y43259644D02*
X-22700981Y43354882D01*
X-22700981Y43354882D02*
X-22700981Y43545358D01*
X-22700981Y43545358D02*
X-22653362Y43640596D01*
X-22653362Y43640596D02*
X-22605743Y43688215D01*
X-22605743Y43688215D02*
X-22510505Y43735834D01*
X-22510505Y43735834D02*
X-22462886Y43735834D01*
X-22462886Y43735834D02*
X-22367648Y43688215D01*
X-22367648Y43688215D02*
X-22320029Y43640596D01*
X-22320029Y43640596D02*
X-22272410Y43545358D01*
X-22272410Y43545358D02*
X-22272410Y43354882D01*
X-22272410Y43354882D02*
X-22224791Y43259644D01*
X-22224791Y43259644D02*
X-22177172Y43212025D01*
X-22177172Y43212025D02*
X-22081934Y43164406D01*
X-22081934Y43164406D02*
X-21891458Y43164406D01*
X-21891458Y43164406D02*
X-21796220Y43212025D01*
X-21796220Y43212025D02*
X-21748600Y43259644D01*
X-21748600Y43259644D02*
X-21700981Y43354882D01*
X-21700981Y43354882D02*
X-21700981Y43545358D01*
X-21700981Y43545358D02*
X-21748600Y43640596D01*
X-21748600Y43640596D02*
X-21796220Y43688215D01*
X-21796220Y43688215D02*
X-21891458Y43735834D01*
X-21891458Y43735834D02*
X-22081934Y43735834D01*
X-22081934Y43735834D02*
X-22177172Y43688215D01*
X-22177172Y43688215D02*
X-22224791Y43640596D01*
X-22224791Y43640596D02*
X-22272410Y43545358D01*
X-22700981Y44354882D02*
X-22700981Y44450120D01*
X-22700981Y44450120D02*
X-22653362Y44545358D01*
X-22653362Y44545358D02*
X-22605743Y44592977D01*
X-22605743Y44592977D02*
X-22510505Y44640596D01*
X-22510505Y44640596D02*
X-22320029Y44688215D01*
X-22320029Y44688215D02*
X-22081934Y44688215D01*
X-22081934Y44688215D02*
X-21891458Y44640596D01*
X-21891458Y44640596D02*
X-21796220Y44592977D01*
X-21796220Y44592977D02*
X-21748600Y44545358D01*
X-21748600Y44545358D02*
X-21700981Y44450120D01*
X-21700981Y44450120D02*
X-21700981Y44354882D01*
X-21700981Y44354882D02*
X-21748600Y44259644D01*
X-21748600Y44259644D02*
X-21796220Y44212025D01*
X-21796220Y44212025D02*
X-21891458Y44164406D01*
X-21891458Y44164406D02*
X-22081934Y44116787D01*
X-22081934Y44116787D02*
X-22320029Y44116787D01*
X-22320029Y44116787D02*
X-22510505Y44164406D01*
X-22510505Y44164406D02*
X-22605743Y44212025D01*
X-22605743Y44212025D02*
X-22653362Y44259644D01*
X-22653362Y44259644D02*
X-22700981Y44354882D01*
X-22700981Y45592977D02*
X-22700981Y45116787D01*
X-22700981Y45116787D02*
X-22224791Y45069168D01*
X-22224791Y45069168D02*
X-22272410Y45116787D01*
X-22272410Y45116787D02*
X-22320029Y45212025D01*
X-22320029Y45212025D02*
X-22320029Y45450120D01*
X-22320029Y45450120D02*
X-22272410Y45545358D01*
X-22272410Y45545358D02*
X-22224791Y45592977D01*
X-22224791Y45592977D02*
X-22129553Y45640596D01*
X-22129553Y45640596D02*
X-21891458Y45640596D01*
X-21891458Y45640596D02*
X-21796220Y45592977D01*
X-21796220Y45592977D02*
X-21748600Y45545358D01*
X-21748600Y45545358D02*
X-21700981Y45450120D01*
X-21700981Y45450120D02*
X-21700981Y45212025D01*
X-21700981Y45212025D02*
X-21748600Y45116787D01*
X-21748600Y45116787D02*
X-21796220Y45069168D01*
X-22700981Y46259644D02*
X-22700981Y46354882D01*
X-22700981Y46354882D02*
X-22653362Y46450120D01*
X-22653362Y46450120D02*
X-22605743Y46497739D01*
X-22605743Y46497739D02*
X-22510505Y46545358D01*
X-22510505Y46545358D02*
X-22320029Y46592977D01*
X-22320029Y46592977D02*
X-22081934Y46592977D01*
X-22081934Y46592977D02*
X-21891458Y46545358D01*
X-21891458Y46545358D02*
X-21796220Y46497739D01*
X-21796220Y46497739D02*
X-21748600Y46450120D01*
X-21748600Y46450120D02*
X-21700981Y46354882D01*
X-21700981Y46354882D02*
X-21700981Y46259644D01*
X-21700981Y46259644D02*
X-21748600Y46164406D01*
X-21748600Y46164406D02*
X-21796220Y46116787D01*
X-21796220Y46116787D02*
X-21891458Y46069168D01*
X-21891458Y46069168D02*
X-22081934Y46021549D01*
X-22081934Y46021549D02*
X-22320029Y46021549D01*
X-22320029Y46021549D02*
X-22510505Y46069168D01*
X-22510505Y46069168D02*
X-22605743Y46116787D01*
X-22605743Y46116787D02*
X-22653362Y46164406D01*
X-22653362Y46164406D02*
X-22700981Y46259644D01*
X-21700981Y47783454D02*
X-22367648Y47783454D01*
X-22272410Y47783454D02*
X-22320029Y47831073D01*
X-22320029Y47831073D02*
X-22367648Y47926311D01*
X-22367648Y47926311D02*
X-22367648Y48069168D01*
X-22367648Y48069168D02*
X-22320029Y48164406D01*
X-22320029Y48164406D02*
X-22224791Y48212025D01*
X-22224791Y48212025D02*
X-21700981Y48212025D01*
X-22224791Y48212025D02*
X-22320029Y48259644D01*
X-22320029Y48259644D02*
X-22367648Y48354882D01*
X-22367648Y48354882D02*
X-22367648Y48497739D01*
X-22367648Y48497739D02*
X-22320029Y48592978D01*
X-22320029Y48592978D02*
X-22224791Y48640597D01*
X-22224791Y48640597D02*
X-21700981Y48640597D01*
X-21700981Y49116787D02*
X-22367648Y49116787D01*
X-22272410Y49116787D02*
X-22320029Y49164406D01*
X-22320029Y49164406D02*
X-22367648Y49259644D01*
X-22367648Y49259644D02*
X-22367648Y49402501D01*
X-22367648Y49402501D02*
X-22320029Y49497739D01*
X-22320029Y49497739D02*
X-22224791Y49545358D01*
X-22224791Y49545358D02*
X-21700981Y49545358D01*
X-22224791Y49545358D02*
X-22320029Y49592977D01*
X-22320029Y49592977D02*
X-22367648Y49688215D01*
X-22367648Y49688215D02*
X-22367648Y49831072D01*
X-22367648Y49831072D02*
X-22320029Y49926311D01*
X-22320029Y49926311D02*
X-22224791Y49973930D01*
X-22224791Y49973930D02*
X-21700981Y49973930D01*
D11*
X-500000Y0D02*
X-21592220Y0D01*
X-500000Y90805000D02*
X-21592220Y90805000D01*
X-21005800Y0D02*
X-21005800Y90805000D01*
X-21005800Y0D02*
X-21005800Y90805000D01*
X-21005800Y0D02*
X-21592221Y1126504D01*
X-21005800Y0D02*
X-20419379Y1126504D01*
X-21005800Y90805000D02*
X-20419379Y89678496D01*
X-21005800Y90805000D02*
X-21592221Y89678496D01*
D10*
X-1079048Y-4197619D02*
X-1555238Y-4197619D01*
X-1555238Y-4197619D02*
X-1602857Y-4673809D01*
X-1602857Y-4673809D02*
X-1555238Y-4626190D01*
X-1555238Y-4626190D02*
X-1460000Y-4578571D01*
X-1460000Y-4578571D02*
X-1221905Y-4578571D01*
X-1221905Y-4578571D02*
X-1126667Y-4626190D01*
X-1126667Y-4626190D02*
X-1079048Y-4673809D01*
X-1079048Y-4673809D02*
X-1031429Y-4769047D01*
X-1031429Y-4769047D02*
X-1031429Y-5007142D01*
X-1031429Y-5007142D02*
X-1079048Y-5102380D01*
X-1079048Y-5102380D02*
X-1126667Y-5150000D01*
X-1126667Y-5150000D02*
X-1221905Y-5197619D01*
X-1221905Y-5197619D02*
X-1460000Y-5197619D01*
X-1460000Y-5197619D02*
X-1555238Y-5150000D01*
X-1555238Y-5150000D02*
X-1602857Y-5102380D01*
X-602857Y-5102380D02*
X-555238Y-5150000D01*
X-555238Y-5150000D02*
X-602857Y-5197619D01*
X-602857Y-5197619D02*
X-650476Y-5150000D01*
X-650476Y-5150000D02*
X-602857Y-5102380D01*
X-602857Y-5102380D02*
X-602857Y-5197619D01*
X63809Y-4197619D02*
X159047Y-4197619D01*
X159047Y-4197619D02*
X254285Y-4245238D01*
X254285Y-4245238D02*
X301904Y-4292857D01*
X301904Y-4292857D02*
X349523Y-4388095D01*
X349523Y-4388095D02*
X397142Y-4578571D01*
X397142Y-4578571D02*
X397142Y-4816666D01*
X397142Y-4816666D02*
X349523Y-5007142D01*
X349523Y-5007142D02*
X301904Y-5102380D01*
X301904Y-5102380D02*
X254285Y-5150000D01*
X254285Y-5150000D02*
X159047Y-5197619D01*
X159047Y-5197619D02*
X63809Y-5197619D01*
X63809Y-5197619D02*
X-31429Y-5150000D01*
X-31429Y-5150000D02*
X-79048Y-5102380D01*
X-79048Y-5102380D02*
X-126667Y-5007142D01*
X-126667Y-5007142D02*
X-174286Y-4816666D01*
X-174286Y-4816666D02*
X-174286Y-4578571D01*
X-174286Y-4578571D02*
X-126667Y-4388095D01*
X-126667Y-4388095D02*
X-79048Y-4292857D01*
X-79048Y-4292857D02*
X-31429Y-4245238D01*
X-31429Y-4245238D02*
X63809Y-4197619D01*
X968571Y-4626190D02*
X873333Y-4578571D01*
X873333Y-4578571D02*
X825714Y-4530952D01*
X825714Y-4530952D02*
X778095Y-4435714D01*
X778095Y-4435714D02*
X778095Y-4388095D01*
X778095Y-4388095D02*
X825714Y-4292857D01*
X825714Y-4292857D02*
X873333Y-4245238D01*
X873333Y-4245238D02*
X968571Y-4197619D01*
X968571Y-4197619D02*
X1159047Y-4197619D01*
X1159047Y-4197619D02*
X1254285Y-4245238D01*
X1254285Y-4245238D02*
X1301904Y-4292857D01*
X1301904Y-4292857D02*
X1349523Y-4388095D01*
X1349523Y-4388095D02*
X1349523Y-4435714D01*
X1349523Y-4435714D02*
X1301904Y-4530952D01*
X1301904Y-4530952D02*
X1254285Y-4578571D01*
X1254285Y-4578571D02*
X1159047Y-4626190D01*
X1159047Y-4626190D02*
X968571Y-4626190D01*
X968571Y-4626190D02*
X873333Y-4673809D01*
X873333Y-4673809D02*
X825714Y-4721428D01*
X825714Y-4721428D02*
X778095Y-4816666D01*
X778095Y-4816666D02*
X778095Y-5007142D01*
X778095Y-5007142D02*
X825714Y-5102380D01*
X825714Y-5102380D02*
X873333Y-5150000D01*
X873333Y-5150000D02*
X968571Y-5197619D01*
X968571Y-5197619D02*
X1159047Y-5197619D01*
X1159047Y-5197619D02*
X1254285Y-5150000D01*
X1254285Y-5150000D02*
X1301904Y-5102380D01*
X1301904Y-5102380D02*
X1349523Y-5007142D01*
X1349523Y-5007142D02*
X1349523Y-4816666D01*
X1349523Y-4816666D02*
X1301904Y-4721428D01*
X1301904Y-4721428D02*
X1254285Y-4673809D01*
X1254285Y-4673809D02*
X1159047Y-4626190D01*
X1968571Y-4197619D02*
X2063809Y-4197619D01*
X2063809Y-4197619D02*
X2159047Y-4245238D01*
X2159047Y-4245238D02*
X2206666Y-4292857D01*
X2206666Y-4292857D02*
X2254285Y-4388095D01*
X2254285Y-4388095D02*
X2301904Y-4578571D01*
X2301904Y-4578571D02*
X2301904Y-4816666D01*
X2301904Y-4816666D02*
X2254285Y-5007142D01*
X2254285Y-5007142D02*
X2206666Y-5102380D01*
X2206666Y-5102380D02*
X2159047Y-5150000D01*
X2159047Y-5150000D02*
X2063809Y-5197619D01*
X2063809Y-5197619D02*
X1968571Y-5197619D01*
X1968571Y-5197619D02*
X1873333Y-5150000D01*
X1873333Y-5150000D02*
X1825714Y-5102380D01*
X1825714Y-5102380D02*
X1778095Y-5007142D01*
X1778095Y-5007142D02*
X1730476Y-4816666D01*
X1730476Y-4816666D02*
X1730476Y-4578571D01*
X1730476Y-4578571D02*
X1778095Y-4388095D01*
X1778095Y-4388095D02*
X1825714Y-4292857D01*
X1825714Y-4292857D02*
X1873333Y-4245238D01*
X1873333Y-4245238D02*
X1968571Y-4197619D01*
X2920952Y-4197619D02*
X3016190Y-4197619D01*
X3016190Y-4197619D02*
X3111428Y-4245238D01*
X3111428Y-4245238D02*
X3159047Y-4292857D01*
X3159047Y-4292857D02*
X3206666Y-4388095D01*
X3206666Y-4388095D02*
X3254285Y-4578571D01*
X3254285Y-4578571D02*
X3254285Y-4816666D01*
X3254285Y-4816666D02*
X3206666Y-5007142D01*
X3206666Y-5007142D02*
X3159047Y-5102380D01*
X3159047Y-5102380D02*
X3111428Y-5150000D01*
X3111428Y-5150000D02*
X3016190Y-5197619D01*
X3016190Y-5197619D02*
X2920952Y-5197619D01*
X2920952Y-5197619D02*
X2825714Y-5150000D01*
X2825714Y-5150000D02*
X2778095Y-5102380D01*
X2778095Y-5102380D02*
X2730476Y-5007142D01*
X2730476Y-5007142D02*
X2682857Y-4816666D01*
X2682857Y-4816666D02*
X2682857Y-4578571D01*
X2682857Y-4578571D02*
X2730476Y-4388095D01*
X2730476Y-4388095D02*
X2778095Y-4292857D01*
X2778095Y-4292857D02*
X2825714Y-4245238D01*
X2825714Y-4245238D02*
X2920952Y-4197619D01*
X4444762Y-5197619D02*
X4444762Y-4530952D01*
X4444762Y-4626190D02*
X4492381Y-4578571D01*
X4492381Y-4578571D02*
X4587619Y-4530952D01*
X4587619Y-4530952D02*
X4730476Y-4530952D01*
X4730476Y-4530952D02*
X4825714Y-4578571D01*
X4825714Y-4578571D02*
X4873333Y-4673809D01*
X4873333Y-4673809D02*
X4873333Y-5197619D01*
X4873333Y-4673809D02*
X4920952Y-4578571D01*
X4920952Y-4578571D02*
X5016190Y-4530952D01*
X5016190Y-4530952D02*
X5159047Y-4530952D01*
X5159047Y-4530952D02*
X5254286Y-4578571D01*
X5254286Y-4578571D02*
X5301905Y-4673809D01*
X5301905Y-4673809D02*
X5301905Y-5197619D01*
X5778095Y-5197619D02*
X5778095Y-4530952D01*
X5778095Y-4626190D02*
X5825714Y-4578571D01*
X5825714Y-4578571D02*
X5920952Y-4530952D01*
X5920952Y-4530952D02*
X6063809Y-4530952D01*
X6063809Y-4530952D02*
X6159047Y-4578571D01*
X6159047Y-4578571D02*
X6206666Y-4673809D01*
X6206666Y-4673809D02*
X6206666Y-5197619D01*
X6206666Y-4673809D02*
X6254285Y-4578571D01*
X6254285Y-4578571D02*
X6349523Y-4530952D01*
X6349523Y-4530952D02*
X6492380Y-4530952D01*
X6492380Y-4530952D02*
X6587619Y-4578571D01*
X6587619Y-4578571D02*
X6635238Y-4673809D01*
X6635238Y-4673809D02*
X6635238Y-5197619D01*
D11*
X0Y-500000D02*
X0Y-6479220D01*
X5080000Y-500000D02*
X5080000Y-6479220D01*
X0Y-5892800D02*
X5080000Y-5892800D01*
X0Y-5892800D02*
X5080000Y-5892800D01*
X0Y-5892800D02*
X1126504Y-5306379D01*
X0Y-5892800D02*
X1126504Y-6479221D01*
X5080000Y-5892800D02*
X3953496Y-6479221D01*
X5080000Y-5892800D02*
X3953496Y-5306379D01*
D10*
X-6267181Y-1079047D02*
X-6267181Y-1555237D01*
X-6267181Y-1555237D02*
X-5790991Y-1602856D01*
X-5790991Y-1602856D02*
X-5838610Y-1555237D01*
X-5838610Y-1555237D02*
X-5886229Y-1459999D01*
X-5886229Y-1459999D02*
X-5886229Y-1221904D01*
X-5886229Y-1221904D02*
X-5838610Y-1126666D01*
X-5838610Y-1126666D02*
X-5790991Y-1079047D01*
X-5790991Y-1079047D02*
X-5695753Y-1031428D01*
X-5695753Y-1031428D02*
X-5457658Y-1031428D01*
X-5457658Y-1031428D02*
X-5362420Y-1079047D01*
X-5362420Y-1079047D02*
X-5314800Y-1126666D01*
X-5314800Y-1126666D02*
X-5267181Y-1221904D01*
X-5267181Y-1221904D02*
X-5267181Y-1459999D01*
X-5267181Y-1459999D02*
X-5314800Y-1555237D01*
X-5314800Y-1555237D02*
X-5362420Y-1602856D01*
X-5362420Y-602856D02*
X-5314800Y-555237D01*
X-5314800Y-555237D02*
X-5267181Y-602856D01*
X-5267181Y-602856D02*
X-5314800Y-650475D01*
X-5314800Y-650475D02*
X-5362420Y-602856D01*
X-5362420Y-602856D02*
X-5267181Y-602856D01*
X-6267181Y63810D02*
X-6267181Y159048D01*
X-6267181Y159048D02*
X-6219562Y254286D01*
X-6219562Y254286D02*
X-6171943Y301905D01*
X-6171943Y301905D02*
X-6076705Y349524D01*
X-6076705Y349524D02*
X-5886229Y397143D01*
X-5886229Y397143D02*
X-5648134Y397143D01*
X-5648134Y397143D02*
X-5457658Y349524D01*
X-5457658Y349524D02*
X-5362420Y301905D01*
X-5362420Y301905D02*
X-5314800Y254286D01*
X-5314800Y254286D02*
X-5267181Y159048D01*
X-5267181Y159048D02*
X-5267181Y63810D01*
X-5267181Y63810D02*
X-5314800Y-31428D01*
X-5314800Y-31428D02*
X-5362420Y-79047D01*
X-5362420Y-79047D02*
X-5457658Y-126666D01*
X-5457658Y-126666D02*
X-5648134Y-174285D01*
X-5648134Y-174285D02*
X-5886229Y-174285D01*
X-5886229Y-174285D02*
X-6076705Y-126666D01*
X-6076705Y-126666D02*
X-6171943Y-79047D01*
X-6171943Y-79047D02*
X-6219562Y-31428D01*
X-6219562Y-31428D02*
X-6267181Y63810D01*
X-5838610Y968572D02*
X-5886229Y873334D01*
X-5886229Y873334D02*
X-5933848Y825715D01*
X-5933848Y825715D02*
X-6029086Y778096D01*
X-6029086Y778096D02*
X-6076705Y778096D01*
X-6076705Y778096D02*
X-6171943Y825715D01*
X-6171943Y825715D02*
X-6219562Y873334D01*
X-6219562Y873334D02*
X-6267181Y968572D01*
X-6267181Y968572D02*
X-6267181Y1159048D01*
X-6267181Y1159048D02*
X-6219562Y1254286D01*
X-6219562Y1254286D02*
X-6171943Y1301905D01*
X-6171943Y1301905D02*
X-6076705Y1349524D01*
X-6076705Y1349524D02*
X-6029086Y1349524D01*
X-6029086Y1349524D02*
X-5933848Y1301905D01*
X-5933848Y1301905D02*
X-5886229Y1254286D01*
X-5886229Y1254286D02*
X-5838610Y1159048D01*
X-5838610Y1159048D02*
X-5838610Y968572D01*
X-5838610Y968572D02*
X-5790991Y873334D01*
X-5790991Y873334D02*
X-5743372Y825715D01*
X-5743372Y825715D02*
X-5648134Y778096D01*
X-5648134Y778096D02*
X-5457658Y778096D01*
X-5457658Y778096D02*
X-5362420Y825715D01*
X-5362420Y825715D02*
X-5314800Y873334D01*
X-5314800Y873334D02*
X-5267181Y968572D01*
X-5267181Y968572D02*
X-5267181Y1159048D01*
X-5267181Y1159048D02*
X-5314800Y1254286D01*
X-5314800Y1254286D02*
X-5362420Y1301905D01*
X-5362420Y1301905D02*
X-5457658Y1349524D01*
X-5457658Y1349524D02*
X-5648134Y1349524D01*
X-5648134Y1349524D02*
X-5743372Y1301905D01*
X-5743372Y1301905D02*
X-5790991Y1254286D01*
X-5790991Y1254286D02*
X-5838610Y1159048D01*
X-6267181Y1968572D02*
X-6267181Y2063810D01*
X-6267181Y2063810D02*
X-6219562Y2159048D01*
X-6219562Y2159048D02*
X-6171943Y2206667D01*
X-6171943Y2206667D02*
X-6076705Y2254286D01*
X-6076705Y2254286D02*
X-5886229Y2301905D01*
X-5886229Y2301905D02*
X-5648134Y2301905D01*
X-5648134Y2301905D02*
X-5457658Y2254286D01*
X-5457658Y2254286D02*
X-5362420Y2206667D01*
X-5362420Y2206667D02*
X-5314800Y2159048D01*
X-5314800Y2159048D02*
X-5267181Y2063810D01*
X-5267181Y2063810D02*
X-5267181Y1968572D01*
X-5267181Y1968572D02*
X-5314800Y1873334D01*
X-5314800Y1873334D02*
X-5362420Y1825715D01*
X-5362420Y1825715D02*
X-5457658Y1778096D01*
X-5457658Y1778096D02*
X-5648134Y1730477D01*
X-5648134Y1730477D02*
X-5886229Y1730477D01*
X-5886229Y1730477D02*
X-6076705Y1778096D01*
X-6076705Y1778096D02*
X-6171943Y1825715D01*
X-6171943Y1825715D02*
X-6219562Y1873334D01*
X-6219562Y1873334D02*
X-6267181Y1968572D01*
X-6267181Y2920953D02*
X-6267181Y3016191D01*
X-6267181Y3016191D02*
X-6219562Y3111429D01*
X-6219562Y3111429D02*
X-6171943Y3159048D01*
X-6171943Y3159048D02*
X-6076705Y3206667D01*
X-6076705Y3206667D02*
X-5886229Y3254286D01*
X-5886229Y3254286D02*
X-5648134Y3254286D01*
X-5648134Y3254286D02*
X-5457658Y3206667D01*
X-5457658Y3206667D02*
X-5362420Y3159048D01*
X-5362420Y3159048D02*
X-5314800Y3111429D01*
X-5314800Y3111429D02*
X-5267181Y3016191D01*
X-5267181Y3016191D02*
X-5267181Y2920953D01*
X-5267181Y2920953D02*
X-5314800Y2825715D01*
X-5314800Y2825715D02*
X-5362420Y2778096D01*
X-5362420Y2778096D02*
X-5457658Y2730477D01*
X-5457658Y2730477D02*
X-5648134Y2682858D01*
X-5648134Y2682858D02*
X-5886229Y2682858D01*
X-5886229Y2682858D02*
X-6076705Y2730477D01*
X-6076705Y2730477D02*
X-6171943Y2778096D01*
X-6171943Y2778096D02*
X-6219562Y2825715D01*
X-6219562Y2825715D02*
X-6267181Y2920953D01*
X-5267181Y4444763D02*
X-5933848Y4444763D01*
X-5838610Y4444763D02*
X-5886229Y4492382D01*
X-5886229Y4492382D02*
X-5933848Y4587620D01*
X-5933848Y4587620D02*
X-5933848Y4730477D01*
X-5933848Y4730477D02*
X-5886229Y4825715D01*
X-5886229Y4825715D02*
X-5790991Y4873334D01*
X-5790991Y4873334D02*
X-5267181Y4873334D01*
X-5790991Y4873334D02*
X-5886229Y4920953D01*
X-5886229Y4920953D02*
X-5933848Y5016191D01*
X-5933848Y5016191D02*
X-5933848Y5159048D01*
X-5933848Y5159048D02*
X-5886229Y5254287D01*
X-5886229Y5254287D02*
X-5790991Y5301906D01*
X-5790991Y5301906D02*
X-5267181Y5301906D01*
X-5267181Y5778096D02*
X-5933848Y5778096D01*
X-5838610Y5778096D02*
X-5886229Y5825715D01*
X-5886229Y5825715D02*
X-5933848Y5920953D01*
X-5933848Y5920953D02*
X-5933848Y6063810D01*
X-5933848Y6063810D02*
X-5886229Y6159048D01*
X-5886229Y6159048D02*
X-5790991Y6206667D01*
X-5790991Y6206667D02*
X-5267181Y6206667D01*
X-5790991Y6206667D02*
X-5886229Y6254286D01*
X-5886229Y6254286D02*
X-5933848Y6349524D01*
X-5933848Y6349524D02*
X-5933848Y6492381D01*
X-5933848Y6492381D02*
X-5886229Y6587620D01*
X-5886229Y6587620D02*
X-5790991Y6635239D01*
X-5790991Y6635239D02*
X-5267181Y6635239D01*
D11*
X4580000Y5080000D02*
X-5158420Y5080000D01*
X4580000Y0D02*
X-5158420Y0D01*
X-4572000Y5080000D02*
X-4572000Y0D01*
X-4572000Y5080000D02*
X-4572000Y0D01*
X-4572000Y5080000D02*
X-3985579Y3953496D01*
X-4572000Y5080000D02*
X-5158421Y3953496D01*
X-4572000Y0D02*
X-5158421Y1126504D01*
X-4572000Y0D02*
X-3985579Y1126504D01*
D10*
X-3736610Y40878530D02*
X-3784229Y40783292D01*
X-3784229Y40783292D02*
X-3831848Y40735673D01*
X-3831848Y40735673D02*
X-3927086Y40688054D01*
X-3927086Y40688054D02*
X-3974705Y40688054D01*
X-3974705Y40688054D02*
X-4069943Y40735673D01*
X-4069943Y40735673D02*
X-4117562Y40783292D01*
X-4117562Y40783292D02*
X-4165181Y40878530D01*
X-4165181Y40878530D02*
X-4165181Y41069006D01*
X-4165181Y41069006D02*
X-4117562Y41164244D01*
X-4117562Y41164244D02*
X-4069943Y41211863D01*
X-4069943Y41211863D02*
X-3974705Y41259482D01*
X-3974705Y41259482D02*
X-3927086Y41259482D01*
X-3927086Y41259482D02*
X-3831848Y41211863D01*
X-3831848Y41211863D02*
X-3784229Y41164244D01*
X-3784229Y41164244D02*
X-3736610Y41069006D01*
X-3736610Y41069006D02*
X-3736610Y40878530D01*
X-3736610Y40878530D02*
X-3688991Y40783292D01*
X-3688991Y40783292D02*
X-3641372Y40735673D01*
X-3641372Y40735673D02*
X-3546134Y40688054D01*
X-3546134Y40688054D02*
X-3355658Y40688054D01*
X-3355658Y40688054D02*
X-3260420Y40735673D01*
X-3260420Y40735673D02*
X-3212800Y40783292D01*
X-3212800Y40783292D02*
X-3165181Y40878530D01*
X-3165181Y40878530D02*
X-3165181Y41069006D01*
X-3165181Y41069006D02*
X-3212800Y41164244D01*
X-3212800Y41164244D02*
X-3260420Y41211863D01*
X-3260420Y41211863D02*
X-3355658Y41259482D01*
X-3355658Y41259482D02*
X-3546134Y41259482D01*
X-3546134Y41259482D02*
X-3641372Y41211863D01*
X-3641372Y41211863D02*
X-3688991Y41164244D01*
X-3688991Y41164244D02*
X-3736610Y41069006D01*
X-3736610Y41830911D02*
X-3784229Y41735673D01*
X-3784229Y41735673D02*
X-3831848Y41688054D01*
X-3831848Y41688054D02*
X-3927086Y41640435D01*
X-3927086Y41640435D02*
X-3974705Y41640435D01*
X-3974705Y41640435D02*
X-4069943Y41688054D01*
X-4069943Y41688054D02*
X-4117562Y41735673D01*
X-4117562Y41735673D02*
X-4165181Y41830911D01*
X-4165181Y41830911D02*
X-4165181Y42021387D01*
X-4165181Y42021387D02*
X-4117562Y42116625D01*
X-4117562Y42116625D02*
X-4069943Y42164244D01*
X-4069943Y42164244D02*
X-3974705Y42211863D01*
X-3974705Y42211863D02*
X-3927086Y42211863D01*
X-3927086Y42211863D02*
X-3831848Y42164244D01*
X-3831848Y42164244D02*
X-3784229Y42116625D01*
X-3784229Y42116625D02*
X-3736610Y42021387D01*
X-3736610Y42021387D02*
X-3736610Y41830911D01*
X-3736610Y41830911D02*
X-3688991Y41735673D01*
X-3688991Y41735673D02*
X-3641372Y41688054D01*
X-3641372Y41688054D02*
X-3546134Y41640435D01*
X-3546134Y41640435D02*
X-3355658Y41640435D01*
X-3355658Y41640435D02*
X-3260420Y41688054D01*
X-3260420Y41688054D02*
X-3212800Y41735673D01*
X-3212800Y41735673D02*
X-3165181Y41830911D01*
X-3165181Y41830911D02*
X-3165181Y42021387D01*
X-3165181Y42021387D02*
X-3212800Y42116625D01*
X-3212800Y42116625D02*
X-3260420Y42164244D01*
X-3260420Y42164244D02*
X-3355658Y42211863D01*
X-3355658Y42211863D02*
X-3546134Y42211863D01*
X-3546134Y42211863D02*
X-3641372Y42164244D01*
X-3641372Y42164244D02*
X-3688991Y42116625D01*
X-3688991Y42116625D02*
X-3736610Y42021387D01*
X-3260420Y42640435D02*
X-3212800Y42688054D01*
X-3212800Y42688054D02*
X-3165181Y42640435D01*
X-3165181Y42640435D02*
X-3212800Y42592816D01*
X-3212800Y42592816D02*
X-3260420Y42640435D01*
X-3260420Y42640435D02*
X-3165181Y42640435D01*
X-4069943Y43069006D02*
X-4117562Y43116625D01*
X-4117562Y43116625D02*
X-4165181Y43211863D01*
X-4165181Y43211863D02*
X-4165181Y43449958D01*
X-4165181Y43449958D02*
X-4117562Y43545196D01*
X-4117562Y43545196D02*
X-4069943Y43592815D01*
X-4069943Y43592815D02*
X-3974705Y43640434D01*
X-3974705Y43640434D02*
X-3879467Y43640434D01*
X-3879467Y43640434D02*
X-3736610Y43592815D01*
X-3736610Y43592815D02*
X-3165181Y43021387D01*
X-3165181Y43021387D02*
X-3165181Y43640434D01*
X-4165181Y44497577D02*
X-4165181Y44307101D01*
X-4165181Y44307101D02*
X-4117562Y44211863D01*
X-4117562Y44211863D02*
X-4069943Y44164244D01*
X-4069943Y44164244D02*
X-3927086Y44069006D01*
X-3927086Y44069006D02*
X-3736610Y44021387D01*
X-3736610Y44021387D02*
X-3355658Y44021387D01*
X-3355658Y44021387D02*
X-3260420Y44069006D01*
X-3260420Y44069006D02*
X-3212800Y44116625D01*
X-3212800Y44116625D02*
X-3165181Y44211863D01*
X-3165181Y44211863D02*
X-3165181Y44402339D01*
X-3165181Y44402339D02*
X-3212800Y44497577D01*
X-3212800Y44497577D02*
X-3260420Y44545196D01*
X-3260420Y44545196D02*
X-3355658Y44592815D01*
X-3355658Y44592815D02*
X-3593753Y44592815D01*
X-3593753Y44592815D02*
X-3688991Y44545196D01*
X-3688991Y44545196D02*
X-3736610Y44497577D01*
X-3736610Y44497577D02*
X-3784229Y44402339D01*
X-3784229Y44402339D02*
X-3784229Y44211863D01*
X-3784229Y44211863D02*
X-3736610Y44116625D01*
X-3736610Y44116625D02*
X-3688991Y44069006D01*
X-3688991Y44069006D02*
X-3593753Y44021387D01*
X-4165181Y45497577D02*
X-4165181Y45021387D01*
X-4165181Y45021387D02*
X-3688991Y44973768D01*
X-3688991Y44973768D02*
X-3736610Y45021387D01*
X-3736610Y45021387D02*
X-3784229Y45116625D01*
X-3784229Y45116625D02*
X-3784229Y45354720D01*
X-3784229Y45354720D02*
X-3736610Y45449958D01*
X-3736610Y45449958D02*
X-3688991Y45497577D01*
X-3688991Y45497577D02*
X-3593753Y45545196D01*
X-3593753Y45545196D02*
X-3355658Y45545196D01*
X-3355658Y45545196D02*
X-3260420Y45497577D01*
X-3260420Y45497577D02*
X-3212800Y45449958D01*
X-3212800Y45449958D02*
X-3165181Y45354720D01*
X-3165181Y45354720D02*
X-3165181Y45116625D01*
X-3165181Y45116625D02*
X-3212800Y45021387D01*
X-3212800Y45021387D02*
X-3260420Y44973768D01*
X-4165181Y46164244D02*
X-4165181Y46259482D01*
X-4165181Y46259482D02*
X-4117562Y46354720D01*
X-4117562Y46354720D02*
X-4069943Y46402339D01*
X-4069943Y46402339D02*
X-3974705Y46449958D01*
X-3974705Y46449958D02*
X-3784229Y46497577D01*
X-3784229Y46497577D02*
X-3546134Y46497577D01*
X-3546134Y46497577D02*
X-3355658Y46449958D01*
X-3355658Y46449958D02*
X-3260420Y46402339D01*
X-3260420Y46402339D02*
X-3212800Y46354720D01*
X-3212800Y46354720D02*
X-3165181Y46259482D01*
X-3165181Y46259482D02*
X-3165181Y46164244D01*
X-3165181Y46164244D02*
X-3212800Y46069006D01*
X-3212800Y46069006D02*
X-3260420Y46021387D01*
X-3260420Y46021387D02*
X-3355658Y45973768D01*
X-3355658Y45973768D02*
X-3546134Y45926149D01*
X-3546134Y45926149D02*
X-3784229Y45926149D01*
X-3784229Y45926149D02*
X-3974705Y45973768D01*
X-3974705Y45973768D02*
X-4069943Y46021387D01*
X-4069943Y46021387D02*
X-4117562Y46069006D01*
X-4117562Y46069006D02*
X-4165181Y46164244D01*
X-3165181Y47688054D02*
X-3831848Y47688054D01*
X-3736610Y47688054D02*
X-3784229Y47735673D01*
X-3784229Y47735673D02*
X-3831848Y47830911D01*
X-3831848Y47830911D02*
X-3831848Y47973768D01*
X-3831848Y47973768D02*
X-3784229Y48069006D01*
X-3784229Y48069006D02*
X-3688991Y48116625D01*
X-3688991Y48116625D02*
X-3165181Y48116625D01*
X-3688991Y48116625D02*
X-3784229Y48164244D01*
X-3784229Y48164244D02*
X-3831848Y48259482D01*
X-3831848Y48259482D02*
X-3831848Y48402339D01*
X-3831848Y48402339D02*
X-3784229Y48497578D01*
X-3784229Y48497578D02*
X-3688991Y48545197D01*
X-3688991Y48545197D02*
X-3165181Y48545197D01*
X-3165181Y49021387D02*
X-3831848Y49021387D01*
X-3736610Y49021387D02*
X-3784229Y49069006D01*
X-3784229Y49069006D02*
X-3831848Y49164244D01*
X-3831848Y49164244D02*
X-3831848Y49307101D01*
X-3831848Y49307101D02*
X-3784229Y49402339D01*
X-3784229Y49402339D02*
X-3688991Y49449958D01*
X-3688991Y49449958D02*
X-3165181Y49449958D01*
X-3688991Y49449958D02*
X-3784229Y49497577D01*
X-3784229Y49497577D02*
X-3831848Y49592815D01*
X-3831848Y49592815D02*
X-3831848Y49735672D01*
X-3831848Y49735672D02*
X-3784229Y49830911D01*
X-3784229Y49830911D02*
X-3688991Y49878530D01*
X-3688991Y49878530D02*
X-3165181Y49878530D01*
D11*
X15267200Y1174600D02*
X-3056420Y1174600D01*
X15267200Y89439600D02*
X-3056420Y89439600D01*
X-2470000Y1174600D02*
X-2470000Y89439600D01*
X-2470000Y1174600D02*
X-2470000Y89439600D01*
X-2470000Y1174600D02*
X-3056421Y2301104D01*
X-2470000Y1174600D02*
X-1883579Y2301104D01*
X-2470000Y89439600D02*
X-1883579Y88313096D01*
X-2470000Y89439600D02*
X-3056421Y88313096D01*
D10*
X-24875981Y43418692D02*
X-24875981Y43609168D01*
X-24875981Y43609168D02*
X-24923600Y43704406D01*
X-24923600Y43704406D02*
X-24971220Y43752025D01*
X-24971220Y43752025D02*
X-25114077Y43847263D01*
X-25114077Y43847263D02*
X-25304553Y43894882D01*
X-25304553Y43894882D02*
X-25685505Y43894882D01*
X-25685505Y43894882D02*
X-25780743Y43847263D01*
X-25780743Y43847263D02*
X-25828362Y43799644D01*
X-25828362Y43799644D02*
X-25875981Y43704406D01*
X-25875981Y43704406D02*
X-25875981Y43513930D01*
X-25875981Y43513930D02*
X-25828362Y43418692D01*
X-25828362Y43418692D02*
X-25780743Y43371073D01*
X-25780743Y43371073D02*
X-25685505Y43323454D01*
X-25685505Y43323454D02*
X-25447410Y43323454D01*
X-25447410Y43323454D02*
X-25352172Y43371073D01*
X-25352172Y43371073D02*
X-25304553Y43418692D01*
X-25304553Y43418692D02*
X-25256934Y43513930D01*
X-25256934Y43513930D02*
X-25256934Y43704406D01*
X-25256934Y43704406D02*
X-25304553Y43799644D01*
X-25304553Y43799644D02*
X-25352172Y43847263D01*
X-25352172Y43847263D02*
X-25447410Y43894882D01*
X-25875981Y44799644D02*
X-25875981Y44323454D01*
X-25875981Y44323454D02*
X-25399791Y44275835D01*
X-25399791Y44275835D02*
X-25447410Y44323454D01*
X-25447410Y44323454D02*
X-25495029Y44418692D01*
X-25495029Y44418692D02*
X-25495029Y44656787D01*
X-25495029Y44656787D02*
X-25447410Y44752025D01*
X-25447410Y44752025D02*
X-25399791Y44799644D01*
X-25399791Y44799644D02*
X-25304553Y44847263D01*
X-25304553Y44847263D02*
X-25066458Y44847263D01*
X-25066458Y44847263D02*
X-24971220Y44799644D01*
X-24971220Y44799644D02*
X-24923600Y44752025D01*
X-24923600Y44752025D02*
X-24875981Y44656787D01*
X-24875981Y44656787D02*
X-24875981Y44418692D01*
X-24875981Y44418692D02*
X-24923600Y44323454D01*
X-24923600Y44323454D02*
X-24971220Y44275835D01*
X-24971220Y45275835D02*
X-24923600Y45323454D01*
X-24923600Y45323454D02*
X-24875981Y45275835D01*
X-24875981Y45275835D02*
X-24923600Y45228216D01*
X-24923600Y45228216D02*
X-24971220Y45275835D01*
X-24971220Y45275835D02*
X-24875981Y45275835D01*
X-25447410Y45894882D02*
X-25495029Y45799644D01*
X-25495029Y45799644D02*
X-25542648Y45752025D01*
X-25542648Y45752025D02*
X-25637886Y45704406D01*
X-25637886Y45704406D02*
X-25685505Y45704406D01*
X-25685505Y45704406D02*
X-25780743Y45752025D01*
X-25780743Y45752025D02*
X-25828362Y45799644D01*
X-25828362Y45799644D02*
X-25875981Y45894882D01*
X-25875981Y45894882D02*
X-25875981Y46085358D01*
X-25875981Y46085358D02*
X-25828362Y46180596D01*
X-25828362Y46180596D02*
X-25780743Y46228215D01*
X-25780743Y46228215D02*
X-25685505Y46275834D01*
X-25685505Y46275834D02*
X-25637886Y46275834D01*
X-25637886Y46275834D02*
X-25542648Y46228215D01*
X-25542648Y46228215D02*
X-25495029Y46180596D01*
X-25495029Y46180596D02*
X-25447410Y46085358D01*
X-25447410Y46085358D02*
X-25447410Y45894882D01*
X-25447410Y45894882D02*
X-25399791Y45799644D01*
X-25399791Y45799644D02*
X-25352172Y45752025D01*
X-25352172Y45752025D02*
X-25256934Y45704406D01*
X-25256934Y45704406D02*
X-25066458Y45704406D01*
X-25066458Y45704406D02*
X-24971220Y45752025D01*
X-24971220Y45752025D02*
X-24923600Y45799644D01*
X-24923600Y45799644D02*
X-24875981Y45894882D01*
X-24875981Y45894882D02*
X-24875981Y46085358D01*
X-24875981Y46085358D02*
X-24923600Y46180596D01*
X-24923600Y46180596D02*
X-24971220Y46228215D01*
X-24971220Y46228215D02*
X-25066458Y46275834D01*
X-25066458Y46275834D02*
X-25256934Y46275834D01*
X-25256934Y46275834D02*
X-25352172Y46228215D01*
X-25352172Y46228215D02*
X-25399791Y46180596D01*
X-25399791Y46180596D02*
X-25447410Y46085358D01*
X-25447410Y46847263D02*
X-25495029Y46752025D01*
X-25495029Y46752025D02*
X-25542648Y46704406D01*
X-25542648Y46704406D02*
X-25637886Y46656787D01*
X-25637886Y46656787D02*
X-25685505Y46656787D01*
X-25685505Y46656787D02*
X-25780743Y46704406D01*
X-25780743Y46704406D02*
X-25828362Y46752025D01*
X-25828362Y46752025D02*
X-25875981Y46847263D01*
X-25875981Y46847263D02*
X-25875981Y47037739D01*
X-25875981Y47037739D02*
X-25828362Y47132977D01*
X-25828362Y47132977D02*
X-25780743Y47180596D01*
X-25780743Y47180596D02*
X-25685505Y47228215D01*
X-25685505Y47228215D02*
X-25637886Y47228215D01*
X-25637886Y47228215D02*
X-25542648Y47180596D01*
X-25542648Y47180596D02*
X-25495029Y47132977D01*
X-25495029Y47132977D02*
X-25447410Y47037739D01*
X-25447410Y47037739D02*
X-25447410Y46847263D01*
X-25447410Y46847263D02*
X-25399791Y46752025D01*
X-25399791Y46752025D02*
X-25352172Y46704406D01*
X-25352172Y46704406D02*
X-25256934Y46656787D01*
X-25256934Y46656787D02*
X-25066458Y46656787D01*
X-25066458Y46656787D02*
X-24971220Y46704406D01*
X-24971220Y46704406D02*
X-24923600Y46752025D01*
X-24923600Y46752025D02*
X-24875981Y46847263D01*
X-24875981Y46847263D02*
X-24875981Y47037739D01*
X-24875981Y47037739D02*
X-24923600Y47132977D01*
X-24923600Y47132977D02*
X-24971220Y47180596D01*
X-24971220Y47180596D02*
X-25066458Y47228215D01*
X-25066458Y47228215D02*
X-25256934Y47228215D01*
X-25256934Y47228215D02*
X-25352172Y47180596D01*
X-25352172Y47180596D02*
X-25399791Y47132977D01*
X-25399791Y47132977D02*
X-25447410Y47037739D01*
X-25875981Y48132977D02*
X-25875981Y47656787D01*
X-25875981Y47656787D02*
X-25399791Y47609168D01*
X-25399791Y47609168D02*
X-25447410Y47656787D01*
X-25447410Y47656787D02*
X-25495029Y47752025D01*
X-25495029Y47752025D02*
X-25495029Y47990120D01*
X-25495029Y47990120D02*
X-25447410Y48085358D01*
X-25447410Y48085358D02*
X-25399791Y48132977D01*
X-25399791Y48132977D02*
X-25304553Y48180596D01*
X-25304553Y48180596D02*
X-25066458Y48180596D01*
X-25066458Y48180596D02*
X-24971220Y48132977D01*
X-24971220Y48132977D02*
X-24923600Y48085358D01*
X-24923600Y48085358D02*
X-24875981Y47990120D01*
X-24875981Y47990120D02*
X-24875981Y47752025D01*
X-24875981Y47752025D02*
X-24923600Y47656787D01*
X-24923600Y47656787D02*
X-24971220Y47609168D01*
X-25875981Y48799644D02*
X-25875981Y48894882D01*
X-25875981Y48894882D02*
X-25828362Y48990120D01*
X-25828362Y48990120D02*
X-25780743Y49037739D01*
X-25780743Y49037739D02*
X-25685505Y49085358D01*
X-25685505Y49085358D02*
X-25495029Y49132977D01*
X-25495029Y49132977D02*
X-25256934Y49132977D01*
X-25256934Y49132977D02*
X-25066458Y49085358D01*
X-25066458Y49085358D02*
X-24971220Y49037739D01*
X-24971220Y49037739D02*
X-24923600Y48990120D01*
X-24923600Y48990120D02*
X-24875981Y48894882D01*
X-24875981Y48894882D02*
X-24875981Y48799644D01*
X-24875981Y48799644D02*
X-24923600Y48704406D01*
X-24923600Y48704406D02*
X-24971220Y48656787D01*
X-24971220Y48656787D02*
X-25066458Y48609168D01*
X-25066458Y48609168D02*
X-25256934Y48561549D01*
X-25256934Y48561549D02*
X-25495029Y48561549D01*
X-25495029Y48561549D02*
X-25685505Y48609168D01*
X-25685505Y48609168D02*
X-25780743Y48656787D01*
X-25780743Y48656787D02*
X-25828362Y48704406D01*
X-25828362Y48704406D02*
X-25875981Y48799644D01*
X-24875981Y50323454D02*
X-25542648Y50323454D01*
X-25447410Y50323454D02*
X-25495029Y50371073D01*
X-25495029Y50371073D02*
X-25542648Y50466311D01*
X-25542648Y50466311D02*
X-25542648Y50609168D01*
X-25542648Y50609168D02*
X-25495029Y50704406D01*
X-25495029Y50704406D02*
X-25399791Y50752025D01*
X-25399791Y50752025D02*
X-24875981Y50752025D01*
X-25399791Y50752025D02*
X-25495029Y50799644D01*
X-25495029Y50799644D02*
X-25542648Y50894882D01*
X-25542648Y50894882D02*
X-25542648Y51037739D01*
X-25542648Y51037739D02*
X-25495029Y51132978D01*
X-25495029Y51132978D02*
X-25399791Y51180597D01*
X-25399791Y51180597D02*
X-24875981Y51180597D01*
X-24875981Y51656787D02*
X-25542648Y51656787D01*
X-25447410Y51656787D02*
X-25495029Y51704406D01*
X-25495029Y51704406D02*
X-25542648Y51799644D01*
X-25542648Y51799644D02*
X-25542648Y51942501D01*
X-25542648Y51942501D02*
X-25495029Y52037739D01*
X-25495029Y52037739D02*
X-25399791Y52085358D01*
X-25399791Y52085358D02*
X-24875981Y52085358D01*
X-25399791Y52085358D02*
X-25495029Y52132977D01*
X-25495029Y52132977D02*
X-25542648Y52228215D01*
X-25542648Y52228215D02*
X-25542648Y52371072D01*
X-25542648Y52371072D02*
X-25495029Y52466311D01*
X-25495029Y52466311D02*
X-25399791Y52513930D01*
X-25399791Y52513930D02*
X-24875981Y52513930D01*
D11*
X452500Y95885000D02*
X-24767220Y95885000D01*
X452500Y0D02*
X-24767220Y0D01*
X-24180800Y95885000D02*
X-24180800Y0D01*
X-24180800Y95885000D02*
X-24180800Y0D01*
X-24180800Y95885000D02*
X-23594379Y94758496D01*
X-24180800Y95885000D02*
X-24767221Y94758496D01*
X-24180800Y0D02*
X-24767221Y1126504D01*
X-24180800Y0D02*
X-23594379Y1126504D01*
D10*
X38116429Y-6404189D02*
X38021191Y-6356570D01*
X38021191Y-6356570D02*
X37973572Y-6308951D01*
X37973572Y-6308951D02*
X37925953Y-6213713D01*
X37925953Y-6213713D02*
X37925953Y-6166094D01*
X37925953Y-6166094D02*
X37973572Y-6070856D01*
X37973572Y-6070856D02*
X38021191Y-6023237D01*
X38021191Y-6023237D02*
X38116429Y-5975618D01*
X38116429Y-5975618D02*
X38306905Y-5975618D01*
X38306905Y-5975618D02*
X38402143Y-6023237D01*
X38402143Y-6023237D02*
X38449762Y-6070856D01*
X38449762Y-6070856D02*
X38497381Y-6166094D01*
X38497381Y-6166094D02*
X38497381Y-6213713D01*
X38497381Y-6213713D02*
X38449762Y-6308951D01*
X38449762Y-6308951D02*
X38402143Y-6356570D01*
X38402143Y-6356570D02*
X38306905Y-6404189D01*
X38306905Y-6404189D02*
X38116429Y-6404189D01*
X38116429Y-6404189D02*
X38021191Y-6451808D01*
X38021191Y-6451808D02*
X37973572Y-6499427D01*
X37973572Y-6499427D02*
X37925953Y-6594665D01*
X37925953Y-6594665D02*
X37925953Y-6785141D01*
X37925953Y-6785141D02*
X37973572Y-6880379D01*
X37973572Y-6880379D02*
X38021191Y-6927999D01*
X38021191Y-6927999D02*
X38116429Y-6975618D01*
X38116429Y-6975618D02*
X38306905Y-6975618D01*
X38306905Y-6975618D02*
X38402143Y-6927999D01*
X38402143Y-6927999D02*
X38449762Y-6880379D01*
X38449762Y-6880379D02*
X38497381Y-6785141D01*
X38497381Y-6785141D02*
X38497381Y-6594665D01*
X38497381Y-6594665D02*
X38449762Y-6499427D01*
X38449762Y-6499427D02*
X38402143Y-6451808D01*
X38402143Y-6451808D02*
X38306905Y-6404189D01*
X39402143Y-5975618D02*
X38925953Y-5975618D01*
X38925953Y-5975618D02*
X38878334Y-6451808D01*
X38878334Y-6451808D02*
X38925953Y-6404189D01*
X38925953Y-6404189D02*
X39021191Y-6356570D01*
X39021191Y-6356570D02*
X39259286Y-6356570D01*
X39259286Y-6356570D02*
X39354524Y-6404189D01*
X39354524Y-6404189D02*
X39402143Y-6451808D01*
X39402143Y-6451808D02*
X39449762Y-6547046D01*
X39449762Y-6547046D02*
X39449762Y-6785141D01*
X39449762Y-6785141D02*
X39402143Y-6880379D01*
X39402143Y-6880379D02*
X39354524Y-6927999D01*
X39354524Y-6927999D02*
X39259286Y-6975618D01*
X39259286Y-6975618D02*
X39021191Y-6975618D01*
X39021191Y-6975618D02*
X38925953Y-6927999D01*
X38925953Y-6927999D02*
X38878334Y-6880379D01*
X39878334Y-6880379D02*
X39925953Y-6927999D01*
X39925953Y-6927999D02*
X39878334Y-6975618D01*
X39878334Y-6975618D02*
X39830715Y-6927999D01*
X39830715Y-6927999D02*
X39878334Y-6880379D01*
X39878334Y-6880379D02*
X39878334Y-6975618D01*
X40545000Y-5975618D02*
X40640238Y-5975618D01*
X40640238Y-5975618D02*
X40735476Y-6023237D01*
X40735476Y-6023237D02*
X40783095Y-6070856D01*
X40783095Y-6070856D02*
X40830714Y-6166094D01*
X40830714Y-6166094D02*
X40878333Y-6356570D01*
X40878333Y-6356570D02*
X40878333Y-6594665D01*
X40878333Y-6594665D02*
X40830714Y-6785141D01*
X40830714Y-6785141D02*
X40783095Y-6880379D01*
X40783095Y-6880379D02*
X40735476Y-6927999D01*
X40735476Y-6927999D02*
X40640238Y-6975618D01*
X40640238Y-6975618D02*
X40545000Y-6975618D01*
X40545000Y-6975618D02*
X40449762Y-6927999D01*
X40449762Y-6927999D02*
X40402143Y-6880379D01*
X40402143Y-6880379D02*
X40354524Y-6785141D01*
X40354524Y-6785141D02*
X40306905Y-6594665D01*
X40306905Y-6594665D02*
X40306905Y-6356570D01*
X40306905Y-6356570D02*
X40354524Y-6166094D01*
X40354524Y-6166094D02*
X40402143Y-6070856D01*
X40402143Y-6070856D02*
X40449762Y-6023237D01*
X40449762Y-6023237D02*
X40545000Y-5975618D01*
X41354524Y-6975618D02*
X41545000Y-6975618D01*
X41545000Y-6975618D02*
X41640238Y-6927999D01*
X41640238Y-6927999D02*
X41687857Y-6880379D01*
X41687857Y-6880379D02*
X41783095Y-6737522D01*
X41783095Y-6737522D02*
X41830714Y-6547046D01*
X41830714Y-6547046D02*
X41830714Y-6166094D01*
X41830714Y-6166094D02*
X41783095Y-6070856D01*
X41783095Y-6070856D02*
X41735476Y-6023237D01*
X41735476Y-6023237D02*
X41640238Y-5975618D01*
X41640238Y-5975618D02*
X41449762Y-5975618D01*
X41449762Y-5975618D02*
X41354524Y-6023237D01*
X41354524Y-6023237D02*
X41306905Y-6070856D01*
X41306905Y-6070856D02*
X41259286Y-6166094D01*
X41259286Y-6166094D02*
X41259286Y-6404189D01*
X41259286Y-6404189D02*
X41306905Y-6499427D01*
X41306905Y-6499427D02*
X41354524Y-6547046D01*
X41354524Y-6547046D02*
X41449762Y-6594665D01*
X41449762Y-6594665D02*
X41640238Y-6594665D01*
X41640238Y-6594665D02*
X41735476Y-6547046D01*
X41735476Y-6547046D02*
X41783095Y-6499427D01*
X41783095Y-6499427D02*
X41830714Y-6404189D01*
X42449762Y-5975618D02*
X42545000Y-5975618D01*
X42545000Y-5975618D02*
X42640238Y-6023237D01*
X42640238Y-6023237D02*
X42687857Y-6070856D01*
X42687857Y-6070856D02*
X42735476Y-6166094D01*
X42735476Y-6166094D02*
X42783095Y-6356570D01*
X42783095Y-6356570D02*
X42783095Y-6594665D01*
X42783095Y-6594665D02*
X42735476Y-6785141D01*
X42735476Y-6785141D02*
X42687857Y-6880379D01*
X42687857Y-6880379D02*
X42640238Y-6927999D01*
X42640238Y-6927999D02*
X42545000Y-6975618D01*
X42545000Y-6975618D02*
X42449762Y-6975618D01*
X42449762Y-6975618D02*
X42354524Y-6927999D01*
X42354524Y-6927999D02*
X42306905Y-6880379D01*
X42306905Y-6880379D02*
X42259286Y-6785141D01*
X42259286Y-6785141D02*
X42211667Y-6594665D01*
X42211667Y-6594665D02*
X42211667Y-6356570D01*
X42211667Y-6356570D02*
X42259286Y-6166094D01*
X42259286Y-6166094D02*
X42306905Y-6070856D01*
X42306905Y-6070856D02*
X42354524Y-6023237D01*
X42354524Y-6023237D02*
X42449762Y-5975618D01*
X43402143Y-5975618D02*
X43497381Y-5975618D01*
X43497381Y-5975618D02*
X43592619Y-6023237D01*
X43592619Y-6023237D02*
X43640238Y-6070856D01*
X43640238Y-6070856D02*
X43687857Y-6166094D01*
X43687857Y-6166094D02*
X43735476Y-6356570D01*
X43735476Y-6356570D02*
X43735476Y-6594665D01*
X43735476Y-6594665D02*
X43687857Y-6785141D01*
X43687857Y-6785141D02*
X43640238Y-6880379D01*
X43640238Y-6880379D02*
X43592619Y-6927999D01*
X43592619Y-6927999D02*
X43497381Y-6975618D01*
X43497381Y-6975618D02*
X43402143Y-6975618D01*
X43402143Y-6975618D02*
X43306905Y-6927999D01*
X43306905Y-6927999D02*
X43259286Y-6880379D01*
X43259286Y-6880379D02*
X43211667Y-6785141D01*
X43211667Y-6785141D02*
X43164048Y-6594665D01*
X43164048Y-6594665D02*
X43164048Y-6356570D01*
X43164048Y-6356570D02*
X43211667Y-6166094D01*
X43211667Y-6166094D02*
X43259286Y-6070856D01*
X43259286Y-6070856D02*
X43306905Y-6023237D01*
X43306905Y-6023237D02*
X43402143Y-5975618D01*
X44925953Y-6975618D02*
X44925953Y-6308951D01*
X44925953Y-6404189D02*
X44973572Y-6356570D01*
X44973572Y-6356570D02*
X45068810Y-6308951D01*
X45068810Y-6308951D02*
X45211667Y-6308951D01*
X45211667Y-6308951D02*
X45306905Y-6356570D01*
X45306905Y-6356570D02*
X45354524Y-6451808D01*
X45354524Y-6451808D02*
X45354524Y-6975618D01*
X45354524Y-6451808D02*
X45402143Y-6356570D01*
X45402143Y-6356570D02*
X45497381Y-6308951D01*
X45497381Y-6308951D02*
X45640238Y-6308951D01*
X45640238Y-6308951D02*
X45735477Y-6356570D01*
X45735477Y-6356570D02*
X45783096Y-6451808D01*
X45783096Y-6451808D02*
X45783096Y-6975618D01*
X46259286Y-6975618D02*
X46259286Y-6308951D01*
X46259286Y-6404189D02*
X46306905Y-6356570D01*
X46306905Y-6356570D02*
X46402143Y-6308951D01*
X46402143Y-6308951D02*
X46545000Y-6308951D01*
X46545000Y-6308951D02*
X46640238Y-6356570D01*
X46640238Y-6356570D02*
X46687857Y-6451808D01*
X46687857Y-6451808D02*
X46687857Y-6975618D01*
X46687857Y-6451808D02*
X46735476Y-6356570D01*
X46735476Y-6356570D02*
X46830714Y-6308951D01*
X46830714Y-6308951D02*
X46973571Y-6308951D01*
X46973571Y-6308951D02*
X47068810Y-6356570D01*
X47068810Y-6356570D02*
X47116429Y-6451808D01*
X47116429Y-6451808D02*
X47116429Y-6975618D01*
D11*
X0Y-500000D02*
X0Y-8257219D01*
X85090000Y-500000D02*
X85090000Y-8257219D01*
X0Y-7670799D02*
X85090000Y-7670799D01*
X0Y-7670799D02*
X85090000Y-7670799D01*
X0Y-7670799D02*
X1126504Y-7084378D01*
X0Y-7670799D02*
X1126504Y-8257220D01*
X85090000Y-7670799D02*
X83963496Y-8257220D01*
X85090000Y-7670799D02*
X83963496Y-7084378D01*
D10*
X-19503810Y39703930D02*
X-19551429Y39608692D01*
X-19551429Y39608692D02*
X-19599048Y39561073D01*
X-19599048Y39561073D02*
X-19694286Y39513454D01*
X-19694286Y39513454D02*
X-19741905Y39513454D01*
X-19741905Y39513454D02*
X-19837143Y39561073D01*
X-19837143Y39561073D02*
X-19884762Y39608692D01*
X-19884762Y39608692D02*
X-19932381Y39703930D01*
X-19932381Y39703930D02*
X-19932381Y39894406D01*
X-19932381Y39894406D02*
X-19884762Y39989644D01*
X-19884762Y39989644D02*
X-19837143Y40037263D01*
X-19837143Y40037263D02*
X-19741905Y40084882D01*
X-19741905Y40084882D02*
X-19694286Y40084882D01*
X-19694286Y40084882D02*
X-19599048Y40037263D01*
X-19599048Y40037263D02*
X-19551429Y39989644D01*
X-19551429Y39989644D02*
X-19503810Y39894406D01*
X-19503810Y39894406D02*
X-19503810Y39703930D01*
X-19503810Y39703930D02*
X-19456191Y39608692D01*
X-19456191Y39608692D02*
X-19408572Y39561073D01*
X-19408572Y39561073D02*
X-19313334Y39513454D01*
X-19313334Y39513454D02*
X-19122858Y39513454D01*
X-19122858Y39513454D02*
X-19027620Y39561073D01*
X-19027620Y39561073D02*
X-18980000Y39608692D01*
X-18980000Y39608692D02*
X-18932381Y39703930D01*
X-18932381Y39703930D02*
X-18932381Y39894406D01*
X-18932381Y39894406D02*
X-18980000Y39989644D01*
X-18980000Y39989644D02*
X-19027620Y40037263D01*
X-19027620Y40037263D02*
X-19122858Y40084882D01*
X-19122858Y40084882D02*
X-19313334Y40084882D01*
X-19313334Y40084882D02*
X-19408572Y40037263D01*
X-19408572Y40037263D02*
X-19456191Y39989644D01*
X-19456191Y39989644D02*
X-19503810Y39894406D01*
X-19503810Y40656311D02*
X-19551429Y40561073D01*
X-19551429Y40561073D02*
X-19599048Y40513454D01*
X-19599048Y40513454D02*
X-19694286Y40465835D01*
X-19694286Y40465835D02*
X-19741905Y40465835D01*
X-19741905Y40465835D02*
X-19837143Y40513454D01*
X-19837143Y40513454D02*
X-19884762Y40561073D01*
X-19884762Y40561073D02*
X-19932381Y40656311D01*
X-19932381Y40656311D02*
X-19932381Y40846787D01*
X-19932381Y40846787D02*
X-19884762Y40942025D01*
X-19884762Y40942025D02*
X-19837143Y40989644D01*
X-19837143Y40989644D02*
X-19741905Y41037263D01*
X-19741905Y41037263D02*
X-19694286Y41037263D01*
X-19694286Y41037263D02*
X-19599048Y40989644D01*
X-19599048Y40989644D02*
X-19551429Y40942025D01*
X-19551429Y40942025D02*
X-19503810Y40846787D01*
X-19503810Y40846787D02*
X-19503810Y40656311D01*
X-19503810Y40656311D02*
X-19456191Y40561073D01*
X-19456191Y40561073D02*
X-19408572Y40513454D01*
X-19408572Y40513454D02*
X-19313334Y40465835D01*
X-19313334Y40465835D02*
X-19122858Y40465835D01*
X-19122858Y40465835D02*
X-19027620Y40513454D01*
X-19027620Y40513454D02*
X-18980000Y40561073D01*
X-18980000Y40561073D02*
X-18932381Y40656311D01*
X-18932381Y40656311D02*
X-18932381Y40846787D01*
X-18932381Y40846787D02*
X-18980000Y40942025D01*
X-18980000Y40942025D02*
X-19027620Y40989644D01*
X-19027620Y40989644D02*
X-19122858Y41037263D01*
X-19122858Y41037263D02*
X-19313334Y41037263D01*
X-19313334Y41037263D02*
X-19408572Y40989644D01*
X-19408572Y40989644D02*
X-19456191Y40942025D01*
X-19456191Y40942025D02*
X-19503810Y40846787D01*
X-19027620Y41465835D02*
X-18980000Y41513454D01*
X-18980000Y41513454D02*
X-18932381Y41465835D01*
X-18932381Y41465835D02*
X-18980000Y41418216D01*
X-18980000Y41418216D02*
X-19027620Y41465835D01*
X-19027620Y41465835D02*
X-18932381Y41465835D01*
X-19837143Y41894406D02*
X-19884762Y41942025D01*
X-19884762Y41942025D02*
X-19932381Y42037263D01*
X-19932381Y42037263D02*
X-19932381Y42275358D01*
X-19932381Y42275358D02*
X-19884762Y42370596D01*
X-19884762Y42370596D02*
X-19837143Y42418215D01*
X-19837143Y42418215D02*
X-19741905Y42465834D01*
X-19741905Y42465834D02*
X-19646667Y42465834D01*
X-19646667Y42465834D02*
X-19503810Y42418215D01*
X-19503810Y42418215D02*
X-18932381Y41846787D01*
X-18932381Y41846787D02*
X-18932381Y42465834D01*
X-19932381Y43322977D02*
X-19932381Y43132501D01*
X-19932381Y43132501D02*
X-19884762Y43037263D01*
X-19884762Y43037263D02*
X-19837143Y42989644D01*
X-19837143Y42989644D02*
X-19694286Y42894406D01*
X-19694286Y42894406D02*
X-19503810Y42846787D01*
X-19503810Y42846787D02*
X-19122858Y42846787D01*
X-19122858Y42846787D02*
X-19027620Y42894406D01*
X-19027620Y42894406D02*
X-18980000Y42942025D01*
X-18980000Y42942025D02*
X-18932381Y43037263D01*
X-18932381Y43037263D02*
X-18932381Y43227739D01*
X-18932381Y43227739D02*
X-18980000Y43322977D01*
X-18980000Y43322977D02*
X-19027620Y43370596D01*
X-19027620Y43370596D02*
X-19122858Y43418215D01*
X-19122858Y43418215D02*
X-19360953Y43418215D01*
X-19360953Y43418215D02*
X-19456191Y43370596D01*
X-19456191Y43370596D02*
X-19503810Y43322977D01*
X-19503810Y43322977D02*
X-19551429Y43227739D01*
X-19551429Y43227739D02*
X-19551429Y43037263D01*
X-19551429Y43037263D02*
X-19503810Y42942025D01*
X-19503810Y42942025D02*
X-19456191Y42894406D01*
X-19456191Y42894406D02*
X-19360953Y42846787D01*
X-19932381Y44322977D02*
X-19932381Y43846787D01*
X-19932381Y43846787D02*
X-19456191Y43799168D01*
X-19456191Y43799168D02*
X-19503810Y43846787D01*
X-19503810Y43846787D02*
X-19551429Y43942025D01*
X-19551429Y43942025D02*
X-19551429Y44180120D01*
X-19551429Y44180120D02*
X-19503810Y44275358D01*
X-19503810Y44275358D02*
X-19456191Y44322977D01*
X-19456191Y44322977D02*
X-19360953Y44370596D01*
X-19360953Y44370596D02*
X-19122858Y44370596D01*
X-19122858Y44370596D02*
X-19027620Y44322977D01*
X-19027620Y44322977D02*
X-18980000Y44275358D01*
X-18980000Y44275358D02*
X-18932381Y44180120D01*
X-18932381Y44180120D02*
X-18932381Y43942025D01*
X-18932381Y43942025D02*
X-18980000Y43846787D01*
X-18980000Y43846787D02*
X-19027620Y43799168D01*
X-19932381Y44989644D02*
X-19932381Y45084882D01*
X-19932381Y45084882D02*
X-19884762Y45180120D01*
X-19884762Y45180120D02*
X-19837143Y45227739D01*
X-19837143Y45227739D02*
X-19741905Y45275358D01*
X-19741905Y45275358D02*
X-19551429Y45322977D01*
X-19551429Y45322977D02*
X-19313334Y45322977D01*
X-19313334Y45322977D02*
X-19122858Y45275358D01*
X-19122858Y45275358D02*
X-19027620Y45227739D01*
X-19027620Y45227739D02*
X-18980000Y45180120D01*
X-18980000Y45180120D02*
X-18932381Y45084882D01*
X-18932381Y45084882D02*
X-18932381Y44989644D01*
X-18932381Y44989644D02*
X-18980000Y44894406D01*
X-18980000Y44894406D02*
X-19027620Y44846787D01*
X-19027620Y44846787D02*
X-19122858Y44799168D01*
X-19122858Y44799168D02*
X-19313334Y44751549D01*
X-19313334Y44751549D02*
X-19551429Y44751549D01*
X-19551429Y44751549D02*
X-19741905Y44799168D01*
X-19741905Y44799168D02*
X-19837143Y44846787D01*
X-19837143Y44846787D02*
X-19884762Y44894406D01*
X-19884762Y44894406D02*
X-19932381Y44989644D01*
X-18932381Y46513454D02*
X-19599048Y46513454D01*
X-19503810Y46513454D02*
X-19551429Y46561073D01*
X-19551429Y46561073D02*
X-19599048Y46656311D01*
X-19599048Y46656311D02*
X-19599048Y46799168D01*
X-19599048Y46799168D02*
X-19551429Y46894406D01*
X-19551429Y46894406D02*
X-19456191Y46942025D01*
X-19456191Y46942025D02*
X-18932381Y46942025D01*
X-19456191Y46942025D02*
X-19551429Y46989644D01*
X-19551429Y46989644D02*
X-19599048Y47084882D01*
X-19599048Y47084882D02*
X-19599048Y47227739D01*
X-19599048Y47227739D02*
X-19551429Y47322978D01*
X-19551429Y47322978D02*
X-19456191Y47370597D01*
X-19456191Y47370597D02*
X-18932381Y47370597D01*
X-18932381Y47846787D02*
X-19599048Y47846787D01*
X-19503810Y47846787D02*
X-19551429Y47894406D01*
X-19551429Y47894406D02*
X-19599048Y47989644D01*
X-19599048Y47989644D02*
X-19599048Y48132501D01*
X-19599048Y48132501D02*
X-19551429Y48227739D01*
X-19551429Y48227739D02*
X-19456191Y48275358D01*
X-19456191Y48275358D02*
X-18932381Y48275358D01*
X-19456191Y48275358D02*
X-19551429Y48322977D01*
X-19551429Y48322977D02*
X-19599048Y48418215D01*
X-19599048Y48418215D02*
X-19599048Y48561072D01*
X-19599048Y48561072D02*
X-19551429Y48656311D01*
X-19551429Y48656311D02*
X-19456191Y48703930D01*
X-19456191Y48703930D02*
X-18932381Y48703930D01*
D11*
X-500000Y0D02*
X-18823620Y0D01*
X-500000Y88265000D02*
X-18823620Y88265000D01*
X-18237200Y0D02*
X-18237200Y88265000D01*
X-18237200Y0D02*
X-18237200Y88265000D01*
X-18237200Y0D02*
X-18823621Y1126504D01*
X-18237200Y0D02*
X-17650779Y1126504D01*
X-18237200Y88265000D02*
X-17650779Y87138496D01*
X-18237200Y88265000D02*
X-18823621Y87138496D01*
D10*
X492619Y101698210D02*
X397381Y101745829D01*
X397381Y101745829D02*
X349762Y101793448D01*
X349762Y101793448D02*
X302143Y101888686D01*
X302143Y101888686D02*
X302143Y101936305D01*
X302143Y101936305D02*
X349762Y102031543D01*
X349762Y102031543D02*
X397381Y102079162D01*
X397381Y102079162D02*
X492619Y102126781D01*
X492619Y102126781D02*
X683095Y102126781D01*
X683095Y102126781D02*
X778333Y102079162D01*
X778333Y102079162D02*
X825952Y102031543D01*
X825952Y102031543D02*
X873571Y101936305D01*
X873571Y101936305D02*
X873571Y101888686D01*
X873571Y101888686D02*
X825952Y101793448D01*
X825952Y101793448D02*
X778333Y101745829D01*
X778333Y101745829D02*
X683095Y101698210D01*
X683095Y101698210D02*
X492619Y101698210D01*
X492619Y101698210D02*
X397381Y101650591D01*
X397381Y101650591D02*
X349762Y101602972D01*
X349762Y101602972D02*
X302143Y101507734D01*
X302143Y101507734D02*
X302143Y101317258D01*
X302143Y101317258D02*
X349762Y101222020D01*
X349762Y101222020D02*
X397381Y101174400D01*
X397381Y101174400D02*
X492619Y101126781D01*
X492619Y101126781D02*
X683095Y101126781D01*
X683095Y101126781D02*
X778333Y101174400D01*
X778333Y101174400D02*
X825952Y101222020D01*
X825952Y101222020D02*
X873571Y101317258D01*
X873571Y101317258D02*
X873571Y101507734D01*
X873571Y101507734D02*
X825952Y101602972D01*
X825952Y101602972D02*
X778333Y101650591D01*
X778333Y101650591D02*
X683095Y101698210D01*
X1302143Y101222020D02*
X1349762Y101174400D01*
X1349762Y101174400D02*
X1302143Y101126781D01*
X1302143Y101126781D02*
X1254524Y101174400D01*
X1254524Y101174400D02*
X1302143Y101222020D01*
X1302143Y101222020D02*
X1302143Y101126781D01*
X1921190Y101698210D02*
X1825952Y101745829D01*
X1825952Y101745829D02*
X1778333Y101793448D01*
X1778333Y101793448D02*
X1730714Y101888686D01*
X1730714Y101888686D02*
X1730714Y101936305D01*
X1730714Y101936305D02*
X1778333Y102031543D01*
X1778333Y102031543D02*
X1825952Y102079162D01*
X1825952Y102079162D02*
X1921190Y102126781D01*
X1921190Y102126781D02*
X2111666Y102126781D01*
X2111666Y102126781D02*
X2206904Y102079162D01*
X2206904Y102079162D02*
X2254523Y102031543D01*
X2254523Y102031543D02*
X2302142Y101936305D01*
X2302142Y101936305D02*
X2302142Y101888686D01*
X2302142Y101888686D02*
X2254523Y101793448D01*
X2254523Y101793448D02*
X2206904Y101745829D01*
X2206904Y101745829D02*
X2111666Y101698210D01*
X2111666Y101698210D02*
X1921190Y101698210D01*
X1921190Y101698210D02*
X1825952Y101650591D01*
X1825952Y101650591D02*
X1778333Y101602972D01*
X1778333Y101602972D02*
X1730714Y101507734D01*
X1730714Y101507734D02*
X1730714Y101317258D01*
X1730714Y101317258D02*
X1778333Y101222020D01*
X1778333Y101222020D02*
X1825952Y101174400D01*
X1825952Y101174400D02*
X1921190Y101126781D01*
X1921190Y101126781D02*
X2111666Y101126781D01*
X2111666Y101126781D02*
X2206904Y101174400D01*
X2206904Y101174400D02*
X2254523Y101222020D01*
X2254523Y101222020D02*
X2302142Y101317258D01*
X2302142Y101317258D02*
X2302142Y101507734D01*
X2302142Y101507734D02*
X2254523Y101602972D01*
X2254523Y101602972D02*
X2206904Y101650591D01*
X2206904Y101650591D02*
X2111666Y101698210D01*
X2778333Y101126781D02*
X2968809Y101126781D01*
X2968809Y101126781D02*
X3064047Y101174400D01*
X3064047Y101174400D02*
X3111666Y101222020D01*
X3111666Y101222020D02*
X3206904Y101364877D01*
X3206904Y101364877D02*
X3254523Y101555353D01*
X3254523Y101555353D02*
X3254523Y101936305D01*
X3254523Y101936305D02*
X3206904Y102031543D01*
X3206904Y102031543D02*
X3159285Y102079162D01*
X3159285Y102079162D02*
X3064047Y102126781D01*
X3064047Y102126781D02*
X2873571Y102126781D01*
X2873571Y102126781D02*
X2778333Y102079162D01*
X2778333Y102079162D02*
X2730714Y102031543D01*
X2730714Y102031543D02*
X2683095Y101936305D01*
X2683095Y101936305D02*
X2683095Y101698210D01*
X2683095Y101698210D02*
X2730714Y101602972D01*
X2730714Y101602972D02*
X2778333Y101555353D01*
X2778333Y101555353D02*
X2873571Y101507734D01*
X2873571Y101507734D02*
X3064047Y101507734D01*
X3064047Y101507734D02*
X3159285Y101555353D01*
X3159285Y101555353D02*
X3206904Y101602972D01*
X3206904Y101602972D02*
X3254523Y101698210D01*
X3873571Y102126781D02*
X3968809Y102126781D01*
X3968809Y102126781D02*
X4064047Y102079162D01*
X4064047Y102079162D02*
X4111666Y102031543D01*
X4111666Y102031543D02*
X4159285Y101936305D01*
X4159285Y101936305D02*
X4206904Y101745829D01*
X4206904Y101745829D02*
X4206904Y101507734D01*
X4206904Y101507734D02*
X4159285Y101317258D01*
X4159285Y101317258D02*
X4111666Y101222020D01*
X4111666Y101222020D02*
X4064047Y101174400D01*
X4064047Y101174400D02*
X3968809Y101126781D01*
X3968809Y101126781D02*
X3873571Y101126781D01*
X3873571Y101126781D02*
X3778333Y101174400D01*
X3778333Y101174400D02*
X3730714Y101222020D01*
X3730714Y101222020D02*
X3683095Y101317258D01*
X3683095Y101317258D02*
X3635476Y101507734D01*
X3635476Y101507734D02*
X3635476Y101745829D01*
X3635476Y101745829D02*
X3683095Y101936305D01*
X3683095Y101936305D02*
X3730714Y102031543D01*
X3730714Y102031543D02*
X3778333Y102079162D01*
X3778333Y102079162D02*
X3873571Y102126781D01*
X4825952Y102126781D02*
X4921190Y102126781D01*
X4921190Y102126781D02*
X5016428Y102079162D01*
X5016428Y102079162D02*
X5064047Y102031543D01*
X5064047Y102031543D02*
X5111666Y101936305D01*
X5111666Y101936305D02*
X5159285Y101745829D01*
X5159285Y101745829D02*
X5159285Y101507734D01*
X5159285Y101507734D02*
X5111666Y101317258D01*
X5111666Y101317258D02*
X5064047Y101222020D01*
X5064047Y101222020D02*
X5016428Y101174400D01*
X5016428Y101174400D02*
X4921190Y101126781D01*
X4921190Y101126781D02*
X4825952Y101126781D01*
X4825952Y101126781D02*
X4730714Y101174400D01*
X4730714Y101174400D02*
X4683095Y101222020D01*
X4683095Y101222020D02*
X4635476Y101317258D01*
X4635476Y101317258D02*
X4587857Y101507734D01*
X4587857Y101507734D02*
X4587857Y101745829D01*
X4587857Y101745829D02*
X4635476Y101936305D01*
X4635476Y101936305D02*
X4683095Y102031543D01*
X4683095Y102031543D02*
X4730714Y102079162D01*
X4730714Y102079162D02*
X4825952Y102126781D01*
X6349762Y101126781D02*
X6349762Y101793448D01*
X6349762Y101698210D02*
X6397381Y101745829D01*
X6397381Y101745829D02*
X6492619Y101793448D01*
X6492619Y101793448D02*
X6635476Y101793448D01*
X6635476Y101793448D02*
X6730714Y101745829D01*
X6730714Y101745829D02*
X6778333Y101650591D01*
X6778333Y101650591D02*
X6778333Y101126781D01*
X6778333Y101650591D02*
X6825952Y101745829D01*
X6825952Y101745829D02*
X6921190Y101793448D01*
X6921190Y101793448D02*
X7064047Y101793448D01*
X7064047Y101793448D02*
X7159286Y101745829D01*
X7159286Y101745829D02*
X7206905Y101650591D01*
X7206905Y101650591D02*
X7206905Y101126781D01*
X7683095Y101126781D02*
X7683095Y101793448D01*
X7683095Y101698210D02*
X7730714Y101745829D01*
X7730714Y101745829D02*
X7825952Y101793448D01*
X7825952Y101793448D02*
X7968809Y101793448D01*
X7968809Y101793448D02*
X8064047Y101745829D01*
X8064047Y101745829D02*
X8111666Y101650591D01*
X8111666Y101650591D02*
X8111666Y101126781D01*
X8111666Y101650591D02*
X8159285Y101745829D01*
X8159285Y101745829D02*
X8254523Y101793448D01*
X8254523Y101793448D02*
X8397380Y101793448D01*
X8397380Y101793448D02*
X8492619Y101745829D01*
X8492619Y101745829D02*
X8540238Y101650591D01*
X8540238Y101650591D02*
X8540238Y101126781D01*
D11*
X8890000Y91305000D02*
X8890000Y101018020D01*
X0Y91305000D02*
X0Y101018020D01*
X8890000Y100431600D02*
X0Y100431600D01*
X8890000Y100431600D02*
X0Y100431600D01*
X8890000Y100431600D02*
X7763496Y99845179D01*
X8890000Y100431600D02*
X7763496Y101018021D01*
X0Y100431600D02*
X1126504Y101018021D01*
X0Y100431600D02*
X1126504Y99845179D01*
D10*
X36846429Y113890210D02*
X36751191Y113937829D01*
X36751191Y113937829D02*
X36703572Y113985448D01*
X36703572Y113985448D02*
X36655953Y114080686D01*
X36655953Y114080686D02*
X36655953Y114128305D01*
X36655953Y114128305D02*
X36703572Y114223543D01*
X36703572Y114223543D02*
X36751191Y114271162D01*
X36751191Y114271162D02*
X36846429Y114318781D01*
X36846429Y114318781D02*
X37036905Y114318781D01*
X37036905Y114318781D02*
X37132143Y114271162D01*
X37132143Y114271162D02*
X37179762Y114223543D01*
X37179762Y114223543D02*
X37227381Y114128305D01*
X37227381Y114128305D02*
X37227381Y114080686D01*
X37227381Y114080686D02*
X37179762Y113985448D01*
X37179762Y113985448D02*
X37132143Y113937829D01*
X37132143Y113937829D02*
X37036905Y113890210D01*
X37036905Y113890210D02*
X36846429Y113890210D01*
X36846429Y113890210D02*
X36751191Y113842591D01*
X36751191Y113842591D02*
X36703572Y113794972D01*
X36703572Y113794972D02*
X36655953Y113699734D01*
X36655953Y113699734D02*
X36655953Y113509258D01*
X36655953Y113509258D02*
X36703572Y113414020D01*
X36703572Y113414020D02*
X36751191Y113366400D01*
X36751191Y113366400D02*
X36846429Y113318781D01*
X36846429Y113318781D02*
X37036905Y113318781D01*
X37036905Y113318781D02*
X37132143Y113366400D01*
X37132143Y113366400D02*
X37179762Y113414020D01*
X37179762Y113414020D02*
X37227381Y113509258D01*
X37227381Y113509258D02*
X37227381Y113699734D01*
X37227381Y113699734D02*
X37179762Y113794972D01*
X37179762Y113794972D02*
X37132143Y113842591D01*
X37132143Y113842591D02*
X37036905Y113890210D01*
X37608334Y114223543D02*
X37655953Y114271162D01*
X37655953Y114271162D02*
X37751191Y114318781D01*
X37751191Y114318781D02*
X37989286Y114318781D01*
X37989286Y114318781D02*
X38084524Y114271162D01*
X38084524Y114271162D02*
X38132143Y114223543D01*
X38132143Y114223543D02*
X38179762Y114128305D01*
X38179762Y114128305D02*
X38179762Y114033067D01*
X38179762Y114033067D02*
X38132143Y113890210D01*
X38132143Y113890210D02*
X37560715Y113318781D01*
X37560715Y113318781D02*
X38179762Y113318781D01*
X38608334Y113414020D02*
X38655953Y113366400D01*
X38655953Y113366400D02*
X38608334Y113318781D01*
X38608334Y113318781D02*
X38560715Y113366400D01*
X38560715Y113366400D02*
X38608334Y113414020D01*
X38608334Y113414020D02*
X38608334Y113318781D01*
X39560714Y114318781D02*
X39084524Y114318781D01*
X39084524Y114318781D02*
X39036905Y113842591D01*
X39036905Y113842591D02*
X39084524Y113890210D01*
X39084524Y113890210D02*
X39179762Y113937829D01*
X39179762Y113937829D02*
X39417857Y113937829D01*
X39417857Y113937829D02*
X39513095Y113890210D01*
X39513095Y113890210D02*
X39560714Y113842591D01*
X39560714Y113842591D02*
X39608333Y113747353D01*
X39608333Y113747353D02*
X39608333Y113509258D01*
X39608333Y113509258D02*
X39560714Y113414020D01*
X39560714Y113414020D02*
X39513095Y113366400D01*
X39513095Y113366400D02*
X39417857Y113318781D01*
X39417857Y113318781D02*
X39179762Y113318781D01*
X39179762Y113318781D02*
X39084524Y113366400D01*
X39084524Y113366400D02*
X39036905Y113414020D01*
X40513095Y114318781D02*
X40036905Y114318781D01*
X40036905Y114318781D02*
X39989286Y113842591D01*
X39989286Y113842591D02*
X40036905Y113890210D01*
X40036905Y113890210D02*
X40132143Y113937829D01*
X40132143Y113937829D02*
X40370238Y113937829D01*
X40370238Y113937829D02*
X40465476Y113890210D01*
X40465476Y113890210D02*
X40513095Y113842591D01*
X40513095Y113842591D02*
X40560714Y113747353D01*
X40560714Y113747353D02*
X40560714Y113509258D01*
X40560714Y113509258D02*
X40513095Y113414020D01*
X40513095Y113414020D02*
X40465476Y113366400D01*
X40465476Y113366400D02*
X40370238Y113318781D01*
X40370238Y113318781D02*
X40132143Y113318781D01*
X40132143Y113318781D02*
X40036905Y113366400D01*
X40036905Y113366400D02*
X39989286Y113414020D01*
X41179762Y114318781D02*
X41275000Y114318781D01*
X41275000Y114318781D02*
X41370238Y114271162D01*
X41370238Y114271162D02*
X41417857Y114223543D01*
X41417857Y114223543D02*
X41465476Y114128305D01*
X41465476Y114128305D02*
X41513095Y113937829D01*
X41513095Y113937829D02*
X41513095Y113699734D01*
X41513095Y113699734D02*
X41465476Y113509258D01*
X41465476Y113509258D02*
X41417857Y113414020D01*
X41417857Y113414020D02*
X41370238Y113366400D01*
X41370238Y113366400D02*
X41275000Y113318781D01*
X41275000Y113318781D02*
X41179762Y113318781D01*
X41179762Y113318781D02*
X41084524Y113366400D01*
X41084524Y113366400D02*
X41036905Y113414020D01*
X41036905Y113414020D02*
X40989286Y113509258D01*
X40989286Y113509258D02*
X40941667Y113699734D01*
X40941667Y113699734D02*
X40941667Y113937829D01*
X40941667Y113937829D02*
X40989286Y114128305D01*
X40989286Y114128305D02*
X41036905Y114223543D01*
X41036905Y114223543D02*
X41084524Y114271162D01*
X41084524Y114271162D02*
X41179762Y114318781D01*
X42132143Y114318781D02*
X42227381Y114318781D01*
X42227381Y114318781D02*
X42322619Y114271162D01*
X42322619Y114271162D02*
X42370238Y114223543D01*
X42370238Y114223543D02*
X42417857Y114128305D01*
X42417857Y114128305D02*
X42465476Y113937829D01*
X42465476Y113937829D02*
X42465476Y113699734D01*
X42465476Y113699734D02*
X42417857Y113509258D01*
X42417857Y113509258D02*
X42370238Y113414020D01*
X42370238Y113414020D02*
X42322619Y113366400D01*
X42322619Y113366400D02*
X42227381Y113318781D01*
X42227381Y113318781D02*
X42132143Y113318781D01*
X42132143Y113318781D02*
X42036905Y113366400D01*
X42036905Y113366400D02*
X41989286Y113414020D01*
X41989286Y113414020D02*
X41941667Y113509258D01*
X41941667Y113509258D02*
X41894048Y113699734D01*
X41894048Y113699734D02*
X41894048Y113937829D01*
X41894048Y113937829D02*
X41941667Y114128305D01*
X41941667Y114128305D02*
X41989286Y114223543D01*
X41989286Y114223543D02*
X42036905Y114271162D01*
X42036905Y114271162D02*
X42132143Y114318781D01*
X43655953Y113318781D02*
X43655953Y113985448D01*
X43655953Y113890210D02*
X43703572Y113937829D01*
X43703572Y113937829D02*
X43798810Y113985448D01*
X43798810Y113985448D02*
X43941667Y113985448D01*
X43941667Y113985448D02*
X44036905Y113937829D01*
X44036905Y113937829D02*
X44084524Y113842591D01*
X44084524Y113842591D02*
X44084524Y113318781D01*
X44084524Y113842591D02*
X44132143Y113937829D01*
X44132143Y113937829D02*
X44227381Y113985448D01*
X44227381Y113985448D02*
X44370238Y113985448D01*
X44370238Y113985448D02*
X44465477Y113937829D01*
X44465477Y113937829D02*
X44513096Y113842591D01*
X44513096Y113842591D02*
X44513096Y113318781D01*
X44989286Y113318781D02*
X44989286Y113985448D01*
X44989286Y113890210D02*
X45036905Y113937829D01*
X45036905Y113937829D02*
X45132143Y113985448D01*
X45132143Y113985448D02*
X45275000Y113985448D01*
X45275000Y113985448D02*
X45370238Y113937829D01*
X45370238Y113937829D02*
X45417857Y113842591D01*
X45417857Y113842591D02*
X45417857Y113318781D01*
X45417857Y113842591D02*
X45465476Y113937829D01*
X45465476Y113937829D02*
X45560714Y113985448D01*
X45560714Y113985448D02*
X45703571Y113985448D01*
X45703571Y113985448D02*
X45798810Y113937829D01*
X45798810Y113937829D02*
X45846429Y113842591D01*
X45846429Y113842591D02*
X45846429Y113318781D01*
D11*
X82550000Y91305000D02*
X82550000Y113210020D01*
X0Y91305000D02*
X0Y113210020D01*
X82550000Y112623600D02*
X0Y112623600D01*
X82550000Y112623600D02*
X0Y112623600D01*
X82550000Y112623600D02*
X81423496Y112037179D01*
X82550000Y112623600D02*
X81423496Y113210021D01*
X0Y112623600D02*
X1126504Y113210021D01*
X0Y112623600D02*
X1126504Y112037179D01*
D10*
X-1298210Y38338530D02*
X-1345829Y38243292D01*
X-1345829Y38243292D02*
X-1393448Y38195673D01*
X-1393448Y38195673D02*
X-1488686Y38148054D01*
X-1488686Y38148054D02*
X-1536305Y38148054D01*
X-1536305Y38148054D02*
X-1631543Y38195673D01*
X-1631543Y38195673D02*
X-1679162Y38243292D01*
X-1679162Y38243292D02*
X-1726781Y38338530D01*
X-1726781Y38338530D02*
X-1726781Y38529006D01*
X-1726781Y38529006D02*
X-1679162Y38624244D01*
X-1679162Y38624244D02*
X-1631543Y38671863D01*
X-1631543Y38671863D02*
X-1536305Y38719482D01*
X-1536305Y38719482D02*
X-1488686Y38719482D01*
X-1488686Y38719482D02*
X-1393448Y38671863D01*
X-1393448Y38671863D02*
X-1345829Y38624244D01*
X-1345829Y38624244D02*
X-1298210Y38529006D01*
X-1298210Y38529006D02*
X-1298210Y38338530D01*
X-1298210Y38338530D02*
X-1250591Y38243292D01*
X-1250591Y38243292D02*
X-1202972Y38195673D01*
X-1202972Y38195673D02*
X-1107734Y38148054D01*
X-1107734Y38148054D02*
X-917258Y38148054D01*
X-917258Y38148054D02*
X-822020Y38195673D01*
X-822020Y38195673D02*
X-774400Y38243292D01*
X-774400Y38243292D02*
X-726781Y38338530D01*
X-726781Y38338530D02*
X-726781Y38529006D01*
X-726781Y38529006D02*
X-774400Y38624244D01*
X-774400Y38624244D02*
X-822020Y38671863D01*
X-822020Y38671863D02*
X-917258Y38719482D01*
X-917258Y38719482D02*
X-1107734Y38719482D01*
X-1107734Y38719482D02*
X-1202972Y38671863D01*
X-1202972Y38671863D02*
X-1250591Y38624244D01*
X-1250591Y38624244D02*
X-1298210Y38529006D01*
X-1726781Y39052816D02*
X-1726781Y39671863D01*
X-1726781Y39671863D02*
X-1345829Y39338530D01*
X-1345829Y39338530D02*
X-1345829Y39481387D01*
X-1345829Y39481387D02*
X-1298210Y39576625D01*
X-1298210Y39576625D02*
X-1250591Y39624244D01*
X-1250591Y39624244D02*
X-1155353Y39671863D01*
X-1155353Y39671863D02*
X-917258Y39671863D01*
X-917258Y39671863D02*
X-822020Y39624244D01*
X-822020Y39624244D02*
X-774400Y39576625D01*
X-774400Y39576625D02*
X-726781Y39481387D01*
X-726781Y39481387D02*
X-726781Y39195673D01*
X-726781Y39195673D02*
X-774400Y39100435D01*
X-774400Y39100435D02*
X-822020Y39052816D01*
X-822020Y40100435D02*
X-774400Y40148054D01*
X-774400Y40148054D02*
X-726781Y40100435D01*
X-726781Y40100435D02*
X-774400Y40052816D01*
X-774400Y40052816D02*
X-822020Y40100435D01*
X-822020Y40100435D02*
X-726781Y40100435D01*
X-726781Y41100434D02*
X-726781Y40529006D01*
X-726781Y40814720D02*
X-1726781Y40814720D01*
X-1726781Y40814720D02*
X-1583924Y40719482D01*
X-1583924Y40719482D02*
X-1488686Y40624244D01*
X-1488686Y40624244D02*
X-1441067Y40529006D01*
X-1298210Y41671863D02*
X-1345829Y41576625D01*
X-1345829Y41576625D02*
X-1393448Y41529006D01*
X-1393448Y41529006D02*
X-1488686Y41481387D01*
X-1488686Y41481387D02*
X-1536305Y41481387D01*
X-1536305Y41481387D02*
X-1631543Y41529006D01*
X-1631543Y41529006D02*
X-1679162Y41576625D01*
X-1679162Y41576625D02*
X-1726781Y41671863D01*
X-1726781Y41671863D02*
X-1726781Y41862339D01*
X-1726781Y41862339D02*
X-1679162Y41957577D01*
X-1679162Y41957577D02*
X-1631543Y42005196D01*
X-1631543Y42005196D02*
X-1536305Y42052815D01*
X-1536305Y42052815D02*
X-1488686Y42052815D01*
X-1488686Y42052815D02*
X-1393448Y42005196D01*
X-1393448Y42005196D02*
X-1345829Y41957577D01*
X-1345829Y41957577D02*
X-1298210Y41862339D01*
X-1298210Y41862339D02*
X-1298210Y41671863D01*
X-1298210Y41671863D02*
X-1250591Y41576625D01*
X-1250591Y41576625D02*
X-1202972Y41529006D01*
X-1202972Y41529006D02*
X-1107734Y41481387D01*
X-1107734Y41481387D02*
X-917258Y41481387D01*
X-917258Y41481387D02*
X-822020Y41529006D01*
X-822020Y41529006D02*
X-774400Y41576625D01*
X-774400Y41576625D02*
X-726781Y41671863D01*
X-726781Y41671863D02*
X-726781Y41862339D01*
X-726781Y41862339D02*
X-774400Y41957577D01*
X-774400Y41957577D02*
X-822020Y42005196D01*
X-822020Y42005196D02*
X-917258Y42052815D01*
X-917258Y42052815D02*
X-1107734Y42052815D01*
X-1107734Y42052815D02*
X-1202972Y42005196D01*
X-1202972Y42005196D02*
X-1250591Y41957577D01*
X-1250591Y41957577D02*
X-1298210Y41862339D01*
X-1726781Y42957577D02*
X-1726781Y42481387D01*
X-1726781Y42481387D02*
X-1250591Y42433768D01*
X-1250591Y42433768D02*
X-1298210Y42481387D01*
X-1298210Y42481387D02*
X-1345829Y42576625D01*
X-1345829Y42576625D02*
X-1345829Y42814720D01*
X-1345829Y42814720D02*
X-1298210Y42909958D01*
X-1298210Y42909958D02*
X-1250591Y42957577D01*
X-1250591Y42957577D02*
X-1155353Y43005196D01*
X-1155353Y43005196D02*
X-917258Y43005196D01*
X-917258Y43005196D02*
X-822020Y42957577D01*
X-822020Y42957577D02*
X-774400Y42909958D01*
X-774400Y42909958D02*
X-726781Y42814720D01*
X-726781Y42814720D02*
X-726781Y42576625D01*
X-726781Y42576625D02*
X-774400Y42481387D01*
X-774400Y42481387D02*
X-822020Y42433768D01*
X-1726781Y43624244D02*
X-1726781Y43719482D01*
X-1726781Y43719482D02*
X-1679162Y43814720D01*
X-1679162Y43814720D02*
X-1631543Y43862339D01*
X-1631543Y43862339D02*
X-1536305Y43909958D01*
X-1536305Y43909958D02*
X-1345829Y43957577D01*
X-1345829Y43957577D02*
X-1107734Y43957577D01*
X-1107734Y43957577D02*
X-917258Y43909958D01*
X-917258Y43909958D02*
X-822020Y43862339D01*
X-822020Y43862339D02*
X-774400Y43814720D01*
X-774400Y43814720D02*
X-726781Y43719482D01*
X-726781Y43719482D02*
X-726781Y43624244D01*
X-726781Y43624244D02*
X-774400Y43529006D01*
X-774400Y43529006D02*
X-822020Y43481387D01*
X-822020Y43481387D02*
X-917258Y43433768D01*
X-917258Y43433768D02*
X-1107734Y43386149D01*
X-1107734Y43386149D02*
X-1345829Y43386149D01*
X-1345829Y43386149D02*
X-1536305Y43433768D01*
X-1536305Y43433768D02*
X-1631543Y43481387D01*
X-1631543Y43481387D02*
X-1679162Y43529006D01*
X-1679162Y43529006D02*
X-1726781Y43624244D01*
X-726781Y45148054D02*
X-1393448Y45148054D01*
X-1298210Y45148054D02*
X-1345829Y45195673D01*
X-1345829Y45195673D02*
X-1393448Y45290911D01*
X-1393448Y45290911D02*
X-1393448Y45433768D01*
X-1393448Y45433768D02*
X-1345829Y45529006D01*
X-1345829Y45529006D02*
X-1250591Y45576625D01*
X-1250591Y45576625D02*
X-726781Y45576625D01*
X-1250591Y45576625D02*
X-1345829Y45624244D01*
X-1345829Y45624244D02*
X-1393448Y45719482D01*
X-1393448Y45719482D02*
X-1393448Y45862339D01*
X-1393448Y45862339D02*
X-1345829Y45957578D01*
X-1345829Y45957578D02*
X-1250591Y46005197D01*
X-1250591Y46005197D02*
X-726781Y46005197D01*
X-726781Y46481387D02*
X-1393448Y46481387D01*
X-1298210Y46481387D02*
X-1345829Y46529006D01*
X-1345829Y46529006D02*
X-1393448Y46624244D01*
X-1393448Y46624244D02*
X-1393448Y46767101D01*
X-1393448Y46767101D02*
X-1345829Y46862339D01*
X-1345829Y46862339D02*
X-1250591Y46909958D01*
X-1250591Y46909958D02*
X-726781Y46909958D01*
X-1250591Y46909958D02*
X-1345829Y46957577D01*
X-1345829Y46957577D02*
X-1393448Y47052815D01*
X-1393448Y47052815D02*
X-1393448Y47195672D01*
X-1393448Y47195672D02*
X-1345829Y47290911D01*
X-1345829Y47290911D02*
X-1250591Y47338530D01*
X-1250591Y47338530D02*
X-726781Y47338530D01*
D11*
X15267200Y1174600D02*
X-618020Y1174600D01*
X15267200Y84359600D02*
X-618020Y84359600D01*
X-31600Y1174600D02*
X-31600Y84359600D01*
X-31600Y1174600D02*
X-31600Y84359600D01*
X-31600Y1174600D02*
X-618021Y2301104D01*
X-31600Y1174600D02*
X554821Y2301104D01*
X-31600Y84359600D02*
X554821Y83233096D01*
X-31600Y84359600D02*
X-618021Y83233096D01*
D10*
X2937381Y105139980D02*
X2365953Y105139980D01*
X2651667Y105139980D02*
X2651667Y106139980D01*
X2651667Y106139980D02*
X2556429Y105997123D01*
X2556429Y105997123D02*
X2461191Y105901885D01*
X2461191Y105901885D02*
X2365953Y105854266D01*
X3270715Y106139980D02*
X3889762Y106139980D01*
X3889762Y106139980D02*
X3556429Y105759028D01*
X3556429Y105759028D02*
X3699286Y105759028D01*
X3699286Y105759028D02*
X3794524Y105711409D01*
X3794524Y105711409D02*
X3842143Y105663790D01*
X3842143Y105663790D02*
X3889762Y105568552D01*
X3889762Y105568552D02*
X3889762Y105330457D01*
X3889762Y105330457D02*
X3842143Y105235219D01*
X3842143Y105235219D02*
X3794524Y105187599D01*
X3794524Y105187599D02*
X3699286Y105139980D01*
X3699286Y105139980D02*
X3413572Y105139980D01*
X3413572Y105139980D02*
X3318334Y105187599D01*
X3318334Y105187599D02*
X3270715Y105235219D01*
X4318334Y105235219D02*
X4365953Y105187599D01*
X4365953Y105187599D02*
X4318334Y105139980D01*
X4318334Y105139980D02*
X4270715Y105187599D01*
X4270715Y105187599D02*
X4318334Y105235219D01*
X4318334Y105235219D02*
X4318334Y105139980D01*
X4842143Y105139980D02*
X5032619Y105139980D01*
X5032619Y105139980D02*
X5127857Y105187599D01*
X5127857Y105187599D02*
X5175476Y105235219D01*
X5175476Y105235219D02*
X5270714Y105378076D01*
X5270714Y105378076D02*
X5318333Y105568552D01*
X5318333Y105568552D02*
X5318333Y105949504D01*
X5318333Y105949504D02*
X5270714Y106044742D01*
X5270714Y106044742D02*
X5223095Y106092361D01*
X5223095Y106092361D02*
X5127857Y106139980D01*
X5127857Y106139980D02*
X4937381Y106139980D01*
X4937381Y106139980D02*
X4842143Y106092361D01*
X4842143Y106092361D02*
X4794524Y106044742D01*
X4794524Y106044742D02*
X4746905Y105949504D01*
X4746905Y105949504D02*
X4746905Y105711409D01*
X4746905Y105711409D02*
X4794524Y105616171D01*
X4794524Y105616171D02*
X4842143Y105568552D01*
X4842143Y105568552D02*
X4937381Y105520933D01*
X4937381Y105520933D02*
X5127857Y105520933D01*
X5127857Y105520933D02*
X5223095Y105568552D01*
X5223095Y105568552D02*
X5270714Y105616171D01*
X5270714Y105616171D02*
X5318333Y105711409D01*
X5651667Y106139980D02*
X6318333Y106139980D01*
X6318333Y106139980D02*
X5889762Y105139980D01*
X6889762Y106139980D02*
X6985000Y106139980D01*
X6985000Y106139980D02*
X7080238Y106092361D01*
X7080238Y106092361D02*
X7127857Y106044742D01*
X7127857Y106044742D02*
X7175476Y105949504D01*
X7175476Y105949504D02*
X7223095Y105759028D01*
X7223095Y105759028D02*
X7223095Y105520933D01*
X7223095Y105520933D02*
X7175476Y105330457D01*
X7175476Y105330457D02*
X7127857Y105235219D01*
X7127857Y105235219D02*
X7080238Y105187599D01*
X7080238Y105187599D02*
X6985000Y105139980D01*
X6985000Y105139980D02*
X6889762Y105139980D01*
X6889762Y105139980D02*
X6794524Y105187599D01*
X6794524Y105187599D02*
X6746905Y105235219D01*
X6746905Y105235219D02*
X6699286Y105330457D01*
X6699286Y105330457D02*
X6651667Y105520933D01*
X6651667Y105520933D02*
X6651667Y105759028D01*
X6651667Y105759028D02*
X6699286Y105949504D01*
X6699286Y105949504D02*
X6746905Y106044742D01*
X6746905Y106044742D02*
X6794524Y106092361D01*
X6794524Y106092361D02*
X6889762Y106139980D01*
X7842143Y106139980D02*
X7937381Y106139980D01*
X7937381Y106139980D02*
X8032619Y106092361D01*
X8032619Y106092361D02*
X8080238Y106044742D01*
X8080238Y106044742D02*
X8127857Y105949504D01*
X8127857Y105949504D02*
X8175476Y105759028D01*
X8175476Y105759028D02*
X8175476Y105520933D01*
X8175476Y105520933D02*
X8127857Y105330457D01*
X8127857Y105330457D02*
X8080238Y105235219D01*
X8080238Y105235219D02*
X8032619Y105187599D01*
X8032619Y105187599D02*
X7937381Y105139980D01*
X7937381Y105139980D02*
X7842143Y105139980D01*
X7842143Y105139980D02*
X7746905Y105187599D01*
X7746905Y105187599D02*
X7699286Y105235219D01*
X7699286Y105235219D02*
X7651667Y105330457D01*
X7651667Y105330457D02*
X7604048Y105520933D01*
X7604048Y105520933D02*
X7604048Y105759028D01*
X7604048Y105759028D02*
X7651667Y105949504D01*
X7651667Y105949504D02*
X7699286Y106044742D01*
X7699286Y106044742D02*
X7746905Y106092361D01*
X7746905Y106092361D02*
X7842143Y106139980D01*
X9365953Y105139980D02*
X9365953Y105806647D01*
X9365953Y105711409D02*
X9413572Y105759028D01*
X9413572Y105759028D02*
X9508810Y105806647D01*
X9508810Y105806647D02*
X9651667Y105806647D01*
X9651667Y105806647D02*
X9746905Y105759028D01*
X9746905Y105759028D02*
X9794524Y105663790D01*
X9794524Y105663790D02*
X9794524Y105139980D01*
X9794524Y105663790D02*
X9842143Y105759028D01*
X9842143Y105759028D02*
X9937381Y105806647D01*
X9937381Y105806647D02*
X10080238Y105806647D01*
X10080238Y105806647D02*
X10175477Y105759028D01*
X10175477Y105759028D02*
X10223096Y105663790D01*
X10223096Y105663790D02*
X10223096Y105139980D01*
X10699286Y105139980D02*
X10699286Y105806647D01*
X10699286Y105711409D02*
X10746905Y105759028D01*
X10746905Y105759028D02*
X10842143Y105806647D01*
X10842143Y105806647D02*
X10985000Y105806647D01*
X10985000Y105806647D02*
X11080238Y105759028D01*
X11080238Y105759028D02*
X11127857Y105663790D01*
X11127857Y105663790D02*
X11127857Y105139980D01*
X11127857Y105663790D02*
X11175476Y105759028D01*
X11175476Y105759028D02*
X11270714Y105806647D01*
X11270714Y105806647D02*
X11413571Y105806647D01*
X11413571Y105806647D02*
X11508810Y105759028D01*
X11508810Y105759028D02*
X11556429Y105663790D01*
X11556429Y105663790D02*
X11556429Y105139980D01*
D11*
X13970000Y88714200D02*
X13970000Y105031219D01*
X0Y88714200D02*
X0Y105031219D01*
X13970000Y104444799D02*
X0Y104444799D01*
X13970000Y104444799D02*
X0Y104444799D01*
X13970000Y104444799D02*
X12843496Y103858378D01*
X13970000Y104444799D02*
X12843496Y105031220D01*
X0Y104444799D02*
X1126504Y105031220D01*
X0Y104444799D02*
X1126504Y103858378D01*
D10*
X-5933781Y42053292D02*
X-5933781Y42243768D01*
X-5933781Y42243768D02*
X-5981400Y42339006D01*
X-5981400Y42339006D02*
X-6029020Y42386625D01*
X-6029020Y42386625D02*
X-6171877Y42481863D01*
X-6171877Y42481863D02*
X-6362353Y42529482D01*
X-6362353Y42529482D02*
X-6743305Y42529482D01*
X-6743305Y42529482D02*
X-6838543Y42481863D01*
X-6838543Y42481863D02*
X-6886162Y42434244D01*
X-6886162Y42434244D02*
X-6933781Y42339006D01*
X-6933781Y42339006D02*
X-6933781Y42148530D01*
X-6933781Y42148530D02*
X-6886162Y42053292D01*
X-6886162Y42053292D02*
X-6838543Y42005673D01*
X-6838543Y42005673D02*
X-6743305Y41958054D01*
X-6743305Y41958054D02*
X-6505210Y41958054D01*
X-6505210Y41958054D02*
X-6409972Y42005673D01*
X-6409972Y42005673D02*
X-6362353Y42053292D01*
X-6362353Y42053292D02*
X-6314734Y42148530D01*
X-6314734Y42148530D02*
X-6314734Y42339006D01*
X-6314734Y42339006D02*
X-6362353Y42434244D01*
X-6362353Y42434244D02*
X-6409972Y42481863D01*
X-6409972Y42481863D02*
X-6505210Y42529482D01*
X-6933781Y43148530D02*
X-6933781Y43243768D01*
X-6933781Y43243768D02*
X-6886162Y43339006D01*
X-6886162Y43339006D02*
X-6838543Y43386625D01*
X-6838543Y43386625D02*
X-6743305Y43434244D01*
X-6743305Y43434244D02*
X-6552829Y43481863D01*
X-6552829Y43481863D02*
X-6314734Y43481863D01*
X-6314734Y43481863D02*
X-6124258Y43434244D01*
X-6124258Y43434244D02*
X-6029020Y43386625D01*
X-6029020Y43386625D02*
X-5981400Y43339006D01*
X-5981400Y43339006D02*
X-5933781Y43243768D01*
X-5933781Y43243768D02*
X-5933781Y43148530D01*
X-5933781Y43148530D02*
X-5981400Y43053292D01*
X-5981400Y43053292D02*
X-6029020Y43005673D01*
X-6029020Y43005673D02*
X-6124258Y42958054D01*
X-6124258Y42958054D02*
X-6314734Y42910435D01*
X-6314734Y42910435D02*
X-6552829Y42910435D01*
X-6552829Y42910435D02*
X-6743305Y42958054D01*
X-6743305Y42958054D02*
X-6838543Y43005673D01*
X-6838543Y43005673D02*
X-6886162Y43053292D01*
X-6886162Y43053292D02*
X-6933781Y43148530D01*
X-6029020Y43910435D02*
X-5981400Y43958054D01*
X-5981400Y43958054D02*
X-5933781Y43910435D01*
X-5933781Y43910435D02*
X-5981400Y43862816D01*
X-5981400Y43862816D02*
X-6029020Y43910435D01*
X-6029020Y43910435D02*
X-5933781Y43910435D01*
X-6505210Y44529482D02*
X-6552829Y44434244D01*
X-6552829Y44434244D02*
X-6600448Y44386625D01*
X-6600448Y44386625D02*
X-6695686Y44339006D01*
X-6695686Y44339006D02*
X-6743305Y44339006D01*
X-6743305Y44339006D02*
X-6838543Y44386625D01*
X-6838543Y44386625D02*
X-6886162Y44434244D01*
X-6886162Y44434244D02*
X-6933781Y44529482D01*
X-6933781Y44529482D02*
X-6933781Y44719958D01*
X-6933781Y44719958D02*
X-6886162Y44815196D01*
X-6886162Y44815196D02*
X-6838543Y44862815D01*
X-6838543Y44862815D02*
X-6743305Y44910434D01*
X-6743305Y44910434D02*
X-6695686Y44910434D01*
X-6695686Y44910434D02*
X-6600448Y44862815D01*
X-6600448Y44862815D02*
X-6552829Y44815196D01*
X-6552829Y44815196D02*
X-6505210Y44719958D01*
X-6505210Y44719958D02*
X-6505210Y44529482D01*
X-6505210Y44529482D02*
X-6457591Y44434244D01*
X-6457591Y44434244D02*
X-6409972Y44386625D01*
X-6409972Y44386625D02*
X-6314734Y44339006D01*
X-6314734Y44339006D02*
X-6124258Y44339006D01*
X-6124258Y44339006D02*
X-6029020Y44386625D01*
X-6029020Y44386625D02*
X-5981400Y44434244D01*
X-5981400Y44434244D02*
X-5933781Y44529482D01*
X-5933781Y44529482D02*
X-5933781Y44719958D01*
X-5933781Y44719958D02*
X-5981400Y44815196D01*
X-5981400Y44815196D02*
X-6029020Y44862815D01*
X-6029020Y44862815D02*
X-6124258Y44910434D01*
X-6124258Y44910434D02*
X-6314734Y44910434D01*
X-6314734Y44910434D02*
X-6409972Y44862815D01*
X-6409972Y44862815D02*
X-6457591Y44815196D01*
X-6457591Y44815196D02*
X-6505210Y44719958D01*
X-6933781Y45529482D02*
X-6933781Y45624720D01*
X-6933781Y45624720D02*
X-6886162Y45719958D01*
X-6886162Y45719958D02*
X-6838543Y45767577D01*
X-6838543Y45767577D02*
X-6743305Y45815196D01*
X-6743305Y45815196D02*
X-6552829Y45862815D01*
X-6552829Y45862815D02*
X-6314734Y45862815D01*
X-6314734Y45862815D02*
X-6124258Y45815196D01*
X-6124258Y45815196D02*
X-6029020Y45767577D01*
X-6029020Y45767577D02*
X-5981400Y45719958D01*
X-5981400Y45719958D02*
X-5933781Y45624720D01*
X-5933781Y45624720D02*
X-5933781Y45529482D01*
X-5933781Y45529482D02*
X-5981400Y45434244D01*
X-5981400Y45434244D02*
X-6029020Y45386625D01*
X-6029020Y45386625D02*
X-6124258Y45339006D01*
X-6124258Y45339006D02*
X-6314734Y45291387D01*
X-6314734Y45291387D02*
X-6552829Y45291387D01*
X-6552829Y45291387D02*
X-6743305Y45339006D01*
X-6743305Y45339006D02*
X-6838543Y45386625D01*
X-6838543Y45386625D02*
X-6886162Y45434244D01*
X-6886162Y45434244D02*
X-6933781Y45529482D01*
X-6933781Y46767577D02*
X-6933781Y46291387D01*
X-6933781Y46291387D02*
X-6457591Y46243768D01*
X-6457591Y46243768D02*
X-6505210Y46291387D01*
X-6505210Y46291387D02*
X-6552829Y46386625D01*
X-6552829Y46386625D02*
X-6552829Y46624720D01*
X-6552829Y46624720D02*
X-6505210Y46719958D01*
X-6505210Y46719958D02*
X-6457591Y46767577D01*
X-6457591Y46767577D02*
X-6362353Y46815196D01*
X-6362353Y46815196D02*
X-6124258Y46815196D01*
X-6124258Y46815196D02*
X-6029020Y46767577D01*
X-6029020Y46767577D02*
X-5981400Y46719958D01*
X-5981400Y46719958D02*
X-5933781Y46624720D01*
X-5933781Y46624720D02*
X-5933781Y46386625D01*
X-5933781Y46386625D02*
X-5981400Y46291387D01*
X-5981400Y46291387D02*
X-6029020Y46243768D01*
X-6933781Y47434244D02*
X-6933781Y47529482D01*
X-6933781Y47529482D02*
X-6886162Y47624720D01*
X-6886162Y47624720D02*
X-6838543Y47672339D01*
X-6838543Y47672339D02*
X-6743305Y47719958D01*
X-6743305Y47719958D02*
X-6552829Y47767577D01*
X-6552829Y47767577D02*
X-6314734Y47767577D01*
X-6314734Y47767577D02*
X-6124258Y47719958D01*
X-6124258Y47719958D02*
X-6029020Y47672339D01*
X-6029020Y47672339D02*
X-5981400Y47624720D01*
X-5981400Y47624720D02*
X-5933781Y47529482D01*
X-5933781Y47529482D02*
X-5933781Y47434244D01*
X-5933781Y47434244D02*
X-5981400Y47339006D01*
X-5981400Y47339006D02*
X-6029020Y47291387D01*
X-6029020Y47291387D02*
X-6124258Y47243768D01*
X-6124258Y47243768D02*
X-6314734Y47196149D01*
X-6314734Y47196149D02*
X-6552829Y47196149D01*
X-6552829Y47196149D02*
X-6743305Y47243768D01*
X-6743305Y47243768D02*
X-6838543Y47291387D01*
X-6838543Y47291387D02*
X-6886162Y47339006D01*
X-6886162Y47339006D02*
X-6933781Y47434244D01*
X-5933781Y48958054D02*
X-6600448Y48958054D01*
X-6505210Y48958054D02*
X-6552829Y49005673D01*
X-6552829Y49005673D02*
X-6600448Y49100911D01*
X-6600448Y49100911D02*
X-6600448Y49243768D01*
X-6600448Y49243768D02*
X-6552829Y49339006D01*
X-6552829Y49339006D02*
X-6457591Y49386625D01*
X-6457591Y49386625D02*
X-5933781Y49386625D01*
X-6457591Y49386625D02*
X-6552829Y49434244D01*
X-6552829Y49434244D02*
X-6600448Y49529482D01*
X-6600448Y49529482D02*
X-6600448Y49672339D01*
X-6600448Y49672339D02*
X-6552829Y49767578D01*
X-6552829Y49767578D02*
X-6457591Y49815197D01*
X-6457591Y49815197D02*
X-5933781Y49815197D01*
X-5933781Y50291387D02*
X-6600448Y50291387D01*
X-6505210Y50291387D02*
X-6552829Y50339006D01*
X-6552829Y50339006D02*
X-6600448Y50434244D01*
X-6600448Y50434244D02*
X-6600448Y50577101D01*
X-6600448Y50577101D02*
X-6552829Y50672339D01*
X-6552829Y50672339D02*
X-6457591Y50719958D01*
X-6457591Y50719958D02*
X-5933781Y50719958D01*
X-6457591Y50719958D02*
X-6552829Y50767577D01*
X-6552829Y50767577D02*
X-6600448Y50862815D01*
X-6600448Y50862815D02*
X-6600448Y51005672D01*
X-6600448Y51005672D02*
X-6552829Y51100911D01*
X-6552829Y51100911D02*
X-6457591Y51148530D01*
X-6457591Y51148530D02*
X-5933781Y51148530D01*
D11*
X15267200Y1174600D02*
X-5825020Y1174600D01*
X15267200Y91979600D02*
X-5825020Y91979600D01*
X-5238600Y1174600D02*
X-5238600Y91979600D01*
X-5238600Y1174600D02*
X-5238600Y91979600D01*
X-5238600Y1174600D02*
X-5825021Y2301104D01*
X-5238600Y1174600D02*
X-4652179Y2301104D01*
X-5238600Y91979600D02*
X-4652179Y90853096D01*
X-5238600Y91979600D02*
X-5825021Y90853096D01*
D10*
X40561191Y-9109219D02*
X40751667Y-9109219D01*
X40751667Y-9109219D02*
X40846905Y-9061600D01*
X40846905Y-9061600D02*
X40894524Y-9013980D01*
X40894524Y-9013980D02*
X40989762Y-8871123D01*
X40989762Y-8871123D02*
X41037381Y-8680647D01*
X41037381Y-8680647D02*
X41037381Y-8299695D01*
X41037381Y-8299695D02*
X40989762Y-8204457D01*
X40989762Y-8204457D02*
X40942143Y-8156838D01*
X40942143Y-8156838D02*
X40846905Y-8109219D01*
X40846905Y-8109219D02*
X40656429Y-8109219D01*
X40656429Y-8109219D02*
X40561191Y-8156838D01*
X40561191Y-8156838D02*
X40513572Y-8204457D01*
X40513572Y-8204457D02*
X40465953Y-8299695D01*
X40465953Y-8299695D02*
X40465953Y-8537790D01*
X40465953Y-8537790D02*
X40513572Y-8633028D01*
X40513572Y-8633028D02*
X40561191Y-8680647D01*
X40561191Y-8680647D02*
X40656429Y-8728266D01*
X40656429Y-8728266D02*
X40846905Y-8728266D01*
X40846905Y-8728266D02*
X40942143Y-8680647D01*
X40942143Y-8680647D02*
X40989762Y-8633028D01*
X40989762Y-8633028D02*
X41037381Y-8537790D01*
X41656429Y-8109219D02*
X41751667Y-8109219D01*
X41751667Y-8109219D02*
X41846905Y-8156838D01*
X41846905Y-8156838D02*
X41894524Y-8204457D01*
X41894524Y-8204457D02*
X41942143Y-8299695D01*
X41942143Y-8299695D02*
X41989762Y-8490171D01*
X41989762Y-8490171D02*
X41989762Y-8728266D01*
X41989762Y-8728266D02*
X41942143Y-8918742D01*
X41942143Y-8918742D02*
X41894524Y-9013980D01*
X41894524Y-9013980D02*
X41846905Y-9061600D01*
X41846905Y-9061600D02*
X41751667Y-9109219D01*
X41751667Y-9109219D02*
X41656429Y-9109219D01*
X41656429Y-9109219D02*
X41561191Y-9061600D01*
X41561191Y-9061600D02*
X41513572Y-9013980D01*
X41513572Y-9013980D02*
X41465953Y-8918742D01*
X41465953Y-8918742D02*
X41418334Y-8728266D01*
X41418334Y-8728266D02*
X41418334Y-8490171D01*
X41418334Y-8490171D02*
X41465953Y-8299695D01*
X41465953Y-8299695D02*
X41513572Y-8204457D01*
X41513572Y-8204457D02*
X41561191Y-8156838D01*
X41561191Y-8156838D02*
X41656429Y-8109219D01*
X42418334Y-9013980D02*
X42465953Y-9061600D01*
X42465953Y-9061600D02*
X42418334Y-9109219D01*
X42418334Y-9109219D02*
X42370715Y-9061600D01*
X42370715Y-9061600D02*
X42418334Y-9013980D01*
X42418334Y-9013980D02*
X42418334Y-9109219D01*
X43418333Y-9109219D02*
X42846905Y-9109219D01*
X43132619Y-9109219D02*
X43132619Y-8109219D01*
X43132619Y-8109219D02*
X43037381Y-8252076D01*
X43037381Y-8252076D02*
X42942143Y-8347314D01*
X42942143Y-8347314D02*
X42846905Y-8394933D01*
X43751667Y-8109219D02*
X44418333Y-8109219D01*
X44418333Y-8109219D02*
X43989762Y-9109219D01*
X44989762Y-8109219D02*
X45085000Y-8109219D01*
X45085000Y-8109219D02*
X45180238Y-8156838D01*
X45180238Y-8156838D02*
X45227857Y-8204457D01*
X45227857Y-8204457D02*
X45275476Y-8299695D01*
X45275476Y-8299695D02*
X45323095Y-8490171D01*
X45323095Y-8490171D02*
X45323095Y-8728266D01*
X45323095Y-8728266D02*
X45275476Y-8918742D01*
X45275476Y-8918742D02*
X45227857Y-9013980D01*
X45227857Y-9013980D02*
X45180238Y-9061600D01*
X45180238Y-9061600D02*
X45085000Y-9109219D01*
X45085000Y-9109219D02*
X44989762Y-9109219D01*
X44989762Y-9109219D02*
X44894524Y-9061600D01*
X44894524Y-9061600D02*
X44846905Y-9013980D01*
X44846905Y-9013980D02*
X44799286Y-8918742D01*
X44799286Y-8918742D02*
X44751667Y-8728266D01*
X44751667Y-8728266D02*
X44751667Y-8490171D01*
X44751667Y-8490171D02*
X44799286Y-8299695D01*
X44799286Y-8299695D02*
X44846905Y-8204457D01*
X44846905Y-8204457D02*
X44894524Y-8156838D01*
X44894524Y-8156838D02*
X44989762Y-8109219D01*
X45942143Y-8109219D02*
X46037381Y-8109219D01*
X46037381Y-8109219D02*
X46132619Y-8156838D01*
X46132619Y-8156838D02*
X46180238Y-8204457D01*
X46180238Y-8204457D02*
X46227857Y-8299695D01*
X46227857Y-8299695D02*
X46275476Y-8490171D01*
X46275476Y-8490171D02*
X46275476Y-8728266D01*
X46275476Y-8728266D02*
X46227857Y-8918742D01*
X46227857Y-8918742D02*
X46180238Y-9013980D01*
X46180238Y-9013980D02*
X46132619Y-9061600D01*
X46132619Y-9061600D02*
X46037381Y-9109219D01*
X46037381Y-9109219D02*
X45942143Y-9109219D01*
X45942143Y-9109219D02*
X45846905Y-9061600D01*
X45846905Y-9061600D02*
X45799286Y-9013980D01*
X45799286Y-9013980D02*
X45751667Y-8918742D01*
X45751667Y-8918742D02*
X45704048Y-8728266D01*
X45704048Y-8728266D02*
X45704048Y-8490171D01*
X45704048Y-8490171D02*
X45751667Y-8299695D01*
X45751667Y-8299695D02*
X45799286Y-8204457D01*
X45799286Y-8204457D02*
X45846905Y-8156838D01*
X45846905Y-8156838D02*
X45942143Y-8109219D01*
X47465953Y-9109219D02*
X47465953Y-8442552D01*
X47465953Y-8537790D02*
X47513572Y-8490171D01*
X47513572Y-8490171D02*
X47608810Y-8442552D01*
X47608810Y-8442552D02*
X47751667Y-8442552D01*
X47751667Y-8442552D02*
X47846905Y-8490171D01*
X47846905Y-8490171D02*
X47894524Y-8585409D01*
X47894524Y-8585409D02*
X47894524Y-9109219D01*
X47894524Y-8585409D02*
X47942143Y-8490171D01*
X47942143Y-8490171D02*
X48037381Y-8442552D01*
X48037381Y-8442552D02*
X48180238Y-8442552D01*
X48180238Y-8442552D02*
X48275477Y-8490171D01*
X48275477Y-8490171D02*
X48323096Y-8585409D01*
X48323096Y-8585409D02*
X48323096Y-9109219D01*
X48799286Y-9109219D02*
X48799286Y-8442552D01*
X48799286Y-8537790D02*
X48846905Y-8490171D01*
X48846905Y-8490171D02*
X48942143Y-8442552D01*
X48942143Y-8442552D02*
X49085000Y-8442552D01*
X49085000Y-8442552D02*
X49180238Y-8490171D01*
X49180238Y-8490171D02*
X49227857Y-8585409D01*
X49227857Y-8585409D02*
X49227857Y-9109219D01*
X49227857Y-8585409D02*
X49275476Y-8490171D01*
X49275476Y-8490171D02*
X49370714Y-8442552D01*
X49370714Y-8442552D02*
X49513571Y-8442552D01*
X49513571Y-8442552D02*
X49608810Y-8490171D01*
X49608810Y-8490171D02*
X49656429Y-8585409D01*
X49656429Y-8585409D02*
X49656429Y-9109219D01*
D11*
X0Y452500D02*
X0Y-10390820D01*
X90170000Y452500D02*
X90170000Y-10390820D01*
X0Y-9804400D02*
X90170000Y-9804400D01*
X0Y-9804400D02*
X90170000Y-9804400D01*
X0Y-9804400D02*
X1126504Y-9217979D01*
X0Y-9804400D02*
X1126504Y-10390821D01*
X90170000Y-9804400D02*
X89043496Y-10390821D01*
X90170000Y-9804400D02*
X89043496Y-9217979D01*
D10*
X-9108781Y44593292D02*
X-9108781Y44783768D01*
X-9108781Y44783768D02*
X-9156400Y44879006D01*
X-9156400Y44879006D02*
X-9204020Y44926625D01*
X-9204020Y44926625D02*
X-9346877Y45021863D01*
X-9346877Y45021863D02*
X-9537353Y45069482D01*
X-9537353Y45069482D02*
X-9918305Y45069482D01*
X-9918305Y45069482D02*
X-10013543Y45021863D01*
X-10013543Y45021863D02*
X-10061162Y44974244D01*
X-10061162Y44974244D02*
X-10108781Y44879006D01*
X-10108781Y44879006D02*
X-10108781Y44688530D01*
X-10108781Y44688530D02*
X-10061162Y44593292D01*
X-10061162Y44593292D02*
X-10013543Y44545673D01*
X-10013543Y44545673D02*
X-9918305Y44498054D01*
X-9918305Y44498054D02*
X-9680210Y44498054D01*
X-9680210Y44498054D02*
X-9584972Y44545673D01*
X-9584972Y44545673D02*
X-9537353Y44593292D01*
X-9537353Y44593292D02*
X-9489734Y44688530D01*
X-9489734Y44688530D02*
X-9489734Y44879006D01*
X-9489734Y44879006D02*
X-9537353Y44974244D01*
X-9537353Y44974244D02*
X-9584972Y45021863D01*
X-9584972Y45021863D02*
X-9680210Y45069482D01*
X-10108781Y45974244D02*
X-10108781Y45498054D01*
X-10108781Y45498054D02*
X-9632591Y45450435D01*
X-9632591Y45450435D02*
X-9680210Y45498054D01*
X-9680210Y45498054D02*
X-9727829Y45593292D01*
X-9727829Y45593292D02*
X-9727829Y45831387D01*
X-9727829Y45831387D02*
X-9680210Y45926625D01*
X-9680210Y45926625D02*
X-9632591Y45974244D01*
X-9632591Y45974244D02*
X-9537353Y46021863D01*
X-9537353Y46021863D02*
X-9299258Y46021863D01*
X-9299258Y46021863D02*
X-9204020Y45974244D01*
X-9204020Y45974244D02*
X-9156400Y45926625D01*
X-9156400Y45926625D02*
X-9108781Y45831387D01*
X-9108781Y45831387D02*
X-9108781Y45593292D01*
X-9108781Y45593292D02*
X-9156400Y45498054D01*
X-9156400Y45498054D02*
X-9204020Y45450435D01*
X-9204020Y46450435D02*
X-9156400Y46498054D01*
X-9156400Y46498054D02*
X-9108781Y46450435D01*
X-9108781Y46450435D02*
X-9156400Y46402816D01*
X-9156400Y46402816D02*
X-9204020Y46450435D01*
X-9204020Y46450435D02*
X-9108781Y46450435D01*
X-9680210Y47069482D02*
X-9727829Y46974244D01*
X-9727829Y46974244D02*
X-9775448Y46926625D01*
X-9775448Y46926625D02*
X-9870686Y46879006D01*
X-9870686Y46879006D02*
X-9918305Y46879006D01*
X-9918305Y46879006D02*
X-10013543Y46926625D01*
X-10013543Y46926625D02*
X-10061162Y46974244D01*
X-10061162Y46974244D02*
X-10108781Y47069482D01*
X-10108781Y47069482D02*
X-10108781Y47259958D01*
X-10108781Y47259958D02*
X-10061162Y47355196D01*
X-10061162Y47355196D02*
X-10013543Y47402815D01*
X-10013543Y47402815D02*
X-9918305Y47450434D01*
X-9918305Y47450434D02*
X-9870686Y47450434D01*
X-9870686Y47450434D02*
X-9775448Y47402815D01*
X-9775448Y47402815D02*
X-9727829Y47355196D01*
X-9727829Y47355196D02*
X-9680210Y47259958D01*
X-9680210Y47259958D02*
X-9680210Y47069482D01*
X-9680210Y47069482D02*
X-9632591Y46974244D01*
X-9632591Y46974244D02*
X-9584972Y46926625D01*
X-9584972Y46926625D02*
X-9489734Y46879006D01*
X-9489734Y46879006D02*
X-9299258Y46879006D01*
X-9299258Y46879006D02*
X-9204020Y46926625D01*
X-9204020Y46926625D02*
X-9156400Y46974244D01*
X-9156400Y46974244D02*
X-9108781Y47069482D01*
X-9108781Y47069482D02*
X-9108781Y47259958D01*
X-9108781Y47259958D02*
X-9156400Y47355196D01*
X-9156400Y47355196D02*
X-9204020Y47402815D01*
X-9204020Y47402815D02*
X-9299258Y47450434D01*
X-9299258Y47450434D02*
X-9489734Y47450434D01*
X-9489734Y47450434D02*
X-9584972Y47402815D01*
X-9584972Y47402815D02*
X-9632591Y47355196D01*
X-9632591Y47355196D02*
X-9680210Y47259958D01*
X-9680210Y48021863D02*
X-9727829Y47926625D01*
X-9727829Y47926625D02*
X-9775448Y47879006D01*
X-9775448Y47879006D02*
X-9870686Y47831387D01*
X-9870686Y47831387D02*
X-9918305Y47831387D01*
X-9918305Y47831387D02*
X-10013543Y47879006D01*
X-10013543Y47879006D02*
X-10061162Y47926625D01*
X-10061162Y47926625D02*
X-10108781Y48021863D01*
X-10108781Y48021863D02*
X-10108781Y48212339D01*
X-10108781Y48212339D02*
X-10061162Y48307577D01*
X-10061162Y48307577D02*
X-10013543Y48355196D01*
X-10013543Y48355196D02*
X-9918305Y48402815D01*
X-9918305Y48402815D02*
X-9870686Y48402815D01*
X-9870686Y48402815D02*
X-9775448Y48355196D01*
X-9775448Y48355196D02*
X-9727829Y48307577D01*
X-9727829Y48307577D02*
X-9680210Y48212339D01*
X-9680210Y48212339D02*
X-9680210Y48021863D01*
X-9680210Y48021863D02*
X-9632591Y47926625D01*
X-9632591Y47926625D02*
X-9584972Y47879006D01*
X-9584972Y47879006D02*
X-9489734Y47831387D01*
X-9489734Y47831387D02*
X-9299258Y47831387D01*
X-9299258Y47831387D02*
X-9204020Y47879006D01*
X-9204020Y47879006D02*
X-9156400Y47926625D01*
X-9156400Y47926625D02*
X-9108781Y48021863D01*
X-9108781Y48021863D02*
X-9108781Y48212339D01*
X-9108781Y48212339D02*
X-9156400Y48307577D01*
X-9156400Y48307577D02*
X-9204020Y48355196D01*
X-9204020Y48355196D02*
X-9299258Y48402815D01*
X-9299258Y48402815D02*
X-9489734Y48402815D01*
X-9489734Y48402815D02*
X-9584972Y48355196D01*
X-9584972Y48355196D02*
X-9632591Y48307577D01*
X-9632591Y48307577D02*
X-9680210Y48212339D01*
X-10108781Y49307577D02*
X-10108781Y48831387D01*
X-10108781Y48831387D02*
X-9632591Y48783768D01*
X-9632591Y48783768D02*
X-9680210Y48831387D01*
X-9680210Y48831387D02*
X-9727829Y48926625D01*
X-9727829Y48926625D02*
X-9727829Y49164720D01*
X-9727829Y49164720D02*
X-9680210Y49259958D01*
X-9680210Y49259958D02*
X-9632591Y49307577D01*
X-9632591Y49307577D02*
X-9537353Y49355196D01*
X-9537353Y49355196D02*
X-9299258Y49355196D01*
X-9299258Y49355196D02*
X-9204020Y49307577D01*
X-9204020Y49307577D02*
X-9156400Y49259958D01*
X-9156400Y49259958D02*
X-9108781Y49164720D01*
X-9108781Y49164720D02*
X-9108781Y48926625D01*
X-9108781Y48926625D02*
X-9156400Y48831387D01*
X-9156400Y48831387D02*
X-9204020Y48783768D01*
X-10108781Y49974244D02*
X-10108781Y50069482D01*
X-10108781Y50069482D02*
X-10061162Y50164720D01*
X-10061162Y50164720D02*
X-10013543Y50212339D01*
X-10013543Y50212339D02*
X-9918305Y50259958D01*
X-9918305Y50259958D02*
X-9727829Y50307577D01*
X-9727829Y50307577D02*
X-9489734Y50307577D01*
X-9489734Y50307577D02*
X-9299258Y50259958D01*
X-9299258Y50259958D02*
X-9204020Y50212339D01*
X-9204020Y50212339D02*
X-9156400Y50164720D01*
X-9156400Y50164720D02*
X-9108781Y50069482D01*
X-9108781Y50069482D02*
X-9108781Y49974244D01*
X-9108781Y49974244D02*
X-9156400Y49879006D01*
X-9156400Y49879006D02*
X-9204020Y49831387D01*
X-9204020Y49831387D02*
X-9299258Y49783768D01*
X-9299258Y49783768D02*
X-9489734Y49736149D01*
X-9489734Y49736149D02*
X-9727829Y49736149D01*
X-9727829Y49736149D02*
X-9918305Y49783768D01*
X-9918305Y49783768D02*
X-10013543Y49831387D01*
X-10013543Y49831387D02*
X-10061162Y49879006D01*
X-10061162Y49879006D02*
X-10108781Y49974244D01*
X-9108781Y51498054D02*
X-9775448Y51498054D01*
X-9680210Y51498054D02*
X-9727829Y51545673D01*
X-9727829Y51545673D02*
X-9775448Y51640911D01*
X-9775448Y51640911D02*
X-9775448Y51783768D01*
X-9775448Y51783768D02*
X-9727829Y51879006D01*
X-9727829Y51879006D02*
X-9632591Y51926625D01*
X-9632591Y51926625D02*
X-9108781Y51926625D01*
X-9632591Y51926625D02*
X-9727829Y51974244D01*
X-9727829Y51974244D02*
X-9775448Y52069482D01*
X-9775448Y52069482D02*
X-9775448Y52212339D01*
X-9775448Y52212339D02*
X-9727829Y52307578D01*
X-9727829Y52307578D02*
X-9632591Y52355197D01*
X-9632591Y52355197D02*
X-9108781Y52355197D01*
X-9108781Y52831387D02*
X-9775448Y52831387D01*
X-9680210Y52831387D02*
X-9727829Y52879006D01*
X-9727829Y52879006D02*
X-9775448Y52974244D01*
X-9775448Y52974244D02*
X-9775448Y53117101D01*
X-9775448Y53117101D02*
X-9727829Y53212339D01*
X-9727829Y53212339D02*
X-9632591Y53259958D01*
X-9632591Y53259958D02*
X-9108781Y53259958D01*
X-9632591Y53259958D02*
X-9727829Y53307577D01*
X-9727829Y53307577D02*
X-9775448Y53402815D01*
X-9775448Y53402815D02*
X-9775448Y53545672D01*
X-9775448Y53545672D02*
X-9727829Y53640911D01*
X-9727829Y53640911D02*
X-9632591Y53688530D01*
X-9632591Y53688530D02*
X-9108781Y53688530D01*
D11*
X16219700Y97059600D02*
X-9000020Y97059600D01*
X16219700Y1174600D02*
X-9000020Y1174600D01*
X-8413600Y97059600D02*
X-8413600Y1174600D01*
X-8413600Y97059600D02*
X-8413600Y1174600D01*
X-8413600Y97059600D02*
X-7827179Y95933096D01*
X-8413600Y97059600D02*
X-9000021Y95933096D01*
X-8413600Y1174600D02*
X-9000021Y2301104D01*
X-8413600Y1174600D02*
X-7827179Y2301104D01*
D12*
%TO.C,J104*%
X1654762Y6071591D02*
X1988095Y6071591D01*
X2065476Y5547781D02*
X1589285Y5547781D01*
X1589285Y5547781D02*
X1714285Y6547781D01*
X1714285Y6547781D02*
X2190476Y6547781D01*
X2494047Y5547781D02*
X2619047Y6547781D01*
X2619047Y6547781D02*
X2863095Y5833496D01*
X2863095Y5833496D02*
X3285714Y6547781D01*
X3285714Y6547781D02*
X3160714Y5547781D01*
X3636904Y5547781D02*
X3761904Y6547781D01*
X4958332Y6595400D02*
X3940475Y5309686D01*
X5732142Y5547781D02*
X5458332Y6023972D01*
X5160713Y5547781D02*
X5285713Y6547781D01*
X5285713Y6547781D02*
X5666666Y6547781D01*
X5666666Y6547781D02*
X5755951Y6500162D01*
X5755951Y6500162D02*
X5797618Y6452543D01*
X5797618Y6452543D02*
X5833332Y6357305D01*
X5833332Y6357305D02*
X5815475Y6214448D01*
X5815475Y6214448D02*
X5755951Y6119210D01*
X5755951Y6119210D02*
X5702380Y6071591D01*
X5702380Y6071591D02*
X5601190Y6023972D01*
X5601190Y6023972D02*
X5220237Y6023972D01*
X6559523Y6071591D02*
X6226190Y6071591D01*
X6160713Y5547781D02*
X6285713Y6547781D01*
X6285713Y6547781D02*
X6761904Y6547781D01*
X7017856Y5547781D02*
X7142856Y6547781D01*
X8214285Y5595400D02*
X8351189Y5547781D01*
X8351189Y5547781D02*
X8589285Y5547781D01*
X8589285Y5547781D02*
X8690475Y5595400D01*
X8690475Y5595400D02*
X8744047Y5643020D01*
X8744047Y5643020D02*
X8803570Y5738258D01*
X8803570Y5738258D02*
X8815475Y5833496D01*
X8815475Y5833496D02*
X8779761Y5928734D01*
X8779761Y5928734D02*
X8738094Y5976353D01*
X8738094Y5976353D02*
X8648809Y6023972D01*
X8648809Y6023972D02*
X8464285Y6071591D01*
X8464285Y6071591D02*
X8374999Y6119210D01*
X8374999Y6119210D02*
X8333332Y6166829D01*
X8333332Y6166829D02*
X8297618Y6262067D01*
X8297618Y6262067D02*
X8309523Y6357305D01*
X8309523Y6357305D02*
X8369047Y6452543D01*
X8369047Y6452543D02*
X8422618Y6500162D01*
X8422618Y6500162D02*
X8523809Y6547781D01*
X8523809Y6547781D02*
X8761904Y6547781D01*
X8761904Y6547781D02*
X8898809Y6500162D01*
X9208332Y5547781D02*
X9333332Y6547781D01*
X9636904Y5547781D02*
X9702380Y6071591D01*
X9702380Y6071591D02*
X9666666Y6166829D01*
X9666666Y6166829D02*
X9577380Y6214448D01*
X9577380Y6214448D02*
X9434523Y6214448D01*
X9434523Y6214448D02*
X9333332Y6166829D01*
X9333332Y6166829D02*
X9279761Y6119210D01*
X10113094Y5547781D02*
X10196428Y6214448D01*
X10238094Y6547781D02*
X10184523Y6500162D01*
X10184523Y6500162D02*
X10226190Y6452543D01*
X10226190Y6452543D02*
X10279761Y6500162D01*
X10279761Y6500162D02*
X10238094Y6547781D01*
X10238094Y6547781D02*
X10226190Y6452543D01*
X10976189Y5595400D02*
X10874999Y5547781D01*
X10874999Y5547781D02*
X10684522Y5547781D01*
X10684522Y5547781D02*
X10595237Y5595400D01*
X10595237Y5595400D02*
X10559522Y5690639D01*
X10559522Y5690639D02*
X10607142Y6071591D01*
X10607142Y6071591D02*
X10666665Y6166829D01*
X10666665Y6166829D02*
X10767856Y6214448D01*
X10767856Y6214448D02*
X10958332Y6214448D01*
X10958332Y6214448D02*
X11047618Y6166829D01*
X11047618Y6166829D02*
X11083332Y6071591D01*
X11083332Y6071591D02*
X11071427Y5976353D01*
X11071427Y5976353D02*
X10583332Y5881115D01*
X11589285Y5547781D02*
X11499999Y5595400D01*
X11499999Y5595400D02*
X11464285Y5690639D01*
X11464285Y5690639D02*
X11571427Y6547781D01*
X12398809Y5547781D02*
X12523809Y6547781D01*
X12404761Y5595400D02*
X12303571Y5547781D01*
X12303571Y5547781D02*
X12113095Y5547781D01*
X12113095Y5547781D02*
X12023809Y5595400D01*
X12023809Y5595400D02*
X11982142Y5643020D01*
X11982142Y5643020D02*
X11946428Y5738258D01*
X11946428Y5738258D02*
X11982142Y6023972D01*
X11982142Y6023972D02*
X12041666Y6119210D01*
X12041666Y6119210D02*
X12095237Y6166829D01*
X12095237Y6166829D02*
X12196428Y6214448D01*
X12196428Y6214448D02*
X12386904Y6214448D01*
X12386904Y6214448D02*
X12476190Y6166829D01*
D10*
%TO.C,H112*%
X85350000Y90805000D02*
G75*
G03*
X85350000Y90805000I-2800000J0D01*
G01*
%TO.C,H113*%
X87890000Y5080000D02*
G75*
G03*
X87890000Y5080000I-2800000J0D01*
G01*
%TO.C,H114*%
X7880000Y5080000D02*
G75*
G03*
X7880000Y5080000I-2800000J0D01*
G01*
%TO.C,H111*%
X11690000Y90805000D02*
G75*
G03*
X11690000Y90805000I-2800000J0D01*
G01*
%TD*%
M02*
