%TF.GenerationSoftware,KiCad,Pcbnew,7.0.5*%
%TF.CreationDate,2024-04-22T16:47:12+03:00*%
%TF.ProjectId,satnogs-comms,7361746e-6f67-4732-9d63-6f6d6d732e6b,rev?*%
%TF.SameCoordinates,PX4eb9cf0PY82ce540*%
%TF.FileFunction,Soldermask,Top*%
%TF.FilePolarity,Negative*%
%FSLAX46Y46*%
G04 Gerber Fmt 4.6, Leading zero omitted, Abs format (unit mm)*
G04 Created by KiCad (PCBNEW 7.0.5) date 2024-04-22 16:47:12*
%MOMM*%
%LPD*%
G01*
G04 APERTURE LIST*
G04 Aperture macros list*
%AMRoundRect*
0 Rectangle with rounded corners*
0 $1 Rounding radius*
0 $2 $3 $4 $5 $6 $7 $8 $9 X,Y pos of 4 corners*
0 Add a 4 corners polygon primitive as box body*
4,1,4,$2,$3,$4,$5,$6,$7,$8,$9,$2,$3,0*
0 Add four circle primitives for the rounded corners*
1,1,$1+$1,$2,$3*
1,1,$1+$1,$4,$5*
1,1,$1+$1,$6,$7*
1,1,$1+$1,$8,$9*
0 Add four rect primitives between the rounded corners*
20,1,$1+$1,$2,$3,$4,$5,0*
20,1,$1+$1,$4,$5,$6,$7,0*
20,1,$1+$1,$6,$7,$8,$9,0*
20,1,$1+$1,$8,$9,$2,$3,0*%
%AMRotRect*
0 Rectangle, with rotation*
0 The origin of the aperture is its center*
0 $1 length*
0 $2 width*
0 $3 Rotation angle, in degrees counterclockwise*
0 Add horizontal line*
21,1,$1,$2,0,0,$3*%
%AMFreePoly0*
4,1,14,0.155252,0.089749,0.264749,-0.019748,0.275000,-0.044497,0.275000,-0.065000,0.264749,-0.089749,0.240000,-0.100000,-0.240000,-0.100000,-0.264749,-0.089749,-0.275000,-0.065000,-0.275000,0.065000,-0.264749,0.089749,-0.240000,0.100000,0.130503,0.100000,0.155252,0.089749,0.155252,0.089749,$1*%
%AMFreePoly1*
4,1,14,0.264749,0.089749,0.275000,0.065000,0.275000,0.044497,0.264749,0.019748,0.155252,-0.089749,0.130503,-0.100000,-0.240000,-0.100000,-0.264749,-0.089749,-0.275000,-0.065000,-0.275000,0.065000,-0.264749,0.089749,-0.240000,0.100000,0.240000,0.100000,0.264749,0.089749,0.264749,0.089749,$1*%
%AMFreePoly2*
4,1,14,0.089749,0.264749,0.100000,0.240000,0.100000,-0.240000,0.089749,-0.264749,0.065000,-0.275000,-0.065000,-0.275000,-0.089749,-0.264749,-0.100000,-0.240000,-0.100000,0.130503,-0.089749,0.155252,0.019748,0.264749,0.044497,0.275000,0.065000,0.275000,0.089749,0.264749,0.089749,0.264749,$1*%
%AMFreePoly3*
4,1,14,-0.019748,0.264749,0.089749,0.155252,0.100000,0.130503,0.100000,-0.240000,0.089749,-0.264749,0.065000,-0.275000,-0.065000,-0.275000,-0.089749,-0.264749,-0.100000,-0.240000,-0.100000,0.240000,-0.089749,0.264749,-0.065000,0.275000,-0.044497,0.275000,-0.019748,0.264749,-0.019748,0.264749,$1*%
%AMFreePoly4*
4,1,14,0.264749,0.089749,0.275000,0.065000,0.275000,-0.065000,0.264749,-0.089749,0.240000,-0.100000,-0.130503,-0.100000,-0.155252,-0.089749,-0.264749,0.019748,-0.275000,0.044497,-0.275000,0.065000,-0.264749,0.089749,-0.240000,0.100000,0.240000,0.100000,0.264749,0.089749,0.264749,0.089749,$1*%
%AMFreePoly5*
4,1,14,0.264749,0.089749,0.275000,0.065000,0.275000,-0.065000,0.264749,-0.089749,0.240000,-0.100000,-0.240000,-0.100000,-0.264749,-0.089749,-0.275000,-0.065000,-0.275000,-0.044497,-0.264749,-0.019748,-0.155252,0.089749,-0.130503,0.100000,0.240000,0.100000,0.264749,0.089749,0.264749,0.089749,$1*%
%AMFreePoly6*
4,1,14,0.089749,0.264749,0.100000,0.240000,0.100000,-0.130503,0.089749,-0.155252,-0.019748,-0.264749,-0.044497,-0.275000,-0.065000,-0.275000,-0.089749,-0.264749,-0.100000,-0.240000,-0.100000,0.240000,-0.089749,0.264749,-0.065000,0.275000,0.065000,0.275000,0.089749,0.264749,0.089749,0.264749,$1*%
%AMFreePoly7*
4,1,14,0.089749,0.264749,0.100000,0.240000,0.100000,-0.240000,0.089749,-0.264749,0.065000,-0.275000,0.044497,-0.275000,0.019748,-0.264749,-0.089749,-0.155252,-0.100000,-0.130503,-0.100000,0.240000,-0.089749,0.264749,-0.065000,0.275000,0.065000,0.275000,0.089749,0.264749,0.089749,0.264749,$1*%
%AMFreePoly8*
4,1,7,1.500000,-0.775000,-1.500000,-0.775000,-1.500000,0.225000,-6.000000,0.225000,-6.000000,0.775000,1.500000,0.775000,1.500000,-0.775000,1.500000,-0.775000,$1*%
%AMFreePoly9*
4,1,8,1.500000,-0.775000,-1.500000,-0.775000,-6.000000,-0.775000,-6.000000,-0.225000,-1.500000,-0.225000,-1.500000,0.775000,1.500000,0.775000,1.500000,-0.775000,1.500000,-0.775000,$1*%
%AMFreePoly10*
4,1,6,0.125000,-0.099500,-0.013000,-0.237500,-0.125000,-0.237500,-0.125000,0.237500,0.125000,0.237500,0.125000,-0.099500,0.125000,-0.099500,$1*%
%AMFreePoly11*
4,1,6,0.125000,0.099500,0.125000,-0.237500,-0.125000,-0.237500,-0.125000,0.237500,-0.013000,0.237500,0.125000,0.099500,0.125000,0.099500,$1*%
%AMFreePoly12*
4,1,36,0.462941,0.544983,0.479174,0.544983,0.492307,0.535440,0.507748,0.530424,0.517290,0.517290,0.530424,0.507748,0.535440,0.492307,0.544983,0.479174,0.544983,0.462940,0.550000,0.447500,0.550000,-0.447500,0.544983,-0.462940,0.544983,-0.479174,0.535440,-0.492307,0.530424,-0.507748,0.517290,-0.517290,0.507748,-0.530424,0.492307,-0.535440,0.479174,-0.544983,0.462941,-0.544983,
0.447500,-0.550000,-0.447500,-0.550000,-0.462941,-0.544983,-0.479174,-0.544983,-0.492307,-0.535440,-0.507748,-0.530424,-0.517290,-0.517290,-0.530424,-0.507748,-0.535440,-0.492307,-0.544983,-0.479174,-0.544983,-0.462940,-0.550000,-0.447500,-0.550000,0.350000,-0.350000,0.550000,0.447500,0.550000,0.462941,0.544983,0.462941,0.544983,$1*%
%AMFreePoly13*
4,1,245,1.180000,-3.918000,1.162000,-4.104000,1.108000,-4.283000,1.020000,-4.447000,0.901000,-4.592000,0.757000,-4.710000,0.592000,-4.798000,0.414000,-4.852000,0.228000,-4.871000,0.042000,-4.889000,-0.137000,-4.943000,-0.301000,-5.031000,-0.446000,-5.150000,-0.564000,-5.294000,-0.652000,-5.459000,-0.706000,-5.637000,-0.725000,-5.823000,-0.725000,-24.213000,-0.706000,-24.398000,-0.652000,-24.577000,
-0.564000,-24.742000,-0.446000,-24.886000,-0.301000,-25.005000,-0.137000,-25.093000,0.042000,-25.147000,0.414000,-25.183000,0.592000,-25.238000,0.757000,-25.326000,0.901000,-25.444000,1.020000,-25.588000,1.108000,-25.753000,1.162000,-25.932000,1.180000,-26.118000,1.180000,-40.608000,-2.785000,-40.608000,-2.785000,-40.180000,-2.766000,-40.046000,-2.713000,-39.922000,-2.628000,-39.817000,-2.518000,-39.738000,
-2.392000,-39.692000,-2.132000,-39.616000,-1.884000,-39.506000,-1.654000,-39.363000,-1.445000,-39.191000,-1.261000,-38.992000,-1.106000,-38.770000,-0.983000,-38.529000,-0.893000,-38.274000,-0.838000,-38.008000,-0.820000,-37.738000,-0.820000,-30.535000,-0.837000,-30.274000,-0.888000,-30.018000,-0.972000,-29.770000,-1.088000,-29.535000,-1.233000,-29.318000,-1.405000,-29.121000,-1.602000,-28.949000,-1.820000,-28.803000,
-2.054000,-28.688000,-2.302000,-28.604000,-2.559000,-28.552000,-2.820000,-28.535000,-21.739000,-28.535000,-22.000000,-28.552000,-22.257000,-28.604000,-22.505000,-28.688000,-22.739000,-28.803000,-22.957000,-28.949000,-23.154000,-29.121000,-23.326000,-29.318000,-23.471000,-29.535000,-23.587000,-29.770000,-23.671000,-30.018000,-23.722000,-30.274000,-23.739000,-30.535000,-23.739000,-32.861000,-23.757000,-33.110000,-23.810000,-33.354000,
-23.898000,-33.588000,-24.017000,-33.807000,-24.167000,-34.007000,-24.343000,-34.184000,-24.543000,-34.333000,-24.762000,-34.453000,-24.996000,-34.540000,-25.240000,-34.593000,-25.489000,-34.611000,-26.462000,-34.611000,-26.723000,-34.628000,-26.979000,-34.679000,-27.227000,-34.763000,-27.462000,-34.879000,-27.679000,-35.024000,-27.876000,-35.197000,-28.048000,-35.394000,-28.194000,-35.611000,-28.309000,-35.846000,-28.393000,-36.094000,
-28.444000,-36.350000,-28.462000,-36.611000,-28.462000,-36.952000,-28.479000,-37.082000,-28.529000,-37.202000,-28.608000,-37.306000,-28.712000,-37.385000,-28.832000,-37.435000,-28.962000,-37.452000,-29.962000,-37.452000,-30.091000,-37.435000,-30.212000,-37.385000,-30.315000,-37.306000,-30.395000,-37.202000,-30.445000,-37.082000,-30.462000,-36.952000,-30.462000,-32.361000,-30.445000,-32.232000,-30.395000,-32.111000,-30.315000,-32.008000,
-30.212000,-31.928000,-30.091000,-31.878000,-29.962000,-31.861000,-27.990000,-31.861000,-27.729000,-31.844000,-27.472000,-31.793000,-27.224000,-31.709000,-26.990000,-31.593000,-26.772000,-31.448000,-26.575000,-31.275000,-26.403000,-31.079000,-26.258000,-30.861000,-26.142000,-30.627000,-26.058000,-30.379000,-26.007000,-30.122000,-25.990000,-29.861000,-25.990000,-27.035000,-25.973000,-26.906000,-25.923000,-26.785000,-25.843000,-26.682000,
-25.740000,-26.602000,-25.619000,-26.552000,-25.490000,-26.535000,-20.862000,-26.535000,-20.601000,-26.518000,-20.344000,-26.467000,-20.096000,-26.383000,-19.862000,-26.267000,-19.644000,-26.122000,-19.447000,-25.950000,-19.275000,-25.753000,-19.130000,-25.535000,-19.014000,-25.301000,-18.930000,-25.053000,-18.879000,-24.796000,-18.862000,-24.535000,-18.862000,-7.892000,-18.877000,-7.648000,-18.921000,-7.407000,-18.995000,-7.174000,
-19.097000,-6.951000,-19.186000,-6.757000,-19.250000,-6.552000,-19.289000,-6.342000,-19.302000,-6.128000,-19.302000,-2.969000,-19.285000,-2.839000,-19.235000,-2.719000,-19.156000,-2.615000,-19.052000,-2.536000,-18.932000,-2.486000,-18.802000,-2.469000,-13.225000,-2.469000,-13.225000,-4.469000,-13.499000,-4.488000,-13.769000,-4.544000,-14.028000,-4.637000,-14.272000,-4.765000,-14.496000,-4.925000,-14.696000,-5.114000,
-14.868000,-5.329000,-16.505000,-7.688000,-16.631000,-7.895000,-16.731000,-8.116000,-16.803000,-8.348000,-16.847000,-8.586000,-16.862000,-8.828000,-16.862000,-24.535000,-16.844000,-24.796000,-16.793000,-25.053000,-16.709000,-25.301000,-16.594000,-25.535000,-16.448000,-25.753000,-16.276000,-25.950000,-16.079000,-26.122000,-15.862000,-26.267000,-15.627000,-26.383000,-15.379000,-26.467000,-15.123000,-26.518000,-14.862000,-26.535000,
-4.725000,-26.535000,-4.464000,-26.518000,-4.207000,-26.467000,-3.959000,-26.383000,-3.725000,-26.267000,-3.507000,-26.122000,-3.310000,-25.950000,-3.138000,-25.753000,-2.993000,-25.535000,-2.877000,-25.301000,-2.793000,-25.053000,-2.742000,-24.796000,-2.725000,-24.535000,-2.725000,-6.469000,-2.742000,-6.208000,-2.793000,-5.951000,-2.877000,-5.703000,-2.993000,-5.469000,-3.138000,-5.251000,-3.310000,-5.055000,
-3.507000,-4.882000,-3.725000,-4.737000,-3.959000,-4.621000,-4.207000,-4.537000,-4.464000,-4.486000,-4.725000,-4.469000,-13.125000,-4.469000,-13.125000,-2.469000,-3.876000,-2.469000,-3.621000,-2.452000,-3.369000,-2.403000,-3.126000,-2.323000,-2.895000,-2.212000,-2.680000,-2.072000,-1.624000,-1.283000,-1.422000,-1.111000,-1.245000,-0.913000,-1.095000,-0.694000,-0.976000,-0.456000,-0.890000,-0.205000,
-0.837000,0.055000,-0.820000,0.320000,-0.820000,3.340000,1.180000,3.340000,1.180000,-3.918000,1.180000,-3.918000,$1*%
%AMFreePoly14*
4,1,20,7.910000,4.414000,7.910000,-6.210000,5.900000,-6.210000,5.900000,-4.428000,5.883000,-4.167000,5.832000,-3.911000,5.748000,-3.663000,5.632000,-3.428000,5.487000,-3.211000,5.315000,-3.014000,5.118000,-2.841000,4.900000,-2.696000,4.666000,-2.580000,4.418000,-2.496000,4.161000,-2.445000,3.900000,-2.428000,-2.770000,-2.428000,-2.770000,3.256000,3.683000,4.462000,7.910000,4.414000,
7.910000,4.414000,$1*%
%AMFreePoly15*
4,1,313,37.697000,6.512000,37.886000,6.447000,38.058000,6.346000,38.207000,6.213000,38.326000,6.054000,38.836000,5.206000,38.983000,4.995000,39.155000,4.804000,39.350000,4.637000,39.566000,4.497000,39.797000,4.385000,40.041000,4.304000,40.293000,4.254000,40.550000,4.238000,50.368000,4.238000,50.497000,4.221000,50.618000,4.171000,50.721000,4.091000,50.801000,3.988000,50.851000,3.867000,
50.868000,3.738000,50.868000,-9.240000,50.885000,-9.501000,50.936000,-9.758000,51.020000,-10.006000,51.136000,-10.240000,51.281000,-10.458000,51.453000,-10.655000,51.650000,-10.827000,51.868000,-10.972000,52.102000,-11.088000,52.350000,-11.172000,52.607000,-11.223000,52.868000,-11.240000,56.003000,-11.240000,56.003000,-11.345000,56.020000,-11.606000,56.071000,-11.863000,56.155000,-12.111000,56.271000,-12.345000,
56.416000,-12.563000,56.589000,-12.760000,56.786000,-12.932000,57.003000,-13.077000,57.238000,-13.193000,57.485000,-13.277000,57.742000,-13.328000,58.003000,-13.345000,75.475000,-13.345000,75.737000,-13.328000,75.995000,-13.276000,76.244000,-13.191000,76.480000,-13.074000,76.698000,-12.927000,76.895000,-12.753000,77.068000,-12.554000,77.213000,-12.335000,77.328000,-12.098000,78.932000,-8.146000,79.112000,-7.754000,
79.323000,-7.378000,79.566000,-7.021000,79.838000,-6.686000,80.137000,-6.375000,80.462000,-6.091000,80.810000,-5.835000,81.177000,-5.609000,81.563000,-5.415000,81.964000,-5.255000,82.376000,-5.129000,82.798000,-5.038000,83.226000,-4.984000,83.658000,-4.965000,84.738000,-4.965000,84.999000,-4.948000,85.255000,-4.897000,85.503000,-4.813000,85.738000,-4.697000,85.955000,-4.552000,86.152000,-4.380000,
86.324000,-4.183000,86.470000,-3.965000,86.585000,-3.731000,86.669000,-3.483000,86.720000,-3.226000,86.738000,-2.965000,86.738000,-2.165000,86.719000,-1.895000,86.665000,-1.630000,86.575000,-1.374000,86.451000,-1.134000,86.296000,-0.912000,86.112000,-0.713000,85.903000,-0.540000,85.673000,-0.398000,85.426000,-0.287000,85.166000,-0.212000,85.039000,-0.165000,84.929000,-0.086000,84.844000,0.019000,
84.791000,0.143000,84.773000,0.277000,84.773000,0.806000,88.738000,0.806000,88.738000,-7.015000,83.658000,-7.015000,83.331000,-7.033000,83.008000,-7.085000,82.692000,-7.172000,82.388000,-7.292000,82.098000,-7.444000,81.826000,-7.626000,81.575000,-7.837000,81.349000,-8.072000,81.148000,-8.331000,80.977000,-8.610000,80.837000,-8.906000,80.729000,-9.215000,80.654000,-9.533000,80.615000,-9.858000,
80.610000,-10.185000,80.723000,-13.065000,80.723000,-15.145000,55.908000,-15.145000,55.722000,-15.127000,55.544000,-15.073000,55.379000,-14.985000,55.235000,-14.866000,55.116000,-14.722000,55.028000,-14.557000,54.974000,-14.379000,54.956000,-14.193000,54.937000,-14.007000,54.883000,-13.828000,54.795000,-13.664000,54.677000,-13.519000,54.532000,-13.401000,54.368000,-13.313000,54.189000,-13.259000,54.003000,-13.240000,
48.868000,-13.240000,48.868000,-2.512000,48.850000,-2.251000,48.799000,-1.995000,48.715000,-1.747000,48.600000,-1.512000,48.454000,-1.295000,48.282000,-1.098000,48.085000,-0.925000,47.868000,-0.780000,47.633000,-0.664000,47.385000,-0.580000,47.129000,-0.529000,46.868000,-0.512000,42.470000,-0.512000,42.209000,-0.529000,41.952000,-0.580000,41.704000,-0.664000,41.470000,-0.780000,41.252000,-0.925000,
41.055000,-1.098000,40.883000,-1.295000,40.738000,-1.512000,40.622000,-1.747000,40.538000,-1.995000,40.487000,-2.251000,40.470000,-2.512000,40.470000,-13.240000,35.588000,-13.240000,35.402000,-13.259000,35.224000,-13.313000,35.059000,-13.401000,34.915000,-13.519000,34.796000,-13.664000,34.708000,-13.828000,34.654000,-14.007000,34.636000,-14.193000,34.617000,-14.379000,34.563000,-14.557000,34.475000,-14.722000,
34.357000,-14.866000,34.212000,-14.985000,34.048000,-15.073000,33.869000,-15.127000,33.683000,-15.145000,6.582000,-15.145000,6.582000,-13.065000,6.695000,-10.185000,6.690000,-9.858000,6.651000,-9.533000,6.576000,-9.214000,6.468000,-8.905000,6.328000,-8.610000,6.157000,-8.331000,5.956000,-8.072000,5.730000,-7.836000,5.479000,-7.626000,5.207000,-7.444000,4.917000,-7.292000,4.613000,-7.172000,
4.297000,-7.085000,3.974000,-7.033000,3.648000,-7.015000,-1.432000,-7.015000,-1.432000,0.806000,2.521000,0.806000,2.521000,0.274000,2.503000,0.141000,2.450000,0.017000,2.366000,-0.088000,2.257000,-0.167000,2.130000,-0.214000,1.872000,-0.290000,1.625000,-0.401000,1.397000,-0.544000,1.189000,-0.716000,1.006000,-0.915000,0.852000,-1.137000,0.729000,-1.377000,0.640000,-1.632000,
0.586000,-1.896000,0.568000,-2.165000,0.568000,-2.965000,0.585000,-3.226000,0.636000,-3.483000,0.720000,-3.731000,0.836000,-3.965000,0.981000,-4.183000,1.153000,-4.380000,1.350000,-4.552000,1.568000,-4.697000,1.802000,-4.813000,2.050000,-4.897000,2.307000,-4.948000,2.568000,-4.965000,3.648000,-4.965000,4.079000,-4.984000,4.507000,-5.038000,4.929000,-5.129000,5.341000,-5.255000,
5.742000,-5.415000,6.128000,-5.609000,6.495000,-5.835000,6.843000,-6.090000,7.168000,-6.375000,7.467000,-6.686000,7.739000,-7.021000,7.982000,-7.377000,8.193000,-7.753000,8.373000,-8.146000,9.978000,-12.098000,10.093000,-12.335000,10.238000,-12.554000,10.410000,-12.753000,10.607000,-12.927000,10.826000,-13.074000,11.061000,-13.191000,11.310000,-13.276000,11.568000,-13.328000,11.831000,-13.345000,
31.588000,-13.345000,31.849000,-13.328000,32.106000,-13.277000,32.353000,-13.193000,32.588000,-13.077000,32.806000,-12.932000,33.002000,-12.760000,33.175000,-12.563000,33.320000,-12.345000,33.436000,-12.111000,33.520000,-11.863000,33.571000,-11.606000,33.588000,-11.345000,33.588000,-11.240000,36.470000,-11.240000,36.731000,-11.223000,36.987000,-11.172000,37.235000,-11.088000,37.470000,-10.972000,37.687000,-10.827000,
37.884000,-10.655000,38.056000,-10.458000,38.202000,-10.240000,38.317000,-10.006000,38.401000,-9.758000,38.452000,-9.501000,38.470000,-9.240000,38.470000,-1.017000,38.451000,-0.744000,38.395000,-0.476000,38.303000,-0.218000,38.177000,0.025000,38.019000,0.248000,37.832000,0.448000,37.619000,0.620000,37.385000,0.761000,37.133000,0.870000,36.870000,0.943000,36.741000,0.988000,36.629000,1.066000,
36.543000,1.172000,36.488000,1.297000,36.470000,1.433000,36.470000,5.538000,36.490000,5.736000,36.549000,5.927000,36.644000,6.102000,36.773000,6.255000,36.929000,6.379000,37.107000,6.470000,37.299000,6.523000,37.499000,6.537000,37.697000,6.512000,37.697000,6.512000,$1*%
%AMFreePoly16*
4,1,176,10.669000,63.765000,10.669000,58.081000,2.729000,58.081000,2.468000,58.063000,2.211000,58.012000,1.964000,57.928000,1.729000,57.813000,1.512000,57.667000,1.315000,57.495000,1.142000,57.298000,0.997000,57.081000,0.881000,56.846000,0.797000,56.598000,0.746000,56.342000,0.729000,56.081000,0.729000,37.284000,0.744000,37.037000,0.790000,36.794000,0.866000,36.558000,0.970000,36.333000,
1.101000,36.123000,1.257000,35.930000,1.436000,35.759000,1.634000,35.611000,1.634000,15.882000,1.651000,15.621000,1.702000,15.365000,1.786000,15.117000,1.902000,14.882000,2.047000,14.665000,2.220000,14.468000,2.417000,14.296000,2.634000,14.150000,2.869000,14.035000,3.116000,13.950000,3.373000,13.899000,3.634000,13.882000,35.127000,13.882000,35.257000,13.865000,35.377000,13.815000,
35.481000,13.736000,35.560000,13.632000,35.610000,13.512000,35.627000,13.382000,35.627000,9.262000,35.645000,8.994000,35.699000,8.732000,35.787000,8.478000,35.909000,8.239000,36.061000,8.018000,36.242000,7.820000,36.448000,7.647000,36.674000,7.504000,38.425000,6.555000,38.645000,6.414000,38.842000,6.241000,39.010000,6.041000,39.147000,5.818000,39.249000,5.577000,39.314000,5.324000,
39.341000,5.064000,39.328000,4.802000,39.277000,4.546000,39.188000,4.300000,39.063000,4.070000,38.906000,3.861000,38.719000,3.678000,38.507000,3.525000,38.274000,3.405000,38.027000,3.322000,37.769000,3.276000,37.508000,3.269000,37.248000,3.301000,36.996000,3.371000,36.758000,3.478000,33.889000,5.032000,33.781000,5.111000,33.698000,5.216000,33.645000,5.339000,33.627000,5.472000,
33.627000,9.882000,33.610000,10.143000,33.559000,10.400000,33.475000,10.648000,33.359000,10.882000,33.214000,11.100000,33.042000,11.297000,32.845000,11.469000,32.627000,11.614000,32.393000,11.730000,32.145000,11.814000,31.888000,11.865000,31.627000,11.882000,2.729000,11.882000,2.468000,11.865000,2.211000,11.814000,1.964000,11.730000,1.729000,11.614000,1.512000,11.469000,1.315000,11.297000,
1.142000,11.100000,0.997000,10.882000,0.881000,10.648000,0.797000,10.400000,0.746000,10.143000,0.729000,9.882000,0.729000,6.643000,0.747000,6.374000,0.801000,6.110000,0.891000,5.855000,1.013000,5.615000,1.167000,5.394000,1.349000,5.195000,1.557000,5.022000,1.785000,4.880000,2.031000,4.769000,2.289000,4.692000,2.538000,4.616000,2.773000,4.503000,2.989000,4.358000,
3.181000,4.181000,3.344000,3.979000,3.476000,3.754000,3.573000,3.512000,3.633000,3.259000,3.654000,2.999000,3.637000,2.739000,3.581000,2.485000,3.489000,2.241000,3.361000,2.015000,3.201000,1.809000,3.047000,1.618000,2.919000,1.409000,2.817000,1.186000,2.742000,0.952000,2.698000,0.711000,2.683000,0.466000,2.683000,-1.080000,-1.271000,-1.080000,-1.271000,13.411000,
-1.253000,13.597000,-1.198000,13.776000,-1.110000,13.940000,-0.992000,14.085000,-0.848000,14.203000,-0.683000,14.291000,-0.504000,14.345000,-0.318000,14.364000,-0.133000,14.382000,0.046000,14.436000,0.211000,14.524000,0.355000,14.642000,0.474000,14.787000,0.562000,14.952000,0.616000,15.130000,0.634000,15.316000,0.634000,33.706000,0.616000,33.891000,0.562000,34.070000,0.474000,34.235000,
0.355000,34.379000,0.211000,34.498000,0.046000,34.586000,-0.133000,34.640000,-0.318000,34.658000,-0.504000,34.676000,-0.683000,34.731000,-0.848000,34.819000,-0.992000,34.937000,-1.110000,35.081000,-1.198000,35.246000,-1.253000,35.425000,-1.271000,35.611000,-1.271000,64.922000,3.819000,64.922000,10.669000,63.765000,10.669000,63.765000,$1*%
G04 Aperture macros list end*
%ADD10C,0.600000*%
%ADD11FreePoly0,180.000000*%
%ADD12RoundRect,0.050000X0.225000X0.050000X-0.225000X0.050000X-0.225000X-0.050000X0.225000X-0.050000X0*%
%ADD13FreePoly1,180.000000*%
%ADD14FreePoly2,180.000000*%
%ADD15RoundRect,0.050000X0.050000X0.225000X-0.050000X0.225000X-0.050000X-0.225000X0.050000X-0.225000X0*%
%ADD16FreePoly3,180.000000*%
%ADD17FreePoly4,180.000000*%
%ADD18FreePoly5,180.000000*%
%ADD19FreePoly6,180.000000*%
%ADD20FreePoly7,180.000000*%
%ADD21R,0.740000X0.740000*%
%ADD22R,1.524000X1.524000*%
%ADD23C,1.524000*%
%ADD24C,5.600000*%
%ADD25RoundRect,0.250000X-0.250000X-0.475000X0.250000X-0.475000X0.250000X0.475000X-0.250000X0.475000X0*%
%ADD26RoundRect,0.250000X0.475000X-0.250000X0.475000X0.250000X-0.475000X0.250000X-0.475000X-0.250000X0*%
%ADD27R,2.350000X5.100000*%
%ADD28RoundRect,0.200000X0.275000X-0.200000X0.275000X0.200000X-0.275000X0.200000X-0.275000X-0.200000X0*%
%ADD29RoundRect,0.200000X-0.275000X0.200000X-0.275000X-0.200000X0.275000X-0.200000X0.275000X0.200000X0*%
%ADD30R,2.600000X1.100000*%
%ADD31FreePoly8,180.000000*%
%ADD32FreePoly9,180.000000*%
%ADD33RoundRect,0.140000X-0.140000X-0.170000X0.140000X-0.170000X0.140000X0.170000X-0.140000X0.170000X0*%
%ADD34RoundRect,0.147500X0.017678X-0.226274X0.226274X-0.017678X-0.017678X0.226274X-0.226274X0.017678X0*%
%ADD35RoundRect,0.250000X0.450000X-0.262500X0.450000X0.262500X-0.450000X0.262500X-0.450000X-0.262500X0*%
%ADD36FreePoly8,0.000000*%
%ADD37FreePoly9,0.000000*%
%ADD38RoundRect,0.147500X0.172500X-0.147500X0.172500X0.147500X-0.172500X0.147500X-0.172500X-0.147500X0*%
%ADD39RotRect,0.350000X1.000000X45.000000*%
%ADD40RotRect,0.350000X1.000000X315.000000*%
%ADD41RoundRect,0.140000X-0.021213X0.219203X-0.219203X0.021213X0.021213X-0.219203X0.219203X-0.021213X0*%
%ADD42RoundRect,0.140000X0.170000X-0.140000X0.170000X0.140000X-0.170000X0.140000X-0.170000X-0.140000X0*%
%ADD43FreePoly10,270.000000*%
%ADD44R,0.475000X0.250000*%
%ADD45FreePoly11,90.000000*%
%ADD46FreePoly10,0.000000*%
%ADD47R,0.250000X0.475000*%
%ADD48FreePoly11,180.000000*%
%ADD49FreePoly10,90.000000*%
%ADD50FreePoly11,270.000000*%
%ADD51FreePoly10,180.000000*%
%ADD52FreePoly11,0.000000*%
%ADD53FreePoly12,180.000000*%
%ADD54RoundRect,0.147500X-0.147500X-0.172500X0.147500X-0.172500X0.147500X0.172500X-0.147500X0.172500X0*%
%ADD55RoundRect,0.075000X-0.075000X0.275000X-0.075000X-0.275000X0.075000X-0.275000X0.075000X0.275000X0*%
%ADD56R,1.600000X0.700000*%
%ADD57C,0.050000*%
%ADD58R,0.750000X0.400000*%
%ADD59RoundRect,0.135000X0.135000X0.185000X-0.135000X0.185000X-0.135000X-0.185000X0.135000X-0.185000X0*%
%ADD60RoundRect,0.135000X0.185000X-0.135000X0.185000X0.135000X-0.185000X0.135000X-0.185000X-0.135000X0*%
%ADD61RoundRect,0.140000X-0.170000X0.140000X-0.170000X-0.140000X0.170000X-0.140000X0.170000X0.140000X0*%
%ADD62RoundRect,0.147500X-0.172500X0.147500X-0.172500X-0.147500X0.172500X-0.147500X0.172500X0.147500X0*%
%ADD63R,2.370000X2.230000*%
%ADD64RoundRect,0.140000X0.140000X0.170000X-0.140000X0.170000X-0.140000X-0.170000X0.140000X-0.170000X0*%
%ADD65RoundRect,0.150000X-0.512500X-0.150000X0.512500X-0.150000X0.512500X0.150000X-0.512500X0.150000X0*%
%ADD66RoundRect,0.225000X0.225000X0.250000X-0.225000X0.250000X-0.225000X-0.250000X0.225000X-0.250000X0*%
%ADD67RoundRect,0.135000X-0.135000X-0.185000X0.135000X-0.185000X0.135000X0.185000X-0.135000X0.185000X0*%
%ADD68RoundRect,0.135000X-0.185000X0.135000X-0.185000X-0.135000X0.185000X-0.135000X0.185000X0.135000X0*%
%ADD69RoundRect,0.225000X-0.250000X0.225000X-0.250000X-0.225000X0.250000X-0.225000X0.250000X0.225000X0*%
%ADD70RotRect,0.750000X0.400000X135.000000*%
%ADD71RotRect,0.750000X0.400000X315.000000*%
%ADD72RoundRect,0.062500X-0.350000X-0.062500X0.350000X-0.062500X0.350000X0.062500X-0.350000X0.062500X0*%
%ADD73RoundRect,0.062500X-0.062500X-0.350000X0.062500X-0.350000X0.062500X0.350000X-0.062500X0.350000X0*%
%ADD74R,2.700000X2.700000*%
%ADD75RotRect,0.350000X1.000000X135.000000*%
%ADD76RoundRect,0.062500X0.062500X-0.375000X0.062500X0.375000X-0.062500X0.375000X-0.062500X-0.375000X0*%
%ADD77RoundRect,0.062500X0.375000X-0.062500X0.375000X0.062500X-0.375000X0.062500X-0.375000X-0.062500X0*%
%ADD78R,5.600000X5.600000*%
%ADD79RoundRect,0.100000X-0.275000X0.250000X-0.275000X-0.250000X0.275000X-0.250000X0.275000X0.250000X0*%
%ADD80R,2.300000X2.300000*%
%ADD81RoundRect,0.147500X0.147500X0.172500X-0.147500X0.172500X-0.147500X-0.172500X0.147500X-0.172500X0*%
%ADD82RoundRect,0.218750X0.256250X-0.218750X0.256250X0.218750X-0.256250X0.218750X-0.256250X-0.218750X0*%
%ADD83R,0.500000X0.400000*%
%ADD84R,0.500000X0.300000*%
%ADD85RoundRect,0.075000X-0.350000X-0.075000X0.350000X-0.075000X0.350000X0.075000X-0.350000X0.075000X0*%
%ADD86RoundRect,0.075000X-0.075000X-0.350000X0.075000X-0.350000X0.075000X0.350000X-0.075000X0.350000X0*%
%ADD87R,2.100000X2.100000*%
%ADD88C,2.000000*%
%ADD89R,0.410000X0.720000*%
%ADD90R,1.730000X3.990000*%
%ADD91R,0.470000X0.410000*%
%ADD92R,0.585000X0.510000*%
%ADD93R,3.400000X1.800000*%
%ADD94RoundRect,0.050000X0.275000X-0.050000X0.275000X0.050000X-0.275000X0.050000X-0.275000X-0.050000X0*%
%ADD95RoundRect,0.050000X0.450000X-0.050000X0.450000X0.050000X-0.450000X0.050000X-0.450000X-0.050000X0*%
%ADD96RoundRect,0.062500X0.062500X0.212500X-0.062500X0.212500X-0.062500X-0.212500X0.062500X-0.212500X0*%
%ADD97RoundRect,0.062500X-0.062500X-0.212500X0.062500X-0.212500X0.062500X0.212500X-0.062500X0.212500X0*%
%ADD98RoundRect,0.225000X0.250000X-0.225000X0.250000X0.225000X-0.250000X0.225000X-0.250000X-0.225000X0*%
%ADD99FreePoly13,0.000000*%
%ADD100C,3.500000*%
%ADD101FreePoly14,0.000000*%
%ADD102FreePoly15,0.000000*%
%ADD103FreePoly16,0.000000*%
%ADD104RoundRect,0.250000X0.250000X0.475000X-0.250000X0.475000X-0.250000X-0.475000X0.250000X-0.475000X0*%
%ADD105RoundRect,0.250000X-0.475000X0.250000X-0.475000X-0.250000X0.475000X-0.250000X0.475000X0.250000X0*%
%ADD106RoundRect,0.218750X-0.218750X-0.381250X0.218750X-0.381250X0.218750X0.381250X-0.218750X0.381250X0*%
%ADD107R,1.700000X0.810000*%
%ADD108R,1.050000X0.810000*%
%ADD109RoundRect,0.150000X0.350000X-0.150000X0.350000X0.150000X-0.350000X0.150000X-0.350000X-0.150000X0*%
%ADD110RoundRect,0.250000X0.650000X-0.375000X0.650000X0.375000X-0.650000X0.375000X-0.650000X-0.375000X0*%
%ADD111RoundRect,0.093750X-0.106250X0.093750X-0.106250X-0.093750X0.106250X-0.093750X0.106250X0.093750X0*%
%ADD112R,1.600000X1.000000*%
%ADD113R,1.600000X0.800000*%
%ADD114RoundRect,0.189500X-1.060500X0.758000X-1.060500X-0.758000X1.060500X-0.758000X1.060500X0.758000X0*%
%ADD115R,1.050000X0.600000*%
%ADD116RoundRect,0.075000X0.075000X-0.725000X0.075000X0.725000X-0.075000X0.725000X-0.075000X-0.725000X0*%
%ADD117RoundRect,0.075000X0.725000X-0.075000X0.725000X0.075000X-0.725000X0.075000X-0.725000X-0.075000X0*%
%ADD118C,1.000000*%
G04 APERTURE END LIST*
D10*
%TO.C,TP501*%
X62482400Y70942200D02*
G75*
G03*
X62482400Y70942200I-100000J0D01*
G01*
%TO.C,TP504*%
X53135200Y79298800D02*
G75*
G03*
X53135200Y79298800I-100000J0D01*
G01*
%TO.C,TP512*%
X84555000Y38608000D02*
G75*
G03*
X84555000Y38608000I-100000J0D01*
G01*
%TO.C,TP515*%
X79195600Y39370000D02*
G75*
G03*
X79195600Y39370000I-100000J0D01*
G01*
%TO.C,TP509*%
X74547400Y38582600D02*
G75*
G03*
X74547400Y38582600I-100000J0D01*
G01*
%TO.C,TP510*%
X82269000Y38531800D02*
G75*
G03*
X82269000Y38531800I-100000J0D01*
G01*
%TO.C,TP506*%
X84936000Y42341800D02*
G75*
G03*
X84936000Y42341800I-100000J0D01*
G01*
%TO.C,TP1002*%
X61263200Y5778500D02*
G75*
G03*
X61263200Y5778500I-100000J0D01*
G01*
%TO.C,TP1005*%
X53287600Y5562600D02*
G75*
G03*
X53287600Y5562600I-100000J0D01*
G01*
%TO.C,TP1006*%
X78370100Y28333700D02*
G75*
G03*
X78370100Y28333700I-100000J0D01*
G01*
%TO.C,TP602*%
X41171800Y31369000D02*
G75*
G03*
X41171800Y31369000I-100000J0D01*
G01*
%TO.C,TP606*%
X41883000Y29768800D02*
G75*
G03*
X41883000Y29768800I-100000J0D01*
G01*
%TO.C,TP603*%
X40689200Y32537400D02*
G75*
G03*
X40689200Y32537400I-100000J0D01*
G01*
%TO.C,TP511*%
X87056900Y30962600D02*
G75*
G03*
X87056900Y30962600I-100000J0D01*
G01*
%TO.C,TP1004*%
X60323400Y47142400D02*
G75*
G03*
X60323400Y47142400I-100000J0D01*
G01*
%TO.C,TP1001*%
X64819200Y15875000D02*
G75*
G03*
X64819200Y15875000I-100000J0D01*
G01*
%TO.C,TP1003*%
X59790000Y44119800D02*
G75*
G03*
X59790000Y44119800I-100000J0D01*
G01*
%TO.C,TP604*%
X56818200Y29946600D02*
G75*
G03*
X56818200Y29946600I-100000J0D01*
G01*
%TO.C,TP609*%
X56411800Y27127200D02*
G75*
G03*
X56411800Y27127200I-100000J0D01*
G01*
%TO.C,TP610*%
X56411800Y25831800D02*
G75*
G03*
X56411800Y25831800I-100000J0D01*
G01*
%TO.C,TP1009*%
X80008400Y27432000D02*
G75*
G03*
X80008400Y27432000I-100000J0D01*
G01*
%TO.C,TP502*%
X84758200Y56070500D02*
G75*
G03*
X84758200Y56070500I-100000J0D01*
G01*
%TO.C,TP611*%
X49198200Y23901400D02*
G75*
G03*
X49198200Y23901400I-100000J0D01*
G01*
%TD*%
D11*
%TO.C,U6*%
X56065000Y20795000D03*
D12*
X56065000Y21195000D03*
X56065000Y21595000D03*
D13*
X56065000Y21995000D03*
D14*
X55590000Y22270000D03*
D15*
X55190000Y22270000D03*
D16*
X54790000Y22270000D03*
D17*
X54315000Y21995000D03*
D12*
X54315000Y21595000D03*
X54315000Y21195000D03*
D18*
X54315000Y20795000D03*
D19*
X54790000Y20520000D03*
D15*
X55190000Y20520000D03*
D20*
X55590000Y20520000D03*
D21*
X55190000Y21395000D03*
%TD*%
D22*
%TO.C,J102*%
X13970000Y83185000D03*
D23*
X13970000Y85725000D03*
X16510000Y83185000D03*
X16510000Y85725000D03*
X19050000Y83185000D03*
X19050000Y85725000D03*
X21590000Y83185000D03*
X21590000Y85725000D03*
X24130000Y83185000D03*
X24130000Y85725000D03*
X26670000Y83185000D03*
X26670000Y85725000D03*
X29210000Y83185000D03*
X29210000Y85725000D03*
X31750000Y83185000D03*
X31750000Y85725000D03*
X34290000Y83185000D03*
X34290000Y85725000D03*
X36830000Y83185000D03*
X36830000Y85725000D03*
X39370000Y83185000D03*
X39370000Y85725000D03*
X41910000Y83185000D03*
X41910000Y85725000D03*
X44450000Y83185000D03*
X44450000Y85725000D03*
X46990000Y83185000D03*
X46990000Y85725000D03*
X49530000Y83185000D03*
X49530000Y85725000D03*
X52070000Y83185000D03*
X52070000Y85725000D03*
X54610000Y83185000D03*
X54610000Y85725000D03*
X57150000Y83185000D03*
X57150000Y85725000D03*
X59690000Y83185000D03*
X59690000Y85725000D03*
X62230000Y83185000D03*
X62230000Y85725000D03*
X64770000Y83185000D03*
X64770000Y85725000D03*
X67310000Y83185000D03*
X67310000Y85725000D03*
X69850000Y83185000D03*
X69850000Y85725000D03*
X72390000Y83185000D03*
X72390000Y85725000D03*
X74930000Y83185000D03*
X74930000Y85725000D03*
X77470000Y83185000D03*
X77470000Y85725000D03*
%TD*%
D22*
%TO.C,J103*%
X13970000Y88265000D03*
D23*
X13970000Y90805000D03*
X16510000Y88265000D03*
X16510000Y90805000D03*
X19050000Y88265000D03*
X19050000Y90805000D03*
X21590000Y88265000D03*
X21590000Y90805000D03*
X24130000Y88265000D03*
X24130000Y90805000D03*
X26670000Y88265000D03*
X26670000Y90805000D03*
X29210000Y88265000D03*
X29210000Y90805000D03*
X31750000Y88265000D03*
X31750000Y90805000D03*
X34290000Y88265000D03*
X34290000Y90805000D03*
X36830000Y88265000D03*
X36830000Y90805000D03*
X39370000Y88265000D03*
X39370000Y90805000D03*
X41910000Y88265000D03*
X41910000Y90805000D03*
X44450000Y88265000D03*
X44450000Y90805000D03*
X46990000Y88265000D03*
X46990000Y90805000D03*
X49530000Y88265000D03*
X49530000Y90805000D03*
X52070000Y88265000D03*
X52070000Y90805000D03*
X54610000Y88265000D03*
X54610000Y90805000D03*
X57150000Y88265000D03*
X57150000Y90805000D03*
X59690000Y88265000D03*
X59690000Y90805000D03*
X62230000Y88265000D03*
X62230000Y90805000D03*
X64770000Y88265000D03*
X64770000Y90805000D03*
X67310000Y88265000D03*
X67310000Y90805000D03*
X69850000Y88265000D03*
X69850000Y90805000D03*
X72390000Y88265000D03*
X72390000Y90805000D03*
X74930000Y88265000D03*
X74930000Y90805000D03*
X77470000Y88265000D03*
X77470000Y90805000D03*
%TD*%
D24*
%TO.C,H112*%
X82550000Y90805000D03*
%TD*%
%TO.C,H113*%
X85090000Y5080000D03*
%TD*%
%TO.C,H114*%
X5080000Y5080000D03*
%TD*%
D25*
%TO.C,C504*%
X62165500Y72628300D03*
X64065500Y72628300D03*
%TD*%
%TO.C,C506*%
X62165500Y74528300D03*
X64065500Y74528300D03*
%TD*%
%TO.C,C512*%
X62778600Y80346300D03*
X64678600Y80346300D03*
%TD*%
D26*
%TO.C,C513*%
X56205500Y71478300D03*
X56205500Y73378300D03*
%TD*%
%TO.C,C516*%
X54254400Y71478300D03*
X54254400Y73378300D03*
%TD*%
D27*
%TO.C,L501*%
X59880500Y77428300D03*
X55730500Y77428300D03*
%TD*%
D28*
%TO.C,R521*%
X66294000Y75044800D03*
X66294000Y76694800D03*
%TD*%
D29*
%TO.C,R522*%
X67843400Y76694700D03*
X67843400Y75044700D03*
%TD*%
D24*
%TO.C,H111*%
X8890000Y90805000D03*
%TD*%
D30*
%TO.C,ANT-U1001*%
X82005000Y19151600D03*
D31*
X82205000Y17626600D03*
D32*
X82205000Y20676600D03*
%TD*%
D33*
%TO.C,C1007*%
X65384600Y20167600D03*
X66344600Y20167600D03*
%TD*%
%TO.C,C1027*%
X62664400Y23139400D03*
X63624400Y23139400D03*
%TD*%
D34*
%TO.C,L1003*%
X64782653Y23609300D03*
X65468547Y24295194D03*
%TD*%
D35*
%TO.C,R529*%
X81204500Y40007000D03*
X81204500Y41832000D03*
%TD*%
%TO.C,R530*%
X83154500Y40007000D03*
X83154500Y41832000D03*
%TD*%
D30*
%TO.C,ANT-S901*%
X8153400Y19151600D03*
D36*
X7953400Y20676600D03*
D37*
X7953400Y17626600D03*
%TD*%
D33*
%TO.C,C1040*%
X74221400Y24790400D03*
X75181400Y24790400D03*
%TD*%
D38*
%TO.C,L1004*%
X66624200Y25651600D03*
X66624200Y26621600D03*
%TD*%
D39*
%TO.C,U1012*%
X76696323Y21924016D03*
X76236704Y21464396D03*
X75777084Y21004777D03*
D40*
X76024572Y19979472D03*
D39*
X77049877Y19731984D03*
X77509496Y20191604D03*
X77969116Y20651223D03*
D40*
X77721628Y21676528D03*
%TD*%
D41*
%TO.C,C1055*%
X78850811Y18729011D03*
X78171989Y18050189D03*
%TD*%
D42*
%TO.C,C1052*%
X72951340Y17175400D03*
X72951340Y18135400D03*
%TD*%
D43*
%TO.C,U1018*%
X76375100Y17165700D03*
D44*
X76375100Y17665700D03*
D45*
X76375100Y18165700D03*
D46*
X75912600Y18628200D03*
D47*
X75412600Y18628200D03*
D48*
X74912600Y18628200D03*
D49*
X74450100Y18165700D03*
D44*
X74450100Y17665700D03*
D50*
X74450100Y17165700D03*
D51*
X74912600Y16703200D03*
D47*
X75412600Y16703200D03*
D52*
X75912600Y16703200D03*
D53*
X75412600Y17665700D03*
%TD*%
D54*
%TO.C,L1009*%
X77998600Y8280400D03*
X78968600Y8280400D03*
%TD*%
D55*
%TO.C,U1013*%
X77864400Y11439400D03*
X77364400Y11439400D03*
X76864400Y11439400D03*
X76364400Y11439400D03*
X76364400Y9439400D03*
X76864400Y9439400D03*
X77364400Y9439400D03*
X77864400Y9439400D03*
D56*
X77114400Y10439400D03*
%TD*%
D42*
%TO.C,C1046*%
X79984600Y9530000D03*
X79984600Y10490000D03*
%TD*%
%TO.C,C1047*%
X78955900Y9530000D03*
X78955900Y10490000D03*
%TD*%
D57*
%TO.C,TP501*%
X62382400Y70942200D03*
%TD*%
%TO.C,TP504*%
X53035200Y79298800D03*
%TD*%
%TO.C,TP512*%
X84455000Y38608000D03*
%TD*%
%TO.C,TP515*%
X79095600Y39370000D03*
%TD*%
D41*
%TO.C,C1021*%
X58810164Y22780264D03*
X58131342Y22101442D03*
%TD*%
D35*
%TO.C,R532*%
X73450000Y40007000D03*
X73450000Y41832000D03*
%TD*%
D58*
%TO.C,T1001*%
X61630200Y23133100D03*
X61630200Y23933100D03*
X59680200Y23933100D03*
X59680200Y23133100D03*
%TD*%
D59*
%TO.C,R1002*%
X63019400Y20167600D03*
X61999400Y20167600D03*
%TD*%
D60*
%TO.C,R1003*%
X64200900Y19149600D03*
X64200900Y20169600D03*
%TD*%
D29*
%TO.C,R520*%
X66294000Y80377800D03*
X66294000Y78727800D03*
%TD*%
D57*
%TO.C,TP509*%
X74447400Y38582600D03*
%TD*%
D61*
%TO.C,C1043*%
X78219300Y23797200D03*
X78219300Y22837200D03*
%TD*%
D54*
%TO.C,L1008*%
X76502400Y24777700D03*
X77472400Y24777700D03*
%TD*%
D62*
%TO.C,L1007*%
X75184000Y23802200D03*
X75184000Y22832200D03*
%TD*%
D63*
%TO.C,C1036*%
X75350000Y31860000D03*
X80290000Y31860000D03*
%TD*%
D64*
%TO.C,C1008*%
X66344600Y19151600D03*
X65384600Y19151600D03*
%TD*%
D42*
%TO.C,C1012*%
X63576200Y14912400D03*
X63576200Y15872400D03*
%TD*%
D60*
%TO.C,R533*%
X84632800Y39672800D03*
X84632800Y40692800D03*
%TD*%
D59*
%TO.C,R534*%
X78564200Y38252400D03*
X77544200Y38252400D03*
%TD*%
D65*
%TO.C,U504*%
X62268000Y78284300D03*
X62268000Y77334300D03*
X62268000Y76384300D03*
X64543000Y76384300D03*
X64543000Y77334300D03*
X64543000Y78284300D03*
%TD*%
D57*
%TO.C,TP510*%
X82169000Y38531800D03*
%TD*%
%TO.C,TP506*%
X84836000Y42341800D03*
%TD*%
D33*
%TO.C,C1028*%
X62258000Y5778500D03*
X63218000Y5778500D03*
%TD*%
D57*
%TO.C,TP1002*%
X61163200Y5778500D03*
%TD*%
%TO.C,TP1005*%
X53187600Y5562600D03*
%TD*%
%TO.C,TP1006*%
X78270100Y28333700D03*
%TD*%
%TO.C,TP602*%
X41071800Y31369000D03*
%TD*%
%TO.C,TP606*%
X41783000Y29768800D03*
%TD*%
%TO.C,TP603*%
X40589200Y32537400D03*
%TD*%
D42*
%TO.C,C1042*%
X77368400Y6251000D03*
X77368400Y7211000D03*
%TD*%
D57*
%TO.C,TP511*%
X86956900Y30962600D03*
%TD*%
D66*
%TO.C,C529*%
X86652400Y25189400D03*
X85102400Y25189400D03*
%TD*%
%TO.C,C533*%
X86372400Y29589400D03*
X84822400Y29589400D03*
%TD*%
D57*
%TO.C,TP1004*%
X60223400Y47142400D03*
%TD*%
D61*
%TO.C,C1020*%
X72580500Y14066600D03*
X72580500Y13106600D03*
%TD*%
D67*
%TO.C,R1004*%
X71562500Y15163800D03*
X72582500Y15163800D03*
%TD*%
D33*
%TO.C,C1019*%
X71592500Y12077700D03*
X72552500Y12077700D03*
%TD*%
D68*
%TO.C,R1008*%
X71564500Y14096600D03*
X71564500Y13076600D03*
%TD*%
D59*
%TO.C,R1013*%
X72582500Y16230600D03*
X71562500Y16230600D03*
%TD*%
D69*
%TO.C,C1015*%
X66560700Y11951000D03*
X66560700Y10401000D03*
%TD*%
D57*
%TO.C,TP1001*%
X64719200Y15875000D03*
%TD*%
%TO.C,TP1003*%
X59690000Y44119800D03*
%TD*%
D70*
%TO.C,T1002*%
X59842586Y6050828D03*
X60408272Y6616514D03*
X59029414Y7995372D03*
D71*
X58463728Y7429686D03*
%TD*%
D72*
%TO.C,U1006*%
X68922200Y26277700D03*
X68922200Y25777700D03*
X68922200Y25277700D03*
X68922200Y24777700D03*
X68922200Y24277700D03*
X68922200Y23777700D03*
D73*
X69634700Y23065200D03*
X70134700Y23065200D03*
X70634700Y23065200D03*
X71134700Y23065200D03*
X71634700Y23065200D03*
X72134700Y23065200D03*
D72*
X72847200Y23777700D03*
X72847200Y24277700D03*
X72847200Y24777700D03*
X72847200Y25277700D03*
X72847200Y25777700D03*
X72847200Y26277700D03*
D73*
X72134700Y26990200D03*
X71634700Y26990200D03*
X71134700Y26990200D03*
X70634700Y26990200D03*
X70134700Y26990200D03*
X69634700Y26990200D03*
D74*
X70884700Y25027700D03*
%TD*%
D42*
%TO.C,C1030*%
X71260000Y30350000D03*
X71260000Y31310000D03*
%TD*%
D33*
%TO.C,C1032*%
X68255000Y28409900D03*
X69215000Y28409900D03*
%TD*%
%TO.C,C1037*%
X75490000Y28120000D03*
X76450000Y28120000D03*
%TD*%
%TO.C,C1038*%
X75490000Y29120000D03*
X76450000Y29120000D03*
%TD*%
D64*
%TO.C,C1039*%
X76449000Y27089100D03*
X75489000Y27089100D03*
%TD*%
D38*
%TO.C,L1005*%
X71260000Y28401900D03*
X71260000Y29371900D03*
%TD*%
D60*
%TO.C,R1020*%
X68250000Y29423900D03*
X68250000Y30443900D03*
%TD*%
D68*
%TO.C,R1017*%
X70218600Y31340000D03*
X70218600Y30320000D03*
%TD*%
D60*
%TO.C,R1019*%
X68250000Y31354300D03*
X68250000Y32374300D03*
%TD*%
D41*
%TO.C,C1022*%
X58099011Y23478811D03*
X57420189Y22799989D03*
%TD*%
D61*
%TO.C,C612*%
X50368200Y24866400D03*
X50368200Y23906400D03*
%TD*%
%TO.C,C613*%
X51638200Y24864000D03*
X51638200Y23904000D03*
%TD*%
D75*
%TO.C,U1015*%
X75611984Y14529823D03*
X76071604Y14070204D03*
X76531223Y13610584D03*
D39*
X77556528Y13858072D03*
D75*
X77804016Y14883377D03*
X77344396Y15342996D03*
X76884777Y15802616D03*
D39*
X75859472Y15555128D03*
%TD*%
D33*
%TO.C,C610*%
X43182600Y28448000D03*
X44142600Y28448000D03*
%TD*%
D60*
%TO.C,R603*%
X55575000Y29925000D03*
X55575000Y30945000D03*
%TD*%
D64*
%TO.C,C609*%
X55318600Y28960000D03*
X54358600Y28960000D03*
%TD*%
D57*
%TO.C,TP604*%
X56718200Y29946600D03*
%TD*%
%TO.C,TP609*%
X56311800Y27127200D03*
%TD*%
D33*
%TO.C,C603*%
X56898600Y34747200D03*
X57858600Y34747200D03*
%TD*%
D76*
%TO.C,U602*%
X46360900Y27067900D03*
X46860900Y27067900D03*
X47360900Y27067900D03*
X47860900Y27067900D03*
X48360900Y27067900D03*
X48860900Y27067900D03*
X49360900Y27067900D03*
X49860900Y27067900D03*
X50360900Y27067900D03*
X50860900Y27067900D03*
X51360900Y27067900D03*
X51860900Y27067900D03*
D77*
X52548400Y27755400D03*
X52548400Y28255400D03*
X52548400Y28755400D03*
X52548400Y29255400D03*
X52548400Y29755400D03*
X52548400Y30255400D03*
X52548400Y30755400D03*
X52548400Y31255400D03*
X52548400Y31755400D03*
X52548400Y32255400D03*
X52548400Y32755400D03*
X52548400Y33255400D03*
D76*
X51860900Y33942900D03*
X51360900Y33942900D03*
X50860900Y33942900D03*
X50360900Y33942900D03*
X49860900Y33942900D03*
X49360900Y33942900D03*
X48860900Y33942900D03*
X48360900Y33942900D03*
X47860900Y33942900D03*
X47360900Y33942900D03*
X46860900Y33942900D03*
X46360900Y33942900D03*
D77*
X45673400Y33255400D03*
X45673400Y32755400D03*
X45673400Y32255400D03*
X45673400Y31755400D03*
X45673400Y31255400D03*
X45673400Y30755400D03*
X45673400Y30255400D03*
X45673400Y29755400D03*
X45673400Y29255400D03*
X45673400Y28755400D03*
X45673400Y28255400D03*
X45673400Y27755400D03*
D78*
X49110900Y30505400D03*
%TD*%
D42*
%TO.C,C602*%
X54550000Y29955000D03*
X54550000Y30915000D03*
%TD*%
%TO.C,C601*%
X57835800Y29949200D03*
X57835800Y30909200D03*
%TD*%
D59*
%TO.C,R606*%
X54866000Y33782000D03*
X53846000Y33782000D03*
%TD*%
D79*
%TO.C,U601*%
X56903600Y33516800D03*
X56903600Y32116800D03*
X57853600Y32116800D03*
X57853600Y33516800D03*
%TD*%
D64*
%TO.C,C607*%
X55318600Y31910000D03*
X54358600Y31910000D03*
%TD*%
D67*
%TO.C,R605*%
X54328600Y27965400D03*
X55348600Y27965400D03*
%TD*%
D64*
%TO.C,C1049*%
X78331000Y12649200D03*
X77371000Y12649200D03*
%TD*%
D59*
%TO.C,R1014*%
X55016000Y11061700D03*
X53996000Y11061700D03*
%TD*%
%TO.C,R1007*%
X62587600Y15910000D03*
X61567600Y15910000D03*
%TD*%
D61*
%TO.C,C1001*%
X57607200Y18516400D03*
X57607200Y17556400D03*
%TD*%
D33*
%TO.C,C1006*%
X54005400Y15189200D03*
X54965400Y15189200D03*
%TD*%
D64*
%TO.C,C1024*%
X54986000Y10020300D03*
X54026000Y10020300D03*
%TD*%
D61*
%TO.C,C1025*%
X57645300Y10106600D03*
X57645300Y9146600D03*
%TD*%
D64*
%TO.C,C1014*%
X62570300Y12255500D03*
X61610300Y12255500D03*
%TD*%
D67*
%TO.C,R1001*%
X61999400Y19151600D03*
X63019400Y19151600D03*
%TD*%
D61*
%TO.C,C1023*%
X53007400Y11021000D03*
X53007400Y10061000D03*
%TD*%
D76*
%TO.C,U1002*%
X56899800Y11401000D03*
X57399800Y11401000D03*
X57899800Y11401000D03*
X58399800Y11401000D03*
X58899800Y11401000D03*
X59399800Y11401000D03*
D77*
X60087300Y12088500D03*
X60087300Y12588500D03*
X60087300Y13088500D03*
X60087300Y13588500D03*
X60087300Y14088500D03*
X60087300Y14588500D03*
D76*
X59399800Y15276000D03*
X58899800Y15276000D03*
X58399800Y15276000D03*
X57899800Y15276000D03*
X57399800Y15276000D03*
X56899800Y15276000D03*
D77*
X56212300Y14588500D03*
X56212300Y14088500D03*
X56212300Y13588500D03*
X56212300Y13088500D03*
X56212300Y12588500D03*
X56212300Y12088500D03*
D80*
X58149800Y13338500D03*
%TD*%
D42*
%TO.C,C1003*%
X53009800Y16647220D03*
X53009800Y17607220D03*
%TD*%
D67*
%TO.C,R1011*%
X52944300Y12537440D03*
X53964300Y12537440D03*
%TD*%
D42*
%TO.C,C1002*%
X58674000Y17556400D03*
X58674000Y18516400D03*
%TD*%
D54*
%TO.C,L1001*%
X55064800Y17635220D03*
X56034800Y17635220D03*
%TD*%
D81*
%TO.C,L1002*%
X56034800Y16619220D03*
X55064800Y16619220D03*
%TD*%
D64*
%TO.C,C1016*%
X62570300Y11239500D03*
X61610300Y11239500D03*
%TD*%
%TO.C,C1009*%
X62570300Y13271500D03*
X61610300Y13271500D03*
%TD*%
D59*
%TO.C,R1005*%
X54995400Y14173200D03*
X53975400Y14173200D03*
%TD*%
D61*
%TO.C,C1005*%
X53012200Y15161200D03*
X53012200Y14201200D03*
%TD*%
D42*
%TO.C,C1026*%
X58661300Y9146600D03*
X58661300Y10106600D03*
%TD*%
%TO.C,C1004*%
X54025800Y16647220D03*
X54025800Y17607220D03*
%TD*%
D64*
%TO.C,C1013*%
X62555700Y14910000D03*
X61595700Y14910000D03*
%TD*%
D57*
%TO.C,TP610*%
X56311800Y25831800D03*
%TD*%
%TO.C,TP1009*%
X79908400Y27432000D03*
%TD*%
D33*
%TO.C,C1031*%
X66626800Y24549100D03*
X67586800Y24549100D03*
%TD*%
D67*
%TO.C,R1009*%
X61567600Y9093200D03*
X62587600Y9093200D03*
%TD*%
D33*
%TO.C,C1018*%
X61595200Y10134600D03*
X62555200Y10134600D03*
%TD*%
D42*
%TO.C,C1017*%
X63563500Y9133900D03*
X63563500Y10093900D03*
%TD*%
D62*
%TO.C,L1006*%
X74206100Y27091500D03*
X74206100Y26121500D03*
%TD*%
D82*
%TO.C,FB1001*%
X72620000Y28652500D03*
X72620000Y30227500D03*
%TD*%
D61*
%TO.C,C502*%
X75742800Y64157800D03*
X75742800Y63197800D03*
%TD*%
D64*
%TO.C,C501*%
X72438200Y73360000D03*
X71478200Y73360000D03*
%TD*%
D68*
%TO.C,R604*%
X42646600Y34165000D03*
X42646600Y33145000D03*
%TD*%
D83*
%TO.C,RN601*%
X43061000Y31255400D03*
D84*
X43061000Y30755400D03*
X43061000Y30255400D03*
D83*
X43061000Y29755400D03*
X44061000Y29755400D03*
D84*
X44061000Y30255400D03*
X44061000Y30755400D03*
D83*
X44061000Y31255400D03*
%TD*%
D57*
%TO.C,TP502*%
X84658200Y56070500D03*
%TD*%
D61*
%TO.C,C510*%
X81675000Y53505000D03*
X81675000Y52545000D03*
%TD*%
D85*
%TO.C,U1001*%
X66096600Y16469000D03*
X66096600Y15819000D03*
X66096600Y15169000D03*
X66096600Y14519000D03*
D86*
X67071600Y13544000D03*
X67721600Y13544000D03*
X68371600Y13544000D03*
X69021600Y13544000D03*
D85*
X69996600Y14519000D03*
X69996600Y15169000D03*
X69996600Y15819000D03*
X69996600Y16469000D03*
D86*
X69021600Y17444000D03*
X68371600Y17444000D03*
X67721600Y17444000D03*
X67071600Y17444000D03*
D87*
X68046600Y15494000D03*
%TD*%
D35*
%TO.C,R531*%
X75442700Y40007000D03*
X75442700Y41832000D03*
%TD*%
D88*
%TO.C,FID3*%
X86700000Y92000000D03*
%TD*%
D62*
%TO.C,D502*%
X68800000Y54167500D03*
X68800000Y53197500D03*
%TD*%
%TO.C,D401*%
X65532000Y53469400D03*
X65532000Y52499400D03*
%TD*%
D89*
%TO.C,Q1*%
X71958200Y66091800D03*
X73228200Y66091800D03*
X74498200Y66091800D03*
X75768200Y66091800D03*
D90*
X72748200Y69886800D03*
X74978200Y69886800D03*
D91*
X76078200Y71677800D03*
X71648200Y71677800D03*
D92*
X71591200Y68884800D03*
X76135200Y68884800D03*
%TD*%
D68*
%TO.C,R12*%
X33950000Y21195000D03*
X33950000Y20175000D03*
%TD*%
D93*
%TO.C,TP1011*%
X70916800Y20980400D03*
%TD*%
D94*
%TO.C,U3*%
X78300000Y53525000D03*
D95*
X78475000Y53025000D03*
D94*
X78300000Y52525000D03*
D95*
X79875000Y52525000D03*
D94*
X80050000Y53025000D03*
D95*
X79875000Y53525000D03*
D96*
X79925000Y54200000D03*
X79425000Y54200000D03*
X78925000Y54200000D03*
D97*
X78425000Y54200000D03*
%TD*%
D25*
%TO.C,C24*%
X78550000Y46500000D03*
X80450000Y46500000D03*
%TD*%
D68*
%TO.C,R17*%
X56600000Y63445000D03*
X56600000Y62425000D03*
%TD*%
D98*
%TO.C,C9*%
X30340000Y29010000D03*
X30340000Y30560000D03*
%TD*%
D83*
%TO.C,RN401*%
X61500000Y53650000D03*
X61500000Y52950000D03*
X62500000Y52950000D03*
X62500000Y53650000D03*
%TD*%
D89*
%TO.C,Q2*%
X71965000Y75164500D03*
X73235000Y75164500D03*
X74505000Y75164500D03*
X75775000Y75164500D03*
D90*
X72755000Y78959500D03*
X74985000Y78959500D03*
D91*
X76085000Y80750500D03*
X71655000Y80750500D03*
D92*
X71598000Y77957500D03*
X76142000Y77957500D03*
%TD*%
D98*
%TO.C,C5*%
X32000000Y29010000D03*
X32000000Y30560000D03*
%TD*%
D99*
%TO.C,J104*%
X88990000Y62960000D03*
D100*
X87884000Y59880000D03*
X87757000Y35877000D03*
X85953000Y86512000D03*
D101*
X82270000Y83800000D03*
D100*
X82245000Y25222000D03*
X71437000Y56832000D03*
X65250000Y1730000D03*
X63500000Y30099000D03*
X46482000Y16383000D03*
X38862000Y28448000D03*
X19750000Y1750000D03*
X5486000Y86512000D03*
X3175000Y26416000D03*
D102*
X1432000Y15145000D03*
D103*
X1271000Y23432000D03*
%TD*%
D62*
%TO.C,D402*%
X63830200Y53469400D03*
X63830200Y52499400D03*
%TD*%
D59*
%TO.C,R3*%
X40160000Y23360000D03*
X39140000Y23360000D03*
%TD*%
D68*
%TO.C,R7*%
X79875000Y56385000D03*
X79875000Y55365000D03*
%TD*%
D104*
%TO.C,C27*%
X85325000Y47800000D03*
X83425000Y47800000D03*
%TD*%
D105*
%TO.C,C29*%
X85200000Y54225000D03*
X85200000Y52325000D03*
%TD*%
D68*
%TO.C,R18*%
X55500000Y63445000D03*
X55500000Y62425000D03*
%TD*%
D25*
%TO.C,C3*%
X78550000Y50650000D03*
X80450000Y50650000D03*
%TD*%
D106*
%TO.C,L3*%
X83287500Y43850000D03*
X85412500Y43850000D03*
%TD*%
D68*
%TO.C,R5*%
X78875000Y56385000D03*
X78875000Y55365000D03*
%TD*%
D83*
%TO.C,RN603*%
X54848000Y26097000D03*
X54848000Y26797000D03*
X53848000Y26797000D03*
X53848000Y26097000D03*
%TD*%
D107*
%TO.C,FL2*%
X69350000Y6965000D03*
D108*
X69025000Y5775000D03*
X69025000Y4585000D03*
X71175000Y4585000D03*
X71175000Y5775000D03*
X71175000Y6965000D03*
%TD*%
D105*
%TO.C,C7*%
X83175000Y54225000D03*
X83175000Y52325000D03*
%TD*%
D88*
%TO.C,FID1*%
X4550000Y91700000D03*
%TD*%
D33*
%TO.C,C31*%
X78870000Y57375000D03*
X79830000Y57375000D03*
%TD*%
D57*
%TO.C,TP611*%
X49098200Y23901400D03*
%TD*%
D67*
%TO.C,R10*%
X39165000Y22310000D03*
X40185000Y22310000D03*
%TD*%
D25*
%TO.C,C23*%
X78550000Y48575000D03*
X80450000Y48575000D03*
%TD*%
D104*
%TO.C,C25*%
X85325000Y49825000D03*
X83425000Y49825000D03*
%TD*%
D42*
%TO.C,C1*%
X80925000Y55395000D03*
X80925000Y56355000D03*
%TD*%
D60*
%TO.C,R2*%
X77875000Y55365000D03*
X77875000Y56385000D03*
%TD*%
D68*
%TO.C,R14*%
X60900000Y41710000D03*
X60900000Y40690000D03*
%TD*%
D88*
%TO.C,FID2*%
X2150000Y1900000D03*
%TD*%
D109*
%TO.C,J2*%
X83810000Y69740000D03*
X83810000Y71240000D03*
X83810000Y72740000D03*
X83810000Y74240000D03*
D110*
X89000000Y67135000D03*
X89000000Y76845000D03*
%TD*%
D111*
%TO.C,U508*%
X86400400Y28243300D03*
X85750400Y28243300D03*
X85100400Y28243300D03*
X85100400Y26468300D03*
X85750400Y26468300D03*
X86400400Y26468300D03*
D112*
X85750400Y27355800D03*
%TD*%
D68*
%TO.C,R13*%
X60900000Y44360000D03*
X60900000Y43340000D03*
%TD*%
D113*
%TO.C,IC1*%
X15250000Y30120000D03*
X15250000Y29020000D03*
X15250000Y27920000D03*
X15250000Y26820000D03*
X15250000Y25720000D03*
X15250000Y24620000D03*
X15250000Y23520000D03*
X15250000Y20520000D03*
X15250000Y19420000D03*
X15250000Y18320000D03*
X15250000Y17220000D03*
X15250000Y16120000D03*
X27450000Y16120000D03*
X27450000Y17220000D03*
X27450000Y18320000D03*
X27450000Y19420000D03*
X27450000Y20520000D03*
X27450000Y23520000D03*
X27450000Y24620000D03*
X27450000Y25720000D03*
X27450000Y26820000D03*
X27450000Y27920000D03*
X27450000Y29020000D03*
X27450000Y30120000D03*
%TD*%
D114*
%TO.C,L2*%
X74925000Y53197500D03*
X74925000Y49102500D03*
%TD*%
D104*
%TO.C,C28*%
X85325000Y45775000D03*
X83425000Y45775000D03*
%TD*%
D68*
%TO.C,R537*%
X67809400Y54192500D03*
X67809400Y53172500D03*
%TD*%
D115*
%TO.C,Q3*%
X36150000Y23710000D03*
X36150000Y25610000D03*
X33950000Y24660000D03*
%TD*%
D116*
%TO.C,U1*%
X44292000Y40966000D03*
X44792000Y40966000D03*
X45292000Y40966000D03*
X45792000Y40966000D03*
X46292000Y40966000D03*
X46792000Y40966000D03*
X47292000Y40966000D03*
X47792000Y40966000D03*
X48292000Y40966000D03*
X48792000Y40966000D03*
X49292000Y40966000D03*
X49792000Y40966000D03*
X50292000Y40966000D03*
X50792000Y40966000D03*
X51292000Y40966000D03*
X51792000Y40966000D03*
X52292000Y40966000D03*
X52792000Y40966000D03*
X53292000Y40966000D03*
X53792000Y40966000D03*
X54292000Y40966000D03*
X54792000Y40966000D03*
X55292000Y40966000D03*
X55792000Y40966000D03*
X56292000Y40966000D03*
D117*
X57967000Y42641000D03*
X57967000Y43141000D03*
X57967000Y43641000D03*
X57967000Y44141000D03*
X57967000Y44641000D03*
X57967000Y45141000D03*
X57967000Y45641000D03*
X57967000Y46141000D03*
X57967000Y46641000D03*
X57967000Y47141000D03*
X57967000Y47641000D03*
X57967000Y48141000D03*
X57967000Y48641000D03*
X57967000Y49141000D03*
X57967000Y49641000D03*
X57967000Y50141000D03*
X57967000Y50641000D03*
X57967000Y51141000D03*
X57967000Y51641000D03*
X57967000Y52141000D03*
X57967000Y52641000D03*
X57967000Y53141000D03*
X57967000Y53641000D03*
X57967000Y54141000D03*
X57967000Y54641000D03*
D116*
X56292000Y56316000D03*
X55792000Y56316000D03*
X55292000Y56316000D03*
X54792000Y56316000D03*
X54292000Y56316000D03*
X53792000Y56316000D03*
X53292000Y56316000D03*
X52792000Y56316000D03*
X52292000Y56316000D03*
X51792000Y56316000D03*
X51292000Y56316000D03*
X50792000Y56316000D03*
X50292000Y56316000D03*
X49792000Y56316000D03*
X49292000Y56316000D03*
X48792000Y56316000D03*
X48292000Y56316000D03*
X47792000Y56316000D03*
X47292000Y56316000D03*
X46792000Y56316000D03*
X46292000Y56316000D03*
X45792000Y56316000D03*
X45292000Y56316000D03*
X44792000Y56316000D03*
X44292000Y56316000D03*
D117*
X42617000Y54641000D03*
X42617000Y54141000D03*
X42617000Y53641000D03*
X42617000Y53141000D03*
X42617000Y52641000D03*
X42617000Y52141000D03*
X42617000Y51641000D03*
X42617000Y51141000D03*
X42617000Y50641000D03*
X42617000Y50141000D03*
X42617000Y49641000D03*
X42617000Y49141000D03*
X42617000Y48641000D03*
X42617000Y48141000D03*
X42617000Y47641000D03*
X42617000Y47141000D03*
X42617000Y46641000D03*
X42617000Y46141000D03*
X42617000Y45641000D03*
X42617000Y45141000D03*
X42617000Y44641000D03*
X42617000Y44141000D03*
X42617000Y43641000D03*
X42617000Y43141000D03*
X42617000Y42641000D03*
%TD*%
D118*
%TO.C,U1017*%
X85804200Y11377600D03*
X86871000Y11377600D03*
%TD*%
%TO.C,U1016*%
X80797600Y29710100D03*
X81864400Y29710100D03*
%TD*%
M02*
