G04 #@! TF.GenerationSoftware,KiCad,Pcbnew,7.0.0-da2b9df05c~171~ubuntu22.04.1*
G04 #@! TF.CreationDate,2023-04-06T22:28:54+03:00*
G04 #@! TF.ProjectId,satnogs-comms,7361746e-6f67-4732-9d63-6f6d6d732e6b,rev?*
G04 #@! TF.SameCoordinates,Original*
G04 #@! TF.FileFunction,Profile,NP*
%FSLAX46Y46*%
G04 Gerber Fmt 4.6, Leading zero omitted, Abs format (unit mm)*
G04 Created by KiCad (PCBNEW 7.0.0-da2b9df05c~171~ubuntu22.04.1) date 2023-04-06 22:28:54*
%MOMM*%
%LPD*%
G01*
G04 APERTURE LIST*
G04 #@! TA.AperFunction,Profile*
%ADD10C,0.100000*%
G04 #@! TD*
G04 APERTURE END LIST*
D10*
X83502500Y-99364800D02*
G75*
G03*
X82550000Y-100317300I0J-952500D01*
G01*
X83502500Y-99364800D02*
G75*
G03*
X84455000Y-98412300I0J952500D01*
G01*
X84455000Y-80022700D02*
G75*
G03*
X83502500Y-79070200I-952500J0D01*
G01*
X82550000Y-78117700D02*
G75*
G03*
X83502500Y-79070200I952500J0D01*
G01*
X83502500Y-41275000D02*
G75*
G03*
X82550000Y-42227500I0J-952500D01*
G01*
X172720000Y-42227500D02*
G75*
G03*
X171767500Y-41275000I-952500J0D01*
G01*
X171767500Y-137160000D02*
G75*
G03*
X172720000Y-136207500I0J952500D01*
G01*
X171767500Y-79070200D02*
G75*
G03*
X172720000Y-78117700I0J952500D01*
G01*
X172720000Y-100317300D02*
G75*
G03*
X171767500Y-99364800I-952500J0D01*
G01*
X170815000Y-80022700D02*
X170815000Y-98412300D01*
X172720000Y-42227500D02*
X172720000Y-78117700D01*
X171767500Y-79070200D02*
G75*
G03*
X170815000Y-80022700I0J-952500D01*
G01*
X117665500Y-137160000D02*
G75*
G03*
X118618000Y-136207500I0J952500D01*
G01*
X119570500Y-135255000D02*
G75*
G03*
X118618000Y-136207500I0J-952500D01*
G01*
X138938000Y-136207500D02*
G75*
G03*
X137985500Y-135255000I-952500J0D01*
G01*
X138938000Y-136207500D02*
G75*
G03*
X139890500Y-137160000I952500J0D01*
G01*
X83502500Y-137160000D02*
X117665500Y-137160000D01*
X119570500Y-135255000D02*
X137985500Y-135255000D01*
X139890500Y-137160000D02*
X171767500Y-137160000D01*
X118618000Y-42227500D02*
G75*
G03*
X117665500Y-41275000I-952500J0D01*
G01*
X83502500Y-41275000D02*
X117665500Y-41275000D01*
X139890500Y-41275000D02*
X171767500Y-41275000D01*
X139890500Y-41275000D02*
G75*
G03*
X138938000Y-42227500I0J-952500D01*
G01*
X118618000Y-42227500D02*
G75*
G03*
X119570500Y-43180000I952500J0D01*
G01*
X119570500Y-43180000D02*
X137985500Y-43180000D01*
X137985500Y-43180000D02*
G75*
G03*
X138938000Y-42227500I0J952500D01*
G01*
X170815000Y-98412300D02*
G75*
G03*
X171767500Y-99364800I952500J0D01*
G01*
X83550900Y-121208400D02*
G75*
G03*
X84503400Y-120255881I0J952500D01*
G01*
X83550900Y-114808419D02*
X82550000Y-114808000D01*
X84503400Y-120255881D02*
X84503400Y-119758400D01*
X171707500Y-114808400D02*
G75*
G03*
X170755000Y-115760919I0J-952500D01*
G01*
X170755000Y-120256300D02*
G75*
G03*
X171707500Y-121208800I952500J0D01*
G01*
X170755000Y-120256300D02*
X170755000Y-119758400D01*
X172720000Y-114808000D02*
X172720000Y-100317300D01*
X82550000Y-121208800D02*
X83550900Y-121208381D01*
X172720000Y-121208800D02*
X172720000Y-136207500D01*
X84503381Y-115760919D02*
G75*
G03*
X83550900Y-114808419I-952481J19D01*
G01*
X84503400Y-116258400D02*
X84503400Y-115760919D01*
X172720000Y-121208800D02*
X171707500Y-121208800D01*
X82550000Y-42227500D02*
X82550000Y-78117700D01*
X170755000Y-115760919D02*
X170755000Y-116258400D01*
X82550000Y-136207500D02*
G75*
G03*
X83502500Y-137160000I952500J0D01*
G01*
X82550000Y-121208800D02*
X82550000Y-136207500D01*
X172720000Y-114808000D02*
X171707500Y-114808419D01*
X84455000Y-80022700D02*
X84455000Y-98412300D01*
X82550000Y-114808000D02*
X82550000Y-100317300D01*
X170755000Y-116258400D02*
X166255000Y-116258400D01*
X166255000Y-119758400D02*
X170755000Y-119758400D01*
X166255000Y-116258400D02*
X166255000Y-119758400D01*
X84503400Y-119758400D02*
X89003400Y-119758400D01*
X89003400Y-116258400D02*
X84503400Y-116258400D01*
X89003400Y-119758400D02*
X89003400Y-116258400D01*
M02*
