G04 #@! TF.GenerationSoftware,KiCad,Pcbnew,7.0.0-da2b9df05c~171~ubuntu22.04.1*
G04 #@! TF.CreationDate,2023-04-06T22:28:54+03:00*
G04 #@! TF.ProjectId,satnogs-comms,7361746e-6f67-4732-9d63-6f6d6d732e6b,rev?*
G04 #@! TF.SameCoordinates,Original*
G04 #@! TF.FileFunction,Soldermask,Bot*
G04 #@! TF.FilePolarity,Negative*
%FSLAX46Y46*%
G04 Gerber Fmt 4.6, Leading zero omitted, Abs format (unit mm)*
G04 Created by KiCad (PCBNEW 7.0.0-da2b9df05c~171~ubuntu22.04.1) date 2023-04-06 22:28:54*
%MOMM*%
%LPD*%
G01*
G04 APERTURE LIST*
G04 Aperture macros list*
%AMRoundRect*
0 Rectangle with rounded corners*
0 $1 Rounding radius*
0 $2 $3 $4 $5 $6 $7 $8 $9 X,Y pos of 4 corners*
0 Add a 4 corners polygon primitive as box body*
4,1,4,$2,$3,$4,$5,$6,$7,$8,$9,$2,$3,0*
0 Add four circle primitives for the rounded corners*
1,1,$1+$1,$2,$3*
1,1,$1+$1,$4,$5*
1,1,$1+$1,$6,$7*
1,1,$1+$1,$8,$9*
0 Add four rect primitives between the rounded corners*
20,1,$1+$1,$2,$3,$4,$5,0*
20,1,$1+$1,$4,$5,$6,$7,0*
20,1,$1+$1,$6,$7,$8,$9,0*
20,1,$1+$1,$8,$9,$2,$3,0*%
%AMOutline4P*
0 Free polygon, 4 corners , with rotation*
0 The origin of the aperture is its center*
0 number of corners: always 4*
0 $1 to $8 corner X, Y*
0 $9 Rotation angle, in degrees counterclockwise*
0 create outline with 4 corners*
4,1,4,$1,$2,$3,$4,$5,$6,$7,$8,$1,$2,$9*%
G04 Aperture macros list end*
%ADD10C,0.600000*%
%ADD11R,1.524000X1.524000*%
%ADD12C,1.524000*%
%ADD13C,5.600000*%
%ADD14C,3.500000*%
%ADD15C,0.800000*%
%ADD16RoundRect,0.250000X-0.575000X0.350000X-0.575000X-0.350000X0.575000X-0.350000X0.575000X0.350000X0*%
%ADD17O,1.650000X1.200000*%
%ADD18RoundRect,0.250000X0.575000X-0.350000X0.575000X0.350000X-0.575000X0.350000X-0.575000X-0.350000X0*%
%ADD19RoundRect,0.147500X0.172500X-0.147500X0.172500X0.147500X-0.172500X0.147500X-0.172500X-0.147500X0*%
%ADD20RoundRect,0.147500X-0.147500X-0.172500X0.147500X-0.172500X0.147500X0.172500X-0.147500X0.172500X0*%
%ADD21RoundRect,0.087500X-0.425000X-0.087500X0.425000X-0.087500X0.425000X0.087500X-0.425000X0.087500X0*%
%ADD22RoundRect,0.087500X-0.087500X-0.425000X0.087500X-0.425000X0.087500X0.425000X-0.087500X0.425000X0*%
%ADD23R,2.100000X2.100000*%
%ADD24RoundRect,0.218750X-0.218750X-0.256250X0.218750X-0.256250X0.218750X0.256250X-0.218750X0.256250X0*%
%ADD25RoundRect,0.237500X0.287500X0.237500X-0.287500X0.237500X-0.287500X-0.237500X0.287500X-0.237500X0*%
%ADD26RoundRect,0.237500X0.237500X-0.287500X0.237500X0.287500X-0.237500X0.287500X-0.237500X-0.287500X0*%
%ADD27C,0.240000*%
%ADD28RoundRect,0.218750X0.256250X-0.218750X0.256250X0.218750X-0.256250X0.218750X-0.256250X-0.218750X0*%
%ADD29RoundRect,0.218750X0.218750X0.256250X-0.218750X0.256250X-0.218750X-0.256250X0.218750X-0.256250X0*%
%ADD30RoundRect,0.075000X-0.075000X0.275000X-0.075000X-0.275000X0.075000X-0.275000X0.075000X0.275000X0*%
%ADD31R,2.300000X1.500000*%
%ADD32RoundRect,0.147500X0.147500X0.172500X-0.147500X0.172500X-0.147500X-0.172500X0.147500X-0.172500X0*%
%ADD33RoundRect,0.250000X-0.650000X0.325000X-0.650000X-0.325000X0.650000X-0.325000X0.650000X0.325000X0*%
%ADD34RoundRect,0.147500X-0.172500X0.147500X-0.172500X-0.147500X0.172500X-0.147500X0.172500X0.147500X0*%
%ADD35RoundRect,0.250000X0.325000X0.650000X-0.325000X0.650000X-0.325000X-0.650000X0.325000X-0.650000X0*%
%ADD36RoundRect,0.218750X-0.256250X0.218750X-0.256250X-0.218750X0.256250X-0.218750X0.256250X0.218750X0*%
%ADD37R,1.000000X1.800000*%
%ADD38RoundRect,0.250000X0.650000X-0.325000X0.650000X0.325000X-0.650000X0.325000X-0.650000X-0.325000X0*%
%ADD39R,0.470000X0.560000*%
%ADD40C,1.000000*%
%ADD41R,2.520000X1.700000*%
%ADD42RoundRect,0.243750X0.243750X0.456250X-0.243750X0.456250X-0.243750X-0.456250X0.243750X-0.456250X0*%
%ADD43RoundRect,0.140000X0.140000X0.170000X-0.140000X0.170000X-0.140000X-0.170000X0.140000X-0.170000X0*%
%ADD44RoundRect,0.135000X-0.135000X-0.185000X0.135000X-0.185000X0.135000X0.185000X-0.135000X0.185000X0*%
%ADD45RoundRect,0.135000X-0.185000X0.135000X-0.185000X-0.135000X0.185000X-0.135000X0.185000X0.135000X0*%
%ADD46RoundRect,0.093750X0.093750X0.106250X-0.093750X0.106250X-0.093750X-0.106250X0.093750X-0.106250X0*%
%ADD47R,1.000000X1.600000*%
%ADD48RoundRect,0.093750X0.106250X-0.093750X0.106250X0.093750X-0.106250X0.093750X-0.106250X-0.093750X0*%
%ADD49R,1.600000X1.000000*%
%ADD50R,0.300000X0.450000*%
%ADD51RoundRect,0.243750X-0.456250X0.243750X-0.456250X-0.243750X0.456250X-0.243750X0.456250X0.243750X0*%
%ADD52RoundRect,0.135000X0.185000X-0.135000X0.185000X0.135000X-0.185000X0.135000X-0.185000X-0.135000X0*%
%ADD53RoundRect,0.075000X-0.275000X-0.075000X0.275000X-0.075000X0.275000X0.075000X-0.275000X0.075000X0*%
%ADD54R,1.500000X2.300000*%
%ADD55RoundRect,0.140000X0.170000X-0.140000X0.170000X0.140000X-0.170000X0.140000X-0.170000X-0.140000X0*%
%ADD56R,0.300000X0.520000*%
%ADD57R,0.300000X0.490000*%
%ADD58R,0.500000X0.300000*%
%ADD59R,1.050000X1.750000*%
%ADD60RoundRect,0.243750X-0.243750X-0.456250X0.243750X-0.456250X0.243750X0.456250X-0.243750X0.456250X0*%
%ADD61R,1.800000X0.700000*%
%ADD62R,2.200000X1.600000*%
%ADD63R,0.900000X0.800000*%
%ADD64RoundRect,0.135000X0.135000X0.185000X-0.135000X0.185000X-0.135000X-0.185000X0.135000X-0.185000X0*%
%ADD65RoundRect,0.100000X-0.100000X0.637500X-0.100000X-0.637500X0.100000X-0.637500X0.100000X0.637500X0*%
%ADD66RoundRect,0.125000X0.125000X-0.537500X0.125000X0.537500X-0.125000X0.537500X-0.125000X-0.537500X0*%
%ADD67RoundRect,0.250000X-0.475000X0.250000X-0.475000X-0.250000X0.475000X-0.250000X0.475000X0.250000X0*%
%ADD68RoundRect,0.237500X-0.237500X0.250000X-0.237500X-0.250000X0.237500X-0.250000X0.237500X0.250000X0*%
%ADD69RoundRect,0.237500X-0.250000X-0.237500X0.250000X-0.237500X0.250000X0.237500X-0.250000X0.237500X0*%
%ADD70RoundRect,0.200000X0.275000X-0.200000X0.275000X0.200000X-0.275000X0.200000X-0.275000X-0.200000X0*%
%ADD71C,0.050000*%
%ADD72RoundRect,0.200000X-0.275000X0.200000X-0.275000X-0.200000X0.275000X-0.200000X0.275000X0.200000X0*%
%ADD73C,2.000000*%
%ADD74RoundRect,0.225000X-0.225000X-0.250000X0.225000X-0.250000X0.225000X0.250000X-0.225000X0.250000X0*%
%ADD75R,1.000000X0.300000*%
%ADD76RoundRect,0.140000X-0.140000X-0.170000X0.140000X-0.170000X0.140000X0.170000X-0.140000X0.170000X0*%
%ADD77RoundRect,0.225000X-0.250000X0.225000X-0.250000X-0.225000X0.250000X-0.225000X0.250000X0.225000X0*%
%ADD78Outline4P,-0.450000X-0.400000X0.450000X-0.400000X0.450000X0.400000X-0.450000X0.400000X270.000000*%
%ADD79RoundRect,0.140000X-0.170000X0.140000X-0.170000X-0.140000X0.170000X-0.140000X0.170000X0.140000X0*%
%ADD80R,0.240000X0.900000*%
%ADD81R,0.900000X0.240000*%
%ADD82R,1.000000X2.900000*%
%ADD83R,1.000000X1.300000*%
%ADD84R,1.000000X0.700000*%
%ADD85RoundRect,0.150000X-0.150000X0.512500X-0.150000X-0.512500X0.150000X-0.512500X0.150000X0.512500X0*%
G04 APERTURE END LIST*
D10*
X161745600Y-91821000D02*
G75*
G03*
X161745600Y-91821000I-100000J0D01*
G01*
X115365200Y-64820800D02*
G75*
G03*
X115365200Y-64820800I-100000J0D01*
G01*
X124280600Y-67284600D02*
G75*
G03*
X124280600Y-67284600I-100000J0D01*
G01*
X122528000Y-67360800D02*
G75*
G03*
X122528000Y-67360800I-100000J0D01*
G01*
X164209400Y-93116400D02*
G75*
G03*
X164209400Y-93116400I-100000J0D01*
G01*
D11*
X96519999Y-53974999D03*
D12*
X96520000Y-51435000D03*
X99060000Y-53975000D03*
X99060000Y-51435000D03*
X101600000Y-53975000D03*
X101600000Y-51435000D03*
X104140000Y-53975000D03*
X104140000Y-51435000D03*
X106680000Y-53975000D03*
X106680000Y-51435000D03*
X109220000Y-53975000D03*
X109220000Y-51435000D03*
X111760000Y-53975000D03*
X111760000Y-51435000D03*
X114300000Y-53975000D03*
X114300000Y-51435000D03*
X116840000Y-53975000D03*
X116840000Y-51435000D03*
X119380000Y-53975000D03*
X119380000Y-51435000D03*
X121920000Y-53975000D03*
X121920000Y-51435000D03*
X124460000Y-53975000D03*
X124460000Y-51435000D03*
X127000000Y-53975000D03*
X127000000Y-51435000D03*
X129540000Y-53975000D03*
X129540000Y-51435000D03*
X132080000Y-53975000D03*
X132080000Y-51435000D03*
X134620000Y-53975000D03*
X134620000Y-51435000D03*
X137160000Y-53975000D03*
X137160000Y-51435000D03*
X139700000Y-53975000D03*
X139700000Y-51435000D03*
X142240000Y-53975000D03*
X142240000Y-51435000D03*
X144780000Y-53975000D03*
X144780000Y-51435000D03*
X147320000Y-53975000D03*
X147320000Y-51435000D03*
X149860000Y-53975000D03*
X149860000Y-51435000D03*
X152400000Y-53975000D03*
X152400000Y-51435000D03*
X154940000Y-53975000D03*
X154940000Y-51435000D03*
X157480000Y-53975000D03*
X157480000Y-51435000D03*
X160020000Y-53975000D03*
X160020000Y-51435000D03*
D11*
X96519999Y-48894999D03*
D12*
X96520000Y-46355000D03*
X99060000Y-48895000D03*
X99060000Y-46355000D03*
X101600000Y-48895000D03*
X101600000Y-46355000D03*
X104140000Y-48895000D03*
X104140000Y-46355000D03*
X106680000Y-48895000D03*
X106680000Y-46355000D03*
X109220000Y-48895000D03*
X109220000Y-46355000D03*
X111760000Y-48895000D03*
X111760000Y-46355000D03*
X114300000Y-48895000D03*
X114300000Y-46355000D03*
X116840000Y-48895000D03*
X116840000Y-46355000D03*
X119380000Y-48895000D03*
X119380000Y-46355000D03*
X121920000Y-48895000D03*
X121920000Y-46355000D03*
X124460000Y-48895000D03*
X124460000Y-46355000D03*
X127000000Y-48895000D03*
X127000000Y-46355000D03*
X129540000Y-48895000D03*
X129540000Y-46355000D03*
X132080000Y-48895000D03*
X132080000Y-46355000D03*
X134620000Y-48895000D03*
X134620000Y-46355000D03*
X137160000Y-48895000D03*
X137160000Y-46355000D03*
X139700000Y-48895000D03*
X139700000Y-46355000D03*
X142240000Y-48895000D03*
X142240000Y-46355000D03*
X144780000Y-48895000D03*
X144780000Y-46355000D03*
X147320000Y-48895000D03*
X147320000Y-46355000D03*
X149860000Y-48895000D03*
X149860000Y-46355000D03*
X152400000Y-48895000D03*
X152400000Y-46355000D03*
X154940000Y-48895000D03*
X154940000Y-46355000D03*
X157480000Y-48895000D03*
X157480000Y-46355000D03*
X160020000Y-48895000D03*
X160020000Y-46355000D03*
D13*
X165100000Y-46355000D03*
X167640000Y-132080000D03*
X87630000Y-132080000D03*
X91440000Y-46355000D03*
D14*
X164790000Y-111940000D03*
X89237200Y-96393000D03*
X120237200Y-96393000D03*
D15*
X92037200Y-93443000D03*
X119837200Y-93443000D03*
X92037200Y-61343000D03*
X119837200Y-61343000D03*
D14*
X89237200Y-58393000D03*
X120237200Y-58393000D03*
D16*
X150393400Y-87731600D03*
D17*
X148393399Y-87731599D03*
X150393399Y-89731599D03*
X148393399Y-89731599D03*
X150393399Y-91731599D03*
X148393399Y-91731599D03*
X150393399Y-93731599D03*
X148393399Y-93731599D03*
X150393399Y-95731599D03*
X148393399Y-95731599D03*
X150393399Y-97731599D03*
X148393399Y-97731599D03*
D14*
X85725000Y-110744000D03*
X88036000Y-50648000D03*
X102300000Y-135410000D03*
X121412000Y-108712000D03*
X129032000Y-120777000D03*
X146050000Y-107061000D03*
X147800000Y-135430000D03*
X153987000Y-80328000D03*
X164795000Y-111938000D03*
X167820000Y-53330000D03*
X170307000Y-101283000D03*
X170434000Y-77280000D03*
D18*
X166275000Y-72310000D03*
D17*
X168274999Y-72309999D03*
X166274999Y-70309999D03*
X168274999Y-70309999D03*
X166274999Y-68309999D03*
X168274999Y-68309999D03*
X166274999Y-66309999D03*
X168274999Y-66309999D03*
X166274999Y-64309999D03*
X168274999Y-64309999D03*
X166274999Y-62309999D03*
X168274999Y-62309999D03*
D19*
X126415800Y-93550600D03*
X126415800Y-92580600D03*
D20*
X133347600Y-95885000D03*
X134317600Y-95885000D03*
D21*
X158817000Y-96155500D03*
X158817000Y-95505500D03*
X158817000Y-94855500D03*
X158817000Y-94205500D03*
D22*
X159704500Y-93318000D03*
X160354500Y-93318000D03*
X161004500Y-93318000D03*
X161654500Y-93318000D03*
D21*
X162542000Y-94205500D03*
X162542000Y-94855500D03*
X162542000Y-95505500D03*
X162542000Y-96155500D03*
D22*
X161654500Y-97043000D03*
X161004500Y-97043000D03*
X160354500Y-97043000D03*
X159704500Y-97043000D03*
D23*
X160679499Y-95180499D03*
D24*
X98064500Y-63387400D03*
X99639500Y-63387400D03*
D25*
X106483500Y-57987400D03*
X104733500Y-57987400D03*
D26*
X103058500Y-61708000D03*
X103058500Y-59958000D03*
D25*
X99727000Y-57987400D03*
X97977000Y-57987400D03*
D26*
X96302000Y-61712400D03*
X96302000Y-59962400D03*
D24*
X104821000Y-63387400D03*
X106396000Y-63387400D03*
D27*
X101988000Y-76163600D03*
X102988000Y-76163600D03*
X103488000Y-76163600D03*
X103988000Y-76163600D03*
X104488000Y-76163600D03*
X104988000Y-76163600D03*
X105488000Y-76163600D03*
X105988000Y-76163600D03*
X106488000Y-76163600D03*
X106988000Y-76163600D03*
X107488000Y-76163600D03*
X107988000Y-76163600D03*
X108488000Y-76163600D03*
X101988000Y-75663600D03*
X102488000Y-75663600D03*
X102488000Y-76163600D03*
X102988000Y-75663600D03*
X103488000Y-75663600D03*
X103988000Y-75663600D03*
X104488000Y-75663600D03*
X104988000Y-75663600D03*
X105488000Y-75663600D03*
X105988000Y-75663600D03*
X106488000Y-75663600D03*
X106988000Y-75663600D03*
X107488000Y-75663600D03*
X107988000Y-75663600D03*
X108488000Y-75663600D03*
X101988000Y-75163600D03*
X102488000Y-75163600D03*
X102988000Y-75163600D03*
X103488000Y-74663600D03*
X103488000Y-75163600D03*
X103988000Y-75163600D03*
X104488000Y-75163600D03*
X104988000Y-75163600D03*
X105488000Y-75163600D03*
X105988000Y-75163600D03*
X106488000Y-75163600D03*
X106988000Y-75163600D03*
X107488000Y-75163600D03*
X107988000Y-75163600D03*
X108488000Y-75163600D03*
X101988000Y-74663600D03*
X102488000Y-74663600D03*
X102988000Y-74663600D03*
X107488000Y-74663600D03*
X107988000Y-74663600D03*
X108488000Y-74663600D03*
X101988000Y-74163600D03*
X102488000Y-74163600D03*
X102988000Y-74163600D03*
X103988000Y-74163600D03*
X104488000Y-74163600D03*
X104988000Y-74163600D03*
X105488000Y-74163600D03*
X105988000Y-74163600D03*
X106488000Y-74163600D03*
X107488000Y-74163600D03*
X107988000Y-74163600D03*
X108488000Y-74163600D03*
X101988000Y-73663600D03*
X102488000Y-73663600D03*
X102988000Y-73663600D03*
X103988000Y-73663600D03*
X106488000Y-73663600D03*
X107488000Y-73663600D03*
X107988000Y-73663600D03*
X108488000Y-73663600D03*
X101988000Y-73163600D03*
X102488000Y-73163600D03*
X102988000Y-73163600D03*
X103988000Y-73163600D03*
X106488000Y-73163600D03*
X107488000Y-73163600D03*
X107988000Y-73163600D03*
X108488000Y-73163600D03*
X101988000Y-72663600D03*
X102488000Y-72663600D03*
X102988000Y-72663600D03*
X103988000Y-72663600D03*
X106488000Y-72663600D03*
X107488000Y-72663600D03*
X107988000Y-72663600D03*
X108488000Y-72663600D03*
X101988000Y-72163600D03*
X102488000Y-72163600D03*
X102988000Y-72163600D03*
X103988000Y-72163600D03*
X106488000Y-72163600D03*
X107488000Y-72163600D03*
X107988000Y-72163600D03*
X108488000Y-72163600D03*
X101988000Y-71663600D03*
X102488000Y-71663600D03*
X102988000Y-71663600D03*
X103988000Y-71663600D03*
X104488000Y-71663600D03*
X104988000Y-71663600D03*
X105488000Y-71663600D03*
X105988000Y-71663600D03*
X106488000Y-71663600D03*
X107488000Y-71663600D03*
X107988000Y-71663600D03*
X108488000Y-71663600D03*
X101988000Y-71163600D03*
X102488000Y-71163600D03*
X102988000Y-71163600D03*
X107488000Y-71163600D03*
X107988000Y-71163600D03*
X108488000Y-71163600D03*
X101988000Y-70663600D03*
X102488000Y-70663600D03*
X102988000Y-70663600D03*
X103488000Y-70663600D03*
X103988000Y-70663600D03*
X104488000Y-70663600D03*
X104988000Y-70663600D03*
X105488000Y-70663600D03*
X105988000Y-70663600D03*
X106488000Y-70663600D03*
X106988000Y-70663600D03*
X107488000Y-70663600D03*
X107988000Y-70663600D03*
X108488000Y-70663600D03*
X101988000Y-70163600D03*
X102488000Y-69663600D03*
X102488000Y-70163600D03*
X102988000Y-70163600D03*
X103488000Y-70163600D03*
X103988000Y-70163600D03*
X104488000Y-70163600D03*
X104988000Y-70163600D03*
X105488000Y-70163600D03*
X105988000Y-70163600D03*
X106488000Y-70163600D03*
X106988000Y-70163600D03*
X107488000Y-70163600D03*
X107988000Y-70163600D03*
X108488000Y-70163600D03*
X101988000Y-69663600D03*
X102988000Y-69663600D03*
X103488000Y-69663600D03*
X103988000Y-69663600D03*
X104488000Y-69663600D03*
X104988000Y-69663600D03*
X105488000Y-69663600D03*
X105988000Y-69663600D03*
X106488000Y-69663600D03*
X106988000Y-69663600D03*
X107488000Y-69663600D03*
X107988000Y-69663600D03*
X108488000Y-69663600D03*
D24*
X139360200Y-58745100D03*
X140935200Y-58745100D03*
D28*
X139039600Y-63144500D03*
X139039600Y-61569500D03*
D29*
X140614500Y-64668400D03*
X139039500Y-64668400D03*
X143983200Y-58745100D03*
X142408200Y-58745100D03*
D30*
X140688700Y-60165100D03*
X141338700Y-60165100D03*
X141988700Y-60165100D03*
X142638700Y-60165100D03*
X142638700Y-63165100D03*
X141988700Y-63165100D03*
X141338700Y-63165100D03*
X140688700Y-63165100D03*
D31*
X141663699Y-61665099D03*
D28*
X144272000Y-61849100D03*
X144272000Y-60274100D03*
D32*
X98168600Y-75858800D03*
X97198600Y-75858800D03*
D20*
X112438600Y-73522000D03*
X113408600Y-73522000D03*
D33*
X97683600Y-68948200D03*
X97683600Y-71898200D03*
D34*
X140639800Y-81684000D03*
X140639800Y-82654000D03*
D20*
X96970000Y-67553000D03*
X97940000Y-67553000D03*
D33*
X112695000Y-69200400D03*
X112695000Y-72150400D03*
D34*
X140208000Y-94003000D03*
X140208000Y-94973000D03*
D19*
X125425200Y-94513400D03*
X125425200Y-93543400D03*
D20*
X126847600Y-80721200D03*
X127817600Y-80721200D03*
D33*
X143078200Y-80567000D03*
X143078200Y-83517000D03*
D35*
X130176800Y-78994000D03*
X127226800Y-78994000D03*
D36*
X138209400Y-91177900D03*
X138209400Y-92752900D03*
D34*
X110185200Y-81176000D03*
X110185200Y-82146000D03*
D37*
X128975799Y-93157999D03*
X131475799Y-93157999D03*
D20*
X133373000Y-90170000D03*
X134343000Y-90170000D03*
D32*
X131777600Y-91458000D03*
X130807600Y-91458000D03*
D19*
X136956800Y-92991800D03*
X136956800Y-92021800D03*
D34*
X135940800Y-92021800D03*
X135940800Y-92991800D03*
D38*
X140208000Y-92610200D03*
X140208000Y-89660200D03*
D34*
X130276600Y-95882600D03*
X130276600Y-96852600D03*
D32*
X129644000Y-91458000D03*
X128674000Y-91458000D03*
D34*
X132308600Y-95882600D03*
X132308600Y-96852600D03*
X131292600Y-95882600D03*
X131292600Y-96852600D03*
D24*
X155625700Y-94208600D03*
X157200700Y-94208600D03*
D39*
X85949599Y-102759999D03*
X86599599Y-102759999D03*
X87249599Y-102759999D03*
X87899599Y-102759999D03*
X87899599Y-105499999D03*
X87249599Y-105499999D03*
X86599599Y-105499999D03*
X85949599Y-105499999D03*
D40*
X86416600Y-104130000D03*
D41*
X86949999Y-104129999D03*
D40*
X87483400Y-104130000D03*
D32*
X85950000Y-106700000D03*
X84980000Y-106700000D03*
D20*
X86807320Y-101488240D03*
X87777320Y-101488240D03*
D42*
X144150600Y-56889900D03*
X142275600Y-56889900D03*
D43*
X138109900Y-130530600D03*
X137149900Y-130530600D03*
D44*
X134402100Y-130619500D03*
X135422100Y-130619500D03*
D45*
X134404100Y-131582700D03*
X134404100Y-132602700D03*
D19*
X157251400Y-128320800D03*
X157251400Y-127350800D03*
X158242000Y-128320800D03*
X158242000Y-127350800D03*
D34*
X89865200Y-102575500D03*
X89865200Y-103545500D03*
D19*
X89865200Y-105475900D03*
X89865200Y-104505900D03*
D46*
X92675300Y-103847400D03*
X92675300Y-104497400D03*
X92675300Y-105147400D03*
X90900300Y-105147400D03*
X90900300Y-104497400D03*
X90900300Y-103847400D03*
D47*
X91787799Y-104497399D03*
D19*
X147002500Y-123776600D03*
X147002500Y-122806600D03*
X148513800Y-120474600D03*
X148513800Y-119504600D03*
D20*
X147025500Y-124764800D03*
X147995500Y-124764800D03*
D34*
X148018500Y-122806600D03*
X148018500Y-123776600D03*
D19*
X147497800Y-120474600D03*
X147497800Y-119504600D03*
D48*
X157058700Y-113040200D03*
X156408700Y-113040200D03*
X155758700Y-113040200D03*
X155758700Y-111265200D03*
X156408700Y-111265200D03*
X157058700Y-111265200D03*
D49*
X156408699Y-112152699D03*
D20*
X155598000Y-109982000D03*
X156568000Y-109982000D03*
X155598000Y-108991400D03*
X156568000Y-108991400D03*
D39*
X167887199Y-124412399D03*
X168537199Y-124412399D03*
X169187199Y-124412399D03*
X169837199Y-124412399D03*
X169837199Y-127152399D03*
X169187199Y-127152399D03*
X168537199Y-127152399D03*
X167887199Y-127152399D03*
D40*
X168354200Y-125782400D03*
D41*
X168887599Y-125782399D03*
D40*
X169421000Y-125782400D03*
D19*
X166941500Y-127135680D03*
X166941500Y-126165680D03*
X169494200Y-122980380D03*
X169494200Y-122010380D03*
D50*
X139225399Y-112228399D03*
X139725399Y-112228399D03*
X140225399Y-112228399D03*
X140225399Y-113628399D03*
X139225399Y-113628399D03*
D32*
X137873600Y-108204000D03*
X136903600Y-108204000D03*
X134216000Y-102616000D03*
X133246000Y-102616000D03*
D20*
X125168800Y-103911400D03*
X126138800Y-103911400D03*
X125168800Y-104902000D03*
X126138800Y-104902000D03*
X125725200Y-108712000D03*
X126695200Y-108712000D03*
D32*
X149964000Y-128270000D03*
X148994000Y-128270000D03*
D20*
X148994000Y-129260600D03*
X149964000Y-129260600D03*
D19*
X162001200Y-108826300D03*
X162001200Y-107856300D03*
X164846000Y-105082200D03*
X164846000Y-104112200D03*
D51*
X161163000Y-104091500D03*
X161163000Y-105966500D03*
D39*
X162880599Y-106079899D03*
X163530599Y-106079899D03*
X164180599Y-106079899D03*
X164830599Y-106079899D03*
X164830599Y-108819899D03*
X164180599Y-108819899D03*
X163530599Y-108819899D03*
X162880599Y-108819899D03*
D40*
X163347600Y-107449900D03*
D41*
X163880999Y-107449899D03*
D40*
X164414400Y-107449900D03*
D19*
X165900100Y-105082200D03*
X165900100Y-104112200D03*
X166966900Y-105082200D03*
X166966900Y-104112200D03*
X135770000Y-115845000D03*
X135770000Y-114875000D03*
D34*
X138049000Y-112415600D03*
X138049000Y-113385600D03*
D45*
X139573000Y-131087400D03*
X139573000Y-132107400D03*
X139573000Y-129157000D03*
X139573000Y-130177000D03*
D52*
X140563600Y-132107400D03*
X140563600Y-131087400D03*
D46*
X151737500Y-83410000D03*
X151737500Y-84060000D03*
X151737500Y-84710000D03*
X149962500Y-84710000D03*
X149962500Y-84060000D03*
X149962500Y-83410000D03*
D47*
X150849999Y-84059999D03*
D19*
X147900000Y-84645000D03*
X147900000Y-83675000D03*
X146850000Y-84645000D03*
X146850000Y-83675000D03*
D28*
X155702000Y-87973000D03*
X155702000Y-86398000D03*
D29*
X161379000Y-88519000D03*
X159804000Y-88519000D03*
D24*
X159804000Y-90043000D03*
X161379000Y-90043000D03*
D36*
X155702000Y-83350000D03*
X155702000Y-84925000D03*
D53*
X157250000Y-86636500D03*
X157250000Y-85986500D03*
X157250000Y-85336500D03*
X157250000Y-84686500D03*
X160250000Y-84686500D03*
X160250000Y-85336500D03*
X160250000Y-85986500D03*
X160250000Y-86636500D03*
D54*
X158749999Y-85661499D03*
D29*
X159227500Y-83143500D03*
X157652500Y-83143500D03*
D34*
X157302200Y-88796000D03*
X157302200Y-89766000D03*
D55*
X149491700Y-125321000D03*
X149491700Y-124361000D03*
X158683200Y-125298200D03*
X158683200Y-124338200D03*
D56*
X152404699Y-126973799D03*
X151904699Y-126973799D03*
X151404699Y-126973799D03*
D57*
X151404699Y-126223799D03*
X151904699Y-126223799D03*
X152404699Y-126223799D03*
D58*
X138225099Y-131609399D03*
X138225099Y-132109399D03*
X138225099Y-132609399D03*
X138225099Y-133109399D03*
X136425099Y-133109399D03*
X136425099Y-132609399D03*
X136425099Y-132109399D03*
X136425099Y-131609399D03*
D59*
X137325099Y-132359399D03*
D50*
X156540199Y-124533199D03*
X157040199Y-124533199D03*
X157540199Y-124533199D03*
X157540199Y-125933199D03*
X156540199Y-125933199D03*
D56*
X149991699Y-126973799D03*
X149491699Y-126973799D03*
X148991699Y-126973799D03*
D57*
X148991699Y-126223799D03*
X149491699Y-126223799D03*
X149991699Y-126223799D03*
D55*
X152806400Y-125321000D03*
X152806400Y-124361000D03*
D60*
X166296100Y-122469980D03*
X168171100Y-122469980D03*
D55*
X110185200Y-85417600D03*
X110185200Y-84457600D03*
D61*
X89458799Y-90973599D03*
X89458799Y-89723599D03*
X89458799Y-88473599D03*
X89458799Y-87223599D03*
X89458799Y-85973599D03*
X89458799Y-84723599D03*
X89458799Y-83473599D03*
D62*
X86758799Y-93223599D03*
X86758799Y-81223599D03*
D63*
X114440999Y-75147599D03*
X114440999Y-77047599D03*
X112440999Y-76097599D03*
D44*
X112441000Y-79491000D03*
X113461000Y-79491000D03*
D64*
X113461000Y-78475000D03*
X112441000Y-78475000D03*
D65*
X101830200Y-81683100D03*
X102480200Y-81683100D03*
X103130200Y-81683100D03*
X103780200Y-81683100D03*
X104430200Y-81683100D03*
X105080200Y-81683100D03*
X105730200Y-81683100D03*
X106380200Y-81683100D03*
X107030200Y-81683100D03*
X107680200Y-81683100D03*
X108330200Y-81683100D03*
X108980200Y-81683100D03*
X108980200Y-87408100D03*
X108330200Y-87408100D03*
X107680200Y-87408100D03*
X107030200Y-87408100D03*
X106380200Y-87408100D03*
X105730200Y-87408100D03*
X105080200Y-87408100D03*
X104430200Y-87408100D03*
X103780200Y-87408100D03*
X103130200Y-87408100D03*
X102480200Y-87408100D03*
X101830200Y-87408100D03*
D52*
X100579200Y-88560800D03*
X100579200Y-87540800D03*
D66*
X106600000Y-61897500D03*
X105950000Y-61897500D03*
X105300000Y-61897500D03*
X104650000Y-61897500D03*
X104650000Y-59622500D03*
X105300000Y-59622500D03*
X105950000Y-59622500D03*
X106600000Y-59622500D03*
X99850000Y-61872500D03*
X99200000Y-61872500D03*
X98550000Y-61872500D03*
X97900000Y-61872500D03*
X97900000Y-59597500D03*
X98550000Y-59597500D03*
X99200000Y-59597500D03*
X99850000Y-59597500D03*
D55*
X114117400Y-65213600D03*
X114117400Y-64253600D03*
D67*
X97561400Y-105603000D03*
X97561400Y-107503000D03*
D68*
X170475000Y-53847500D03*
X170475000Y-55672500D03*
D48*
X112633800Y-64528900D03*
X111983800Y-64528900D03*
X111333800Y-64528900D03*
X111333800Y-62753900D03*
X111983800Y-62753900D03*
X112633800Y-62753900D03*
D49*
X111983799Y-63641399D03*
D69*
X94812500Y-131785000D03*
X96637500Y-131785000D03*
D64*
X114429000Y-88290400D03*
X113409000Y-88290400D03*
D70*
X144729200Y-73697600D03*
X144729200Y-72047600D03*
D71*
X161645600Y-91821000D03*
D67*
X84400000Y-102750000D03*
X84400000Y-104650000D03*
D44*
X164640000Y-84160000D03*
X165660000Y-84160000D03*
D72*
X147675600Y-67311000D03*
X147675600Y-68961000D03*
D73*
X169250000Y-45160000D03*
D55*
X114117400Y-63029200D03*
X114117400Y-62069200D03*
D52*
X97550000Y-94920000D03*
X97550000Y-93900000D03*
D74*
X94950000Y-134035000D03*
X96500000Y-134035000D03*
D30*
X146357600Y-70483600D03*
X147007600Y-70483600D03*
X147657600Y-70483600D03*
X148307600Y-70483600D03*
X148307600Y-73483600D03*
X147657600Y-73483600D03*
X147007600Y-73483600D03*
X146357600Y-73483600D03*
D31*
X147332599Y-71983599D03*
D75*
X88900999Y-62995599D03*
X92800999Y-62995599D03*
X88900999Y-63495599D03*
X92800999Y-63495599D03*
X88900999Y-63995599D03*
X92800999Y-63995599D03*
X88900999Y-64495599D03*
X92800999Y-64495599D03*
X88900999Y-64995599D03*
X92800999Y-64995599D03*
X88900999Y-65495599D03*
X92800999Y-65495599D03*
X88900999Y-65995599D03*
X92800999Y-65995599D03*
X88900999Y-66495599D03*
X92800999Y-66495599D03*
X88900999Y-66995599D03*
X92800999Y-66995599D03*
X88900999Y-67495599D03*
X92800999Y-67495599D03*
X88900999Y-67995599D03*
X92800999Y-67995599D03*
D70*
X150250000Y-72808600D03*
X150250000Y-71158600D03*
D45*
X101225000Y-111250000D03*
X101225000Y-112270000D03*
D72*
X142849600Y-72047600D03*
X142849600Y-73697600D03*
X149174200Y-67311000D03*
X149174200Y-68961000D03*
D71*
X115265200Y-64820800D03*
D76*
X113467000Y-86690200D03*
X114427000Y-86690200D03*
D71*
X124180600Y-67284600D03*
D77*
X162925000Y-53860000D03*
X162925000Y-55410000D03*
D78*
X134583000Y-91505600D03*
X134583000Y-93355600D03*
X133133000Y-93355600D03*
X133133000Y-91505600D03*
D76*
X122989400Y-61315600D03*
X123949400Y-61315600D03*
X95984400Y-81396000D03*
X96944400Y-81396000D03*
D52*
X146380200Y-69217000D03*
X146380200Y-68197000D03*
D74*
X94875000Y-129635000D03*
X96425000Y-129635000D03*
D71*
X122428000Y-67360800D03*
D45*
X145775000Y-74950000D03*
X145775000Y-75970000D03*
D73*
X87100000Y-45460000D03*
D79*
X99060000Y-105920600D03*
X99060000Y-106880600D03*
D80*
X98060599Y-82728199D03*
D81*
X99110599Y-83278199D03*
X99110599Y-83778199D03*
X99110599Y-84278199D03*
X99110599Y-84778199D03*
X99110599Y-85278199D03*
X99110599Y-85778199D03*
X99110599Y-86278199D03*
X99110599Y-86778199D03*
D80*
X98060599Y-87328199D03*
X97560599Y-87328199D03*
D81*
X96510599Y-86778199D03*
X96510599Y-86278199D03*
X96510599Y-85778199D03*
X96510599Y-85278199D03*
X96510599Y-84778199D03*
X96510599Y-84278199D03*
X96510599Y-83778199D03*
X96510599Y-83278199D03*
D80*
X97560599Y-82728199D03*
D82*
X97810599Y-85028199D03*
D76*
X98753000Y-81396000D03*
X99713000Y-81396000D03*
D71*
X164109400Y-93116400D03*
D55*
X122428000Y-69441000D03*
X122428000Y-68481000D03*
D77*
X171950000Y-53960000D03*
X171950000Y-55510000D03*
D83*
X112324999Y-84884999D03*
D84*
X112324999Y-83584999D03*
D83*
X112324999Y-82284999D03*
X114224999Y-82284999D03*
D84*
X114224999Y-83584999D03*
D83*
X114224999Y-84884999D03*
D73*
X84700000Y-135260000D03*
D74*
X94975000Y-136310000D03*
X96525000Y-136310000D03*
D52*
X94300000Y-94870000D03*
X94300000Y-93850000D03*
D85*
X122036800Y-63429300D03*
X122986800Y-63429300D03*
X123936800Y-63429300D03*
X123936800Y-65704300D03*
X122986800Y-65704300D03*
X122036800Y-65704300D03*
D55*
X124180600Y-69441000D03*
X124180600Y-68481000D03*
D77*
X164550000Y-53860000D03*
X164550000Y-55410000D03*
M02*
