M48
; DRILL file {KiCad 7.0.0-da2b9df05c~171~ubuntu22.04.1} date Πεμ 06 Απρ 2023 10:29:08 μμ EEST
; FORMAT={-:-/ absolute / metric / decimal}
; #@! TF.CreationDate,2023-04-06T22:29:08+03:00
; #@! TF.GenerationSoftware,Kicad,Pcbnew,7.0.0-da2b9df05c~171~ubuntu22.04.1
; #@! TF.FileFunction,Plated,1,6,PTH
FMAT,2
METRIC
; #@! TA.AperFunction,Plated,PTH,ViaDrill
T1C0.200
; #@! TA.AperFunction,Plated,PTH,ComponentDrill
T2C0.200
; #@! TA.AperFunction,Plated,PTH,ComponentDrill
T3C0.254
; #@! TA.AperFunction,Plated,PTH,ComponentDrill
T4C0.300
; #@! TA.AperFunction,Plated,PTH,ViaDrill
T5C0.400
; #@! TA.AperFunction,Plated,PTH,ComponentDrill
T6C0.850
; #@! TA.AperFunction,Plated,PTH,ComponentDrill
T7C1.000
; #@! TA.AperFunction,Plated,PTH,ComponentDrill
T8C2.200
; #@! TA.AperFunction,Plated,PTH,ComponentDrill
T9C3.200
%
G90
G05
T1
X83.236Y-104.165
X83.236Y-105.029
X83.261Y-113.589
X83.287Y-101.346
X83.287Y-110.439
X83.3Y-122.21
X83.3Y-124.21
X83.307Y-57.15
X83.307Y-72.365
X83.307Y-75.413
X83.312Y-49.2
X83.312Y-51.079
X83.312Y-54.127
X83.312Y-60.198
X83.312Y-63.246
X83.312Y-66.294
X83.312Y-69.342
X83.312Y-78.486
X83.312Y-108.204
X83.35Y-127.26
X83.896Y-106.121
X83.896Y-107.264
X84.074Y-100.076
X84.684Y-75.26
X84.684Y-76.454
X84.988Y-65.126
X85.014Y-88.773
X85.065Y-80.95
X85.065Y-84.709
X85.085Y-91.923
X85.085Y-94.971
X85.09Y-98.044
X85.192Y-49.124
X85.242Y-51.206
X85.319Y-75.26
X85.319Y-77.495
X85.344Y-76.454
X85.42Y-66.167
X85.5Y-127.21
X85.7Y-65.608
X85.75Y-79.121
X85.776Y-120.879
X85.801Y-115.113
X85.95Y-107.442
X85.95Y-108.458
X85.965Y-79.883
X86.013Y-75.277
X86.019Y-77.495
X86.03Y-76.467
X86.258Y-101.488
X86.524Y-79.883
X86.6Y-102.312
X86.639Y-106.934
X86.639Y-107.95
X87.147Y-82.652
X87.325Y-106.451
X87.401Y-122.848
X87.475Y-109.335
X87.478Y-64.491
X87.503Y-63.779
X87.503Y-67.64
X87.515Y-68.555
X87.515Y-69.215
X87.526Y-73.262
X87.528Y-71.628
X87.528Y-72.593
X87.54Y-89.74
X87.554Y-70.002
X87.579Y-70.815
X87.61Y-90.97
X87.668Y-62.399
X87.668Y-63.059
X87.706Y-82.652
X87.706Y-107.417
X88.036Y-115.087
X88.2Y-127.41
X88.252Y-111.582
X88.316Y-105.5
X88.595Y-102.337
X88.875Y-103.988
X88.9Y-61.519
X88.9Y-101.346
X88.9Y-103.327
X89.027Y-122.848
X89.179Y-111.582
X89.205Y-102.565
X89.23Y-106.756
X89.865Y-106.02
X90.424Y-50.038
X90.449Y-51.74
X90.5Y-115.087
X90.526Y-126.695
X90.691Y-106.794
X90.83Y-63.754
X90.83Y-64.643
X90.856Y-125.222
X90.894Y-106.032
X90.932Y-101.346
X91.745Y-123.368
X92.151Y-127.61
X92.227Y-50.775
X92.45Y-96.26
X92.685Y-102.342
X92.685Y-103.276
X93.25Y-93.66
X93.345Y-103.276
X93.731Y-87.651
X93.802Y-50.419
X93.802Y-51.968
X93.904Y-103.251
X93.98Y-101.346
X94.107Y-64.059
X94.107Y-67.158
X94.115Y-85.674
X94.115Y-86.654
X94.115Y-69.647
X94.115Y-72.161
X94.128Y-82.158
X94.132Y-74.625
X94.132Y-79.654
X94.136Y-84.647
X94.209Y-78.13
X94.209Y-78.943
X94.285Y-77.14
X94.285Y-95.555
X94.361Y-88.113
X94.412Y-68.301
X94.598Y-75.168
X94.598Y-75.828
X94.844Y-85.7
X95.0Y-114.86
X95.059Y-111.138
X95.453Y-102.362
X95.455Y-84.279
X95.479Y-83.287
X95.753Y-85.79
X95.804Y-83.784
X95.809Y-111.15
X95.961Y-110.033
X95.982Y-80.685
X95.982Y-82.107
X96.012Y-109.22
X96.266Y-111.938
X96.266Y-112.624
X96.291Y-62.6
X96.439Y-67.553
X96.469Y-111.14
X96.506Y-88.321
X96.515Y-82.982
X96.52Y-109.22
X96.571Y-93.713
X96.571Y-110.185
X96.947Y-80.659
X96.972Y-66.816
X97.028Y-101.346
X97.201Y-63.387
X97.201Y-75.122
X97.201Y-76.545
X97.561Y-95.58
X97.612Y-96.266
X97.684Y-71.007
X97.938Y-66.816
X98.05Y-136.41
X98.065Y-88.076
X98.623Y-67.553
X98.704Y-96.317
X98.75Y-80.659
X98.806Y-110.185
X99.009Y-110.871
X99.009Y-111.582
X99.009Y-113.563
X99.055Y-68.95
X99.238Y-120.548
X99.289Y-108.814
X99.365Y-87.884
X99.365Y-97.815
X99.512Y-88.559
X99.644Y-64.033
X99.716Y-80.659
X99.716Y-82.107
X99.893Y-83.276
X99.893Y-87.543
X100.432Y-122.428
X100.838Y-101.346
X101.05Y-136.41
X101.15Y-110.41
X101.22Y-112.81
X101.38Y-102.43
X101.625Y-76.784
X102.24Y-102.45
X102.308Y-77.073
X102.484Y-68.823
X102.484Y-84.292
X102.484Y-86.654
X102.502Y-80.737
X102.764Y-76.748
X102.992Y-67.965
X102.992Y-69.204
X103.048Y-62.586
X103.124Y-88.494
X103.41Y-72.943
X103.411Y-72.383
X103.475Y-68.823
X103.708Y-71.222
X103.78Y-80.837
X103.78Y-84.774
X103.78Y-86.656
X103.86Y-102.44
X103.886Y-101.346
X103.983Y-67.965
X103.983Y-69.255
X104.059Y-63.387
X104.15Y-136.41
X104.419Y-80.721
X104.44Y-82.564
X104.491Y-68.848
X104.491Y-74.665
X104.491Y-76.621
X104.673Y-71.223
X104.847Y-89.336
X104.999Y-74.665
X105.029Y-116.535
X105.1Y-88.533
X105.151Y-77.078
X105.329Y-72.176
X105.359Y-71.222
X105.537Y-106.553
X105.698Y-76.668
X105.715Y-86.233
X105.735Y-80.606
X105.735Y-88.483
X105.989Y-71.16
X105.989Y-72.15
X106.274Y-80.391
X106.37Y-88.51
X106.396Y-64.033
X106.726Y-83.301
X106.934Y-101.346
X107.031Y-79.262
X107.031Y-88.483
X107.036Y-86.233
X107.2Y-136.41
X107.34Y-55.931
X107.67Y-88.5
X107.691Y-78.399
X107.8Y-106.285
X108.326Y-82.742
X108.326Y-88.508
X108.377Y-78.399
X108.48Y-89.12
X108.99Y-90.73
X109.982Y-101.346
X110.04Y-91.1
X110.053Y-88.508
X110.185Y-80.467
X110.185Y-83.82
X110.25Y-136.41
X110.49Y-51.435
X110.846Y-88.494
X110.922Y-84.455
X110.922Y-85.42
X111.328Y-62.117
X111.35Y-97.11
X111.4Y-96.51
X111.43Y-69.19
X111.755Y-73.522
X111.984Y-62.143
X112.166Y-81.255
X112.434Y-74.838
X112.434Y-76.87
X112.434Y-77.378
X112.435Y-75.346
X112.649Y-65.227
X112.695Y-68.351
X112.827Y-86.69
X113.03Y-101.346
X113.3Y-136.41
X113.462Y-87.401
X113.487Y-65.227
X113.533Y-63.667
X114.0Y-79.491
X114.092Y-73.522
X114.117Y-63.667
X114.173Y-69.204
X114.249Y-78.461
X114.333Y-90.011
X114.427Y-80.695
X114.427Y-81.255
X114.427Y-86.055
X114.427Y-87.401
X114.441Y-76.362
X114.441Y-77.733
X114.677Y-79.502
X114.727Y-63.667
X114.783Y-65.227
X114.783Y-72.212
X114.783Y-72.847
X115.279Y-77.048
X115.425Y-91.335
X115.468Y-62.397
X115.494Y-62.992
X115.545Y-89.637
X116.078Y-101.346
X116.35Y-136.41
X117.627Y-72.658
X117.75Y-135.51
X117.851Y-63.616
X117.851Y-64.149
X117.932Y-91.15
X117.958Y-90.119
X118.339Y-91.643
X118.618Y-64.948
X118.618Y-65.41
X118.618Y-74.651
X118.618Y-77.14
X118.618Y-79.654
X118.618Y-82.158
X118.618Y-84.633
X118.643Y-67.158
X118.643Y-69.647
X118.643Y-72.161
X118.643Y-90.195
X118.689Y-63.616
X118.689Y-64.149
X118.872Y-101.346
X118.872Y-103.505
X118.872Y-106.553
X118.9Y-134.51
X120.4Y-80.1
X120.4Y-80.66
X120.421Y-121.793
X120.475Y-81.16
X120.9Y-102.685
X121.125Y-93.335
X121.895Y-70.902
X122.022Y-62.255
X122.428Y-67.361
X122.428Y-70.028
X122.428Y-73.482
X122.428Y-105.791
X122.5Y-101.61
X122.555Y-74.473
X122.9Y-79.66
X122.936Y-66.802
X122.987Y-62.179
X122.999Y-60.602
X123.317Y-70.028
X123.317Y-87.706
X123.342Y-86.03
X123.35Y-83.505
X123.37Y-88.621
X123.379Y-80.285
X123.436Y-82.921
X123.622Y-105.791
X123.749Y-85.522
X123.774Y-91.567
X123.8Y-79.197
X123.85Y-88.163
X123.952Y-60.604
X123.952Y-62.154
X123.952Y-66.751
X124.003Y-85.014
X124.028Y-110.693
X124.05Y-133.01
X124.1Y-123.81
X124.1Y-126.91
X124.1Y-129.96
X124.1Y-134.51
X124.104Y-105.258
X124.167Y-70.041
X124.181Y-67.285
X124.2Y-122.21
X124.231Y-87.516
X124.257Y-92.024
X124.333Y-107.391
X124.358Y-104.673
X124.45Y-118.56
X124.45Y-120.66
X124.638Y-110.058
X124.638Y-111.328
X124.689Y-106.883
X125.146Y-95.225
X125.164Y-105.44
X125.717Y-108.052
X125.73Y-109.449
X125.761Y-95.214
X126.0Y-118.56
X126.006Y-78.141
X126.136Y-91.008
X126.136Y-103.327
X126.213Y-88.519
X126.289Y-86.512
X126.34Y-81.712
X126.416Y-94.31
X126.441Y-87.528
X126.525Y-82.525
X126.568Y-91.516
X126.65Y-121.76
X126.695Y-108.052
X126.695Y-109.449
X126.721Y-104.902
X126.746Y-85.268
X126.774Y-87.02
X126.774Y-104.089
X127.025Y-83.541
X127.036Y-91.209
X127.076Y-82.017
X127.152Y-93.548
X127.316Y-87.161
X127.38Y-69.46
X127.575Y-94.935
X127.838Y-81.94
X128.01Y-70.84
X128.069Y-101.941
X128.219Y-77.546
X128.325Y-83.535
X128.535Y-101.475
X128.85Y-81.96
X129.025Y-88.86
X129.05Y-118.56
X129.057Y-83.058
X129.261Y-78.638
X129.35Y-94.98
X129.45Y-81.96
X129.459Y-101.757
X129.475Y-66.81
X129.475Y-67.37
X129.718Y-93.878
X129.926Y-101.29
X130.06Y-85.42
X130.277Y-93.675
X130.327Y-82.017
X130.861Y-93.878
X130.911Y-102.617
X130.95Y-101.622
X131.115Y-89.51
X131.242Y-78.638
X131.343Y-97.727
X131.416Y-101.155
X131.45Y-118.56
X131.45Y-120.16
X131.45Y-121.76
X131.572Y-94.539
X131.572Y-95.047
X131.68Y-111.1
X131.68Y-111.72
X131.851Y-79.502
X131.939Y-73.627
X131.98Y-70.8
X132.334Y-82.474
X132.41Y-102.616
X132.49Y-73.53
X132.512Y-84.836
X132.547Y-70.822
X132.69Y-90.17
X132.831Y-101.204
X132.842Y-79.502
X132.98Y-73.82
X133.147Y-84.836
X133.147Y-94.056
X133.2Y-70.83
X133.35Y-118.56
X133.35Y-120.76
X133.35Y-123.81
X133.35Y-126.86
X133.35Y-129.91
X133.35Y-132.96
X133.35Y-134.61
X133.375Y-89.408
X133.47Y-74.1
X133.477Y-95.021
X133.491Y-101.204
X133.629Y-87.859
X133.706Y-86.589
X133.731Y-84.836
X133.87Y-70.85
X134.341Y-89.408
X134.569Y-94.056
X134.831Y-101.346
X134.849Y-97.333
X135.077Y-132.613
X135.103Y-90.17
X135.103Y-102.616
X135.103Y-103.48
X135.325Y-79.435
X135.585Y-61.62
X135.585Y-57.861
X135.585Y-59.741
X135.605Y-101.43
X135.738Y-131.597
X135.839Y-95.047
X135.865Y-87.653
X135.9Y-79.435
X135.941Y-78.435
X135.941Y-93.624
X136.068Y-109.464
X136.093Y-105.385
X136.093Y-108.179
X136.093Y-108.89
X136.246Y-101.778
X136.246Y-106.909
X136.252Y-106.223
X136.4Y-134.61
X136.423Y-102.641
X136.423Y-104.038
X136.524Y-62.56
X136.525Y-60.681
X136.525Y-58.801
X136.601Y-114.554
X136.627Y-82.398
X136.696Y-116.825
X136.775Y-98.36
X136.804Y-66.802
X136.804Y-79.223
X136.906Y-104.521
X136.957Y-91.415
X137.008Y-125.349
X137.02Y-114.033
X137.025Y-88.16
X137.147Y-129.997
X137.201Y-93.751
X137.363Y-102.337
X137.389Y-82.118
X137.56Y-75.77
X137.592Y-117.373
X137.643Y-125.273
X137.654Y-124.572
X137.742Y-115.775
X137.744Y-114.097
X137.77Y-66.827
X137.846Y-79.223
X137.846Y-95.123
X138.0Y-97.76
X138.024Y-82.144
X138.11Y-129.997
X138.176Y-129.159
X138.201Y-93.751
X138.28Y-75.77
X138.354Y-79.705
X138.354Y-83.642
X138.375Y-94.61
X138.405Y-58.75
X138.455Y-105.258
X138.557Y-108.204
X138.574Y-97.292
X138.582Y-109.195
X138.757Y-69.596
X138.76Y-66.802
X138.76Y-70.841
X138.763Y-82.931
X138.786Y-84.049
X138.796Y-95.051
X138.81Y-106.25
X138.862Y-110.033
X138.862Y-111.328
X138.862Y-129.159
X138.874Y-132.601
X138.913Y-94.005
X138.963Y-89.662
X139.048Y-116.482
X139.217Y-83.363
X139.25Y-75.46
X139.421Y-94.971
X139.421Y-110.668
X139.446Y-94.005
X139.446Y-98.603
X139.446Y-101.887
X139.492Y-115.125
X139.6Y-134.61
X139.6Y-136.36
X139.725Y-70.18
X139.827Y-113.335
X140.132Y-59.766
X140.208Y-95.682
X140.225Y-112.818
X140.414Y-101.9
X140.564Y-130.48
X140.614Y-65.507
X140.64Y-81.128
X140.738Y-69.596
X140.741Y-70.841
X141.097Y-112.166
X141.326Y-63.983
X141.445Y-78.075
X141.478Y-81.686
X141.681Y-91.542
X141.732Y-69.139
X141.91Y-83.515
X141.961Y-82.575
X142.011Y-89.535
X142.24Y-91.581
X142.24Y-93.04
X142.265Y-55.829
X142.307Y-110.778
X142.494Y-130.048
X142.646Y-63.83
X142.65Y-136.36
X142.773Y-90.018
X142.85Y-71.12
X142.85Y-85.722
X142.95Y-76.785
X143.002Y-86.309
X143.078Y-79.553
X143.383Y-85.268
X143.45Y-92.26
X143.45Y-97.26
X143.457Y-94.717
X143.538Y-107.721
X143.612Y-86.258
X143.713Y-91.034
X143.755Y-66.335
X143.866Y-71.018
X143.875Y-67.41
X143.891Y-84.785
X144.0Y-76.785
X144.374Y-65.888
X144.4Y-66.827
X144.45Y-80.569
X144.653Y-120.472
X144.78Y-92.253
X144.831Y-113.233
X144.856Y-58.293
X144.95Y-77.76
X145.0Y-76.785
X145.288Y-120.472
X145.364Y-92.888
X145.491Y-65.888
X145.665Y-62.332
X145.7Y-136.36
X145.745Y-119.596
X145.745Y-123.888
X145.745Y-124.904
X145.745Y-125.92
X145.85Y-67.766
X145.85Y-73.96
X145.975Y-76.785
X146.05Y-104.775
X146.126Y-122.961
X146.126Y-126.416
X146.205Y-59.816
X146.329Y-119.583
X146.375Y-78.41
X146.375Y-79.41
X146.375Y-80.31
X146.375Y-81.185
X146.558Y-66.856
X146.609Y-65.583
X146.784Y-96.33
X146.812Y-128.016
X146.925Y-76.785
X146.948Y-100.162
X147.015Y-125.476
X147.204Y-95.887
X147.269Y-121.285
X147.32Y-86.258
X147.333Y-71.984
X147.491Y-100.026
X147.599Y-62.636
X147.599Y-64.541
X147.599Y-65.583
X147.65Y-102.032
X147.65Y-126.238
X147.694Y-122.428
X147.993Y-125.476
X148.1Y-71.96
X148.112Y-126.742
X148.355Y-86.267
X148.4Y-68.06
X148.45Y-74.51
X148.514Y-54.712
X148.75Y-136.41
X148.844Y-59.868
X148.915Y-83.691
X149.2Y-68.06
X149.225Y-119.71
X149.45Y-82.86
X149.479Y-127.559
X149.5Y-84.813
X149.936Y-67.323
X149.962Y-129.819
X150.005Y-76.56
X150.114Y-94.717
X150.279Y-124.447
X150.35Y-82.114
X150.419Y-59.868
X150.459Y-77.622
X150.459Y-79.604
X150.508Y-125.514
X150.515Y-126.222
X150.698Y-102.032
X150.901Y-124.841
X151.044Y-78.588
X151.044Y-80.62
X151.075Y-76.586
X151.206Y-72.974
X151.35Y-82.114
X151.55Y-81.206
X151.562Y-124.46
X151.613Y-91.44
X151.638Y-61.595
X151.638Y-62.687
X151.638Y-94.717
X151.75Y-136.36
X151.867Y-70.409
X151.867Y-71.476
X151.875Y-78.535
X151.905Y-125.692
X151.905Y-127.521
X151.909Y-77.835
X152.248Y-91.415
X152.395Y-84.681
X152.502Y-56.286
X152.502Y-57.912
X152.502Y-59.538
X152.502Y-77.546
X152.552Y-62.128
X152.56Y-65.91
X152.58Y-66.8
X152.625Y-132.535
X152.857Y-70.942
X152.975Y-130.21
X153.035Y-126.213
X153.289Y-60.325
X153.314Y-57.099
X153.314Y-58.725
X153.36Y-63.82
X153.365Y-65.532
X153.365Y-67.158
X153.37Y-66.31
X153.391Y-124.358
X153.475Y-72.46
X153.568Y-61.595
X153.568Y-62.687
X153.594Y-125.095
X153.746Y-102.032
X153.797Y-70.409
X153.797Y-71.476
X154.125Y-76.11
X154.178Y-84.328
X154.178Y-87.376
X154.178Y-90.424
X154.178Y-93.472
X154.178Y-96.52
X154.178Y-98.476
X154.381Y-73.482
X154.762Y-94.209
X154.94Y-109.982
X155.11Y-105.0
X155.11Y-105.83
X155.499Y-118.466
X155.55Y-98.222
X155.702Y-82.55
X155.702Y-88.963
X155.753Y-63.195
X155.753Y-72.009
X155.753Y-74.676
X155.8Y-125.075
X155.804Y-121.996
X155.804Y-124.054
X155.854Y-120.929
X156.032Y-119.99
X156.108Y-99.162
X156.159Y-118.466
X156.21Y-119.304
X156.388Y-91.897
X156.388Y-92.558
X156.409Y-113.661
X156.534Y-73.965
X156.54Y-72.39
X156.667Y-98.196
X156.947Y-82.042
X157.045Y-123.99
X157.048Y-123.19
X157.074Y-125.298
X157.175Y-99.162
X157.201Y-93.167
X157.226Y-78.232
X157.302Y-90.685
X157.397Y-73.177
X157.404Y-74.574
X157.455Y-102.032
X157.582Y-103.734
X157.653Y-82.22
X157.734Y-114.96
X157.759Y-98.196
X157.797Y-95.885
X157.85Y-136.41
X157.95Y-92.385
X158.0Y-134.26
X158.073Y-106.77
X158.242Y-99.162
X158.242Y-126.721
X158.293Y-72.009
X158.293Y-74.651
X158.471Y-89.535
X158.674Y-123.825
X158.675Y-92.435
X158.75Y-85.661
X158.75Y-90.043
X158.928Y-106.782
X158.953Y-93.32
X159.004Y-97.155
X159.06Y-97.79
X159.258Y-122.453
X159.41Y-128.321
X159.423Y-116.332
X159.493Y-63.527
X159.69Y-97.79
X159.741Y-79.426
X159.791Y-106.756
X160.274Y-78.232
X160.425Y-80.21
X160.503Y-102.032
X160.528Y-107.061
X160.675Y-79.71
X160.9Y-136.41
X161.163Y-107.061
X161.336Y-65.63
X161.336Y-66.265
X161.336Y-66.9
X161.646Y-97.79
X161.92Y-65.63
X161.92Y-66.265
X161.92Y-66.9
X162.001Y-107.213
X162.154Y-110.338
X162.458Y-109.728
X162.535Y-112.217
X162.55Y-91.835
X162.763Y-97.18
X163.05Y-82.935
X163.068Y-113.309
X163.3Y-132.06
X163.322Y-78.232
X163.45Y-92.36
X163.474Y-99.212
X163.525Y-84.15
X163.551Y-102.032
X163.932Y-82.804
X163.932Y-114.91
X163.998Y-94.401
X164.075Y-80.685
X164.13Y-103.69
X164.211Y-85.293
X164.313Y-95.865
X164.4Y-129.76
X164.44Y-82.804
X164.45Y-136.36
X164.465Y-98.222
X164.78Y-90.15
X164.795Y-87.122
X164.795Y-88.138
X164.795Y-89.154
X164.871Y-94.336
X164.871Y-99.212
X165.251Y-106.07
X165.354Y-125.243
X165.456Y-121.082
X165.557Y-94.412
X165.659Y-98.222
X166.116Y-99.212
X166.256Y-81.09
X166.37Y-78.232
X166.675Y-114.91
X166.827Y-85.852
X167.005Y-98.552
X167.005Y-103.124
X167.05Y-128.56
X167.069Y-110.705
X167.107Y-108.928
X167.208Y-80.442
X167.208Y-81.788
X167.361Y-106.782
X167.386Y-94.818
X167.691Y-103.734
X167.716Y-85.852
X167.719Y-104.417
X167.945Y-96.495
X168.097Y-81.09
X168.097Y-100.889
X168.225Y-98.56
X168.278Y-104.42
X168.537Y-123.727
X169.65Y-128.46
X169.672Y-114.91
X169.85Y-127.652
X169.926Y-80.01
X169.926Y-82.55
X169.926Y-88.646
X169.926Y-91.694
X169.926Y-94.742
X169.926Y-97.79
X169.977Y-123.749
X170.409Y-127.144
X171.947Y-112.116
X171.95Y-124.31
X171.95Y-126.61
X171.95Y-128.41
X171.958Y-57.912
X171.958Y-60.96
X171.958Y-64.008
X171.958Y-67.056
X171.958Y-70.104
X171.958Y-73.152
X171.958Y-74.93
X171.958Y-106.045
X171.958Y-109.093
X171.983Y-103.556
T2
X86.417Y-104.13
X87.483Y-104.13
X111.434Y-63.641
X112.534Y-63.641
X152.335Y-111.032
X152.335Y-112.132
X152.335Y-113.232
X153.435Y-111.032
X153.435Y-112.132
X153.435Y-113.232
X154.535Y-111.032
X154.535Y-112.132
X154.535Y-113.232
X157.688Y-119.219
X157.688Y-119.769
X158.238Y-119.219
X158.238Y-119.769
X163.348Y-107.45
X164.414Y-107.45
X167.75Y-109.804
X168.354Y-125.782
X168.85Y-109.804
X169.421Y-125.782
T3
X159.031Y-126.721
X159.664Y-126.721
X160.297Y-126.721
T4
X92.383Y-108.207
X92.383Y-108.807
X92.383Y-109.407
X92.983Y-108.207
X92.983Y-108.807
X92.983Y-109.407
X93.583Y-108.207
X93.583Y-108.807
X93.583Y-109.407
X139.85Y-122.971
X139.85Y-123.822
X139.85Y-124.671
X140.7Y-122.971
X140.7Y-123.822
X140.7Y-124.671
X141.55Y-122.971
X141.55Y-123.822
X141.55Y-124.671
X149.847Y-120.916
X149.847Y-121.666
X149.847Y-122.416
X150.597Y-120.916
X150.597Y-121.666
X150.597Y-122.416
X151.347Y-120.916
X151.347Y-121.666
X151.347Y-122.416
T5
X86.741Y-99.187
X87.503Y-99.187
X88.265Y-99.187
X89.027Y-99.187
X89.789Y-99.187
X90.526Y-99.187
X96.25Y-106.875
X96.25Y-107.625
X96.25Y-108.425
X96.444Y-105.613
X97.684Y-72.938
X99.06Y-105.283
X99.18Y-71.898
X111.323Y-72.15
X112.695Y-71.185
X135.519Y-123.827
X135.56Y-125.451
X135.56Y-127.686
X135.578Y-118.694
X135.585Y-121.298
X136.553Y-123.774
X136.568Y-118.694
X136.581Y-121.209
X138.227Y-103.378
X139.192Y-119.532
X139.725Y-117.729
X141.783Y-120.523
X143.053Y-117.12
X149.174Y-109.855
X149.962Y-104.826
X151.613Y-104.826
X151.765Y-107.899
X152.083Y-105.835
X152.54Y-108.75
X152.769Y-105.111
X153.81Y-105.098
X159.677Y-110.071
X159.68Y-109.05
X159.69Y-108.06
X160.807Y-109.728
X160.82Y-108.826
X160.833Y-110.617
X161.696Y-109.728
X163.271Y-126.67
X163.271Y-127.635
X166.065Y-125.984
X166.065Y-126.721
X166.954Y-125.493
X167.64Y-113.021
X168.173Y-121.175
X168.351Y-106.197
X168.859Y-113.081
X169.494Y-121.175
X169.507Y-106.197
X169.621Y-113.081
X170.383Y-122.013
T6
X148.393Y-87.732
X148.393Y-89.732
X148.393Y-91.732
X148.393Y-93.732
X148.393Y-95.732
X148.393Y-97.732
X150.393Y-87.732
X150.393Y-89.732
X150.393Y-91.732
X150.393Y-93.732
X150.393Y-95.732
X150.393Y-97.732
X166.275Y-62.31
X166.275Y-64.31
X166.275Y-66.31
X166.275Y-68.31
X166.275Y-70.31
X166.275Y-72.31
X168.275Y-62.31
X168.275Y-64.31
X168.275Y-66.31
X168.275Y-68.31
X168.275Y-70.31
X168.275Y-72.31
T7
X96.52Y-46.355
X96.52Y-48.895
X96.52Y-51.435
X96.52Y-53.975
X99.06Y-46.355
X99.06Y-48.895
X99.06Y-51.435
X99.06Y-53.975
X101.6Y-46.355
X101.6Y-48.895
X101.6Y-51.435
X101.6Y-53.975
X104.14Y-46.355
X104.14Y-48.895
X104.14Y-51.435
X104.14Y-53.975
X106.68Y-46.355
X106.68Y-48.895
X106.68Y-51.435
X106.68Y-53.975
X109.22Y-46.355
X109.22Y-48.895
X109.22Y-51.435
X109.22Y-53.975
X111.76Y-46.355
X111.76Y-48.895
X111.76Y-51.435
X111.76Y-53.975
X114.3Y-46.355
X114.3Y-48.895
X114.3Y-51.435
X114.3Y-53.975
X116.84Y-46.355
X116.84Y-48.895
X116.84Y-51.435
X116.84Y-53.975
X119.38Y-46.355
X119.38Y-48.895
X119.38Y-51.435
X119.38Y-53.975
X121.92Y-46.355
X121.92Y-48.895
X121.92Y-51.435
X121.92Y-53.975
X124.46Y-46.355
X124.46Y-48.895
X124.46Y-51.435
X124.46Y-53.975
X127.0Y-46.355
X127.0Y-48.895
X127.0Y-51.435
X127.0Y-53.975
X129.54Y-46.355
X129.54Y-48.895
X129.54Y-51.435
X129.54Y-53.975
X132.08Y-46.355
X132.08Y-48.895
X132.08Y-51.435
X132.08Y-53.975
X134.62Y-46.355
X134.62Y-48.895
X134.62Y-51.435
X134.62Y-53.975
X137.16Y-46.355
X137.16Y-48.895
X137.16Y-51.435
X137.16Y-53.975
X139.7Y-46.355
X139.7Y-48.895
X139.7Y-51.435
X139.7Y-53.975
X142.24Y-46.355
X142.24Y-48.895
X142.24Y-51.435
X142.24Y-53.975
X144.78Y-46.355
X144.78Y-48.895
X144.78Y-51.435
X144.78Y-53.975
X147.32Y-46.355
X147.32Y-48.895
X147.32Y-51.435
X147.32Y-53.975
X149.86Y-46.355
X149.86Y-48.895
X149.86Y-51.435
X149.86Y-53.975
X152.4Y-46.355
X152.4Y-48.895
X152.4Y-51.435
X152.4Y-53.975
X154.94Y-46.355
X154.94Y-48.895
X154.94Y-51.435
X154.94Y-53.975
X157.48Y-46.355
X157.48Y-48.895
X157.48Y-51.435
X157.48Y-53.975
X160.02Y-46.355
X160.02Y-48.895
X160.02Y-51.435
X160.02Y-53.975
T8
X85.725Y-110.744
X88.036Y-50.648
X102.3Y-135.41
X121.412Y-108.712
X129.032Y-120.777
X146.05Y-107.061
X147.8Y-135.43
X153.987Y-80.328
X164.79Y-111.94
X164.795Y-111.938
X167.82Y-53.33
X170.307Y-101.283
X170.434Y-77.28
T9
X87.63Y-132.08
X91.44Y-46.355
X165.1Y-46.355
X167.64Y-132.08
T0
M30
