%TF.GenerationSoftware,KiCad,Pcbnew,7.0.5*%
%TF.CreationDate,2024-04-22T16:49:58+03:00*%
%TF.ProjectId,satnogs-comms,7361746e-6f67-4732-9d63-6f6d6d732e6b,rev?*%
%TF.SameCoordinates,PX4eb9cf0PY82ce540*%
%TF.FileFunction,Paste,Bot*%
%TF.FilePolarity,Positive*%
%FSLAX46Y46*%
G04 Gerber Fmt 4.6, Leading zero omitted, Abs format (unit mm)*
G04 Created by KiCad (PCBNEW 7.0.5) date 2024-04-22 16:49:58*
%MOMM*%
%LPD*%
G01*
G04 APERTURE LIST*
G04 Aperture macros list*
%AMRoundRect*
0 Rectangle with rounded corners*
0 $1 Rounding radius*
0 $2 $3 $4 $5 $6 $7 $8 $9 X,Y pos of 4 corners*
0 Add a 4 corners polygon primitive as box body*
4,1,4,$2,$3,$4,$5,$6,$7,$8,$9,$2,$3,0*
0 Add four circle primitives for the rounded corners*
1,1,$1+$1,$2,$3*
1,1,$1+$1,$4,$5*
1,1,$1+$1,$6,$7*
1,1,$1+$1,$8,$9*
0 Add four rect primitives between the rounded corners*
20,1,$1+$1,$2,$3,$4,$5,0*
20,1,$1+$1,$4,$5,$6,$7,0*
20,1,$1+$1,$6,$7,$8,$9,0*
20,1,$1+$1,$8,$9,$2,$3,0*%
G04 Aperture macros list end*
%ADD10RoundRect,0.135000X0.185000X-0.135000X0.185000X0.135000X-0.185000X0.135000X-0.185000X-0.135000X0*%
%ADD11RoundRect,0.135000X-0.135000X-0.185000X0.135000X-0.185000X0.135000X0.185000X-0.135000X0.185000X0*%
%ADD12RoundRect,0.212500X-0.212500X-0.212500X0.212500X-0.212500X0.212500X0.212500X-0.212500X0.212500X0*%
%ADD13RoundRect,0.087500X-0.425000X-0.087500X0.425000X-0.087500X0.425000X0.087500X-0.425000X0.087500X0*%
%ADD14RoundRect,0.087500X-0.087500X-0.425000X0.087500X-0.425000X0.087500X0.425000X-0.087500X0.425000X0*%
%ADD15RoundRect,0.225000X-0.225000X-0.250000X0.225000X-0.250000X0.225000X0.250000X-0.225000X0.250000X0*%
%ADD16RoundRect,0.237500X0.250000X0.237500X-0.250000X0.237500X-0.250000X-0.237500X0.250000X-0.237500X0*%
%ADD17RoundRect,0.237500X0.237500X-0.250000X0.237500X0.250000X-0.237500X0.250000X-0.237500X-0.250000X0*%
%ADD18C,0.240000*%
%ADD19RoundRect,0.200000X-0.200000X-0.275000X0.200000X-0.275000X0.200000X0.275000X-0.200000X0.275000X0*%
%ADD20RoundRect,0.200000X0.275000X-0.200000X0.275000X0.200000X-0.275000X0.200000X-0.275000X-0.200000X0*%
%ADD21RoundRect,0.200000X0.200000X0.275000X-0.200000X0.275000X-0.200000X-0.275000X0.200000X-0.275000X0*%
%ADD22RoundRect,0.150000X-0.315000X0.150000X-0.315000X-0.150000X0.315000X-0.150000X0.315000X0.150000X0*%
%ADD23RoundRect,0.075000X-0.075000X0.275000X-0.075000X-0.275000X0.075000X-0.275000X0.075000X0.275000X0*%
%ADD24RoundRect,0.140000X0.140000X0.170000X-0.140000X0.170000X-0.140000X-0.170000X0.140000X-0.170000X0*%
%ADD25RoundRect,0.140000X-0.140000X-0.170000X0.140000X-0.170000X0.140000X0.170000X-0.140000X0.170000X0*%
%ADD26RoundRect,0.250000X-0.650000X0.325000X-0.650000X-0.325000X0.650000X-0.325000X0.650000X0.325000X0*%
%ADD27RoundRect,0.140000X-0.170000X0.140000X-0.170000X-0.140000X0.170000X-0.140000X0.170000X0.140000X0*%
%ADD28RoundRect,0.140000X0.170000X-0.140000X0.170000X0.140000X-0.170000X0.140000X-0.170000X-0.140000X0*%
%ADD29RoundRect,0.250000X-0.325000X-0.650000X0.325000X-0.650000X0.325000X0.650000X-0.325000X0.650000X0*%
%ADD30RoundRect,0.218750X-0.256250X0.218750X-0.256250X-0.218750X0.256250X-0.218750X0.256250X0.218750X0*%
%ADD31R,1.000000X1.800000*%
%ADD32RoundRect,0.135000X-0.185000X0.135000X-0.185000X-0.135000X0.185000X-0.135000X0.185000X0.135000X0*%
%ADD33RoundRect,0.250000X0.650000X-0.325000X0.650000X0.325000X-0.650000X0.325000X-0.650000X-0.325000X0*%
%ADD34RoundRect,0.243750X0.243750X0.456250X-0.243750X0.456250X-0.243750X-0.456250X0.243750X-0.456250X0*%
%ADD35RoundRect,0.160000X0.245000X0.160000X-0.245000X0.160000X-0.245000X-0.160000X0.245000X-0.160000X0*%
%ADD36RoundRect,0.093750X0.093750X0.106250X-0.093750X0.106250X-0.093750X-0.106250X0.093750X-0.106250X0*%
%ADD37RoundRect,0.160000X0.160000X-0.245000X0.160000X0.245000X-0.160000X0.245000X-0.160000X-0.245000X0*%
%ADD38RoundRect,0.093750X0.106250X-0.093750X0.106250X0.093750X-0.106250X0.093750X-0.106250X-0.093750X0*%
%ADD39R,0.470000X0.560000*%
%ADD40R,2.520000X1.700000*%
%ADD41R,0.300000X0.450000*%
%ADD42RoundRect,0.135000X0.135000X0.185000X-0.135000X0.185000X-0.135000X-0.185000X0.135000X-0.185000X0*%
%ADD43RoundRect,0.250000X-0.475000X0.250000X-0.475000X-0.250000X0.475000X-0.250000X0.475000X0.250000X0*%
%ADD44RoundRect,0.200000X-0.275000X0.200000X-0.275000X-0.200000X0.275000X-0.200000X0.275000X0.200000X0*%
%ADD45RoundRect,0.150000X-0.150000X-0.315000X0.150000X-0.315000X0.150000X0.315000X-0.150000X0.315000X0*%
%ADD46RoundRect,0.075000X-0.275000X-0.075000X0.275000X-0.075000X0.275000X0.075000X-0.275000X0.075000X0*%
%ADD47R,0.300000X0.520000*%
%ADD48R,0.300000X0.490000*%
%ADD49R,0.850000X0.650000*%
%ADD50R,0.500000X0.300000*%
%ADD51RoundRect,0.250000X-0.250000X-0.475000X0.250000X-0.475000X0.250000X0.475000X-0.250000X0.475000X0*%
%ADD52RoundRect,0.150000X0.587500X0.150000X-0.587500X0.150000X-0.587500X-0.150000X0.587500X-0.150000X0*%
%ADD53RoundRect,0.150000X-0.350000X0.150000X-0.350000X-0.150000X0.350000X-0.150000X0.350000X0.150000X0*%
%ADD54RoundRect,0.250000X-0.650000X0.375000X-0.650000X-0.375000X0.650000X-0.375000X0.650000X0.375000X0*%
%ADD55RoundRect,0.125000X0.125000X-0.537500X0.125000X0.537500X-0.125000X0.537500X-0.125000X-0.537500X0*%
%ADD56RoundRect,0.237500X-0.237500X0.250000X-0.237500X-0.250000X0.237500X-0.250000X0.237500X0.250000X0*%
%ADD57RoundRect,0.237500X-0.250000X-0.237500X0.250000X-0.237500X0.250000X0.237500X-0.250000X0.237500X0*%
%ADD58RoundRect,0.225000X-0.250000X0.225000X-0.250000X-0.225000X0.250000X-0.225000X0.250000X0.225000X0*%
%ADD59R,0.800000X0.900000*%
G04 APERTURE END LIST*
D10*
%TO.C,R406*%
X43865800Y43584400D03*
X43865800Y44604400D03*
%TD*%
D11*
%TO.C,R407*%
X49765000Y42235000D03*
X50785000Y42235000D03*
%TD*%
D12*
%TO.C,U509*%
X77604500Y42504500D03*
X77604500Y41454500D03*
X78654500Y42504500D03*
X78654500Y41454500D03*
D13*
X76267000Y41004500D03*
X76267000Y41654500D03*
X76267000Y42304500D03*
X76267000Y42954500D03*
D14*
X77154500Y43842000D03*
X77804500Y43842000D03*
X78454500Y43842000D03*
X79104500Y43842000D03*
D13*
X79992000Y42954500D03*
X79992000Y42304500D03*
X79992000Y41654500D03*
X79992000Y41004500D03*
D14*
X79104500Y40117000D03*
X78454500Y40117000D03*
X77804500Y40117000D03*
X77154500Y40117000D03*
%TD*%
D15*
%TO.C,C201*%
X15527000Y73772600D03*
X17077000Y73772600D03*
%TD*%
D16*
%TO.C,R203*%
X23971000Y79172600D03*
X22146000Y79172600D03*
%TD*%
D17*
%TO.C,R201*%
X20508500Y75414500D03*
X20508500Y77239500D03*
%TD*%
D16*
%TO.C,R204*%
X17214500Y79172600D03*
X15389500Y79172600D03*
%TD*%
D17*
%TO.C,R202*%
X13752000Y75410100D03*
X13752000Y77235100D03*
%TD*%
D15*
%TO.C,C202*%
X22283500Y73772600D03*
X23833500Y73772600D03*
%TD*%
D18*
%TO.C,U401*%
X19438000Y60996400D03*
X19938000Y60996400D03*
X20438000Y60996400D03*
X20938000Y60996400D03*
X21438000Y60996400D03*
X21938000Y60996400D03*
X22438000Y60996400D03*
X22938000Y60996400D03*
X23438000Y60996400D03*
X23938000Y60996400D03*
X24438000Y60996400D03*
X24938000Y60996400D03*
X25438000Y60996400D03*
X25938000Y60996400D03*
X19438000Y61496400D03*
X19938000Y61496400D03*
X20438000Y61496400D03*
X20938000Y61496400D03*
X21438000Y61496400D03*
X21938000Y61496400D03*
X22438000Y61496400D03*
X22938000Y61496400D03*
X23438000Y61496400D03*
X23938000Y61496400D03*
X24438000Y61496400D03*
X24938000Y61496400D03*
X25438000Y61496400D03*
X25938000Y61496400D03*
X19438000Y61996400D03*
X19938000Y61996400D03*
X20438000Y61996400D03*
X20938000Y61996400D03*
X21438000Y61996400D03*
X21938000Y61996400D03*
X22438000Y61996400D03*
X22938000Y61996400D03*
X23438000Y61996400D03*
X23938000Y61996400D03*
X24438000Y61996400D03*
X24938000Y61996400D03*
X25438000Y61996400D03*
X25938000Y61996400D03*
X19438000Y62496400D03*
X19938000Y62496400D03*
X20438000Y62496400D03*
X20938000Y62496400D03*
X24938000Y62496400D03*
X25438000Y62496400D03*
X25938000Y62496400D03*
X19438000Y62996400D03*
X19938000Y62996400D03*
X20438000Y62996400D03*
X21438000Y62996400D03*
X21938000Y62996400D03*
X22438000Y62996400D03*
X22938000Y62996400D03*
X23438000Y62996400D03*
X23938000Y62996400D03*
X24938000Y62996400D03*
X25438000Y62996400D03*
X25938000Y62996400D03*
X19438000Y63496400D03*
X19938000Y63496400D03*
X20438000Y63496400D03*
X21438000Y63496400D03*
X23938000Y63496400D03*
X24938000Y63496400D03*
X25438000Y63496400D03*
X25938000Y63496400D03*
X19438000Y63996400D03*
X19938000Y63996400D03*
X20438000Y63996400D03*
X21438000Y63996400D03*
X23938000Y63996400D03*
X24938000Y63996400D03*
X25438000Y63996400D03*
X25938000Y63996400D03*
X19438000Y64496400D03*
X19938000Y64496400D03*
X20438000Y64496400D03*
X21438000Y64496400D03*
X23938000Y64496400D03*
X24938000Y64496400D03*
X25438000Y64496400D03*
X25938000Y64496400D03*
X19438000Y64996400D03*
X19938000Y64996400D03*
X20438000Y64996400D03*
X21438000Y64996400D03*
X23938000Y64996400D03*
X24938000Y64996400D03*
X25438000Y64996400D03*
X25938000Y64996400D03*
X19438000Y65496400D03*
X19938000Y65496400D03*
X20438000Y65496400D03*
X21438000Y65496400D03*
X21938000Y65496400D03*
X22438000Y65496400D03*
X22938000Y65496400D03*
X23438000Y65496400D03*
X23938000Y65496400D03*
X24938000Y65496400D03*
X25438000Y65496400D03*
X25938000Y65496400D03*
X19438000Y65996400D03*
X19938000Y65996400D03*
X20438000Y65996400D03*
X24938000Y65996400D03*
X25438000Y65996400D03*
X25938000Y65996400D03*
X19438000Y66496400D03*
X19938000Y66496400D03*
X20438000Y66496400D03*
X20938000Y66496400D03*
X21438000Y66496400D03*
X21938000Y66496400D03*
X22438000Y66496400D03*
X22938000Y66496400D03*
X23438000Y66496400D03*
X23938000Y66496400D03*
X24438000Y66496400D03*
X24938000Y66496400D03*
X25438000Y66496400D03*
X25938000Y66496400D03*
X19438000Y66996400D03*
X19938000Y66996400D03*
X20438000Y66996400D03*
X20938000Y66996400D03*
X21438000Y66996400D03*
X21938000Y66996400D03*
X22438000Y66996400D03*
X22938000Y66996400D03*
X23438000Y66996400D03*
X23938000Y66996400D03*
X24438000Y66996400D03*
X24938000Y66996400D03*
X25438000Y66996400D03*
X25938000Y66996400D03*
X19438000Y67496400D03*
X19938000Y67496400D03*
X20438000Y67496400D03*
X20938000Y67496400D03*
X21438000Y67496400D03*
X21938000Y67496400D03*
X22438000Y67496400D03*
X22938000Y67496400D03*
X23438000Y67496400D03*
X23938000Y67496400D03*
X24438000Y67496400D03*
X24938000Y67496400D03*
X25438000Y67496400D03*
X25938000Y67496400D03*
%TD*%
D19*
%TO.C,R508*%
X56772700Y78414900D03*
X58422700Y78414900D03*
%TD*%
D20*
%TO.C,R501*%
X56489600Y73978000D03*
X56489600Y75628000D03*
%TD*%
D21*
%TO.C,R502*%
X58102000Y72491600D03*
X56452000Y72491600D03*
%TD*%
%TO.C,R507*%
X61470700Y78414900D03*
X59820700Y78414900D03*
%TD*%
D22*
%TO.C,U501*%
X59688700Y75869900D03*
X58538700Y75869900D03*
X59688700Y75119900D03*
X58538700Y75119900D03*
D23*
X58138700Y76994900D03*
X58788700Y76994900D03*
X59438700Y76994900D03*
X60088700Y76994900D03*
X60088700Y73994900D03*
X59438700Y73994900D03*
X58788700Y73994900D03*
X58138700Y73994900D03*
%TD*%
D20*
%TO.C,R515*%
X61722000Y75273400D03*
X61722000Y76923400D03*
%TD*%
D24*
%TO.C,C402*%
X15613600Y61301200D03*
X14653600Y61301200D03*
%TD*%
D25*
%TO.C,C403*%
X29893600Y63638000D03*
X30853600Y63638000D03*
%TD*%
D26*
%TO.C,C404*%
X15133600Y68211800D03*
X15133600Y65261800D03*
%TD*%
D27*
%TO.C,C408*%
X58089800Y55471000D03*
X58089800Y54511000D03*
%TD*%
D25*
%TO.C,C406*%
X14425000Y69607000D03*
X15385000Y69607000D03*
%TD*%
D26*
%TO.C,C407*%
X30145000Y67959600D03*
X30145000Y65009600D03*
%TD*%
D27*
%TO.C,C409*%
X57658000Y43152000D03*
X57658000Y42192000D03*
%TD*%
D28*
%TO.C,C410*%
X42875200Y42651600D03*
X42875200Y43611600D03*
%TD*%
D24*
%TO.C,C412*%
X42880000Y56635000D03*
X41920000Y56635000D03*
%TD*%
D26*
%TO.C,C419*%
X60528200Y56593000D03*
X60528200Y53643000D03*
%TD*%
D29*
%TO.C,C420*%
X42300000Y58810000D03*
X45250000Y58810000D03*
%TD*%
D30*
%TO.C,FB401*%
X55659400Y45982100D03*
X55659400Y44407100D03*
%TD*%
D10*
%TO.C,R403*%
X26725000Y54800000D03*
X26725000Y55820000D03*
%TD*%
D31*
%TO.C,Y401*%
X46425800Y44002000D03*
X48925800Y44002000D03*
%TD*%
D25*
%TO.C,C418*%
X50820000Y47185000D03*
X51780000Y47185000D03*
%TD*%
D24*
%TO.C,C422*%
X49222600Y45702000D03*
X48262600Y45702000D03*
%TD*%
D32*
%TO.C,R405*%
X53390800Y45163200D03*
X53390800Y44143200D03*
%TD*%
D33*
%TO.C,C405*%
X57658000Y44549800D03*
X57658000Y47499800D03*
%TD*%
D27*
%TO.C,C411*%
X47726600Y41272400D03*
X47726600Y40312400D03*
%TD*%
D24*
%TO.C,C421*%
X47089000Y45702000D03*
X46129000Y45702000D03*
%TD*%
D27*
%TO.C,C413*%
X49758600Y41272400D03*
X49758600Y40312400D03*
%TD*%
%TO.C,C415*%
X48742600Y41272400D03*
X48742600Y40312400D03*
%TD*%
D15*
%TO.C,C531*%
X73088200Y42951400D03*
X74638200Y42951400D03*
%TD*%
D34*
%TO.C,D501*%
X61600600Y80270100D03*
X59725600Y80270100D03*
%TD*%
D24*
%TO.C,C1035*%
X55559900Y6629400D03*
X54599900Y6629400D03*
%TD*%
D11*
%TO.C,R1023*%
X51852100Y6540500D03*
X52872100Y6540500D03*
%TD*%
D32*
%TO.C,R1025*%
X51854100Y5577300D03*
X51854100Y4557300D03*
%TD*%
D10*
%TO.C,R1028*%
X74701400Y8814200D03*
X74701400Y9834200D03*
%TD*%
%TO.C,R1029*%
X75692000Y8814200D03*
X75692000Y9834200D03*
%TD*%
D32*
%TO.C,R703*%
X7315200Y34609500D03*
X7315200Y33589500D03*
%TD*%
D28*
%TO.C,C703*%
X7315200Y31689100D03*
X7315200Y32649100D03*
%TD*%
D35*
%TO.C,U703*%
X9237800Y32262600D03*
X9237800Y33062600D03*
D36*
X10125300Y33312600D03*
X10125300Y32662600D03*
X10125300Y32012600D03*
X8350300Y32012600D03*
X8350300Y32662600D03*
X8350300Y33312600D03*
%TD*%
D28*
%TO.C,C1011*%
X64452500Y13388400D03*
X64452500Y14348400D03*
%TD*%
D10*
%TO.C,R1010*%
X65963800Y16660400D03*
X65963800Y17680400D03*
%TD*%
D25*
%TO.C,C1010*%
X64480500Y12395200D03*
X65440500Y12395200D03*
%TD*%
D32*
%TO.C,R1006*%
X65468500Y14378400D03*
X65468500Y13358400D03*
%TD*%
D10*
%TO.C,R1012*%
X64947800Y16660400D03*
X64947800Y17680400D03*
%TD*%
D37*
%TO.C,U701*%
X73458700Y25007300D03*
X74258700Y25007300D03*
D38*
X74508700Y24119800D03*
X73858700Y24119800D03*
X73208700Y24119800D03*
X73208700Y25894800D03*
X73858700Y25894800D03*
X74508700Y25894800D03*
%TD*%
D25*
%TO.C,C701*%
X73053000Y27178000D03*
X74013000Y27178000D03*
%TD*%
D11*
%TO.C,R701*%
X73023000Y28168600D03*
X74043000Y28168600D03*
%TD*%
D39*
%TO.C,U1017*%
X85337200Y12747600D03*
X85987200Y12747600D03*
X86637200Y12747600D03*
X87287200Y12747600D03*
X87287200Y10007600D03*
X86637200Y10007600D03*
X85987200Y10007600D03*
X85337200Y10007600D03*
D40*
X86337600Y11377600D03*
%TD*%
D28*
%TO.C,C1054*%
X84350000Y10030000D03*
X84350000Y10990000D03*
%TD*%
D10*
%TO.C,R1032*%
X86944200Y14154620D03*
X86944200Y15174620D03*
%TD*%
D41*
%TO.C,U603*%
X56675400Y24931600D03*
X57175400Y24931600D03*
X57675400Y24931600D03*
X57675400Y23531600D03*
X56675400Y23531600D03*
%TD*%
D24*
%TO.C,C606*%
X55318600Y28956000D03*
X54358600Y28956000D03*
%TD*%
%TO.C,C604*%
X51661000Y34544000D03*
X50701000Y34544000D03*
%TD*%
D25*
%TO.C,C611*%
X42623800Y33248600D03*
X43583800Y33248600D03*
%TD*%
%TO.C,C605*%
X42623800Y32258000D03*
X43583800Y32258000D03*
%TD*%
%TO.C,C608*%
X43180200Y28448000D03*
X44140200Y28448000D03*
%TD*%
D42*
%TO.C,R1016*%
X67439000Y8890000D03*
X66419000Y8890000D03*
%TD*%
D11*
%TO.C,R1015*%
X66419000Y7899400D03*
X67439000Y7899400D03*
%TD*%
D28*
%TO.C,C1053*%
X79350000Y28338700D03*
X79350000Y29298700D03*
%TD*%
D10*
%TO.C,R1033*%
X82296000Y32052800D03*
X82296000Y33072800D03*
%TD*%
D43*
%TO.C,C1050*%
X78613000Y33081000D03*
X78613000Y31181000D03*
%TD*%
D39*
%TO.C,U1016*%
X80330600Y31080100D03*
X80980600Y31080100D03*
X81630600Y31080100D03*
X82280600Y31080100D03*
X82280600Y28340100D03*
X81630600Y28340100D03*
X80980600Y28340100D03*
X80330600Y28340100D03*
D40*
X81331000Y29710100D03*
%TD*%
D10*
%TO.C,R1030*%
X83350100Y32052800D03*
X83350100Y33072800D03*
%TD*%
%TO.C,R1031*%
X84416900Y32052800D03*
X84416900Y33072800D03*
%TD*%
D28*
%TO.C,C619*%
X53220000Y21320000D03*
X53220000Y22280000D03*
%TD*%
D27*
%TO.C,C616*%
X55499000Y24739400D03*
X55499000Y23779400D03*
%TD*%
D32*
%TO.C,R1022*%
X57023000Y6072600D03*
X57023000Y5052600D03*
%TD*%
%TO.C,R1024*%
X57023000Y8003000D03*
X57023000Y6983000D03*
%TD*%
D10*
%TO.C,R1021*%
X58013600Y5052600D03*
X58013600Y6072600D03*
%TD*%
D35*
%TO.C,U702*%
X68300000Y52700000D03*
X68300000Y53500000D03*
D36*
X69187500Y53750000D03*
X69187500Y53100000D03*
X69187500Y52450000D03*
X67412500Y52450000D03*
X67412500Y53100000D03*
X67412500Y53750000D03*
%TD*%
D28*
%TO.C,C702*%
X65350000Y52520000D03*
X65350000Y53480000D03*
%TD*%
D10*
%TO.C,R702*%
X64300000Y52490000D03*
X64300000Y53510000D03*
%TD*%
D20*
%TO.C,R513*%
X73152000Y49149500D03*
X73152000Y50799500D03*
%TD*%
D21*
%TO.C,R503*%
X78866500Y48641000D03*
X77216500Y48641000D03*
%TD*%
D19*
%TO.C,R504*%
X77216500Y47117000D03*
X78866500Y47117000D03*
%TD*%
D44*
%TO.C,R510*%
X73152000Y53847500D03*
X73152000Y52197500D03*
%TD*%
D45*
%TO.C,U502*%
X75825000Y52073500D03*
X75825000Y50923500D03*
X76575000Y52073500D03*
X76575000Y50923500D03*
D46*
X74700000Y50523500D03*
X74700000Y51173500D03*
X74700000Y51823500D03*
X74700000Y52473500D03*
X77700000Y52473500D03*
X77700000Y51823500D03*
X77700000Y51173500D03*
X77700000Y50523500D03*
%TD*%
D21*
%TO.C,R516*%
X76715000Y54016500D03*
X75065000Y54016500D03*
%TD*%
D32*
%TO.C,R509*%
X74752200Y48389000D03*
X74752200Y47369000D03*
%TD*%
D28*
%TO.C,C1034*%
X66941700Y11839000D03*
X66941700Y12799000D03*
%TD*%
%TO.C,C1048*%
X76133200Y11861800D03*
X76133200Y12821800D03*
%TD*%
D47*
%TO.C,U1003*%
X69854700Y10186200D03*
X69354700Y10186200D03*
X68854700Y10186200D03*
D48*
X68854700Y10936200D03*
X69354700Y10936200D03*
X69854700Y10936200D03*
%TD*%
D49*
%TO.C,U1009*%
X54775100Y4363100D03*
X54775100Y5238100D03*
D50*
X55675100Y5550600D03*
X55675100Y5050600D03*
X55675100Y4550600D03*
X55675100Y4050600D03*
X53875100Y4050600D03*
X53875100Y4550600D03*
X53875100Y5050600D03*
X53875100Y5550600D03*
%TD*%
D41*
%TO.C,U1014*%
X73990200Y12626800D03*
X74490200Y12626800D03*
X74990200Y12626800D03*
X74990200Y11226800D03*
X73990200Y11226800D03*
%TD*%
D47*
%TO.C,U1004*%
X67441700Y10186200D03*
X66941700Y10186200D03*
X66441700Y10186200D03*
D48*
X66441700Y10936200D03*
X66941700Y10936200D03*
X67441700Y10936200D03*
%TD*%
D28*
%TO.C,C1029*%
X70256400Y11839000D03*
X70256400Y12799000D03*
%TD*%
D51*
%TO.C,C1051*%
X83733600Y14690020D03*
X85633600Y14690020D03*
%TD*%
D52*
%TO.C,Q401*%
X31828500Y62012400D03*
X31828500Y60112400D03*
X29953500Y61062400D03*
%TD*%
D11*
%TO.C,R401*%
X29891000Y57669000D03*
X30911000Y57669000D03*
%TD*%
D42*
%TO.C,R402*%
X30911000Y58685000D03*
X29891000Y58685000D03*
%TD*%
%TO.C,R8*%
X23335000Y55585000D03*
X22315000Y55585000D03*
%TD*%
D53*
%TO.C,J1*%
X83800000Y74235000D03*
X83800000Y72735000D03*
X83800000Y71235000D03*
X83800000Y69735000D03*
D54*
X88990000Y76840000D03*
X88990000Y67130000D03*
%TD*%
D55*
%TO.C,U5*%
X24050000Y75262500D03*
X23400000Y75262500D03*
X22750000Y75262500D03*
X22100000Y75262500D03*
X22100000Y77537500D03*
X22750000Y77537500D03*
X23400000Y77537500D03*
X24050000Y77537500D03*
%TD*%
%TO.C,U4*%
X17300000Y75287500D03*
X16650000Y75287500D03*
X16000000Y75287500D03*
X15350000Y75287500D03*
X15350000Y77562500D03*
X16000000Y77562500D03*
X16650000Y77562500D03*
X17300000Y77562500D03*
%TD*%
D56*
%TO.C,R15*%
X87925000Y83312500D03*
X87925000Y81487500D03*
%TD*%
D57*
%TO.C,R16*%
X12262500Y5375000D03*
X14087500Y5375000D03*
%TD*%
D11*
%TO.C,R1*%
X82090000Y53000000D03*
X83110000Y53000000D03*
%TD*%
%TO.C,R9*%
X17790000Y55585000D03*
X18810000Y55585000D03*
%TD*%
%TO.C,R4*%
X17790000Y54560000D03*
X18810000Y54560000D03*
%TD*%
D15*
%TO.C,C19*%
X12400000Y3125000D03*
X13950000Y3125000D03*
%TD*%
D42*
%TO.C,R6*%
X23335000Y54560000D03*
X22315000Y54560000D03*
%TD*%
D58*
%TO.C,C18*%
X80375000Y83300000D03*
X80375000Y81750000D03*
%TD*%
D15*
%TO.C,C17*%
X12325000Y7525000D03*
X13875000Y7525000D03*
%TD*%
D28*
%TO.C,C2*%
X54400000Y44145000D03*
X54400000Y45105000D03*
%TD*%
D11*
%TO.C,R11*%
X27640000Y56785000D03*
X28660000Y56785000D03*
%TD*%
D59*
%TO.C,U404*%
X52025000Y45710000D03*
X52025000Y43860000D03*
X50575000Y43860000D03*
X50575000Y45710000D03*
%TD*%
D58*
%TO.C,C6*%
X89400000Y83200000D03*
X89400000Y81650000D03*
%TD*%
D15*
%TO.C,C21*%
X12425000Y850000D03*
X13975000Y850000D03*
%TD*%
D58*
%TO.C,C20*%
X82000000Y83300000D03*
X82000000Y81750000D03*
%TD*%
M02*
