G04 #@! TF.GenerationSoftware,KiCad,Pcbnew,7.0.0-da2b9df05c~171~ubuntu22.04.1*
G04 #@! TF.CreationDate,2023-04-06T22:28:54+03:00*
G04 #@! TF.ProjectId,satnogs-comms,7361746e-6f67-4732-9d63-6f6d6d732e6b,rev?*
G04 #@! TF.SameCoordinates,Original*
G04 #@! TF.FileFunction,Paste,Top*
G04 #@! TF.FilePolarity,Positive*
%FSLAX46Y46*%
G04 Gerber Fmt 4.6, Leading zero omitted, Abs format (unit mm)*
G04 Created by KiCad (PCBNEW 7.0.0-da2b9df05c~171~ubuntu22.04.1) date 2023-04-06 22:28:54*
%MOMM*%
%LPD*%
G01*
G04 APERTURE LIST*
G04 Aperture macros list*
%AMRoundRect*
0 Rectangle with rounded corners*
0 $1 Rounding radius*
0 $2 $3 $4 $5 $6 $7 $8 $9 X,Y pos of 4 corners*
0 Add a 4 corners polygon primitive as box body*
4,1,4,$2,$3,$4,$5,$6,$7,$8,$9,$2,$3,0*
0 Add four circle primitives for the rounded corners*
1,1,$1+$1,$2,$3*
1,1,$1+$1,$4,$5*
1,1,$1+$1,$6,$7*
1,1,$1+$1,$8,$9*
0 Add four rect primitives between the rounded corners*
20,1,$1+$1,$2,$3,$4,$5,0*
20,1,$1+$1,$4,$5,$6,$7,0*
20,1,$1+$1,$6,$7,$8,$9,0*
20,1,$1+$1,$8,$9,$2,$3,0*%
%AMRotRect*
0 Rectangle, with rotation*
0 The origin of the aperture is its center*
0 $1 length*
0 $2 width*
0 $3 Rotation angle, in degrees counterclockwise*
0 Add horizontal line*
21,1,$1,$2,0,0,$3*%
%AMFreePoly0*
4,1,7,1.500000,-0.775000,-1.500000,-0.775000,-1.500000,0.225000,-6.000000,0.225000,-6.000000,0.775000,1.500000,0.775000,1.500000,-0.775000,1.500000,-0.775000,$1*%
%AMFreePoly1*
4,1,8,1.500000,-0.775000,-1.500000,-0.775000,-6.000000,-0.775000,-6.000000,-0.225000,-1.500000,-0.225000,-1.500000,0.775000,1.500000,0.775000,1.500000,-0.775000,1.500000,-0.775000,$1*%
%AMFreePoly2*
4,1,6,0.125000,-0.099500,-0.013000,-0.237500,-0.125000,-0.237500,-0.125000,0.237500,0.125000,0.237500,0.125000,-0.099500,0.125000,-0.099500,$1*%
%AMFreePoly3*
4,1,6,0.125000,0.099500,0.125000,-0.237500,-0.125000,-0.237500,-0.125000,0.237500,-0.013000,0.237500,0.125000,0.099500,0.125000,0.099500,$1*%
%AMFreePoly4*
4,1,36,0.462941,0.544983,0.479174,0.544983,0.492307,0.535440,0.507748,0.530424,0.517290,0.517290,0.530424,0.507748,0.535440,0.492307,0.544983,0.479174,0.544983,0.462941,0.550000,0.447500,0.550000,-0.447500,0.544983,-0.462941,0.544983,-0.479174,0.535440,-0.492307,0.530424,-0.507748,0.517290,-0.517290,0.507748,-0.530424,0.492307,-0.535440,0.479174,-0.544983,0.462941,-0.544983,
0.447500,-0.550000,-0.447500,-0.550000,-0.462941,-0.544983,-0.479174,-0.544983,-0.492307,-0.535440,-0.507748,-0.530424,-0.517290,-0.517290,-0.530424,-0.507748,-0.535440,-0.492307,-0.544983,-0.479174,-0.544983,-0.462941,-0.550000,-0.447500,-0.550000,0.350000,-0.350000,0.550000,0.447500,0.550000,0.462941,0.544983,0.462941,0.544983,$1*%
%AMFreePoly5*
4,1,14,0.155252,0.089749,0.264749,-0.019748,0.275000,-0.044497,0.275000,-0.065000,0.264749,-0.089749,0.240000,-0.100000,-0.240000,-0.100000,-0.264749,-0.089749,-0.275000,-0.065000,-0.275000,0.065000,-0.264749,0.089749,-0.240000,0.100000,0.130503,0.100000,0.155252,0.089749,0.155252,0.089749,$1*%
%AMFreePoly6*
4,1,14,0.264749,0.089749,0.275000,0.065000,0.275000,0.044497,0.264749,0.019748,0.155252,-0.089749,0.130503,-0.100000,-0.240000,-0.100000,-0.264749,-0.089749,-0.275000,-0.065000,-0.275000,0.065000,-0.264749,0.089749,-0.240000,0.100000,0.240000,0.100000,0.264749,0.089749,0.264749,0.089749,$1*%
%AMFreePoly7*
4,1,14,0.089749,0.264749,0.100000,0.240000,0.100000,-0.240000,0.089749,-0.264749,0.065000,-0.275000,-0.065000,-0.275000,-0.089749,-0.264749,-0.100000,-0.240000,-0.100000,0.130503,-0.089749,0.155252,0.019748,0.264749,0.044497,0.275000,0.065000,0.275000,0.089749,0.264749,0.089749,0.264749,$1*%
%AMFreePoly8*
4,1,14,-0.019748,0.264749,0.089749,0.155252,0.100000,0.130503,0.100000,-0.240000,0.089749,-0.264749,0.065000,-0.275000,-0.065000,-0.275000,-0.089749,-0.264749,-0.100000,-0.240000,-0.100000,0.240000,-0.089749,0.264749,-0.065000,0.275000,-0.044497,0.275000,-0.019748,0.264749,-0.019748,0.264749,$1*%
%AMFreePoly9*
4,1,14,0.264749,0.089749,0.275000,0.065000,0.275000,-0.065000,0.264749,-0.089749,0.240000,-0.100000,-0.130503,-0.100000,-0.155252,-0.089749,-0.264749,0.019748,-0.275000,0.044497,-0.275000,0.065000,-0.264749,0.089749,-0.240000,0.100000,0.240000,0.100000,0.264749,0.089749,0.264749,0.089749,$1*%
%AMFreePoly10*
4,1,14,0.264749,0.089749,0.275000,0.065000,0.275000,-0.065000,0.264749,-0.089749,0.240000,-0.100000,-0.240000,-0.100000,-0.264749,-0.089749,-0.275000,-0.065000,-0.275000,-0.044497,-0.264749,-0.019747,-0.155252,0.089749,-0.130503,0.100000,0.240000,0.100000,0.264749,0.089749,0.264749,0.089749,$1*%
%AMFreePoly11*
4,1,14,0.089749,0.264749,0.100000,0.240000,0.100000,-0.130503,0.089749,-0.155252,-0.019748,-0.264749,-0.044497,-0.275000,-0.065000,-0.275000,-0.089749,-0.264749,-0.100000,-0.240000,-0.100000,0.240000,-0.089749,0.264749,-0.065000,0.275000,0.065000,0.275000,0.089749,0.264749,0.089749,0.264749,$1*%
%AMFreePoly12*
4,1,14,0.089749,0.264749,0.100000,0.240000,0.100000,-0.240000,0.089749,-0.264749,0.065000,-0.275000,0.044497,-0.275000,0.019748,-0.264749,-0.089749,-0.155252,-0.100000,-0.130503,-0.100000,0.240000,-0.089749,0.264749,-0.065000,0.275000,0.065000,0.275000,0.089749,0.264749,0.089749,0.264749,$1*%
G04 Aperture macros list end*
%ADD10RoundRect,0.243750X-0.243750X-0.456250X0.243750X-0.456250X0.243750X0.456250X-0.243750X0.456250X0*%
%ADD11RoundRect,0.243750X0.456250X-0.243750X0.456250X0.243750X-0.456250X0.243750X-0.456250X-0.243750X0*%
%ADD12R,2.350000X5.100000*%
%ADD13RoundRect,0.218750X0.256250X-0.218750X0.256250X0.218750X-0.256250X0.218750X-0.256250X-0.218750X0*%
%ADD14RoundRect,0.218750X-0.256250X0.218750X-0.256250X-0.218750X0.256250X-0.218750X0.256250X0.218750X0*%
%ADD15R,2.600000X1.100000*%
%ADD16FreePoly0,180.000000*%
%ADD17FreePoly1,180.000000*%
%ADD18RoundRect,0.147500X-0.147500X-0.172500X0.147500X-0.172500X0.147500X0.172500X-0.147500X0.172500X0*%
%ADD19RoundRect,0.147500X0.017678X-0.226274X0.226274X-0.017678X-0.017678X0.226274X-0.226274X0.017678X0*%
%ADD20FreePoly0,0.000000*%
%ADD21FreePoly1,0.000000*%
%ADD22RoundRect,0.147500X0.172500X-0.147500X0.172500X0.147500X-0.172500X0.147500X-0.172500X-0.147500X0*%
%ADD23RotRect,0.350000X1.000000X45.000000*%
%ADD24RotRect,0.350000X1.000000X315.000000*%
%ADD25RoundRect,0.147500X-0.017678X0.226274X-0.226274X0.017678X0.017678X-0.226274X0.226274X-0.017678X0*%
%ADD26FreePoly2,270.000000*%
%ADD27R,0.475000X0.250000*%
%ADD28FreePoly3,90.000000*%
%ADD29FreePoly2,0.000000*%
%ADD30R,0.250000X0.475000*%
%ADD31FreePoly3,180.000000*%
%ADD32FreePoly2,90.000000*%
%ADD33FreePoly3,270.000000*%
%ADD34FreePoly2,180.000000*%
%ADD35FreePoly3,0.000000*%
%ADD36FreePoly4,180.000000*%
%ADD37RoundRect,0.140000X-0.180000X0.140000X-0.180000X-0.140000X0.180000X-0.140000X0.180000X0.140000X0*%
%ADD38RoundRect,0.062500X-0.062500X0.325000X-0.062500X-0.325000X0.062500X-0.325000X0.062500X0.325000X0*%
%ADD39RoundRect,0.147500X0.147500X0.172500X-0.147500X0.172500X-0.147500X-0.172500X0.147500X-0.172500X0*%
%ADD40R,0.750000X0.400000*%
%ADD41RoundRect,0.147500X-0.172500X0.147500X-0.172500X-0.147500X0.172500X-0.147500X0.172500X0.147500X0*%
%ADD42RoundRect,0.075000X0.075000X-0.725000X0.075000X0.725000X-0.075000X0.725000X-0.075000X-0.725000X0*%
%ADD43RoundRect,0.075000X0.725000X-0.075000X0.725000X0.075000X-0.725000X0.075000X-0.725000X-0.075000X0*%
%ADD44R,2.370000X2.430000*%
%ADD45R,1.060000X0.650000*%
%ADD46R,0.330000X0.410000*%
%ADD47RoundRect,0.140000X-0.140000X-0.170000X0.140000X-0.170000X0.140000X0.170000X-0.140000X0.170000X0*%
%ADD48RoundRect,0.218750X0.218750X0.256250X-0.218750X0.256250X-0.218750X-0.256250X0.218750X-0.256250X0*%
%ADD49RoundRect,0.225000X-0.250000X0.225000X-0.250000X-0.225000X0.250000X-0.225000X0.250000X0.225000X0*%
%ADD50RotRect,0.750000X0.400000X135.000000*%
%ADD51RotRect,0.750000X0.400000X315.000000*%
%ADD52RoundRect,0.250000X-0.335000X-0.335000X0.335000X-0.335000X0.335000X0.335000X-0.335000X0.335000X0*%
%ADD53RoundRect,0.062500X-0.350000X-0.062500X0.350000X-0.062500X0.350000X0.062500X-0.350000X0.062500X0*%
%ADD54RoundRect,0.062500X-0.062500X-0.350000X0.062500X-0.350000X0.062500X0.350000X-0.062500X0.350000X0*%
%ADD55RoundRect,0.075000X0.075000X0.075000X-0.075000X0.075000X-0.075000X-0.075000X0.075000X-0.075000X0*%
%ADD56FreePoly5,180.000000*%
%ADD57RoundRect,0.050000X0.225000X0.050000X-0.225000X0.050000X-0.225000X-0.050000X0.225000X-0.050000X0*%
%ADD58FreePoly6,180.000000*%
%ADD59FreePoly7,180.000000*%
%ADD60RoundRect,0.050000X0.050000X0.225000X-0.050000X0.225000X-0.050000X-0.225000X0.050000X-0.225000X0*%
%ADD61FreePoly8,180.000000*%
%ADD62FreePoly9,180.000000*%
%ADD63FreePoly10,180.000000*%
%ADD64FreePoly11,180.000000*%
%ADD65FreePoly12,180.000000*%
%ADD66R,0.740000X0.740000*%
%ADD67RotRect,0.350000X1.000000X135.000000*%
%ADD68RoundRect,0.250000X0.315000X-0.315000X0.315000X0.315000X-0.315000X0.315000X-0.315000X-0.315000X0*%
%ADD69RoundRect,0.062500X0.062500X-0.375000X0.062500X0.375000X-0.062500X0.375000X-0.062500X-0.375000X0*%
%ADD70RoundRect,0.062500X0.375000X-0.062500X0.375000X0.062500X-0.375000X0.062500X-0.375000X-0.062500X0*%
%ADD71R,0.550000X0.500000*%
%ADD72RoundRect,0.240000X0.240000X-0.240000X0.240000X0.240000X-0.240000X0.240000X-0.240000X-0.240000X0*%
%ADD73RoundRect,0.140000X-0.170000X0.140000X-0.170000X-0.140000X0.170000X-0.140000X0.170000X0.140000X0*%
%ADD74RoundRect,0.140000X0.140000X0.170000X-0.140000X0.170000X-0.140000X-0.170000X0.140000X-0.170000X0*%
%ADD75RoundRect,0.135000X-0.185000X0.135000X-0.185000X-0.135000X0.185000X-0.135000X0.185000X0.135000X0*%
%ADD76RoundRect,0.135000X0.185000X-0.135000X0.185000X0.135000X-0.185000X0.135000X-0.185000X-0.135000X0*%
%ADD77RoundRect,0.135000X0.135000X0.185000X-0.135000X0.185000X-0.135000X-0.185000X0.135000X-0.185000X0*%
%ADD78R,0.500000X0.400000*%
%ADD79R,0.500000X0.300000*%
%ADD80RoundRect,0.227500X-0.227500X-0.227500X0.227500X-0.227500X0.227500X0.227500X-0.227500X0.227500X0*%
%ADD81RoundRect,0.075000X-0.350000X-0.075000X0.350000X-0.075000X0.350000X0.075000X-0.350000X0.075000X0*%
%ADD82RoundRect,0.075000X-0.075000X-0.350000X0.075000X-0.350000X0.075000X0.350000X-0.075000X0.350000X0*%
%ADD83RoundRect,0.250000X0.450000X-0.262500X0.450000X0.262500X-0.450000X0.262500X-0.450000X-0.262500X0*%
%ADD84R,0.300000X0.350000*%
%ADD85RoundRect,0.250000X-0.475000X0.250000X-0.475000X-0.250000X0.475000X-0.250000X0.475000X0.250000X0*%
%ADD86RoundRect,0.250000X-0.250000X-0.475000X0.250000X-0.475000X0.250000X0.475000X-0.250000X0.475000X0*%
%ADD87RoundRect,0.140000X0.170000X-0.140000X0.170000X0.140000X-0.170000X0.140000X-0.170000X-0.140000X0*%
%ADD88R,0.410000X0.720000*%
%ADD89R,1.730000X3.990000*%
%ADD90R,0.470000X0.410000*%
%ADD91R,0.585000X0.510000*%
%ADD92R,0.600000X0.770000*%
%ADD93R,0.770000X0.600000*%
%ADD94R,2.875000X2.875000*%
%ADD95RoundRect,0.135000X-0.135000X-0.185000X0.135000X-0.185000X0.135000X0.185000X-0.135000X0.185000X0*%
%ADD96R,3.400000X1.800000*%
%ADD97RoundRect,0.189500X0.758000X1.060500X-0.758000X1.060500X-0.758000X-1.060500X0.758000X-1.060500X0*%
%ADD98RoundRect,0.050000X0.275000X-0.050000X0.275000X0.050000X-0.275000X0.050000X-0.275000X-0.050000X0*%
%ADD99RoundRect,0.050000X0.450000X-0.050000X0.450000X0.050000X-0.450000X0.050000X-0.450000X-0.050000X0*%
%ADD100RoundRect,0.062500X0.062500X0.212500X-0.062500X0.212500X-0.062500X-0.212500X0.062500X-0.212500X0*%
%ADD101RoundRect,0.062500X-0.062500X-0.212500X0.062500X-0.212500X0.062500X0.212500X-0.062500X0.212500X0*%
%ADD102RoundRect,0.250000X0.250000X0.475000X-0.250000X0.475000X-0.250000X-0.475000X0.250000X-0.475000X0*%
%ADD103RoundRect,0.218750X-0.218750X-0.381250X0.218750X-0.381250X0.218750X0.381250X-0.218750X0.381250X0*%
%ADD104R,1.550000X0.350000*%
%ADD105R,1.550000X0.230000*%
%ADD106R,0.400000X0.500000*%
%ADD107R,0.300000X0.500000*%
%ADD108R,1.700000X0.810000*%
%ADD109R,1.050000X0.810000*%
%ADD110R,0.330000X0.270000*%
%ADD111RoundRect,0.172500X-0.172500X0.262500X-0.172500X-0.262500X0.172500X-0.262500X0.172500X0.262500X0*%
%ADD112RoundRect,0.093750X-0.106250X0.093750X-0.106250X-0.093750X0.106250X-0.093750X0.106250X0.093750X0*%
%ADD113R,1.000000X0.350000*%
%ADD114R,0.350000X1.000000*%
%ADD115RoundRect,0.189500X-1.060500X0.758000X-1.060500X-0.758000X1.060500X-0.758000X1.060500X0.758000X0*%
%ADD116RoundRect,0.050000X-0.050000X-0.275000X0.050000X-0.275000X0.050000X0.275000X-0.050000X0.275000X0*%
%ADD117RoundRect,0.050000X-0.050000X-0.450000X0.050000X-0.450000X0.050000X0.450000X-0.050000X0.450000X0*%
%ADD118RoundRect,0.062500X0.212500X-0.062500X0.212500X0.062500X-0.212500X0.062500X-0.212500X-0.062500X0*%
%ADD119RoundRect,0.062500X-0.212500X0.062500X-0.212500X-0.062500X0.212500X-0.062500X0.212500X0.062500X0*%
G04 APERTURE END LIST*
D10*
X144728000Y-64531700D03*
X146603000Y-64531700D03*
X144728000Y-62631700D03*
X146603000Y-62631700D03*
X145341100Y-56813700D03*
X147216100Y-56813700D03*
D11*
X138755500Y-65669200D03*
X138755500Y-63794200D03*
X136804400Y-65669200D03*
X136804400Y-63794200D03*
D12*
X142430499Y-59731699D03*
X138280499Y-59731699D03*
D13*
X148844000Y-62077700D03*
X148844000Y-60502700D03*
D14*
X150393400Y-60502800D03*
X150393400Y-62077800D03*
D15*
X164554999Y-118008399D03*
D16*
X164755000Y-119533400D03*
D17*
X164755000Y-116483400D03*
D18*
X147929600Y-116992400D03*
X148899600Y-116992400D03*
X145209400Y-114020600D03*
X146179400Y-114020600D03*
D19*
X147332653Y-113550700D03*
X148018547Y-112864806D03*
D11*
X138750000Y-73708500D03*
X138750000Y-71833500D03*
X140731200Y-73708500D03*
X140731200Y-71833500D03*
X163754500Y-97178000D03*
X163754500Y-95303000D03*
X165704500Y-97178000D03*
X165704500Y-95303000D03*
D15*
X90703399Y-118008399D03*
D20*
X90503400Y-116483400D03*
D21*
X90503400Y-119533400D03*
D18*
X88255900Y-109448800D03*
X89225900Y-109448800D03*
X156766400Y-112369600D03*
X157736400Y-112369600D03*
D22*
X149174200Y-111508400D03*
X149174200Y-110538400D03*
D23*
X159246322Y-115235983D03*
X158786703Y-115695603D03*
X158327083Y-116155222D03*
D24*
X158574571Y-117180527D03*
D23*
X159599876Y-117428015D03*
X160059495Y-116968395D03*
X160519115Y-116508776D03*
D24*
X160271627Y-115483471D03*
D25*
X161404347Y-118427453D03*
X160718453Y-119113347D03*
D22*
X155501340Y-119989600D03*
X155501340Y-119019600D03*
D26*
X158925100Y-119994300D03*
D27*
X158925099Y-119494299D03*
D28*
X158925100Y-118994300D03*
D29*
X158462600Y-118531800D03*
D30*
X157962599Y-118531799D03*
D31*
X157462600Y-118531800D03*
D32*
X157000100Y-118994300D03*
D27*
X157000099Y-119494299D03*
D33*
X157000100Y-119994300D03*
D34*
X157462600Y-120456800D03*
D30*
X157962599Y-120456799D03*
D35*
X158462600Y-120456800D03*
D36*
X157962600Y-119494300D03*
D18*
X160548600Y-128879600D03*
X161518600Y-128879600D03*
D37*
X160064400Y-126720600D03*
X159264400Y-126720600D03*
D38*
X160414400Y-125758100D03*
X159914400Y-125758100D03*
X159414400Y-125758100D03*
X158914400Y-125758100D03*
X158914400Y-127683100D03*
X159414400Y-127683100D03*
X159914400Y-127683100D03*
X160414400Y-127683100D03*
D22*
X162534600Y-127635000D03*
X162534600Y-126665000D03*
X161505900Y-127635000D03*
X161505900Y-126665000D03*
D18*
X88253500Y-108432800D03*
X89223500Y-108432800D03*
D39*
X89225900Y-110464800D03*
X88255900Y-110464800D03*
X94035000Y-118035000D03*
X93065000Y-118035000D03*
D25*
X141363700Y-114376200D03*
X140677806Y-115062094D03*
D11*
X156000000Y-97178000D03*
X156000000Y-95303000D03*
D40*
X144180199Y-114026899D03*
X144180199Y-113226899D03*
X142230199Y-113226899D03*
X142230199Y-114026899D03*
D39*
X145544400Y-116992400D03*
X144574400Y-116992400D03*
D22*
X146750900Y-117985400D03*
X146750900Y-117015400D03*
D18*
X96441400Y-103632000D03*
X97411400Y-103632000D03*
D14*
X148844000Y-56819700D03*
X148844000Y-58394700D03*
D41*
X160769300Y-113357800D03*
X160769300Y-114327800D03*
D18*
X159052400Y-112382300D03*
X160022400Y-112382300D03*
D41*
X157734000Y-113357800D03*
X157734000Y-114327800D03*
D42*
X126842000Y-96194000D03*
X127342000Y-96194000D03*
X127842000Y-96194000D03*
X128342000Y-96194000D03*
X128842000Y-96194000D03*
X129342000Y-96194000D03*
X129842000Y-96194000D03*
X130342000Y-96194000D03*
X130842000Y-96194000D03*
X131342000Y-96194000D03*
X131842000Y-96194000D03*
X132342000Y-96194000D03*
X132842000Y-96194000D03*
X133342000Y-96194000D03*
X133842000Y-96194000D03*
X134342000Y-96194000D03*
X134842000Y-96194000D03*
X135342000Y-96194000D03*
X135842000Y-96194000D03*
X136342000Y-96194000D03*
X136842000Y-96194000D03*
X137342000Y-96194000D03*
X137842000Y-96194000D03*
X138342000Y-96194000D03*
X138842000Y-96194000D03*
D43*
X140517000Y-94519000D03*
X140517000Y-94019000D03*
X140517000Y-93519000D03*
X140517000Y-93019000D03*
X140517000Y-92519000D03*
X140517000Y-92019000D03*
X140517000Y-91519000D03*
X140517000Y-91019000D03*
X140517000Y-90519000D03*
X140517000Y-90019000D03*
X140517000Y-89519000D03*
X140517000Y-89019000D03*
X140517000Y-88519000D03*
X140517000Y-88019000D03*
X140517000Y-87519000D03*
X140517000Y-87019000D03*
X140517000Y-86519000D03*
X140517000Y-86019000D03*
X140517000Y-85519000D03*
X140517000Y-85019000D03*
X140517000Y-84519000D03*
X140517000Y-84019000D03*
X140517000Y-83519000D03*
X140517000Y-83019000D03*
X140517000Y-82519000D03*
D42*
X138842000Y-80844000D03*
X138342000Y-80844000D03*
X137842000Y-80844000D03*
X137342000Y-80844000D03*
X136842000Y-80844000D03*
X136342000Y-80844000D03*
X135842000Y-80844000D03*
X135342000Y-80844000D03*
X134842000Y-80844000D03*
X134342000Y-80844000D03*
X133842000Y-80844000D03*
X133342000Y-80844000D03*
X132842000Y-80844000D03*
X132342000Y-80844000D03*
X131842000Y-80844000D03*
X131342000Y-80844000D03*
X130842000Y-80844000D03*
X130342000Y-80844000D03*
X129842000Y-80844000D03*
X129342000Y-80844000D03*
X128842000Y-80844000D03*
X128342000Y-80844000D03*
X127842000Y-80844000D03*
X127342000Y-80844000D03*
X126842000Y-80844000D03*
D43*
X125167000Y-82519000D03*
X125167000Y-83019000D03*
X125167000Y-83519000D03*
X125167000Y-84019000D03*
X125167000Y-84519000D03*
X125167000Y-85019000D03*
X125167000Y-85519000D03*
X125167000Y-86019000D03*
X125167000Y-86519000D03*
X125167000Y-87019000D03*
X125167000Y-87519000D03*
X125167000Y-88019000D03*
X125167000Y-88519000D03*
X125167000Y-89019000D03*
X125167000Y-89519000D03*
X125167000Y-90019000D03*
X125167000Y-90519000D03*
X125167000Y-91019000D03*
X125167000Y-91519000D03*
X125167000Y-92019000D03*
X125167000Y-92519000D03*
X125167000Y-93019000D03*
X125167000Y-93519000D03*
X125167000Y-94019000D03*
X125167000Y-94519000D03*
D44*
X157249999Y-105299999D03*
X163489999Y-105299999D03*
D39*
X148899600Y-118008400D03*
X147929600Y-118008400D03*
D22*
X146126200Y-122252600D03*
X146126200Y-121282600D03*
X167182800Y-97462200D03*
X167182800Y-96492200D03*
D39*
X161089200Y-98907600D03*
X160119200Y-98907600D03*
D45*
X144855499Y-58875699D03*
X144855499Y-59825699D03*
X144855499Y-60775699D03*
X147055499Y-60775699D03*
X147055499Y-59825699D03*
X147055499Y-58875699D03*
D46*
X107304999Y-105634999D03*
X107304999Y-106284999D03*
X107304999Y-106934999D03*
X108294999Y-106934999D03*
X108294999Y-106284999D03*
X108294999Y-105634999D03*
D47*
X144808000Y-131381500D03*
X145768000Y-131381500D03*
D41*
X129108200Y-112291000D03*
X129108200Y-113261000D03*
D22*
X130378200Y-113258600D03*
X130378200Y-112288600D03*
X159918400Y-130914000D03*
X159918400Y-129944000D03*
D48*
X169214900Y-111970600D03*
X167639900Y-111970600D03*
X168934900Y-107570600D03*
X167359900Y-107570600D03*
D41*
X155130500Y-123088400D03*
X155130500Y-124058400D03*
D18*
X154137500Y-121996200D03*
X155107500Y-121996200D03*
X154137500Y-125082300D03*
X155107500Y-125082300D03*
D41*
X154114500Y-123088400D03*
X154114500Y-124058400D03*
D39*
X155107500Y-120929400D03*
X154137500Y-120929400D03*
D49*
X149110700Y-125209000D03*
X149110700Y-126759000D03*
D50*
X142392585Y-131109171D03*
X142958271Y-130543485D03*
X141579413Y-129164627D03*
D51*
X141013727Y-129730313D03*
D52*
X152759700Y-111457300D03*
X152759700Y-112807300D03*
X154109700Y-111457300D03*
X154109700Y-112807300D03*
D53*
X151472200Y-110882300D03*
X151472200Y-111382300D03*
X151472200Y-111882300D03*
X151472200Y-112382300D03*
X151472200Y-112882300D03*
X151472200Y-113382300D03*
D54*
X152184700Y-114094800D03*
X152684700Y-114094800D03*
X153184700Y-114094800D03*
X153684700Y-114094800D03*
X154184700Y-114094800D03*
X154684700Y-114094800D03*
D53*
X155397200Y-113382300D03*
X155397200Y-112882300D03*
X155397200Y-112382300D03*
X155397200Y-111882300D03*
X155397200Y-111382300D03*
X155397200Y-110882300D03*
D54*
X154684700Y-110169800D03*
X154184700Y-110169800D03*
X153684700Y-110169800D03*
X153184700Y-110169800D03*
X152684700Y-110169800D03*
X152184700Y-110169800D03*
D22*
X153810000Y-106815000D03*
X153810000Y-105845000D03*
D18*
X150800000Y-108750100D03*
X151770000Y-108750100D03*
X158035000Y-109040000D03*
X159005000Y-109040000D03*
X158035000Y-108040000D03*
X159005000Y-108040000D03*
D39*
X159004000Y-110070900D03*
X158034000Y-110070900D03*
D22*
X153810000Y-108758100D03*
X153810000Y-107788100D03*
X150800000Y-107711100D03*
X150800000Y-106741100D03*
D41*
X152768600Y-105845000D03*
X152768600Y-106815000D03*
D22*
X150800000Y-105780700D03*
X150800000Y-104810700D03*
D25*
X140652547Y-113677653D03*
X139966653Y-114363547D03*
D55*
X137927080Y-115960320D03*
X137927080Y-115590320D03*
X137557080Y-115960320D03*
X137557080Y-115590320D03*
D56*
X138617080Y-116375320D03*
D57*
X138617080Y-115975320D03*
X138617080Y-115575320D03*
D58*
X138617080Y-115175320D03*
D59*
X138142080Y-114900320D03*
D60*
X137742080Y-114900320D03*
D61*
X137342080Y-114900320D03*
D62*
X136867080Y-115175320D03*
D57*
X136867080Y-115575320D03*
X136867080Y-115975320D03*
D63*
X136867080Y-116375320D03*
D64*
X137342080Y-116650320D03*
D60*
X137742080Y-116650320D03*
D65*
X138142080Y-116650320D03*
D66*
X137742079Y-115775319D03*
D41*
X132918200Y-112288600D03*
X132918200Y-113258600D03*
X134188200Y-112291000D03*
X134188200Y-113261000D03*
D67*
X158161983Y-122630176D03*
X158621603Y-123089795D03*
X159081222Y-123549415D03*
D23*
X160106527Y-123301927D03*
D67*
X160354015Y-122276622D03*
X159894395Y-121817003D03*
X159434776Y-121357383D03*
D23*
X158409471Y-121604871D03*
D18*
X125727600Y-108712000D03*
X126697600Y-108712000D03*
D22*
X138125000Y-107210000D03*
X138125000Y-106240000D03*
D39*
X137873600Y-108200000D03*
X136903600Y-108200000D03*
D18*
X139443600Y-102412800D03*
X140413600Y-102412800D03*
D68*
X129560900Y-108754600D03*
X130960900Y-108754600D03*
X132360900Y-108754600D03*
X133760900Y-108754600D03*
X129560900Y-107354600D03*
X130960900Y-107354600D03*
X132360900Y-107354600D03*
X133760900Y-107354600D03*
X129560900Y-105954600D03*
X130960900Y-105954600D03*
X132360900Y-105954600D03*
X133760900Y-105954600D03*
X129560900Y-104554600D03*
X130960900Y-104554600D03*
X132360900Y-104554600D03*
X133760900Y-104554600D03*
D69*
X128910900Y-110092100D03*
X129410900Y-110092100D03*
X129910900Y-110092100D03*
X130410900Y-110092100D03*
X130910900Y-110092100D03*
X131410900Y-110092100D03*
X131910900Y-110092100D03*
X132410900Y-110092100D03*
X132910900Y-110092100D03*
X133410900Y-110092100D03*
X133910900Y-110092100D03*
X134410900Y-110092100D03*
D70*
X135098400Y-109404600D03*
X135098400Y-108904600D03*
X135098400Y-108404600D03*
X135098400Y-107904600D03*
X135098400Y-107404600D03*
X135098400Y-106904600D03*
X135098400Y-106404600D03*
X135098400Y-105904600D03*
X135098400Y-105404600D03*
X135098400Y-104904600D03*
X135098400Y-104404600D03*
X135098400Y-103904600D03*
D69*
X134410900Y-103217100D03*
X133910900Y-103217100D03*
X133410900Y-103217100D03*
X132910900Y-103217100D03*
X132410900Y-103217100D03*
X131910900Y-103217100D03*
X131410900Y-103217100D03*
X130910900Y-103217100D03*
X130410900Y-103217100D03*
X129910900Y-103217100D03*
X129410900Y-103217100D03*
X128910900Y-103217100D03*
D70*
X128223400Y-103904600D03*
X128223400Y-104404600D03*
X128223400Y-104904600D03*
X128223400Y-105404600D03*
X128223400Y-105904600D03*
X128223400Y-106404600D03*
X128223400Y-106904600D03*
X128223400Y-107404600D03*
X128223400Y-107904600D03*
X128223400Y-108404600D03*
X128223400Y-108904600D03*
X128223400Y-109404600D03*
D22*
X137100000Y-107210000D03*
X137100000Y-106240000D03*
X140385800Y-107215800D03*
X140385800Y-106245800D03*
D39*
X137391000Y-103378000D03*
X136421000Y-103378000D03*
D71*
X139453599Y-103643199D03*
X139453599Y-105043199D03*
X140403599Y-105043199D03*
X140403599Y-103643199D03*
D39*
X137873600Y-105250000D03*
X136903600Y-105250000D03*
D18*
X136903600Y-109194600D03*
X137873600Y-109194600D03*
D39*
X160886000Y-124510800D03*
X159916000Y-124510800D03*
X137541000Y-126098300D03*
X136571000Y-126098300D03*
X145112600Y-121250000D03*
X144142600Y-121250000D03*
D41*
X140157200Y-118638600D03*
X140157200Y-119608600D03*
D18*
X136550400Y-121970800D03*
X137520400Y-121970800D03*
D39*
X137541000Y-127139700D03*
X136571000Y-127139700D03*
D41*
X140195300Y-127048400D03*
X140195300Y-128018400D03*
D39*
X145125300Y-124904500D03*
X144155300Y-124904500D03*
D18*
X144574400Y-118008400D03*
X145544400Y-118008400D03*
D41*
X135557400Y-126134000D03*
X135557400Y-127104000D03*
D72*
X140124800Y-124396500D03*
X141274800Y-124396500D03*
X140124800Y-123246500D03*
X141274800Y-123246500D03*
D69*
X139449800Y-125759000D03*
X139949800Y-125759000D03*
X140449800Y-125759000D03*
X140949800Y-125759000D03*
X141449800Y-125759000D03*
X141949800Y-125759000D03*
D70*
X142637300Y-125071500D03*
X142637300Y-124571500D03*
X142637300Y-124071500D03*
X142637300Y-123571500D03*
X142637300Y-123071500D03*
X142637300Y-122571500D03*
D69*
X141949800Y-121884000D03*
X141449800Y-121884000D03*
X140949800Y-121884000D03*
X140449800Y-121884000D03*
X139949800Y-121884000D03*
X139449800Y-121884000D03*
D70*
X138762300Y-122571500D03*
X138762300Y-123071500D03*
X138762300Y-123571500D03*
X138762300Y-124071500D03*
X138762300Y-124571500D03*
X138762300Y-125071500D03*
D22*
X135559800Y-120517780D03*
X135559800Y-119547780D03*
D18*
X135519300Y-124622560D03*
X136489300Y-124622560D03*
D22*
X141224000Y-119608600D03*
X141224000Y-118638600D03*
D18*
X137614800Y-119524780D03*
X138584800Y-119524780D03*
D39*
X138584800Y-120540780D03*
X137614800Y-120540780D03*
X145125300Y-125920500D03*
X144155300Y-125920500D03*
X145125300Y-123888500D03*
X144155300Y-123888500D03*
X137520400Y-122986800D03*
X136550400Y-122986800D03*
D41*
X135562200Y-121993800D03*
X135562200Y-122963800D03*
D22*
X141211300Y-128018400D03*
X141211300Y-127048400D03*
X136575800Y-120517780D03*
X136575800Y-119547780D03*
D39*
X145110700Y-122250000D03*
X144140700Y-122250000D03*
D18*
X149171800Y-112610900D03*
X150141800Y-112610900D03*
X144142600Y-128066800D03*
X145112600Y-128066800D03*
X144140200Y-127025400D03*
X145110200Y-127025400D03*
D22*
X146113500Y-128031100D03*
X146113500Y-127061100D03*
D41*
X156756100Y-110068500D03*
X156756100Y-111038500D03*
D13*
X155170000Y-108507500D03*
X155170000Y-106932500D03*
D73*
X158292800Y-73002200D03*
X158292800Y-73962200D03*
D74*
X154988200Y-63800000D03*
X154028200Y-63800000D03*
D75*
X86309200Y-67892200D03*
X86309200Y-68912200D03*
D76*
X86309200Y-73408000D03*
X86309200Y-72388000D03*
X86309200Y-70918800D03*
X86309200Y-69898800D03*
D77*
X135688800Y-100711000D03*
X134668800Y-100711000D03*
X133682200Y-100711000D03*
X132662200Y-100711000D03*
D75*
X125196600Y-102995000D03*
X125196600Y-104015000D03*
D78*
X125610999Y-105904599D03*
D79*
X125610999Y-106404599D03*
X125610999Y-106904599D03*
D78*
X125610999Y-107404599D03*
X126610999Y-107404599D03*
D79*
X126610999Y-106904599D03*
X126610999Y-106404599D03*
D78*
X126610999Y-105904599D03*
D73*
X164225000Y-83655000D03*
X164225000Y-84615000D03*
D80*
X150071600Y-121141000D03*
X150071600Y-122191000D03*
X151121600Y-121141000D03*
X151121600Y-122191000D03*
D81*
X148646600Y-120691000D03*
X148646600Y-121341000D03*
X148646600Y-121991000D03*
X148646600Y-122641000D03*
D82*
X149621600Y-123616000D03*
X150271600Y-123616000D03*
X150921600Y-123616000D03*
X151571600Y-123616000D03*
D81*
X152546600Y-122641000D03*
X152546600Y-121991000D03*
X152546600Y-121341000D03*
X152546600Y-120691000D03*
D82*
X151571600Y-119716000D03*
X150921600Y-119716000D03*
X150271600Y-119716000D03*
X149621600Y-119716000D03*
D83*
X157992700Y-97153000D03*
X157992700Y-95328000D03*
D84*
X103289999Y-103629999D03*
X102789999Y-103629999D03*
X103289999Y-102909999D03*
X102789999Y-102909999D03*
D85*
X144900000Y-73960000D03*
X144900000Y-75860000D03*
D41*
X151350000Y-82992500D03*
X151350000Y-83962500D03*
D86*
X97119400Y-112623600D03*
X99019400Y-112623600D03*
D41*
X148082000Y-83690600D03*
X148082000Y-84660600D03*
D87*
X97129600Y-111122400D03*
X97129600Y-110162400D03*
D88*
X154508199Y-71068199D03*
X155778199Y-71068199D03*
X157048199Y-71068199D03*
X158318199Y-71068199D03*
D89*
X155298199Y-67273199D03*
X157528199Y-67273199D03*
D90*
X158628199Y-65482199D03*
X154198199Y-65482199D03*
D91*
X154141199Y-68275199D03*
X158685199Y-68275199D03*
D92*
X94199999Y-106509999D03*
X93399999Y-106509999D03*
X92599999Y-106509999D03*
X91799999Y-106509999D03*
D93*
X90684999Y-107624999D03*
X90684999Y-108424999D03*
X90684999Y-109224999D03*
X90684999Y-110024999D03*
D92*
X91799999Y-111139999D03*
X92599999Y-111139999D03*
X93399999Y-111139999D03*
X94199999Y-111139999D03*
D93*
X95314999Y-110024999D03*
X95314999Y-109224999D03*
X95314999Y-108424999D03*
X95314999Y-107624999D03*
D94*
X92999999Y-108824999D03*
D95*
X152465000Y-73035000D03*
X153485000Y-73035000D03*
D96*
X153466799Y-116179599D03*
D97*
X150020000Y-70360000D03*
X145925000Y-70360000D03*
D98*
X160850000Y-83635000D03*
D99*
X161025000Y-84135000D03*
D98*
X160850000Y-84635000D03*
D99*
X162425000Y-84635000D03*
D98*
X162600000Y-84135000D03*
D99*
X162425000Y-83635000D03*
D100*
X162475000Y-82960000D03*
X161975000Y-82960000D03*
X161475000Y-82960000D03*
D101*
X160975000Y-82960000D03*
D74*
X149505000Y-77210000D03*
X148545000Y-77210000D03*
D86*
X161100000Y-90660000D03*
X163000000Y-90660000D03*
D47*
X152495000Y-76035000D03*
X153455000Y-76035000D03*
D78*
X144049999Y-83509999D03*
X144049999Y-84209999D03*
X145049999Y-84209999D03*
X145049999Y-83509999D03*
D88*
X154514999Y-61995499D03*
X155784999Y-61995499D03*
X157054999Y-61995499D03*
X158324999Y-61995499D03*
D89*
X155304999Y-58200499D03*
X157534999Y-58200499D03*
D90*
X158634999Y-56409499D03*
X154204999Y-56409499D03*
D91*
X154147999Y-59202499D03*
X158691999Y-59202499D03*
D41*
X146380200Y-83690600D03*
X146380200Y-84660600D03*
D18*
X123213000Y-74472800D03*
X124183000Y-74472800D03*
D75*
X162425000Y-80775000D03*
X162425000Y-81795000D03*
D78*
X125941199Y-110343199D03*
X125941199Y-111043199D03*
X126941199Y-111043199D03*
X126941199Y-110343199D03*
D102*
X167875000Y-89360000D03*
X165975000Y-89360000D03*
D85*
X167750000Y-82935000D03*
X167750000Y-84835000D03*
D86*
X161100000Y-86510000D03*
X163000000Y-86510000D03*
D103*
X165837500Y-93310000D03*
X167962500Y-93310000D03*
D75*
X161425000Y-80775000D03*
X161425000Y-81795000D03*
D78*
X137397999Y-111062999D03*
X137397999Y-110362999D03*
X136397999Y-110362999D03*
X136397999Y-111062999D03*
D104*
X89187199Y-92202999D03*
X92487199Y-92202999D03*
X116987199Y-92202999D03*
X120287199Y-92202999D03*
D105*
X89187199Y-91642999D03*
X92487199Y-91642999D03*
X116987199Y-91642999D03*
X120287199Y-91642999D03*
X89187199Y-91142999D03*
X92487199Y-91142999D03*
X116987199Y-91142999D03*
X120287199Y-91142999D03*
X89187199Y-90642999D03*
X92487199Y-90642999D03*
X116987199Y-90642999D03*
X120287199Y-90642999D03*
X89187199Y-90142999D03*
X92487199Y-90142999D03*
X116987199Y-90142999D03*
X120287199Y-90142999D03*
X89187199Y-89642999D03*
X92487199Y-89642999D03*
X116987199Y-89642999D03*
X120287199Y-89642999D03*
X89187199Y-89142999D03*
X92487199Y-89142999D03*
X116987199Y-89142999D03*
X120287199Y-89142999D03*
X89187199Y-88642999D03*
X92487199Y-88642999D03*
X116987199Y-88642999D03*
X120287199Y-88642999D03*
X89187199Y-88142999D03*
X92487199Y-88142999D03*
X116987199Y-88142999D03*
X120287199Y-88142999D03*
X89187199Y-87642999D03*
X92487199Y-87642999D03*
X116987199Y-87642999D03*
X120287199Y-87642999D03*
X89187199Y-87142999D03*
X92487199Y-87142999D03*
X116987199Y-87142999D03*
X120287199Y-87142999D03*
X89187199Y-86642999D03*
X92487199Y-86642999D03*
X116987199Y-86642999D03*
X120287199Y-86642999D03*
X89187199Y-86142999D03*
X92487199Y-86142999D03*
X116987199Y-86142999D03*
X120287199Y-86142999D03*
X89187199Y-85642999D03*
X92487199Y-85642999D03*
X116987199Y-85642999D03*
X120287199Y-85642999D03*
X89187199Y-85142999D03*
X92487199Y-85142999D03*
X116987199Y-85142999D03*
X120287199Y-85142999D03*
X89187199Y-84642999D03*
X92487199Y-84642999D03*
X116987199Y-84642999D03*
X120287199Y-84642999D03*
X89187199Y-84142999D03*
X92487199Y-84142999D03*
X116987199Y-84142999D03*
X120287199Y-84142999D03*
X89187199Y-83642999D03*
X92487199Y-83642999D03*
X116987199Y-83642999D03*
X120287199Y-83642999D03*
X89187199Y-83142999D03*
X92487199Y-83142999D03*
X116987199Y-83142999D03*
X120287199Y-83142999D03*
X89187199Y-82642999D03*
X92487199Y-82642999D03*
X116987199Y-82642999D03*
X120287199Y-82642999D03*
X89187199Y-82142999D03*
X92487199Y-82142999D03*
X116987199Y-82142999D03*
X120287199Y-82142999D03*
X89187199Y-81642999D03*
X92487199Y-81642999D03*
X116987199Y-81642999D03*
X120287199Y-81642999D03*
X89187199Y-81142999D03*
X92487199Y-81142999D03*
X116987199Y-81142999D03*
X120287199Y-81142999D03*
X89187199Y-80642999D03*
X92487199Y-80642999D03*
X116987199Y-80642999D03*
X120287199Y-80642999D03*
X89187199Y-80142999D03*
X92487199Y-80142999D03*
X116987199Y-80142999D03*
X120287199Y-80142999D03*
X89187199Y-79642999D03*
X92487199Y-79642999D03*
X116987199Y-79642999D03*
X120287199Y-79642999D03*
X89187199Y-79142999D03*
X92487199Y-79142999D03*
X116987199Y-79142999D03*
X120287199Y-79142999D03*
X89187199Y-78642999D03*
X92487199Y-78642999D03*
X116987199Y-78642999D03*
X120287199Y-78642999D03*
X89187199Y-78142999D03*
X92487199Y-78142999D03*
X116987199Y-78142999D03*
X120287199Y-78142999D03*
X89187199Y-77642999D03*
X92487199Y-77642999D03*
X116987199Y-77642999D03*
X120287199Y-77642999D03*
X89187199Y-77142999D03*
X92487199Y-77142999D03*
X116987199Y-77142999D03*
X120287199Y-77142999D03*
X89187199Y-76642999D03*
X92487199Y-76642999D03*
X116987199Y-76642999D03*
X120287199Y-76642999D03*
X89187199Y-76142999D03*
X92487199Y-76142999D03*
X116987199Y-76142999D03*
X120287199Y-76142999D03*
X89187199Y-75642999D03*
X92487199Y-75642999D03*
X116987199Y-75642999D03*
X120287199Y-75642999D03*
X89187199Y-75142999D03*
X92487199Y-75142999D03*
X116987199Y-75142999D03*
X120287199Y-75142999D03*
X89187199Y-74642999D03*
X92487199Y-74642999D03*
X116987199Y-74642999D03*
X120287199Y-74642999D03*
X89187199Y-74142999D03*
X92487199Y-74142999D03*
X116987199Y-74142999D03*
X120287199Y-74142999D03*
X89187199Y-73642999D03*
X92487199Y-73642999D03*
X116987199Y-73642999D03*
X120287199Y-73642999D03*
X89187199Y-73142999D03*
X92487199Y-73142999D03*
X116987199Y-73142999D03*
X120287199Y-73142999D03*
X89187199Y-72642999D03*
X92487199Y-72642999D03*
X116987199Y-72642999D03*
X120287199Y-72642999D03*
X89187199Y-72142999D03*
X92487199Y-72142999D03*
X116987199Y-72142999D03*
X120287199Y-72142999D03*
X89187199Y-71642999D03*
X92487199Y-71642999D03*
X116987199Y-71642999D03*
X120287199Y-71642999D03*
X89187199Y-71142999D03*
X92487199Y-71142999D03*
X116987199Y-71142999D03*
X120287199Y-71142999D03*
X89187199Y-70642999D03*
X92487199Y-70642999D03*
X116987199Y-70642999D03*
X120287199Y-70642999D03*
X89187199Y-70142999D03*
X92487199Y-70142999D03*
X116987199Y-70142999D03*
X120287199Y-70142999D03*
X89187199Y-69642999D03*
X92487199Y-69642999D03*
X116987199Y-69642999D03*
X120287199Y-69642999D03*
X89187199Y-69142999D03*
X92487199Y-69142999D03*
X116987199Y-69142999D03*
X120287199Y-69142999D03*
X89187199Y-68642999D03*
X92487199Y-68642999D03*
X116987199Y-68642999D03*
X120287199Y-68642999D03*
X89187199Y-68142999D03*
X92487199Y-68142999D03*
X116987199Y-68142999D03*
X120287199Y-68142999D03*
X89187199Y-67642999D03*
X92487199Y-67642999D03*
X116987199Y-67642999D03*
X120287199Y-67642999D03*
X89187199Y-67142999D03*
X92487199Y-67142999D03*
X116987199Y-67142999D03*
X120287199Y-67142999D03*
X89187199Y-66642999D03*
X92487199Y-66642999D03*
X116987199Y-66642999D03*
X120287199Y-66642999D03*
X89187199Y-66142999D03*
X92487199Y-66142999D03*
X116987199Y-66142999D03*
X120287199Y-66142999D03*
X89187199Y-65642999D03*
X92487199Y-65642999D03*
X116987199Y-65642999D03*
X120287199Y-65642999D03*
X89187199Y-65142999D03*
X92487199Y-65142999D03*
X116987199Y-65142999D03*
X120287199Y-65142999D03*
X89187199Y-64642999D03*
X92487199Y-64642999D03*
X116987199Y-64642999D03*
X120287199Y-64642999D03*
X89187199Y-64142999D03*
X92487199Y-64142999D03*
X116987199Y-64142999D03*
X120287199Y-64142999D03*
X89187199Y-63642999D03*
X92487199Y-63642999D03*
X116987199Y-63642999D03*
X120287199Y-63642999D03*
X89187199Y-63142999D03*
X92487199Y-63142999D03*
X116987199Y-63142999D03*
X120287199Y-63142999D03*
D104*
X89187199Y-62582999D03*
X92487199Y-62582999D03*
X116987199Y-62582999D03*
X120287199Y-62582999D03*
D106*
X133479999Y-71629999D03*
D107*
X132979999Y-71629999D03*
X132479999Y-71629999D03*
D106*
X131979999Y-71629999D03*
X131979999Y-72629999D03*
D107*
X132479999Y-72629999D03*
X132979999Y-72629999D03*
D106*
X133479999Y-72629999D03*
D78*
X123172599Y-75609999D03*
X123172599Y-76309999D03*
X124172599Y-76309999D03*
X124172599Y-75609999D03*
D85*
X146925000Y-73960000D03*
X146925000Y-75860000D03*
D108*
X151899999Y-130194999D03*
D109*
X151574999Y-131384999D03*
X151574999Y-132574999D03*
X153724999Y-132574999D03*
X153724999Y-131384999D03*
X153724999Y-130194999D03*
D85*
X165725000Y-82935000D03*
X165725000Y-84835000D03*
X142875000Y-73960000D03*
X142875000Y-75860000D03*
D110*
X163369999Y-66759999D03*
X163369999Y-66259999D03*
X163369999Y-65759999D03*
X162689999Y-65759999D03*
X162689999Y-66259999D03*
X162689999Y-66759999D03*
D87*
X98120200Y-111145400D03*
X98120200Y-110185400D03*
D102*
X99298800Y-107696000D03*
X97398800Y-107696000D03*
D47*
X161420000Y-79785000D03*
X162380000Y-79785000D03*
X88260900Y-107416800D03*
X89220900Y-107416800D03*
D86*
X161100000Y-88585000D03*
X163000000Y-88585000D03*
D77*
X153485000Y-74035000D03*
X152465000Y-74035000D03*
X153485000Y-75035000D03*
X152465000Y-75035000D03*
D102*
X167875000Y-87335000D03*
X165975000Y-87335000D03*
D87*
X163475000Y-81765000D03*
X163475000Y-80805000D03*
D76*
X160425000Y-81795000D03*
X160425000Y-80775000D03*
D102*
X149200000Y-80760000D03*
X147300000Y-80760000D03*
D75*
X143450000Y-95450000D03*
X143450000Y-96470000D03*
D73*
X155752800Y-73002200D03*
X155752800Y-73962200D03*
D102*
X149200000Y-78735000D03*
X147300000Y-78735000D03*
D111*
X168700400Y-109804200D03*
X167900400Y-109804200D03*
D112*
X168950400Y-108916700D03*
X168300400Y-108916700D03*
X167650400Y-108916700D03*
X167650400Y-110691700D03*
X168300400Y-110691700D03*
X168950400Y-110691700D03*
D75*
X143450000Y-92800000D03*
X143450000Y-93820000D03*
D113*
X94099999Y-114209999D03*
X94099999Y-114859999D03*
X94099999Y-115509999D03*
D114*
X94999999Y-116059999D03*
D113*
X95899999Y-115509999D03*
X95899999Y-114859999D03*
X95899999Y-114209999D03*
D114*
X94999999Y-113659999D03*
D95*
X123162600Y-73482200D03*
X124182600Y-73482200D03*
D115*
X157475000Y-83962500D03*
X157475000Y-88057500D03*
D102*
X167875000Y-91385000D03*
X165975000Y-91385000D03*
D75*
X150359400Y-82967500D03*
X150359400Y-83987500D03*
D18*
X123213000Y-72517000D03*
X124183000Y-72517000D03*
X123213000Y-70764400D03*
X124183000Y-70764400D03*
D116*
X150500000Y-74210000D03*
D117*
X150000000Y-74385000D03*
D116*
X149500000Y-74210000D03*
D117*
X149500000Y-75785000D03*
D116*
X150000000Y-75960000D03*
D117*
X150500000Y-75785000D03*
D118*
X151175000Y-75835000D03*
X151175000Y-75335000D03*
X151175000Y-74835000D03*
D119*
X151175000Y-74335000D03*
D74*
X98066800Y-109220000D03*
X97106800Y-109220000D03*
M02*
