%TF.GenerationSoftware,KiCad,Pcbnew,7.0.5*%
%TF.CreationDate,2024-04-22T16:49:58+03:00*%
%TF.ProjectId,satnogs-comms,7361746e-6f67-4732-9d63-6f6d6d732e6b,rev?*%
%TF.SameCoordinates,PX4eb9cf0PY82ce540*%
%TF.FileFunction,Copper,L3,Inr*%
%TF.FilePolarity,Positive*%
%FSLAX46Y46*%
G04 Gerber Fmt 4.6, Leading zero omitted, Abs format (unit mm)*
G04 Created by KiCad (PCBNEW 7.0.5) date 2024-04-22 16:49:58*
%MOMM*%
%LPD*%
G01*
G04 APERTURE LIST*
%TA.AperFunction,ComponentPad*%
%ADD10R,1.524000X1.524000*%
%TD*%
%TA.AperFunction,ComponentPad*%
%ADD11C,1.524000*%
%TD*%
%TA.AperFunction,ComponentPad*%
%ADD12C,5.600000*%
%TD*%
%TA.AperFunction,HeatsinkPad*%
%ADD13C,0.500000*%
%TD*%
%TA.AperFunction,ComponentPad*%
%ADD14C,0.500000*%
%TD*%
%TA.AperFunction,ComponentPad*%
%ADD15C,0.600000*%
%TD*%
%TA.AperFunction,ComponentPad*%
%ADD16C,3.500000*%
%TD*%
%TA.AperFunction,ComponentPad*%
%ADD17C,1.000000*%
%TD*%
%TA.AperFunction,ViaPad*%
%ADD18C,0.460000*%
%TD*%
%TA.AperFunction,ViaPad*%
%ADD19C,0.660000*%
%TD*%
%TA.AperFunction,Conductor*%
%ADD20C,0.600000*%
%TD*%
%TA.AperFunction,Conductor*%
%ADD21C,0.250000*%
%TD*%
%TA.AperFunction,Conductor*%
%ADD22C,0.450000*%
%TD*%
G04 APERTURE END LIST*
D10*
%TO.N,/CAN_A-*%
%TO.C,J102*%
X13970000Y83185000D03*
D11*
%TO.N,unconnected-(J102-Pin_2-Pad2)*%
X13970000Y85725000D03*
%TO.N,/CAN_A+*%
X16510000Y83185000D03*
%TO.N,unconnected-(J102-Pin_4-Pad4)*%
X16510000Y85725000D03*
%TO.N,unconnected-(J102-Pin_5-Pad5)*%
X19050000Y83185000D03*
%TO.N,unconnected-(J102-Pin_6-Pad6)*%
X19050000Y85725000D03*
%TO.N,unconnected-(J102-Pin_7-Pad7)*%
X21590000Y83185000D03*
%TO.N,unconnected-(J102-Pin_8-Pad8)*%
X21590000Y85725000D03*
%TO.N,unconnected-(J102-Pin_9-Pad9)*%
X24130000Y83185000D03*
%TO.N,unconnected-(J102-Pin_10-Pad10)*%
X24130000Y85725000D03*
%TO.N,unconnected-(J102-Pin_11-Pad11)*%
X26670000Y83185000D03*
%TO.N,unconnected-(J102-Pin_12-Pad12)*%
X26670000Y85725000D03*
%TO.N,unconnected-(J102-Pin_13-Pad13)*%
X29210000Y83185000D03*
%TO.N,unconnected-(J102-Pin_14-Pad14)*%
X29210000Y85725000D03*
%TO.N,unconnected-(J102-Pin_15-Pad15)*%
X31750000Y83185000D03*
%TO.N,unconnected-(J102-Pin_16-Pad16)*%
X31750000Y85725000D03*
%TO.N,unconnected-(J102-Pin_17-Pad17)*%
X34290000Y83185000D03*
%TO.N,unconnected-(J102-Pin_18-Pad18)*%
X34290000Y85725000D03*
%TO.N,unconnected-(J102-Pin_19-Pad19)*%
X36830000Y83185000D03*
%TO.N,unconnected-(J102-Pin_20-Pad20)*%
X36830000Y85725000D03*
%TO.N,unconnected-(J102-Pin_21-Pad21)*%
X39370000Y83185000D03*
%TO.N,unconnected-(J102-Pin_22-Pad22)*%
X39370000Y85725000D03*
%TO.N,unconnected-(J102-Pin_23-Pad23)*%
X41910000Y83185000D03*
%TO.N,unconnected-(J102-Pin_24-Pad24)*%
X41910000Y85725000D03*
%TO.N,unconnected-(J102-Pin_25-Pad25)*%
X44450000Y83185000D03*
%TO.N,unconnected-(J102-Pin_26-Pad26)*%
X44450000Y85725000D03*
%TO.N,unconnected-(J102-Pin_27-Pad27)*%
X46990000Y83185000D03*
%TO.N,unconnected-(J102-Pin_28-Pad28)*%
X46990000Y85725000D03*
%TO.N,unconnected-(J102-Pin_29-Pad29)*%
X49530000Y83185000D03*
%TO.N,unconnected-(J102-Pin_30-Pad30)*%
X49530000Y85725000D03*
%TO.N,unconnected-(J102-Pin_31-Pad31)*%
X52070000Y83185000D03*
%TO.N,unconnected-(J102-Pin_32-Pad32)*%
X52070000Y85725000D03*
%TO.N,unconnected-(J102-Pin_33-Pad33)*%
X54610000Y83185000D03*
%TO.N,unconnected-(J102-Pin_34-Pad34)*%
X54610000Y85725000D03*
%TO.N,unconnected-(J102-Pin_35-Pad35)*%
X57150000Y83185000D03*
%TO.N,unconnected-(J102-Pin_36-Pad36)*%
X57150000Y85725000D03*
%TO.N,unconnected-(J102-Pin_37-Pad37)*%
X59690000Y83185000D03*
%TO.N,unconnected-(J102-Pin_38-Pad38)*%
X59690000Y85725000D03*
%TO.N,unconnected-(J102-Pin_39-Pad39)*%
X62230000Y83185000D03*
%TO.N,unconnected-(J102-Pin_40-Pad40)*%
X62230000Y85725000D03*
%TO.N,/BUS_SDA*%
X64770000Y83185000D03*
%TO.N,unconnected-(J102-Pin_42-Pad42)*%
X64770000Y85725000D03*
%TO.N,/BUS_SCL*%
X67310000Y83185000D03*
%TO.N,unconnected-(J102-Pin_44-Pad44)*%
X67310000Y85725000D03*
%TO.N,unconnected-(J102-Pin_45-Pad45)*%
X69850000Y83185000D03*
%TO.N,unconnected-(J102-Pin_46-Pad46)*%
X69850000Y85725000D03*
%TO.N,unconnected-(J102-Pin_47-Pad47)*%
X72390000Y83185000D03*
%TO.N,unconnected-(J102-Pin_48-Pad48)*%
X72390000Y85725000D03*
%TO.N,unconnected-(J102-Pin_49-Pad49)*%
X74930000Y83185000D03*
%TO.N,unconnected-(J102-Pin_50-Pad50)*%
X74930000Y85725000D03*
%TO.N,unconnected-(J102-Pin_51-Pad51)*%
X77470000Y83185000D03*
%TO.N,unconnected-(J102-Pin_52-Pad52)*%
X77470000Y85725000D03*
%TD*%
D10*
%TO.N,/CAN_B-*%
%TO.C,J103*%
X13970000Y88265000D03*
D11*
%TO.N,unconnected-(J103-Pin_2-Pad2)*%
X13970000Y90805000D03*
%TO.N,/CAN_B+*%
X16510000Y88265000D03*
%TO.N,unconnected-(J103-Pin_4-Pad4)*%
X16510000Y90805000D03*
%TO.N,unconnected-(J103-Pin_5-Pad5)*%
X19050000Y88265000D03*
%TO.N,unconnected-(J103-Pin_6-Pad6)*%
X19050000Y90805000D03*
%TO.N,JTMS-SWDIO*%
X21590000Y88265000D03*
%TO.N,JTCK-SWCLK*%
X21590000Y90805000D03*
%TO.N,MCU_NRSTD*%
X24130000Y88265000D03*
%TO.N,3V3_D*%
X24130000Y90805000D03*
%TO.N,unconnected-(J103-Pin_11-Pad11)*%
X26670000Y88265000D03*
%TO.N,unconnected-(J103-Pin_12-Pad12)*%
X26670000Y90805000D03*
%TO.N,unconnected-(J103-Pin_13-Pad13)*%
X29210000Y88265000D03*
%TO.N,unconnected-(J103-Pin_14-Pad14)*%
X29210000Y90805000D03*
%TO.N,unconnected-(J103-Pin_15-Pad15)*%
X31750000Y88265000D03*
%TO.N,unconnected-(J103-Pin_16-Pad16)*%
X31750000Y90805000D03*
%TO.N,unconnected-(J103-Pin_17-Pad17)*%
X34290000Y88265000D03*
%TO.N,unconnected-(J103-Pin_18-Pad18)*%
X34290000Y90805000D03*
%TO.N,unconnected-(J103-Pin_19-Pad19)*%
X36830000Y88265000D03*
%TO.N,unconnected-(J103-Pin_20-Pad20)*%
X36830000Y90805000D03*
%TO.N,UART_RX*%
X39370000Y88265000D03*
%TO.N,UART_TX*%
X39370000Y90805000D03*
%TO.N,unconnected-(J103-Pin_23-Pad23)*%
X41910000Y88265000D03*
%TO.N,unconnected-(J103-Pin_24-Pad24)*%
X41910000Y90805000D03*
%TO.N,unconnected-(J103-Pin_25-Pad25)*%
X44450000Y88265000D03*
%TO.N,unconnected-(J103-Pin_26-Pad26)*%
X44450000Y90805000D03*
%TO.N,unconnected-(J103-Pin_27-Pad27)*%
X46990000Y88265000D03*
%TO.N,unconnected-(J103-Pin_28-Pad28)*%
X46990000Y90805000D03*
%TO.N,GND*%
X49530000Y88265000D03*
X49530000Y90805000D03*
%TO.N,unconnected-(J103-Pin_31-Pad31)*%
X52070000Y88265000D03*
%TO.N,GND*%
X52070000Y90805000D03*
%TO.N,unconnected-(J103-Pin_33-Pad33)*%
X54610000Y88265000D03*
%TO.N,unconnected-(J103-Pin_34-Pad34)*%
X54610000Y90805000D03*
%TO.N,unconnected-(J103-Pin_35-Pad35)*%
X57150000Y88265000D03*
%TO.N,unconnected-(J103-Pin_36-Pad36)*%
X57150000Y90805000D03*
%TO.N,GNSS_PPS*%
X59690000Y88265000D03*
%TO.N,unconnected-(J103-Pin_38-Pad38)*%
X59690000Y90805000D03*
%TO.N,unconnected-(J103-Pin_39-Pad39)*%
X62230000Y88265000D03*
%TO.N,unconnected-(J103-Pin_40-Pad40)*%
X62230000Y90805000D03*
%TO.N,unconnected-(J103-Pin_41-Pad41)*%
X64770000Y88265000D03*
%TO.N,unconnected-(J103-Pin_42-Pad42)*%
X64770000Y90805000D03*
%TO.N,unconnected-(J103-Pin_43-Pad43)*%
X67310000Y88265000D03*
%TO.N,unconnected-(J103-Pin_44-Pad44)*%
X67310000Y90805000D03*
%TO.N,unconnected-(J103-Pin_45-Pad45)*%
X69850000Y88265000D03*
%TO.N,unconnected-(J103-Pin_46-Pad46)*%
X69850000Y90805000D03*
%TO.N,unconnected-(J103-Pin_47-Pad47)*%
X72390000Y88265000D03*
%TO.N,unconnected-(J103-Pin_48-Pad48)*%
X72390000Y90805000D03*
%TO.N,unconnected-(J103-Pin_49-Pad49)*%
X74930000Y88265000D03*
%TO.N,unconnected-(J103-Pin_50-Pad50)*%
X74930000Y90805000D03*
%TO.N,unconnected-(J103-Pin_51-Pad51)*%
X77470000Y88265000D03*
%TO.N,unconnected-(J103-Pin_52-Pad52)*%
X77470000Y90805000D03*
%TD*%
D12*
%TO.N,AC_GND_1*%
%TO.C,H112*%
X82550000Y90805000D03*
%TD*%
%TO.N,unconnected-(H113-Pad1)*%
%TO.C,H113*%
X85090000Y5080000D03*
%TD*%
%TO.N,AC_GND_2*%
%TO.C,H114*%
X5080000Y5080000D03*
%TD*%
%TO.N,unconnected-(H111-Pad1)*%
%TO.C,H111*%
X8890000Y90805000D03*
%TD*%
D13*
%TO.N,GND*%
%TO.C,U1018*%
X75687600Y17390700D03*
X75687600Y17940700D03*
X75137600Y17390700D03*
X75137600Y17940700D03*
%TD*%
D14*
%TO.N,GND*%
%TO.C,U1006*%
X69784700Y26127700D03*
X69784700Y25027700D03*
X69784700Y23927700D03*
X70884700Y26127700D03*
X70884700Y25027700D03*
X70884700Y23927700D03*
X71984700Y26127700D03*
X71984700Y25027700D03*
X71984700Y23927700D03*
%TD*%
D15*
%TO.N,GND*%
%TO.C,U1002*%
X57299800Y12488500D03*
X58149800Y12488500D03*
X58999800Y12488500D03*
X57299800Y13338500D03*
X58149800Y13338500D03*
X58999800Y13338500D03*
X57299800Y14188500D03*
X58149800Y14188500D03*
X58999800Y14188500D03*
%TD*%
%TO.N,GND*%
%TO.C,U1001*%
X67296600Y16244000D03*
X67296600Y15494000D03*
X67296600Y14744000D03*
X68046600Y16244000D03*
X68046600Y15494000D03*
X68046600Y14744000D03*
X68796600Y16244000D03*
X68796600Y15494000D03*
X68796600Y14744000D03*
%TD*%
D16*
%TO.N,GND*%
%TO.C,J104*%
X87884000Y59880000D03*
X87757000Y35877000D03*
X85953000Y86512000D03*
X82245000Y25222000D03*
X71437000Y56832000D03*
X65250000Y1730000D03*
X63500000Y30099000D03*
X46482000Y16383000D03*
X38862000Y28448000D03*
X19750000Y1750000D03*
X5486000Y86512000D03*
X3175000Y26416000D03*
%TD*%
D14*
%TO.N,GND*%
%TO.C,U508*%
X86300400Y27355800D03*
X85200400Y27355800D03*
%TD*%
D17*
%TO.N,GND*%
%TO.C,U1017*%
X85804200Y11377600D03*
X86871000Y11377600D03*
%TD*%
%TO.N,GND*%
%TO.C,U1016*%
X80797600Y29710100D03*
X81864400Y29710100D03*
%TD*%
D18*
%TO.N,3V3_D*%
X69200000Y47410000D03*
%TO.N,GNSS_PPS*%
X4900000Y32935000D03*
%TO.N,GND*%
X21450000Y62510000D03*
%TO.N,Net-(Q401-D)*%
X20925000Y63485000D03*
%TO.N,GND*%
X685800Y32131000D03*
X1346200Y29895800D03*
X56210200Y70358000D03*
X75184000Y22199600D03*
D19*
X85090000Y24139400D03*
D18*
X10795000Y33883600D03*
X76708000Y14706600D03*
X73253600Y15163800D03*
X73250000Y12085000D03*
D19*
X77130000Y28110000D03*
X71260000Y32061900D03*
X77140000Y29100000D03*
D18*
X73858700Y23499100D03*
D19*
X87833200Y15147220D03*
X86944200Y15985420D03*
D18*
X55194200Y23063200D03*
X55192080Y21384680D03*
X54051200Y22606000D03*
X54146200Y20334600D03*
X49130000Y26060000D03*
X55905400Y31902400D03*
X56007000Y28956000D03*
X43180000Y27711400D03*
X43167300Y29108400D03*
X48360900Y34542973D03*
X56259990Y30910000D03*
X52552600Y34544000D03*
X49130000Y25440000D03*
X53695600Y31208600D03*
X52552600Y33680400D03*
X59944000Y7112000D03*
D19*
X52969300Y13332600D03*
X53035200Y15862300D03*
X53009800Y9474200D03*
X54030880Y15951200D03*
D18*
X76873100Y20828000D03*
X77978000Y30099000D03*
X78613000Y30099000D03*
X79451200Y29946600D03*
X63576200Y10744200D03*
X69845500Y52478619D03*
X81661000Y51866800D03*
X84277200Y51308000D03*
X85166200Y51308000D03*
X82245200Y50038000D03*
X82245200Y48006000D03*
X82245200Y49022000D03*
X82230000Y47010000D03*
X76200000Y51498500D03*
X33800000Y750000D03*
X87122000Y22250400D03*
X27432000Y35814000D03*
X6324600Y33172400D03*
X36322000Y35814000D03*
X65805400Y50893200D03*
X71196200Y35128200D03*
X73253600Y13106400D03*
X76200000Y47117000D03*
X74498200Y13970000D03*
X18750000Y67310000D03*
X23350000Y64160000D03*
X78350000Y750000D03*
X27940000Y85725000D03*
D19*
X77127100Y27089100D03*
D18*
X15500000Y750000D03*
X5486400Y22072600D03*
X85168546Y32742946D03*
X69200000Y800000D03*
X30750000Y750000D03*
X69951600Y59613800D03*
X52298600Y39827200D03*
X63150000Y800000D03*
X71628000Y40640000D03*
X41900000Y16500000D03*
X63195200Y13271500D03*
X18500000Y750000D03*
X81850000Y7400000D03*
X31160000Y31525000D03*
D19*
X69215200Y29260800D03*
D18*
X41000000Y57785000D03*
X81525000Y56475000D03*
X42614014Y31719536D03*
X29600000Y56785000D03*
X736600Y35814000D03*
X60100000Y800000D03*
X57674581Y24342019D03*
X21600000Y750000D03*
X89433400Y33604200D03*
X65963800Y82448400D03*
X7975600Y10464800D03*
X87858600Y10016420D03*
X73152000Y54610000D03*
X56870600Y26492200D03*
X50800000Y16400000D03*
X50800000Y10300000D03*
X7950200Y22072600D03*
X80500000Y54225000D03*
X14651000Y62037800D03*
X48793400Y39433300D03*
X51079400Y49301400D03*
X48900000Y15400000D03*
X1524000Y37084000D03*
X2534603Y45237400D03*
X81381600Y22250400D03*
X27700000Y750000D03*
X56942303Y22034790D03*
X762000Y67818000D03*
X84500000Y8600000D03*
X56870600Y42189400D03*
X39950000Y35550000D03*
X80772000Y58928000D03*
X22475000Y60410000D03*
X47726600Y43484800D03*
X7874000Y87122000D03*
X756603Y80010000D03*
X60096400Y73329800D03*
X56498334Y20677623D03*
X750000Y14950000D03*
X21875000Y64010000D03*
X72948800Y18694400D03*
X68800000Y55045500D03*
X2514600Y56210200D03*
X30145000Y68808600D03*
X55219600Y70332600D03*
X76403200Y43840400D03*
X80772000Y71374000D03*
D19*
X69989900Y28409900D03*
D18*
X800000Y9900000D03*
X74396600Y55118000D03*
X56413400Y47498000D03*
X41550000Y2650000D03*
X31623000Y67956000D03*
X762000Y83032600D03*
X57050000Y800000D03*
X70840600Y12801600D03*
X71628000Y38684200D03*
X11252200Y85191600D03*
X68148200Y35128200D03*
X41550000Y7200000D03*
X53850000Y2550000D03*
X50800000Y4200000D03*
X11430000Y35814000D03*
X41550000Y10250000D03*
X77724000Y58928000D03*
X50800000Y7250000D03*
X24790400Y81229200D03*
X89408000Y62230000D03*
X80772000Y68326000D03*
X44526200Y55143400D03*
X762000Y86080600D03*
X53289200Y42113200D03*
X87376000Y45466000D03*
X63779400Y17576800D03*
X80772000Y69850000D03*
X57050000Y2550000D03*
X87376000Y54610000D03*
X63500000Y32385000D03*
X89400000Y8750000D03*
X2950000Y9950000D03*
X21700000Y68498000D03*
X74676000Y58928000D03*
X47200000Y53935000D03*
X2641600Y88036400D03*
X762000Y73914000D03*
X43450000Y18600000D03*
X44224100Y33070800D03*
X63195200Y12255500D03*
D19*
X80721200Y10490200D03*
D18*
X41900000Y18600000D03*
X63576200Y14198600D03*
X24384000Y35814000D03*
X35200000Y1650000D03*
X44100000Y15400000D03*
X2463800Y48387000D03*
X79603600Y26822400D03*
X11252200Y86741000D03*
X61061600Y50901600D03*
X18288000Y35814000D03*
X72212200Y42951400D03*
X73691288Y44418712D03*
X22550000Y68585000D03*
X28879800Y67970400D03*
X62280800Y23926800D03*
X41650000Y14950000D03*
X48550000Y47560000D03*
X64058800Y71577200D03*
X53695600Y35382200D03*
X65100200Y35128200D03*
X64465200Y11684000D03*
X87100000Y8700000D03*
X6477000Y14312250D03*
X70425000Y6950000D03*
X82905600Y16078200D03*
X5650000Y9750000D03*
X52552600Y46990000D03*
X29050000Y57660000D03*
X36322000Y30607000D03*
X40767000Y49453800D03*
X83007200Y42748200D03*
X48900000Y17000000D03*
X70810000Y73340000D03*
X36350000Y2650000D03*
X756603Y64795400D03*
X89400000Y12850000D03*
X50800000Y18600000D03*
X89408000Y64008000D03*
X54406800Y45745400D03*
X2534603Y42189400D03*
X22050000Y64710000D03*
X55473600Y55016400D03*
X66929000Y9601200D03*
X89408000Y79248000D03*
X18725000Y66660000D03*
X4851400Y14312250D03*
X74876353Y46536353D03*
X40800000Y58335000D03*
X69011800Y12700000D03*
X14651000Y60615400D03*
X44485624Y45951300D03*
X33528000Y35814000D03*
X14422400Y70343600D03*
X9601200Y9550400D03*
D19*
X66624200Y27305000D03*
D18*
X1346200Y31038800D03*
X89396835Y25044400D03*
X762000Y70866000D03*
X58013600Y6680200D03*
X13889000Y69607000D03*
X17094200Y73126600D03*
X40150000Y57460000D03*
X762000Y87960200D03*
X67868800Y77292200D03*
X65049400Y74523600D03*
X87376000Y48514000D03*
X76510300Y39370000D03*
X80750000Y5100000D03*
D19*
X85623400Y15985420D03*
D18*
X43865800Y42849800D03*
X70075000Y4625000D03*
X762000Y28956000D03*
X58064400Y71653400D03*
X3225800Y16281400D03*
X82296000Y69850000D03*
X23845800Y73126600D03*
X20925000Y68410000D03*
X59410600Y54584600D03*
X40200000Y51025900D03*
X21336000Y35814000D03*
X3708400Y35671760D03*
X40900000Y56310000D03*
X55626000Y8001000D03*
X56896000Y35272951D03*
X8382000Y35814000D03*
X62103000Y16687800D03*
X3251200Y22047200D03*
X36322000Y33655000D03*
X65561710Y10418047D03*
X51790600Y47752000D03*
X75742800Y62509400D03*
X41000000Y58810000D03*
X61899800Y56591200D03*
X63195200Y11239500D03*
X62306200Y78867000D03*
X71628000Y49784000D03*
X72390000Y27178000D03*
X32232600Y64312800D03*
X736600Y26720800D03*
X22875000Y63635000D03*
X53314600Y49507300D03*
X87376000Y42418000D03*
X50800000Y13350000D03*
X762000Y76962000D03*
X89408000Y28067000D03*
X71628000Y52832000D03*
X59757381Y26381781D03*
X6350000Y35814000D03*
X55803800Y53517800D03*
X41224200Y45593000D03*
X32000000Y31505000D03*
X87376000Y39370000D03*
X54254400Y70358000D03*
X48900000Y18600000D03*
X750000Y12950000D03*
X83820000Y68326000D03*
X18830000Y34730000D03*
X87376000Y57150000D03*
X65049400Y71577200D03*
X76123800Y13335000D03*
X81355497Y33443051D03*
X41550000Y13350000D03*
X82296000Y68326000D03*
X77952600Y35128200D03*
X762000Y58674000D03*
X60528200Y57607200D03*
X24650000Y750000D03*
X84124800Y22250400D03*
X2540000Y39116000D03*
X44775000Y54060000D03*
X87299800Y9508420D03*
X49875000Y52085000D03*
X2514600Y52451000D03*
X9194800Y13792200D03*
X74904600Y35128200D03*
X66364900Y53469400D03*
X52019200Y43103800D03*
X84810600Y30378400D03*
X44602400Y43611800D03*
X60988100Y29438600D03*
D19*
X15133600Y64222200D03*
D18*
X21892500Y60410000D03*
X55825130Y42549547D03*
X8305800Y11938000D03*
X40875000Y56960000D03*
X81000600Y35128200D03*
X81900000Y800000D03*
X15133600Y66152600D03*
X75692000Y10439400D03*
X41500000Y4150000D03*
D19*
X84404200Y11667420D03*
D18*
X30480000Y35814000D03*
X55559900Y7162800D03*
X756603Y61747400D03*
X46500000Y18600000D03*
X57658000Y41478200D03*
X89400000Y10550000D03*
X52527200Y4546600D03*
X59715400Y81330800D03*
X44750000Y51185000D03*
X59690000Y45578500D03*
X77875000Y56950000D03*
X14478000Y35814000D03*
X22625000Y64935000D03*
X85547200Y36271200D03*
D19*
X16400000Y65261800D03*
D18*
X75300000Y750000D03*
X82296000Y71374000D03*
X69354700Y9639300D03*
X71628000Y46736000D03*
X56212900Y54229000D03*
X30400000Y31535000D03*
X89408000Y31115000D03*
X65049400Y72618600D03*
X7315200Y31140400D03*
X54457600Y11811000D03*
X43891200Y49631600D03*
X685800Y32994600D03*
X50800000Y2550000D03*
X31542000Y63638000D03*
X711200Y23571200D03*
X37871400Y15367000D03*
%TO.N,VIN*%
X80772000Y74168000D03*
X76354502Y47860000D03*
X80772000Y72644000D03*
X83820000Y75692000D03*
X82296000Y74168000D03*
X70030000Y70360000D03*
X70764400Y78435200D03*
X70815200Y71628000D03*
X69951600Y77622400D03*
X80772000Y75692000D03*
X57581800Y77393800D03*
X82296000Y72644000D03*
X69951600Y79248000D03*
X77190600Y57734200D03*
X70739000Y76835000D03*
X70820000Y70850000D03*
X70764400Y80060800D03*
X82296000Y75692000D03*
X69951600Y80873600D03*
X70815200Y70002400D03*
X70010000Y71250000D03*
D19*
%TO.N,3V3_RF*%
X85801200Y30962600D03*
D18*
X39937500Y25622500D03*
X73650000Y17170000D03*
X41320000Y24240000D03*
X42650000Y24010000D03*
X69354700Y11468100D03*
X54360000Y23200000D03*
X39525000Y26035000D03*
X54580000Y7380000D03*
X55580000Y33770000D03*
X57863611Y35280000D03*
X74350000Y11570000D03*
X67957700Y11645900D03*
D19*
X86956900Y30962600D03*
D18*
X55930000Y27990000D03*
%TO.N,/CAN/CAN1_RX*%
X40550000Y51935400D03*
%TO.N,Net-(Q401-D)*%
X29884400Y59782200D03*
X24425000Y54510000D03*
X16975000Y55435000D03*
X17075000Y54185000D03*
X24400000Y65160000D03*
X22225000Y62485000D03*
X29884400Y60290200D03*
X17100000Y54810000D03*
D19*
X29125000Y65860000D03*
D18*
X29884400Y62322200D03*
X24125000Y55910000D03*
X27650000Y54260000D03*
X23200000Y64810000D03*
X22025000Y63460000D03*
D19*
X30145000Y65974800D03*
D18*
X29885339Y61814200D03*
X24500000Y55464500D03*
X24075000Y54160000D03*
X29205200Y63638000D03*
X21025000Y66010000D03*
X17025000Y56010000D03*
X25875000Y54385000D03*
%TO.N,/CAN/CAN2_RX*%
X41300400Y48996600D03*
%TO.N,/CAN/CAN2_TX*%
X40820500Y48539400D03*
%TO.N,Net-(U1-VDDA)*%
X55150000Y43160000D03*
%TO.N,/MCU/GNSS_RSTN*%
X38525000Y43810000D03*
X23650000Y31485000D03*
X26850000Y31460000D03*
X17010000Y20520000D03*
%TO.N,/MCU/GNSS_UART_TX*%
X25750000Y26060000D03*
X37650000Y43760000D03*
%TO.N,/MCU/GNSS_UART_RX*%
X24850000Y28235000D03*
X36950000Y43785000D03*
%TO.N,Net-(U509-IN+2)*%
X75247500Y41275000D03*
X78125217Y57450435D03*
X84836000Y42341800D03*
X81762600Y41294900D03*
X73152000Y48196500D03*
%TO.N,3V3_D*%
X55854600Y78409800D03*
X55500000Y64210000D03*
X74650600Y43992800D03*
X64770000Y50901600D03*
X42595800Y41935400D03*
X60900000Y44900000D03*
X53035200Y77419200D03*
X58928000Y55473600D03*
X20497800Y74574400D03*
X46800000Y42180000D03*
X6654800Y34594800D03*
X16154400Y40843200D03*
X84455000Y34036000D03*
X31891000Y59426600D03*
X53035200Y79298800D03*
X32729200Y60112400D03*
X67950000Y48910000D03*
X67800000Y55045500D03*
X66294000Y77292200D03*
X43725000Y55085000D03*
X53974999Y76479400D03*
X21509000Y73772600D03*
X77139800Y39370000D03*
X14651000Y73772600D03*
X53975000Y78359000D03*
X49120915Y42554415D03*
X43210770Y41946083D03*
X57525000Y63460000D03*
X56896000Y43154600D03*
X31699200Y58699400D03*
X50825400Y47752000D03*
X69625000Y38885000D03*
X49235473Y41976831D03*
X58089800Y56032400D03*
X67950000Y47410000D03*
X54525000Y63435000D03*
X31891000Y60798200D03*
X69200000Y48910000D03*
X56600000Y64235000D03*
X56362600Y43154600D03*
X85394800Y40665400D03*
X13741400Y74560000D03*
X53035199Y75539600D03*
X50139600Y46990000D03*
X53973967Y74599800D03*
X48746500Y42180000D03*
%TO.N,5V_RF_U*%
X80924400Y37947600D03*
X82321400Y37947600D03*
X83108800Y38938200D03*
X81915000Y38938200D03*
D19*
X87071200Y24079200D03*
X86309200Y24079200D03*
D18*
X83566000Y37947600D03*
X80213200Y39979600D03*
%TO.N,5V_RF_S*%
X76454004Y40005000D03*
%TO.N,Net-(U602-AVDD0)*%
X53543200Y28270200D03*
%TO.N,Net-(C419-Pad2)*%
X59359800Y53644800D03*
%TO.N,/Main PSU/GATE*%
X73202800Y73964800D03*
%TO.N,/MCU/AVDD*%
X54150000Y43160000D03*
%TO.N,/MCU/RCC_OSC32_IN*%
X47167800Y43281600D03*
%TO.N,/MCU/RCC_OSC32_OUT*%
X48310800Y43281600D03*
%TO.N,/BUS_SDA*%
X56667400Y53797200D03*
%TO.N,/BUS_SCL*%
X56235600Y53111400D03*
%TO.N,Net-(D501-K)*%
X63655300Y77344100D03*
%TO.N,/MCU/P5V_RF_EN*%
X60299600Y51437700D03*
%TO.N,/MCU/RF_RST*%
X54813200Y34823400D03*
X53517800Y27695897D03*
%TO.N,/MCU/EN_AGC_UHF*%
X60223400Y47142400D03*
X70485000Y10947400D03*
X67964890Y10937581D03*
%TO.N,/MCU/AGC_TEMP_UHF*%
X73304400Y16230600D03*
X61163200Y46126400D03*
%TO.N,/MCU/GAIN_SET_UHF*%
X59131200Y45618400D03*
X56311800Y8001000D03*
X63195200Y17564100D03*
%TO.N,/MCU/FLAGB_RX_UHF*%
X79984600Y24942800D03*
X82804000Y11917420D03*
X64398400Y36998400D03*
X85140800Y33426400D03*
%TO.N,/MCU/FLAGB_TX_UHF*%
X79908400Y27432000D03*
X62814200Y44272200D03*
%TO.N,/MCU/RF_SPI_SCL*%
X38750000Y32560000D03*
X41071800Y31369000D03*
%TO.N,Net-(U1-BOOT0)*%
X44018200Y45643800D03*
%TO.N,Net-(C420-Pad2)*%
X45288200Y55219600D03*
%TO.N,/RF/SW_EN_UHF*%
X73660000Y17856200D03*
X56311800Y27127200D03*
X58547000Y24993600D03*
%TO.N,/RF/SW_CTL_UHF*%
X57277000Y23825200D03*
X73609200Y18694400D03*
X55041800Y19786600D03*
%TO.N,/MCU/VSET_AGC_UHF*%
X59690000Y44119800D03*
%TO.N,/MCU/P5V_RF_PG*%
X84518500Y26455400D03*
X50500000Y53835000D03*
X80975200Y53009800D03*
X60833000Y51892200D03*
X64233900Y40829962D03*
%TO.N,/MCU/EN_RX_UHF*%
X80518000Y23850600D03*
X64941247Y37133900D03*
X85728043Y32740474D03*
X87426800Y13411200D03*
%TO.N,/MCU/MMC_RST*%
X46900000Y39260000D03*
X15450000Y54585000D03*
%TO.N,/MCU/MONITOR_PG*%
X69000000Y55954500D03*
X84455000Y38608000D03*
X53350000Y57725000D03*
%TO.N,/MCU/MONITOR_TC*%
X79095600Y39370000D03*
X69175000Y58460000D03*
X85675000Y38600000D03*
X52775000Y57725000D03*
%TO.N,/MCU/MONITOR_CRITICAL*%
X76125000Y44725000D03*
X80900000Y44800000D03*
X56023916Y39868176D03*
%TO.N,/MCU/ALERT_T_PA_U*%
X75031600Y33426400D03*
X62230000Y44907200D03*
%TO.N,/MCU/ALERT_T_PA_S*%
X11353926Y33909006D03*
X12903200Y34798000D03*
X51575094Y54964500D03*
%TO.N,/MCU/ALERT_T_PCB*%
X60452000Y50850800D03*
%TO.N,/MCU/MONITOR_WARNING*%
X75301288Y44873712D03*
X80000000Y45325000D03*
X56246306Y42108605D03*
%TO.N,/RF/uhf-frontend/5V_RX_U*%
X65443100Y11684000D03*
X71043800Y12065000D03*
D19*
X53009800Y11709400D03*
X53027580Y18465800D03*
X54002800Y13385780D03*
D18*
X64262000Y9144000D03*
X64719200Y15875000D03*
D19*
X83515200Y10439400D03*
X83515200Y11176000D03*
X80721200Y9525000D03*
X54018180Y18465800D03*
%TO.N,/RF/uhf-frontend/5V_TX_U*%
X70218600Y32049200D03*
D18*
X76377800Y30378400D03*
X77241400Y30403800D03*
X75523081Y30389981D03*
D19*
X78270100Y28333700D03*
X78257400Y27432000D03*
X78986903Y27432000D03*
D18*
X72560000Y31330000D03*
D19*
X69062800Y32334200D03*
X69532800Y31325300D03*
X78282800Y26543000D03*
D18*
X72560000Y32160000D03*
D19*
X67411800Y32334200D03*
D18*
%TO.N,/RF/uhf-frontend/GAIN_SET*%
X65100200Y10922000D03*
X53187600Y5562600D03*
X56324500Y4559300D03*
X55092600Y11887200D03*
%TO.N,/RF/3.3V_AT*%
X54356000Y32639000D03*
X44145200Y29108400D03*
X53543200Y28981400D03*
X44145200Y27711400D03*
X53873400Y33121600D03*
X44170600Y32258000D03*
X49860400Y34544069D03*
X53543200Y31775400D03*
X53873400Y34518600D03*
%TO.N,Net-(U602-DVDD)*%
X43586400Y33832800D03*
%TO.N,GNSS_PPS*%
X12500000Y91585000D03*
X32187500Y33097500D03*
X44450000Y35810000D03*
%TO.N,JTMS-SWDIO*%
X46725000Y64285000D03*
X46700000Y59460000D03*
%TO.N,JTCK-SWCLK*%
X43925000Y64585000D03*
X41075000Y55498469D03*
%TO.N,MCU_NRSTD*%
X50800000Y39235000D03*
%TO.N,UART_RX*%
X48775000Y64635000D03*
X48775000Y59385000D03*
%TO.N,UART_TX*%
X48100000Y66010000D03*
X48100000Y59830500D03*
%TO.N,Net-(U602-XTAL2)*%
X53695600Y30251400D03*
%TO.N,Net-(U1017-PGOOD)*%
X85987200Y13432720D03*
%TO.N,/MCU/I2C4_SCL*%
X56475000Y60710000D03*
X77465647Y45850647D03*
X53200000Y59360000D03*
%TO.N,Net-(U3-EN{slash}SYNC)*%
X75102500Y55160000D03*
%TO.N,/MCU/I2C4_SDA*%
X79724977Y47307151D03*
X55425000Y61510000D03*
X52225000Y59735000D03*
%TO.N,Net-(U1001-ENBL)*%
X66675000Y17449800D03*
%TO.N,Net-(U1001-VOUT)*%
X67411604Y7340600D03*
X67729100Y12712700D03*
%TO.N,Net-(U1013-Shut_Down)*%
X76860400Y8839200D03*
%TO.N,/MCU/RF_SPI_MOSI*%
X41808400Y32486600D03*
X42450000Y30300900D03*
D19*
%TO.N,/RF/uhf-frontend/RX09P*%
X57175400Y19431000D03*
X60502800Y20039600D03*
%TO.N,/RF/uhf-frontend/RX09_VGA_OPN*%
X59232800Y16637000D03*
X56642000Y17627600D03*
D18*
%TO.N,Net-(RN603-R1.1)*%
X56311800Y25831800D03*
%TO.N,/MCU/RF_SPI_MISO*%
X41783000Y29768800D03*
X41554400Y31902400D03*
%TO.N,/MCU/EN_AMP_RX_UHF*%
X55104200Y12588500D03*
X74494900Y13169900D03*
X62738000Y16687800D03*
X55295800Y42037000D03*
%TO.N,/MCU/MCU_MMC_CK*%
X39950000Y53835000D03*
X31850000Y53360000D03*
%TO.N,/MCU/MCU_MMC_CMD*%
X39950000Y49451100D03*
X31600000Y51910000D03*
%TO.N,/MCU/MCU_MMC_D3*%
X19600000Y55560000D03*
X40391515Y54239469D03*
%TO.N,/MCU/MCU_MMC_D2*%
X21438000Y55585000D03*
X41039734Y54239469D03*
%TO.N,/MCU/MCU_MMC_D1*%
X20225000Y54110000D03*
X47149235Y52844900D03*
%TO.N,/MCU/MCU_MMC_D0*%
X47775000Y52510000D03*
X19725000Y54535000D03*
%TO.N,Net-(Q2-S1)*%
X61850000Y70332600D03*
X61823600Y71272400D03*
X69088000Y75565000D03*
X70002400Y75031600D03*
X71018400Y75565000D03*
X69088000Y74472800D03*
X58775600Y73177400D03*
X63115500Y74828300D03*
X71018400Y74472800D03*
X62941200Y71272400D03*
%TO.N,/MCU/EN_PA_UHF*%
X59461400Y47625000D03*
X82701268Y31089600D03*
%TO.N,/MCU/P3V3_RF_PG*%
X84556600Y28232100D03*
X48050000Y54510000D03*
X61341000Y52374800D03*
X64653538Y41273000D03*
%TO.N,/MCU/TCXO_EN*%
X53390800Y43535600D03*
%TO.N,/MCU/TCXO_OUT*%
X50596800Y43103800D03*
%TO.N,/MCU/MMC_EN*%
X32700000Y53289500D03*
X50700000Y52960000D03*
%TO.N,/MCU/I2C1_SDA*%
X66950000Y52346700D03*
X66900000Y54300000D03*
X67564000Y42443400D03*
X43586400Y46151800D03*
X60906600Y42443400D03*
%TO.N,/MCU/I2C1_SCL*%
X8343900Y31127700D03*
X69088000Y42443400D03*
X41706800Y45135800D03*
X69697600Y46024800D03*
X10134600Y34818017D03*
X10134600Y33883600D03*
X60900000Y39900000D03*
X72525000Y45285000D03*
%TO.N,/Main PSU/S2mos*%
X81381600Y54356000D03*
X85547200Y56070500D03*
X74847387Y63982600D03*
X81889600Y54356000D03*
X74853800Y62585600D03*
X83705700Y56070500D03*
X84658200Y55372000D03*
X73983787Y63195200D03*
X84658200Y56718200D03*
X73990200Y64770000D03*
%TO.N,/Main PSU/G2mos*%
X75742800Y65151000D03*
%TO.N,Net-(U1001-VSET)*%
X68351400Y12319000D03*
%TO.N,/CAN/CAN1_FAULT*%
X43738800Y50647600D03*
%TO.N,/CAN/CAN2_FAULT*%
X41681400Y49644308D03*
%TO.N,/CAN/CAN1_S*%
X44224100Y50139600D03*
%TO.N,/CAN/CAN2_S*%
X43662600Y48641000D03*
%TO.N,Net-(C1011-Pad2)*%
X65143500Y14732000D03*
%TO.N,/CAN/CAN1_TX*%
X40800000Y51385000D03*
%TD*%
D20*
%TO.N,3V3_D*%
X69425000Y48685000D02*
X69850000Y48685000D01*
X69200000Y48910000D02*
X69425000Y48685000D01*
D21*
%TO.N,GNSS_PPS*%
X34050000Y34960000D02*
X32187500Y33097500D01*
X43600000Y34960000D02*
X34050000Y34960000D01*
X44450000Y35810000D02*
X43600000Y34960000D01*
%TO.N,/MCU/GNSS_RSTN*%
X38525000Y40335000D02*
X38525000Y43810000D01*
X37250000Y39060000D02*
X38525000Y40335000D01*
X32150000Y39060000D02*
X37250000Y39060000D01*
X29750000Y32160000D02*
X29750000Y36660000D01*
X29750000Y36660000D02*
X32150000Y39060000D01*
X29050000Y31460000D02*
X29750000Y32160000D01*
X26850000Y31460000D02*
X29050000Y31460000D01*
%TO.N,JTCK-SWCLK*%
X41436531Y55860000D02*
X41075000Y55498469D01*
X42100000Y55860000D02*
X41436531Y55860000D01*
X43925000Y57685000D02*
X42100000Y55860000D01*
X43925000Y64585000D02*
X43925000Y57685000D01*
%TO.N,JTMS-SWDIO*%
X46725000Y59485000D02*
X46700000Y59460000D01*
X46725000Y64285000D02*
X46725000Y59485000D01*
%TO.N,UART_RX*%
X48775000Y64635000D02*
X48775000Y59385000D01*
%TO.N,UART_TX*%
X48100000Y66010000D02*
X48100000Y59830500D01*
%TO.N,GNSS_PPS*%
X12500000Y91585000D02*
X12500000Y89060000D01*
X4900000Y81460000D02*
X4900000Y32912132D01*
X12500000Y89060000D02*
X4900000Y81460000D01*
%TO.N,VIN*%
X69951600Y77901800D02*
X69672200Y78181200D01*
X69951600Y77622400D02*
X69951600Y77901800D01*
X57581800Y77749400D02*
X57581800Y77393800D01*
X69672200Y78181200D02*
X58013600Y78181200D01*
X58013600Y78181200D02*
X57581800Y77749400D01*
%TO.N,/MCU/GNSS_RSTN*%
X18250000Y26860000D02*
X22875000Y31485000D01*
X18250000Y21760000D02*
X18250000Y26860000D01*
X17010000Y20520000D02*
X18250000Y21760000D01*
X22875000Y31485000D02*
X23650000Y31485000D01*
%TO.N,/MCU/GNSS_UART_TX*%
X37650000Y40735000D02*
X36425000Y39510000D01*
X37650000Y43760000D02*
X37650000Y40735000D01*
X36425000Y39510000D02*
X27625000Y39510000D01*
X27625000Y39510000D02*
X25750000Y37635000D01*
X25750000Y37635000D02*
X25750000Y26060000D01*
%TO.N,/MCU/GNSS_UART_RX*%
X36975000Y43760000D02*
X36975000Y40735000D01*
X27375000Y39985000D02*
X24850000Y37460000D01*
X36975000Y40735000D02*
X36225000Y39985000D01*
X36225000Y39985000D02*
X27375000Y39985000D01*
X24850000Y37460000D02*
X24850000Y28235000D01*
X36950000Y43785000D02*
X36975000Y43760000D01*
D20*
%TO.N,3V3_D*%
X15113000Y39801800D02*
X16154400Y40843200D01*
D21*
X66040000Y76631800D02*
X56642000Y76631800D01*
D20*
X13665200Y36652200D02*
X8128000Y36652200D01*
X74650600Y43992800D02*
X74650600Y42772336D01*
X13665200Y36652200D02*
X14274800Y36652200D01*
X74650600Y42772336D02*
X71288264Y39410000D01*
D21*
X55854600Y77419200D02*
X55854600Y78409800D01*
X66294000Y77292200D02*
X66294000Y76885800D01*
D20*
X7416800Y34925000D02*
X7086600Y34594800D01*
X14274800Y36652200D02*
X15113000Y37490400D01*
X70650000Y48685000D02*
X69850000Y48685000D01*
X15113000Y37490400D02*
X15113000Y39801800D01*
X70150000Y39410000D02*
X69625000Y38885000D01*
X8128000Y36652200D02*
X7416800Y35941000D01*
X71288264Y39410000D02*
X70150000Y39410000D01*
X74650600Y43992800D02*
X74650600Y44684400D01*
X7086600Y34594800D02*
X6654800Y34594800D01*
D21*
X66294000Y76885800D02*
X66040000Y76631800D01*
D20*
X74650600Y44684400D02*
X70650000Y48685000D01*
X7416800Y35941000D02*
X7416800Y34925000D01*
D21*
X56642000Y76631800D02*
X55854600Y77419200D01*
%TO.N,/MCU/RF_RST*%
X54813200Y28067000D02*
X54442097Y27695897D01*
X54442097Y27695897D02*
X53517800Y27695897D01*
X54813200Y34823400D02*
X54813200Y28067000D01*
%TO.N,/MCU/EN_AGC_UHF*%
X70473800Y10936200D02*
X67984600Y10936200D01*
X70485000Y10947400D02*
X70473800Y10936200D01*
%TO.N,/MCU/GAIN_SET_UHF*%
X56594402Y8001000D02*
X63195200Y14601798D01*
X56311800Y8001000D02*
X56594402Y8001000D01*
X63195200Y14601798D02*
X63195200Y17564100D01*
%TO.N,/MCU/FLAGB_RX_UHF*%
X65074800Y36322000D02*
X83972400Y36322000D01*
X85140800Y35153600D02*
X85140800Y33426400D01*
X83972400Y36322000D02*
X85140800Y35153600D01*
X64398400Y36998400D02*
X65074800Y36322000D01*
%TO.N,/MCU/FLAGB_TX_UHF*%
X62788800Y34975800D02*
X63704600Y34060000D01*
X63704600Y34060000D02*
X81850000Y34060000D01*
X83197700Y32712300D02*
X83197700Y28117800D01*
X62814200Y44272200D02*
X62788800Y44246800D01*
X82511900Y27432000D02*
X79908400Y27432000D01*
X81850000Y34060000D02*
X83197700Y32712300D01*
X62788800Y44246800D02*
X62788800Y34975800D01*
X83197700Y28117800D02*
X82511900Y27432000D01*
%TO.N,/MCU/RF_SPI_SCL*%
X39941000Y31369000D02*
X41071800Y31369000D01*
X38750000Y32560000D02*
X39941000Y31369000D01*
%TO.N,/MCU/P5V_RF_PG*%
X63220600Y39293800D02*
X63220600Y35179000D01*
X63220600Y35179000D02*
X63839600Y34560000D01*
X71875000Y51835000D02*
X60890200Y51835000D01*
X80975200Y53009800D02*
X80485000Y53500000D01*
X64233900Y40829962D02*
X64233900Y40307100D01*
X64233900Y40307100D02*
X63220600Y39293800D01*
X53773104Y53835000D02*
X55715904Y51892200D01*
X73540000Y53500000D02*
X71875000Y51835000D01*
X82176100Y34560000D02*
X83693000Y33043100D01*
X50500000Y53835000D02*
X53773104Y53835000D01*
X80485000Y53500000D02*
X73540000Y53500000D01*
X84518500Y27343100D02*
X84518500Y26455400D01*
X63839600Y34560000D02*
X82176100Y34560000D01*
X83693000Y33043100D02*
X83693000Y28168600D01*
X60890200Y51835000D02*
X60833000Y51892200D01*
X83693000Y28168600D02*
X84518500Y27343100D01*
X55715904Y51892200D02*
X60833000Y51892200D01*
%TO.N,/MCU/EN_RX_UHF*%
X64941247Y37133900D02*
X65143547Y36931600D01*
X84226400Y36931600D02*
X85728043Y35429957D01*
X65143547Y36931600D02*
X84226400Y36931600D01*
X85728043Y35429957D02*
X85728043Y32740474D01*
%TO.N,/MCU/MMC_RST*%
X39725000Y48660000D02*
X36975000Y51410000D01*
X39725000Y43410000D02*
X39725000Y48660000D01*
X36975000Y51410000D02*
X18625000Y51410000D01*
X18625000Y51410000D02*
X15450000Y54585000D01*
X46900000Y39260000D02*
X43875000Y39260000D01*
X43875000Y39260000D02*
X39725000Y43410000D01*
%TO.N,/MCU/MONITOR_CRITICAL*%
X76200000Y44800000D02*
X76125000Y44725000D01*
X80900000Y44800000D02*
X76200000Y44800000D01*
%TO.N,/MCU/ALERT_T_PA_U*%
X62230000Y44907200D02*
X62230000Y34809696D01*
X63613296Y33426400D02*
X75031600Y33426400D01*
X62230000Y34809696D02*
X63613296Y33426400D01*
%TO.N,/MCU/MONITOR_WARNING*%
X75301288Y44873712D02*
X75563712Y44873712D01*
X75563712Y44873712D02*
X76015000Y45325000D01*
X76015000Y45325000D02*
X80000000Y45325000D01*
%TO.N,/MCU/I2C4_SCL*%
X77465647Y47027979D02*
X77465647Y45850647D01*
X80225000Y60710000D02*
X82344600Y58590400D01*
X56475000Y60710000D02*
X80225000Y60710000D01*
X82344600Y58590400D02*
X82344600Y51906932D01*
X54550000Y60710000D02*
X53200000Y59360000D01*
X82344600Y51906932D02*
X77465647Y47027979D01*
X56475000Y60710000D02*
X54550000Y60710000D01*
%TO.N,/MCU/I2C4_SDA*%
X80750000Y61510000D02*
X83125000Y59135000D01*
X54000000Y61510000D02*
X52225000Y59735000D01*
X83125000Y59135000D02*
X83125000Y51561268D01*
X83125000Y51561268D02*
X79724977Y48161245D01*
X55425000Y61510000D02*
X54000000Y61510000D01*
X55425000Y61510000D02*
X80750000Y61510000D01*
X79724977Y48161245D02*
X79724977Y47307151D01*
%TO.N,/MCU/RF_SPI_MOSI*%
X42159014Y30591886D02*
X42159014Y32135986D01*
X42159014Y32135986D02*
X41808400Y32486600D01*
X42450000Y30300900D02*
X42159014Y30591886D01*
D22*
%TO.N,/RF/uhf-frontend/RX09P*%
X57555400Y20039600D02*
X60502800Y20039600D01*
X57175400Y19431000D02*
X57175400Y19659600D01*
X57175400Y19659600D02*
X57555400Y20039600D01*
%TO.N,/RF/uhf-frontend/RX09_VGA_OPN*%
X59232800Y17145000D02*
X59232800Y16637000D01*
X56642000Y17627600D02*
X58750200Y17627600D01*
X58750200Y17627600D02*
X59232800Y17145000D01*
D21*
%TO.N,/MCU/RF_SPI_MISO*%
X41554400Y29997400D02*
X41783000Y29768800D01*
X41554400Y31902400D02*
X41554400Y29997400D01*
%TO.N,/MCU/EN_AMP_RX_UHF*%
X59131200Y11582400D02*
X56489600Y11582400D01*
X62738000Y16687800D02*
X62738000Y15189200D01*
X62738000Y15189200D02*
X59131200Y11582400D01*
X56489600Y11582400D02*
X55483500Y12588500D01*
X55483500Y12588500D02*
X55104200Y12588500D01*
%TO.N,/MCU/MCU_MMC_CK*%
X39950000Y53835000D02*
X32325000Y53835000D01*
X32325000Y53835000D02*
X31850000Y53360000D01*
%TO.N,/MCU/MCU_MMC_CMD*%
X31600000Y51910000D02*
X37275000Y51910000D01*
X39733900Y49451100D02*
X39950000Y49451100D01*
X37275000Y51910000D02*
X39733900Y49451100D01*
%TO.N,/MCU/MCU_MMC_D3*%
X24263468Y53705000D02*
X24268468Y53710000D01*
X19600000Y55560000D02*
X19675000Y55560000D01*
X32005000Y54290000D02*
X40340984Y54290000D01*
X19675000Y55560000D02*
X21530000Y53705000D01*
X21530000Y53705000D02*
X24263468Y53705000D01*
X40340984Y54290000D02*
X40391515Y54239469D01*
X31425000Y53710000D02*
X32005000Y54290000D01*
X24268468Y53710000D02*
X31425000Y53710000D01*
%TO.N,/MCU/MCU_MMC_D2*%
X40269203Y55010000D02*
X41039734Y54239469D01*
X21438000Y55585000D02*
X22013000Y55010000D01*
X22013000Y55010000D02*
X40269203Y55010000D01*
%TO.N,/MCU/MCU_MMC_D1*%
X20225000Y54110000D02*
X21500000Y52835000D01*
X47139335Y52835000D02*
X47149235Y52844900D01*
X21500000Y52835000D02*
X47139335Y52835000D01*
%TO.N,/MCU/MCU_MMC_D0*%
X21151132Y52390400D02*
X47655400Y52390400D01*
X19725000Y53816532D02*
X21151132Y52390400D01*
X47655400Y52390400D02*
X47775000Y52510000D01*
X19725000Y54535000D02*
X19725000Y53816532D01*
%TO.N,/MCU/EN_PA_UHF*%
X63347600Y32943800D02*
X61620400Y34671000D01*
X82701268Y31089600D02*
X81788000Y31089600D01*
X79933800Y32943800D02*
X63347600Y32943800D01*
X61620400Y46710600D02*
X60706000Y47625000D01*
X81788000Y31089600D02*
X79933800Y32943800D01*
X60706000Y47625000D02*
X59461400Y47625000D01*
X61620400Y34671000D02*
X61620400Y46710600D01*
%TO.N,/MCU/P3V3_RF_PG*%
X64653538Y41273000D02*
X64688900Y41237638D01*
X64688900Y41237638D02*
X64688900Y40050900D01*
X63754000Y36804600D02*
X64820800Y35737800D01*
X81915000Y35737800D02*
X84201000Y33451800D01*
X84201000Y33451800D02*
X84201000Y28321000D01*
X53767400Y54335000D02*
X55727600Y52374800D01*
X64688900Y40050900D02*
X63754000Y39116000D01*
X63754000Y39116000D02*
X63754000Y36804600D01*
X64820800Y35737800D02*
X81915000Y35737800D01*
X84201000Y28321000D02*
X84289900Y28232100D01*
X48050000Y54510000D02*
X48225000Y54335000D01*
X55727600Y52374800D02*
X61341000Y52374800D01*
X84289900Y28232100D02*
X84556600Y28232100D01*
X48225000Y54335000D02*
X53767400Y54335000D01*
%TO.N,/MCU/MMC_EN*%
X46960767Y53299900D02*
X50360100Y53299900D01*
X32700000Y53289500D02*
X32704500Y53285000D01*
X32704500Y53285000D02*
X46945867Y53285000D01*
X50360100Y53299900D02*
X50700000Y52960000D01*
X46945867Y53285000D02*
X46960767Y53299900D01*
%TO.N,/MCU/I2C1_SCL*%
X69697600Y45837400D02*
X69697600Y46024800D01*
X69925000Y45610000D02*
X69697600Y45837400D01*
X72200000Y45610000D02*
X69925000Y45610000D01*
X72525000Y45285000D02*
X72200000Y45610000D01*
%TD*%
%TA.AperFunction,Conductor*%
%TO.N,VIN*%
G36*
X78393862Y81840315D02*
G01*
X78439617Y81787511D01*
X78450820Y81736826D01*
X78486000Y76454000D01*
X84966000Y76454000D01*
X85033039Y76434315D01*
X85078794Y76381511D01*
X85090000Y76330000D01*
X85090000Y72260000D01*
X85070315Y72192961D01*
X85017511Y72147206D01*
X84966000Y72136000D01*
X79502000Y72136000D01*
X79502000Y67998126D01*
X79482315Y67931087D01*
X79429511Y67885332D01*
X79377875Y67874126D01*
X69719875Y67883875D01*
X69652855Y67903627D01*
X69607154Y67956477D01*
X69596000Y68007875D01*
X69596000Y72266000D01*
X69615685Y72333039D01*
X69668489Y72378794D01*
X69720000Y72390000D01*
X75396000Y72390000D01*
X75396000Y76454000D01*
X72539301Y76454000D01*
X72521657Y76455262D01*
X72520005Y76455500D01*
X72520000Y76455500D01*
X69720000Y76455500D01*
X69652961Y76475185D01*
X69607206Y76527989D01*
X69596000Y76579500D01*
X69596000Y81736000D01*
X69615685Y81803039D01*
X69668489Y81848794D01*
X69720000Y81860000D01*
X78326823Y81860000D01*
X78393862Y81840315D01*
G37*
%TD.AperFunction*%
%TD*%
%TA.AperFunction,Conductor*%
%TO.N,Net-(Q2-S1)*%
G36*
X72587039Y76180315D02*
G01*
X72632794Y76127511D01*
X72644000Y76076000D01*
X72644000Y73948000D01*
X72624315Y73880961D01*
X72571511Y73835206D01*
X72520000Y73824000D01*
X67106800Y73824000D01*
X67106800Y70228000D01*
X67087115Y70160961D01*
X67034311Y70115206D01*
X66982800Y70104000D01*
X61592000Y70104000D01*
X61524961Y70123685D01*
X61479206Y70176489D01*
X61468000Y70228000D01*
X61468000Y71577201D01*
X63573359Y71577201D01*
X63593022Y71440435D01*
X63650420Y71314753D01*
X63650421Y71314751D01*
X63740904Y71210328D01*
X63740906Y71210327D01*
X63740908Y71210325D01*
X63857138Y71135628D01*
X63857143Y71135626D01*
X63989712Y71096701D01*
X63989714Y71096700D01*
X63989715Y71096700D01*
X64127886Y71096700D01*
X64127886Y71096701D01*
X64260459Y71135627D01*
X64376696Y71210328D01*
X64460387Y71306914D01*
X64519165Y71344687D01*
X64589035Y71344687D01*
X64647812Y71306914D01*
X64731504Y71210328D01*
X64731506Y71210327D01*
X64731508Y71210325D01*
X64847738Y71135628D01*
X64847743Y71135626D01*
X64980312Y71096701D01*
X64980314Y71096700D01*
X64980315Y71096700D01*
X65118486Y71096700D01*
X65118486Y71096701D01*
X65251059Y71135627D01*
X65367296Y71210328D01*
X65457779Y71314751D01*
X65515177Y71440435D01*
X65534841Y71577200D01*
X65515177Y71713965D01*
X65457779Y71839649D01*
X65367296Y71944072D01*
X65290251Y71993586D01*
X65244498Y72046388D01*
X65234554Y72115547D01*
X65263579Y72179102D01*
X65290252Y72202215D01*
X65367296Y72251728D01*
X65457779Y72356151D01*
X65515177Y72481835D01*
X65534841Y72618600D01*
X65515177Y72755365D01*
X65457779Y72881049D01*
X65367296Y72985472D01*
X65367293Y72985474D01*
X65367291Y72985476D01*
X65251061Y73060173D01*
X65251056Y73060175D01*
X65118487Y73099100D01*
X65118485Y73099100D01*
X64980315Y73099100D01*
X64980312Y73099100D01*
X64847743Y73060175D01*
X64847738Y73060173D01*
X64731508Y72985476D01*
X64731506Y72985474D01*
X64641021Y72881049D01*
X64641020Y72881048D01*
X64583622Y72755366D01*
X64563959Y72618600D01*
X64583622Y72481835D01*
X64641020Y72356153D01*
X64641021Y72356151D01*
X64731504Y72251728D01*
X64731506Y72251727D01*
X64731505Y72251727D01*
X64808547Y72202215D01*
X64854301Y72149411D01*
X64864245Y72080253D01*
X64835220Y72016697D01*
X64808547Y71993585D01*
X64731505Y71944074D01*
X64731501Y71944070D01*
X64647812Y71847488D01*
X64589034Y71809714D01*
X64519164Y71809714D01*
X64460388Y71847488D01*
X64376698Y71944070D01*
X64376691Y71944076D01*
X64260461Y72018773D01*
X64260456Y72018775D01*
X64127887Y72057700D01*
X64127885Y72057700D01*
X63989715Y72057700D01*
X63989712Y72057700D01*
X63857143Y72018775D01*
X63857138Y72018773D01*
X63740908Y71944076D01*
X63740906Y71944074D01*
X63740904Y71944073D01*
X63740904Y71944072D01*
X63657214Y71847488D01*
X63650421Y71839649D01*
X63650420Y71839648D01*
X63593022Y71713966D01*
X63573359Y71577201D01*
X61468000Y71577201D01*
X61468000Y74523600D01*
X64563959Y74523600D01*
X64583622Y74386835D01*
X64608815Y74331672D01*
X64641021Y74261151D01*
X64731504Y74156728D01*
X64731506Y74156727D01*
X64731508Y74156725D01*
X64847738Y74082028D01*
X64847743Y74082026D01*
X64980312Y74043101D01*
X64980314Y74043100D01*
X64980315Y74043100D01*
X65118486Y74043100D01*
X65118486Y74043101D01*
X65251059Y74082027D01*
X65367296Y74156728D01*
X65457779Y74261151D01*
X65515177Y74386835D01*
X65534841Y74523600D01*
X65515177Y74660365D01*
X65457779Y74786049D01*
X65367296Y74890472D01*
X65367293Y74890474D01*
X65367291Y74890476D01*
X65251061Y74965173D01*
X65251056Y74965175D01*
X65118487Y75004100D01*
X65118485Y75004100D01*
X64980315Y75004100D01*
X64980312Y75004100D01*
X64847743Y74965175D01*
X64847738Y74965173D01*
X64731508Y74890476D01*
X64731506Y74890474D01*
X64641021Y74786049D01*
X64641020Y74786048D01*
X64583622Y74660366D01*
X64563959Y74523600D01*
X61468000Y74523600D01*
X61468000Y76076000D01*
X61487685Y76143039D01*
X61540489Y76188794D01*
X61592000Y76200000D01*
X72520000Y76200000D01*
X72587039Y76180315D01*
G37*
%TD.AperFunction*%
%TD*%
%TA.AperFunction,Conductor*%
%TO.N,/Main PSU/S2mos*%
G36*
X75273613Y65536315D02*
G01*
X75319368Y65483511D01*
X75329312Y65414353D01*
X75319368Y65380488D01*
X75277022Y65287766D01*
X75257359Y65151000D01*
X75277022Y65014235D01*
X75334420Y64888553D01*
X75334421Y64888551D01*
X75424904Y64784128D01*
X75424906Y64784127D01*
X75424908Y64784125D01*
X75541138Y64709428D01*
X75541143Y64709426D01*
X75673712Y64670501D01*
X75673714Y64670500D01*
X75673715Y64670500D01*
X75811886Y64670500D01*
X75811886Y64670501D01*
X75944459Y64709427D01*
X76060696Y64784128D01*
X76151179Y64888551D01*
X76208577Y65014235D01*
X76228241Y65151000D01*
X76208577Y65287765D01*
X76166232Y65380488D01*
X76156288Y65449647D01*
X76185313Y65513203D01*
X76244091Y65550977D01*
X76279026Y65556000D01*
X85931200Y65556000D01*
X85998239Y65536315D01*
X86043994Y65483511D01*
X86055200Y65432000D01*
X86055199Y60723649D01*
X86047381Y60680316D01*
X85959629Y60445040D01*
X85898804Y60165434D01*
X85878390Y59880002D01*
X85878390Y59879999D01*
X85898804Y59594567D01*
X85950655Y59356214D01*
X85959631Y59314954D01*
X86015146Y59166114D01*
X86047382Y59079685D01*
X86055200Y59036352D01*
X86055200Y54988000D01*
X86035515Y54920961D01*
X85982711Y54875206D01*
X85931200Y54864000D01*
X83624500Y54864000D01*
X83557461Y54883685D01*
X83511706Y54936489D01*
X83500500Y54988000D01*
X83500500Y59083196D01*
X83503139Y59108641D01*
X83503785Y59111725D01*
X83505367Y59119268D01*
X83503498Y59134260D01*
X83500977Y59154494D01*
X83500500Y59162170D01*
X83500500Y59166111D01*
X83500499Y59166117D01*
X83496870Y59187862D01*
X83496500Y59190402D01*
X83489866Y59243624D01*
X83489866Y59243626D01*
X83489864Y59243630D01*
X83487622Y59251160D01*
X83485065Y59258605D01*
X83485065Y59258610D01*
X83459536Y59305783D01*
X83458404Y59307982D01*
X83434826Y59356211D01*
X83434824Y59356213D01*
X83434824Y59356214D01*
X83430276Y59362584D01*
X83425420Y59368824D01*
X83425419Y59368826D01*
X83424605Y59369575D01*
X83418161Y59375508D01*
X83385946Y59405164D01*
X83384148Y59406889D01*
X81052149Y61738889D01*
X81036022Y61758748D01*
X81030086Y61767833D01*
X81030083Y61767837D01*
X81002074Y61789637D01*
X80996310Y61794728D01*
X80993515Y61797523D01*
X80975550Y61810348D01*
X80973512Y61811867D01*
X80931189Y61844809D01*
X80931188Y61844810D01*
X80924274Y61848552D01*
X80917197Y61852012D01*
X80865816Y61867309D01*
X80863377Y61868090D01*
X80812661Y61885500D01*
X80804923Y61886792D01*
X80797085Y61887769D01*
X80747826Y61885731D01*
X80743523Y61885553D01*
X80740966Y61885500D01*
X76083058Y61885500D01*
X76016019Y61905185D01*
X75970264Y61957989D01*
X75960320Y62027147D01*
X75989345Y62090703D01*
X76016019Y62113815D01*
X76060691Y62142525D01*
X76060690Y62142525D01*
X76060696Y62142528D01*
X76151179Y62246951D01*
X76208577Y62372635D01*
X76228241Y62509400D01*
X76208577Y62646165D01*
X76151179Y62771849D01*
X76060696Y62876272D01*
X76060693Y62876274D01*
X76060691Y62876276D01*
X75944461Y62950973D01*
X75944456Y62950975D01*
X75811887Y62989900D01*
X75811885Y62989900D01*
X75673715Y62989900D01*
X75673712Y62989900D01*
X75541143Y62950975D01*
X75541138Y62950973D01*
X75424908Y62876276D01*
X75424906Y62876274D01*
X75334421Y62771849D01*
X75334420Y62771848D01*
X75277022Y62646166D01*
X75257359Y62509400D01*
X75277022Y62372635D01*
X75334420Y62246953D01*
X75334421Y62246951D01*
X75424904Y62142528D01*
X75424906Y62142527D01*
X75424908Y62142525D01*
X75469581Y62113815D01*
X75515336Y62061012D01*
X75525280Y61991853D01*
X75496255Y61928297D01*
X75437477Y61890523D01*
X75402542Y61885500D01*
X73784000Y61885500D01*
X73716961Y61905185D01*
X73671206Y61957989D01*
X73660000Y62009500D01*
X73660000Y65432000D01*
X73679685Y65499039D01*
X73732489Y65544794D01*
X73784000Y65556000D01*
X75206574Y65556000D01*
X75273613Y65536315D01*
G37*
%TD.AperFunction*%
%TD*%
%TA.AperFunction,Conductor*%
%TO.N,/RF/uhf-frontend/5V_TX_U*%
G36*
X70732462Y32548615D02*
G01*
X70778217Y32495811D01*
X70788161Y32426653D01*
X70763800Y32368815D01*
X70752933Y32354654D01*
X70752932Y32354653D01*
X70694443Y32213445D01*
X70694442Y32213441D01*
X70674491Y32061900D01*
X70694442Y31910360D01*
X70694443Y31910356D01*
X70752933Y31769147D01*
X70752934Y31769144D01*
X70845982Y31647883D01*
X70967243Y31554835D01*
X70967244Y31554835D01*
X70967245Y31554834D01*
X71108459Y31496342D01*
X71260000Y31476391D01*
X71411541Y31496342D01*
X71552755Y31554834D01*
X71674017Y31647883D01*
X71767066Y31769145D01*
X71825558Y31910359D01*
X71845509Y32061900D01*
X71825558Y32213441D01*
X71803949Y32265608D01*
X71767067Y32354653D01*
X71767066Y32354654D01*
X71756200Y32368815D01*
X71731007Y32433984D01*
X71745046Y32502429D01*
X71793860Y32552418D01*
X71854577Y32568300D01*
X79378000Y32568300D01*
X79445039Y32548615D01*
X79490794Y32495811D01*
X79502000Y32444300D01*
X79502000Y30551100D01*
X79482315Y30484061D01*
X79429511Y30438306D01*
X79390676Y30429858D01*
X79390892Y30428362D01*
X79382112Y30427100D01*
X79249543Y30388175D01*
X79178504Y30342521D01*
X79111464Y30322837D01*
X79044425Y30342522D01*
X79017754Y30365632D01*
X78930896Y30465872D01*
X78930893Y30465874D01*
X78930891Y30465876D01*
X78814661Y30540573D01*
X78814656Y30540575D01*
X78682087Y30579500D01*
X78682085Y30579500D01*
X78543915Y30579500D01*
X78543912Y30579500D01*
X78411344Y30540575D01*
X78411342Y30540575D01*
X78362538Y30509210D01*
X78295498Y30489526D01*
X78228462Y30509210D01*
X78179656Y30540575D01*
X78047087Y30579500D01*
X78047085Y30579500D01*
X77908915Y30579500D01*
X77908912Y30579500D01*
X77776343Y30540575D01*
X77776338Y30540573D01*
X77660108Y30465876D01*
X77660106Y30465874D01*
X77660104Y30465873D01*
X77660104Y30465872D01*
X77573247Y30365634D01*
X77569621Y30361449D01*
X77569620Y30361448D01*
X77512222Y30235766D01*
X77492559Y30099000D01*
X77512222Y29962235D01*
X77565165Y29846309D01*
X77569621Y29836551D01*
X77634515Y29761659D01*
X77656733Y29713009D01*
X77659490Y29713643D01*
X77719157Y29694177D01*
X77776342Y29657426D01*
X77908912Y29618501D01*
X77908914Y29618500D01*
X77908915Y29618500D01*
X78047086Y29618500D01*
X78047086Y29618501D01*
X78179656Y29657426D01*
X78179657Y29657426D01*
X78206718Y29674817D01*
X78228460Y29688791D01*
X78295499Y29708475D01*
X78362537Y29688792D01*
X78384282Y29674817D01*
X78411343Y29657426D01*
X78543912Y29618501D01*
X78543914Y29618500D01*
X78543915Y29618500D01*
X78682086Y29618500D01*
X78682086Y29618501D01*
X78814656Y29657426D01*
X78814657Y29657426D01*
X78814659Y29657427D01*
X78885695Y29703080D01*
X78952733Y29722764D01*
X79019773Y29703080D01*
X79046444Y29679969D01*
X79133304Y29579728D01*
X79133306Y29579727D01*
X79133308Y29579725D01*
X79249538Y29505028D01*
X79249543Y29505026D01*
X79352420Y29474820D01*
X79382115Y29466100D01*
X79382119Y29466100D01*
X79390892Y29464838D01*
X79390543Y29462417D01*
X79445039Y29446415D01*
X79490794Y29393611D01*
X79502000Y29342100D01*
X79502000Y27725757D01*
X79490794Y27674245D01*
X79442622Y27568766D01*
X79422959Y27432000D01*
X79431955Y27369430D01*
X79422011Y27300271D01*
X79376257Y27247468D01*
X79285706Y27189274D01*
X79285704Y27189273D01*
X79285704Y27189272D01*
X79198905Y27089100D01*
X79195221Y27084849D01*
X79195220Y27084848D01*
X79137822Y26959166D01*
X79118159Y26822400D01*
X79137822Y26685635D01*
X79185136Y26582034D01*
X79195221Y26559951D01*
X79285704Y26455528D01*
X79401941Y26380827D01*
X79412934Y26377600D01*
X79471712Y26339826D01*
X79500738Y26276271D01*
X79502000Y26258622D01*
X79502000Y24971429D01*
X79500738Y24953783D01*
X79499159Y24942801D01*
X79500738Y24931818D01*
X79502000Y24914171D01*
X79502000Y21460000D01*
X79482315Y21392961D01*
X79429511Y21347206D01*
X79378000Y21336000D01*
X66418000Y21336000D01*
X66350961Y21355685D01*
X66305206Y21408489D01*
X66294000Y21460000D01*
X66294000Y22199600D01*
X74698559Y22199600D01*
X74718222Y22062835D01*
X74775620Y21937153D01*
X74775621Y21937151D01*
X74866104Y21832728D01*
X74866106Y21832727D01*
X74866108Y21832725D01*
X74982338Y21758028D01*
X74982343Y21758026D01*
X75114912Y21719101D01*
X75114914Y21719100D01*
X75114915Y21719100D01*
X75253086Y21719100D01*
X75253086Y21719101D01*
X75385659Y21758027D01*
X75501896Y21832728D01*
X75592379Y21937151D01*
X75649777Y22062835D01*
X75669441Y22199600D01*
X75649777Y22336365D01*
X75592379Y22462049D01*
X75501896Y22566472D01*
X75501893Y22566474D01*
X75501891Y22566476D01*
X75385661Y22641173D01*
X75385656Y22641175D01*
X75253087Y22680100D01*
X75253085Y22680100D01*
X75114915Y22680100D01*
X75114912Y22680100D01*
X74982343Y22641175D01*
X74982338Y22641173D01*
X74866108Y22566476D01*
X74866106Y22566474D01*
X74775621Y22462049D01*
X74775620Y22462048D01*
X74718222Y22336366D01*
X74698559Y22199600D01*
X66294000Y22199600D01*
X66294000Y23927700D01*
X69279053Y23927700D01*
X69299534Y23785244D01*
X69323379Y23733032D01*
X69359323Y23654327D01*
X69453572Y23545557D01*
X69574647Y23467747D01*
X69574650Y23467746D01*
X69574649Y23467746D01*
X69712736Y23427201D01*
X69712738Y23427200D01*
X69712739Y23427200D01*
X69856662Y23427200D01*
X69856662Y23427201D01*
X69994753Y23467747D01*
X70115828Y23545557D01*
X70210077Y23654327D01*
X70221906Y23680230D01*
X70267660Y23733032D01*
X70334700Y23752717D01*
X70401739Y23733033D01*
X70447493Y23680230D01*
X70459323Y23654327D01*
X70553572Y23545557D01*
X70674647Y23467747D01*
X70674650Y23467746D01*
X70674649Y23467746D01*
X70812736Y23427201D01*
X70812738Y23427200D01*
X70812739Y23427200D01*
X70956662Y23427200D01*
X70956662Y23427201D01*
X71094753Y23467747D01*
X71215828Y23545557D01*
X71310077Y23654327D01*
X71321906Y23680230D01*
X71367660Y23733032D01*
X71434700Y23752717D01*
X71501739Y23733033D01*
X71547493Y23680230D01*
X71559323Y23654327D01*
X71653572Y23545557D01*
X71774647Y23467747D01*
X71774650Y23467746D01*
X71774649Y23467746D01*
X71912736Y23427201D01*
X71912738Y23427200D01*
X71912739Y23427200D01*
X72056662Y23427200D01*
X72056662Y23427201D01*
X72194753Y23467747D01*
X72243541Y23499101D01*
X73373259Y23499101D01*
X73392922Y23362335D01*
X73450320Y23236653D01*
X73450321Y23236651D01*
X73540804Y23132228D01*
X73540806Y23132227D01*
X73540808Y23132225D01*
X73657038Y23057528D01*
X73657043Y23057526D01*
X73789612Y23018601D01*
X73789614Y23018600D01*
X73789615Y23018600D01*
X73927786Y23018600D01*
X73927786Y23018601D01*
X74060359Y23057527D01*
X74176596Y23132228D01*
X74267079Y23236651D01*
X74324477Y23362335D01*
X74344141Y23499100D01*
X74324477Y23635865D01*
X74267079Y23761549D01*
X74176596Y23865972D01*
X74176593Y23865974D01*
X74176591Y23865976D01*
X74060361Y23940673D01*
X74060356Y23940675D01*
X73927787Y23979600D01*
X73927785Y23979600D01*
X73789615Y23979600D01*
X73789612Y23979600D01*
X73657043Y23940675D01*
X73657038Y23940673D01*
X73540808Y23865976D01*
X73540806Y23865974D01*
X73450321Y23761549D01*
X73450320Y23761548D01*
X73392922Y23635866D01*
X73373259Y23499101D01*
X72243541Y23499101D01*
X72315828Y23545557D01*
X72410077Y23654327D01*
X72469865Y23785243D01*
X72490347Y23927700D01*
X72469865Y24070157D01*
X72410077Y24201073D01*
X72315828Y24309843D01*
X72315825Y24309845D01*
X72315826Y24309845D01*
X72216954Y24373386D01*
X72171200Y24426190D01*
X72161256Y24495348D01*
X72190281Y24558904D01*
X72216954Y24582015D01*
X72315828Y24645557D01*
X72410077Y24754327D01*
X72469865Y24885243D01*
X72490347Y25027700D01*
X72469865Y25170157D01*
X72410077Y25301073D01*
X72315828Y25409843D01*
X72216953Y25473386D01*
X72171200Y25526188D01*
X72161256Y25595346D01*
X72190281Y25658902D01*
X72216954Y25682015D01*
X72315828Y25745557D01*
X72410077Y25854327D01*
X72469865Y25985243D01*
X72490347Y26127700D01*
X72469865Y26270157D01*
X72410077Y26401073D01*
X72331030Y26492299D01*
X72302006Y26555853D01*
X72311950Y26625012D01*
X72357705Y26677816D01*
X72424744Y26697500D01*
X72459086Y26697500D01*
X72459086Y26697501D01*
X72591659Y26736427D01*
X72596351Y26739442D01*
X72658169Y26779171D01*
X72707896Y26811128D01*
X72798379Y26915551D01*
X72855777Y27041235D01*
X72862659Y27089100D01*
X76541591Y27089100D01*
X76558697Y26959165D01*
X76561542Y26937560D01*
X76561543Y26937556D01*
X76620033Y26796347D01*
X76620034Y26796344D01*
X76713082Y26675083D01*
X76834343Y26582035D01*
X76834344Y26582035D01*
X76834345Y26582034D01*
X76975559Y26523542D01*
X77127100Y26503591D01*
X77278641Y26523542D01*
X77419855Y26582034D01*
X77541117Y26675083D01*
X77634166Y26796345D01*
X77692658Y26937559D01*
X77712609Y27089100D01*
X77692658Y27240641D01*
X77652105Y27338546D01*
X77634167Y27381853D01*
X77634165Y27381856D01*
X77541115Y27503120D01*
X77535367Y27508868D01*
X77537275Y27510776D01*
X77503896Y27556490D01*
X77499741Y27626236D01*
X77533953Y27687157D01*
X77543220Y27695186D01*
X77544017Y27695983D01*
X77566864Y27725757D01*
X77637066Y27817245D01*
X77695558Y27958459D01*
X77715509Y28110000D01*
X77695558Y28261541D01*
X77673949Y28313708D01*
X77637067Y28402753D01*
X77637065Y28402756D01*
X77544237Y28523730D01*
X77519042Y28588899D01*
X77533080Y28657344D01*
X77549338Y28679330D01*
X77549070Y28679535D01*
X77647065Y28807244D01*
X77647064Y28807244D01*
X77647066Y28807245D01*
X77705558Y28948459D01*
X77725509Y29100000D01*
X77705558Y29251541D01*
X77683949Y29303708D01*
X77647067Y29392753D01*
X77647065Y29392756D01*
X77560915Y29505027D01*
X77554017Y29514017D01*
X77554016Y29514018D01*
X77553742Y29514375D01*
X77537046Y29557560D01*
X77473763Y29576141D01*
X77465322Y29582076D01*
X77432755Y29607066D01*
X77432754Y29607067D01*
X77432752Y29607068D01*
X77291544Y29665557D01*
X77291542Y29665558D01*
X77291541Y29665558D01*
X77140000Y29685509D01*
X76988459Y29665558D01*
X76988455Y29665557D01*
X76847247Y29607068D01*
X76847244Y29607066D01*
X76725983Y29514018D01*
X76725982Y29514017D01*
X76632934Y29392756D01*
X76632932Y29392753D01*
X76574443Y29251545D01*
X76574442Y29251541D01*
X76554491Y29100000D01*
X76571863Y28968045D01*
X76574442Y28948460D01*
X76574443Y28948456D01*
X76632932Y28807248D01*
X76632933Y28807247D01*
X76632934Y28807245D01*
X76718877Y28695244D01*
X76725762Y28686271D01*
X76750956Y28621102D01*
X76736918Y28552657D01*
X76720663Y28530669D01*
X76720930Y28530464D01*
X76622934Y28402756D01*
X76622932Y28402753D01*
X76564443Y28261545D01*
X76564442Y28261541D01*
X76544491Y28110001D01*
X76564442Y27958460D01*
X76564443Y27958456D01*
X76622933Y27817247D01*
X76622934Y27817244D01*
X76715982Y27695983D01*
X76721729Y27690236D01*
X76719820Y27688328D01*
X76753201Y27642618D01*
X76757360Y27572872D01*
X76723151Y27511950D01*
X76713889Y27503924D01*
X76713082Y27503117D01*
X76620034Y27381856D01*
X76620032Y27381853D01*
X76561543Y27240645D01*
X76561542Y27240641D01*
X76541591Y27089100D01*
X72862659Y27089100D01*
X72875441Y27178000D01*
X72855777Y27314765D01*
X72798379Y27440449D01*
X72707896Y27544872D01*
X72707893Y27544874D01*
X72707891Y27544876D01*
X72591661Y27619573D01*
X72591656Y27619575D01*
X72459087Y27658500D01*
X72459085Y27658500D01*
X72320915Y27658500D01*
X72320912Y27658500D01*
X72188343Y27619575D01*
X72188338Y27619573D01*
X72072108Y27544876D01*
X72072106Y27544874D01*
X72072104Y27544873D01*
X72072104Y27544872D01*
X72035926Y27503120D01*
X71981621Y27440449D01*
X71981620Y27440448D01*
X71924222Y27314766D01*
X71904559Y27178001D01*
X71924222Y27041235D01*
X71981620Y26915553D01*
X71981621Y26915551D01*
X72052803Y26833403D01*
X72081828Y26769847D01*
X72071884Y26700689D01*
X72026130Y26647885D01*
X71959090Y26628200D01*
X71912736Y26628200D01*
X71774649Y26587655D01*
X71653573Y26509844D01*
X71559323Y26401074D01*
X71559322Y26401072D01*
X71547494Y26375172D01*
X71501739Y26322368D01*
X71434699Y26302684D01*
X71367660Y26322369D01*
X71321906Y26375172D01*
X71310077Y26401072D01*
X71310076Y26401074D01*
X71215828Y26509843D01*
X71094753Y26587653D01*
X71094751Y26587654D01*
X71094749Y26587655D01*
X71094750Y26587655D01*
X70956663Y26628200D01*
X70956661Y26628200D01*
X70812739Y26628200D01*
X70812736Y26628200D01*
X70674649Y26587655D01*
X70553573Y26509844D01*
X70459323Y26401074D01*
X70459322Y26401072D01*
X70447494Y26375172D01*
X70401739Y26322368D01*
X70334699Y26302684D01*
X70267660Y26322369D01*
X70221906Y26375172D01*
X70210077Y26401072D01*
X70210076Y26401074D01*
X70115828Y26509843D01*
X69994753Y26587653D01*
X69994751Y26587654D01*
X69994749Y26587655D01*
X69994750Y26587655D01*
X69856663Y26628200D01*
X69856661Y26628200D01*
X69712739Y26628200D01*
X69712736Y26628200D01*
X69574649Y26587655D01*
X69453573Y26509844D01*
X69359323Y26401074D01*
X69359322Y26401072D01*
X69299534Y26270157D01*
X69279053Y26127700D01*
X69299534Y25985244D01*
X69323379Y25933032D01*
X69359323Y25854327D01*
X69453572Y25745557D01*
X69453574Y25745556D01*
X69453576Y25745554D01*
X69552444Y25682015D01*
X69598199Y25629212D01*
X69608143Y25560053D01*
X69579118Y25496497D01*
X69552444Y25473385D01*
X69453576Y25409847D01*
X69453574Y25409845D01*
X69359323Y25301074D01*
X69359322Y25301072D01*
X69299534Y25170157D01*
X69279053Y25027700D01*
X69299534Y24885244D01*
X69323379Y24833032D01*
X69359323Y24754327D01*
X69453572Y24645557D01*
X69552446Y24582015D01*
X69598199Y24529213D01*
X69608143Y24460055D01*
X69579119Y24396499D01*
X69552445Y24373386D01*
X69453574Y24309845D01*
X69359323Y24201074D01*
X69359322Y24201072D01*
X69299534Y24070157D01*
X69279053Y23927700D01*
X66294000Y23927700D01*
X66294000Y26627867D01*
X66313685Y26694906D01*
X66366489Y26740661D01*
X66435647Y26750605D01*
X66465448Y26742429D01*
X66472659Y26739442D01*
X66624200Y26719491D01*
X66775741Y26739442D01*
X66916955Y26797934D01*
X67038217Y26890983D01*
X67131266Y27012245D01*
X67189758Y27153459D01*
X67209709Y27305000D01*
X67189758Y27456541D01*
X67166807Y27511950D01*
X67131267Y27597753D01*
X67131265Y27597756D01*
X67062664Y27687157D01*
X67038217Y27719017D01*
X67038215Y27719018D01*
X67038215Y27719019D01*
X66916956Y27812066D01*
X66916953Y27812067D01*
X66775744Y27870557D01*
X66775742Y27870558D01*
X66775741Y27870558D01*
X66624200Y27890509D01*
X66472659Y27870558D01*
X66472655Y27870557D01*
X66465452Y27867573D01*
X66395982Y27860104D01*
X66333503Y27891380D01*
X66297852Y27951469D01*
X66294000Y27982134D01*
X66294000Y29260800D01*
X68629691Y29260800D01*
X68649642Y29109260D01*
X68649643Y29109256D01*
X68708133Y28968047D01*
X68708134Y28968044D01*
X68801182Y28846783D01*
X68922443Y28753735D01*
X68922444Y28753735D01*
X68922445Y28753734D01*
X69063659Y28695242D01*
X69215200Y28675291D01*
X69283066Y28684226D01*
X69352100Y28673461D01*
X69404356Y28627081D01*
X69423242Y28559812D01*
X69422190Y28545102D01*
X69404391Y28409902D01*
X69404391Y28409901D01*
X69424342Y28258360D01*
X69424343Y28258356D01*
X69482833Y28117147D01*
X69482834Y28117144D01*
X69575882Y27995883D01*
X69697143Y27902835D01*
X69697144Y27902835D01*
X69697145Y27902834D01*
X69838359Y27844342D01*
X69989900Y27824391D01*
X70141441Y27844342D01*
X70282655Y27902834D01*
X70403917Y27995883D01*
X70496966Y28117145D01*
X70555458Y28258359D01*
X70575409Y28409900D01*
X70555458Y28561441D01*
X70506627Y28679330D01*
X70496967Y28702653D01*
X70496965Y28702656D01*
X70437617Y28779999D01*
X70403917Y28823917D01*
X70403915Y28823918D01*
X70403915Y28823919D01*
X70282656Y28916966D01*
X70282653Y28916967D01*
X70141444Y28975457D01*
X70141442Y28975458D01*
X70141441Y28975458D01*
X69989900Y28995409D01*
X69989897Y28995409D01*
X69922032Y28986475D01*
X69852997Y28997241D01*
X69800742Y29043622D01*
X69781857Y29110891D01*
X69782909Y29125600D01*
X69800709Y29260800D01*
X69780758Y29412341D01*
X69742367Y29505026D01*
X69722267Y29553553D01*
X69722265Y29553556D01*
X69672430Y29618501D01*
X69629217Y29674817D01*
X69629215Y29674818D01*
X69629215Y29674819D01*
X69507956Y29767866D01*
X69507953Y29767867D01*
X69366744Y29826357D01*
X69366742Y29826358D01*
X69366741Y29826358D01*
X69215200Y29846309D01*
X69063659Y29826358D01*
X69063655Y29826357D01*
X68922447Y29767868D01*
X68922444Y29767866D01*
X68801183Y29674818D01*
X68801182Y29674817D01*
X68708134Y29553556D01*
X68708132Y29553553D01*
X68649643Y29412345D01*
X68649642Y29412341D01*
X68629691Y29260800D01*
X66294000Y29260800D01*
X66294000Y32444300D01*
X66313685Y32511339D01*
X66366489Y32557094D01*
X66418000Y32568300D01*
X70665423Y32568300D01*
X70732462Y32548615D01*
G37*
%TD.AperFunction*%
%TD*%
%TA.AperFunction,Conductor*%
%TO.N,3V3_D*%
G36*
X69643039Y49390315D02*
G01*
X69688794Y49337511D01*
X69700000Y49286000D01*
X69700000Y47034000D01*
X69680315Y46966961D01*
X69627511Y46921206D01*
X69576000Y46910000D01*
X67574000Y46910000D01*
X67506961Y46929685D01*
X67461206Y46982489D01*
X67450000Y47034000D01*
X67450000Y49286000D01*
X67469685Y49353039D01*
X67522489Y49398794D01*
X67574000Y49410000D01*
X69576000Y49410000D01*
X69643039Y49390315D01*
G37*
%TD.AperFunction*%
%TD*%
M02*
