%TF.GenerationSoftware,KiCad,Pcbnew,7.0.5*%
%TF.CreationDate,2024-04-22T16:49:58+03:00*%
%TF.ProjectId,satnogs-comms,7361746e-6f67-4732-9d63-6f6d6d732e6b,rev?*%
%TF.SameCoordinates,PX4eb9cf0PY82ce540*%
%TF.FileFunction,Paste,Top*%
%TF.FilePolarity,Positive*%
%FSLAX46Y46*%
G04 Gerber Fmt 4.6, Leading zero omitted, Abs format (unit mm)*
G04 Created by KiCad (PCBNEW 7.0.5) date 2024-04-22 16:49:58*
%MOMM*%
%LPD*%
G01*
G04 APERTURE LIST*
G04 Aperture macros list*
%AMRoundRect*
0 Rectangle with rounded corners*
0 $1 Rounding radius*
0 $2 $3 $4 $5 $6 $7 $8 $9 X,Y pos of 4 corners*
0 Add a 4 corners polygon primitive as box body*
4,1,4,$2,$3,$4,$5,$6,$7,$8,$9,$2,$3,0*
0 Add four circle primitives for the rounded corners*
1,1,$1+$1,$2,$3*
1,1,$1+$1,$4,$5*
1,1,$1+$1,$6,$7*
1,1,$1+$1,$8,$9*
0 Add four rect primitives between the rounded corners*
20,1,$1+$1,$2,$3,$4,$5,0*
20,1,$1+$1,$4,$5,$6,$7,0*
20,1,$1+$1,$6,$7,$8,$9,0*
20,1,$1+$1,$8,$9,$2,$3,0*%
%AMRotRect*
0 Rectangle, with rotation*
0 The origin of the aperture is its center*
0 $1 length*
0 $2 width*
0 $3 Rotation angle, in degrees counterclockwise*
0 Add horizontal line*
21,1,$1,$2,0,0,$3*%
%AMFreePoly0*
4,1,14,0.155252,0.089749,0.264749,-0.019748,0.275000,-0.044497,0.275000,-0.065000,0.264749,-0.089749,0.240000,-0.100000,-0.240000,-0.100000,-0.264749,-0.089749,-0.275000,-0.065000,-0.275000,0.065000,-0.264749,0.089749,-0.240000,0.100000,0.130503,0.100000,0.155252,0.089749,0.155252,0.089749,$1*%
%AMFreePoly1*
4,1,14,0.264749,0.089749,0.275000,0.065000,0.275000,0.044497,0.264749,0.019748,0.155252,-0.089749,0.130503,-0.100000,-0.240000,-0.100000,-0.264749,-0.089749,-0.275000,-0.065000,-0.275000,0.065000,-0.264749,0.089749,-0.240000,0.100000,0.240000,0.100000,0.264749,0.089749,0.264749,0.089749,$1*%
%AMFreePoly2*
4,1,14,0.089749,0.264749,0.100000,0.240000,0.100000,-0.240000,0.089749,-0.264749,0.065000,-0.275000,-0.065000,-0.275000,-0.089749,-0.264749,-0.100000,-0.240000,-0.100000,0.130503,-0.089749,0.155252,0.019748,0.264749,0.044497,0.275000,0.065000,0.275000,0.089749,0.264749,0.089749,0.264749,$1*%
%AMFreePoly3*
4,1,14,-0.019748,0.264749,0.089749,0.155252,0.100000,0.130503,0.100000,-0.240000,0.089749,-0.264749,0.065000,-0.275000,-0.065000,-0.275000,-0.089749,-0.264749,-0.100000,-0.240000,-0.100000,0.240000,-0.089749,0.264749,-0.065000,0.275000,-0.044497,0.275000,-0.019748,0.264749,-0.019748,0.264749,$1*%
%AMFreePoly4*
4,1,14,0.264749,0.089749,0.275000,0.065000,0.275000,-0.065000,0.264749,-0.089749,0.240000,-0.100000,-0.130503,-0.100000,-0.155252,-0.089749,-0.264749,0.019748,-0.275000,0.044497,-0.275000,0.065000,-0.264749,0.089749,-0.240000,0.100000,0.240000,0.100000,0.264749,0.089749,0.264749,0.089749,$1*%
%AMFreePoly5*
4,1,14,0.264749,0.089749,0.275000,0.065000,0.275000,-0.065000,0.264749,-0.089749,0.240000,-0.100000,-0.240000,-0.100000,-0.264749,-0.089749,-0.275000,-0.065000,-0.275000,-0.044497,-0.264749,-0.019748,-0.155252,0.089749,-0.130503,0.100000,0.240000,0.100000,0.264749,0.089749,0.264749,0.089749,$1*%
%AMFreePoly6*
4,1,14,0.089749,0.264749,0.100000,0.240000,0.100000,-0.130503,0.089749,-0.155252,-0.019748,-0.264749,-0.044497,-0.275000,-0.065000,-0.275000,-0.089749,-0.264749,-0.100000,-0.240000,-0.100000,0.240000,-0.089749,0.264749,-0.065000,0.275000,0.065000,0.275000,0.089749,0.264749,0.089749,0.264749,$1*%
%AMFreePoly7*
4,1,14,0.089749,0.264749,0.100000,0.240000,0.100000,-0.240000,0.089749,-0.264749,0.065000,-0.275000,0.044497,-0.275000,0.019748,-0.264749,-0.089749,-0.155252,-0.100000,-0.130503,-0.100000,0.240000,-0.089749,0.264749,-0.065000,0.275000,0.065000,0.275000,0.089749,0.264749,0.089749,0.264749,$1*%
%AMFreePoly8*
4,1,7,1.500000,-0.775000,-1.500000,-0.775000,-1.500000,0.225000,-6.000000,0.225000,-6.000000,0.775000,1.500000,0.775000,1.500000,-0.775000,1.500000,-0.775000,$1*%
%AMFreePoly9*
4,1,8,1.500000,-0.775000,-1.500000,-0.775000,-6.000000,-0.775000,-6.000000,-0.225000,-1.500000,-0.225000,-1.500000,0.775000,1.500000,0.775000,1.500000,-0.775000,1.500000,-0.775000,$1*%
%AMFreePoly10*
4,1,6,0.125000,-0.099500,-0.013000,-0.237500,-0.125000,-0.237500,-0.125000,0.237500,0.125000,0.237500,0.125000,-0.099500,0.125000,-0.099500,$1*%
%AMFreePoly11*
4,1,6,0.125000,0.099500,0.125000,-0.237500,-0.125000,-0.237500,-0.125000,0.237500,-0.013000,0.237500,0.125000,0.099500,0.125000,0.099500,$1*%
%AMFreePoly12*
4,1,36,0.462941,0.544983,0.479174,0.544983,0.492307,0.535440,0.507748,0.530424,0.517290,0.517290,0.530424,0.507748,0.535440,0.492307,0.544983,0.479174,0.544983,0.462940,0.550000,0.447500,0.550000,-0.447500,0.544983,-0.462940,0.544983,-0.479174,0.535440,-0.492307,0.530424,-0.507748,0.517290,-0.517290,0.507748,-0.530424,0.492307,-0.535440,0.479174,-0.544983,0.462941,-0.544983,
0.447500,-0.550000,-0.447500,-0.550000,-0.462941,-0.544983,-0.479174,-0.544983,-0.492307,-0.535440,-0.507748,-0.530424,-0.517290,-0.517290,-0.530424,-0.507748,-0.535440,-0.492307,-0.544983,-0.479174,-0.544983,-0.462940,-0.550000,-0.447500,-0.550000,0.350000,-0.350000,0.550000,0.447500,0.550000,0.462941,0.544983,0.462941,0.544983,$1*%
G04 Aperture macros list end*
%ADD10RoundRect,0.075000X0.075000X0.075000X-0.075000X0.075000X-0.075000X-0.075000X0.075000X-0.075000X0*%
%ADD11FreePoly0,180.000000*%
%ADD12RoundRect,0.050000X0.225000X0.050000X-0.225000X0.050000X-0.225000X-0.050000X0.225000X-0.050000X0*%
%ADD13FreePoly1,180.000000*%
%ADD14FreePoly2,180.000000*%
%ADD15RoundRect,0.050000X0.050000X0.225000X-0.050000X0.225000X-0.050000X-0.225000X0.050000X-0.225000X0*%
%ADD16FreePoly3,180.000000*%
%ADD17FreePoly4,180.000000*%
%ADD18FreePoly5,180.000000*%
%ADD19FreePoly6,180.000000*%
%ADD20FreePoly7,180.000000*%
%ADD21R,0.740000X0.740000*%
%ADD22RoundRect,0.250000X-0.250000X-0.475000X0.250000X-0.475000X0.250000X0.475000X-0.250000X0.475000X0*%
%ADD23RoundRect,0.250000X0.475000X-0.250000X0.475000X0.250000X-0.475000X0.250000X-0.475000X-0.250000X0*%
%ADD24R,2.350000X5.100000*%
%ADD25RoundRect,0.200000X0.275000X-0.200000X0.275000X0.200000X-0.275000X0.200000X-0.275000X-0.200000X0*%
%ADD26RoundRect,0.200000X-0.275000X0.200000X-0.275000X-0.200000X0.275000X-0.200000X0.275000X0.200000X0*%
%ADD27R,2.600000X1.100000*%
%ADD28FreePoly8,180.000000*%
%ADD29FreePoly9,180.000000*%
%ADD30RoundRect,0.140000X-0.140000X-0.170000X0.140000X-0.170000X0.140000X0.170000X-0.140000X0.170000X0*%
%ADD31RoundRect,0.147500X0.017678X-0.226274X0.226274X-0.017678X-0.017678X0.226274X-0.226274X0.017678X0*%
%ADD32RoundRect,0.250000X0.450000X-0.262500X0.450000X0.262500X-0.450000X0.262500X-0.450000X-0.262500X0*%
%ADD33FreePoly8,0.000000*%
%ADD34FreePoly9,0.000000*%
%ADD35RoundRect,0.147500X0.172500X-0.147500X0.172500X0.147500X-0.172500X0.147500X-0.172500X-0.147500X0*%
%ADD36RotRect,0.350000X1.000000X45.000000*%
%ADD37RotRect,0.350000X1.000000X315.000000*%
%ADD38RoundRect,0.140000X-0.021213X0.219203X-0.219203X0.021213X0.021213X-0.219203X0.219203X-0.021213X0*%
%ADD39RoundRect,0.140000X0.170000X-0.140000X0.170000X0.140000X-0.170000X0.140000X-0.170000X-0.140000X0*%
%ADD40FreePoly10,270.000000*%
%ADD41R,0.475000X0.250000*%
%ADD42FreePoly11,90.000000*%
%ADD43FreePoly10,0.000000*%
%ADD44R,0.250000X0.475000*%
%ADD45FreePoly11,180.000000*%
%ADD46FreePoly10,90.000000*%
%ADD47FreePoly11,270.000000*%
%ADD48FreePoly10,180.000000*%
%ADD49FreePoly11,0.000000*%
%ADD50FreePoly12,180.000000*%
%ADD51RoundRect,0.147500X-0.147500X-0.172500X0.147500X-0.172500X0.147500X0.172500X-0.147500X0.172500X0*%
%ADD52RoundRect,0.140000X-0.180000X0.140000X-0.180000X-0.140000X0.180000X-0.140000X0.180000X0.140000X0*%
%ADD53RoundRect,0.075000X-0.075000X0.275000X-0.075000X-0.275000X0.075000X-0.275000X0.075000X0.275000X0*%
%ADD54R,0.750000X0.400000*%
%ADD55RoundRect,0.135000X0.135000X0.185000X-0.135000X0.185000X-0.135000X-0.185000X0.135000X-0.185000X0*%
%ADD56RoundRect,0.135000X0.185000X-0.135000X0.185000X0.135000X-0.185000X0.135000X-0.185000X-0.135000X0*%
%ADD57RoundRect,0.140000X-0.170000X0.140000X-0.170000X-0.140000X0.170000X-0.140000X0.170000X0.140000X0*%
%ADD58RoundRect,0.147500X-0.172500X0.147500X-0.172500X-0.147500X0.172500X-0.147500X0.172500X0.147500X0*%
%ADD59R,2.370000X2.230000*%
%ADD60RoundRect,0.140000X0.140000X0.170000X-0.140000X0.170000X-0.140000X-0.170000X0.140000X-0.170000X0*%
%ADD61RoundRect,0.150000X-0.512500X-0.150000X0.512500X-0.150000X0.512500X0.150000X-0.512500X0.150000X0*%
%ADD62RoundRect,0.225000X0.225000X0.250000X-0.225000X0.250000X-0.225000X-0.250000X0.225000X-0.250000X0*%
%ADD63RoundRect,0.135000X-0.135000X-0.185000X0.135000X-0.185000X0.135000X0.185000X-0.135000X0.185000X0*%
%ADD64RoundRect,0.135000X-0.185000X0.135000X-0.185000X-0.135000X0.185000X-0.135000X0.185000X0.135000X0*%
%ADD65RoundRect,0.225000X-0.250000X0.225000X-0.250000X-0.225000X0.250000X-0.225000X0.250000X0.225000X0*%
%ADD66RotRect,0.750000X0.400000X135.000000*%
%ADD67RotRect,0.750000X0.400000X315.000000*%
%ADD68RoundRect,0.250000X-0.335000X-0.335000X0.335000X-0.335000X0.335000X0.335000X-0.335000X0.335000X0*%
%ADD69RoundRect,0.062500X-0.350000X-0.062500X0.350000X-0.062500X0.350000X0.062500X-0.350000X0.062500X0*%
%ADD70RoundRect,0.062500X-0.062500X-0.350000X0.062500X-0.350000X0.062500X0.350000X-0.062500X0.350000X0*%
%ADD71RotRect,0.350000X1.000000X135.000000*%
%ADD72RoundRect,0.250000X0.315000X-0.315000X0.315000X0.315000X-0.315000X0.315000X-0.315000X-0.315000X0*%
%ADD73RoundRect,0.062500X0.062500X-0.375000X0.062500X0.375000X-0.062500X0.375000X-0.062500X-0.375000X0*%
%ADD74RoundRect,0.062500X0.375000X-0.062500X0.375000X0.062500X-0.375000X0.062500X-0.375000X-0.062500X0*%
%ADD75R,0.550000X0.500000*%
%ADD76RoundRect,0.240000X0.240000X-0.240000X0.240000X0.240000X-0.240000X0.240000X-0.240000X-0.240000X0*%
%ADD77RoundRect,0.147500X0.147500X0.172500X-0.147500X0.172500X-0.147500X-0.172500X0.147500X-0.172500X0*%
%ADD78RoundRect,0.218750X0.256250X-0.218750X0.256250X0.218750X-0.256250X0.218750X-0.256250X-0.218750X0*%
%ADD79R,0.500000X0.400000*%
%ADD80R,0.500000X0.300000*%
%ADD81RoundRect,0.227500X-0.227500X-0.227500X0.227500X-0.227500X0.227500X0.227500X-0.227500X0.227500X0*%
%ADD82RoundRect,0.075000X-0.350000X-0.075000X0.350000X-0.075000X0.350000X0.075000X-0.350000X0.075000X0*%
%ADD83RoundRect,0.075000X-0.075000X-0.350000X0.075000X-0.350000X0.075000X0.350000X-0.075000X0.350000X0*%
%ADD84R,0.410000X0.720000*%
%ADD85R,1.730000X3.990000*%
%ADD86R,0.470000X0.410000*%
%ADD87R,0.585000X0.510000*%
%ADD88R,3.400000X1.800000*%
%ADD89RoundRect,0.050000X0.275000X-0.050000X0.275000X0.050000X-0.275000X0.050000X-0.275000X-0.050000X0*%
%ADD90RoundRect,0.050000X0.450000X-0.050000X0.450000X0.050000X-0.450000X0.050000X-0.450000X-0.050000X0*%
%ADD91RoundRect,0.062500X0.062500X0.212500X-0.062500X0.212500X-0.062500X-0.212500X0.062500X-0.212500X0*%
%ADD92RoundRect,0.062500X-0.062500X-0.212500X0.062500X-0.212500X0.062500X0.212500X-0.062500X0.212500X0*%
%ADD93RoundRect,0.225000X0.250000X-0.225000X0.250000X0.225000X-0.250000X0.225000X-0.250000X-0.225000X0*%
%ADD94RoundRect,0.250000X0.250000X0.475000X-0.250000X0.475000X-0.250000X-0.475000X0.250000X-0.475000X0*%
%ADD95RoundRect,0.250000X-0.475000X0.250000X-0.475000X-0.250000X0.475000X-0.250000X0.475000X0.250000X0*%
%ADD96RoundRect,0.218750X-0.218750X-0.381250X0.218750X-0.381250X0.218750X0.381250X-0.218750X0.381250X0*%
%ADD97R,1.700000X0.810000*%
%ADD98R,1.050000X0.810000*%
%ADD99RoundRect,0.150000X0.350000X-0.150000X0.350000X0.150000X-0.350000X0.150000X-0.350000X-0.150000X0*%
%ADD100RoundRect,0.250000X0.650000X-0.375000X0.650000X0.375000X-0.650000X0.375000X-0.650000X-0.375000X0*%
%ADD101RoundRect,0.172500X-0.172500X0.262500X-0.172500X-0.262500X0.172500X-0.262500X0.172500X0.262500X0*%
%ADD102RoundRect,0.093750X-0.106250X0.093750X-0.106250X-0.093750X0.106250X-0.093750X0.106250X0.093750X0*%
%ADD103R,1.600000X0.800000*%
%ADD104RoundRect,0.189500X-1.060500X0.758000X-1.060500X-0.758000X1.060500X-0.758000X1.060500X0.758000X0*%
%ADD105R,1.050000X0.600000*%
%ADD106RoundRect,0.075000X0.075000X-0.725000X0.075000X0.725000X-0.075000X0.725000X-0.075000X-0.725000X0*%
%ADD107RoundRect,0.075000X0.725000X-0.075000X0.725000X0.075000X-0.725000X0.075000X-0.725000X-0.075000X0*%
G04 APERTURE END LIST*
D10*
%TO.C,U6*%
X55375000Y21210000D03*
X55375000Y21580000D03*
X55005000Y21210000D03*
X55005000Y21580000D03*
D11*
X56065000Y20795000D03*
D12*
X56065000Y21195000D03*
X56065000Y21595000D03*
D13*
X56065000Y21995000D03*
D14*
X55590000Y22270000D03*
D15*
X55190000Y22270000D03*
D16*
X54790000Y22270000D03*
D17*
X54315000Y21995000D03*
D12*
X54315000Y21595000D03*
X54315000Y21195000D03*
D18*
X54315000Y20795000D03*
D19*
X54790000Y20520000D03*
D15*
X55190000Y20520000D03*
D20*
X55590000Y20520000D03*
D21*
X55190000Y21395000D03*
%TD*%
D22*
%TO.C,C504*%
X62165500Y72628300D03*
X64065500Y72628300D03*
%TD*%
%TO.C,C506*%
X62165500Y74528300D03*
X64065500Y74528300D03*
%TD*%
%TO.C,C512*%
X62778600Y80346300D03*
X64678600Y80346300D03*
%TD*%
D23*
%TO.C,C513*%
X56205500Y71478300D03*
X56205500Y73378300D03*
%TD*%
%TO.C,C516*%
X54254400Y71478300D03*
X54254400Y73378300D03*
%TD*%
D24*
%TO.C,L501*%
X59880500Y77428300D03*
X55730500Y77428300D03*
%TD*%
D25*
%TO.C,R521*%
X66294000Y75044800D03*
X66294000Y76694800D03*
%TD*%
D26*
%TO.C,R522*%
X67843400Y76694700D03*
X67843400Y75044700D03*
%TD*%
D27*
%TO.C,ANT-U1001*%
X82005000Y19151600D03*
D28*
X82205000Y17626600D03*
D29*
X82205000Y20676600D03*
%TD*%
D30*
%TO.C,C1007*%
X65384600Y20167600D03*
X66344600Y20167600D03*
%TD*%
%TO.C,C1027*%
X62664400Y23139400D03*
X63624400Y23139400D03*
%TD*%
D31*
%TO.C,L1003*%
X64782653Y23609300D03*
X65468547Y24295194D03*
%TD*%
D32*
%TO.C,R529*%
X81204500Y40007000D03*
X81204500Y41832000D03*
%TD*%
%TO.C,R530*%
X83154500Y40007000D03*
X83154500Y41832000D03*
%TD*%
D27*
%TO.C,ANT-S901*%
X8153400Y19151600D03*
D33*
X7953400Y20676600D03*
D34*
X7953400Y17626600D03*
%TD*%
D30*
%TO.C,C1040*%
X74221400Y24790400D03*
X75181400Y24790400D03*
%TD*%
D35*
%TO.C,L1004*%
X66624200Y25651600D03*
X66624200Y26621600D03*
%TD*%
D36*
%TO.C,U1012*%
X76696323Y21924016D03*
X76236704Y21464396D03*
X75777084Y21004777D03*
D37*
X76024572Y19979472D03*
D36*
X77049877Y19731984D03*
X77509496Y20191604D03*
X77969116Y20651223D03*
D37*
X77721628Y21676528D03*
%TD*%
D38*
%TO.C,C1055*%
X78850811Y18729011D03*
X78171989Y18050189D03*
%TD*%
D39*
%TO.C,C1052*%
X72951340Y17175400D03*
X72951340Y18135400D03*
%TD*%
D40*
%TO.C,U1018*%
X76375100Y17165700D03*
D41*
X76375100Y17665700D03*
D42*
X76375100Y18165700D03*
D43*
X75912600Y18628200D03*
D44*
X75412600Y18628200D03*
D45*
X74912600Y18628200D03*
D46*
X74450100Y18165700D03*
D41*
X74450100Y17665700D03*
D47*
X74450100Y17165700D03*
D48*
X74912600Y16703200D03*
D44*
X75412600Y16703200D03*
D49*
X75912600Y16703200D03*
D50*
X75412600Y17665700D03*
%TD*%
D51*
%TO.C,L1009*%
X77998600Y8280400D03*
X78968600Y8280400D03*
%TD*%
D52*
%TO.C,U1013*%
X77514400Y10439400D03*
X76714400Y10439400D03*
D53*
X77864400Y11439400D03*
X77364400Y11439400D03*
X76864400Y11439400D03*
X76364400Y11439400D03*
X76364400Y9439400D03*
X76864400Y9439400D03*
X77364400Y9439400D03*
X77864400Y9439400D03*
%TD*%
D39*
%TO.C,C1046*%
X79984600Y9530000D03*
X79984600Y10490000D03*
%TD*%
%TO.C,C1047*%
X78955900Y9530000D03*
X78955900Y10490000D03*
%TD*%
D38*
%TO.C,C1021*%
X58810164Y22780264D03*
X58131342Y22101442D03*
%TD*%
D32*
%TO.C,R532*%
X73450000Y40007000D03*
X73450000Y41832000D03*
%TD*%
D54*
%TO.C,T1001*%
X61630200Y23133100D03*
X61630200Y23933100D03*
X59680200Y23933100D03*
X59680200Y23133100D03*
%TD*%
D55*
%TO.C,R1002*%
X63019400Y20167600D03*
X61999400Y20167600D03*
%TD*%
D56*
%TO.C,R1003*%
X64200900Y19149600D03*
X64200900Y20169600D03*
%TD*%
D26*
%TO.C,R520*%
X66294000Y80377800D03*
X66294000Y78727800D03*
%TD*%
D57*
%TO.C,C1043*%
X78219300Y23797200D03*
X78219300Y22837200D03*
%TD*%
D51*
%TO.C,L1008*%
X76502400Y24777700D03*
X77472400Y24777700D03*
%TD*%
D58*
%TO.C,L1007*%
X75184000Y23802200D03*
X75184000Y22832200D03*
%TD*%
D59*
%TO.C,C1036*%
X75350000Y31860000D03*
X80290000Y31860000D03*
%TD*%
D60*
%TO.C,C1008*%
X66344600Y19151600D03*
X65384600Y19151600D03*
%TD*%
D39*
%TO.C,C1012*%
X63576200Y14912400D03*
X63576200Y15872400D03*
%TD*%
D56*
%TO.C,R533*%
X84632800Y39672800D03*
X84632800Y40692800D03*
%TD*%
D55*
%TO.C,R534*%
X78564200Y38252400D03*
X77544200Y38252400D03*
%TD*%
D61*
%TO.C,U504*%
X62268000Y78284300D03*
X62268000Y77334300D03*
X62268000Y76384300D03*
X64543000Y76384300D03*
X64543000Y77334300D03*
X64543000Y78284300D03*
%TD*%
D30*
%TO.C,C1028*%
X62258000Y5778500D03*
X63218000Y5778500D03*
%TD*%
D39*
%TO.C,C1042*%
X77368400Y6251000D03*
X77368400Y7211000D03*
%TD*%
D62*
%TO.C,C529*%
X86652400Y25189400D03*
X85102400Y25189400D03*
%TD*%
%TO.C,C533*%
X86372400Y29589400D03*
X84822400Y29589400D03*
%TD*%
D57*
%TO.C,C1020*%
X72580500Y14066600D03*
X72580500Y13106600D03*
%TD*%
D63*
%TO.C,R1004*%
X71562500Y15163800D03*
X72582500Y15163800D03*
%TD*%
D30*
%TO.C,C1019*%
X71592500Y12077700D03*
X72552500Y12077700D03*
%TD*%
D64*
%TO.C,R1008*%
X71564500Y14096600D03*
X71564500Y13076600D03*
%TD*%
D55*
%TO.C,R1013*%
X72582500Y16230600D03*
X71562500Y16230600D03*
%TD*%
D65*
%TO.C,C1015*%
X66560700Y11951000D03*
X66560700Y10401000D03*
%TD*%
D66*
%TO.C,T1002*%
X59842586Y6050828D03*
X60408272Y6616514D03*
X59029414Y7995372D03*
D67*
X58463728Y7429686D03*
%TD*%
D68*
%TO.C,U1006*%
X70209700Y25702700D03*
X70209700Y24352700D03*
X71559700Y25702700D03*
X71559700Y24352700D03*
D69*
X68922200Y26277700D03*
X68922200Y25777700D03*
X68922200Y25277700D03*
X68922200Y24777700D03*
X68922200Y24277700D03*
X68922200Y23777700D03*
D70*
X69634700Y23065200D03*
X70134700Y23065200D03*
X70634700Y23065200D03*
X71134700Y23065200D03*
X71634700Y23065200D03*
X72134700Y23065200D03*
D69*
X72847200Y23777700D03*
X72847200Y24277700D03*
X72847200Y24777700D03*
X72847200Y25277700D03*
X72847200Y25777700D03*
X72847200Y26277700D03*
D70*
X72134700Y26990200D03*
X71634700Y26990200D03*
X71134700Y26990200D03*
X70634700Y26990200D03*
X70134700Y26990200D03*
X69634700Y26990200D03*
%TD*%
D39*
%TO.C,C1030*%
X71260000Y30350000D03*
X71260000Y31310000D03*
%TD*%
D30*
%TO.C,C1032*%
X68255000Y28409900D03*
X69215000Y28409900D03*
%TD*%
%TO.C,C1037*%
X75490000Y28120000D03*
X76450000Y28120000D03*
%TD*%
%TO.C,C1038*%
X75490000Y29120000D03*
X76450000Y29120000D03*
%TD*%
D60*
%TO.C,C1039*%
X76449000Y27089100D03*
X75489000Y27089100D03*
%TD*%
D35*
%TO.C,L1005*%
X71260000Y28401900D03*
X71260000Y29371900D03*
%TD*%
D56*
%TO.C,R1020*%
X68250000Y29423900D03*
X68250000Y30443900D03*
%TD*%
D64*
%TO.C,R1017*%
X70218600Y31340000D03*
X70218600Y30320000D03*
%TD*%
D56*
%TO.C,R1019*%
X68250000Y31354300D03*
X68250000Y32374300D03*
%TD*%
D38*
%TO.C,C1022*%
X58099011Y23478811D03*
X57420189Y22799989D03*
%TD*%
D57*
%TO.C,C612*%
X50368200Y24866400D03*
X50368200Y23906400D03*
%TD*%
%TO.C,C613*%
X51638200Y24864000D03*
X51638200Y23904000D03*
%TD*%
D71*
%TO.C,U1015*%
X75611984Y14529823D03*
X76071604Y14070204D03*
X76531223Y13610584D03*
D36*
X77556528Y13858072D03*
D71*
X77804016Y14883377D03*
X77344396Y15342996D03*
X76884777Y15802616D03*
D36*
X75859472Y15555128D03*
%TD*%
D30*
%TO.C,C610*%
X43182600Y28448000D03*
X44142600Y28448000D03*
%TD*%
D56*
%TO.C,R603*%
X55575000Y29925000D03*
X55575000Y30945000D03*
%TD*%
D60*
%TO.C,C609*%
X55318600Y28960000D03*
X54358600Y28960000D03*
%TD*%
D30*
%TO.C,C603*%
X56898600Y34747200D03*
X57858600Y34747200D03*
%TD*%
D72*
%TO.C,U602*%
X47010900Y28405400D03*
X48410900Y28405400D03*
X49810900Y28405400D03*
X51210900Y28405400D03*
X47010900Y29805400D03*
X48410900Y29805400D03*
X49810900Y29805400D03*
X51210900Y29805400D03*
X47010900Y31205400D03*
X48410900Y31205400D03*
X49810900Y31205400D03*
X51210900Y31205400D03*
X47010900Y32605400D03*
X48410900Y32605400D03*
X49810900Y32605400D03*
X51210900Y32605400D03*
D73*
X46360900Y27067900D03*
X46860900Y27067900D03*
X47360900Y27067900D03*
X47860900Y27067900D03*
X48360900Y27067900D03*
X48860900Y27067900D03*
X49360900Y27067900D03*
X49860900Y27067900D03*
X50360900Y27067900D03*
X50860900Y27067900D03*
X51360900Y27067900D03*
X51860900Y27067900D03*
D74*
X52548400Y27755400D03*
X52548400Y28255400D03*
X52548400Y28755400D03*
X52548400Y29255400D03*
X52548400Y29755400D03*
X52548400Y30255400D03*
X52548400Y30755400D03*
X52548400Y31255400D03*
X52548400Y31755400D03*
X52548400Y32255400D03*
X52548400Y32755400D03*
X52548400Y33255400D03*
D73*
X51860900Y33942900D03*
X51360900Y33942900D03*
X50860900Y33942900D03*
X50360900Y33942900D03*
X49860900Y33942900D03*
X49360900Y33942900D03*
X48860900Y33942900D03*
X48360900Y33942900D03*
X47860900Y33942900D03*
X47360900Y33942900D03*
X46860900Y33942900D03*
X46360900Y33942900D03*
D74*
X45673400Y33255400D03*
X45673400Y32755400D03*
X45673400Y32255400D03*
X45673400Y31755400D03*
X45673400Y31255400D03*
X45673400Y30755400D03*
X45673400Y30255400D03*
X45673400Y29755400D03*
X45673400Y29255400D03*
X45673400Y28755400D03*
X45673400Y28255400D03*
X45673400Y27755400D03*
%TD*%
D39*
%TO.C,C602*%
X54550000Y29955000D03*
X54550000Y30915000D03*
%TD*%
%TO.C,C601*%
X57835800Y29949200D03*
X57835800Y30909200D03*
%TD*%
D55*
%TO.C,R606*%
X54866000Y33782000D03*
X53846000Y33782000D03*
%TD*%
D75*
%TO.C,U601*%
X56903600Y33516800D03*
X56903600Y32116800D03*
X57853600Y32116800D03*
X57853600Y33516800D03*
%TD*%
D60*
%TO.C,C607*%
X55318600Y31910000D03*
X54358600Y31910000D03*
%TD*%
D63*
%TO.C,R605*%
X54328600Y27965400D03*
X55348600Y27965400D03*
%TD*%
D60*
%TO.C,C1049*%
X78331000Y12649200D03*
X77371000Y12649200D03*
%TD*%
D55*
%TO.C,R1014*%
X55016000Y11061700D03*
X53996000Y11061700D03*
%TD*%
%TO.C,R1007*%
X62587600Y15910000D03*
X61567600Y15910000D03*
%TD*%
D57*
%TO.C,C1001*%
X57607200Y18516400D03*
X57607200Y17556400D03*
%TD*%
D30*
%TO.C,C1006*%
X54005400Y15189200D03*
X54965400Y15189200D03*
%TD*%
D60*
%TO.C,C1024*%
X54986000Y10020300D03*
X54026000Y10020300D03*
%TD*%
D57*
%TO.C,C1025*%
X57645300Y10106600D03*
X57645300Y9146600D03*
%TD*%
D60*
%TO.C,C1014*%
X62570300Y12255500D03*
X61610300Y12255500D03*
%TD*%
D63*
%TO.C,R1001*%
X61999400Y19151600D03*
X63019400Y19151600D03*
%TD*%
D57*
%TO.C,C1023*%
X53007400Y11021000D03*
X53007400Y10061000D03*
%TD*%
D76*
%TO.C,U1002*%
X57574800Y12763500D03*
X58724800Y12763500D03*
X57574800Y13913500D03*
X58724800Y13913500D03*
D73*
X56899800Y11401000D03*
X57399800Y11401000D03*
X57899800Y11401000D03*
X58399800Y11401000D03*
X58899800Y11401000D03*
X59399800Y11401000D03*
D74*
X60087300Y12088500D03*
X60087300Y12588500D03*
X60087300Y13088500D03*
X60087300Y13588500D03*
X60087300Y14088500D03*
X60087300Y14588500D03*
D73*
X59399800Y15276000D03*
X58899800Y15276000D03*
X58399800Y15276000D03*
X57899800Y15276000D03*
X57399800Y15276000D03*
X56899800Y15276000D03*
D74*
X56212300Y14588500D03*
X56212300Y14088500D03*
X56212300Y13588500D03*
X56212300Y13088500D03*
X56212300Y12588500D03*
X56212300Y12088500D03*
%TD*%
D39*
%TO.C,C1003*%
X53009800Y16647220D03*
X53009800Y17607220D03*
%TD*%
D63*
%TO.C,R1011*%
X52944300Y12537440D03*
X53964300Y12537440D03*
%TD*%
D39*
%TO.C,C1002*%
X58674000Y17556400D03*
X58674000Y18516400D03*
%TD*%
D51*
%TO.C,L1001*%
X55064800Y17635220D03*
X56034800Y17635220D03*
%TD*%
D77*
%TO.C,L1002*%
X56034800Y16619220D03*
X55064800Y16619220D03*
%TD*%
D60*
%TO.C,C1016*%
X62570300Y11239500D03*
X61610300Y11239500D03*
%TD*%
%TO.C,C1009*%
X62570300Y13271500D03*
X61610300Y13271500D03*
%TD*%
D55*
%TO.C,R1005*%
X54995400Y14173200D03*
X53975400Y14173200D03*
%TD*%
D57*
%TO.C,C1005*%
X53012200Y15161200D03*
X53012200Y14201200D03*
%TD*%
D39*
%TO.C,C1026*%
X58661300Y9146600D03*
X58661300Y10106600D03*
%TD*%
%TO.C,C1004*%
X54025800Y16647220D03*
X54025800Y17607220D03*
%TD*%
D60*
%TO.C,C1013*%
X62555700Y14910000D03*
X61595700Y14910000D03*
%TD*%
D30*
%TO.C,C1031*%
X66626800Y24549100D03*
X67586800Y24549100D03*
%TD*%
D63*
%TO.C,R1009*%
X61567600Y9093200D03*
X62587600Y9093200D03*
%TD*%
D30*
%TO.C,C1018*%
X61595200Y10134600D03*
X62555200Y10134600D03*
%TD*%
D39*
%TO.C,C1017*%
X63563500Y9133900D03*
X63563500Y10093900D03*
%TD*%
D58*
%TO.C,L1006*%
X74206100Y27091500D03*
X74206100Y26121500D03*
%TD*%
D78*
%TO.C,FB1001*%
X72620000Y28652500D03*
X72620000Y30227500D03*
%TD*%
D57*
%TO.C,C502*%
X75742800Y64157800D03*
X75742800Y63197800D03*
%TD*%
D60*
%TO.C,C501*%
X72438200Y73360000D03*
X71478200Y73360000D03*
%TD*%
D64*
%TO.C,R604*%
X42646600Y34165000D03*
X42646600Y33145000D03*
%TD*%
D79*
%TO.C,RN601*%
X43061000Y31255400D03*
D80*
X43061000Y30755400D03*
X43061000Y30255400D03*
D79*
X43061000Y29755400D03*
X44061000Y29755400D03*
D80*
X44061000Y30255400D03*
X44061000Y30755400D03*
D79*
X44061000Y31255400D03*
%TD*%
D57*
%TO.C,C510*%
X81675000Y53505000D03*
X81675000Y52545000D03*
%TD*%
D81*
%TO.C,U1001*%
X67521600Y16019000D03*
X67521600Y14969000D03*
X68571600Y16019000D03*
X68571600Y14969000D03*
D82*
X66096600Y16469000D03*
X66096600Y15819000D03*
X66096600Y15169000D03*
X66096600Y14519000D03*
D83*
X67071600Y13544000D03*
X67721600Y13544000D03*
X68371600Y13544000D03*
X69021600Y13544000D03*
D82*
X69996600Y14519000D03*
X69996600Y15169000D03*
X69996600Y15819000D03*
X69996600Y16469000D03*
D83*
X69021600Y17444000D03*
X68371600Y17444000D03*
X67721600Y17444000D03*
X67071600Y17444000D03*
%TD*%
D32*
%TO.C,R531*%
X75442700Y40007000D03*
X75442700Y41832000D03*
%TD*%
D58*
%TO.C,D502*%
X68800000Y54167500D03*
X68800000Y53197500D03*
%TD*%
%TO.C,D401*%
X65532000Y53469400D03*
X65532000Y52499400D03*
%TD*%
D84*
%TO.C,Q1*%
X71958200Y66091800D03*
X73228200Y66091800D03*
X74498200Y66091800D03*
X75768200Y66091800D03*
D85*
X72748200Y69886800D03*
X74978200Y69886800D03*
D86*
X76078200Y71677800D03*
X71648200Y71677800D03*
D87*
X71591200Y68884800D03*
X76135200Y68884800D03*
%TD*%
D64*
%TO.C,R12*%
X33950000Y21195000D03*
X33950000Y20175000D03*
%TD*%
D88*
%TO.C,TP1011*%
X70916800Y20980400D03*
%TD*%
D89*
%TO.C,U3*%
X78300000Y53525000D03*
D90*
X78475000Y53025000D03*
D89*
X78300000Y52525000D03*
D90*
X79875000Y52525000D03*
D89*
X80050000Y53025000D03*
D90*
X79875000Y53525000D03*
D91*
X79925000Y54200000D03*
X79425000Y54200000D03*
X78925000Y54200000D03*
D92*
X78425000Y54200000D03*
%TD*%
D22*
%TO.C,C24*%
X78550000Y46500000D03*
X80450000Y46500000D03*
%TD*%
D64*
%TO.C,R17*%
X56600000Y63445000D03*
X56600000Y62425000D03*
%TD*%
D93*
%TO.C,C9*%
X30340000Y29010000D03*
X30340000Y30560000D03*
%TD*%
D79*
%TO.C,RN401*%
X61500000Y53650000D03*
X61500000Y52950000D03*
X62500000Y52950000D03*
X62500000Y53650000D03*
%TD*%
D84*
%TO.C,Q2*%
X71965000Y75164500D03*
X73235000Y75164500D03*
X74505000Y75164500D03*
X75775000Y75164500D03*
D85*
X72755000Y78959500D03*
X74985000Y78959500D03*
D86*
X76085000Y80750500D03*
X71655000Y80750500D03*
D87*
X71598000Y77957500D03*
X76142000Y77957500D03*
%TD*%
D93*
%TO.C,C5*%
X32000000Y29010000D03*
X32000000Y30560000D03*
%TD*%
D58*
%TO.C,D402*%
X63830200Y53469400D03*
X63830200Y52499400D03*
%TD*%
D55*
%TO.C,R3*%
X40160000Y23360000D03*
X39140000Y23360000D03*
%TD*%
D64*
%TO.C,R7*%
X79875000Y56385000D03*
X79875000Y55365000D03*
%TD*%
D94*
%TO.C,C27*%
X85325000Y47800000D03*
X83425000Y47800000D03*
%TD*%
D95*
%TO.C,C29*%
X85200000Y54225000D03*
X85200000Y52325000D03*
%TD*%
D64*
%TO.C,R18*%
X55500000Y63445000D03*
X55500000Y62425000D03*
%TD*%
D22*
%TO.C,C3*%
X78550000Y50650000D03*
X80450000Y50650000D03*
%TD*%
D96*
%TO.C,L3*%
X83287500Y43850000D03*
X85412500Y43850000D03*
%TD*%
D64*
%TO.C,R5*%
X78875000Y56385000D03*
X78875000Y55365000D03*
%TD*%
D79*
%TO.C,RN603*%
X54848000Y26097000D03*
X54848000Y26797000D03*
X53848000Y26797000D03*
X53848000Y26097000D03*
%TD*%
D97*
%TO.C,FL2*%
X69350000Y6965000D03*
D98*
X69025000Y5775000D03*
X69025000Y4585000D03*
X71175000Y4585000D03*
X71175000Y5775000D03*
X71175000Y6965000D03*
%TD*%
D95*
%TO.C,C7*%
X83175000Y54225000D03*
X83175000Y52325000D03*
%TD*%
D30*
%TO.C,C31*%
X78870000Y57375000D03*
X79830000Y57375000D03*
%TD*%
D63*
%TO.C,R10*%
X39165000Y22310000D03*
X40185000Y22310000D03*
%TD*%
D22*
%TO.C,C23*%
X78550000Y48575000D03*
X80450000Y48575000D03*
%TD*%
D94*
%TO.C,C25*%
X85325000Y49825000D03*
X83425000Y49825000D03*
%TD*%
D39*
%TO.C,C1*%
X80925000Y55395000D03*
X80925000Y56355000D03*
%TD*%
D56*
%TO.C,R2*%
X77875000Y55365000D03*
X77875000Y56385000D03*
%TD*%
D64*
%TO.C,R14*%
X60900000Y41710000D03*
X60900000Y40690000D03*
%TD*%
D99*
%TO.C,J2*%
X83810000Y69740000D03*
X83810000Y71240000D03*
X83810000Y72740000D03*
X83810000Y74240000D03*
D100*
X89000000Y67135000D03*
X89000000Y76845000D03*
%TD*%
D101*
%TO.C,U508*%
X86150400Y27355800D03*
X85350400Y27355800D03*
D102*
X86400400Y28243300D03*
X85750400Y28243300D03*
X85100400Y28243300D03*
X85100400Y26468300D03*
X85750400Y26468300D03*
X86400400Y26468300D03*
%TD*%
D64*
%TO.C,R13*%
X60900000Y44360000D03*
X60900000Y43340000D03*
%TD*%
D103*
%TO.C,IC1*%
X15250000Y30120000D03*
X15250000Y29020000D03*
X15250000Y27920000D03*
X15250000Y26820000D03*
X15250000Y25720000D03*
X15250000Y24620000D03*
X15250000Y23520000D03*
X15250000Y20520000D03*
X15250000Y19420000D03*
X15250000Y18320000D03*
X15250000Y17220000D03*
X15250000Y16120000D03*
X27450000Y16120000D03*
X27450000Y17220000D03*
X27450000Y18320000D03*
X27450000Y19420000D03*
X27450000Y20520000D03*
X27450000Y23520000D03*
X27450000Y24620000D03*
X27450000Y25720000D03*
X27450000Y26820000D03*
X27450000Y27920000D03*
X27450000Y29020000D03*
X27450000Y30120000D03*
%TD*%
D104*
%TO.C,L2*%
X74925000Y53197500D03*
X74925000Y49102500D03*
%TD*%
D94*
%TO.C,C28*%
X85325000Y45775000D03*
X83425000Y45775000D03*
%TD*%
D64*
%TO.C,R537*%
X67809400Y54192500D03*
X67809400Y53172500D03*
%TD*%
D105*
%TO.C,Q3*%
X36150000Y23710000D03*
X36150000Y25610000D03*
X33950000Y24660000D03*
%TD*%
D106*
%TO.C,U1*%
X44292000Y40966000D03*
X44792000Y40966000D03*
X45292000Y40966000D03*
X45792000Y40966000D03*
X46292000Y40966000D03*
X46792000Y40966000D03*
X47292000Y40966000D03*
X47792000Y40966000D03*
X48292000Y40966000D03*
X48792000Y40966000D03*
X49292000Y40966000D03*
X49792000Y40966000D03*
X50292000Y40966000D03*
X50792000Y40966000D03*
X51292000Y40966000D03*
X51792000Y40966000D03*
X52292000Y40966000D03*
X52792000Y40966000D03*
X53292000Y40966000D03*
X53792000Y40966000D03*
X54292000Y40966000D03*
X54792000Y40966000D03*
X55292000Y40966000D03*
X55792000Y40966000D03*
X56292000Y40966000D03*
D107*
X57967000Y42641000D03*
X57967000Y43141000D03*
X57967000Y43641000D03*
X57967000Y44141000D03*
X57967000Y44641000D03*
X57967000Y45141000D03*
X57967000Y45641000D03*
X57967000Y46141000D03*
X57967000Y46641000D03*
X57967000Y47141000D03*
X57967000Y47641000D03*
X57967000Y48141000D03*
X57967000Y48641000D03*
X57967000Y49141000D03*
X57967000Y49641000D03*
X57967000Y50141000D03*
X57967000Y50641000D03*
X57967000Y51141000D03*
X57967000Y51641000D03*
X57967000Y52141000D03*
X57967000Y52641000D03*
X57967000Y53141000D03*
X57967000Y53641000D03*
X57967000Y54141000D03*
X57967000Y54641000D03*
D106*
X56292000Y56316000D03*
X55792000Y56316000D03*
X55292000Y56316000D03*
X54792000Y56316000D03*
X54292000Y56316000D03*
X53792000Y56316000D03*
X53292000Y56316000D03*
X52792000Y56316000D03*
X52292000Y56316000D03*
X51792000Y56316000D03*
X51292000Y56316000D03*
X50792000Y56316000D03*
X50292000Y56316000D03*
X49792000Y56316000D03*
X49292000Y56316000D03*
X48792000Y56316000D03*
X48292000Y56316000D03*
X47792000Y56316000D03*
X47292000Y56316000D03*
X46792000Y56316000D03*
X46292000Y56316000D03*
X45792000Y56316000D03*
X45292000Y56316000D03*
X44792000Y56316000D03*
X44292000Y56316000D03*
D107*
X42617000Y54641000D03*
X42617000Y54141000D03*
X42617000Y53641000D03*
X42617000Y53141000D03*
X42617000Y52641000D03*
X42617000Y52141000D03*
X42617000Y51641000D03*
X42617000Y51141000D03*
X42617000Y50641000D03*
X42617000Y50141000D03*
X42617000Y49641000D03*
X42617000Y49141000D03*
X42617000Y48641000D03*
X42617000Y48141000D03*
X42617000Y47641000D03*
X42617000Y47141000D03*
X42617000Y46641000D03*
X42617000Y46141000D03*
X42617000Y45641000D03*
X42617000Y45141000D03*
X42617000Y44641000D03*
X42617000Y44141000D03*
X42617000Y43641000D03*
X42617000Y43141000D03*
X42617000Y42641000D03*
%TD*%
M02*
