G04 #@! TF.GenerationSoftware,KiCad,Pcbnew,7.0.0-da2b9df05c~171~ubuntu22.04.1*
G04 #@! TF.CreationDate,2023-04-06T22:28:53+03:00*
G04 #@! TF.ProjectId,satnogs-comms,7361746e-6f67-4732-9d63-6f6d6d732e6b,rev?*
G04 #@! TF.SameCoordinates,Original*
G04 #@! TF.FileFunction,Copper,L3,Inr*
G04 #@! TF.FilePolarity,Positive*
%FSLAX46Y46*%
G04 Gerber Fmt 4.6, Leading zero omitted, Abs format (unit mm)*
G04 Created by KiCad (PCBNEW 7.0.0-da2b9df05c~171~ubuntu22.04.1) date 2023-04-06 22:28:53*
%MOMM*%
%LPD*%
G01*
G04 APERTURE LIST*
G04 Aperture macros list*
%AMRoundRect*
0 Rectangle with rounded corners*
0 $1 Rounding radius*
0 $2 $3 $4 $5 $6 $7 $8 $9 X,Y pos of 4 corners*
0 Add a 4 corners polygon primitive as box body*
4,1,4,$2,$3,$4,$5,$6,$7,$8,$9,$2,$3,0*
0 Add four circle primitives for the rounded corners*
1,1,$1+$1,$2,$3*
1,1,$1+$1,$4,$5*
1,1,$1+$1,$6,$7*
1,1,$1+$1,$8,$9*
0 Add four rect primitives between the rounded corners*
20,1,$1+$1,$2,$3,$4,$5,0*
20,1,$1+$1,$4,$5,$6,$7,0*
20,1,$1+$1,$6,$7,$8,$9,0*
20,1,$1+$1,$8,$9,$2,$3,0*%
G04 Aperture macros list end*
G04 #@! TA.AperFunction,ComponentPad*
%ADD10R,1.524000X1.524000*%
G04 #@! TD*
G04 #@! TA.AperFunction,ComponentPad*
%ADD11C,1.524000*%
G04 #@! TD*
G04 #@! TA.AperFunction,ComponentPad*
%ADD12C,5.600000*%
G04 #@! TD*
G04 #@! TA.AperFunction,ComponentPad*
%ADD13C,0.500000*%
G04 #@! TD*
G04 #@! TA.AperFunction,ComponentPad*
%ADD14C,0.334000*%
G04 #@! TD*
G04 #@! TA.AperFunction,ComponentPad*
%ADD15C,0.600000*%
G04 #@! TD*
G04 #@! TA.AperFunction,ComponentPad*
%ADD16RoundRect,0.250000X-0.575000X0.350000X-0.575000X-0.350000X0.575000X-0.350000X0.575000X0.350000X0*%
G04 #@! TD*
G04 #@! TA.AperFunction,ComponentPad*
%ADD17O,1.650000X1.200000*%
G04 #@! TD*
G04 #@! TA.AperFunction,ComponentPad*
%ADD18C,3.500000*%
G04 #@! TD*
G04 #@! TA.AperFunction,ComponentPad*
%ADD19RoundRect,0.250000X0.575000X-0.350000X0.575000X0.350000X-0.575000X0.350000X-0.575000X-0.350000X0*%
G04 #@! TD*
G04 #@! TA.AperFunction,ComponentPad*
%ADD20C,1.000000*%
G04 #@! TD*
G04 #@! TA.AperFunction,ViaPad*
%ADD21C,0.460000*%
G04 #@! TD*
G04 #@! TA.AperFunction,ViaPad*
%ADD22C,0.660000*%
G04 #@! TD*
G04 #@! TA.AperFunction,Conductor*
%ADD23C,0.600000*%
G04 #@! TD*
G04 #@! TA.AperFunction,Conductor*
%ADD24C,0.250000*%
G04 #@! TD*
G04 #@! TA.AperFunction,Conductor*
%ADD25C,0.220000*%
G04 #@! TD*
G04 #@! TA.AperFunction,Conductor*
%ADD26C,0.450000*%
G04 #@! TD*
G04 APERTURE END LIST*
D10*
X96519999Y-53974999D03*
D11*
X96520000Y-51435000D03*
X99060000Y-53975000D03*
X99060000Y-51435000D03*
X101600000Y-53975000D03*
X101600000Y-51435000D03*
X104140000Y-53975000D03*
X104140000Y-51435000D03*
X106680000Y-53975000D03*
X106680000Y-51435000D03*
X109220000Y-53975000D03*
X109220000Y-51435000D03*
X111760000Y-53975000D03*
X111760000Y-51435000D03*
X114300000Y-53975000D03*
X114300000Y-51435000D03*
X116840000Y-53975000D03*
X116840000Y-51435000D03*
X119380000Y-53975000D03*
X119380000Y-51435000D03*
X121920000Y-53975000D03*
X121920000Y-51435000D03*
X124460000Y-53975000D03*
X124460000Y-51435000D03*
X127000000Y-53975000D03*
X127000000Y-51435000D03*
X129540000Y-53975000D03*
X129540000Y-51435000D03*
X132080000Y-53975000D03*
X132080000Y-51435000D03*
X134620000Y-53975000D03*
X134620000Y-51435000D03*
X137160000Y-53975000D03*
X137160000Y-51435000D03*
X139700000Y-53975000D03*
X139700000Y-51435000D03*
X142240000Y-53975000D03*
X142240000Y-51435000D03*
X144780000Y-53975000D03*
X144780000Y-51435000D03*
X147320000Y-53975000D03*
X147320000Y-51435000D03*
X149860000Y-53975000D03*
X149860000Y-51435000D03*
X152400000Y-53975000D03*
X152400000Y-51435000D03*
X154940000Y-53975000D03*
X154940000Y-51435000D03*
X157480000Y-53975000D03*
X157480000Y-51435000D03*
X160020000Y-53975000D03*
X160020000Y-51435000D03*
D10*
X96519999Y-48894999D03*
D11*
X96520000Y-46355000D03*
X99060000Y-48895000D03*
X99060000Y-46355000D03*
X101600000Y-48895000D03*
X101600000Y-46355000D03*
X104140000Y-48895000D03*
X104140000Y-46355000D03*
X106680000Y-48895000D03*
X106680000Y-46355000D03*
X109220000Y-48895000D03*
X109220000Y-46355000D03*
X111760000Y-48895000D03*
X111760000Y-46355000D03*
X114300000Y-48895000D03*
X114300000Y-46355000D03*
X116840000Y-48895000D03*
X116840000Y-46355000D03*
X119380000Y-48895000D03*
X119380000Y-46355000D03*
X121920000Y-48895000D03*
X121920000Y-46355000D03*
X124460000Y-48895000D03*
X124460000Y-46355000D03*
X127000000Y-48895000D03*
X127000000Y-46355000D03*
X129540000Y-48895000D03*
X129540000Y-46355000D03*
X132080000Y-48895000D03*
X132080000Y-46355000D03*
X134620000Y-48895000D03*
X134620000Y-46355000D03*
X137160000Y-48895000D03*
X137160000Y-46355000D03*
X139700000Y-48895000D03*
X139700000Y-46355000D03*
X142240000Y-48895000D03*
X142240000Y-46355000D03*
X144780000Y-48895000D03*
X144780000Y-46355000D03*
X147320000Y-48895000D03*
X147320000Y-46355000D03*
X149860000Y-48895000D03*
X149860000Y-46355000D03*
X152400000Y-48895000D03*
X152400000Y-46355000D03*
X154940000Y-48895000D03*
X154940000Y-46355000D03*
X157480000Y-48895000D03*
X157480000Y-46355000D03*
X160020000Y-48895000D03*
X160020000Y-46355000D03*
D12*
X165100000Y-46355000D03*
X167640000Y-132080000D03*
X87630000Y-132080000D03*
X91440000Y-46355000D03*
D13*
X158237600Y-119769300D03*
X158237600Y-119219300D03*
X157687600Y-119769300D03*
X157687600Y-119219300D03*
D14*
X160297400Y-126720600D03*
X159664400Y-126720600D03*
X159031400Y-126720600D03*
D13*
X152334700Y-111032300D03*
X152334700Y-112132300D03*
X152334700Y-113232300D03*
X153434700Y-111032300D03*
X153434700Y-112132300D03*
X153434700Y-113232300D03*
X154534700Y-111032300D03*
X154534700Y-112132300D03*
X154534700Y-113232300D03*
D15*
X139849800Y-124671500D03*
X140699800Y-124671500D03*
X141549800Y-124671500D03*
X139849800Y-123821500D03*
X140699800Y-123821500D03*
X141549800Y-123821500D03*
X139849800Y-122971500D03*
X140699800Y-122971500D03*
X141549800Y-122971500D03*
X149846600Y-120916000D03*
X149846600Y-121666000D03*
X149846600Y-122416000D03*
X150596600Y-120916000D03*
X150596600Y-121666000D03*
X150596600Y-122416000D03*
X151346600Y-120916000D03*
X151346600Y-121666000D03*
X151346600Y-122416000D03*
X93583200Y-108807400D03*
X92983200Y-109407400D03*
X92983200Y-108207400D03*
D16*
X150393400Y-87731600D03*
D17*
X148393399Y-87731599D03*
X150393399Y-89731599D03*
X148393399Y-89731599D03*
X150393399Y-91731599D03*
X148393399Y-91731599D03*
X150393399Y-93731599D03*
X148393399Y-93731599D03*
X150393399Y-95731599D03*
X148393399Y-95731599D03*
X150393399Y-97731599D03*
X148393399Y-97731599D03*
D15*
X93583200Y-108207400D03*
X92383200Y-108807400D03*
X92383200Y-108207400D03*
D18*
X85725000Y-110744000D03*
X88036000Y-50648000D03*
X102300000Y-135410000D03*
X121412000Y-108712000D03*
X129032000Y-120777000D03*
X146050000Y-107061000D03*
X147800000Y-135430000D03*
X153987000Y-80328000D03*
X164795000Y-111938000D03*
X167820000Y-53330000D03*
X170307000Y-101283000D03*
X170434000Y-77280000D03*
D15*
X92983200Y-108807400D03*
D13*
X168850400Y-109804200D03*
X167750400Y-109804200D03*
D19*
X166275000Y-72310000D03*
D17*
X168274999Y-72309999D03*
X166274999Y-70309999D03*
X168274999Y-70309999D03*
X166274999Y-68309999D03*
X168274999Y-68309999D03*
X166274999Y-66309999D03*
X168274999Y-66309999D03*
X166274999Y-64309999D03*
X168274999Y-64309999D03*
X166274999Y-62309999D03*
X168274999Y-62309999D03*
D15*
X93583200Y-109407400D03*
X92383200Y-109407400D03*
D20*
X86416600Y-104130000D03*
X87483400Y-104130000D03*
X168354200Y-125782400D03*
X169421000Y-125782400D03*
X163347600Y-107449900D03*
X164414400Y-107449900D03*
D13*
X111433800Y-63641400D03*
X112533800Y-63641400D03*
D21*
X105537000Y-106553000D03*
X83235800Y-105029000D03*
X83896200Y-107264200D03*
X95961200Y-110032800D03*
X138760200Y-66802000D03*
D22*
X96443800Y-105613200D03*
D21*
X157734000Y-114960400D03*
D22*
X167640000Y-113020600D03*
D21*
X93345000Y-103276400D03*
X159258000Y-122453400D03*
X155803600Y-121996200D03*
X155800000Y-125075000D03*
D22*
X159680000Y-109050000D03*
X153810000Y-105098100D03*
X159690000Y-108060000D03*
D21*
X156408700Y-113660900D03*
D22*
X170383200Y-122012780D03*
X169494200Y-121174580D03*
D21*
X137744200Y-114096800D03*
X137742080Y-115775320D03*
X136601200Y-114554000D03*
X136696200Y-116825400D03*
X131680000Y-111100000D03*
X138455400Y-105257600D03*
X138557000Y-108204000D03*
X125730000Y-109448600D03*
X125717300Y-108051600D03*
X130910900Y-102617027D03*
X138809990Y-106250000D03*
X135102600Y-102616000D03*
X131680000Y-111720000D03*
X136252262Y-106222800D03*
X135102600Y-103479600D03*
X142494000Y-130048000D03*
D22*
X135519300Y-123827400D03*
X135585200Y-121297700D03*
X135559800Y-127685800D03*
X136580880Y-121208800D03*
D21*
X159423100Y-116332000D03*
X160528000Y-107061000D03*
X161163000Y-107061000D03*
X162001200Y-107213400D03*
X146126200Y-126415800D03*
X152395500Y-84681381D03*
X164211000Y-85293200D03*
X166827200Y-85852000D03*
X167716200Y-85852000D03*
X164795200Y-87122000D03*
X164795200Y-89154000D03*
X164795200Y-88138000D03*
X164780000Y-90150000D03*
X158750000Y-85661500D03*
X116350000Y-136410000D03*
X169672000Y-114909600D03*
X109982000Y-101346000D03*
X88874600Y-103987600D03*
X90830400Y-63754000D03*
X118872000Y-101346000D03*
X148355400Y-86266800D03*
X153746200Y-102031800D03*
X161335800Y-65630000D03*
X155803600Y-124053600D03*
X158750000Y-90043000D03*
X94136380Y-84647200D03*
X157048200Y-123190000D03*
X160900000Y-136410000D03*
X139446000Y-98602800D03*
X110490000Y-51435000D03*
D22*
X159677100Y-110070900D03*
D21*
X98064600Y-88076200D03*
X98050000Y-136410000D03*
X145000000Y-76785000D03*
X131114800Y-89509600D03*
X118618000Y-65410500D03*
X88036400Y-115087400D03*
X167718546Y-104417054D03*
X151750000Y-136360000D03*
X113300000Y-136410000D03*
X148100000Y-71960000D03*
X114117400Y-63666800D03*
X146925000Y-76785000D03*
X152501600Y-77546200D03*
X154125000Y-76110000D03*
X134848600Y-97332800D03*
X145700000Y-136360000D03*
X154178000Y-96520000D03*
X155752800Y-74676000D03*
X118618000Y-84632800D03*
X90830400Y-64643000D03*
X124450000Y-120660000D03*
X154178000Y-93472000D03*
X99364800Y-87884000D03*
X145745200Y-123888500D03*
X118618000Y-79654400D03*
X101050000Y-136410000D03*
X164400000Y-129760000D03*
D22*
X151765200Y-107899200D03*
D21*
X164075000Y-80685000D03*
X125164014Y-105440464D03*
X148750000Y-136410000D03*
X144000000Y-76785000D03*
X83286600Y-101346000D03*
X142650000Y-136360000D03*
X140224581Y-112817981D03*
X104150000Y-136410000D03*
X171983400Y-103555800D03*
X148513800Y-54711600D03*
X90525600Y-126695200D03*
X170408600Y-127143580D03*
X108480000Y-89120000D03*
X95981800Y-80684800D03*
X155702000Y-82550000D03*
X139420600Y-110667800D03*
X133350000Y-120760000D03*
X171958000Y-67056000D03*
X133350000Y-126860000D03*
X90500200Y-115087400D03*
X163050000Y-82935000D03*
X92227400Y-50774600D03*
X123317000Y-70027800D03*
X97201000Y-75122200D03*
X131343400Y-97726700D03*
X133629400Y-87858600D03*
X131450000Y-121760000D03*
X84074000Y-100076000D03*
X85084603Y-91922600D03*
X163931600Y-114909600D03*
X110250000Y-136410000D03*
X139492303Y-115125210D03*
X94115420Y-69646800D03*
X83312000Y-69342000D03*
X122428000Y-70027800D03*
X167050000Y-128560000D03*
X139420600Y-94970600D03*
X122500000Y-101610000D03*
X163322000Y-78232000D03*
X106273600Y-80391000D03*
X130276600Y-93675200D03*
X90424000Y-50038000D03*
X83306603Y-57150000D03*
X142646400Y-63830200D03*
X139048334Y-116482377D03*
X83300000Y-122210000D03*
X155498800Y-118465600D03*
X98806000Y-110185200D03*
X151350000Y-82114500D03*
X85064600Y-80949800D03*
X99237800Y-120548400D03*
X103474800Y-68823000D03*
X146375000Y-79410000D03*
X112695000Y-68351400D03*
X137769600Y-66827400D03*
X158953200Y-93319600D03*
D22*
X152539900Y-108750100D03*
D21*
X83350000Y-127260000D03*
X94284800Y-77139800D03*
X111983800Y-62142800D03*
X156946600Y-82042000D03*
X138963400Y-89662000D03*
X124100000Y-134510000D03*
X114173000Y-69204000D03*
X83312000Y-54127400D03*
X171958000Y-64008000D03*
X99009200Y-110871000D03*
X139600000Y-136360000D03*
X153390600Y-124358400D03*
X154178000Y-98475800D03*
X93802200Y-51968400D03*
X99288600Y-108813600D03*
X150698200Y-102031800D03*
X124100000Y-129960000D03*
X136400000Y-134610000D03*
X133350000Y-132960000D03*
X93980000Y-101346000D03*
X124100000Y-126910000D03*
X84683600Y-75260200D03*
X160274000Y-78232000D03*
X133350000Y-129910000D03*
X107340400Y-55930800D03*
X171958000Y-74930000D03*
X127076200Y-82016600D03*
X83312000Y-51079400D03*
X124167276Y-70041124D03*
X105329000Y-72175800D03*
D22*
X99060000Y-105283000D03*
D21*
X118618000Y-82158200D03*
X135839200Y-95046800D03*
X107800000Y-106285000D03*
X105029000Y-116535200D03*
X169926000Y-91694000D03*
X171958000Y-70104000D03*
X146329400Y-119583200D03*
X118618000Y-64947800D03*
X139600000Y-134610000D03*
X169926000Y-82550000D03*
X146050000Y-104775000D03*
X171950000Y-128410000D03*
X100431600Y-122428000D03*
X85500000Y-127210000D03*
X105698112Y-76668204D03*
X157226000Y-78232000D03*
X129057400Y-83058000D03*
X104490800Y-68848400D03*
X85191600Y-49123600D03*
X88315800Y-105500000D03*
X87503000Y-63779400D03*
X114727000Y-63666800D03*
X99009200Y-111582200D03*
X83312000Y-63246000D03*
X126000000Y-118560000D03*
X126774100Y-104089200D03*
X107035600Y-86233000D03*
X145745200Y-124904500D03*
D22*
X163271200Y-126669800D03*
D21*
X124450000Y-118560000D03*
X146126200Y-122961400D03*
X106934000Y-101346000D03*
X117750000Y-135510000D03*
X126650000Y-121760000D03*
X85013800Y-88773000D03*
X162153600Y-110337600D03*
X93802200Y-50419000D03*
X143611600Y-86258400D03*
X100838000Y-101346000D03*
X154762200Y-94208600D03*
X156387800Y-92557600D03*
X111429800Y-69189600D03*
X114427000Y-80695097D03*
X144830800Y-113233200D03*
X124200000Y-122210000D03*
X151075000Y-76586111D03*
X146608800Y-65582800D03*
X136245600Y-101777800D03*
X161335800Y-66900000D03*
X142849600Y-71120000D03*
X122555000Y-74472800D03*
X147650200Y-102031800D03*
X147015200Y-125476000D03*
X169650000Y-128460000D03*
X89027000Y-122847750D03*
X152975000Y-130210000D03*
X165455600Y-121081800D03*
X114676786Y-79502433D03*
X88200000Y-127410000D03*
X135102600Y-90170000D03*
X112166400Y-81254600D03*
X118872000Y-106553000D03*
X96570800Y-110185200D03*
X123317000Y-87706200D03*
X165557200Y-94411800D03*
X131450000Y-120160000D03*
X153360000Y-63820000D03*
X118900000Y-134510000D03*
X103410287Y-72942855D03*
X124028200Y-110693200D03*
X146375000Y-81185000D03*
X83306603Y-72364600D03*
X102308084Y-77072680D03*
X171950000Y-124310000D03*
X133350000Y-118560000D03*
X94843600Y-85699600D03*
X171958000Y-73152000D03*
X136956800Y-91414600D03*
X85084603Y-94970600D03*
X94115420Y-72161400D03*
X138023600Y-82143600D03*
X149479000Y-127558800D03*
X171958000Y-57912000D03*
X87401400Y-122847750D03*
X157302200Y-90685000D03*
X151561800Y-124460000D03*
X112826800Y-86690200D03*
X97201000Y-76544600D03*
X127035624Y-91208700D03*
X116078000Y-101346000D03*
X161920000Y-66900000D03*
X149200000Y-68060000D03*
X105714800Y-86233000D03*
X96972400Y-66816400D03*
X92151200Y-127609600D03*
D22*
X149174200Y-109855000D03*
D21*
X83896200Y-106121200D03*
X151612600Y-91440000D03*
X118643400Y-72161400D03*
X171946835Y-112115600D03*
X145850000Y-67765500D03*
X83312000Y-66294000D03*
X140563600Y-130479800D03*
X87528400Y-71628000D03*
X96439000Y-67553000D03*
X99644200Y-64033400D03*
X128219200Y-77546200D03*
X83312000Y-49199800D03*
X150418800Y-59867800D03*
X147599400Y-62636400D03*
X169926000Y-88646000D03*
X159060300Y-97790000D03*
X163300000Y-132060000D03*
X118618000Y-77139800D03*
D22*
X168173400Y-121174580D03*
D21*
X126415800Y-94310200D03*
X152625000Y-132535000D03*
X83312000Y-108204000D03*
X140614400Y-65506600D03*
X147332600Y-71983600D03*
X84683600Y-76454000D03*
X85775800Y-120878600D03*
X146375000Y-80310000D03*
X145975000Y-76785000D03*
X94107000Y-67157600D03*
X106395800Y-64033400D03*
X141960600Y-82575400D03*
X123342400Y-86029800D03*
X103886000Y-101346000D03*
X86258400Y-101488240D03*
X104440000Y-82564400D03*
X138176000Y-129159000D03*
X94132400Y-79654400D03*
X139446000Y-101887049D03*
X90932000Y-101346000D03*
X144653000Y-120472200D03*
X99364800Y-97815400D03*
X85801200Y-115112800D03*
X118872000Y-103505000D03*
X104847319Y-89335681D03*
X148111710Y-126741953D03*
X134340600Y-89408000D03*
X158292800Y-74650600D03*
X144449800Y-80568800D03*
X145745200Y-125920500D03*
X85699600Y-65608200D03*
X144856200Y-58293000D03*
X95000000Y-114860000D03*
X118618000Y-74650600D03*
X154178000Y-87376000D03*
X154940000Y-109982000D03*
X114782600Y-72847200D03*
X83286600Y-110439200D03*
X135864600Y-87652700D03*
X169926000Y-94742000D03*
X133350000Y-123810000D03*
X118643400Y-67157600D03*
X83312000Y-60198000D03*
X171958000Y-109093000D03*
X103860000Y-102440000D03*
X122999492Y-60601700D03*
X154178000Y-84328000D03*
X142307381Y-110778219D03*
X148400000Y-68060000D03*
X171958000Y-60960000D03*
X88900000Y-101346000D03*
X94127600Y-82158000D03*
X138353800Y-83642200D03*
X123774200Y-91567000D03*
X169926000Y-97790000D03*
X136804400Y-66802000D03*
X131450000Y-118560000D03*
X83300000Y-124210000D03*
X161920000Y-66265000D03*
X101380000Y-102430000D03*
X161920000Y-65630000D03*
X169926000Y-80010000D03*
X147599400Y-65582800D03*
X158673800Y-123825000D03*
X164130000Y-103690000D03*
X124100000Y-123810000D03*
X160502600Y-102031800D03*
X83312000Y-78486000D03*
X143078200Y-79552800D03*
X107200000Y-136410000D03*
X166674800Y-114909600D03*
X85090000Y-98044000D03*
X131241800Y-78638400D03*
X127025400Y-83540600D03*
X149936200Y-67323200D03*
X95478600Y-83286600D03*
X105359200Y-71221600D03*
X99715600Y-80659400D03*
X87503000Y-67640200D03*
X113533200Y-63666800D03*
X169849800Y-127651580D03*
X94132400Y-74625200D03*
X161335800Y-66265000D03*
X132511800Y-84836000D03*
X85064600Y-84709000D03*
X91744800Y-123367800D03*
X157454600Y-102031800D03*
X148914900Y-83690600D03*
X134569200Y-94056200D03*
X167360600Y-106781600D03*
X127152400Y-93548200D03*
X143538100Y-107721400D03*
D22*
X97683600Y-72937800D03*
D21*
X138375130Y-94610453D03*
X90855800Y-125222000D03*
X123799600Y-79197200D03*
X95981800Y-82107200D03*
X146375000Y-78410000D03*
X129260600Y-78638400D03*
X163550600Y-102031800D03*
X164450000Y-136360000D03*
X102484200Y-68823000D03*
X99715600Y-82107200D03*
X92450000Y-96260000D03*
X97683600Y-71007400D03*
X158242000Y-126720600D03*
X124050000Y-133010000D03*
D22*
X166954200Y-125492580D03*
D21*
X97612200Y-96266000D03*
X113030000Y-101346000D03*
X138109900Y-129997200D03*
X83306603Y-75412600D03*
X118643400Y-69646800D03*
X104419400Y-80721200D03*
X94361000Y-88112600D03*
X129050000Y-118560000D03*
X140208000Y-95681800D03*
X171950000Y-126610000D03*
X135077200Y-132613400D03*
X90449400Y-51739800D03*
X142265400Y-55829200D03*
X126746000Y-85267800D03*
X142240000Y-91581500D03*
X139250000Y-75460000D03*
X160425000Y-80210000D03*
X85750400Y-79121000D03*
X97028000Y-101346000D03*
X113461800Y-87401400D03*
X168097200Y-100888800D03*
X122986800Y-62179200D03*
D22*
X99180400Y-71898200D03*
D21*
X157850000Y-136410000D03*
X99009200Y-113563400D03*
X153475000Y-72460000D03*
X115544600Y-89636600D03*
X142950000Y-76785000D03*
X151904700Y-127520700D03*
X102240000Y-102450000D03*
X166370000Y-78232000D03*
X87706200Y-107416600D03*
X154178000Y-90424000D03*
X85242400Y-51206400D03*
X104490800Y-76620800D03*
X138762900Y-82931000D03*
X110921800Y-85420200D03*
D22*
X96250000Y-108425000D03*
D21*
X138000000Y-97760000D03*
X171958000Y-106045000D03*
X110845600Y-88493600D03*
X147599400Y-64541400D03*
X89865200Y-106019600D03*
X137007600Y-125349000D03*
X126441200Y-87528400D03*
X83235800Y-104165400D03*
X133350000Y-134610000D03*
X114092000Y-73522000D03*
X83261200Y-113588800D03*
X120421400Y-121793000D03*
X122936000Y-66802000D03*
X88900000Y-61518800D03*
X96947000Y-80659400D03*
X122428000Y-67360800D03*
X143865600Y-71018400D03*
X158470600Y-89535000D03*
X152580000Y-66800000D03*
X153314400Y-58724800D03*
X153365200Y-65532000D03*
X152501600Y-59537600D03*
X140131800Y-59766200D03*
X152501600Y-57912000D03*
X159740600Y-79425800D03*
X153289000Y-60325000D03*
X153370000Y-66310000D03*
X153314400Y-57099200D03*
X152501600Y-56286400D03*
X153365200Y-67157600D03*
X152560000Y-65910000D03*
D22*
X168351200Y-106197400D03*
X169506900Y-106197400D03*
D21*
X138582400Y-109194600D03*
D22*
X138226800Y-103378000D03*
D21*
X140413600Y-101900010D03*
X137020300Y-114033300D03*
X101220000Y-112810000D03*
X157073600Y-125298200D03*
X158000000Y-134260000D03*
X151904700Y-125691900D03*
X137147300Y-129997200D03*
X156032200Y-119989600D03*
X150507700Y-125514100D03*
X124002800Y-85013800D03*
X123748800Y-85521800D03*
X123850400Y-88163400D03*
X123370500Y-88620600D03*
X140738273Y-69596000D03*
X138760200Y-70840600D03*
X123952000Y-60604400D03*
X139725400Y-70180200D03*
X118689400Y-63616000D03*
X115493800Y-62992000D03*
X117851200Y-64149400D03*
X117851200Y-63616000D03*
X163997954Y-94401023D03*
X140741400Y-70840600D03*
X115468400Y-62396800D03*
X118689400Y-64149400D03*
X123952000Y-62153800D03*
X137560000Y-75770000D03*
X138757073Y-69596000D03*
X123952000Y-66751200D03*
X124180600Y-67284600D03*
X154381200Y-73482200D03*
X164871400Y-94335600D03*
X145850000Y-73960000D03*
X138280000Y-75770000D03*
X146558000Y-66856500D03*
X112434400Y-77377800D03*
X104998800Y-74665000D03*
X110185200Y-80467200D03*
X102992200Y-69204000D03*
X99055200Y-68950000D03*
X112434400Y-76869800D03*
X104490800Y-74665000D03*
X97937600Y-66816400D03*
D22*
X111323400Y-72150400D03*
D21*
X112434400Y-74837800D03*
X98750400Y-80659400D03*
X105989400Y-72150400D03*
X103982800Y-69254800D03*
X110185200Y-83820000D03*
D22*
X112695000Y-71185200D03*
D21*
X112435339Y-75345800D03*
X110921800Y-84455000D03*
X102992200Y-67964900D03*
X105989400Y-71159800D03*
X106726000Y-83301000D03*
X111755200Y-73522000D03*
X103982800Y-67964900D03*
X98623400Y-67553000D03*
X99893400Y-87542800D03*
X157797500Y-95885000D03*
X160675217Y-79709565D03*
X167386000Y-94818200D03*
X164312600Y-95865100D03*
X155702000Y-88963500D03*
X138404600Y-58750200D03*
X157200600Y-93167200D03*
X147320000Y-86258400D03*
X125145800Y-95224600D03*
X143450000Y-92260000D03*
X135585200Y-59740800D03*
X141478000Y-81686400D03*
X103047800Y-62585600D03*
X129350000Y-94980000D03*
X89204800Y-102565200D03*
X98704400Y-96316800D03*
X167005000Y-103124000D03*
X114441000Y-77733400D03*
X135585200Y-57861200D03*
X115279200Y-77047600D03*
X150350000Y-82114500D03*
X148844000Y-59867800D03*
X126339600Y-81711800D03*
X136524999Y-60680600D03*
X104059000Y-63387400D03*
X159689800Y-97790000D03*
X97201000Y-63387400D03*
X136525000Y-58801000D03*
X131572000Y-94538800D03*
X125760770Y-95213917D03*
X139446000Y-94005400D03*
X114249200Y-78460600D03*
X133375400Y-89408000D03*
X140639800Y-81127600D03*
X114441000Y-76361800D03*
X138912600Y-94005400D03*
X167944800Y-96494600D03*
X96291400Y-62600000D03*
X135585199Y-61620400D03*
X132689600Y-90170000D03*
X136523967Y-62560200D03*
X131572000Y-95046800D03*
X163474400Y-99212400D03*
X164871400Y-99212400D03*
X165658800Y-98221800D03*
X164465000Y-98221800D03*
D22*
X169621200Y-113080800D03*
X168859200Y-113080800D03*
D21*
X166116000Y-99212400D03*
X162763200Y-97180400D03*
X156108400Y-99161600D03*
X159004004Y-97155000D03*
D22*
X89789000Y-99187000D03*
D21*
X157759400Y-98196400D03*
D22*
X87503000Y-99187000D03*
D21*
X156667200Y-98196400D03*
X155549600Y-98221800D03*
D22*
X86741000Y-99187000D03*
X88265000Y-99187000D03*
X90525600Y-99187000D03*
X89027000Y-99187000D03*
D21*
X157175200Y-99161600D03*
X158242000Y-99161600D03*
X136093200Y-108889800D03*
X126136400Y-103327200D03*
X155752800Y-63195200D03*
X137201400Y-93751400D03*
X129717800Y-93878400D03*
X130860800Y-93878400D03*
X139217400Y-83362800D03*
X138785600Y-84048600D03*
X146205300Y-59815900D03*
X133705600Y-86588600D03*
X128325000Y-83535000D03*
X126525000Y-82524600D03*
X142849600Y-85722300D03*
X137363200Y-102336600D03*
X136067800Y-109464103D03*
X142773400Y-90017600D03*
X153035000Y-126212600D03*
X150514890Y-126222419D03*
X155854400Y-120929400D03*
X143713200Y-91033600D03*
X141681200Y-91541600D03*
X138861800Y-129159000D03*
X145745200Y-119595900D03*
X162534600Y-112217200D03*
X165354000Y-125242580D03*
X146948400Y-100161600D03*
X167690800Y-103733600D03*
X162458400Y-109728000D03*
X145364200Y-92887800D03*
X133146674Y-84836006D03*
X87325200Y-106451400D03*
X88595200Y-102336600D03*
X103708200Y-71221600D03*
X107691200Y-78398800D03*
X137388600Y-82118200D03*
X141732000Y-69138800D03*
X122428000Y-105791000D03*
X123621800Y-105791000D03*
X87515005Y-68554800D03*
X128068595Y-101941487D03*
X128535287Y-101474795D03*
X87515005Y-69214800D03*
X87525776Y-73262348D03*
X129459054Y-101757146D03*
X129925746Y-101290454D03*
X87528400Y-72593200D03*
X130949545Y-101622037D03*
X87579200Y-70815200D03*
X131416237Y-101155345D03*
X87553800Y-70002400D03*
X132830900Y-101204095D03*
X87668336Y-62399113D03*
X87668336Y-63059113D03*
X133490900Y-101204095D03*
X134831132Y-101346440D03*
X94598048Y-75168291D03*
X135604742Y-101430472D03*
X94598048Y-75828291D03*
X156210000Y-119303800D03*
X138861800Y-110032800D03*
X141097000Y-112166400D03*
X139827000Y-113334800D03*
X156159200Y-118465600D03*
X137591800Y-117373400D03*
X142240000Y-93040200D03*
X167068500Y-110704600D03*
X132334000Y-82473800D03*
X163525200Y-84150200D03*
X143383000Y-85267800D03*
X146783900Y-96330038D03*
X163068000Y-113309400D03*
X147491247Y-100026100D03*
X168278043Y-104419526D03*
X169976800Y-123748800D03*
X102763600Y-76747800D03*
X103779600Y-80837200D03*
X105151200Y-77078000D03*
X105735400Y-80605900D03*
X101625400Y-76784200D03*
X107030800Y-79262400D03*
X103410804Y-72383354D03*
X104673331Y-71222813D03*
X108377000Y-78398800D03*
X151550000Y-81205500D03*
X167005000Y-98552000D03*
X135900000Y-79435000D03*
X161645600Y-97790000D03*
X151875000Y-78535000D03*
X168225000Y-98560000D03*
X135325000Y-79435000D03*
X158675000Y-92435000D03*
X163450000Y-92360000D03*
X138573916Y-97291824D03*
X144950000Y-77760000D03*
X151908500Y-77835000D03*
X122021600Y-62255400D03*
X111328200Y-62117400D03*
X136626600Y-82397600D03*
X150004900Y-76560000D03*
X141445000Y-78075000D03*
X157581600Y-103733600D03*
X144780000Y-92252800D03*
X93903926Y-103250994D03*
X95453200Y-102362000D03*
X133731000Y-84836000D03*
X143002000Y-86309200D03*
X157950000Y-92385000D03*
X162550000Y-91835000D03*
X138796306Y-95051395D03*
X147993100Y-125476000D03*
X153593800Y-125095000D03*
D22*
X135559800Y-125450600D03*
X135577580Y-118694200D03*
X136552800Y-123774220D03*
D21*
X146812000Y-128016000D03*
X147269200Y-121285000D03*
D22*
X166065200Y-126720600D03*
X166065200Y-125984000D03*
X163271200Y-127635000D03*
X136568180Y-118694200D03*
X152768600Y-105110800D03*
D21*
X158927800Y-106781600D03*
X159791400Y-106756200D03*
X158073081Y-106770019D03*
D22*
X160820100Y-108826300D03*
X160807400Y-109728000D03*
X161696400Y-109728000D03*
D21*
X155110000Y-105830000D03*
D22*
X151612800Y-104825800D03*
X152082800Y-105834700D03*
X160832800Y-110617000D03*
D21*
X155110000Y-105000000D03*
D22*
X149961800Y-104825800D03*
D21*
X96469200Y-111140000D03*
X86639400Y-107950000D03*
D22*
X96250000Y-106875000D03*
D21*
X95059500Y-111137700D03*
X89179400Y-111582200D03*
X96266000Y-111937800D03*
X85950000Y-107442000D03*
X85950000Y-108458000D03*
X96520000Y-109220000D03*
X96012000Y-109220000D03*
X90690700Y-106794300D03*
X86639400Y-106934000D03*
X96266000Y-112623600D03*
D22*
X96250000Y-107625000D03*
D21*
X89230200Y-106756200D03*
X88252300Y-111582200D03*
X95808800Y-111150400D03*
X147650200Y-126238000D03*
X135737600Y-131597400D03*
X138874500Y-132600700D03*
X137642600Y-125272800D03*
X136906000Y-104521000D03*
X126695200Y-108051600D03*
X136093200Y-108178600D03*
X126695200Y-109448600D03*
X136423400Y-104038400D03*
X126720600Y-104902000D03*
X132410400Y-102615931D03*
X136093200Y-105384600D03*
X136423400Y-102641400D03*
X136245600Y-106908600D03*
X86599600Y-102312040D03*
X168537200Y-123727280D03*
X128010000Y-70840000D03*
X87477600Y-64490600D03*
X132547120Y-70821585D03*
X126568200Y-91516200D03*
X141909800Y-83515200D03*
X133870000Y-70850000D03*
X157652500Y-82219800D03*
X151206200Y-72974200D03*
X131980000Y-70800000D03*
X133200000Y-70830000D03*
X149225000Y-119710200D03*
X149961604Y-129819400D03*
X150279100Y-124447300D03*
X159410400Y-128320800D03*
X133470000Y-74100000D03*
X118338600Y-91643200D03*
X132980000Y-73820000D03*
X117932200Y-91149600D03*
X132490000Y-73530000D03*
X118643400Y-90195400D03*
X117957600Y-90119200D03*
X131939011Y-73627233D03*
X124358400Y-104673400D03*
X124688600Y-106883200D03*
D22*
X139725400Y-117729000D03*
X143052800Y-117120400D03*
D21*
X124637800Y-111328200D03*
D22*
X141782800Y-120523000D03*
X139192000Y-119532400D03*
D21*
X138861800Y-111328200D03*
X124333000Y-107391200D03*
X124104400Y-105257600D03*
X94115409Y-86653800D03*
X129475000Y-66810000D03*
X143754500Y-66335000D03*
X94115409Y-85674200D03*
X143875000Y-67410000D03*
X129475000Y-67369503D03*
X121894600Y-70902389D03*
X135940800Y-78435200D03*
X138353800Y-79705200D03*
X117627400Y-72658400D03*
X96515200Y-82981800D03*
X96506373Y-88321373D03*
X95804000Y-83783600D03*
X95454986Y-84279086D03*
X137654200Y-124571500D03*
X157044900Y-123990100D03*
X145288000Y-120472200D03*
X137845800Y-95123000D03*
X95753200Y-85790200D03*
X94208600Y-78130400D03*
X94208600Y-78943200D03*
X114427000Y-81254600D03*
X107030800Y-88482600D03*
X103124000Y-88493600D03*
X105735400Y-88482600D03*
X123350000Y-83505500D03*
X106370000Y-88510000D03*
X107670000Y-88500000D03*
X123436331Y-82921031D03*
X130060000Y-85420000D03*
X108990000Y-90730000D03*
X87540000Y-89740000D03*
X108326200Y-82742200D03*
X87610000Y-90970000D03*
X110053400Y-88508000D03*
X110040000Y-91100000D03*
X131851400Y-79502000D03*
X99512400Y-88558800D03*
X108326200Y-88508000D03*
X126006281Y-78141281D03*
X114782600Y-72212200D03*
X127838200Y-81940400D03*
X144400000Y-66827400D03*
X144373600Y-65887600D03*
X151638000Y-61595000D03*
X152552400Y-62128400D03*
X153568400Y-61595000D03*
X151638000Y-62687200D03*
X141325600Y-63982600D03*
X145665500Y-62331700D03*
X153568400Y-62687200D03*
X145491200Y-65887600D03*
X85344000Y-76454000D03*
X85318600Y-75260200D03*
X87706200Y-82651600D03*
X85318600Y-77495400D03*
X142011400Y-89535000D03*
X165251268Y-106070400D03*
X167106600Y-108927900D03*
X130327400Y-82016600D03*
X143891000Y-84785200D03*
X147203538Y-95887000D03*
X85420200Y-66167000D03*
X86524340Y-79883000D03*
X93730532Y-87650868D03*
X94412500Y-68300600D03*
X87146697Y-82651600D03*
X86012568Y-75277432D03*
X84988400Y-65125600D03*
X114333262Y-90010986D03*
X122428000Y-73482200D03*
X85964837Y-79883000D03*
X86019189Y-77495400D03*
X86029800Y-76467220D03*
X114427000Y-86055200D03*
X94107000Y-64058800D03*
X159492500Y-63527500D03*
X97561400Y-95580200D03*
X114427000Y-87401400D03*
X112649000Y-65227200D03*
X127380000Y-69460000D03*
X94284800Y-95554800D03*
X114782600Y-65227200D03*
X113487200Y-65227200D03*
X102484200Y-84291600D03*
X102484200Y-86653800D03*
X103779600Y-84774200D03*
X103779600Y-86656500D03*
X135940800Y-93624400D03*
X133146800Y-94056200D03*
X99893400Y-83275600D03*
X102501693Y-80736757D03*
X132842000Y-79502000D03*
X114000000Y-79491000D03*
X105100400Y-88533400D03*
X136804400Y-79222600D03*
X137845800Y-79222600D03*
X149500000Y-84813300D03*
X149450000Y-82860000D03*
X150114000Y-94716600D03*
X126136400Y-91008200D03*
X143456600Y-94716600D03*
X90893900Y-106032300D03*
X151638000Y-94716600D03*
X124256800Y-92024200D03*
X152247600Y-91414600D03*
X92684600Y-102341983D03*
X92684600Y-103276400D03*
X156387800Y-91897200D03*
X143450000Y-97260000D03*
X163931600Y-82804000D03*
X168097200Y-81089500D03*
X157397387Y-73177400D03*
X164439600Y-82804000D03*
X157403800Y-74574400D03*
X166255700Y-81089500D03*
X167208200Y-81788000D03*
X156533787Y-73964800D03*
X167208200Y-80441800D03*
X156540200Y-72390000D03*
X153797000Y-70408800D03*
X151043600Y-78587600D03*
X151866600Y-71475600D03*
X152857200Y-70942200D03*
X153797000Y-71475600D03*
X150459400Y-79603600D03*
X150459400Y-77622400D03*
X151866600Y-70408800D03*
X151043600Y-80619600D03*
X158292800Y-72009000D03*
X155752800Y-72009000D03*
X148450000Y-74510000D03*
X136775000Y-98360000D03*
X120900000Y-102685000D03*
X101150000Y-110410000D03*
X88900000Y-103327200D03*
X129450000Y-81960000D03*
X150901400Y-124841000D03*
X128850000Y-81960000D03*
X111350000Y-97110000D03*
X93250000Y-93660000D03*
X111400000Y-96510000D03*
X96570800Y-93713100D03*
X121125000Y-93335000D03*
X115425000Y-91335000D03*
X127575000Y-94935000D03*
X120400000Y-80100497D03*
X122900000Y-79660000D03*
X120400000Y-80660000D03*
X127315700Y-87160802D03*
X123379500Y-80285000D03*
X129025000Y-88860000D03*
X120475000Y-81160000D03*
X126288800Y-86512400D03*
X124231400Y-87515692D03*
X126774100Y-87020400D03*
X126212600Y-88519000D03*
X124637800Y-110058200D03*
X87475000Y-109335000D03*
X147693500Y-122428000D03*
X138201400Y-93751400D03*
X137025000Y-88160000D03*
X133477000Y-95021400D03*
D23*
X112924885Y-67335400D02*
X101727000Y-67335400D01*
X96947000Y-80192600D02*
X96947000Y-80659400D01*
X113559885Y-67970400D02*
X112924885Y-67335400D01*
X101727000Y-67335400D02*
X100651289Y-68411111D01*
X120446800Y-67360800D02*
X119837200Y-67970400D01*
X100651289Y-76488311D02*
X96947000Y-80192600D01*
X100651289Y-68411111D02*
X100651289Y-76488311D01*
X122428000Y-67360800D02*
X120446800Y-67360800D01*
X119837200Y-67970400D02*
X113559885Y-67970400D01*
D24*
X152501600Y-59258200D02*
X152222200Y-58978800D01*
X152501600Y-59537600D02*
X152501600Y-59258200D01*
X140131800Y-59410600D02*
X140131800Y-59766200D01*
X152222200Y-58978800D02*
X140563600Y-58978800D01*
X140563600Y-58978800D02*
X140131800Y-59410600D01*
X164693600Y-81686400D02*
X165709600Y-82702400D01*
X152244332Y-77160000D02*
X152313132Y-77091200D01*
X152313132Y-77091200D02*
X153911200Y-77091200D01*
X165709600Y-82702400D02*
X165709600Y-92689377D01*
X149400000Y-77260000D02*
X149500000Y-77160000D01*
X153911200Y-77091200D02*
X158506400Y-81686400D01*
X139050000Y-77260000D02*
X149400000Y-77260000D01*
X158506400Y-81686400D02*
X164693600Y-81686400D01*
X165709600Y-92689377D02*
X163997954Y-94401023D01*
X137560000Y-75770000D02*
X139050000Y-77260000D01*
X149500000Y-77160000D02*
X152244332Y-77160000D01*
X155068468Y-75035000D02*
X154691532Y-75035000D01*
X153526200Y-75785000D02*
X154279600Y-75031600D01*
X154300000Y-73563400D02*
X154300000Y-75011200D01*
X166166800Y-82397600D02*
X165049200Y-81280000D01*
X139130000Y-76610000D02*
X141700000Y-76610000D01*
X138280000Y-75770000D02*
X138290000Y-75770000D01*
X164871400Y-94335600D02*
X166166800Y-93040200D01*
X154691532Y-75035000D02*
X154688132Y-75031600D01*
X158648400Y-81280000D02*
X156413200Y-79044800D01*
X155168600Y-75031600D02*
X155071868Y-75031600D01*
X138290000Y-75770000D02*
X139130000Y-76610000D01*
X154688132Y-75031600D02*
X154279600Y-75031600D01*
X154300000Y-75011200D02*
X154279600Y-75031600D01*
X155071868Y-75031600D02*
X155068468Y-75035000D01*
X165049200Y-81280000D02*
X158648400Y-81280000D01*
X154381200Y-73482200D02*
X154300000Y-73563400D01*
X156413200Y-79044800D02*
X156413200Y-76276200D01*
X156413200Y-76276200D02*
X155168600Y-75031600D01*
X142525000Y-75785000D02*
X153526200Y-75785000D01*
X141700000Y-76610000D02*
X142525000Y-75785000D01*
X166166800Y-93040200D02*
X166166800Y-82397600D01*
D23*
X97663000Y-97358200D02*
X98704400Y-96316800D01*
D24*
X148590000Y-60528200D02*
X139192000Y-60528200D01*
D23*
X157200600Y-91668600D02*
X157200600Y-93167200D01*
X96215200Y-100507800D02*
X90678000Y-100507800D01*
X96215200Y-100507800D02*
X96824800Y-100507800D01*
X153263600Y-87731600D02*
X157200600Y-91668600D01*
D24*
X138404600Y-59740800D02*
X138404600Y-58750200D01*
D23*
X153856664Y-97731600D02*
X157200600Y-94387664D01*
D24*
X148844000Y-59867800D02*
X148844000Y-60274200D01*
D23*
X89966800Y-102235000D02*
X89636600Y-102565200D01*
X96824800Y-100507800D02*
X97663000Y-99669600D01*
X97663000Y-99669600D02*
X97663000Y-97358200D01*
X90678000Y-100507800D02*
X89966800Y-101219000D01*
X89636600Y-102565200D02*
X89204800Y-102565200D01*
D24*
X148844000Y-60274200D02*
X148590000Y-60528200D01*
D23*
X150393400Y-87731600D02*
X153263600Y-87731600D01*
X157200600Y-94387664D02*
X157200600Y-93167200D01*
X89966800Y-101219000D02*
X89966800Y-102235000D01*
X150393400Y-97731600D02*
X153856664Y-97731600D01*
D24*
X139192000Y-60528200D02*
X138404600Y-59740800D01*
X137363200Y-109093000D02*
X136992097Y-109464103D01*
X136992097Y-109464103D02*
X136067800Y-109464103D01*
X137363200Y-102336600D02*
X137363200Y-109093000D01*
X153023800Y-126223800D02*
X150534600Y-126223800D01*
X153035000Y-126212600D02*
X153023800Y-126223800D01*
X139144402Y-129159000D02*
X145745200Y-122558202D01*
X138861800Y-129159000D02*
X139144402Y-129159000D01*
X145745200Y-122558202D02*
X145745200Y-119595900D01*
X147624800Y-100838000D02*
X166522400Y-100838000D01*
X167690800Y-102006400D02*
X167690800Y-103733600D01*
X166522400Y-100838000D02*
X167690800Y-102006400D01*
X146948400Y-100161600D02*
X147624800Y-100838000D01*
X145338800Y-92913200D02*
X145338800Y-102184200D01*
X145338800Y-102184200D02*
X146431000Y-103276400D01*
X164388800Y-103276400D02*
X165747700Y-104635300D01*
X146431000Y-103276400D02*
X164388800Y-103276400D01*
X145364200Y-92887800D02*
X145338800Y-92913200D01*
X165061900Y-109728000D02*
X162458400Y-109728000D01*
X165747700Y-109042200D02*
X165061900Y-109728000D01*
X165747700Y-104635300D02*
X165747700Y-109042200D01*
X123621800Y-105791000D02*
X122428000Y-105791000D01*
D25*
X84803800Y-69763014D02*
X85892014Y-68674800D01*
X98534385Y-94672600D02*
X90743414Y-94672600D01*
X85833503Y-74320400D02*
X84803800Y-73290697D01*
X87395005Y-68674800D02*
X87515005Y-68554800D01*
X127084475Y-100787660D02*
X104649445Y-100787660D01*
X128068595Y-101771780D02*
X127084475Y-100787660D01*
X85892014Y-68674800D02*
X87395005Y-68674800D01*
X88392000Y-92321186D02*
X88392000Y-75023786D01*
X84803800Y-73290697D02*
X84803800Y-69763014D01*
X128068595Y-101941487D02*
X128068595Y-101771780D01*
X90743414Y-94672600D02*
X88392000Y-92321186D01*
X88392000Y-75023786D02*
X87688614Y-74320400D01*
X87688614Y-74320400D02*
X85833503Y-74320400D01*
X104649445Y-100787660D02*
X98534385Y-94672600D01*
X87862385Y-73900881D02*
X86007955Y-73900880D01*
X90917386Y-94252600D02*
X88811520Y-92146734D01*
X85223800Y-69936986D02*
X86065986Y-69094800D01*
X98708341Y-94252600D02*
X90917386Y-94252600D01*
X88811520Y-92146734D02*
X88811520Y-74850016D01*
X128365580Y-101474795D02*
X127258445Y-100367660D01*
X86007955Y-73900880D02*
X85223800Y-73116725D01*
X128535287Y-101474795D02*
X128365580Y-101474795D01*
X87395005Y-69094800D02*
X87515005Y-69214800D01*
X88811520Y-74850016D02*
X87862385Y-73900881D01*
X127258445Y-100367660D02*
X104823401Y-100367660D01*
X104823401Y-100367660D02*
X98708341Y-94252600D01*
X85223800Y-73116725D02*
X85223800Y-69936986D01*
X86065986Y-69094800D02*
X87395005Y-69094800D01*
X104484570Y-96902670D02*
X105032228Y-96355011D01*
X89401200Y-90680290D02*
X89401200Y-74178104D01*
X129459054Y-101587439D02*
X127819775Y-99948160D01*
X104484572Y-96902671D02*
X104484570Y-96902670D01*
X104571909Y-95894692D02*
X104571909Y-95894693D01*
X102540024Y-95275624D02*
X101953052Y-94688652D01*
X102381273Y-96990008D02*
X102381275Y-96990009D01*
X104571909Y-95894693D02*
X103635341Y-96831259D01*
X87673804Y-73114320D02*
X87525776Y-73262348D01*
X91380110Y-92659200D02*
X89401200Y-90680290D01*
X103936913Y-97450330D02*
X103936915Y-97450331D01*
X102381274Y-95894692D02*
X102381274Y-95894691D01*
X103635341Y-96831259D02*
X103476593Y-96990010D01*
X103936915Y-97450331D02*
X104095663Y-97291580D01*
X88337416Y-73114320D02*
X87673804Y-73114320D01*
X102381274Y-95894691D02*
X102540024Y-95735942D01*
X104095663Y-97291580D02*
X104484572Y-96902671D01*
X105190981Y-98386898D02*
X105032232Y-98545648D01*
X101953052Y-94688652D02*
X99923600Y-92659200D01*
X99923600Y-92659200D02*
X91380110Y-92659200D01*
X127819775Y-99948160D02*
X107212560Y-99948160D01*
X89401200Y-74178104D02*
X88337416Y-73114320D01*
X103936915Y-98545649D02*
X103936914Y-98545647D01*
X107212560Y-99948160D02*
X105651299Y-98386898D01*
X129459054Y-101757146D02*
X129459054Y-101587439D01*
X102381240Y-96990041D02*
G75*
G03*
X103476592Y-96990009I547660J547741D01*
G01*
X105032276Y-96355059D02*
G75*
G03*
X105032228Y-95894693I-230176J230159D01*
G01*
X103936943Y-98545621D02*
G75*
G03*
X105032231Y-98545647I547657J547621D01*
G01*
X102381224Y-95894642D02*
G75*
G03*
X102381275Y-96990009I547676J-547658D01*
G01*
X102540041Y-95735959D02*
G75*
G03*
X102540024Y-95275624I-230141J230159D01*
G01*
X105651298Y-98386899D02*
G75*
G03*
X105190982Y-98386899I-230158J-230158D01*
G01*
X105032260Y-95894661D02*
G75*
G03*
X104571909Y-95894692I-230160J-230239D01*
G01*
X103936925Y-97450342D02*
G75*
G03*
X103936914Y-98545647I547675J-547658D01*
G01*
X104254412Y-97767829D02*
X104254414Y-97767830D01*
X104254414Y-97767830D02*
X104413162Y-97609079D01*
X89821200Y-74004814D02*
X88511187Y-72694801D01*
X128163932Y-99528640D02*
X107428040Y-99528640D01*
X129925746Y-101290454D02*
X128163932Y-99528640D01*
X89821200Y-90507000D02*
X89821200Y-74004814D01*
X104960819Y-97061420D02*
X105349728Y-96672511D01*
X104254411Y-95577194D02*
X103317842Y-96513760D01*
X87630000Y-72694800D02*
X87528400Y-72593200D01*
X103317842Y-96513760D02*
X103159091Y-96672508D01*
X104802069Y-97220169D02*
X104960819Y-97061420D01*
X88511187Y-72694801D02*
X87630000Y-72694800D01*
X104873482Y-98069400D02*
X104714731Y-98228148D01*
X102698772Y-96212189D02*
X102698774Y-96212190D01*
X104413162Y-97609079D02*
X104802071Y-97220170D01*
X104802071Y-97220170D02*
X104802069Y-97220169D01*
X104873482Y-98069399D02*
X104873482Y-98069400D01*
X91553880Y-92239680D02*
X89821200Y-90507000D01*
X105349728Y-95577193D02*
X105349728Y-95577194D01*
X102857523Y-94958123D02*
X100139080Y-92239680D01*
X107428040Y-99528640D02*
X105968798Y-98069399D01*
X102698774Y-96212190D02*
X102857522Y-96053439D01*
X104254411Y-95577193D02*
X104254411Y-95577194D01*
X102857523Y-94958122D02*
X102857523Y-94958123D01*
X100139080Y-92239680D02*
X91553880Y-92239680D01*
X102857541Y-96053458D02*
G75*
G03*
X102857522Y-94958123I-547641J547658D01*
G01*
X104254424Y-97767841D02*
G75*
G03*
X104254413Y-98228148I230176J-230159D01*
G01*
X104254414Y-98228147D02*
G75*
G03*
X104714730Y-98228147I230158J230158D01*
G01*
X105349775Y-96672558D02*
G75*
G03*
X105349727Y-95577194I-547675J547658D01*
G01*
X105349758Y-95577164D02*
G75*
G03*
X104254412Y-95577194I-547658J-547736D01*
G01*
X105968797Y-98069400D02*
G75*
G03*
X104873483Y-98069400I-547657J-547662D01*
G01*
X102698774Y-96672507D02*
G75*
G03*
X103159090Y-96672507I230158J230158D01*
G01*
X102698724Y-96212141D02*
G75*
G03*
X102698773Y-96672508I230176J-230159D01*
G01*
X92159014Y-91694000D02*
X102369814Y-91694000D01*
X90373200Y-72330704D02*
X90373200Y-89908186D01*
X87820080Y-70574320D02*
X88616816Y-70574320D01*
X128513215Y-99016000D02*
X130949545Y-101452330D01*
X102369814Y-91694000D02*
X109691814Y-99016000D01*
X88616816Y-70574320D02*
X90373200Y-72330704D01*
X87579200Y-70815200D02*
X87820080Y-70574320D01*
X130949545Y-101452330D02*
X130949545Y-101622037D01*
X109691814Y-99016000D02*
X128513215Y-99016000D01*
X90373200Y-89908186D02*
X92159014Y-91694000D01*
X87553800Y-70002400D02*
X87706200Y-70154800D01*
X88790587Y-70154801D02*
X90792720Y-72156934D01*
X102544266Y-91274480D02*
X109865786Y-98596000D01*
X128687185Y-98596000D02*
X131246530Y-101155345D01*
X90792720Y-72156934D02*
X90792720Y-89733734D01*
X87706200Y-70154800D02*
X88790587Y-70154801D01*
X92333466Y-91274480D02*
X102544266Y-91274480D01*
X109865786Y-98596000D02*
X128687185Y-98596000D01*
X90792720Y-89733734D02*
X92333466Y-91274480D01*
X131246530Y-101155345D02*
X131416237Y-101155345D01*
X86226200Y-63463814D02*
X87170901Y-62519113D01*
X132950900Y-100718300D02*
X130365920Y-98133320D01*
X110163830Y-98133320D02*
X102848630Y-90818120D01*
X130365920Y-98133320D02*
X110163830Y-98133320D01*
X87289014Y-66402400D02*
X86226200Y-65339586D01*
X93399829Y-90818119D02*
X91338400Y-88756690D01*
X87170901Y-62519113D02*
X87548336Y-62519113D01*
X132830900Y-101204095D02*
X132950900Y-101084095D01*
X91338400Y-88756690D02*
X91338400Y-67860986D01*
X89879814Y-66402400D02*
X87289014Y-66402400D01*
X132950900Y-101084095D02*
X132950900Y-100718300D01*
X87548336Y-62519113D02*
X87668336Y-62399113D01*
X91338400Y-67860986D02*
X89879814Y-66402400D01*
X86226200Y-65339586D02*
X86226200Y-63463814D01*
X102848630Y-90818120D02*
X93399829Y-90818119D01*
X130539690Y-97713800D02*
X110337600Y-97713800D01*
X90053786Y-65982400D02*
X87462986Y-65982400D01*
X133370900Y-101084095D02*
X133370900Y-100545010D01*
X133370900Y-100545010D02*
X130539690Y-97713800D01*
X87344873Y-62939113D02*
X87548336Y-62939113D01*
X87548336Y-62939113D02*
X87668336Y-63059113D01*
X133490900Y-101204095D02*
X133370900Y-101084095D01*
X93573600Y-90398600D02*
X91757920Y-88582920D01*
X87462986Y-65982400D02*
X86646200Y-65165614D01*
X91757920Y-67686534D02*
X90053786Y-65982400D01*
X86646200Y-65165614D02*
X86646200Y-63637786D01*
X91757920Y-88582920D02*
X91757920Y-67686534D01*
X86646200Y-63637786D02*
X87344873Y-62939113D01*
X110337600Y-97713800D02*
X103022400Y-90398600D01*
X103022400Y-90398600D02*
X93573600Y-90398600D01*
X93070723Y-75288291D02*
X94478048Y-75288291D01*
X108638739Y-94875800D02*
X103590459Y-89827520D01*
X112045400Y-94875800D02*
X109311972Y-94875800D01*
X122366414Y-94875800D02*
X117925400Y-94875800D01*
X113095400Y-95541850D02*
X113095400Y-94875800D01*
X113095400Y-94875800D02*
X113095400Y-93789750D01*
X116455400Y-95085800D02*
X116455400Y-93789750D01*
X114775400Y-95541850D02*
X114775400Y-94875800D01*
X94000934Y-89827520D02*
X92271400Y-88097986D01*
X94478048Y-75288291D02*
X94598048Y-75168291D01*
X92271400Y-88097986D02*
X92271400Y-76087614D01*
X109311972Y-94875800D02*
X108638739Y-94875800D01*
X135095800Y-101251479D02*
X135095800Y-100315386D01*
X92271400Y-76087614D02*
X93070723Y-75288291D01*
X134831132Y-101346440D02*
X135000839Y-101346440D01*
X114355400Y-93789750D02*
X114355400Y-94455800D01*
X135095800Y-100315386D02*
X131967614Y-97187200D01*
X117715400Y-95085800D02*
X117715400Y-95541850D01*
X124677814Y-97187200D02*
X122366414Y-94875800D01*
X116455400Y-95541850D02*
X116455400Y-95085800D01*
X116035400Y-94455800D02*
X116035400Y-95541850D01*
X112675400Y-93789750D02*
X112675400Y-94245800D01*
X135000839Y-101346440D02*
X135095800Y-101251479D01*
X114775400Y-94875800D02*
X114775400Y-93789750D01*
X114355400Y-94455800D02*
X114355400Y-95541850D01*
X116035400Y-93789750D02*
X116035400Y-94455800D01*
X103590459Y-89827520D02*
X94000934Y-89827520D01*
X131967614Y-97187200D02*
X124677814Y-97187200D01*
X112045400Y-94875800D02*
G75*
G03*
X112675400Y-94245800I0J630000D01*
G01*
X115405400Y-96171800D02*
G75*
G03*
X116035400Y-95541850I0J630000D01*
G01*
X113725400Y-96171800D02*
G75*
G03*
X114355400Y-95541850I0J630000D01*
G01*
X116245400Y-93579800D02*
G75*
G03*
X116035400Y-93789750I0J-210000D01*
G01*
X112885400Y-93579800D02*
G75*
G03*
X112675400Y-93789750I0J-210000D01*
G01*
X116455350Y-95541850D02*
G75*
G03*
X117085400Y-96171850I630050J50D01*
G01*
X117925400Y-94875800D02*
G75*
G03*
X117715400Y-95085800I0J-210000D01*
G01*
X114565400Y-93579800D02*
G75*
G03*
X114355400Y-93789750I0J-210000D01*
G01*
X117085400Y-96171800D02*
G75*
G03*
X117715400Y-95541850I0J630000D01*
G01*
X113095450Y-93789750D02*
G75*
G03*
X112885400Y-93579750I-210050J-50D01*
G01*
X113095350Y-95541850D02*
G75*
G03*
X113725400Y-96171850I630050J50D01*
G01*
X114775450Y-93789750D02*
G75*
G03*
X114565400Y-93579750I-210050J-50D01*
G01*
X116455450Y-93789750D02*
G75*
G03*
X116245400Y-93579750I-210050J-50D01*
G01*
X114775350Y-95541850D02*
G75*
G03*
X115405400Y-96171850I630050J50D01*
G01*
X112045400Y-94455800D02*
X109311972Y-94455800D01*
X132141586Y-96767200D02*
X124851786Y-96767200D01*
X113935400Y-93789750D02*
X113935400Y-94455800D01*
X116875400Y-95541850D02*
X116875400Y-95085800D01*
X113515400Y-94875800D02*
X113515400Y-93789750D01*
X92691400Y-76260904D02*
X93244493Y-75707811D01*
X116875400Y-95085800D02*
X116875400Y-93789750D01*
X94477568Y-75707811D02*
X94598048Y-75828291D01*
X115195400Y-95541850D02*
X115195400Y-94875800D01*
X124851786Y-96767200D02*
X122540386Y-94455800D01*
X117295400Y-95085800D02*
X117295400Y-95541850D01*
X135604742Y-101430472D02*
X135604742Y-100230356D01*
X135604742Y-100230356D02*
X132141586Y-96767200D01*
X94175386Y-89408000D02*
X92691400Y-87924014D01*
X108812711Y-94455800D02*
X103764911Y-89408000D01*
X122540386Y-94455800D02*
X117925400Y-94455800D01*
X115615400Y-94455800D02*
X115615400Y-95541850D01*
X113515400Y-95541850D02*
X113515400Y-94875800D01*
X103764911Y-89408000D02*
X94175386Y-89408000D01*
X92691400Y-87924014D02*
X92691400Y-76260904D01*
X115615400Y-93789750D02*
X115615400Y-94455800D01*
X93244493Y-75707811D02*
X94477568Y-75707811D01*
X112255400Y-93789750D02*
X112255400Y-94245800D01*
X115195400Y-94875800D02*
X115195400Y-93789750D01*
X109311972Y-94455800D02*
X108812711Y-94455800D01*
X113935400Y-94455800D02*
X113935400Y-95541850D01*
X112045400Y-94455800D02*
G75*
G03*
X112255400Y-94245800I0J210000D01*
G01*
X117085400Y-95751800D02*
G75*
G03*
X117295400Y-95541850I0J210000D01*
G01*
X113725400Y-95751800D02*
G75*
G03*
X113935400Y-95541850I0J210000D01*
G01*
X115405400Y-95751800D02*
G75*
G03*
X115615400Y-95541850I0J210000D01*
G01*
X115195450Y-93789750D02*
G75*
G03*
X114565400Y-93159750I-630050J-50D01*
G01*
X115195350Y-95541850D02*
G75*
G03*
X115405400Y-95751850I210050J50D01*
G01*
X114565400Y-93159800D02*
G75*
G03*
X113935400Y-93789750I0J-630000D01*
G01*
X117925400Y-94455800D02*
G75*
G03*
X117295400Y-95085800I0J-630000D01*
G01*
X113515450Y-93789750D02*
G75*
G03*
X112885400Y-93159750I-630050J-50D01*
G01*
X113515350Y-95541850D02*
G75*
G03*
X113725400Y-95751850I210050J50D01*
G01*
X116245400Y-93159800D02*
G75*
G03*
X115615400Y-93789750I0J-630000D01*
G01*
X116875350Y-95541850D02*
G75*
G03*
X117085400Y-95751850I210050J50D01*
G01*
X112885400Y-93159800D02*
G75*
G03*
X112255400Y-93789750I0J-630000D01*
G01*
X116875450Y-93789750D02*
G75*
G03*
X116245400Y-93159750I-630050J-50D01*
G01*
D24*
X166243000Y-104190800D02*
X166243000Y-108991400D01*
X143383000Y-85267800D02*
X138265904Y-85267800D01*
X145770600Y-97866200D02*
X145770600Y-101981000D01*
X155371800Y-85267800D02*
X143383000Y-85267800D01*
X164846000Y-102793800D02*
X166243000Y-104190800D01*
X146783900Y-96852900D02*
X145770600Y-97866200D01*
X135471904Y-82473800D02*
X132334000Y-82473800D01*
X146783900Y-96330038D02*
X146783900Y-96852900D01*
X146583400Y-102793800D02*
X164846000Y-102793800D01*
X138265904Y-85267800D02*
X135471904Y-82473800D01*
X163525200Y-84150200D02*
X163035000Y-83660000D01*
X167068500Y-109816900D02*
X167068500Y-110704600D01*
X145770600Y-101981000D02*
X146583400Y-102793800D01*
X166243000Y-108991400D02*
X167068500Y-109816900D01*
X156979600Y-83660000D02*
X155371800Y-85267800D01*
X163035000Y-83660000D02*
X156979600Y-83660000D01*
X147491247Y-100026100D02*
X147693547Y-100228400D01*
X166776400Y-100228400D02*
X168278043Y-101730043D01*
X147693547Y-100228400D02*
X166776400Y-100228400D01*
X168278043Y-101730043D02*
X168278043Y-104419526D01*
X158750000Y-92360000D02*
X158675000Y-92435000D01*
X163450000Y-92360000D02*
X158750000Y-92360000D01*
X151908500Y-77835000D02*
X151808500Y-77935000D01*
X151808500Y-77935000D02*
X150790268Y-77935000D01*
X149995732Y-78077400D02*
X149678332Y-77760000D01*
X137160000Y-82931000D02*
X136626600Y-82397600D01*
X139446000Y-81508600D02*
X138023600Y-82931000D01*
X141445000Y-78075000D02*
X139446000Y-80074000D01*
X149678332Y-77760000D02*
X144950000Y-77760000D01*
X141760000Y-77760000D02*
X141445000Y-78075000D01*
X150790268Y-77935000D02*
X150647868Y-78077400D01*
X139446000Y-80074000D02*
X139446000Y-81508600D01*
X138023600Y-82931000D02*
X137160000Y-82931000D01*
X150647868Y-78077400D02*
X149995732Y-78077400D01*
X144950000Y-77760000D02*
X141760000Y-77760000D01*
X144780000Y-92252800D02*
X144780000Y-102350304D01*
X146163296Y-103733600D02*
X157581600Y-103733600D01*
X144780000Y-102350304D02*
X146163296Y-103733600D01*
X158500000Y-91835000D02*
X157950000Y-92385000D01*
X162550000Y-91835000D02*
X158500000Y-91835000D01*
X145212783Y-69300000D02*
X145215983Y-69303200D01*
X146176017Y-69300000D02*
X149700000Y-69300000D01*
X128010000Y-70840000D02*
X128620000Y-70230000D01*
X149700000Y-69300000D02*
X150465000Y-68535000D01*
X128620000Y-70230000D02*
X134190000Y-70230000D01*
X134190000Y-70230000D02*
X136420000Y-72460000D01*
X145215983Y-69303200D02*
X146172817Y-69303200D01*
X142157468Y-72460000D02*
X143410600Y-71206868D01*
X164050000Y-68535000D02*
X166275000Y-66310000D01*
X150465000Y-68535000D02*
X164050000Y-68535000D01*
X136420000Y-72460000D02*
X142157468Y-72460000D01*
X143410600Y-70829932D02*
X144940532Y-69300000D01*
X143410600Y-71206868D02*
X143410600Y-70829932D01*
X144940532Y-69300000D02*
X145212783Y-69300000D01*
X146172817Y-69303200D02*
X146176017Y-69300000D01*
X135435535Y-73710000D02*
X143330000Y-73710000D01*
X146050000Y-70990000D02*
X150310000Y-70990000D01*
X151346200Y-69953800D02*
X153985468Y-69953800D01*
X167425000Y-71160000D02*
X168275000Y-70310000D01*
X164875000Y-70285000D02*
X164875000Y-70301726D01*
X150310000Y-70990000D02*
X151346200Y-69953800D01*
X143330000Y-73710000D02*
X146050000Y-70990000D01*
X164650000Y-70060000D02*
X164875000Y-70285000D01*
X165733274Y-71160000D02*
X167425000Y-71160000D01*
X132547120Y-70821585D02*
X135435535Y-73710000D01*
X153985468Y-69953800D02*
X154091668Y-70060000D01*
X154091668Y-70060000D02*
X164650000Y-70060000D01*
X164875000Y-70301726D02*
X165733274Y-71160000D01*
X165800000Y-68785000D02*
X166275000Y-68310000D01*
X150855000Y-68985000D02*
X165218325Y-68985000D01*
X145817468Y-69710000D02*
X150130000Y-69710000D01*
X142580000Y-72810000D02*
X143770000Y-71620000D01*
X165418325Y-68785000D02*
X165800000Y-68785000D01*
X143907468Y-71620000D02*
X145817468Y-69710000D01*
X150130000Y-69710000D02*
X150855000Y-68985000D01*
X133870000Y-70850000D02*
X134250000Y-70850000D01*
X134250000Y-70850000D02*
X136210000Y-72810000D01*
X165218325Y-68985000D02*
X165418325Y-68785000D01*
X143770000Y-71620000D02*
X143907468Y-71620000D01*
X136210000Y-72810000D02*
X142580000Y-72810000D01*
X148264868Y-72438600D02*
X148718468Y-71985000D01*
X146748600Y-72438600D02*
X148264868Y-72438600D01*
X155285000Y-70635000D02*
X162900000Y-70635000D01*
X143950000Y-74330000D02*
X146295000Y-71985000D01*
X131980000Y-70950000D02*
X135360000Y-74330000D01*
X135360000Y-74330000D02*
X143950000Y-74330000D01*
X146295000Y-71985000D02*
X146748600Y-72438600D01*
X165400000Y-73135000D02*
X167450000Y-73135000D01*
X131980000Y-70800000D02*
X131980000Y-70950000D01*
X153935000Y-71985000D02*
X155285000Y-70635000D01*
X148718468Y-71985000D02*
X153935000Y-71985000D01*
X162900000Y-70635000D02*
X165400000Y-73135000D01*
X167450000Y-73135000D02*
X168275000Y-72310000D01*
X167150000Y-69435000D02*
X168275000Y-68310000D01*
X135600000Y-73230000D02*
X143010000Y-73230000D01*
X145730000Y-70510000D02*
X150090000Y-70510000D01*
X151165000Y-69435000D02*
X167150000Y-69435000D01*
X150090000Y-70510000D02*
X151165000Y-69435000D01*
X133200000Y-70830000D02*
X135600000Y-73230000D01*
X143010000Y-73230000D02*
X145730000Y-70510000D01*
X121400000Y-79735000D02*
X124173000Y-76962000D01*
X118338600Y-91643200D02*
X119227600Y-91643200D01*
X119227600Y-91643200D02*
X121400000Y-89470800D01*
X121400000Y-89470800D02*
X121400000Y-79735000D01*
X124173000Y-76962000D02*
X132408000Y-76962000D01*
X133480000Y-74110000D02*
X133470000Y-74100000D01*
X132408000Y-76962000D02*
X133480000Y-75890000D01*
X133480000Y-75890000D02*
X133480000Y-74110000D01*
X117932200Y-91149600D02*
X118756000Y-91149600D01*
X120950000Y-79510000D02*
X124006000Y-76454000D01*
X124006000Y-76454000D02*
X132146000Y-76454000D01*
X132980000Y-75620000D02*
X132980000Y-73820000D01*
X132146000Y-76454000D02*
X132980000Y-75620000D01*
X118756000Y-91149600D02*
X120950000Y-88955600D01*
X120950000Y-88955600D02*
X120950000Y-79510000D01*
X118643400Y-90195400D02*
X119600000Y-89238800D01*
X131813200Y-75996800D02*
X132490000Y-75320000D01*
X119600000Y-79383600D02*
X122986800Y-75996800D01*
X132490000Y-75320000D02*
X132490000Y-73530000D01*
X122986800Y-75996800D02*
X131813200Y-75996800D01*
X119600000Y-89238800D02*
X119600000Y-79383600D01*
X119175000Y-88927200D02*
X119175000Y-78945000D01*
X122631200Y-75488800D02*
X131381200Y-75488800D01*
X131381200Y-75488800D02*
X131939011Y-74930989D01*
X119175000Y-78945000D02*
X122631200Y-75488800D01*
X131939011Y-74930989D02*
X131939011Y-73627233D01*
X117983000Y-90119200D02*
X119175000Y-88927200D01*
X117957600Y-90119200D02*
X117983000Y-90119200D01*
X124688600Y-105003600D02*
X124688600Y-106883200D01*
X124358400Y-104673400D02*
X124688600Y-105003600D01*
D26*
X140105400Y-117120400D02*
X143052800Y-117120400D01*
X139725400Y-117729000D02*
X139725400Y-117500400D01*
X139725400Y-117500400D02*
X140105400Y-117120400D01*
X141782800Y-120015000D02*
X141782800Y-120523000D01*
X139192000Y-119532400D02*
X141300200Y-119532400D01*
X141300200Y-119532400D02*
X141782800Y-120015000D01*
D24*
X124104400Y-107162600D02*
X124333000Y-107391200D01*
X124104400Y-105257600D02*
X124104400Y-107162600D01*
X99988104Y-65989200D02*
X121150800Y-65989200D01*
X129250000Y-66810000D02*
X129475000Y-66810000D01*
X124910000Y-65540000D02*
X126170000Y-66800000D01*
X99077911Y-66899393D02*
X99988104Y-65989200D01*
X93975200Y-86653800D02*
X93645000Y-86323600D01*
X99077911Y-67927089D02*
X99077911Y-66899393D01*
X93645000Y-80903800D02*
X95758000Y-78790800D01*
X121150800Y-65989200D02*
X121600000Y-65540000D01*
X98679000Y-68326000D02*
X99077911Y-67927089D01*
X126170000Y-66800000D02*
X129240000Y-66800000D01*
X129240000Y-66800000D02*
X129250000Y-66810000D01*
X97205800Y-68326000D02*
X98679000Y-68326000D01*
X121600000Y-65540000D02*
X124910000Y-65540000D01*
X95758000Y-78790800D02*
X95758000Y-69773800D01*
X93645000Y-86323600D02*
X93645000Y-80903800D01*
X94115409Y-86653800D02*
X93975200Y-86653800D01*
X95758000Y-69773800D02*
X97205800Y-68326000D01*
X99898200Y-67259200D02*
X99898200Y-69367400D01*
X121277223Y-66649600D02*
X100507800Y-66649600D01*
X99568000Y-69697600D02*
X97180400Y-69697600D01*
X124610000Y-66040000D02*
X121886823Y-66040000D01*
X100507800Y-66649600D02*
X99898200Y-67259200D01*
X125930000Y-67360000D02*
X124610000Y-66040000D01*
X129465497Y-67360000D02*
X129475000Y-67369503D01*
X94590891Y-85198718D02*
X94115409Y-85674200D01*
X96570800Y-70307200D02*
X96570800Y-79070200D01*
X94590891Y-81050109D02*
X94590891Y-85198718D01*
X99898200Y-69367400D02*
X99568000Y-69697600D01*
X127300000Y-67360000D02*
X125930000Y-67360000D01*
X127300000Y-67360000D02*
X129465497Y-67360000D01*
X97180400Y-69697600D02*
X96570800Y-70307200D01*
X96570800Y-79070200D02*
X94590891Y-81050109D01*
X121886823Y-66040000D02*
X121277223Y-66649600D01*
X117627400Y-71678800D02*
X117627400Y-72658400D01*
X137795000Y-78435200D02*
X138353800Y-78994000D01*
X118403811Y-70902389D02*
X117627400Y-71678800D01*
X121894600Y-70902389D02*
X118403811Y-70902389D01*
X138353800Y-78994000D02*
X138353800Y-79705200D01*
X135940800Y-78435200D02*
X137795000Y-78435200D01*
D26*
X96506373Y-88321373D02*
X96506373Y-82979627D01*
D24*
X141681200Y-125577600D02*
X139039600Y-125577600D01*
X145288000Y-120472200D02*
X145288000Y-121970800D01*
X145288000Y-121970800D02*
X141681200Y-125577600D01*
X139039600Y-125577600D02*
X138033500Y-124571500D01*
X138033500Y-124571500D02*
X137654200Y-124571500D01*
D26*
X110053400Y-88508000D02*
X110053400Y-88565000D01*
X124383800Y-80137000D02*
X131673600Y-80137000D01*
X120700800Y-92202000D02*
X121894600Y-91008200D01*
X131673600Y-80137000D02*
X131851400Y-79959200D01*
X121894600Y-82626200D02*
X124383800Y-80137000D01*
X121894600Y-91008200D02*
X121894600Y-82626200D01*
X110053400Y-88565000D02*
X113690400Y-92202000D01*
X113690400Y-92202000D02*
X120700800Y-92202000D01*
X131851400Y-79959200D02*
X131851400Y-79502000D01*
D24*
X114782600Y-72212200D02*
X114122200Y-72212200D01*
X103119200Y-87111000D02*
X101671400Y-88558800D01*
X107945200Y-87111000D02*
X103119200Y-87111000D01*
X108326200Y-88508000D02*
X108326200Y-87111000D01*
X101671400Y-88558800D02*
X99512400Y-88558800D01*
X114122200Y-72212200D02*
X113411000Y-72923400D01*
X111161400Y-87111000D02*
X107945200Y-87111000D01*
X113411000Y-84861400D02*
X111161400Y-87111000D01*
X108326200Y-87111000D02*
X107945200Y-87111000D01*
X113411000Y-72923400D02*
X113411000Y-84861400D01*
X145897600Y-104216200D02*
X144170400Y-102489000D01*
X165251268Y-106070400D02*
X164338000Y-106070400D01*
X162483800Y-104216200D02*
X145897600Y-104216200D01*
X144170400Y-90449400D02*
X143256000Y-89535000D01*
X164338000Y-106070400D02*
X162483800Y-104216200D01*
X143256000Y-89535000D02*
X142011400Y-89535000D01*
X144170400Y-102489000D02*
X144170400Y-90449400D01*
X147203538Y-95887000D02*
X147238900Y-95922362D01*
X135509000Y-82016600D02*
X130327400Y-82016600D01*
X147238900Y-95922362D02*
X147238900Y-97109100D01*
X146304000Y-100355400D02*
X147370800Y-101422200D01*
X164465000Y-101422200D02*
X166751000Y-103708200D01*
X138277600Y-84785200D02*
X135509000Y-82016600D01*
X166751000Y-103708200D02*
X166751000Y-108839000D01*
X147238900Y-97109100D02*
X146304000Y-98044000D01*
X146304000Y-98044000D02*
X146304000Y-100355400D01*
X147370800Y-101422200D02*
X164465000Y-101422200D01*
X166751000Y-108839000D02*
X166839900Y-108927900D01*
X166839900Y-108927900D02*
X167106600Y-108927900D01*
X143891000Y-84785200D02*
X138277600Y-84785200D01*
X117195600Y-79527400D02*
X121615200Y-75107800D01*
X114333262Y-89069938D02*
X117195600Y-86207600D01*
X122428000Y-73533000D02*
X122428000Y-73482200D01*
X121615200Y-75107800D02*
X121615200Y-74345800D01*
X117195600Y-86207600D02*
X117195600Y-79527400D01*
X121615200Y-74345800D02*
X122428000Y-73533000D01*
X114333262Y-90010986D02*
X114333262Y-89069938D01*
D23*
X149440355Y-68710000D02*
X144368645Y-68710000D01*
X116190000Y-85638400D02*
X114427000Y-87401400D01*
X151930000Y-66220355D02*
X149440355Y-68710000D01*
X158118000Y-64902000D02*
X152677045Y-64902000D01*
X141398645Y-71680000D02*
X136700000Y-71680000D01*
X144368645Y-68710000D02*
X141398645Y-71680000D01*
X159492500Y-63527500D02*
X158118000Y-64902000D01*
X119450711Y-72852689D02*
X116190000Y-76113400D01*
X127380000Y-69460000D02*
X123987311Y-72852689D01*
X123987311Y-72852689D02*
X119450711Y-72852689D01*
X152677045Y-64902000D02*
X151930000Y-65649045D01*
X116190000Y-76113400D02*
X116190000Y-85638400D01*
X151930000Y-65649045D02*
X151930000Y-66220355D01*
X134480000Y-69460000D02*
X127380000Y-69460000D01*
X136700000Y-71680000D02*
X134480000Y-69460000D01*
D24*
X122834400Y-91516200D02*
X121640600Y-92710000D01*
X132461000Y-80899000D02*
X124561000Y-80899000D01*
X132842000Y-80518000D02*
X132461000Y-80899000D01*
X108864400Y-92710000D02*
X105100400Y-88946000D01*
X132842000Y-79502000D02*
X132842000Y-80518000D01*
X105100400Y-88946000D02*
X105100400Y-88533400D01*
X122834400Y-82625600D02*
X122834400Y-91516200D01*
X124561000Y-80899000D02*
X122834400Y-82625600D01*
X121640600Y-92710000D02*
X108864400Y-92710000D01*
X136804400Y-79222600D02*
X137845800Y-79222600D01*
X152247600Y-91414600D02*
X152730200Y-91897200D01*
X152730200Y-91897200D02*
X156387800Y-91897200D01*
X148450000Y-74510000D02*
X150400000Y-74510000D01*
X151882800Y-73027200D02*
X154757800Y-73027200D01*
X150400000Y-74510000D02*
X151882800Y-73027200D01*
X155752800Y-72032200D02*
X155752800Y-72009000D01*
X154757800Y-73027200D02*
X155752800Y-72032200D01*
X113175000Y-110410000D02*
X120900000Y-102685000D01*
X91533528Y-101887472D02*
X90093800Y-103327200D01*
X101150000Y-110410000D02*
X99945200Y-110410000D01*
X98450400Y-103022400D02*
X97315472Y-101887472D01*
X90093800Y-103327200D02*
X88900000Y-103327200D01*
X97315472Y-101887472D02*
X91533528Y-101887472D01*
X99945200Y-110410000D02*
X98450400Y-108915200D01*
X101150000Y-110410000D02*
X113175000Y-110410000D01*
X98450400Y-108915200D02*
X98450400Y-103022400D01*
X147150000Y-91260000D02*
X147150000Y-92488200D01*
X135250000Y-83760000D02*
X137273600Y-85783600D01*
X147150000Y-92488200D02*
X148393400Y-93731600D01*
X141673600Y-85783600D02*
X147150000Y-91260000D01*
X131250000Y-83760000D02*
X135250000Y-83760000D01*
X129450000Y-81960000D02*
X131250000Y-83760000D01*
X137273600Y-85783600D02*
X141673600Y-85783600D01*
X135490000Y-85490000D02*
X136133600Y-86133600D01*
X146420000Y-91480000D02*
X146420000Y-93758200D01*
X146420000Y-93758200D02*
X148393400Y-95731600D01*
X129890000Y-84120000D02*
X131260000Y-85490000D01*
X128850000Y-81960000D02*
X128850000Y-82020000D01*
X131260000Y-85490000D02*
X135490000Y-85490000D01*
X141073600Y-86133600D02*
X146420000Y-91480000D01*
X128850000Y-82020000D02*
X129890000Y-83060000D01*
X129890000Y-83060000D02*
X129890000Y-84120000D01*
X136133600Y-86133600D02*
X141073600Y-86133600D01*
X136125000Y-91856932D02*
X133477000Y-94504932D01*
X137025000Y-88160000D02*
X136125000Y-89060000D01*
X136125000Y-89060000D02*
X136125000Y-91856932D01*
X133477000Y-94504932D02*
X133477000Y-95021400D01*
G04 #@! TA.AperFunction,Conductor*
G36*
X156138170Y-45048573D02*
G01*
X156183546Y-45093862D01*
X156200238Y-45155759D01*
X156204376Y-47301804D01*
X156214968Y-52796694D01*
X156214968Y-52796696D01*
X156215000Y-52813000D01*
X157158949Y-52813000D01*
X157225802Y-52832565D01*
X157271559Y-52885086D01*
X157281780Y-52953990D01*
X157253239Y-53017532D01*
X157194944Y-53055661D01*
X157115711Y-53079695D01*
X157115704Y-53079697D01*
X157109885Y-53081463D01*
X157104519Y-53084330D01*
X157104512Y-53084334D01*
X156948052Y-53167963D01*
X156948041Y-53167970D01*
X156942676Y-53170838D01*
X156937964Y-53174704D01*
X156937964Y-53174705D01*
X156800823Y-53287254D01*
X156800818Y-53287258D01*
X156796117Y-53291117D01*
X156792258Y-53295818D01*
X156792254Y-53295823D01*
X156679705Y-53432964D01*
X156675838Y-53437676D01*
X156672970Y-53443041D01*
X156672963Y-53443052D01*
X156589334Y-53599512D01*
X156589330Y-53599519D01*
X156586463Y-53604885D01*
X156584697Y-53610704D01*
X156584695Y-53610711D01*
X156533195Y-53780486D01*
X156533193Y-53780493D01*
X156531427Y-53786317D01*
X156530830Y-53792373D01*
X156530829Y-53792381D01*
X156523275Y-53869085D01*
X156512843Y-53975000D01*
X156513440Y-53981061D01*
X156530829Y-54157618D01*
X156530830Y-54157624D01*
X156531427Y-54163683D01*
X156533194Y-54169508D01*
X156533195Y-54169513D01*
X156584695Y-54339288D01*
X156586463Y-54345115D01*
X156589332Y-54350483D01*
X156589334Y-54350487D01*
X156672963Y-54506947D01*
X156672967Y-54506953D01*
X156675838Y-54512324D01*
X156796117Y-54658883D01*
X156942676Y-54779162D01*
X156948048Y-54782033D01*
X156948052Y-54782036D01*
X157083247Y-54854299D01*
X157109885Y-54868537D01*
X157291317Y-54923573D01*
X157480000Y-54942157D01*
X157668683Y-54923573D01*
X157850115Y-54868537D01*
X158017324Y-54779162D01*
X158163883Y-54658883D01*
X158284162Y-54512324D01*
X158373537Y-54345115D01*
X158428573Y-54163683D01*
X158447157Y-53975000D01*
X158428573Y-53786317D01*
X158373537Y-53604885D01*
X158284162Y-53437676D01*
X158163883Y-53291117D01*
X158017324Y-53170838D01*
X158011953Y-53167967D01*
X158011947Y-53167963D01*
X157855487Y-53084334D01*
X157855483Y-53084332D01*
X157850115Y-53081463D01*
X157844291Y-53079696D01*
X157844288Y-53079695D01*
X157765056Y-53055661D01*
X157706761Y-53017532D01*
X157678220Y-52953990D01*
X157688441Y-52885086D01*
X157734198Y-52832565D01*
X157801051Y-52813000D01*
X159698949Y-52813000D01*
X159765802Y-52832565D01*
X159811559Y-52885086D01*
X159821780Y-52953990D01*
X159793239Y-53017532D01*
X159734944Y-53055661D01*
X159655711Y-53079695D01*
X159655704Y-53079697D01*
X159649885Y-53081463D01*
X159644519Y-53084330D01*
X159644512Y-53084334D01*
X159488052Y-53167963D01*
X159488041Y-53167970D01*
X159482676Y-53170838D01*
X159477964Y-53174704D01*
X159477964Y-53174705D01*
X159340823Y-53287254D01*
X159340818Y-53287258D01*
X159336117Y-53291117D01*
X159332258Y-53295818D01*
X159332254Y-53295823D01*
X159219705Y-53432964D01*
X159215838Y-53437676D01*
X159212970Y-53443041D01*
X159212963Y-53443052D01*
X159129334Y-53599512D01*
X159129330Y-53599519D01*
X159126463Y-53604885D01*
X159124697Y-53610704D01*
X159124695Y-53610711D01*
X159073195Y-53780486D01*
X159073193Y-53780493D01*
X159071427Y-53786317D01*
X159070830Y-53792373D01*
X159070829Y-53792381D01*
X159063275Y-53869085D01*
X159052843Y-53975000D01*
X159053440Y-53981061D01*
X159070829Y-54157618D01*
X159070830Y-54157624D01*
X159071427Y-54163683D01*
X159073194Y-54169508D01*
X159073195Y-54169513D01*
X159124695Y-54339288D01*
X159126463Y-54345115D01*
X159129332Y-54350483D01*
X159129334Y-54350487D01*
X159212963Y-54506947D01*
X159212967Y-54506953D01*
X159215838Y-54512324D01*
X159336117Y-54658883D01*
X159482676Y-54779162D01*
X159488048Y-54782033D01*
X159488052Y-54782036D01*
X159623247Y-54854299D01*
X159649885Y-54868537D01*
X159831317Y-54923573D01*
X160020000Y-54942157D01*
X160208683Y-54923573D01*
X160390115Y-54868537D01*
X160557324Y-54779162D01*
X160703883Y-54658883D01*
X160824162Y-54512324D01*
X160913537Y-54345115D01*
X160968573Y-54163683D01*
X160987157Y-53975000D01*
X160968573Y-53786317D01*
X160913537Y-53604885D01*
X160824162Y-53437676D01*
X160703883Y-53291117D01*
X160557324Y-53170838D01*
X160551953Y-53167967D01*
X160551947Y-53167963D01*
X160395487Y-53084334D01*
X160395483Y-53084332D01*
X160390115Y-53081463D01*
X160384291Y-53079696D01*
X160384288Y-53079695D01*
X160305056Y-53055661D01*
X160246761Y-53017532D01*
X160218220Y-52953990D01*
X160228441Y-52885086D01*
X160274198Y-52832565D01*
X160341051Y-52813000D01*
X163404376Y-52813000D01*
X163466267Y-52829550D01*
X163511637Y-52874783D01*
X163528375Y-52936623D01*
X163574231Y-68035123D01*
X163557744Y-68097282D01*
X163512341Y-68142824D01*
X163450232Y-68159500D01*
X152270000Y-68159500D01*
X152208000Y-68142887D01*
X152162613Y-68097500D01*
X152146000Y-68035500D01*
X152146000Y-66900000D01*
X160850359Y-66900000D01*
X160851621Y-66908777D01*
X160867594Y-67019875D01*
X160870023Y-67036765D01*
X160873708Y-67044834D01*
X160873709Y-67044837D01*
X160923735Y-67154379D01*
X160923736Y-67154381D01*
X160927421Y-67162449D01*
X160933227Y-67169149D01*
X160933228Y-67169151D01*
X160963106Y-67203632D01*
X161017904Y-67266872D01*
X161025364Y-67271666D01*
X161025365Y-67271667D01*
X161087346Y-67311500D01*
X161134141Y-67341573D01*
X161266715Y-67380500D01*
X161396015Y-67380500D01*
X161404885Y-67380500D01*
X161537459Y-67341573D01*
X161560860Y-67326533D01*
X161604433Y-67309090D01*
X161651367Y-67309090D01*
X161694939Y-67326533D01*
X161718341Y-67341573D01*
X161850915Y-67380500D01*
X161980215Y-67380500D01*
X161989085Y-67380500D01*
X162121659Y-67341573D01*
X162237896Y-67266872D01*
X162328379Y-67162449D01*
X162385777Y-67036765D01*
X162405441Y-66900000D01*
X162385777Y-66763235D01*
X162328379Y-66637551D01*
X162330742Y-66636471D01*
X162314898Y-66582483D01*
X162330747Y-66528530D01*
X162328379Y-66527449D01*
X162333058Y-66517203D01*
X162385777Y-66401765D01*
X162405441Y-66265000D01*
X162385777Y-66128235D01*
X162328379Y-66002551D01*
X162330742Y-66001471D01*
X162314898Y-65947483D01*
X162330747Y-65893530D01*
X162328379Y-65892449D01*
X162340442Y-65866035D01*
X162385777Y-65766765D01*
X162405441Y-65630000D01*
X162385777Y-65493235D01*
X162328379Y-65367551D01*
X162320762Y-65358761D01*
X162279564Y-65311216D01*
X162237896Y-65263128D01*
X162230436Y-65258333D01*
X162230434Y-65258332D01*
X162129124Y-65193224D01*
X162129121Y-65193222D01*
X162121659Y-65188427D01*
X162113148Y-65185928D01*
X162113146Y-65185927D01*
X162044391Y-65165739D01*
X161989085Y-65149500D01*
X161850915Y-65149500D01*
X161842404Y-65151998D01*
X161842404Y-65151999D01*
X161726849Y-65185928D01*
X161726843Y-65185930D01*
X161718341Y-65188427D01*
X161710884Y-65193218D01*
X161710882Y-65193220D01*
X161694938Y-65203467D01*
X161627900Y-65223150D01*
X161560862Y-65203467D01*
X161544917Y-65193220D01*
X161537459Y-65188427D01*
X161528953Y-65185929D01*
X161528950Y-65185928D01*
X161450002Y-65162747D01*
X161404885Y-65149500D01*
X161266715Y-65149500D01*
X161258204Y-65151998D01*
X161258204Y-65151999D01*
X161142653Y-65185927D01*
X161142648Y-65185928D01*
X161134141Y-65188427D01*
X161126680Y-65193221D01*
X161126675Y-65193224D01*
X161025365Y-65258332D01*
X161025360Y-65258336D01*
X161017904Y-65263128D01*
X161012099Y-65269827D01*
X161012097Y-65269829D01*
X160933228Y-65360848D01*
X160933224Y-65360853D01*
X160927421Y-65367551D01*
X160923738Y-65375614D01*
X160923735Y-65375620D01*
X160873709Y-65485162D01*
X160873707Y-65485167D01*
X160870023Y-65493235D01*
X160850359Y-65630000D01*
X160870023Y-65766765D01*
X160873708Y-65774834D01*
X160873709Y-65774837D01*
X160927421Y-65892449D01*
X160925059Y-65893527D01*
X160940901Y-65947500D01*
X160925059Y-66001472D01*
X160927421Y-66002551D01*
X160873709Y-66120162D01*
X160873707Y-66120167D01*
X160870023Y-66128235D01*
X160868760Y-66137014D01*
X160868760Y-66137017D01*
X160863552Y-66173242D01*
X160850359Y-66265000D01*
X160851621Y-66273777D01*
X160860423Y-66335000D01*
X160870023Y-66401765D01*
X160873708Y-66409834D01*
X160873709Y-66409837D01*
X160927421Y-66527449D01*
X160925059Y-66528527D01*
X160940901Y-66582500D01*
X160925059Y-66636472D01*
X160927421Y-66637551D01*
X160873709Y-66755162D01*
X160873707Y-66755167D01*
X160870023Y-66763235D01*
X160868760Y-66772014D01*
X160868760Y-66772017D01*
X160865821Y-66792459D01*
X160850359Y-66900000D01*
X152146000Y-66900000D01*
X152146000Y-66834241D01*
X152155439Y-66786788D01*
X152182315Y-66746563D01*
X152311174Y-66617704D01*
X152314130Y-66614848D01*
X152361044Y-66571035D01*
X152382398Y-66535917D01*
X152389525Y-66525446D01*
X152414361Y-66492697D01*
X152420943Y-66476003D01*
X152430352Y-66457062D01*
X152439672Y-66441737D01*
X152450758Y-66402166D01*
X152454802Y-66390141D01*
X152469876Y-66351919D01*
X152471711Y-66334068D01*
X152475660Y-66313292D01*
X152480500Y-66296020D01*
X152480500Y-66254937D01*
X152481150Y-66242256D01*
X152482217Y-66231876D01*
X152485352Y-66201383D01*
X152482303Y-66183699D01*
X152480500Y-66162630D01*
X152480500Y-65928432D01*
X152489939Y-65880979D01*
X152516819Y-65840751D01*
X152868750Y-65488819D01*
X152908978Y-65461939D01*
X152956431Y-65452500D01*
X158106478Y-65452500D01*
X158110710Y-65452571D01*
X158174826Y-65454762D01*
X158183068Y-65452753D01*
X158183071Y-65452753D01*
X158214739Y-65445035D01*
X158227196Y-65442666D01*
X158267920Y-65437070D01*
X158284380Y-65429919D01*
X158304423Y-65423179D01*
X158321852Y-65418933D01*
X158357688Y-65398783D01*
X158369023Y-65393153D01*
X158406720Y-65376780D01*
X158420637Y-65365456D01*
X158438120Y-65353558D01*
X158453759Y-65344766D01*
X158482812Y-65315711D01*
X158492244Y-65307200D01*
X158503105Y-65298365D01*
X158524108Y-65281278D01*
X158534456Y-65266616D01*
X158548074Y-65250449D01*
X159908391Y-63890134D01*
X159976861Y-63799842D01*
X160032376Y-63659064D01*
X160047852Y-63508528D01*
X160022140Y-63359399D01*
X159957147Y-63222738D01*
X159951573Y-63216345D01*
X159863267Y-63115071D01*
X159863264Y-63115069D01*
X159857693Y-63108679D01*
X159850602Y-63104028D01*
X159850601Y-63104027D01*
X159738246Y-63030333D01*
X159738242Y-63030331D01*
X159731154Y-63025682D01*
X159723074Y-63023117D01*
X159723069Y-63023115D01*
X159594999Y-62982468D01*
X159594996Y-62982467D01*
X159586916Y-62979903D01*
X159578443Y-62979613D01*
X159578440Y-62979613D01*
X159444152Y-62975026D01*
X159444147Y-62975026D01*
X159435674Y-62974737D01*
X159427430Y-62976745D01*
X159427430Y-62976746D01*
X159296888Y-63008558D01*
X159296886Y-63008558D01*
X159288649Y-63010566D01*
X159281262Y-63014719D01*
X159281258Y-63014721D01*
X159164130Y-63080579D01*
X159164128Y-63080580D01*
X159156741Y-63084734D01*
X159150748Y-63090726D01*
X159150744Y-63090730D01*
X158157681Y-64083794D01*
X158108318Y-64114044D01*
X158050602Y-64118586D01*
X157997115Y-64096431D01*
X157959515Y-64052408D01*
X157946000Y-63996113D01*
X157946000Y-60722326D01*
X157946000Y-60706000D01*
X157929674Y-60706000D01*
X155089520Y-60706000D01*
X155078076Y-60705249D01*
X155078074Y-60705295D01*
X155074019Y-60705029D01*
X155070000Y-60704500D01*
X152270000Y-60704500D01*
X152208000Y-60687887D01*
X152162613Y-60642500D01*
X152146000Y-60580500D01*
X152146000Y-55388326D01*
X152146000Y-55372000D01*
X152129674Y-55372000D01*
X151334000Y-55372000D01*
X151272000Y-55355387D01*
X151226613Y-55310000D01*
X151210000Y-55248000D01*
X151210000Y-54203746D01*
X151229565Y-54136893D01*
X151282086Y-54091136D01*
X151350990Y-54080915D01*
X151414532Y-54109456D01*
X151452660Y-54167750D01*
X151506463Y-54345115D01*
X151509332Y-54350483D01*
X151509334Y-54350487D01*
X151592963Y-54506947D01*
X151592967Y-54506953D01*
X151595838Y-54512324D01*
X151716117Y-54658883D01*
X151862676Y-54779162D01*
X151868048Y-54782033D01*
X151868052Y-54782036D01*
X152003247Y-54854299D01*
X152029885Y-54868537D01*
X152211317Y-54923573D01*
X152400000Y-54942157D01*
X152588683Y-54923573D01*
X152770115Y-54868537D01*
X152937324Y-54779162D01*
X153083883Y-54658883D01*
X153204162Y-54512324D01*
X153293537Y-54345115D01*
X153348573Y-54163683D01*
X153367157Y-53975000D01*
X153972843Y-53975000D01*
X153973440Y-53981061D01*
X153990829Y-54157618D01*
X153990830Y-54157624D01*
X153991427Y-54163683D01*
X153993194Y-54169508D01*
X153993195Y-54169513D01*
X154044695Y-54339288D01*
X154046463Y-54345115D01*
X154049332Y-54350483D01*
X154049334Y-54350487D01*
X154132963Y-54506947D01*
X154132967Y-54506953D01*
X154135838Y-54512324D01*
X154256117Y-54658883D01*
X154402676Y-54779162D01*
X154408048Y-54782033D01*
X154408052Y-54782036D01*
X154543247Y-54854299D01*
X154569885Y-54868537D01*
X154751317Y-54923573D01*
X154940000Y-54942157D01*
X155128683Y-54923573D01*
X155310115Y-54868537D01*
X155477324Y-54779162D01*
X155623883Y-54658883D01*
X155744162Y-54512324D01*
X155833537Y-54345115D01*
X155888573Y-54163683D01*
X155907157Y-53975000D01*
X155888573Y-53786317D01*
X155833537Y-53604885D01*
X155744162Y-53437676D01*
X155623883Y-53291117D01*
X155477324Y-53170838D01*
X155471953Y-53167967D01*
X155471947Y-53167963D01*
X155315487Y-53084334D01*
X155315483Y-53084332D01*
X155310115Y-53081463D01*
X155304291Y-53079696D01*
X155304288Y-53079695D01*
X155134513Y-53028195D01*
X155134508Y-53028194D01*
X155128683Y-53026427D01*
X155122624Y-53025830D01*
X155122618Y-53025829D01*
X154946061Y-53008440D01*
X154940000Y-53007843D01*
X154933939Y-53008440D01*
X154757381Y-53025829D01*
X154757373Y-53025830D01*
X154751317Y-53026427D01*
X154745493Y-53028193D01*
X154745486Y-53028195D01*
X154575711Y-53079695D01*
X154575704Y-53079697D01*
X154569885Y-53081463D01*
X154564519Y-53084330D01*
X154564512Y-53084334D01*
X154408052Y-53167963D01*
X154408041Y-53167970D01*
X154402676Y-53170838D01*
X154397964Y-53174704D01*
X154397964Y-53174705D01*
X154260823Y-53287254D01*
X154260818Y-53287258D01*
X154256117Y-53291117D01*
X154252258Y-53295818D01*
X154252254Y-53295823D01*
X154139705Y-53432964D01*
X154135838Y-53437676D01*
X154132970Y-53443041D01*
X154132963Y-53443052D01*
X154049334Y-53599512D01*
X154049330Y-53599519D01*
X154046463Y-53604885D01*
X154044697Y-53610704D01*
X154044695Y-53610711D01*
X153993195Y-53780486D01*
X153993193Y-53780493D01*
X153991427Y-53786317D01*
X153990830Y-53792373D01*
X153990829Y-53792381D01*
X153983275Y-53869085D01*
X153972843Y-53975000D01*
X153367157Y-53975000D01*
X153348573Y-53786317D01*
X153293537Y-53604885D01*
X153204162Y-53437676D01*
X153083883Y-53291117D01*
X152937324Y-53170838D01*
X152931953Y-53167967D01*
X152931947Y-53167963D01*
X152775487Y-53084334D01*
X152775483Y-53084332D01*
X152770115Y-53081463D01*
X152764291Y-53079696D01*
X152764288Y-53079695D01*
X152594513Y-53028195D01*
X152594508Y-53028194D01*
X152588683Y-53026427D01*
X152582624Y-53025830D01*
X152582618Y-53025829D01*
X152406061Y-53008440D01*
X152400000Y-53007843D01*
X152393939Y-53008440D01*
X152217381Y-53025829D01*
X152217373Y-53025830D01*
X152211317Y-53026427D01*
X152205493Y-53028193D01*
X152205486Y-53028195D01*
X152035711Y-53079695D01*
X152035704Y-53079697D01*
X152029885Y-53081463D01*
X152024519Y-53084330D01*
X152024512Y-53084334D01*
X151868052Y-53167963D01*
X151868041Y-53167970D01*
X151862676Y-53170838D01*
X151857964Y-53174704D01*
X151857964Y-53174705D01*
X151720823Y-53287254D01*
X151720818Y-53287258D01*
X151716117Y-53291117D01*
X151712258Y-53295818D01*
X151712254Y-53295823D01*
X151599705Y-53432964D01*
X151595838Y-53437676D01*
X151592970Y-53443041D01*
X151592963Y-53443052D01*
X151509334Y-53599512D01*
X151509330Y-53599519D01*
X151506463Y-53604885D01*
X151504697Y-53610704D01*
X151504695Y-53610711D01*
X151452661Y-53782249D01*
X151414532Y-53840544D01*
X151350990Y-53869085D01*
X151282086Y-53858864D01*
X151229565Y-53813107D01*
X151210000Y-53746254D01*
X151210000Y-51663746D01*
X151229565Y-51596893D01*
X151282086Y-51551136D01*
X151350990Y-51540915D01*
X151414532Y-51569456D01*
X151452660Y-51627750D01*
X151506463Y-51805115D01*
X151509332Y-51810483D01*
X151509334Y-51810487D01*
X151592963Y-51966947D01*
X151592967Y-51966953D01*
X151595838Y-51972324D01*
X151716117Y-52118883D01*
X151862676Y-52239162D01*
X151868048Y-52242033D01*
X151868052Y-52242036D01*
X152003247Y-52314299D01*
X152029885Y-52328537D01*
X152211317Y-52383573D01*
X152400000Y-52402157D01*
X152588683Y-52383573D01*
X152770115Y-52328537D01*
X152937324Y-52239162D01*
X153083883Y-52118883D01*
X153204162Y-51972324D01*
X153293537Y-51805115D01*
X153348573Y-51623683D01*
X153367157Y-51435000D01*
X153972843Y-51435000D01*
X153973440Y-51441061D01*
X153990829Y-51617618D01*
X153990830Y-51617624D01*
X153991427Y-51623683D01*
X153993194Y-51629508D01*
X153993195Y-51629513D01*
X154044695Y-51799288D01*
X154046463Y-51805115D01*
X154049332Y-51810483D01*
X154049334Y-51810487D01*
X154132963Y-51966947D01*
X154132967Y-51966953D01*
X154135838Y-51972324D01*
X154256117Y-52118883D01*
X154402676Y-52239162D01*
X154408048Y-52242033D01*
X154408052Y-52242036D01*
X154543247Y-52314299D01*
X154569885Y-52328537D01*
X154751317Y-52383573D01*
X154940000Y-52402157D01*
X155128683Y-52383573D01*
X155310115Y-52328537D01*
X155477324Y-52239162D01*
X155623883Y-52118883D01*
X155744162Y-51972324D01*
X155833537Y-51805115D01*
X155888573Y-51623683D01*
X155907157Y-51435000D01*
X155888573Y-51246317D01*
X155833537Y-51064885D01*
X155744162Y-50897676D01*
X155623883Y-50751117D01*
X155477324Y-50630838D01*
X155471953Y-50627967D01*
X155471947Y-50627963D01*
X155315487Y-50544334D01*
X155315483Y-50544332D01*
X155310115Y-50541463D01*
X155304291Y-50539696D01*
X155304288Y-50539695D01*
X155134513Y-50488195D01*
X155134508Y-50488194D01*
X155128683Y-50486427D01*
X155122624Y-50485830D01*
X155122618Y-50485829D01*
X154946061Y-50468440D01*
X154940000Y-50467843D01*
X154933939Y-50468440D01*
X154757381Y-50485829D01*
X154757373Y-50485830D01*
X154751317Y-50486427D01*
X154745493Y-50488193D01*
X154745486Y-50488195D01*
X154575711Y-50539695D01*
X154575704Y-50539697D01*
X154569885Y-50541463D01*
X154564519Y-50544330D01*
X154564512Y-50544334D01*
X154408052Y-50627963D01*
X154408041Y-50627970D01*
X154402676Y-50630838D01*
X154397964Y-50634704D01*
X154397964Y-50634705D01*
X154260823Y-50747254D01*
X154260818Y-50747258D01*
X154256117Y-50751117D01*
X154252258Y-50755818D01*
X154252254Y-50755823D01*
X154139705Y-50892964D01*
X154135838Y-50897676D01*
X154132970Y-50903041D01*
X154132963Y-50903052D01*
X154049334Y-51059512D01*
X154049330Y-51059519D01*
X154046463Y-51064885D01*
X154044697Y-51070704D01*
X154044695Y-51070711D01*
X153993195Y-51240486D01*
X153993193Y-51240493D01*
X153991427Y-51246317D01*
X153990830Y-51252373D01*
X153990829Y-51252381D01*
X153983275Y-51329085D01*
X153972843Y-51435000D01*
X153367157Y-51435000D01*
X153348573Y-51246317D01*
X153293537Y-51064885D01*
X153204162Y-50897676D01*
X153083883Y-50751117D01*
X152937324Y-50630838D01*
X152931953Y-50627967D01*
X152931947Y-50627963D01*
X152775487Y-50544334D01*
X152775483Y-50544332D01*
X152770115Y-50541463D01*
X152764291Y-50539696D01*
X152764288Y-50539695D01*
X152594513Y-50488195D01*
X152594508Y-50488194D01*
X152588683Y-50486427D01*
X152582624Y-50485830D01*
X152582618Y-50485829D01*
X152406061Y-50468440D01*
X152400000Y-50467843D01*
X152393939Y-50468440D01*
X152217381Y-50485829D01*
X152217373Y-50485830D01*
X152211317Y-50486427D01*
X152205493Y-50488193D01*
X152205486Y-50488195D01*
X152035711Y-50539695D01*
X152035704Y-50539697D01*
X152029885Y-50541463D01*
X152024519Y-50544330D01*
X152024512Y-50544334D01*
X151868052Y-50627963D01*
X151868041Y-50627970D01*
X151862676Y-50630838D01*
X151857964Y-50634704D01*
X151857964Y-50634705D01*
X151720823Y-50747254D01*
X151720818Y-50747258D01*
X151716117Y-50751117D01*
X151712258Y-50755818D01*
X151712254Y-50755823D01*
X151599705Y-50892964D01*
X151595838Y-50897676D01*
X151592970Y-50903041D01*
X151592963Y-50903052D01*
X151509334Y-51059512D01*
X151509330Y-51059519D01*
X151506463Y-51064885D01*
X151504697Y-51070704D01*
X151504695Y-51070711D01*
X151452661Y-51242249D01*
X151414532Y-51300544D01*
X151350990Y-51329085D01*
X151282086Y-51318864D01*
X151229565Y-51273107D01*
X151210000Y-51206254D01*
X151210000Y-48895000D01*
X153972843Y-48895000D01*
X153973440Y-48901061D01*
X153990829Y-49077618D01*
X153990830Y-49077624D01*
X153991427Y-49083683D01*
X153993194Y-49089508D01*
X153993195Y-49089513D01*
X154044695Y-49259288D01*
X154046463Y-49265115D01*
X154049332Y-49270483D01*
X154049334Y-49270487D01*
X154132963Y-49426947D01*
X154132967Y-49426953D01*
X154135838Y-49432324D01*
X154256117Y-49578883D01*
X154402676Y-49699162D01*
X154408048Y-49702033D01*
X154408052Y-49702036D01*
X154543247Y-49774299D01*
X154569885Y-49788537D01*
X154751317Y-49843573D01*
X154940000Y-49862157D01*
X155128683Y-49843573D01*
X155310115Y-49788537D01*
X155477324Y-49699162D01*
X155623883Y-49578883D01*
X155744162Y-49432324D01*
X155833537Y-49265115D01*
X155888573Y-49083683D01*
X155907157Y-48895000D01*
X155888573Y-48706317D01*
X155833537Y-48524885D01*
X155744162Y-48357676D01*
X155623883Y-48211117D01*
X155477324Y-48090838D01*
X155471953Y-48087967D01*
X155471947Y-48087963D01*
X155315487Y-48004334D01*
X155315483Y-48004332D01*
X155310115Y-48001463D01*
X155304291Y-47999696D01*
X155304288Y-47999695D01*
X155134513Y-47948195D01*
X155134508Y-47948194D01*
X155128683Y-47946427D01*
X155122624Y-47945830D01*
X155122618Y-47945829D01*
X154946061Y-47928440D01*
X154940000Y-47927843D01*
X154933939Y-47928440D01*
X154757381Y-47945829D01*
X154757373Y-47945830D01*
X154751317Y-47946427D01*
X154745493Y-47948193D01*
X154745486Y-47948195D01*
X154575711Y-47999695D01*
X154575704Y-47999697D01*
X154569885Y-48001463D01*
X154564519Y-48004330D01*
X154564512Y-48004334D01*
X154408052Y-48087963D01*
X154408041Y-48087970D01*
X154402676Y-48090838D01*
X154397964Y-48094704D01*
X154397964Y-48094705D01*
X154260823Y-48207254D01*
X154260818Y-48207258D01*
X154256117Y-48211117D01*
X154252258Y-48215818D01*
X154252254Y-48215823D01*
X154139705Y-48352964D01*
X154135838Y-48357676D01*
X154132970Y-48363041D01*
X154132963Y-48363052D01*
X154049334Y-48519512D01*
X154049330Y-48519519D01*
X154046463Y-48524885D01*
X154044697Y-48530704D01*
X154044695Y-48530711D01*
X153993195Y-48700486D01*
X153993193Y-48700493D01*
X153991427Y-48706317D01*
X153990830Y-48712373D01*
X153990829Y-48712381D01*
X153974173Y-48881488D01*
X153972843Y-48895000D01*
X151210000Y-48895000D01*
X151210000Y-46355000D01*
X153972843Y-46355000D01*
X153973440Y-46361061D01*
X153990829Y-46537618D01*
X153990830Y-46537624D01*
X153991427Y-46543683D01*
X153993194Y-46549508D01*
X153993195Y-46549513D01*
X154044695Y-46719288D01*
X154046463Y-46725115D01*
X154049332Y-46730483D01*
X154049334Y-46730487D01*
X154132963Y-46886947D01*
X154132967Y-46886953D01*
X154135838Y-46892324D01*
X154256117Y-47038883D01*
X154402676Y-47159162D01*
X154408048Y-47162033D01*
X154408052Y-47162036D01*
X154543247Y-47234299D01*
X154569885Y-47248537D01*
X154751317Y-47303573D01*
X154940000Y-47322157D01*
X155128683Y-47303573D01*
X155310115Y-47248537D01*
X155477324Y-47159162D01*
X155623883Y-47038883D01*
X155744162Y-46892324D01*
X155833537Y-46725115D01*
X155888573Y-46543683D01*
X155907157Y-46355000D01*
X155888573Y-46166317D01*
X155833537Y-45984885D01*
X155744162Y-45817676D01*
X155623883Y-45671117D01*
X155477324Y-45550838D01*
X155471953Y-45547967D01*
X155471947Y-45547963D01*
X155315487Y-45464334D01*
X155315483Y-45464332D01*
X155310115Y-45461463D01*
X155304291Y-45459696D01*
X155304288Y-45459695D01*
X155134513Y-45408195D01*
X155134508Y-45408194D01*
X155128683Y-45406427D01*
X155122624Y-45405830D01*
X155122618Y-45405829D01*
X154946061Y-45388440D01*
X154940000Y-45387843D01*
X154933939Y-45388440D01*
X154757381Y-45405829D01*
X154757373Y-45405830D01*
X154751317Y-45406427D01*
X154745493Y-45408193D01*
X154745486Y-45408195D01*
X154575711Y-45459695D01*
X154575704Y-45459697D01*
X154569885Y-45461463D01*
X154564519Y-45464330D01*
X154564512Y-45464334D01*
X154408052Y-45547963D01*
X154408041Y-45547970D01*
X154402676Y-45550838D01*
X154397964Y-45554704D01*
X154397964Y-45554705D01*
X154260823Y-45667254D01*
X154260818Y-45667258D01*
X154256117Y-45671117D01*
X154252258Y-45675818D01*
X154252254Y-45675823D01*
X154139705Y-45812964D01*
X154135838Y-45817676D01*
X154132970Y-45823041D01*
X154132963Y-45823052D01*
X154049334Y-45979512D01*
X154049330Y-45979519D01*
X154046463Y-45984885D01*
X154044697Y-45990704D01*
X154044695Y-45990711D01*
X153993195Y-46160486D01*
X153993193Y-46160493D01*
X153991427Y-46166317D01*
X153990830Y-46172373D01*
X153990829Y-46172381D01*
X153974173Y-46341488D01*
X153972843Y-46355000D01*
X151210000Y-46355000D01*
X151210000Y-45156000D01*
X151226613Y-45094000D01*
X151272000Y-45048613D01*
X151334000Y-45032000D01*
X156076239Y-45032000D01*
X156138170Y-45048573D01*
G37*
G04 #@! TD.AperFunction*
G04 #@! TA.AperFunction,Conductor*
G36*
X155132000Y-60976613D02*
G01*
X155177387Y-61022000D01*
X155194000Y-61084000D01*
X155194000Y-63212000D01*
X155177387Y-63274000D01*
X155132000Y-63319387D01*
X155070000Y-63336000D01*
X149656800Y-63336000D01*
X149656800Y-63352326D01*
X149656800Y-66868012D01*
X149645594Y-66919524D01*
X149618146Y-66956190D01*
X149618304Y-66956327D01*
X149616390Y-66958535D01*
X149616379Y-66958548D01*
X149612496Y-66963029D01*
X149612492Y-66963034D01*
X149569022Y-67013202D01*
X149526821Y-67044794D01*
X149475309Y-67056000D01*
X147157861Y-67056000D01*
X147090822Y-67036315D01*
X147045067Y-66983511D01*
X147035123Y-66914353D01*
X147042179Y-66865277D01*
X147043441Y-66856500D01*
X147023777Y-66719735D01*
X146966379Y-66594051D01*
X146875896Y-66489628D01*
X146868436Y-66484833D01*
X146868434Y-66484832D01*
X146767124Y-66419724D01*
X146767121Y-66419722D01*
X146759659Y-66414927D01*
X146751148Y-66412428D01*
X146751146Y-66412427D01*
X146682391Y-66392239D01*
X146627085Y-66376000D01*
X146488915Y-66376000D01*
X146480404Y-66378498D01*
X146480404Y-66378499D01*
X146364853Y-66412427D01*
X146364848Y-66412428D01*
X146356341Y-66414927D01*
X146348880Y-66419721D01*
X146348875Y-66419724D01*
X146247565Y-66484832D01*
X146247560Y-66484836D01*
X146240104Y-66489628D01*
X146234299Y-66496327D01*
X146234297Y-66496329D01*
X146155428Y-66587348D01*
X146155424Y-66587353D01*
X146149621Y-66594051D01*
X146145938Y-66602114D01*
X146145935Y-66602120D01*
X146095909Y-66711662D01*
X146095907Y-66711667D01*
X146092223Y-66719735D01*
X146090960Y-66728514D01*
X146090960Y-66728517D01*
X146089979Y-66735342D01*
X146072559Y-66856500D01*
X146073821Y-66865277D01*
X146080877Y-66914353D01*
X146070933Y-66983511D01*
X146025178Y-67036315D01*
X145958139Y-67056000D01*
X144249334Y-67056000D01*
X144182295Y-67036315D01*
X144076659Y-66968427D01*
X144077605Y-66966954D01*
X144052270Y-66948920D01*
X144026886Y-66909432D01*
X144018000Y-66863337D01*
X144018000Y-66803965D01*
X144029206Y-66752453D01*
X144060799Y-66710251D01*
X144064934Y-66706666D01*
X144072396Y-66701872D01*
X144162879Y-66597449D01*
X144220277Y-66471765D01*
X144239941Y-66335000D01*
X144220277Y-66198235D01*
X144162879Y-66072551D01*
X144072396Y-65968128D01*
X144064935Y-65963333D01*
X144060799Y-65959749D01*
X144029206Y-65917547D01*
X144018000Y-65866035D01*
X144018000Y-65582800D01*
X146123359Y-65582800D01*
X146124621Y-65591577D01*
X146139657Y-65696158D01*
X146143023Y-65719565D01*
X146146708Y-65727634D01*
X146146709Y-65727637D01*
X146196735Y-65837179D01*
X146196736Y-65837181D01*
X146200421Y-65845249D01*
X146206227Y-65851949D01*
X146206228Y-65851951D01*
X146208437Y-65854500D01*
X146290904Y-65949672D01*
X146298364Y-65954466D01*
X146298365Y-65954467D01*
X146305320Y-65958937D01*
X146407141Y-66024373D01*
X146539715Y-66063300D01*
X146669015Y-66063300D01*
X146677885Y-66063300D01*
X146810459Y-66024373D01*
X146926696Y-65949672D01*
X147010387Y-65853086D01*
X147052588Y-65821496D01*
X147104100Y-65810290D01*
X147155612Y-65821496D01*
X147197812Y-65853086D01*
X147281504Y-65949672D01*
X147288964Y-65954466D01*
X147288965Y-65954467D01*
X147295920Y-65958937D01*
X147397741Y-66024373D01*
X147530315Y-66063300D01*
X147659615Y-66063300D01*
X147668485Y-66063300D01*
X147801059Y-66024373D01*
X147917296Y-65949672D01*
X148007779Y-65845249D01*
X148065177Y-65719565D01*
X148084841Y-65582800D01*
X148065177Y-65446035D01*
X148007779Y-65320351D01*
X148000986Y-65312512D01*
X147923102Y-65222629D01*
X147917296Y-65215928D01*
X147868718Y-65184708D01*
X147840251Y-65166414D01*
X147798458Y-65121525D01*
X147783291Y-65062098D01*
X147798459Y-65002671D01*
X147840249Y-64957786D01*
X147917296Y-64908272D01*
X148007779Y-64803849D01*
X148065177Y-64678165D01*
X148084841Y-64541400D01*
X148065177Y-64404635D01*
X148007779Y-64278951D01*
X147917296Y-64174528D01*
X147909836Y-64169733D01*
X147909834Y-64169732D01*
X147808524Y-64104624D01*
X147808521Y-64104622D01*
X147801059Y-64099827D01*
X147792548Y-64097328D01*
X147792546Y-64097327D01*
X147723791Y-64077139D01*
X147668485Y-64060900D01*
X147530315Y-64060900D01*
X147521804Y-64063398D01*
X147521804Y-64063399D01*
X147406253Y-64097327D01*
X147406248Y-64097328D01*
X147397741Y-64099827D01*
X147390280Y-64104621D01*
X147390275Y-64104624D01*
X147288965Y-64169732D01*
X147288960Y-64169736D01*
X147281504Y-64174528D01*
X147275699Y-64181227D01*
X147275697Y-64181229D01*
X147196828Y-64272248D01*
X147196824Y-64272253D01*
X147191021Y-64278951D01*
X147187338Y-64287014D01*
X147187335Y-64287020D01*
X147137309Y-64396562D01*
X147137307Y-64396567D01*
X147133623Y-64404635D01*
X147132360Y-64413414D01*
X147132360Y-64413417D01*
X147124087Y-64470956D01*
X147113959Y-64541400D01*
X147133623Y-64678165D01*
X147137308Y-64686234D01*
X147137309Y-64686237D01*
X147187335Y-64795779D01*
X147187336Y-64795781D01*
X147191021Y-64803849D01*
X147281504Y-64908272D01*
X147358545Y-64957783D01*
X147358548Y-64957785D01*
X147400340Y-65002673D01*
X147415508Y-65062100D01*
X147400340Y-65121527D01*
X147358548Y-65166415D01*
X147288963Y-65211134D01*
X147288961Y-65211135D01*
X147281504Y-65215928D01*
X147275699Y-65222627D01*
X147275697Y-65222629D01*
X147197813Y-65312512D01*
X147139035Y-65350286D01*
X147069165Y-65350286D01*
X147010387Y-65312512D01*
X146932502Y-65222629D01*
X146926696Y-65215928D01*
X146919236Y-65211133D01*
X146919234Y-65211132D01*
X146817924Y-65146024D01*
X146817921Y-65146022D01*
X146810459Y-65141227D01*
X146801948Y-65138728D01*
X146801946Y-65138727D01*
X146733191Y-65118539D01*
X146677885Y-65102300D01*
X146539715Y-65102300D01*
X146531204Y-65104798D01*
X146531204Y-65104799D01*
X146415653Y-65138727D01*
X146415648Y-65138728D01*
X146407141Y-65141227D01*
X146399680Y-65146021D01*
X146399675Y-65146024D01*
X146298365Y-65211132D01*
X146298360Y-65211136D01*
X146290904Y-65215928D01*
X146285099Y-65222627D01*
X146285097Y-65222629D01*
X146206228Y-65313648D01*
X146206224Y-65313653D01*
X146200421Y-65320351D01*
X146196738Y-65328414D01*
X146196735Y-65328420D01*
X146146709Y-65437962D01*
X146146707Y-65437967D01*
X146143023Y-65446035D01*
X146141760Y-65454814D01*
X146141760Y-65454817D01*
X146132632Y-65518302D01*
X146123359Y-65582800D01*
X144018000Y-65582800D01*
X144018000Y-62636400D01*
X147113959Y-62636400D01*
X147133623Y-62773165D01*
X147137308Y-62781234D01*
X147137309Y-62781237D01*
X147187335Y-62890779D01*
X147187336Y-62890781D01*
X147191021Y-62898849D01*
X147281504Y-63003272D01*
X147397741Y-63077973D01*
X147530315Y-63116900D01*
X147659615Y-63116900D01*
X147668485Y-63116900D01*
X147801059Y-63077973D01*
X147917296Y-63003272D01*
X148007779Y-62898849D01*
X148065177Y-62773165D01*
X148084841Y-62636400D01*
X148065177Y-62499635D01*
X148007779Y-62373951D01*
X147917296Y-62269528D01*
X147909836Y-62264733D01*
X147909834Y-62264732D01*
X147808524Y-62199624D01*
X147808521Y-62199622D01*
X147801059Y-62194827D01*
X147792548Y-62192328D01*
X147792546Y-62192327D01*
X147723791Y-62172139D01*
X147668485Y-62155900D01*
X147530315Y-62155900D01*
X147521804Y-62158398D01*
X147521804Y-62158399D01*
X147406253Y-62192327D01*
X147406248Y-62192328D01*
X147397741Y-62194827D01*
X147390280Y-62199621D01*
X147390275Y-62199624D01*
X147288965Y-62264732D01*
X147288960Y-62264736D01*
X147281504Y-62269528D01*
X147275699Y-62276227D01*
X147275697Y-62276229D01*
X147196828Y-62367248D01*
X147196824Y-62367253D01*
X147191021Y-62373951D01*
X147187338Y-62382014D01*
X147187335Y-62382020D01*
X147137309Y-62491562D01*
X147137307Y-62491567D01*
X147133623Y-62499635D01*
X147113959Y-62636400D01*
X144018000Y-62636400D01*
X144018000Y-61084000D01*
X144034613Y-61022000D01*
X144080000Y-60976613D01*
X144142000Y-60960000D01*
X155070000Y-60960000D01*
X155132000Y-60976613D01*
G37*
G04 #@! TD.AperFunction*
G04 #@! TA.AperFunction,Conductor*
G36*
X157816002Y-71619168D02*
G01*
X157860891Y-71660961D01*
X157880259Y-71719154D01*
X157869369Y-71779509D01*
X157846459Y-71829677D01*
X157832505Y-71860232D01*
X157827023Y-71872235D01*
X157825760Y-71881014D01*
X157825760Y-71881017D01*
X157811120Y-71982842D01*
X157807359Y-72009000D01*
X157808621Y-72017777D01*
X157821032Y-72104101D01*
X157827023Y-72145765D01*
X157830708Y-72153834D01*
X157830709Y-72153837D01*
X157880735Y-72263379D01*
X157880736Y-72263381D01*
X157884421Y-72271449D01*
X157974904Y-72375872D01*
X158091141Y-72450573D01*
X158223715Y-72489500D01*
X158353015Y-72489500D01*
X158361885Y-72489500D01*
X158494459Y-72450573D01*
X158610696Y-72375872D01*
X158701179Y-72271449D01*
X158758577Y-72145765D01*
X158778241Y-72009000D01*
X158758577Y-71872235D01*
X158716230Y-71779509D01*
X158705341Y-71719154D01*
X158724709Y-71660961D01*
X158769598Y-71619168D01*
X158829025Y-71604000D01*
X163286601Y-71604000D01*
X163334054Y-71613439D01*
X163374281Y-71640318D01*
X164272837Y-72538875D01*
X165097850Y-73363888D01*
X165113977Y-73383746D01*
X165119916Y-73392836D01*
X165138842Y-73407567D01*
X165144889Y-73412273D01*
X165148810Y-73415735D01*
X165148943Y-73415579D01*
X165152851Y-73418889D01*
X165156482Y-73422520D01*
X165160655Y-73425499D01*
X165160663Y-73425506D01*
X165173396Y-73434596D01*
X165177511Y-73437664D01*
X165192514Y-73449341D01*
X165218811Y-73469809D01*
X165226331Y-73472390D01*
X165232801Y-73477010D01*
X165282999Y-73491954D01*
X165287791Y-73493490D01*
X165337340Y-73510500D01*
X165345294Y-73510500D01*
X165352912Y-73512768D01*
X165405192Y-73510606D01*
X165410316Y-73510500D01*
X167398195Y-73510500D01*
X167423644Y-73513140D01*
X167424209Y-73513258D01*
X167424210Y-73513258D01*
X167434268Y-73515367D01*
X167465676Y-73511451D01*
X167470887Y-73511128D01*
X167470871Y-73510924D01*
X167475986Y-73510500D01*
X167481114Y-73510500D01*
X167501636Y-73507074D01*
X167506666Y-73506342D01*
X167558626Y-73499866D01*
X167565770Y-73496373D01*
X167573610Y-73495065D01*
X167619647Y-73470150D01*
X167624164Y-73467825D01*
X167671211Y-73444826D01*
X167676834Y-73439202D01*
X167683826Y-73435419D01*
X167719317Y-73396863D01*
X167722794Y-73393241D01*
X167919217Y-73196819D01*
X167959445Y-73169939D01*
X168006898Y-73160500D01*
X168481200Y-73160500D01*
X168543200Y-73177113D01*
X168588587Y-73222500D01*
X168605200Y-73284500D01*
X168605200Y-76436351D01*
X168597382Y-76479685D01*
X168511176Y-76710810D01*
X168511173Y-76710818D01*
X168509631Y-76714954D01*
X168508690Y-76719276D01*
X168508690Y-76719279D01*
X168449746Y-76990238D01*
X168449744Y-76990248D01*
X168448804Y-76994572D01*
X168448488Y-76998983D01*
X168448487Y-76998994D01*
X168443018Y-77075468D01*
X168428390Y-77280000D01*
X168428706Y-77284418D01*
X168448487Y-77561005D01*
X168448488Y-77561014D01*
X168448804Y-77565428D01*
X168449744Y-77569753D01*
X168449746Y-77569761D01*
X168497749Y-77790427D01*
X168509631Y-77845046D01*
X168511175Y-77849185D01*
X168511176Y-77849189D01*
X168597382Y-78080315D01*
X168605200Y-78123649D01*
X168605200Y-82172000D01*
X168588587Y-82234000D01*
X168543200Y-82279387D01*
X168481200Y-82296000D01*
X166612664Y-82296000D01*
X166549192Y-82278524D01*
X166503612Y-82231022D01*
X166501947Y-82227946D01*
X166499637Y-82223459D01*
X166476626Y-82176389D01*
X166471002Y-82170765D01*
X166467219Y-82163774D01*
X166459658Y-82156814D01*
X166459657Y-82156812D01*
X166428717Y-82128330D01*
X166425019Y-82124782D01*
X165351350Y-81051112D01*
X165335222Y-81031251D01*
X165334906Y-81030768D01*
X165334903Y-81030765D01*
X165329284Y-81022164D01*
X165304309Y-81002725D01*
X165300390Y-80999264D01*
X165300258Y-80999421D01*
X165296343Y-80996105D01*
X165292718Y-80992480D01*
X165275791Y-80980395D01*
X165271681Y-80977330D01*
X165238497Y-80951502D01*
X165230389Y-80945191D01*
X165222868Y-80942609D01*
X165216399Y-80937990D01*
X165206553Y-80935058D01*
X165206550Y-80935057D01*
X165166243Y-80923056D01*
X165161367Y-80921494D01*
X165121581Y-80907836D01*
X165121574Y-80907834D01*
X165111860Y-80904500D01*
X165103906Y-80904500D01*
X165096288Y-80902232D01*
X165086023Y-80902656D01*
X165086020Y-80902656D01*
X165044007Y-80904394D01*
X165038884Y-80904500D01*
X164671985Y-80904500D01*
X164620473Y-80893294D01*
X164578272Y-80861702D01*
X164553008Y-80815434D01*
X164549247Y-80762852D01*
X164559179Y-80693776D01*
X164560441Y-80685000D01*
X164540777Y-80548235D01*
X164483379Y-80422551D01*
X164392896Y-80318128D01*
X164385436Y-80313333D01*
X164385434Y-80313332D01*
X164284124Y-80248224D01*
X164284121Y-80248222D01*
X164276659Y-80243427D01*
X164268148Y-80240928D01*
X164268146Y-80240927D01*
X164162816Y-80210000D01*
X164144085Y-80204500D01*
X164005915Y-80204500D01*
X163997404Y-80206998D01*
X163997404Y-80206999D01*
X163881853Y-80240927D01*
X163881848Y-80240928D01*
X163873341Y-80243427D01*
X163865880Y-80248221D01*
X163865875Y-80248224D01*
X163764565Y-80313332D01*
X163764560Y-80313336D01*
X163757104Y-80318128D01*
X163751299Y-80324827D01*
X163751297Y-80324829D01*
X163672428Y-80415848D01*
X163672424Y-80415853D01*
X163666621Y-80422551D01*
X163662938Y-80430614D01*
X163662935Y-80430620D01*
X163612909Y-80540162D01*
X163612907Y-80540167D01*
X163609223Y-80548235D01*
X163607960Y-80557014D01*
X163607960Y-80557017D01*
X163594365Y-80651573D01*
X163589559Y-80685000D01*
X163590821Y-80693776D01*
X163600753Y-80762852D01*
X163596992Y-80815434D01*
X163571728Y-80861702D01*
X163529527Y-80893294D01*
X163478015Y-80904500D01*
X161209000Y-80904500D01*
X161147000Y-80887887D01*
X161101613Y-80842500D01*
X161085000Y-80780500D01*
X161085000Y-79995913D01*
X161096206Y-79944402D01*
X161097040Y-79942573D01*
X161140994Y-79846330D01*
X161160658Y-79709565D01*
X161140994Y-79572800D01*
X161096206Y-79474728D01*
X161085000Y-79423217D01*
X161085000Y-78232000D01*
X162836559Y-78232000D01*
X162856223Y-78368765D01*
X162859908Y-78376834D01*
X162859909Y-78376837D01*
X162909935Y-78486379D01*
X162909936Y-78486381D01*
X162913621Y-78494449D01*
X163004104Y-78598872D01*
X163120341Y-78673573D01*
X163252915Y-78712500D01*
X163382215Y-78712500D01*
X163391085Y-78712500D01*
X163523659Y-78673573D01*
X163639896Y-78598872D01*
X163730379Y-78494449D01*
X163787777Y-78368765D01*
X163807441Y-78232000D01*
X165884559Y-78232000D01*
X165904223Y-78368765D01*
X165907908Y-78376834D01*
X165907909Y-78376837D01*
X165957935Y-78486379D01*
X165957936Y-78486381D01*
X165961621Y-78494449D01*
X166052104Y-78598872D01*
X166168341Y-78673573D01*
X166300915Y-78712500D01*
X166430215Y-78712500D01*
X166439085Y-78712500D01*
X166571659Y-78673573D01*
X166687896Y-78598872D01*
X166778379Y-78494449D01*
X166835777Y-78368765D01*
X166855441Y-78232000D01*
X166835777Y-78095235D01*
X166778379Y-77969551D01*
X166687896Y-77865128D01*
X166680436Y-77860333D01*
X166680434Y-77860332D01*
X166579124Y-77795224D01*
X166579121Y-77795222D01*
X166571659Y-77790427D01*
X166563148Y-77787928D01*
X166563146Y-77787927D01*
X166494391Y-77767739D01*
X166439085Y-77751500D01*
X166300915Y-77751500D01*
X166292404Y-77753998D01*
X166292404Y-77753999D01*
X166176853Y-77787927D01*
X166176848Y-77787928D01*
X166168341Y-77790427D01*
X166160880Y-77795221D01*
X166160875Y-77795224D01*
X166059565Y-77860332D01*
X166059560Y-77860336D01*
X166052104Y-77865128D01*
X166046299Y-77871827D01*
X166046297Y-77871829D01*
X165967428Y-77962848D01*
X165967424Y-77962853D01*
X165961621Y-77969551D01*
X165957938Y-77977614D01*
X165957935Y-77977620D01*
X165907909Y-78087162D01*
X165907907Y-78087167D01*
X165904223Y-78095235D01*
X165902960Y-78104014D01*
X165902960Y-78104017D01*
X165887986Y-78208158D01*
X165884559Y-78232000D01*
X163807441Y-78232000D01*
X163787777Y-78095235D01*
X163730379Y-77969551D01*
X163639896Y-77865128D01*
X163632436Y-77860333D01*
X163632434Y-77860332D01*
X163531124Y-77795224D01*
X163531121Y-77795222D01*
X163523659Y-77790427D01*
X163515148Y-77787928D01*
X163515146Y-77787927D01*
X163446391Y-77767739D01*
X163391085Y-77751500D01*
X163252915Y-77751500D01*
X163244404Y-77753998D01*
X163244404Y-77753999D01*
X163128853Y-77787927D01*
X163128848Y-77787928D01*
X163120341Y-77790427D01*
X163112880Y-77795221D01*
X163112875Y-77795224D01*
X163011565Y-77860332D01*
X163011560Y-77860336D01*
X163004104Y-77865128D01*
X162998299Y-77871827D01*
X162998297Y-77871829D01*
X162919428Y-77962848D01*
X162919424Y-77962853D01*
X162913621Y-77969551D01*
X162909938Y-77977614D01*
X162909935Y-77977620D01*
X162859909Y-78087162D01*
X162859907Y-78087167D01*
X162856223Y-78095235D01*
X162854960Y-78104014D01*
X162854960Y-78104017D01*
X162839986Y-78208158D01*
X162836559Y-78232000D01*
X161085000Y-78232000D01*
X161085000Y-76216326D01*
X161085000Y-76200000D01*
X161068674Y-76200000D01*
X156872810Y-76200000D01*
X156809337Y-76182523D01*
X156763756Y-76135018D01*
X156748362Y-76106573D01*
X156746037Y-76102059D01*
X156723026Y-76054989D01*
X156717402Y-76049365D01*
X156713619Y-76042374D01*
X156706058Y-76035414D01*
X156706057Y-76035412D01*
X156675117Y-76006930D01*
X156671419Y-76003382D01*
X156246319Y-75578281D01*
X156219439Y-75538053D01*
X156210000Y-75490600D01*
X156210000Y-74855323D01*
X156214989Y-74820621D01*
X156218577Y-74812765D01*
X156238241Y-74676000D01*
X156234589Y-74650600D01*
X157807359Y-74650600D01*
X157827023Y-74787365D01*
X157830708Y-74795434D01*
X157830709Y-74795437D01*
X157880735Y-74904979D01*
X157880736Y-74904981D01*
X157884421Y-74913049D01*
X157974904Y-75017472D01*
X158091141Y-75092173D01*
X158223715Y-75131100D01*
X158353015Y-75131100D01*
X158361885Y-75131100D01*
X158494459Y-75092173D01*
X158610696Y-75017472D01*
X158701179Y-74913049D01*
X158758577Y-74787365D01*
X158778241Y-74650600D01*
X158758577Y-74513835D01*
X158701179Y-74388151D01*
X158610696Y-74283728D01*
X158603236Y-74278933D01*
X158603234Y-74278932D01*
X158501924Y-74213824D01*
X158501921Y-74213822D01*
X158494459Y-74209027D01*
X158485948Y-74206528D01*
X158485946Y-74206527D01*
X158417191Y-74186339D01*
X158361885Y-74170100D01*
X158223715Y-74170100D01*
X158215204Y-74172598D01*
X158215204Y-74172599D01*
X158099653Y-74206527D01*
X158099648Y-74206528D01*
X158091141Y-74209027D01*
X158083680Y-74213821D01*
X158083675Y-74213824D01*
X157982365Y-74278932D01*
X157982360Y-74278936D01*
X157974904Y-74283728D01*
X157969099Y-74290427D01*
X157969097Y-74290429D01*
X157890228Y-74381448D01*
X157890224Y-74381453D01*
X157884421Y-74388151D01*
X157880738Y-74396214D01*
X157880735Y-74396220D01*
X157830709Y-74505762D01*
X157830707Y-74505767D01*
X157827023Y-74513835D01*
X157825760Y-74522614D01*
X157825760Y-74522617D01*
X157823371Y-74539235D01*
X157807359Y-74650600D01*
X156234589Y-74650600D01*
X156218577Y-74539235D01*
X156214989Y-74531378D01*
X156210000Y-74496677D01*
X156210000Y-72188323D01*
X156214989Y-72153621D01*
X156218577Y-72145765D01*
X156238241Y-72009000D01*
X156218577Y-71872235D01*
X156214989Y-71864378D01*
X156210000Y-71829677D01*
X156210000Y-71728000D01*
X156226613Y-71666000D01*
X156272000Y-71620613D01*
X156334000Y-71604000D01*
X157756575Y-71604000D01*
X157816002Y-71619168D01*
G37*
G04 #@! TD.AperFunction*
G04 #@! TA.AperFunction,Conductor*
G36*
X133346491Y-55634808D02*
G01*
X133385869Y-55659981D01*
X135205908Y-57384229D01*
X135238956Y-57437173D01*
X135242027Y-57499510D01*
X135214342Y-57555447D01*
X135182631Y-57592044D01*
X135182626Y-57592051D01*
X135176821Y-57598751D01*
X135173138Y-57606814D01*
X135173135Y-57606820D01*
X135123109Y-57716362D01*
X135123107Y-57716367D01*
X135119423Y-57724435D01*
X135099759Y-57861200D01*
X135119423Y-57997965D01*
X135123108Y-58006034D01*
X135123109Y-58006037D01*
X135173135Y-58115579D01*
X135173136Y-58115581D01*
X135176821Y-58123649D01*
X135267304Y-58228072D01*
X135274764Y-58232866D01*
X135274765Y-58232867D01*
X135374349Y-58296866D01*
X135383541Y-58302773D01*
X135516115Y-58341700D01*
X135645415Y-58341700D01*
X135654285Y-58341700D01*
X135786859Y-58302773D01*
X135903096Y-58228072D01*
X135908904Y-58221368D01*
X135915607Y-58215561D01*
X135917271Y-58217482D01*
X135960330Y-58188789D01*
X136026217Y-58185535D01*
X136084447Y-58216529D01*
X136169248Y-58296866D01*
X136202294Y-58349809D01*
X136205365Y-58412147D01*
X136177680Y-58468084D01*
X136122428Y-58531848D01*
X136122424Y-58531853D01*
X136116621Y-58538551D01*
X136112938Y-58546614D01*
X136112935Y-58546620D01*
X136062909Y-58656162D01*
X136062907Y-58656167D01*
X136059223Y-58664235D01*
X136057960Y-58673014D01*
X136057960Y-58673017D01*
X136050782Y-58722940D01*
X136039559Y-58801000D01*
X136059223Y-58937765D01*
X136062908Y-58945834D01*
X136062909Y-58945837D01*
X136112935Y-59055379D01*
X136112936Y-59055381D01*
X136116621Y-59063449D01*
X136122427Y-59070149D01*
X136122428Y-59070151D01*
X136149521Y-59101418D01*
X136207104Y-59167872D01*
X136214564Y-59172666D01*
X136214565Y-59172667D01*
X136302860Y-59229411D01*
X136323341Y-59242573D01*
X136455915Y-59281500D01*
X136585215Y-59281500D01*
X136594085Y-59281500D01*
X136726659Y-59242573D01*
X136842896Y-59167872D01*
X136868794Y-59137983D01*
X136923688Y-59101418D01*
X136989566Y-59098173D01*
X137047786Y-59129166D01*
X140146165Y-62064472D01*
X141437753Y-63288082D01*
X141469548Y-63337242D01*
X141475245Y-63395510D01*
X141453573Y-63449897D01*
X141409364Y-63488279D01*
X141352473Y-63502100D01*
X141256515Y-63502100D01*
X141248004Y-63504598D01*
X141248004Y-63504599D01*
X141132453Y-63538527D01*
X141132448Y-63538528D01*
X141123941Y-63541027D01*
X141116480Y-63545821D01*
X141116475Y-63545824D01*
X141015165Y-63610932D01*
X141015160Y-63610936D01*
X141007704Y-63615728D01*
X141001899Y-63622427D01*
X141001897Y-63622429D01*
X140923028Y-63713448D01*
X140923024Y-63713453D01*
X140917221Y-63720151D01*
X140913538Y-63728214D01*
X140913535Y-63728220D01*
X140863509Y-63837762D01*
X140863507Y-63837767D01*
X140859823Y-63845835D01*
X140840159Y-63982600D01*
X140841421Y-63991377D01*
X140858242Y-64108373D01*
X140859823Y-64119365D01*
X140863508Y-64127434D01*
X140863509Y-64127437D01*
X140913535Y-64236979D01*
X140913536Y-64236981D01*
X140917221Y-64245049D01*
X140923027Y-64251749D01*
X140923028Y-64251751D01*
X140940377Y-64271773D01*
X141007704Y-64349472D01*
X141123941Y-64424173D01*
X141256515Y-64463100D01*
X141385815Y-64463100D01*
X141394685Y-64463100D01*
X141527259Y-64424173D01*
X141643496Y-64349472D01*
X141733979Y-64245049D01*
X141791377Y-64119365D01*
X141811041Y-63982600D01*
X141805024Y-63940758D01*
X141811349Y-63880406D01*
X141845552Y-63830281D01*
X141899444Y-63802388D01*
X141960118Y-63803407D01*
X142013042Y-63833092D01*
X142180120Y-63991377D01*
X142183155Y-63994252D01*
X142210669Y-64032757D01*
X142238021Y-64092649D01*
X142328504Y-64197072D01*
X142444741Y-64271773D01*
X142461510Y-64276697D01*
X142511858Y-64305655D01*
X142743007Y-64524638D01*
X142963280Y-64733318D01*
X142991910Y-64774340D01*
X143002000Y-64823336D01*
X143002000Y-69246759D01*
X142992561Y-69294212D01*
X142965681Y-69334438D01*
X142088965Y-70211155D01*
X141216439Y-71083681D01*
X141176211Y-71110561D01*
X141128758Y-71120000D01*
X137284000Y-71120000D01*
X137222000Y-71103387D01*
X137176613Y-71058000D01*
X137160000Y-70996000D01*
X137160000Y-69354211D01*
X137160000Y-69342000D01*
X136956800Y-69138800D01*
X141246559Y-69138800D01*
X141266223Y-69275565D01*
X141269908Y-69283634D01*
X141269909Y-69283637D01*
X141319935Y-69393179D01*
X141319936Y-69393181D01*
X141323621Y-69401249D01*
X141414104Y-69505672D01*
X141530341Y-69580373D01*
X141662915Y-69619300D01*
X141792215Y-69619300D01*
X141801085Y-69619300D01*
X141933659Y-69580373D01*
X142049896Y-69505672D01*
X142140379Y-69401249D01*
X142197777Y-69275565D01*
X142217441Y-69138800D01*
X142197777Y-69002035D01*
X142140379Y-68876351D01*
X142049896Y-68771928D01*
X142042436Y-68767133D01*
X142042434Y-68767132D01*
X141941124Y-68702024D01*
X141941121Y-68702022D01*
X141933659Y-68697227D01*
X141925148Y-68694728D01*
X141925146Y-68694727D01*
X141856391Y-68674539D01*
X141801085Y-68658300D01*
X141662915Y-68658300D01*
X141654404Y-68660798D01*
X141654404Y-68660799D01*
X141538853Y-68694727D01*
X141538848Y-68694728D01*
X141530341Y-68697227D01*
X141522880Y-68702021D01*
X141522875Y-68702024D01*
X141421565Y-68767132D01*
X141421560Y-68767136D01*
X141414104Y-68771928D01*
X141408299Y-68778627D01*
X141408297Y-68778629D01*
X141329428Y-68869648D01*
X141329424Y-68869653D01*
X141323621Y-68876351D01*
X141319938Y-68884414D01*
X141319935Y-68884420D01*
X141269909Y-68993962D01*
X141269907Y-68993967D01*
X141266223Y-69002035D01*
X141264960Y-69010814D01*
X141264960Y-69010817D01*
X141262352Y-69028956D01*
X141246559Y-69138800D01*
X136956800Y-69138800D01*
X134620000Y-66802000D01*
X136318959Y-66802000D01*
X136320221Y-66810777D01*
X136334118Y-66907436D01*
X136338623Y-66938765D01*
X136342308Y-66946834D01*
X136342309Y-66946837D01*
X136392335Y-67056379D01*
X136392336Y-67056381D01*
X136396021Y-67064449D01*
X136401827Y-67071149D01*
X136401828Y-67071151D01*
X136426518Y-67099644D01*
X136486504Y-67168872D01*
X136493964Y-67173666D01*
X136493965Y-67173667D01*
X136515598Y-67187570D01*
X136602741Y-67243573D01*
X136735315Y-67282500D01*
X136864615Y-67282500D01*
X136873485Y-67282500D01*
X137006059Y-67243573D01*
X137122296Y-67168872D01*
X137182284Y-67099641D01*
X137224483Y-67068052D01*
X137275995Y-67056846D01*
X137327506Y-67068052D01*
X137369708Y-67099644D01*
X137423887Y-67162170D01*
X137451704Y-67194272D01*
X137567941Y-67268973D01*
X137700515Y-67307900D01*
X137829815Y-67307900D01*
X137838685Y-67307900D01*
X137971259Y-67268973D01*
X138087496Y-67194272D01*
X138177979Y-67089849D01*
X138178969Y-67090707D01*
X138211996Y-67058833D01*
X138266425Y-67041785D01*
X138322728Y-67050906D01*
X138368992Y-67084266D01*
X138411115Y-67132878D01*
X138442304Y-67168872D01*
X138449764Y-67173666D01*
X138449765Y-67173667D01*
X138471398Y-67187570D01*
X138558541Y-67243573D01*
X138691115Y-67282500D01*
X138820415Y-67282500D01*
X138829285Y-67282500D01*
X138961859Y-67243573D01*
X139078096Y-67168872D01*
X139168579Y-67064449D01*
X139225977Y-66938765D01*
X139245641Y-66802000D01*
X139225977Y-66665235D01*
X139168579Y-66539551D01*
X139078096Y-66435128D01*
X139070636Y-66430333D01*
X139070634Y-66430332D01*
X138969324Y-66365224D01*
X138969321Y-66365222D01*
X138961859Y-66360427D01*
X138953348Y-66357928D01*
X138953346Y-66357927D01*
X138884591Y-66337739D01*
X138829285Y-66321500D01*
X138691115Y-66321500D01*
X138682604Y-66323998D01*
X138682604Y-66323999D01*
X138567053Y-66357927D01*
X138567048Y-66357928D01*
X138558541Y-66360427D01*
X138551080Y-66365221D01*
X138551075Y-66365224D01*
X138449765Y-66430332D01*
X138449760Y-66430336D01*
X138442304Y-66435128D01*
X138436499Y-66441827D01*
X138436497Y-66441829D01*
X138351821Y-66539551D01*
X138350832Y-66538694D01*
X138317787Y-66570576D01*
X138263361Y-66587614D01*
X138207065Y-66578490D01*
X138160807Y-66545133D01*
X138093302Y-66467229D01*
X138087496Y-66460528D01*
X138080036Y-66455733D01*
X138080034Y-66455732D01*
X137978724Y-66390624D01*
X137978721Y-66390622D01*
X137971259Y-66385827D01*
X137962748Y-66383328D01*
X137962746Y-66383327D01*
X137884754Y-66360427D01*
X137838685Y-66346900D01*
X137700515Y-66346900D01*
X137692004Y-66349398D01*
X137692004Y-66349399D01*
X137576453Y-66383327D01*
X137576448Y-66383328D01*
X137567941Y-66385827D01*
X137560480Y-66390621D01*
X137560475Y-66390624D01*
X137459165Y-66455732D01*
X137459160Y-66455736D01*
X137451704Y-66460528D01*
X137445899Y-66467227D01*
X137445897Y-66467229D01*
X137391717Y-66529756D01*
X137332938Y-66567530D01*
X137263069Y-66567530D01*
X137204291Y-66529755D01*
X137128105Y-66441831D01*
X137128101Y-66441828D01*
X137122296Y-66435128D01*
X137114836Y-66430333D01*
X137114834Y-66430332D01*
X137013524Y-66365224D01*
X137013521Y-66365222D01*
X137006059Y-66360427D01*
X136997548Y-66357928D01*
X136997546Y-66357927D01*
X136928791Y-66337739D01*
X136873485Y-66321500D01*
X136735315Y-66321500D01*
X136726804Y-66323998D01*
X136726804Y-66323999D01*
X136611253Y-66357927D01*
X136611248Y-66357928D01*
X136602741Y-66360427D01*
X136595280Y-66365221D01*
X136595275Y-66365224D01*
X136493965Y-66430332D01*
X136493960Y-66430336D01*
X136486504Y-66435128D01*
X136480699Y-66441827D01*
X136480697Y-66441829D01*
X136401828Y-66532848D01*
X136401824Y-66532853D01*
X136396021Y-66539551D01*
X136392338Y-66547614D01*
X136392335Y-66547620D01*
X136342309Y-66657162D01*
X136342307Y-66657167D01*
X136338623Y-66665235D01*
X136318959Y-66802000D01*
X134620000Y-66802000D01*
X133324600Y-65506600D01*
X140128959Y-65506600D01*
X140148623Y-65643365D01*
X140152308Y-65651434D01*
X140152309Y-65651437D01*
X140202335Y-65760979D01*
X140202336Y-65760981D01*
X140206021Y-65769049D01*
X140296504Y-65873472D01*
X140412741Y-65948173D01*
X140545315Y-65987100D01*
X140674615Y-65987100D01*
X140683485Y-65987100D01*
X140816059Y-65948173D01*
X140932296Y-65873472D01*
X141022779Y-65769049D01*
X141080177Y-65643365D01*
X141099841Y-65506600D01*
X141080177Y-65369835D01*
X141022779Y-65244151D01*
X140932296Y-65139728D01*
X140924836Y-65134933D01*
X140924834Y-65134932D01*
X140823524Y-65069824D01*
X140823521Y-65069822D01*
X140816059Y-65065027D01*
X140807548Y-65062528D01*
X140807546Y-65062527D01*
X140738791Y-65042339D01*
X140683485Y-65026100D01*
X140545315Y-65026100D01*
X140536804Y-65028598D01*
X140536804Y-65028599D01*
X140421253Y-65062527D01*
X140421248Y-65062528D01*
X140412741Y-65065027D01*
X140405280Y-65069821D01*
X140405275Y-65069824D01*
X140303965Y-65134932D01*
X140303960Y-65134936D01*
X140296504Y-65139728D01*
X140290699Y-65146427D01*
X140290697Y-65146429D01*
X140211828Y-65237448D01*
X140211824Y-65237453D01*
X140206021Y-65244151D01*
X140202338Y-65252214D01*
X140202335Y-65252220D01*
X140152309Y-65361762D01*
X140152307Y-65361767D01*
X140148623Y-65369835D01*
X140128959Y-65506600D01*
X133324600Y-65506600D01*
X132334000Y-64516000D01*
X132321789Y-64516000D01*
X118864995Y-64516000D01*
X118819683Y-64506142D01*
X118819659Y-64506227D01*
X118818483Y-64505881D01*
X118818473Y-64505879D01*
X118811150Y-64503728D01*
X118811149Y-64503728D01*
X118753371Y-64486763D01*
X118687085Y-64467300D01*
X118548915Y-64467300D01*
X118540404Y-64469798D01*
X118540404Y-64469799D01*
X118424850Y-64503728D01*
X118424846Y-64503729D01*
X118417528Y-64505878D01*
X118417516Y-64505881D01*
X118416341Y-64506227D01*
X118416316Y-64506142D01*
X118371005Y-64516000D01*
X115186000Y-64516000D01*
X115124000Y-64499387D01*
X115078613Y-64454000D01*
X115062000Y-64392000D01*
X115062000Y-64060183D01*
X115069818Y-64016850D01*
X115092287Y-63978980D01*
X115125406Y-63940758D01*
X115135379Y-63929249D01*
X115192777Y-63803565D01*
X115212441Y-63666800D01*
X115192777Y-63530035D01*
X115135379Y-63404351D01*
X115092287Y-63354620D01*
X115069818Y-63316750D01*
X115062000Y-63273417D01*
X115062000Y-62255400D01*
X121536159Y-62255400D01*
X121555823Y-62392165D01*
X121559508Y-62400234D01*
X121559509Y-62400237D01*
X121609535Y-62509779D01*
X121609536Y-62509781D01*
X121613221Y-62517849D01*
X121703704Y-62622272D01*
X121819941Y-62696973D01*
X121952515Y-62735900D01*
X122081815Y-62735900D01*
X122090685Y-62735900D01*
X122223259Y-62696973D01*
X122339496Y-62622272D01*
X122429979Y-62517849D01*
X122432324Y-62512712D01*
X122471929Y-62474493D01*
X122526357Y-62457448D01*
X122582657Y-62466570D01*
X122628919Y-62499928D01*
X122650255Y-62524550D01*
X122668904Y-62546072D01*
X122676364Y-62550866D01*
X122676365Y-62550867D01*
X122690887Y-62560200D01*
X122785141Y-62620773D01*
X122917715Y-62659700D01*
X123047015Y-62659700D01*
X123055885Y-62659700D01*
X123188459Y-62620773D01*
X123282712Y-62560200D01*
X136038526Y-62560200D01*
X136039788Y-62568977D01*
X136052472Y-62657200D01*
X136058190Y-62696965D01*
X136061875Y-62705034D01*
X136061876Y-62705037D01*
X136111902Y-62814579D01*
X136111903Y-62814581D01*
X136115588Y-62822649D01*
X136206071Y-62927072D01*
X136322308Y-63001773D01*
X136454882Y-63040700D01*
X136584182Y-63040700D01*
X136593052Y-63040700D01*
X136725626Y-63001773D01*
X136841863Y-62927072D01*
X136932346Y-62822649D01*
X136989744Y-62696965D01*
X137009408Y-62560200D01*
X136989744Y-62423435D01*
X136932346Y-62297751D01*
X136841863Y-62193328D01*
X136834403Y-62188533D01*
X136834401Y-62188532D01*
X136733091Y-62123424D01*
X136733088Y-62123422D01*
X136725626Y-62118627D01*
X136717115Y-62116128D01*
X136717113Y-62116127D01*
X136648358Y-62095939D01*
X136593052Y-62079700D01*
X136454882Y-62079700D01*
X136446371Y-62082198D01*
X136446371Y-62082199D01*
X136330820Y-62116127D01*
X136330815Y-62116128D01*
X136322308Y-62118627D01*
X136314847Y-62123421D01*
X136314842Y-62123424D01*
X136213532Y-62188532D01*
X136213527Y-62188536D01*
X136206071Y-62193328D01*
X136200266Y-62200027D01*
X136200264Y-62200029D01*
X136121395Y-62291048D01*
X136121391Y-62291053D01*
X136115588Y-62297751D01*
X136111905Y-62305814D01*
X136111902Y-62305820D01*
X136061876Y-62415362D01*
X136061874Y-62415367D01*
X136058190Y-62423435D01*
X136056927Y-62432214D01*
X136056927Y-62432217D01*
X136045154Y-62514099D01*
X136038526Y-62560200D01*
X123282712Y-62560200D01*
X123304696Y-62546072D01*
X123395179Y-62441649D01*
X123452577Y-62315965D01*
X123472241Y-62179200D01*
X123452577Y-62042435D01*
X123395179Y-61916751D01*
X123304696Y-61812328D01*
X123297236Y-61807533D01*
X123297234Y-61807532D01*
X123195924Y-61742424D01*
X123195921Y-61742422D01*
X123188459Y-61737627D01*
X123179948Y-61735128D01*
X123179946Y-61735127D01*
X123111191Y-61714939D01*
X123055885Y-61698700D01*
X122917715Y-61698700D01*
X122909204Y-61701198D01*
X122909204Y-61701199D01*
X122793653Y-61735127D01*
X122793648Y-61735128D01*
X122785141Y-61737627D01*
X122777680Y-61742421D01*
X122777675Y-61742424D01*
X122676365Y-61807532D01*
X122676360Y-61807536D01*
X122668904Y-61812328D01*
X122663099Y-61819027D01*
X122663097Y-61819029D01*
X122584229Y-61910048D01*
X122578421Y-61916751D01*
X122576074Y-61921889D01*
X122536465Y-61960109D01*
X122482038Y-61977151D01*
X122425740Y-61968028D01*
X122379480Y-61934671D01*
X122345303Y-61895229D01*
X122345300Y-61895227D01*
X122339496Y-61888528D01*
X122332036Y-61883733D01*
X122332034Y-61883732D01*
X122230724Y-61818624D01*
X122230721Y-61818622D01*
X122223259Y-61813827D01*
X122214748Y-61811328D01*
X122214746Y-61811327D01*
X122145991Y-61791139D01*
X122090685Y-61774900D01*
X121952515Y-61774900D01*
X121944004Y-61777398D01*
X121944004Y-61777399D01*
X121828453Y-61811327D01*
X121828448Y-61811328D01*
X121819941Y-61813827D01*
X121812480Y-61818621D01*
X121812475Y-61818624D01*
X121711165Y-61883732D01*
X121711160Y-61883736D01*
X121703704Y-61888528D01*
X121697899Y-61895227D01*
X121697897Y-61895229D01*
X121619028Y-61986248D01*
X121619024Y-61986253D01*
X121613221Y-61992951D01*
X121609538Y-62001014D01*
X121609535Y-62001020D01*
X121559509Y-62110562D01*
X121559507Y-62110567D01*
X121555823Y-62118635D01*
X121536159Y-62255400D01*
X115062000Y-62255400D01*
X115062000Y-61343000D01*
X119231518Y-61343000D01*
X119232579Y-61351059D01*
X119251094Y-61491702D01*
X119251095Y-61491708D01*
X119252156Y-61499762D01*
X119255265Y-61507268D01*
X119255266Y-61507271D01*
X119309554Y-61638333D01*
X119312664Y-61645841D01*
X119408918Y-61771282D01*
X119534359Y-61867536D01*
X119680438Y-61928044D01*
X119797839Y-61943500D01*
X119872508Y-61943500D01*
X119876561Y-61943500D01*
X119993962Y-61928044D01*
X120140041Y-61867536D01*
X120265482Y-61771282D01*
X120361736Y-61645841D01*
X120372274Y-61620400D01*
X135099758Y-61620400D01*
X135101020Y-61629177D01*
X135117302Y-61742424D01*
X135119422Y-61757165D01*
X135123107Y-61765234D01*
X135123108Y-61765237D01*
X135173134Y-61874779D01*
X135173135Y-61874781D01*
X135176820Y-61882849D01*
X135267303Y-61987272D01*
X135383540Y-62061973D01*
X135516114Y-62100900D01*
X135645414Y-62100900D01*
X135654284Y-62100900D01*
X135786858Y-62061973D01*
X135903095Y-61987272D01*
X135993578Y-61882849D01*
X136050976Y-61757165D01*
X136070640Y-61620400D01*
X136050976Y-61483635D01*
X135993578Y-61357951D01*
X135903095Y-61253528D01*
X135895635Y-61248733D01*
X135895633Y-61248732D01*
X135794323Y-61183624D01*
X135794320Y-61183622D01*
X135786858Y-61178827D01*
X135778347Y-61176328D01*
X135778345Y-61176327D01*
X135709590Y-61156139D01*
X135654284Y-61139900D01*
X135516114Y-61139900D01*
X135507603Y-61142398D01*
X135507603Y-61142399D01*
X135392052Y-61176327D01*
X135392047Y-61176328D01*
X135383540Y-61178827D01*
X135376079Y-61183621D01*
X135376074Y-61183624D01*
X135274764Y-61248732D01*
X135274759Y-61248736D01*
X135267303Y-61253528D01*
X135261498Y-61260227D01*
X135261496Y-61260229D01*
X135182627Y-61351248D01*
X135182623Y-61351253D01*
X135176820Y-61357951D01*
X135173137Y-61366014D01*
X135173134Y-61366020D01*
X135123108Y-61475562D01*
X135123106Y-61475567D01*
X135119422Y-61483635D01*
X135118159Y-61492414D01*
X135118159Y-61492417D01*
X135103185Y-61596558D01*
X135099758Y-61620400D01*
X120372274Y-61620400D01*
X120422244Y-61499762D01*
X120442882Y-61343000D01*
X120422244Y-61186238D01*
X120361736Y-61040159D01*
X120265482Y-60914718D01*
X120140041Y-60818464D01*
X120116184Y-60808582D01*
X120001471Y-60761066D01*
X120001468Y-60761065D01*
X119993962Y-60757956D01*
X119985908Y-60756895D01*
X119985902Y-60756894D01*
X119880581Y-60743029D01*
X119880577Y-60743028D01*
X119876561Y-60742500D01*
X119797839Y-60742500D01*
X119793823Y-60743028D01*
X119793818Y-60743029D01*
X119688497Y-60756894D01*
X119688489Y-60756896D01*
X119680438Y-60757956D01*
X119672933Y-60761064D01*
X119672928Y-60761066D01*
X119541866Y-60815354D01*
X119541862Y-60815355D01*
X119534359Y-60818464D01*
X119527914Y-60823408D01*
X119527911Y-60823411D01*
X119415364Y-60909771D01*
X119415360Y-60909774D01*
X119408918Y-60914718D01*
X119403974Y-60921160D01*
X119403971Y-60921164D01*
X119317611Y-61033711D01*
X119317608Y-61033714D01*
X119312664Y-61040159D01*
X119309555Y-61047662D01*
X119309554Y-61047666D01*
X119255266Y-61178728D01*
X119255264Y-61178733D01*
X119252156Y-61186238D01*
X119251096Y-61194289D01*
X119251094Y-61194297D01*
X119232902Y-61332482D01*
X119231518Y-61343000D01*
X115062000Y-61343000D01*
X115062000Y-60601700D01*
X122514051Y-60601700D01*
X122533715Y-60738465D01*
X122537400Y-60746534D01*
X122537401Y-60746537D01*
X122587427Y-60856079D01*
X122587428Y-60856081D01*
X122591113Y-60864149D01*
X122596919Y-60870849D01*
X122596920Y-60870851D01*
X122625384Y-60903700D01*
X122681596Y-60968572D01*
X122797833Y-61043273D01*
X122930407Y-61082200D01*
X123059707Y-61082200D01*
X123068577Y-61082200D01*
X123201151Y-61043273D01*
X123317388Y-60968572D01*
X123407871Y-60864149D01*
X123465269Y-60738465D01*
X123473589Y-60680600D01*
X136039558Y-60680600D01*
X136040820Y-60689377D01*
X136054717Y-60786036D01*
X136059222Y-60817365D01*
X136062907Y-60825434D01*
X136062908Y-60825437D01*
X136112934Y-60934979D01*
X136112935Y-60934981D01*
X136116620Y-60943049D01*
X136207103Y-61047472D01*
X136323340Y-61122173D01*
X136455914Y-61161100D01*
X136585214Y-61161100D01*
X136594084Y-61161100D01*
X136726658Y-61122173D01*
X136842895Y-61047472D01*
X136933378Y-60943049D01*
X136990776Y-60817365D01*
X137010440Y-60680600D01*
X136990776Y-60543835D01*
X136933378Y-60418151D01*
X136842895Y-60313728D01*
X136835435Y-60308933D01*
X136835433Y-60308932D01*
X136734123Y-60243824D01*
X136734120Y-60243822D01*
X136726658Y-60239027D01*
X136718147Y-60236528D01*
X136718145Y-60236527D01*
X136649390Y-60216339D01*
X136594084Y-60200100D01*
X136455914Y-60200100D01*
X136447403Y-60202598D01*
X136447403Y-60202599D01*
X136331852Y-60236527D01*
X136331847Y-60236528D01*
X136323340Y-60239027D01*
X136315879Y-60243821D01*
X136315874Y-60243824D01*
X136214564Y-60308932D01*
X136214559Y-60308936D01*
X136207103Y-60313728D01*
X136201298Y-60320427D01*
X136201296Y-60320429D01*
X136122427Y-60411448D01*
X136122423Y-60411453D01*
X136116620Y-60418151D01*
X136112937Y-60426214D01*
X136112934Y-60426220D01*
X136062908Y-60535762D01*
X136062906Y-60535767D01*
X136059222Y-60543835D01*
X136039558Y-60680600D01*
X123473589Y-60680600D01*
X123484933Y-60601700D01*
X123465269Y-60464935D01*
X123407871Y-60339251D01*
X123317388Y-60234828D01*
X123309928Y-60230033D01*
X123309926Y-60230032D01*
X123208616Y-60164924D01*
X123208613Y-60164922D01*
X123201151Y-60160127D01*
X123192640Y-60157628D01*
X123192638Y-60157627D01*
X123123883Y-60137439D01*
X123068577Y-60121200D01*
X122930407Y-60121200D01*
X122921896Y-60123698D01*
X122921896Y-60123699D01*
X122806345Y-60157627D01*
X122806340Y-60157628D01*
X122797833Y-60160127D01*
X122790372Y-60164921D01*
X122790367Y-60164924D01*
X122689057Y-60230032D01*
X122689052Y-60230036D01*
X122681596Y-60234828D01*
X122675791Y-60241527D01*
X122675789Y-60241529D01*
X122596920Y-60332548D01*
X122596916Y-60332553D01*
X122591113Y-60339251D01*
X122587430Y-60347314D01*
X122587427Y-60347320D01*
X122537401Y-60456862D01*
X122537399Y-60456867D01*
X122533715Y-60464935D01*
X122532452Y-60473714D01*
X122532452Y-60473717D01*
X122522371Y-60543835D01*
X122514051Y-60601700D01*
X115062000Y-60601700D01*
X115062000Y-59740800D01*
X135099759Y-59740800D01*
X135101021Y-59749577D01*
X135117531Y-59864410D01*
X135119423Y-59877565D01*
X135123108Y-59885634D01*
X135123109Y-59885637D01*
X135173135Y-59995179D01*
X135173136Y-59995181D01*
X135176821Y-60003249D01*
X135182627Y-60009949D01*
X135182628Y-60009951D01*
X135198830Y-60028649D01*
X135267304Y-60107672D01*
X135274764Y-60112466D01*
X135274765Y-60112467D01*
X135348925Y-60160127D01*
X135383541Y-60182373D01*
X135516115Y-60221300D01*
X135645415Y-60221300D01*
X135654285Y-60221300D01*
X135786859Y-60182373D01*
X135903096Y-60107672D01*
X135993579Y-60003249D01*
X136050977Y-59877565D01*
X136070641Y-59740800D01*
X136050977Y-59604035D01*
X135993579Y-59478351D01*
X135903096Y-59373928D01*
X135895636Y-59369133D01*
X135895634Y-59369132D01*
X135794324Y-59304024D01*
X135794321Y-59304022D01*
X135786859Y-59299227D01*
X135778348Y-59296728D01*
X135778346Y-59296727D01*
X135709591Y-59276539D01*
X135654285Y-59260300D01*
X135516115Y-59260300D01*
X135507604Y-59262798D01*
X135507604Y-59262799D01*
X135392053Y-59296727D01*
X135392048Y-59296728D01*
X135383541Y-59299227D01*
X135376080Y-59304021D01*
X135376075Y-59304024D01*
X135274765Y-59369132D01*
X135274760Y-59369136D01*
X135267304Y-59373928D01*
X135261499Y-59380627D01*
X135261497Y-59380629D01*
X135182628Y-59471648D01*
X135182624Y-59471653D01*
X135176821Y-59478351D01*
X135173138Y-59486414D01*
X135173135Y-59486420D01*
X135123109Y-59595962D01*
X135123107Y-59595967D01*
X135119423Y-59604035D01*
X135099759Y-59740800D01*
X115062000Y-59740800D01*
X115062000Y-58504243D01*
X119036700Y-58504243D01*
X119037751Y-58509869D01*
X119037752Y-58509872D01*
X119065099Y-58656162D01*
X119077582Y-58722940D01*
X119157953Y-58930401D01*
X119192863Y-58986782D01*
X119263841Y-59101418D01*
X119275076Y-59119562D01*
X119278936Y-59123796D01*
X119421097Y-59279740D01*
X119421101Y-59279744D01*
X119424964Y-59283981D01*
X119429537Y-59287434D01*
X119429541Y-59287438D01*
X119597938Y-59414605D01*
X119602511Y-59418058D01*
X119801672Y-59517229D01*
X120015664Y-59578115D01*
X120181697Y-59593500D01*
X120289831Y-59593500D01*
X120292703Y-59593500D01*
X120458736Y-59578115D01*
X120672728Y-59517229D01*
X120871889Y-59418058D01*
X121049436Y-59283981D01*
X121199324Y-59119562D01*
X121316447Y-58930401D01*
X121396818Y-58722940D01*
X121437700Y-58504243D01*
X121437700Y-58281757D01*
X121396818Y-58063060D01*
X121316447Y-57855599D01*
X121199324Y-57666438D01*
X121131505Y-57592044D01*
X121053302Y-57506259D01*
X121053297Y-57506255D01*
X121049436Y-57502019D01*
X121044863Y-57498566D01*
X121044858Y-57498561D01*
X120876461Y-57371394D01*
X120876456Y-57371391D01*
X120871889Y-57367942D01*
X120866763Y-57365389D01*
X120866759Y-57365387D01*
X120677858Y-57271325D01*
X120677853Y-57271323D01*
X120672728Y-57268771D01*
X120667221Y-57267204D01*
X120667213Y-57267201D01*
X120464250Y-57209454D01*
X120464251Y-57209454D01*
X120458736Y-57207885D01*
X120453028Y-57207356D01*
X120295563Y-57192765D01*
X120295562Y-57192764D01*
X120292703Y-57192500D01*
X120181697Y-57192500D01*
X120178838Y-57192764D01*
X120178836Y-57192765D01*
X120021371Y-57207356D01*
X120021369Y-57207356D01*
X120015664Y-57207885D01*
X120010150Y-57209453D01*
X120010149Y-57209454D01*
X119807186Y-57267201D01*
X119807175Y-57267205D01*
X119801672Y-57268771D01*
X119796549Y-57271321D01*
X119796541Y-57271325D01*
X119607640Y-57365387D01*
X119607631Y-57365392D01*
X119602511Y-57367942D01*
X119597948Y-57371387D01*
X119597938Y-57371394D01*
X119429541Y-57498561D01*
X119429530Y-57498570D01*
X119424964Y-57502019D01*
X119421107Y-57506249D01*
X119421097Y-57506259D01*
X119278936Y-57662203D01*
X119278932Y-57662207D01*
X119275076Y-57666438D01*
X119272064Y-57671301D01*
X119272059Y-57671309D01*
X119233728Y-57733217D01*
X119157953Y-57855599D01*
X119155885Y-57860936D01*
X119155883Y-57860941D01*
X119079653Y-58057713D01*
X119077582Y-58063060D01*
X119076528Y-58068694D01*
X119076528Y-58068697D01*
X119038954Y-58269700D01*
X119036700Y-58281757D01*
X119036700Y-58504243D01*
X115062000Y-58504243D01*
X115062000Y-55750000D01*
X115078613Y-55688000D01*
X115124000Y-55642613D01*
X115186000Y-55626000D01*
X133300590Y-55626000D01*
X133346491Y-55634808D01*
G37*
G04 #@! TD.AperFunction*
G04 #@! TA.AperFunction,Conductor*
G36*
X85890405Y-101814406D02*
G01*
X85932606Y-101845997D01*
X85940504Y-101855112D01*
X86056741Y-101929813D01*
X86086246Y-101938476D01*
X86145023Y-101976249D01*
X86174049Y-102039804D01*
X86164106Y-102108963D01*
X86137508Y-102167204D01*
X86137506Y-102167209D01*
X86133823Y-102175275D01*
X86132560Y-102184054D01*
X86132560Y-102184057D01*
X86129029Y-102208617D01*
X86114159Y-102312040D01*
X86133823Y-102448805D01*
X86137508Y-102456874D01*
X86137509Y-102456877D01*
X86187535Y-102566419D01*
X86187536Y-102566421D01*
X86191221Y-102574489D01*
X86197027Y-102581189D01*
X86197028Y-102581191D01*
X86222974Y-102611134D01*
X86281704Y-102678912D01*
X86289164Y-102683706D01*
X86289165Y-102683707D01*
X86366865Y-102733642D01*
X86397941Y-102753613D01*
X86530515Y-102792540D01*
X86659815Y-102792540D01*
X86668685Y-102792540D01*
X86801259Y-102753613D01*
X86917496Y-102678912D01*
X87007979Y-102574489D01*
X87065377Y-102448805D01*
X87085041Y-102312040D01*
X87065377Y-102175275D01*
X87007979Y-102049591D01*
X86972288Y-102008401D01*
X86946076Y-101958724D01*
X86944472Y-101902575D01*
X86967806Y-101851480D01*
X87011290Y-101815923D01*
X87066002Y-101803200D01*
X88150079Y-101803200D01*
X88204790Y-101815923D01*
X88248275Y-101851480D01*
X88271609Y-101902575D01*
X88270005Y-101958723D01*
X88243792Y-102008403D01*
X88192628Y-102067448D01*
X88192624Y-102067453D01*
X88186821Y-102074151D01*
X88183138Y-102082214D01*
X88183135Y-102082220D01*
X88133109Y-102191762D01*
X88133107Y-102191767D01*
X88129423Y-102199835D01*
X88128160Y-102208614D01*
X88128160Y-102208617D01*
X88115123Y-102299291D01*
X88109759Y-102336600D01*
X88129423Y-102473365D01*
X88133108Y-102481434D01*
X88133109Y-102481437D01*
X88183135Y-102590979D01*
X88183136Y-102590981D01*
X88186821Y-102599049D01*
X88192627Y-102605749D01*
X88192628Y-102605751D01*
X88232062Y-102651260D01*
X88277304Y-102703472D01*
X88284764Y-102708266D01*
X88284765Y-102708267D01*
X88361648Y-102757677D01*
X88393541Y-102778173D01*
X88402051Y-102780671D01*
X88402054Y-102780673D01*
X88437723Y-102791146D01*
X88484551Y-102804895D01*
X88537296Y-102836190D01*
X88568593Y-102888936D01*
X88570783Y-102950228D01*
X88543330Y-103005073D01*
X88497431Y-103058044D01*
X88497426Y-103058051D01*
X88491621Y-103064751D01*
X88487938Y-103072814D01*
X88487935Y-103072820D01*
X88437909Y-103182362D01*
X88437907Y-103182367D01*
X88434223Y-103190435D01*
X88414559Y-103327200D01*
X88415821Y-103335977D01*
X88432149Y-103449544D01*
X88434223Y-103463965D01*
X88490274Y-103586700D01*
X88500219Y-103655852D01*
X88475447Y-103710103D01*
X88476824Y-103710988D01*
X88472030Y-103718446D01*
X88466221Y-103725151D01*
X88462537Y-103733216D01*
X88462534Y-103733222D01*
X88408823Y-103850835D01*
X88406603Y-103849821D01*
X88382482Y-103890256D01*
X88329121Y-103921457D01*
X88267327Y-103923021D01*
X88212457Y-103894559D01*
X88178144Y-103843144D01*
X88166155Y-103808880D01*
X88166154Y-103808878D01*
X88163856Y-103802310D01*
X88073877Y-103659110D01*
X87954290Y-103539523D01*
X87811090Y-103449544D01*
X87804524Y-103447246D01*
X87804521Y-103447245D01*
X87658033Y-103395987D01*
X87658030Y-103395986D01*
X87651459Y-103393687D01*
X87644542Y-103392907D01*
X87644535Y-103392906D01*
X87490323Y-103375531D01*
X87483400Y-103374751D01*
X87476477Y-103375531D01*
X87322264Y-103392906D01*
X87322255Y-103392907D01*
X87315341Y-103393687D01*
X87308771Y-103395985D01*
X87308766Y-103395987D01*
X87162278Y-103447245D01*
X87162272Y-103447247D01*
X87155710Y-103449544D01*
X87149822Y-103453243D01*
X87149817Y-103453246D01*
X87015972Y-103537347D01*
X86950000Y-103556353D01*
X86884028Y-103537347D01*
X86750182Y-103453246D01*
X86750180Y-103453245D01*
X86744290Y-103449544D01*
X86737724Y-103447246D01*
X86737721Y-103447245D01*
X86591233Y-103395987D01*
X86591230Y-103395986D01*
X86584659Y-103393687D01*
X86577742Y-103392907D01*
X86577735Y-103392906D01*
X86423523Y-103375531D01*
X86416600Y-103374751D01*
X86409677Y-103375531D01*
X86255464Y-103392906D01*
X86255455Y-103392907D01*
X86248541Y-103393687D01*
X86241971Y-103395985D01*
X86241966Y-103395987D01*
X86095478Y-103447245D01*
X86095472Y-103447247D01*
X86088910Y-103449544D01*
X86083019Y-103453245D01*
X86083018Y-103453246D01*
X85951610Y-103535815D01*
X85951605Y-103535818D01*
X85945710Y-103539523D01*
X85940785Y-103544447D01*
X85940781Y-103544451D01*
X85831051Y-103654181D01*
X85831047Y-103654185D01*
X85826123Y-103659110D01*
X85822418Y-103665005D01*
X85822415Y-103665010D01*
X85766248Y-103754400D01*
X85736144Y-103802310D01*
X85733847Y-103808872D01*
X85733845Y-103808878D01*
X85682587Y-103955366D01*
X85682585Y-103955371D01*
X85680287Y-103961941D01*
X85679507Y-103968855D01*
X85679506Y-103968864D01*
X85662131Y-104123077D01*
X85661351Y-104130000D01*
X85662131Y-104136923D01*
X85679506Y-104291135D01*
X85679507Y-104291142D01*
X85680287Y-104298059D01*
X85682586Y-104304630D01*
X85682587Y-104304633D01*
X85726165Y-104429173D01*
X85736144Y-104457690D01*
X85826123Y-104600890D01*
X85945710Y-104720477D01*
X86088910Y-104810456D01*
X86248541Y-104866313D01*
X86416600Y-104885249D01*
X86584659Y-104866313D01*
X86744290Y-104810456D01*
X86884028Y-104722651D01*
X86950000Y-104703646D01*
X87015971Y-104722651D01*
X87155710Y-104810456D01*
X87315341Y-104866313D01*
X87483400Y-104885249D01*
X87651459Y-104866313D01*
X87811090Y-104810456D01*
X87954290Y-104720477D01*
X88073877Y-104600890D01*
X88163856Y-104457690D01*
X88219713Y-104298059D01*
X88222728Y-104271299D01*
X88245928Y-104211889D01*
X88295590Y-104171869D01*
X88358574Y-104161828D01*
X88418218Y-104184421D01*
X88458740Y-104233668D01*
X88466221Y-104250049D01*
X88556704Y-104354472D01*
X88672941Y-104429173D01*
X88805515Y-104468100D01*
X88934815Y-104468100D01*
X88943685Y-104468100D01*
X89076259Y-104429173D01*
X89192496Y-104354472D01*
X89282979Y-104250049D01*
X89340377Y-104124365D01*
X89360041Y-103987600D01*
X89340377Y-103850835D01*
X89340377Y-103850834D01*
X89341644Y-103850652D01*
X89339180Y-103804683D01*
X89361943Y-103752389D01*
X89405706Y-103715816D01*
X89461210Y-103702700D01*
X90041995Y-103702700D01*
X90067444Y-103705340D01*
X90068009Y-103705458D01*
X90068010Y-103705458D01*
X90078068Y-103707567D01*
X90109476Y-103703651D01*
X90114687Y-103703328D01*
X90114671Y-103703124D01*
X90119786Y-103702700D01*
X90124914Y-103702700D01*
X90145436Y-103699274D01*
X90150466Y-103698542D01*
X90202426Y-103692066D01*
X90209570Y-103688573D01*
X90217410Y-103687265D01*
X90263447Y-103662350D01*
X90267964Y-103660025D01*
X90315011Y-103637026D01*
X90320634Y-103631402D01*
X90327626Y-103627619D01*
X90363116Y-103589064D01*
X90366593Y-103585442D01*
X91652746Y-102299291D01*
X91692975Y-102272411D01*
X91740428Y-102262972D01*
X92080352Y-102262972D01*
X92137172Y-102276756D01*
X92181359Y-102315045D01*
X92203090Y-102369325D01*
X92218823Y-102478748D01*
X92222508Y-102486817D01*
X92222509Y-102486820D01*
X92272535Y-102596362D01*
X92272536Y-102596364D01*
X92276221Y-102604432D01*
X92282025Y-102611130D01*
X92282028Y-102611134D01*
X92293566Y-102624449D01*
X92366704Y-102708855D01*
X92374166Y-102713651D01*
X92376273Y-102715476D01*
X92407866Y-102757677D01*
X92419073Y-102809189D01*
X92407868Y-102860702D01*
X92376275Y-102902904D01*
X92374161Y-102904735D01*
X92366704Y-102909528D01*
X92360900Y-102916226D01*
X92360899Y-102916227D01*
X92282028Y-103007248D01*
X92282024Y-103007253D01*
X92276221Y-103013951D01*
X92272538Y-103022014D01*
X92272535Y-103022020D01*
X92222509Y-103131562D01*
X92222507Y-103131567D01*
X92218823Y-103139635D01*
X92199159Y-103276400D01*
X92218823Y-103413165D01*
X92222508Y-103421234D01*
X92222509Y-103421237D01*
X92272535Y-103530779D01*
X92272536Y-103530781D01*
X92276221Y-103538849D01*
X92366704Y-103643272D01*
X92374164Y-103648066D01*
X92374165Y-103648067D01*
X92459835Y-103703124D01*
X92482941Y-103717973D01*
X92615515Y-103756900D01*
X92744815Y-103756900D01*
X92753685Y-103756900D01*
X92886259Y-103717973D01*
X92947762Y-103678446D01*
X92991333Y-103661004D01*
X93038267Y-103661004D01*
X93081837Y-103678446D01*
X93143341Y-103717973D01*
X93275915Y-103756900D01*
X93405215Y-103756900D01*
X93414085Y-103756900D01*
X93546659Y-103717973D01*
X93578711Y-103697373D01*
X93636904Y-103678004D01*
X93696273Y-103688715D01*
X93702267Y-103692567D01*
X93834841Y-103731494D01*
X93964141Y-103731494D01*
X93973011Y-103731494D01*
X94105585Y-103692567D01*
X94221822Y-103617866D01*
X94312305Y-103513443D01*
X94369703Y-103387759D01*
X94389367Y-103250994D01*
X94369703Y-103114229D01*
X94312305Y-102988545D01*
X94221822Y-102884122D01*
X94214362Y-102879327D01*
X94214360Y-102879326D01*
X94113050Y-102814218D01*
X94113047Y-102814216D01*
X94105585Y-102809421D01*
X94097074Y-102806922D01*
X94097072Y-102806921D01*
X94017496Y-102783556D01*
X93973011Y-102770494D01*
X93834841Y-102770494D01*
X93826330Y-102772992D01*
X93826330Y-102772993D01*
X93710775Y-102806922D01*
X93710769Y-102806924D01*
X93702267Y-102809421D01*
X93694810Y-102814213D01*
X93694806Y-102814215D01*
X93670209Y-102830022D01*
X93612019Y-102849388D01*
X93552651Y-102838677D01*
X93546659Y-102834827D01*
X93538153Y-102832329D01*
X93538150Y-102832328D01*
X93440217Y-102803573D01*
X93414085Y-102795900D01*
X93275915Y-102795900D01*
X93267409Y-102798397D01*
X93267405Y-102798398D01*
X93213224Y-102814307D01*
X93150202Y-102816106D01*
X93094442Y-102786682D01*
X93060358Y-102733642D01*
X93056762Y-102670697D01*
X93082379Y-102618600D01*
X93082375Y-102618598D01*
X93082400Y-102618558D01*
X93084581Y-102614123D01*
X93092979Y-102604432D01*
X93150377Y-102478748D01*
X93166109Y-102369325D01*
X93187841Y-102315045D01*
X93232028Y-102276756D01*
X93288848Y-102262972D01*
X94846074Y-102262972D01*
X94902894Y-102276756D01*
X94947081Y-102315045D01*
X94968812Y-102369325D01*
X94985705Y-102486820D01*
X94987423Y-102498765D01*
X94991108Y-102506834D01*
X94991109Y-102506837D01*
X95041135Y-102616379D01*
X95041136Y-102616381D01*
X95044821Y-102624449D01*
X95135304Y-102728872D01*
X95142764Y-102733666D01*
X95142765Y-102733667D01*
X95243488Y-102798398D01*
X95251541Y-102803573D01*
X95384115Y-102842500D01*
X95513415Y-102842500D01*
X95522285Y-102842500D01*
X95654859Y-102803573D01*
X95771096Y-102728872D01*
X95861579Y-102624449D01*
X95918977Y-102498765D01*
X95937587Y-102369325D01*
X95959319Y-102315045D01*
X96003506Y-102276756D01*
X96060326Y-102262972D01*
X97031000Y-102262972D01*
X97093000Y-102279585D01*
X97138387Y-102324972D01*
X97155000Y-102386972D01*
X97155000Y-105221186D01*
X97139973Y-105280354D01*
X97098535Y-105325181D01*
X97040729Y-105344804D01*
X96980565Y-105334466D01*
X96932624Y-105296673D01*
X96862761Y-105205626D01*
X96862760Y-105205625D01*
X96857817Y-105199183D01*
X96765484Y-105128332D01*
X96743004Y-105111082D01*
X96743001Y-105111080D01*
X96736555Y-105106134D01*
X96706147Y-105093538D01*
X96602853Y-105050753D01*
X96602849Y-105050752D01*
X96595341Y-105047642D01*
X96587281Y-105046580D01*
X96587278Y-105046580D01*
X96451859Y-105028752D01*
X96443800Y-105027691D01*
X96435741Y-105028752D01*
X96300318Y-105046580D01*
X96300310Y-105046581D01*
X96292259Y-105047642D01*
X96284753Y-105050750D01*
X96284749Y-105050752D01*
X96158555Y-105103023D01*
X96158550Y-105103025D01*
X96151046Y-105106134D01*
X96144604Y-105111076D01*
X96144599Y-105111080D01*
X96036225Y-105194239D01*
X96036221Y-105194242D01*
X96029783Y-105199183D01*
X96024842Y-105205621D01*
X96024839Y-105205625D01*
X95941680Y-105313999D01*
X95941676Y-105314004D01*
X95936734Y-105320446D01*
X95933625Y-105327950D01*
X95933623Y-105327955D01*
X95881352Y-105454149D01*
X95881350Y-105454153D01*
X95878242Y-105461659D01*
X95877181Y-105469710D01*
X95877180Y-105469718D01*
X95862290Y-105582824D01*
X95858291Y-105613200D01*
X95859352Y-105621259D01*
X95876877Y-105754379D01*
X95878242Y-105764741D01*
X95881352Y-105772249D01*
X95881353Y-105772253D01*
X95922532Y-105871667D01*
X95936734Y-105905955D01*
X95941680Y-105912401D01*
X95941682Y-105912404D01*
X96016439Y-106009827D01*
X96029783Y-106027217D01*
X96151045Y-106120266D01*
X96292259Y-106178758D01*
X96443800Y-106198709D01*
X96595341Y-106178758D01*
X96736555Y-106120266D01*
X96857817Y-106027217D01*
X96932624Y-105929727D01*
X96980565Y-105891934D01*
X97040730Y-105881596D01*
X97098536Y-105901219D01*
X97139973Y-105946046D01*
X97155000Y-106005214D01*
X97155000Y-109793202D01*
X97140670Y-109851069D01*
X97100991Y-109895561D01*
X97045135Y-109916394D01*
X96986012Y-109908753D01*
X96937287Y-109874405D01*
X96894502Y-109825029D01*
X96888696Y-109818328D01*
X96881236Y-109813533D01*
X96881234Y-109813532D01*
X96779924Y-109748424D01*
X96779921Y-109748422D01*
X96772459Y-109743627D01*
X96763948Y-109741128D01*
X96763946Y-109741127D01*
X96684265Y-109717731D01*
X96639885Y-109704700D01*
X96501715Y-109704700D01*
X96493207Y-109707198D01*
X96493201Y-109707199D01*
X96427491Y-109726493D01*
X96380769Y-109730954D01*
X96335736Y-109717731D01*
X96298845Y-109688719D01*
X96279096Y-109665928D01*
X96271636Y-109661133D01*
X96271634Y-109661132D01*
X96170324Y-109596024D01*
X96170321Y-109596022D01*
X96162859Y-109591227D01*
X96154348Y-109588728D01*
X96154346Y-109588727D01*
X96051819Y-109558623D01*
X96030285Y-109552300D01*
X95892115Y-109552300D01*
X95883604Y-109554798D01*
X95883604Y-109554799D01*
X95768053Y-109588727D01*
X95768048Y-109588728D01*
X95759541Y-109591227D01*
X95752080Y-109596021D01*
X95752075Y-109596024D01*
X95650765Y-109661132D01*
X95650760Y-109661136D01*
X95643304Y-109665928D01*
X95637499Y-109672627D01*
X95637497Y-109672629D01*
X95558628Y-109763648D01*
X95558624Y-109763653D01*
X95552821Y-109770351D01*
X95549138Y-109778414D01*
X95549135Y-109778420D01*
X95499109Y-109887962D01*
X95499107Y-109887967D01*
X95495423Y-109896035D01*
X95475759Y-110032800D01*
X95495423Y-110169565D01*
X95499108Y-110177634D01*
X95499109Y-110177637D01*
X95549135Y-110287179D01*
X95549136Y-110287181D01*
X95552821Y-110295249D01*
X95558627Y-110301949D01*
X95558628Y-110301951D01*
X95598062Y-110347460D01*
X95643304Y-110399672D01*
X95650764Y-110404466D01*
X95650765Y-110404467D01*
X95744948Y-110464995D01*
X95759541Y-110474373D01*
X95892115Y-110513300D01*
X96021415Y-110513300D01*
X96030285Y-110513300D01*
X96104510Y-110491505D01*
X96151229Y-110487044D01*
X96196263Y-110500268D01*
X96233154Y-110529279D01*
X96252904Y-110552072D01*
X96369141Y-110626773D01*
X96501715Y-110665700D01*
X96631015Y-110665700D01*
X96639885Y-110665700D01*
X96772459Y-110626773D01*
X96888696Y-110552072D01*
X96937286Y-110495995D01*
X96986012Y-110461647D01*
X97045135Y-110454006D01*
X97100991Y-110474839D01*
X97140670Y-110519331D01*
X97155000Y-110577198D01*
X97155000Y-112779000D01*
X97138387Y-112841000D01*
X97093000Y-112886387D01*
X97031000Y-112903000D01*
X86348263Y-112903000D01*
X86282720Y-112884262D01*
X86236986Y-112833711D01*
X86224882Y-112766626D01*
X86250067Y-112703280D01*
X86304929Y-112662818D01*
X86451437Y-112608173D01*
X86558161Y-112568367D01*
X86809315Y-112431226D01*
X87038395Y-112259739D01*
X87240739Y-112057395D01*
X87412226Y-111828315D01*
X87549367Y-111577161D01*
X87649369Y-111309046D01*
X87710196Y-111029428D01*
X87730610Y-110744000D01*
X87710196Y-110458572D01*
X87649369Y-110178954D01*
X87563338Y-109948298D01*
X87557762Y-109881500D01*
X87587768Y-109821556D01*
X87644585Y-109785990D01*
X87676659Y-109776573D01*
X87792896Y-109701872D01*
X87883379Y-109597449D01*
X87940777Y-109471765D01*
X87950031Y-109407400D01*
X91827950Y-109407400D01*
X91829011Y-109415459D01*
X91837486Y-109479837D01*
X91846870Y-109551109D01*
X91849981Y-109558620D01*
X91849982Y-109558623D01*
X91863487Y-109591227D01*
X91902339Y-109685025D01*
X91907284Y-109691469D01*
X91907285Y-109691471D01*
X91985635Y-109793578D01*
X91990579Y-109800021D01*
X92105575Y-109888261D01*
X92239491Y-109943730D01*
X92383200Y-109962650D01*
X92526909Y-109943730D01*
X92635750Y-109898647D01*
X92683199Y-109889209D01*
X92730651Y-109898648D01*
X92760084Y-109910839D01*
X92839491Y-109943730D01*
X92983200Y-109962650D01*
X93126909Y-109943730D01*
X93235750Y-109898647D01*
X93283199Y-109889209D01*
X93330651Y-109898648D01*
X93360084Y-109910839D01*
X93439491Y-109943730D01*
X93583200Y-109962650D01*
X93726909Y-109943730D01*
X93860825Y-109888261D01*
X93975821Y-109800021D01*
X94064061Y-109685025D01*
X94119530Y-109551109D01*
X94138450Y-109407400D01*
X94119530Y-109263691D01*
X94096055Y-109207017D01*
X94074448Y-109154851D01*
X94065009Y-109107399D01*
X94074448Y-109059947D01*
X94119530Y-108951109D01*
X94138450Y-108807400D01*
X94119530Y-108663691D01*
X94099272Y-108614784D01*
X94074448Y-108554851D01*
X94065009Y-108507399D01*
X94074448Y-108459947D01*
X94088923Y-108425000D01*
X95664491Y-108425000D01*
X95665552Y-108433059D01*
X95672393Y-108485025D01*
X95684442Y-108576541D01*
X95687552Y-108584049D01*
X95687553Y-108584053D01*
X95717427Y-108656176D01*
X95742934Y-108717755D01*
X95747880Y-108724201D01*
X95747882Y-108724204D01*
X95774189Y-108758487D01*
X95835983Y-108839017D01*
X95842430Y-108843964D01*
X95939024Y-108918085D01*
X95957245Y-108932066D01*
X96098459Y-108990558D01*
X96250000Y-109010509D01*
X96401541Y-108990558D01*
X96542755Y-108932066D01*
X96664017Y-108839017D01*
X96757066Y-108717755D01*
X96815558Y-108576541D01*
X96835509Y-108425000D01*
X96815558Y-108273459D01*
X96757066Y-108132246D01*
X96664017Y-108010983D01*
X96651899Y-108001685D01*
X96549204Y-107922882D01*
X96549201Y-107922880D01*
X96542755Y-107917934D01*
X96486421Y-107894600D01*
X96409053Y-107862553D01*
X96409049Y-107862552D01*
X96401541Y-107859442D01*
X96393481Y-107858380D01*
X96393478Y-107858380D01*
X96258059Y-107840552D01*
X96250000Y-107839491D01*
X96241941Y-107840552D01*
X96106518Y-107858380D01*
X96106510Y-107858381D01*
X96098459Y-107859442D01*
X96090953Y-107862550D01*
X96090949Y-107862552D01*
X95964755Y-107914823D01*
X95964750Y-107914825D01*
X95957246Y-107917934D01*
X95950804Y-107922876D01*
X95950799Y-107922880D01*
X95842425Y-108006039D01*
X95842421Y-108006042D01*
X95835983Y-108010983D01*
X95831042Y-108017421D01*
X95831039Y-108017425D01*
X95747880Y-108125799D01*
X95747876Y-108125804D01*
X95742934Y-108132246D01*
X95739825Y-108139750D01*
X95739823Y-108139755D01*
X95687552Y-108265949D01*
X95687550Y-108265953D01*
X95684442Y-108273459D01*
X95683381Y-108281510D01*
X95683380Y-108281518D01*
X95665552Y-108416941D01*
X95664491Y-108425000D01*
X94088923Y-108425000D01*
X94119530Y-108351109D01*
X94138450Y-108207400D01*
X94119530Y-108063691D01*
X94064061Y-107929775D01*
X93975821Y-107814779D01*
X93860825Y-107726539D01*
X93762353Y-107685751D01*
X93734423Y-107674182D01*
X93734420Y-107674181D01*
X93726909Y-107671070D01*
X93718849Y-107670008D01*
X93718846Y-107670008D01*
X93591259Y-107653211D01*
X93583200Y-107652150D01*
X93575141Y-107653211D01*
X93447553Y-107670008D01*
X93447548Y-107670009D01*
X93439491Y-107671070D01*
X93431980Y-107674180D01*
X93431980Y-107674181D01*
X93330651Y-107716152D01*
X93283200Y-107725590D01*
X93235749Y-107716152D01*
X93182494Y-107694093D01*
X93126909Y-107671070D01*
X93118849Y-107670008D01*
X93118846Y-107670008D01*
X92991259Y-107653211D01*
X92983200Y-107652150D01*
X92975141Y-107653211D01*
X92847553Y-107670008D01*
X92847548Y-107670009D01*
X92839491Y-107671070D01*
X92831980Y-107674180D01*
X92831980Y-107674181D01*
X92730651Y-107716152D01*
X92683200Y-107725590D01*
X92635749Y-107716152D01*
X92582494Y-107694093D01*
X92526909Y-107671070D01*
X92518849Y-107670008D01*
X92518846Y-107670008D01*
X92391259Y-107653211D01*
X92383200Y-107652150D01*
X92375141Y-107653211D01*
X92247553Y-107670008D01*
X92247548Y-107670009D01*
X92239491Y-107671070D01*
X92231981Y-107674180D01*
X92231976Y-107674182D01*
X92113085Y-107723428D01*
X92113083Y-107723429D01*
X92105575Y-107726539D01*
X92099133Y-107731482D01*
X92099128Y-107731485D01*
X91997021Y-107809835D01*
X91997017Y-107809838D01*
X91990579Y-107814779D01*
X91985638Y-107821217D01*
X91985635Y-107821221D01*
X91907285Y-107923328D01*
X91907282Y-107923333D01*
X91902339Y-107929775D01*
X91899229Y-107937283D01*
X91899228Y-107937285D01*
X91849982Y-108056176D01*
X91849980Y-108056181D01*
X91846870Y-108063691D01*
X91845809Y-108071748D01*
X91845808Y-108071753D01*
X91838693Y-108125799D01*
X91827950Y-108207400D01*
X91846870Y-108351109D01*
X91849981Y-108358620D01*
X91849982Y-108358623D01*
X91891951Y-108459947D01*
X91901390Y-108507399D01*
X91891952Y-108554850D01*
X91849983Y-108656176D01*
X91846870Y-108663691D01*
X91845809Y-108671748D01*
X91845808Y-108671753D01*
X91834348Y-108758804D01*
X91827950Y-108807400D01*
X91829011Y-108815459D01*
X91845563Y-108941187D01*
X91846870Y-108951109D01*
X91849981Y-108958620D01*
X91849982Y-108958623D01*
X91891951Y-109059947D01*
X91901390Y-109107399D01*
X91891952Y-109154850D01*
X91861545Y-109228261D01*
X91846870Y-109263691D01*
X91845809Y-109271748D01*
X91845808Y-109271753D01*
X91838637Y-109326223D01*
X91827950Y-109407400D01*
X87950031Y-109407400D01*
X87960441Y-109335000D01*
X87940777Y-109198235D01*
X87883379Y-109072551D01*
X87792896Y-108968128D01*
X87785436Y-108963333D01*
X87785434Y-108963332D01*
X87684124Y-108898224D01*
X87684121Y-108898222D01*
X87676659Y-108893427D01*
X87668148Y-108890928D01*
X87668146Y-108890927D01*
X87599391Y-108870739D01*
X87544085Y-108854500D01*
X87405915Y-108854500D01*
X87397404Y-108856998D01*
X87397404Y-108856999D01*
X87281853Y-108890927D01*
X87281848Y-108890928D01*
X87273341Y-108893427D01*
X87265880Y-108898221D01*
X87265875Y-108898224D01*
X87164565Y-108963332D01*
X87164560Y-108963336D01*
X87157104Y-108968128D01*
X87151299Y-108974827D01*
X87151297Y-108974829D01*
X87082135Y-109054647D01*
X87066621Y-109072551D01*
X87062936Y-109080619D01*
X87062907Y-109080665D01*
X87012773Y-109125162D01*
X86946804Y-109137065D01*
X86884283Y-109112894D01*
X86809315Y-109056774D01*
X86805420Y-109054647D01*
X86562050Y-108921756D01*
X86562043Y-108921753D01*
X86558161Y-108919633D01*
X86554017Y-108918087D01*
X86554012Y-108918085D01*
X86294189Y-108821176D01*
X86294185Y-108821175D01*
X86290046Y-108819631D01*
X86233821Y-108807400D01*
X86014761Y-108759746D01*
X86014753Y-108759744D01*
X86010428Y-108758804D01*
X86006014Y-108758488D01*
X86006005Y-108758487D01*
X85729418Y-108738706D01*
X85725000Y-108738390D01*
X85720582Y-108738706D01*
X85443994Y-108758487D01*
X85443983Y-108758488D01*
X85439572Y-108758804D01*
X85435248Y-108759744D01*
X85435238Y-108759746D01*
X85164279Y-108818690D01*
X85164276Y-108818690D01*
X85159954Y-108819631D01*
X85155818Y-108821173D01*
X85155810Y-108821176D01*
X84895987Y-108918085D01*
X84895976Y-108918089D01*
X84891839Y-108919633D01*
X84887961Y-108921750D01*
X84887949Y-108921756D01*
X84765427Y-108988659D01*
X84703787Y-109003807D01*
X84642726Y-108986469D01*
X84598246Y-108941187D01*
X84582000Y-108879827D01*
X84582000Y-106451400D01*
X86839759Y-106451400D01*
X86859423Y-106588165D01*
X86863108Y-106596234D01*
X86863109Y-106596237D01*
X86913135Y-106705779D01*
X86913136Y-106705781D01*
X86916821Y-106713849D01*
X87007304Y-106818272D01*
X87123541Y-106892973D01*
X87256115Y-106931900D01*
X87255272Y-106934769D01*
X87300795Y-106954575D01*
X87339182Y-107007792D01*
X87345036Y-107073148D01*
X87316719Y-107132340D01*
X87303631Y-107147444D01*
X87303626Y-107147451D01*
X87297821Y-107154151D01*
X87294138Y-107162214D01*
X87294135Y-107162220D01*
X87244109Y-107271762D01*
X87244107Y-107271767D01*
X87240423Y-107279835D01*
X87220759Y-107416600D01*
X87240423Y-107553365D01*
X87244108Y-107561434D01*
X87244109Y-107561437D01*
X87294135Y-107670979D01*
X87294136Y-107670981D01*
X87297821Y-107679049D01*
X87388304Y-107783472D01*
X87395764Y-107788266D01*
X87395765Y-107788267D01*
X87447042Y-107821221D01*
X87504541Y-107858173D01*
X87637115Y-107897100D01*
X87766415Y-107897100D01*
X87775285Y-107897100D01*
X87907859Y-107858173D01*
X88024096Y-107783472D01*
X88114579Y-107679049D01*
X88171977Y-107553365D01*
X88191641Y-107416600D01*
X88171977Y-107279835D01*
X88114579Y-107154151D01*
X88108767Y-107147444D01*
X88086144Y-107121336D01*
X88024096Y-107049728D01*
X88016636Y-107044933D01*
X88016634Y-107044932D01*
X87915324Y-106979824D01*
X87915321Y-106979822D01*
X87907859Y-106975027D01*
X87899348Y-106972528D01*
X87899346Y-106972527D01*
X87775285Y-106936100D01*
X87776125Y-106933237D01*
X87730569Y-106913396D01*
X87692206Y-106860177D01*
X87686366Y-106794833D01*
X87714682Y-106735656D01*
X87733579Y-106713849D01*
X87790977Y-106588165D01*
X87810641Y-106451400D01*
X87790977Y-106314635D01*
X87733579Y-106188951D01*
X87643096Y-106084528D01*
X87635636Y-106079733D01*
X87635634Y-106079732D01*
X87542067Y-106019600D01*
X89379759Y-106019600D01*
X89399423Y-106156365D01*
X89403108Y-106164434D01*
X89403109Y-106164437D01*
X89453135Y-106273979D01*
X89453136Y-106273981D01*
X89456821Y-106282049D01*
X89462627Y-106288749D01*
X89462628Y-106288751D01*
X89502062Y-106334260D01*
X89547304Y-106386472D01*
X89554764Y-106391266D01*
X89554765Y-106391267D01*
X89634676Y-106442623D01*
X89663541Y-106461173D01*
X89796115Y-106500100D01*
X89925415Y-106500100D01*
X89934285Y-106500100D01*
X90066859Y-106461173D01*
X90183096Y-106386472D01*
X90273579Y-106282049D01*
X90274228Y-106280626D01*
X90316039Y-106241697D01*
X90375467Y-106226527D01*
X90434896Y-106241695D01*
X90479786Y-106283489D01*
X90481834Y-106286676D01*
X90485521Y-106294749D01*
X90576004Y-106399172D01*
X90583464Y-106403966D01*
X90583465Y-106403967D01*
X90670929Y-106460177D01*
X90692241Y-106473873D01*
X90824815Y-106512800D01*
X90954115Y-106512800D01*
X90962985Y-106512800D01*
X91095559Y-106473873D01*
X91211796Y-106399172D01*
X91302279Y-106294749D01*
X91359677Y-106169065D01*
X91379341Y-106032300D01*
X91359677Y-105895535D01*
X91302279Y-105769851D01*
X91291274Y-105757151D01*
X91217602Y-105672129D01*
X91211796Y-105665428D01*
X91204336Y-105660633D01*
X91204334Y-105660632D01*
X91103024Y-105595524D01*
X91103021Y-105595522D01*
X91095559Y-105590727D01*
X91087048Y-105588228D01*
X91087046Y-105588227D01*
X91018291Y-105568039D01*
X90962985Y-105551800D01*
X90824815Y-105551800D01*
X90816304Y-105554298D01*
X90816304Y-105554299D01*
X90700753Y-105588227D01*
X90700748Y-105588228D01*
X90692241Y-105590727D01*
X90684780Y-105595521D01*
X90684775Y-105595524D01*
X90583465Y-105660632D01*
X90583460Y-105660636D01*
X90576004Y-105665428D01*
X90570199Y-105672127D01*
X90570197Y-105672129D01*
X90491327Y-105763149D01*
X90491323Y-105763154D01*
X90485521Y-105769851D01*
X90484869Y-105771277D01*
X90443053Y-105810207D01*
X90383626Y-105825372D01*
X90324200Y-105810202D01*
X90279313Y-105768409D01*
X90277264Y-105765220D01*
X90273579Y-105757151D01*
X90183096Y-105652728D01*
X90175636Y-105647933D01*
X90175634Y-105647932D01*
X90074324Y-105582824D01*
X90074321Y-105582822D01*
X90066859Y-105578027D01*
X90058348Y-105575528D01*
X90058346Y-105575527D01*
X89977537Y-105551800D01*
X89934285Y-105539100D01*
X89796115Y-105539100D01*
X89787604Y-105541598D01*
X89787604Y-105541599D01*
X89672053Y-105575527D01*
X89672048Y-105575528D01*
X89663541Y-105578027D01*
X89656080Y-105582821D01*
X89656075Y-105582824D01*
X89554765Y-105647932D01*
X89554760Y-105647936D01*
X89547304Y-105652728D01*
X89541499Y-105659427D01*
X89541497Y-105659429D01*
X89462628Y-105750448D01*
X89462624Y-105750453D01*
X89456821Y-105757151D01*
X89453138Y-105765214D01*
X89453135Y-105765220D01*
X89403109Y-105874762D01*
X89403107Y-105874767D01*
X89399423Y-105882835D01*
X89398160Y-105891614D01*
X89398160Y-105891617D01*
X89386761Y-105970900D01*
X89379759Y-106019600D01*
X87542067Y-106019600D01*
X87534324Y-106014624D01*
X87534321Y-106014622D01*
X87526859Y-106009827D01*
X87518348Y-106007328D01*
X87518346Y-106007327D01*
X87440381Y-105984435D01*
X87394285Y-105970900D01*
X87256115Y-105970900D01*
X87247604Y-105973398D01*
X87247604Y-105973399D01*
X87132053Y-106007327D01*
X87132048Y-106007328D01*
X87123541Y-106009827D01*
X87116080Y-106014621D01*
X87116075Y-106014624D01*
X87014765Y-106079732D01*
X87014760Y-106079736D01*
X87007304Y-106084528D01*
X87001499Y-106091227D01*
X87001497Y-106091229D01*
X86922628Y-106182248D01*
X86922624Y-106182253D01*
X86916821Y-106188951D01*
X86913138Y-106197014D01*
X86913135Y-106197020D01*
X86863109Y-106306562D01*
X86863107Y-106306567D01*
X86859423Y-106314635D01*
X86839759Y-106451400D01*
X84582000Y-106451400D01*
X84582000Y-105500000D01*
X87830359Y-105500000D01*
X87831621Y-105508777D01*
X87847793Y-105621259D01*
X87850023Y-105636765D01*
X87853708Y-105644834D01*
X87853709Y-105644837D01*
X87903735Y-105754379D01*
X87903736Y-105754381D01*
X87907421Y-105762449D01*
X87913227Y-105769149D01*
X87913228Y-105769151D01*
X87952662Y-105814660D01*
X87997904Y-105866872D01*
X88005364Y-105871666D01*
X88005365Y-105871667D01*
X88056169Y-105904317D01*
X88114141Y-105941573D01*
X88246715Y-105980500D01*
X88376015Y-105980500D01*
X88384885Y-105980500D01*
X88517459Y-105941573D01*
X88633696Y-105866872D01*
X88724179Y-105762449D01*
X88781577Y-105636765D01*
X88801241Y-105500000D01*
X88781577Y-105363235D01*
X88724179Y-105237551D01*
X88633696Y-105133128D01*
X88626236Y-105128333D01*
X88626234Y-105128332D01*
X88524924Y-105063224D01*
X88524921Y-105063222D01*
X88517459Y-105058427D01*
X88508948Y-105055928D01*
X88508946Y-105055927D01*
X88440191Y-105035739D01*
X88384885Y-105019500D01*
X88246715Y-105019500D01*
X88238204Y-105021998D01*
X88238204Y-105021999D01*
X88122653Y-105055927D01*
X88122648Y-105055928D01*
X88114141Y-105058427D01*
X88106680Y-105063221D01*
X88106675Y-105063224D01*
X88005365Y-105128332D01*
X88005360Y-105128336D01*
X87997904Y-105133128D01*
X87992099Y-105139827D01*
X87992097Y-105139829D01*
X87913228Y-105230848D01*
X87913224Y-105230853D01*
X87907421Y-105237551D01*
X87903738Y-105245614D01*
X87903735Y-105245620D01*
X87853709Y-105355162D01*
X87853707Y-105355167D01*
X87850023Y-105363235D01*
X87830359Y-105500000D01*
X84582000Y-105500000D01*
X84582000Y-101927200D01*
X84598613Y-101865200D01*
X84644000Y-101819813D01*
X84706000Y-101803200D01*
X85838893Y-101803200D01*
X85890405Y-101814406D01*
G37*
G04 #@! TD.AperFunction*
G04 #@! TA.AperFunction,Conductor*
G36*
X153280904Y-104610399D02*
G01*
X153326636Y-104660857D01*
X153338826Y-104727856D01*
X153313797Y-104791188D01*
X153307884Y-104798893D01*
X153307879Y-104798901D01*
X153302934Y-104805346D01*
X153299825Y-104812850D01*
X153299823Y-104812855D01*
X153247552Y-104939049D01*
X153247550Y-104939053D01*
X153244442Y-104946559D01*
X153243381Y-104954610D01*
X153243380Y-104954618D01*
X153225552Y-105090041D01*
X153224491Y-105098100D01*
X153244442Y-105249641D01*
X153247552Y-105257149D01*
X153247553Y-105257153D01*
X153290338Y-105360447D01*
X153302934Y-105390855D01*
X153307880Y-105397301D01*
X153307882Y-105397304D01*
X153391035Y-105505669D01*
X153395983Y-105512117D01*
X153517245Y-105605166D01*
X153658459Y-105663658D01*
X153810000Y-105683609D01*
X153961541Y-105663658D01*
X154102755Y-105605166D01*
X154224017Y-105512117D01*
X154317066Y-105390855D01*
X154375558Y-105249641D01*
X154395509Y-105098100D01*
X154375558Y-104946559D01*
X154317066Y-104805346D01*
X154312116Y-104798896D01*
X154312115Y-104798893D01*
X154306203Y-104791188D01*
X154281174Y-104727856D01*
X154293364Y-104660857D01*
X154339096Y-104610399D01*
X154404577Y-104591700D01*
X161928000Y-104591700D01*
X161990000Y-104608313D01*
X162035387Y-104653700D01*
X162052000Y-104715700D01*
X162052000Y-106609492D01*
X162038215Y-106666312D01*
X161999927Y-106710500D01*
X161945646Y-106732230D01*
X161940984Y-106732900D01*
X161932115Y-106732900D01*
X161923610Y-106735397D01*
X161923604Y-106735398D01*
X161808053Y-106769327D01*
X161808048Y-106769328D01*
X161799541Y-106771827D01*
X161792076Y-106776624D01*
X161792077Y-106776624D01*
X161728504Y-106817479D01*
X161673252Y-106836602D01*
X161615380Y-106828281D01*
X161567753Y-106794366D01*
X161533840Y-106755229D01*
X161480896Y-106694128D01*
X161473436Y-106689333D01*
X161473434Y-106689332D01*
X161372124Y-106624224D01*
X161372121Y-106624222D01*
X161364659Y-106619427D01*
X161356148Y-106616928D01*
X161356146Y-106616927D01*
X161287391Y-106596739D01*
X161232085Y-106580500D01*
X161093915Y-106580500D01*
X161085404Y-106582998D01*
X161085404Y-106582999D01*
X160969849Y-106616928D01*
X160969843Y-106616930D01*
X160961341Y-106619427D01*
X160953885Y-106624218D01*
X160953882Y-106624220D01*
X160912538Y-106650790D01*
X160845500Y-106670473D01*
X160778462Y-106650790D01*
X160737117Y-106624220D01*
X160729659Y-106619427D01*
X160721153Y-106616929D01*
X160721150Y-106616928D01*
X160642202Y-106593747D01*
X160597085Y-106580500D01*
X160458915Y-106580500D01*
X160450404Y-106582998D01*
X160450404Y-106582999D01*
X160334853Y-106616927D01*
X160334848Y-106616928D01*
X160326341Y-106619427D01*
X160318880Y-106624221D01*
X160318875Y-106624224D01*
X160217565Y-106689332D01*
X160217560Y-106689336D01*
X160210104Y-106694128D01*
X160204299Y-106700827D01*
X160204297Y-106700829D01*
X160125428Y-106791848D01*
X160125424Y-106791853D01*
X160119621Y-106798551D01*
X160115938Y-106806614D01*
X160115935Y-106806620D01*
X160065909Y-106916162D01*
X160065907Y-106916167D01*
X160062223Y-106924235D01*
X160042559Y-107061000D01*
X160062223Y-107197765D01*
X160065908Y-107205834D01*
X160065909Y-107205837D01*
X160115935Y-107315379D01*
X160115936Y-107315381D01*
X160119621Y-107323449D01*
X160125428Y-107330151D01*
X160125431Y-107330155D01*
X160184514Y-107398341D01*
X160209131Y-107446915D01*
X160212203Y-107446418D01*
X160268921Y-107465671D01*
X160326341Y-107502573D01*
X160458915Y-107541500D01*
X160588215Y-107541500D01*
X160597085Y-107541500D01*
X160729659Y-107502573D01*
X160778460Y-107471210D01*
X160822030Y-107453766D01*
X160868965Y-107453766D01*
X160912537Y-107471208D01*
X160961341Y-107502573D01*
X161093915Y-107541500D01*
X161223215Y-107541500D01*
X161232085Y-107541500D01*
X161364659Y-107502573D01*
X161435697Y-107456919D01*
X161490945Y-107437798D01*
X161548819Y-107446118D01*
X161596446Y-107480033D01*
X161615977Y-107502573D01*
X161683304Y-107580272D01*
X161690764Y-107585066D01*
X161690765Y-107585067D01*
X161724031Y-107606446D01*
X161799541Y-107654973D01*
X161932115Y-107693900D01*
X161940986Y-107693900D01*
X161945646Y-107694570D01*
X161999927Y-107716300D01*
X162038215Y-107760488D01*
X162052000Y-107817308D01*
X162052000Y-109434244D01*
X162040794Y-109485755D01*
X161996309Y-109583162D01*
X161996307Y-109583167D01*
X161992623Y-109591235D01*
X161991360Y-109600014D01*
X161991360Y-109600017D01*
X161988224Y-109621829D01*
X161972959Y-109728000D01*
X161974221Y-109736777D01*
X161974221Y-109736779D01*
X161981955Y-109790572D01*
X161972011Y-109859729D01*
X161926257Y-109912533D01*
X161843163Y-109965934D01*
X161843161Y-109965935D01*
X161835704Y-109970728D01*
X161829899Y-109977427D01*
X161829897Y-109977429D01*
X161751028Y-110068448D01*
X161751024Y-110068453D01*
X161745221Y-110075151D01*
X161741538Y-110083214D01*
X161741535Y-110083220D01*
X161691509Y-110192762D01*
X161691507Y-110192767D01*
X161687823Y-110200835D01*
X161686560Y-110209614D01*
X161686560Y-110209617D01*
X161671586Y-110313758D01*
X161668159Y-110337600D01*
X161669421Y-110346377D01*
X161685757Y-110460000D01*
X161687823Y-110474365D01*
X161691508Y-110482434D01*
X161691509Y-110482437D01*
X161741535Y-110591979D01*
X161741536Y-110591981D01*
X161745221Y-110600049D01*
X161751027Y-110606749D01*
X161751028Y-110606751D01*
X161777689Y-110637519D01*
X161835704Y-110704472D01*
X161843164Y-110709266D01*
X161843165Y-110709267D01*
X161920437Y-110758927D01*
X161951941Y-110779173D01*
X161962937Y-110782401D01*
X161967471Y-110784877D01*
X161968519Y-110785356D01*
X161968484Y-110785430D01*
X162009202Y-110807664D01*
X162040794Y-110849866D01*
X162052000Y-110901378D01*
X162052000Y-112188570D01*
X162050738Y-112206217D01*
X162049159Y-112217200D01*
X162050421Y-112225977D01*
X162050421Y-112225978D01*
X162050738Y-112228183D01*
X162052000Y-112245830D01*
X162052000Y-115700000D01*
X162035387Y-115762000D01*
X161990000Y-115807387D01*
X161928000Y-115824000D01*
X148968000Y-115824000D01*
X148906000Y-115807387D01*
X148860613Y-115762000D01*
X148844000Y-115700000D01*
X148844000Y-114960400D01*
X157248559Y-114960400D01*
X157268223Y-115097165D01*
X157271908Y-115105234D01*
X157271909Y-115105237D01*
X157321935Y-115214779D01*
X157321936Y-115214781D01*
X157325621Y-115222849D01*
X157416104Y-115327272D01*
X157532341Y-115401973D01*
X157664915Y-115440900D01*
X157794215Y-115440900D01*
X157803085Y-115440900D01*
X157935659Y-115401973D01*
X158051896Y-115327272D01*
X158142379Y-115222849D01*
X158199777Y-115097165D01*
X158219441Y-114960400D01*
X158199777Y-114823635D01*
X158142379Y-114697951D01*
X158051896Y-114593528D01*
X158044436Y-114588733D01*
X158044434Y-114588732D01*
X157943124Y-114523624D01*
X157943121Y-114523622D01*
X157935659Y-114518827D01*
X157927148Y-114516328D01*
X157927146Y-114516327D01*
X157858391Y-114496139D01*
X157803085Y-114479900D01*
X157664915Y-114479900D01*
X157656404Y-114482398D01*
X157656404Y-114482399D01*
X157540853Y-114516327D01*
X157540848Y-114516328D01*
X157532341Y-114518827D01*
X157524880Y-114523621D01*
X157524875Y-114523624D01*
X157423565Y-114588732D01*
X157423560Y-114588736D01*
X157416104Y-114593528D01*
X157410299Y-114600227D01*
X157410297Y-114600229D01*
X157331428Y-114691248D01*
X157331424Y-114691253D01*
X157325621Y-114697951D01*
X157321938Y-114706014D01*
X157321935Y-114706020D01*
X157271909Y-114815562D01*
X157271907Y-114815567D01*
X157268223Y-114823635D01*
X157248559Y-114960400D01*
X148844000Y-114960400D01*
X148844000Y-113232300D01*
X151829053Y-113232300D01*
X151830315Y-113241077D01*
X151848272Y-113365977D01*
X151848273Y-113365981D01*
X151849535Y-113374757D01*
X151853219Y-113382825D01*
X151853220Y-113382826D01*
X151905637Y-113497603D01*
X151909323Y-113505673D01*
X151915130Y-113512375D01*
X151915131Y-113512376D01*
X151997765Y-113607742D01*
X151997767Y-113607744D01*
X152003572Y-113614443D01*
X152124647Y-113692253D01*
X152262739Y-113732800D01*
X152397790Y-113732800D01*
X152406661Y-113732800D01*
X152544753Y-113692253D01*
X152665828Y-113614443D01*
X152760077Y-113505673D01*
X152771905Y-113479772D01*
X152806206Y-113435290D01*
X152856614Y-113410506D01*
X152912786Y-113410506D01*
X152963194Y-113435290D01*
X152997494Y-113479772D01*
X153005637Y-113497603D01*
X153005638Y-113497605D01*
X153009323Y-113505673D01*
X153015130Y-113512375D01*
X153015131Y-113512376D01*
X153097765Y-113607742D01*
X153097767Y-113607744D01*
X153103572Y-113614443D01*
X153224647Y-113692253D01*
X153362739Y-113732800D01*
X153497790Y-113732800D01*
X153506661Y-113732800D01*
X153644753Y-113692253D01*
X153765828Y-113614443D01*
X153860077Y-113505673D01*
X153871905Y-113479772D01*
X153906206Y-113435290D01*
X153956614Y-113410506D01*
X154012786Y-113410506D01*
X154063194Y-113435290D01*
X154097494Y-113479772D01*
X154105637Y-113497603D01*
X154105638Y-113497605D01*
X154109323Y-113505673D01*
X154115130Y-113512375D01*
X154115131Y-113512376D01*
X154197765Y-113607742D01*
X154197767Y-113607744D01*
X154203572Y-113614443D01*
X154324647Y-113692253D01*
X154462739Y-113732800D01*
X154597790Y-113732800D01*
X154606661Y-113732800D01*
X154744753Y-113692253D01*
X154793539Y-113660900D01*
X155923259Y-113660900D01*
X155942923Y-113797665D01*
X155946608Y-113805734D01*
X155946609Y-113805737D01*
X155996635Y-113915279D01*
X155996636Y-113915281D01*
X156000321Y-113923349D01*
X156090804Y-114027772D01*
X156207041Y-114102473D01*
X156339615Y-114141400D01*
X156468915Y-114141400D01*
X156477785Y-114141400D01*
X156610359Y-114102473D01*
X156726596Y-114027772D01*
X156817079Y-113923349D01*
X156874477Y-113797665D01*
X156894141Y-113660900D01*
X156874477Y-113524135D01*
X156817079Y-113398451D01*
X156726596Y-113294028D01*
X156719136Y-113289233D01*
X156719134Y-113289232D01*
X156617824Y-113224124D01*
X156617821Y-113224122D01*
X156610359Y-113219327D01*
X156601848Y-113216828D01*
X156601846Y-113216827D01*
X156533091Y-113196639D01*
X156477785Y-113180400D01*
X156339615Y-113180400D01*
X156331104Y-113182898D01*
X156331104Y-113182899D01*
X156215553Y-113216827D01*
X156215548Y-113216828D01*
X156207041Y-113219327D01*
X156199580Y-113224121D01*
X156199575Y-113224124D01*
X156098265Y-113289232D01*
X156098260Y-113289236D01*
X156090804Y-113294028D01*
X156084999Y-113300727D01*
X156084997Y-113300729D01*
X156006128Y-113391748D01*
X156006124Y-113391753D01*
X156000321Y-113398451D01*
X155996638Y-113406514D01*
X155996635Y-113406520D01*
X155946609Y-113516062D01*
X155946607Y-113516067D01*
X155942923Y-113524135D01*
X155941660Y-113532914D01*
X155941660Y-113532917D01*
X155929250Y-113619235D01*
X155923259Y-113660900D01*
X154793539Y-113660900D01*
X154865828Y-113614443D01*
X154960077Y-113505673D01*
X155019865Y-113374757D01*
X155040347Y-113232300D01*
X155019865Y-113089843D01*
X154960077Y-112958927D01*
X154865828Y-112850157D01*
X154766955Y-112786615D01*
X154725163Y-112741727D01*
X154709995Y-112682300D01*
X154725163Y-112622873D01*
X154766956Y-112577984D01*
X154865828Y-112514443D01*
X154960077Y-112405673D01*
X155019865Y-112274757D01*
X155040347Y-112132300D01*
X155019865Y-111989843D01*
X154960077Y-111858927D01*
X154865828Y-111750157D01*
X154844888Y-111736700D01*
X154766956Y-111686616D01*
X154725163Y-111641727D01*
X154709995Y-111582300D01*
X154725163Y-111522873D01*
X154766956Y-111477984D01*
X154865828Y-111414443D01*
X154960077Y-111305673D01*
X155019865Y-111174757D01*
X155040347Y-111032300D01*
X155019865Y-110889843D01*
X154960077Y-110758927D01*
X154881031Y-110667702D01*
X154852006Y-110604147D01*
X154861950Y-110534988D01*
X154907705Y-110482184D01*
X154974744Y-110462500D01*
X155000215Y-110462500D01*
X155009085Y-110462500D01*
X155141659Y-110423573D01*
X155257896Y-110348872D01*
X155348379Y-110244449D01*
X155405777Y-110118765D01*
X155412659Y-110070900D01*
X159091591Y-110070900D01*
X159092652Y-110078959D01*
X159109853Y-110209617D01*
X159111542Y-110222441D01*
X159114652Y-110229949D01*
X159114653Y-110229953D01*
X159128163Y-110262569D01*
X159170034Y-110363655D01*
X159174980Y-110370101D01*
X159174982Y-110370104D01*
X159254462Y-110473682D01*
X159263083Y-110484917D01*
X159269530Y-110489864D01*
X159307600Y-110519077D01*
X159384345Y-110577966D01*
X159525559Y-110636458D01*
X159677100Y-110656409D01*
X159828641Y-110636458D01*
X159969855Y-110577966D01*
X160091117Y-110484917D01*
X160184166Y-110363655D01*
X160242658Y-110222441D01*
X160262609Y-110070900D01*
X160242658Y-109919359D01*
X160184166Y-109778146D01*
X160091117Y-109656883D01*
X160084674Y-109651939D01*
X160082315Y-109649580D01*
X160050221Y-109593992D01*
X160050222Y-109529804D01*
X160082317Y-109474216D01*
X160087564Y-109468968D01*
X160094017Y-109464017D01*
X160187066Y-109342755D01*
X160245558Y-109201541D01*
X160265509Y-109050000D01*
X160245558Y-108898459D01*
X160187066Y-108757246D01*
X160094017Y-108635983D01*
X160094017Y-108635982D01*
X160096404Y-108634151D01*
X160072121Y-108592091D01*
X160072122Y-108527902D01*
X160102614Y-108475093D01*
X160104017Y-108474017D01*
X160197066Y-108352755D01*
X160255558Y-108211541D01*
X160275509Y-108060000D01*
X160255558Y-107908459D01*
X160197066Y-107767246D01*
X160104017Y-107645983D01*
X160104016Y-107645983D01*
X160106178Y-107644324D01*
X160083332Y-107606336D01*
X160083038Y-107600855D01*
X160070479Y-107601866D01*
X160015315Y-107577919D01*
X159982755Y-107552934D01*
X159949115Y-107539000D01*
X159849053Y-107497553D01*
X159849049Y-107497552D01*
X159841541Y-107494442D01*
X159833481Y-107493380D01*
X159833478Y-107493380D01*
X159698059Y-107475552D01*
X159690000Y-107474491D01*
X159681941Y-107475552D01*
X159546518Y-107493380D01*
X159546510Y-107493381D01*
X159538459Y-107494442D01*
X159530953Y-107497550D01*
X159530949Y-107497552D01*
X159404755Y-107549823D01*
X159404750Y-107549825D01*
X159397246Y-107552934D01*
X159390804Y-107557876D01*
X159390799Y-107557880D01*
X159282425Y-107641039D01*
X159282421Y-107641042D01*
X159275983Y-107645983D01*
X159271042Y-107652421D01*
X159271039Y-107652425D01*
X159187880Y-107760799D01*
X159187876Y-107760804D01*
X159182934Y-107767246D01*
X159179825Y-107774750D01*
X159179823Y-107774755D01*
X159127552Y-107900949D01*
X159127550Y-107900953D01*
X159124442Y-107908459D01*
X159123381Y-107916510D01*
X159123380Y-107916518D01*
X159105710Y-108050741D01*
X159104491Y-108060000D01*
X159105552Y-108068059D01*
X159120874Y-108184444D01*
X159124442Y-108211541D01*
X159127552Y-108219049D01*
X159127553Y-108219053D01*
X159139536Y-108247982D01*
X159182934Y-108352755D01*
X159187880Y-108359201D01*
X159187882Y-108359204D01*
X159275983Y-108474017D01*
X159273596Y-108475848D01*
X159297877Y-108517904D01*
X159297879Y-108582089D01*
X159267387Y-108634905D01*
X159265983Y-108635983D01*
X159261042Y-108642421D01*
X159261041Y-108642423D01*
X159177880Y-108750799D01*
X159177876Y-108750804D01*
X159172934Y-108757246D01*
X159169825Y-108764750D01*
X159169823Y-108764755D01*
X159117552Y-108890949D01*
X159117550Y-108890953D01*
X159114442Y-108898459D01*
X159113381Y-108906510D01*
X159113380Y-108906518D01*
X159095552Y-109041941D01*
X159094491Y-109050000D01*
X159114442Y-109201541D01*
X159117552Y-109209049D01*
X159117553Y-109209053D01*
X159142587Y-109269491D01*
X159172934Y-109342755D01*
X159177880Y-109349201D01*
X159177882Y-109349204D01*
X159187032Y-109361128D01*
X159265983Y-109464017D01*
X159272430Y-109468964D01*
X159274784Y-109471318D01*
X159306878Y-109526905D01*
X159306878Y-109591091D01*
X159274786Y-109646678D01*
X159269521Y-109651942D01*
X159263083Y-109656883D01*
X159258142Y-109663321D01*
X159258140Y-109663324D01*
X159174980Y-109771699D01*
X159174976Y-109771704D01*
X159170034Y-109778146D01*
X159166925Y-109785650D01*
X159166923Y-109785655D01*
X159114652Y-109911849D01*
X159114650Y-109911853D01*
X159111542Y-109919359D01*
X159110481Y-109927410D01*
X159110480Y-109927418D01*
X159100064Y-110006541D01*
X159091591Y-110070900D01*
X155412659Y-110070900D01*
X155425441Y-109982000D01*
X155405777Y-109845235D01*
X155348379Y-109719551D01*
X155341418Y-109711518D01*
X155263702Y-109621829D01*
X155257896Y-109615128D01*
X155250436Y-109610333D01*
X155250434Y-109610332D01*
X155149124Y-109545224D01*
X155149121Y-109545222D01*
X155141659Y-109540427D01*
X155133148Y-109537928D01*
X155133146Y-109537927D01*
X155064391Y-109517739D01*
X155009085Y-109501500D01*
X154870915Y-109501500D01*
X154862404Y-109503998D01*
X154862404Y-109503999D01*
X154746853Y-109537927D01*
X154746848Y-109537928D01*
X154738341Y-109540427D01*
X154730880Y-109545221D01*
X154730875Y-109545224D01*
X154629565Y-109610332D01*
X154629560Y-109610336D01*
X154622104Y-109615128D01*
X154616299Y-109621827D01*
X154616297Y-109621829D01*
X154537428Y-109712848D01*
X154537424Y-109712853D01*
X154531621Y-109719551D01*
X154527938Y-109727614D01*
X154527935Y-109727620D01*
X154477909Y-109837162D01*
X154477907Y-109837167D01*
X154474223Y-109845235D01*
X154454559Y-109982000D01*
X154474223Y-110118765D01*
X154477908Y-110126834D01*
X154477909Y-110126837D01*
X154527935Y-110236379D01*
X154527936Y-110236381D01*
X154531621Y-110244449D01*
X154537427Y-110251149D01*
X154537428Y-110251151D01*
X154602803Y-110326597D01*
X154629016Y-110376277D01*
X154630620Y-110432425D01*
X154607286Y-110483520D01*
X154563801Y-110519077D01*
X154509090Y-110531800D01*
X154462739Y-110531800D01*
X154454230Y-110534298D01*
X154454226Y-110534299D01*
X154333161Y-110569847D01*
X154324647Y-110572347D01*
X154317184Y-110577142D01*
X154317184Y-110577143D01*
X154211029Y-110645364D01*
X154211025Y-110645366D01*
X154203572Y-110650157D01*
X154197770Y-110656851D01*
X154197765Y-110656857D01*
X154115131Y-110752223D01*
X154115128Y-110752227D01*
X154109323Y-110758927D01*
X154105641Y-110766987D01*
X154105639Y-110766992D01*
X154097494Y-110784829D01*
X154051739Y-110837632D01*
X153984700Y-110857316D01*
X153917661Y-110837632D01*
X153871906Y-110784829D01*
X153863760Y-110766992D01*
X153860077Y-110758927D01*
X153765828Y-110650157D01*
X153644753Y-110572347D01*
X153589563Y-110556141D01*
X153515173Y-110534299D01*
X153515170Y-110534298D01*
X153506661Y-110531800D01*
X153362739Y-110531800D01*
X153354230Y-110534298D01*
X153354226Y-110534299D01*
X153233161Y-110569847D01*
X153224647Y-110572347D01*
X153217184Y-110577142D01*
X153217184Y-110577143D01*
X153111029Y-110645364D01*
X153111025Y-110645366D01*
X153103572Y-110650157D01*
X153097770Y-110656851D01*
X153097765Y-110656857D01*
X153015131Y-110752223D01*
X153015128Y-110752227D01*
X153009323Y-110758927D01*
X153005641Y-110766987D01*
X153005639Y-110766992D01*
X152997494Y-110784829D01*
X152951739Y-110837632D01*
X152884700Y-110857316D01*
X152817661Y-110837632D01*
X152771906Y-110784829D01*
X152763760Y-110766992D01*
X152760077Y-110758927D01*
X152665828Y-110650157D01*
X152544753Y-110572347D01*
X152489563Y-110556141D01*
X152415173Y-110534299D01*
X152415170Y-110534298D01*
X152406661Y-110531800D01*
X152262739Y-110531800D01*
X152254230Y-110534298D01*
X152254226Y-110534299D01*
X152133161Y-110569847D01*
X152124647Y-110572347D01*
X152117184Y-110577142D01*
X152117184Y-110577143D01*
X152011029Y-110645364D01*
X152011025Y-110645366D01*
X152003572Y-110650157D01*
X151997770Y-110656851D01*
X151997765Y-110656857D01*
X151915131Y-110752223D01*
X151915128Y-110752227D01*
X151909323Y-110758927D01*
X151905641Y-110766989D01*
X151905638Y-110766994D01*
X151853220Y-110881773D01*
X151849535Y-110889843D01*
X151848273Y-110898616D01*
X151848272Y-110898622D01*
X151831820Y-111013054D01*
X151829053Y-111032300D01*
X151830315Y-111041077D01*
X151848272Y-111165977D01*
X151848273Y-111165981D01*
X151849535Y-111174757D01*
X151853219Y-111182825D01*
X151853220Y-111182826D01*
X151905637Y-111297603D01*
X151909323Y-111305673D01*
X151915130Y-111312375D01*
X151915131Y-111312376D01*
X151997765Y-111407742D01*
X151997767Y-111407744D01*
X152003572Y-111414443D01*
X152011029Y-111419235D01*
X152011030Y-111419236D01*
X152102444Y-111477985D01*
X152144236Y-111522873D01*
X152159404Y-111582300D01*
X152144236Y-111641727D01*
X152102444Y-111686615D01*
X152011030Y-111745363D01*
X152011025Y-111745367D01*
X152003572Y-111750157D01*
X151997770Y-111756851D01*
X151997765Y-111756857D01*
X151915131Y-111852223D01*
X151915128Y-111852227D01*
X151909323Y-111858927D01*
X151905641Y-111866989D01*
X151905638Y-111866994D01*
X151853220Y-111981773D01*
X151849535Y-111989843D01*
X151848273Y-111998616D01*
X151848272Y-111998622D01*
X151836510Y-112080435D01*
X151829053Y-112132300D01*
X151830315Y-112141077D01*
X151848272Y-112265977D01*
X151848273Y-112265981D01*
X151849535Y-112274757D01*
X151853219Y-112282825D01*
X151853220Y-112282826D01*
X151905637Y-112397603D01*
X151909323Y-112405673D01*
X151915130Y-112412375D01*
X151915131Y-112412376D01*
X151997765Y-112507742D01*
X151997767Y-112507744D01*
X152003572Y-112514443D01*
X152011029Y-112519235D01*
X152011030Y-112519236D01*
X152102444Y-112577985D01*
X152144236Y-112622873D01*
X152159404Y-112682300D01*
X152144236Y-112741727D01*
X152102444Y-112786615D01*
X152011030Y-112845363D01*
X152011025Y-112845367D01*
X152003572Y-112850157D01*
X151997770Y-112856851D01*
X151997765Y-112856857D01*
X151915131Y-112952223D01*
X151915128Y-112952227D01*
X151909323Y-112958927D01*
X151905641Y-112966989D01*
X151905638Y-112966994D01*
X151853220Y-113081773D01*
X151849535Y-113089843D01*
X151848273Y-113098616D01*
X151848272Y-113098622D01*
X151836515Y-113180400D01*
X151829053Y-113232300D01*
X148844000Y-113232300D01*
X148844000Y-110532134D01*
X148858641Y-110473682D01*
X148899108Y-110429033D01*
X148955843Y-110408731D01*
X149007038Y-110416324D01*
X149007301Y-110415344D01*
X149015145Y-110417445D01*
X149022659Y-110420558D01*
X149174200Y-110440509D01*
X149325741Y-110420558D01*
X149466955Y-110362066D01*
X149588217Y-110269017D01*
X149681266Y-110147755D01*
X149739758Y-110006541D01*
X149759709Y-109855000D01*
X149739758Y-109703459D01*
X149681266Y-109562246D01*
X149588217Y-109440983D01*
X149576099Y-109431685D01*
X149473404Y-109352882D01*
X149473401Y-109352880D01*
X149466955Y-109347934D01*
X149434638Y-109334548D01*
X149333253Y-109292553D01*
X149333249Y-109292552D01*
X149325741Y-109289442D01*
X149317681Y-109288380D01*
X149317678Y-109288380D01*
X149182259Y-109270552D01*
X149174200Y-109269491D01*
X149166141Y-109270552D01*
X149030718Y-109288380D01*
X149030710Y-109288381D01*
X149022659Y-109289442D01*
X149015151Y-109292551D01*
X149007299Y-109294656D01*
X149007036Y-109293674D01*
X148955848Y-109301269D01*
X148899110Y-109280969D01*
X148858642Y-109236320D01*
X148844000Y-109177866D01*
X148844000Y-107899200D01*
X151179691Y-107899200D01*
X151180752Y-107907258D01*
X151180752Y-107907259D01*
X151197490Y-108034400D01*
X151199642Y-108050741D01*
X151202752Y-108058249D01*
X151202753Y-108058253D01*
X151203477Y-108060000D01*
X151258134Y-108191955D01*
X151263080Y-108198401D01*
X151263082Y-108198404D01*
X151317483Y-108269299D01*
X151351183Y-108313217D01*
X151357630Y-108318164D01*
X151411113Y-108359204D01*
X151472445Y-108406266D01*
X151613659Y-108464758D01*
X151765200Y-108484709D01*
X151833066Y-108475774D01*
X151889109Y-108481293D01*
X151936932Y-108511031D01*
X151966670Y-108558854D01*
X151972190Y-108614898D01*
X151955452Y-108742041D01*
X151954391Y-108750100D01*
X151974342Y-108901641D01*
X151977452Y-108909149D01*
X151977453Y-108909153D01*
X152020238Y-109012447D01*
X152032834Y-109042855D01*
X152037780Y-109049301D01*
X152037782Y-109049304D01*
X152120935Y-109157669D01*
X152125883Y-109164117D01*
X152247145Y-109257166D01*
X152388359Y-109315658D01*
X152539900Y-109335609D01*
X152691441Y-109315658D01*
X152832655Y-109257166D01*
X152953917Y-109164117D01*
X153046966Y-109042855D01*
X153105458Y-108901641D01*
X153125409Y-108750100D01*
X153105458Y-108598559D01*
X153046966Y-108457346D01*
X152987617Y-108380001D01*
X152958861Y-108342526D01*
X152958860Y-108342525D01*
X152953917Y-108336083D01*
X152866884Y-108269299D01*
X152839104Y-108247982D01*
X152839101Y-108247980D01*
X152832655Y-108243034D01*
X152774759Y-108219053D01*
X152698953Y-108187653D01*
X152698949Y-108187652D01*
X152691441Y-108184542D01*
X152683381Y-108183480D01*
X152683378Y-108183480D01*
X152547959Y-108165652D01*
X152539900Y-108164591D01*
X152531841Y-108165652D01*
X152531839Y-108165652D01*
X152472032Y-108173525D01*
X152415988Y-108168005D01*
X152368166Y-108138267D01*
X152338428Y-108090444D01*
X152332909Y-108034400D01*
X152349648Y-107907258D01*
X152350709Y-107899200D01*
X152330758Y-107747659D01*
X152272266Y-107606446D01*
X152220513Y-107539000D01*
X152184161Y-107491626D01*
X152184160Y-107491625D01*
X152179217Y-107485183D01*
X152161006Y-107471209D01*
X152064404Y-107397082D01*
X152064401Y-107397080D01*
X152057955Y-107392134D01*
X151956632Y-107350165D01*
X151924253Y-107336753D01*
X151924249Y-107336752D01*
X151916741Y-107333642D01*
X151908681Y-107332580D01*
X151908678Y-107332580D01*
X151773259Y-107314752D01*
X151765200Y-107313691D01*
X151757141Y-107314752D01*
X151621718Y-107332580D01*
X151621710Y-107332581D01*
X151613659Y-107333642D01*
X151606153Y-107336750D01*
X151606149Y-107336752D01*
X151479955Y-107389023D01*
X151479950Y-107389025D01*
X151472446Y-107392134D01*
X151466004Y-107397076D01*
X151465999Y-107397080D01*
X151357625Y-107480239D01*
X151357621Y-107480242D01*
X151351183Y-107485183D01*
X151346242Y-107491621D01*
X151346239Y-107491625D01*
X151263080Y-107599999D01*
X151263076Y-107600004D01*
X151258134Y-107606446D01*
X151255025Y-107613950D01*
X151255023Y-107613955D01*
X151202752Y-107740149D01*
X151202750Y-107740153D01*
X151199642Y-107747659D01*
X151198581Y-107755710D01*
X151198580Y-107755718D01*
X151190472Y-107817308D01*
X151179691Y-107899200D01*
X148844000Y-107899200D01*
X148844000Y-104715700D01*
X148860613Y-104653700D01*
X148906000Y-104608313D01*
X148968000Y-104591700D01*
X153215423Y-104591700D01*
X153280904Y-104610399D01*
G37*
G04 #@! TD.AperFunction*
M02*
